G04 #@! TF.GenerationSoftware,KiCad,Pcbnew,(5.1.5)-3*
G04 #@! TF.CreationDate,2020-11-27T10:24:01+11:00*
G04 #@! TF.ProjectId,BoSL,426f534c-2e6b-4696-9361-645f70636258,0.4.2*
G04 #@! TF.SameCoordinates,Original*
G04 #@! TF.FileFunction,Soldermask,Bot*
G04 #@! TF.FilePolarity,Negative*
%FSLAX46Y46*%
G04 Gerber Fmt 4.6, Leading zero omitted, Abs format (unit mm)*
G04 Created by KiCad (PCBNEW (5.1.5)-3) date 2020-11-27 10:24:01*
%MOMM*%
%LPD*%
G04 APERTURE LIST*
%ADD10O,2.600000X1.500000*%
%ADD11O,2.200000X1.500000*%
%ADD12R,0.850000X1.900000*%
%ADD13R,3.600000X3.600000*%
%ADD14R,4.400000X4.400000*%
%ADD15R,1.700000X1.950000*%
%ADD16C,1.850000*%
%ADD17C,4.000000*%
%ADD18O,2.100000X2.100000*%
%ADD19R,2.100000X2.100000*%
%ADD20C,2.800000*%
%ADD21R,2.800000X2.800000*%
%ADD22C,4.800000*%
%ADD23C,0.100000*%
%ADD24R,3.900000X3.900000*%
%ADD25R,1.750000X2.300000*%
%ADD26R,1.400000X1.600000*%
%ADD27R,1.750000X1.950000*%
%ADD28R,2.200000X1.570000*%
%ADD29R,1.500000X1.150000*%
%ADD30R,1.500000X1.250000*%
%ADD31R,2.650000X1.300000*%
%ADD32R,3.200000X1.300000*%
G04 APERTURE END LIST*
D10*
X128100000Y-64825000D03*
D11*
X130900000Y-66975000D03*
X125300000Y-66975000D03*
D12*
X126800000Y-66725000D03*
X129400000Y-66725000D03*
X127450000Y-66725000D03*
X128750000Y-66725000D03*
X128100000Y-66725000D03*
D13*
X187500000Y-71600000D03*
X172900000Y-71600000D03*
D14*
X180200000Y-71600000D03*
D15*
X121000000Y-80650000D03*
X121000000Y-72700000D03*
X116500000Y-80650000D03*
X116500000Y-72700000D03*
D16*
X120182000Y-108710000D03*
X120182000Y-106670000D03*
X120182000Y-104630000D03*
X120182000Y-102590000D03*
X121960000Y-109690000D03*
X121960000Y-103570000D03*
X121960000Y-107650000D03*
X121960000Y-105610000D03*
D17*
X124500000Y-99800000D03*
X124500000Y-112500000D03*
D18*
X186620000Y-129000000D03*
X184080000Y-129000000D03*
X181540000Y-129000000D03*
X179000000Y-129000000D03*
X176460000Y-129000000D03*
X173920000Y-129000000D03*
X171380000Y-129000000D03*
D19*
X168840000Y-129000000D03*
D18*
X145340000Y-129000000D03*
X147880000Y-129000000D03*
X150420000Y-129000000D03*
X152960000Y-129000000D03*
X155500000Y-129000000D03*
D19*
X158040000Y-129000000D03*
D18*
X138000000Y-129000000D03*
X135460000Y-129000000D03*
X132920000Y-129000000D03*
D19*
X130380000Y-129000000D03*
D18*
X148120000Y-65500000D03*
X145580000Y-65500000D03*
X143040000Y-65500000D03*
D19*
X140500000Y-65500000D03*
D18*
X134600000Y-73120000D03*
X134600000Y-70580000D03*
X134600000Y-68040000D03*
D19*
X134600000Y-65500000D03*
D20*
X154500000Y-71500000D03*
X158000000Y-71500000D03*
X161500000Y-71500000D03*
D21*
X165000000Y-71500000D03*
D18*
X154840000Y-65500000D03*
X157380000Y-65500000D03*
X159920000Y-65500000D03*
X162460000Y-65500000D03*
D19*
X165000000Y-65500000D03*
D20*
X190000000Y-123000000D03*
X186500000Y-123000000D03*
X183000000Y-123000000D03*
X179500000Y-123000000D03*
X176000000Y-123000000D03*
X172500000Y-123000000D03*
X169000000Y-123000000D03*
D21*
X165500000Y-123000000D03*
D20*
X138000000Y-123000000D03*
D21*
X134500000Y-123000000D03*
D20*
X139000000Y-71500000D03*
X142500000Y-71500000D03*
X146000000Y-71500000D03*
D21*
X149500000Y-71500000D03*
D20*
X160500000Y-123000000D03*
X157000000Y-123000000D03*
X153500000Y-123000000D03*
X150000000Y-123000000D03*
X146500000Y-123000000D03*
D21*
X143000000Y-123000000D03*
D22*
X168900000Y-112900000D03*
X118800000Y-67700000D03*
D23*
G36*
X128588425Y-73651396D02*
G01*
X128616576Y-73655572D01*
X128644183Y-73662487D01*
X128670978Y-73672075D01*
X128696705Y-73684243D01*
X128721115Y-73698874D01*
X128743974Y-73715827D01*
X128765061Y-73734939D01*
X128784173Y-73756026D01*
X128801126Y-73778885D01*
X128815757Y-73803295D01*
X128827925Y-73829022D01*
X128837513Y-73855817D01*
X128844428Y-73883424D01*
X128848604Y-73911575D01*
X128850000Y-73940000D01*
X128850000Y-77260000D01*
X128848604Y-77288425D01*
X128844428Y-77316576D01*
X128837513Y-77344183D01*
X128827925Y-77370978D01*
X128815757Y-77396705D01*
X128801126Y-77421115D01*
X128784173Y-77443974D01*
X128765061Y-77465061D01*
X128743974Y-77484173D01*
X128721115Y-77501126D01*
X128696705Y-77515757D01*
X128670978Y-77527925D01*
X128644183Y-77537513D01*
X128616576Y-77544428D01*
X128588425Y-77548604D01*
X128560000Y-77550000D01*
X126240000Y-77550000D01*
X126211575Y-77548604D01*
X126183424Y-77544428D01*
X126155817Y-77537513D01*
X126129022Y-77527925D01*
X126103295Y-77515757D01*
X126078885Y-77501126D01*
X126056026Y-77484173D01*
X126034939Y-77465061D01*
X126015827Y-77443974D01*
X125998874Y-77421115D01*
X125984243Y-77396705D01*
X125972075Y-77370978D01*
X125962487Y-77344183D01*
X125955572Y-77316576D01*
X125951396Y-77288425D01*
X125950000Y-77260000D01*
X125950000Y-73940000D01*
X125951396Y-73911575D01*
X125955572Y-73883424D01*
X125962487Y-73855817D01*
X125972075Y-73829022D01*
X125984243Y-73803295D01*
X125998874Y-73778885D01*
X126015827Y-73756026D01*
X126034939Y-73734939D01*
X126056026Y-73715827D01*
X126078885Y-73698874D01*
X126103295Y-73684243D01*
X126129022Y-73672075D01*
X126155817Y-73662487D01*
X126183424Y-73655572D01*
X126211575Y-73651396D01*
X126240000Y-73650000D01*
X128560000Y-73650000D01*
X128588425Y-73651396D01*
G37*
G36*
X128588425Y-80151396D02*
G01*
X128616576Y-80155572D01*
X128644183Y-80162487D01*
X128670978Y-80172075D01*
X128696705Y-80184243D01*
X128721115Y-80198874D01*
X128743974Y-80215827D01*
X128765061Y-80234939D01*
X128784173Y-80256026D01*
X128801126Y-80278885D01*
X128815757Y-80303295D01*
X128827925Y-80329022D01*
X128837513Y-80355817D01*
X128844428Y-80383424D01*
X128848604Y-80411575D01*
X128850000Y-80440000D01*
X128850000Y-83760000D01*
X128848604Y-83788425D01*
X128844428Y-83816576D01*
X128837513Y-83844183D01*
X128827925Y-83870978D01*
X128815757Y-83896705D01*
X128801126Y-83921115D01*
X128784173Y-83943974D01*
X128765061Y-83965061D01*
X128743974Y-83984173D01*
X128721115Y-84001126D01*
X128696705Y-84015757D01*
X128670978Y-84027925D01*
X128644183Y-84037513D01*
X128616576Y-84044428D01*
X128588425Y-84048604D01*
X128560000Y-84050000D01*
X126240000Y-84050000D01*
X126211575Y-84048604D01*
X126183424Y-84044428D01*
X126155817Y-84037513D01*
X126129022Y-84027925D01*
X126103295Y-84015757D01*
X126078885Y-84001126D01*
X126056026Y-83984173D01*
X126034939Y-83965061D01*
X126015827Y-83943974D01*
X125998874Y-83921115D01*
X125984243Y-83896705D01*
X125972075Y-83870978D01*
X125962487Y-83844183D01*
X125955572Y-83816576D01*
X125951396Y-83788425D01*
X125950000Y-83760000D01*
X125950000Y-80440000D01*
X125951396Y-80411575D01*
X125955572Y-80383424D01*
X125962487Y-80355817D01*
X125972075Y-80329022D01*
X125984243Y-80303295D01*
X125998874Y-80278885D01*
X126015827Y-80256026D01*
X126034939Y-80234939D01*
X126056026Y-80215827D01*
X126078885Y-80198874D01*
X126103295Y-80184243D01*
X126129022Y-80172075D01*
X126155817Y-80162487D01*
X126183424Y-80155572D01*
X126211575Y-80151396D01*
X126240000Y-80150000D01*
X128560000Y-80150000D01*
X128588425Y-80151396D01*
G37*
G36*
X121970567Y-92154695D02*
G01*
X122065213Y-92168734D01*
X122158028Y-92191983D01*
X122248116Y-92224217D01*
X122334612Y-92265127D01*
X122416681Y-92314317D01*
X122493533Y-92371315D01*
X122564429Y-92435571D01*
X122628685Y-92506467D01*
X122685683Y-92583319D01*
X122734873Y-92665388D01*
X122775783Y-92751884D01*
X122808017Y-92841972D01*
X122831266Y-92934787D01*
X122845305Y-93029433D01*
X122850000Y-93125000D01*
X122850000Y-95075000D01*
X122845305Y-95170567D01*
X122831266Y-95265213D01*
X122808017Y-95358028D01*
X122775783Y-95448116D01*
X122734873Y-95534612D01*
X122685683Y-95616681D01*
X122628685Y-95693533D01*
X122564429Y-95764429D01*
X122493533Y-95828685D01*
X122416681Y-95885683D01*
X122334612Y-95934873D01*
X122248116Y-95975783D01*
X122158028Y-96008017D01*
X122065213Y-96031266D01*
X121970567Y-96045305D01*
X121875000Y-96050000D01*
X119925000Y-96050000D01*
X119829433Y-96045305D01*
X119734787Y-96031266D01*
X119641972Y-96008017D01*
X119551884Y-95975783D01*
X119465388Y-95934873D01*
X119383319Y-95885683D01*
X119306467Y-95828685D01*
X119235571Y-95764429D01*
X119171315Y-95693533D01*
X119114317Y-95616681D01*
X119065127Y-95534612D01*
X119024217Y-95448116D01*
X118991983Y-95358028D01*
X118968734Y-95265213D01*
X118954695Y-95170567D01*
X118950000Y-95075000D01*
X118950000Y-93125000D01*
X118954695Y-93029433D01*
X118968734Y-92934787D01*
X118991983Y-92841972D01*
X119024217Y-92751884D01*
X119065127Y-92665388D01*
X119114317Y-92583319D01*
X119171315Y-92506467D01*
X119235571Y-92435571D01*
X119306467Y-92371315D01*
X119383319Y-92314317D01*
X119465388Y-92265127D01*
X119551884Y-92224217D01*
X119641972Y-92191983D01*
X119734787Y-92168734D01*
X119829433Y-92154695D01*
X119925000Y-92150000D01*
X121875000Y-92150000D01*
X121970567Y-92154695D01*
G37*
G36*
X124833315Y-87454093D02*
G01*
X124915827Y-87466333D01*
X124996742Y-87486601D01*
X125075281Y-87514702D01*
X125150687Y-87550367D01*
X125222235Y-87593251D01*
X125289234Y-87642941D01*
X125351041Y-87698959D01*
X125407059Y-87760766D01*
X125456749Y-87827765D01*
X125499633Y-87899313D01*
X125535298Y-87974719D01*
X125563399Y-88053258D01*
X125583667Y-88134173D01*
X125595907Y-88216685D01*
X125600000Y-88300000D01*
X125600000Y-90500000D01*
X125595907Y-90583315D01*
X125583667Y-90665827D01*
X125563399Y-90746742D01*
X125535298Y-90825281D01*
X125499633Y-90900687D01*
X125456749Y-90972235D01*
X125407059Y-91039234D01*
X125351041Y-91101041D01*
X125289234Y-91157059D01*
X125222235Y-91206749D01*
X125150687Y-91249633D01*
X125075281Y-91285298D01*
X124996742Y-91313399D01*
X124915827Y-91333667D01*
X124833315Y-91345907D01*
X124750000Y-91350000D01*
X123050000Y-91350000D01*
X122966685Y-91345907D01*
X122884173Y-91333667D01*
X122803258Y-91313399D01*
X122724719Y-91285298D01*
X122649313Y-91249633D01*
X122577765Y-91206749D01*
X122510766Y-91157059D01*
X122448959Y-91101041D01*
X122392941Y-91039234D01*
X122343251Y-90972235D01*
X122300367Y-90900687D01*
X122264702Y-90825281D01*
X122236601Y-90746742D01*
X122216333Y-90665827D01*
X122204093Y-90583315D01*
X122200000Y-90500000D01*
X122200000Y-88300000D01*
X122204093Y-88216685D01*
X122216333Y-88134173D01*
X122236601Y-88053258D01*
X122264702Y-87974719D01*
X122300367Y-87899313D01*
X122343251Y-87827765D01*
X122392941Y-87760766D01*
X122448959Y-87698959D01*
X122510766Y-87642941D01*
X122577765Y-87593251D01*
X122649313Y-87550367D01*
X122724719Y-87514702D01*
X122803258Y-87486601D01*
X122884173Y-87466333D01*
X122966685Y-87454093D01*
X123050000Y-87450000D01*
X124750000Y-87450000D01*
X124833315Y-87454093D01*
G37*
D24*
X117900000Y-89400000D03*
D23*
G36*
X160931943Y-97511655D02*
G01*
X160965312Y-97516605D01*
X160998035Y-97524802D01*
X161029797Y-97536166D01*
X161060293Y-97550590D01*
X161089227Y-97567932D01*
X161116323Y-97588028D01*
X161141318Y-97610682D01*
X161163972Y-97635677D01*
X161184068Y-97662773D01*
X161201410Y-97691707D01*
X161215834Y-97722203D01*
X161227198Y-97753965D01*
X161235395Y-97786688D01*
X161240345Y-97820057D01*
X161242000Y-97853750D01*
X161242000Y-98541250D01*
X161240345Y-98574943D01*
X161235395Y-98608312D01*
X161227198Y-98641035D01*
X161215834Y-98672797D01*
X161201410Y-98703293D01*
X161184068Y-98732227D01*
X161163972Y-98759323D01*
X161141318Y-98784318D01*
X161116323Y-98806972D01*
X161089227Y-98827068D01*
X161060293Y-98844410D01*
X161029797Y-98858834D01*
X160998035Y-98870198D01*
X160965312Y-98878395D01*
X160931943Y-98883345D01*
X160898250Y-98885000D01*
X159785750Y-98885000D01*
X159752057Y-98883345D01*
X159718688Y-98878395D01*
X159685965Y-98870198D01*
X159654203Y-98858834D01*
X159623707Y-98844410D01*
X159594773Y-98827068D01*
X159567677Y-98806972D01*
X159542682Y-98784318D01*
X159520028Y-98759323D01*
X159499932Y-98732227D01*
X159482590Y-98703293D01*
X159468166Y-98672797D01*
X159456802Y-98641035D01*
X159448605Y-98608312D01*
X159443655Y-98574943D01*
X159442000Y-98541250D01*
X159442000Y-97853750D01*
X159443655Y-97820057D01*
X159448605Y-97786688D01*
X159456802Y-97753965D01*
X159468166Y-97722203D01*
X159482590Y-97691707D01*
X159499932Y-97662773D01*
X159520028Y-97635677D01*
X159542682Y-97610682D01*
X159567677Y-97588028D01*
X159594773Y-97567932D01*
X159623707Y-97550590D01*
X159654203Y-97536166D01*
X159685965Y-97524802D01*
X159718688Y-97516605D01*
X159752057Y-97511655D01*
X159785750Y-97510000D01*
X160898250Y-97510000D01*
X160931943Y-97511655D01*
G37*
G36*
X160931943Y-95636655D02*
G01*
X160965312Y-95641605D01*
X160998035Y-95649802D01*
X161029797Y-95661166D01*
X161060293Y-95675590D01*
X161089227Y-95692932D01*
X161116323Y-95713028D01*
X161141318Y-95735682D01*
X161163972Y-95760677D01*
X161184068Y-95787773D01*
X161201410Y-95816707D01*
X161215834Y-95847203D01*
X161227198Y-95878965D01*
X161235395Y-95911688D01*
X161240345Y-95945057D01*
X161242000Y-95978750D01*
X161242000Y-96666250D01*
X161240345Y-96699943D01*
X161235395Y-96733312D01*
X161227198Y-96766035D01*
X161215834Y-96797797D01*
X161201410Y-96828293D01*
X161184068Y-96857227D01*
X161163972Y-96884323D01*
X161141318Y-96909318D01*
X161116323Y-96931972D01*
X161089227Y-96952068D01*
X161060293Y-96969410D01*
X161029797Y-96983834D01*
X160998035Y-96995198D01*
X160965312Y-97003395D01*
X160931943Y-97008345D01*
X160898250Y-97010000D01*
X159785750Y-97010000D01*
X159752057Y-97008345D01*
X159718688Y-97003395D01*
X159685965Y-96995198D01*
X159654203Y-96983834D01*
X159623707Y-96969410D01*
X159594773Y-96952068D01*
X159567677Y-96931972D01*
X159542682Y-96909318D01*
X159520028Y-96884323D01*
X159499932Y-96857227D01*
X159482590Y-96828293D01*
X159468166Y-96797797D01*
X159456802Y-96766035D01*
X159448605Y-96733312D01*
X159443655Y-96699943D01*
X159442000Y-96666250D01*
X159442000Y-95978750D01*
X159443655Y-95945057D01*
X159448605Y-95911688D01*
X159456802Y-95878965D01*
X159468166Y-95847203D01*
X159482590Y-95816707D01*
X159499932Y-95787773D01*
X159520028Y-95760677D01*
X159542682Y-95735682D01*
X159567677Y-95713028D01*
X159594773Y-95692932D01*
X159623707Y-95675590D01*
X159654203Y-95661166D01*
X159685965Y-95649802D01*
X159718688Y-95641605D01*
X159752057Y-95636655D01*
X159785750Y-95635000D01*
X160898250Y-95635000D01*
X160931943Y-95636655D01*
G37*
G36*
X157375943Y-97591655D02*
G01*
X157409312Y-97596605D01*
X157442035Y-97604802D01*
X157473797Y-97616166D01*
X157504293Y-97630590D01*
X157533227Y-97647932D01*
X157560323Y-97668028D01*
X157585318Y-97690682D01*
X157607972Y-97715677D01*
X157628068Y-97742773D01*
X157645410Y-97771707D01*
X157659834Y-97802203D01*
X157671198Y-97833965D01*
X157679395Y-97866688D01*
X157684345Y-97900057D01*
X157686000Y-97933750D01*
X157686000Y-98621250D01*
X157684345Y-98654943D01*
X157679395Y-98688312D01*
X157671198Y-98721035D01*
X157659834Y-98752797D01*
X157645410Y-98783293D01*
X157628068Y-98812227D01*
X157607972Y-98839323D01*
X157585318Y-98864318D01*
X157560323Y-98886972D01*
X157533227Y-98907068D01*
X157504293Y-98924410D01*
X157473797Y-98938834D01*
X157442035Y-98950198D01*
X157409312Y-98958395D01*
X157375943Y-98963345D01*
X157342250Y-98965000D01*
X156229750Y-98965000D01*
X156196057Y-98963345D01*
X156162688Y-98958395D01*
X156129965Y-98950198D01*
X156098203Y-98938834D01*
X156067707Y-98924410D01*
X156038773Y-98907068D01*
X156011677Y-98886972D01*
X155986682Y-98864318D01*
X155964028Y-98839323D01*
X155943932Y-98812227D01*
X155926590Y-98783293D01*
X155912166Y-98752797D01*
X155900802Y-98721035D01*
X155892605Y-98688312D01*
X155887655Y-98654943D01*
X155886000Y-98621250D01*
X155886000Y-97933750D01*
X155887655Y-97900057D01*
X155892605Y-97866688D01*
X155900802Y-97833965D01*
X155912166Y-97802203D01*
X155926590Y-97771707D01*
X155943932Y-97742773D01*
X155964028Y-97715677D01*
X155986682Y-97690682D01*
X156011677Y-97668028D01*
X156038773Y-97647932D01*
X156067707Y-97630590D01*
X156098203Y-97616166D01*
X156129965Y-97604802D01*
X156162688Y-97596605D01*
X156196057Y-97591655D01*
X156229750Y-97590000D01*
X157342250Y-97590000D01*
X157375943Y-97591655D01*
G37*
G36*
X157375943Y-95716655D02*
G01*
X157409312Y-95721605D01*
X157442035Y-95729802D01*
X157473797Y-95741166D01*
X157504293Y-95755590D01*
X157533227Y-95772932D01*
X157560323Y-95793028D01*
X157585318Y-95815682D01*
X157607972Y-95840677D01*
X157628068Y-95867773D01*
X157645410Y-95896707D01*
X157659834Y-95927203D01*
X157671198Y-95958965D01*
X157679395Y-95991688D01*
X157684345Y-96025057D01*
X157686000Y-96058750D01*
X157686000Y-96746250D01*
X157684345Y-96779943D01*
X157679395Y-96813312D01*
X157671198Y-96846035D01*
X157659834Y-96877797D01*
X157645410Y-96908293D01*
X157628068Y-96937227D01*
X157607972Y-96964323D01*
X157585318Y-96989318D01*
X157560323Y-97011972D01*
X157533227Y-97032068D01*
X157504293Y-97049410D01*
X157473797Y-97063834D01*
X157442035Y-97075198D01*
X157409312Y-97083395D01*
X157375943Y-97088345D01*
X157342250Y-97090000D01*
X156229750Y-97090000D01*
X156196057Y-97088345D01*
X156162688Y-97083395D01*
X156129965Y-97075198D01*
X156098203Y-97063834D01*
X156067707Y-97049410D01*
X156038773Y-97032068D01*
X156011677Y-97011972D01*
X155986682Y-96989318D01*
X155964028Y-96964323D01*
X155943932Y-96937227D01*
X155926590Y-96908293D01*
X155912166Y-96877797D01*
X155900802Y-96846035D01*
X155892605Y-96813312D01*
X155887655Y-96779943D01*
X155886000Y-96746250D01*
X155886000Y-96058750D01*
X155887655Y-96025057D01*
X155892605Y-95991688D01*
X155900802Y-95958965D01*
X155912166Y-95927203D01*
X155926590Y-95896707D01*
X155943932Y-95867773D01*
X155964028Y-95840677D01*
X155986682Y-95815682D01*
X156011677Y-95793028D01*
X156038773Y-95772932D01*
X156067707Y-95755590D01*
X156098203Y-95741166D01*
X156129965Y-95729802D01*
X156162688Y-95721605D01*
X156196057Y-95716655D01*
X156229750Y-95715000D01*
X157342250Y-95715000D01*
X157375943Y-95716655D01*
G37*
G36*
X153819943Y-97511655D02*
G01*
X153853312Y-97516605D01*
X153886035Y-97524802D01*
X153917797Y-97536166D01*
X153948293Y-97550590D01*
X153977227Y-97567932D01*
X154004323Y-97588028D01*
X154029318Y-97610682D01*
X154051972Y-97635677D01*
X154072068Y-97662773D01*
X154089410Y-97691707D01*
X154103834Y-97722203D01*
X154115198Y-97753965D01*
X154123395Y-97786688D01*
X154128345Y-97820057D01*
X154130000Y-97853750D01*
X154130000Y-98541250D01*
X154128345Y-98574943D01*
X154123395Y-98608312D01*
X154115198Y-98641035D01*
X154103834Y-98672797D01*
X154089410Y-98703293D01*
X154072068Y-98732227D01*
X154051972Y-98759323D01*
X154029318Y-98784318D01*
X154004323Y-98806972D01*
X153977227Y-98827068D01*
X153948293Y-98844410D01*
X153917797Y-98858834D01*
X153886035Y-98870198D01*
X153853312Y-98878395D01*
X153819943Y-98883345D01*
X153786250Y-98885000D01*
X152673750Y-98885000D01*
X152640057Y-98883345D01*
X152606688Y-98878395D01*
X152573965Y-98870198D01*
X152542203Y-98858834D01*
X152511707Y-98844410D01*
X152482773Y-98827068D01*
X152455677Y-98806972D01*
X152430682Y-98784318D01*
X152408028Y-98759323D01*
X152387932Y-98732227D01*
X152370590Y-98703293D01*
X152356166Y-98672797D01*
X152344802Y-98641035D01*
X152336605Y-98608312D01*
X152331655Y-98574943D01*
X152330000Y-98541250D01*
X152330000Y-97853750D01*
X152331655Y-97820057D01*
X152336605Y-97786688D01*
X152344802Y-97753965D01*
X152356166Y-97722203D01*
X152370590Y-97691707D01*
X152387932Y-97662773D01*
X152408028Y-97635677D01*
X152430682Y-97610682D01*
X152455677Y-97588028D01*
X152482773Y-97567932D01*
X152511707Y-97550590D01*
X152542203Y-97536166D01*
X152573965Y-97524802D01*
X152606688Y-97516605D01*
X152640057Y-97511655D01*
X152673750Y-97510000D01*
X153786250Y-97510000D01*
X153819943Y-97511655D01*
G37*
G36*
X153819943Y-95636655D02*
G01*
X153853312Y-95641605D01*
X153886035Y-95649802D01*
X153917797Y-95661166D01*
X153948293Y-95675590D01*
X153977227Y-95692932D01*
X154004323Y-95713028D01*
X154029318Y-95735682D01*
X154051972Y-95760677D01*
X154072068Y-95787773D01*
X154089410Y-95816707D01*
X154103834Y-95847203D01*
X154115198Y-95878965D01*
X154123395Y-95911688D01*
X154128345Y-95945057D01*
X154130000Y-95978750D01*
X154130000Y-96666250D01*
X154128345Y-96699943D01*
X154123395Y-96733312D01*
X154115198Y-96766035D01*
X154103834Y-96797797D01*
X154089410Y-96828293D01*
X154072068Y-96857227D01*
X154051972Y-96884323D01*
X154029318Y-96909318D01*
X154004323Y-96931972D01*
X153977227Y-96952068D01*
X153948293Y-96969410D01*
X153917797Y-96983834D01*
X153886035Y-96995198D01*
X153853312Y-97003395D01*
X153819943Y-97008345D01*
X153786250Y-97010000D01*
X152673750Y-97010000D01*
X152640057Y-97008345D01*
X152606688Y-97003395D01*
X152573965Y-96995198D01*
X152542203Y-96983834D01*
X152511707Y-96969410D01*
X152482773Y-96952068D01*
X152455677Y-96931972D01*
X152430682Y-96909318D01*
X152408028Y-96884323D01*
X152387932Y-96857227D01*
X152370590Y-96828293D01*
X152356166Y-96797797D01*
X152344802Y-96766035D01*
X152336605Y-96733312D01*
X152331655Y-96699943D01*
X152330000Y-96666250D01*
X152330000Y-95978750D01*
X152331655Y-95945057D01*
X152336605Y-95911688D01*
X152344802Y-95878965D01*
X152356166Y-95847203D01*
X152370590Y-95816707D01*
X152387932Y-95787773D01*
X152408028Y-95760677D01*
X152430682Y-95735682D01*
X152455677Y-95713028D01*
X152482773Y-95692932D01*
X152511707Y-95675590D01*
X152542203Y-95661166D01*
X152573965Y-95649802D01*
X152606688Y-95641605D01*
X152640057Y-95636655D01*
X152673750Y-95635000D01*
X153786250Y-95635000D01*
X153819943Y-95636655D01*
G37*
G36*
X158229943Y-111156655D02*
G01*
X158263312Y-111161605D01*
X158296035Y-111169802D01*
X158327797Y-111181166D01*
X158358293Y-111195590D01*
X158387227Y-111212932D01*
X158414323Y-111233028D01*
X158439318Y-111255682D01*
X158461972Y-111280677D01*
X158482068Y-111307773D01*
X158499410Y-111336707D01*
X158513834Y-111367203D01*
X158525198Y-111398965D01*
X158533395Y-111431688D01*
X158538345Y-111465057D01*
X158540000Y-111498750D01*
X158540000Y-112186250D01*
X158538345Y-112219943D01*
X158533395Y-112253312D01*
X158525198Y-112286035D01*
X158513834Y-112317797D01*
X158499410Y-112348293D01*
X158482068Y-112377227D01*
X158461972Y-112404323D01*
X158439318Y-112429318D01*
X158414323Y-112451972D01*
X158387227Y-112472068D01*
X158358293Y-112489410D01*
X158327797Y-112503834D01*
X158296035Y-112515198D01*
X158263312Y-112523395D01*
X158229943Y-112528345D01*
X158196250Y-112530000D01*
X157083750Y-112530000D01*
X157050057Y-112528345D01*
X157016688Y-112523395D01*
X156983965Y-112515198D01*
X156952203Y-112503834D01*
X156921707Y-112489410D01*
X156892773Y-112472068D01*
X156865677Y-112451972D01*
X156840682Y-112429318D01*
X156818028Y-112404323D01*
X156797932Y-112377227D01*
X156780590Y-112348293D01*
X156766166Y-112317797D01*
X156754802Y-112286035D01*
X156746605Y-112253312D01*
X156741655Y-112219943D01*
X156740000Y-112186250D01*
X156740000Y-111498750D01*
X156741655Y-111465057D01*
X156746605Y-111431688D01*
X156754802Y-111398965D01*
X156766166Y-111367203D01*
X156780590Y-111336707D01*
X156797932Y-111307773D01*
X156818028Y-111280677D01*
X156840682Y-111255682D01*
X156865677Y-111233028D01*
X156892773Y-111212932D01*
X156921707Y-111195590D01*
X156952203Y-111181166D01*
X156983965Y-111169802D01*
X157016688Y-111161605D01*
X157050057Y-111156655D01*
X157083750Y-111155000D01*
X158196250Y-111155000D01*
X158229943Y-111156655D01*
G37*
G36*
X158229943Y-113031655D02*
G01*
X158263312Y-113036605D01*
X158296035Y-113044802D01*
X158327797Y-113056166D01*
X158358293Y-113070590D01*
X158387227Y-113087932D01*
X158414323Y-113108028D01*
X158439318Y-113130682D01*
X158461972Y-113155677D01*
X158482068Y-113182773D01*
X158499410Y-113211707D01*
X158513834Y-113242203D01*
X158525198Y-113273965D01*
X158533395Y-113306688D01*
X158538345Y-113340057D01*
X158540000Y-113373750D01*
X158540000Y-114061250D01*
X158538345Y-114094943D01*
X158533395Y-114128312D01*
X158525198Y-114161035D01*
X158513834Y-114192797D01*
X158499410Y-114223293D01*
X158482068Y-114252227D01*
X158461972Y-114279323D01*
X158439318Y-114304318D01*
X158414323Y-114326972D01*
X158387227Y-114347068D01*
X158358293Y-114364410D01*
X158327797Y-114378834D01*
X158296035Y-114390198D01*
X158263312Y-114398395D01*
X158229943Y-114403345D01*
X158196250Y-114405000D01*
X157083750Y-114405000D01*
X157050057Y-114403345D01*
X157016688Y-114398395D01*
X156983965Y-114390198D01*
X156952203Y-114378834D01*
X156921707Y-114364410D01*
X156892773Y-114347068D01*
X156865677Y-114326972D01*
X156840682Y-114304318D01*
X156818028Y-114279323D01*
X156797932Y-114252227D01*
X156780590Y-114223293D01*
X156766166Y-114192797D01*
X156754802Y-114161035D01*
X156746605Y-114128312D01*
X156741655Y-114094943D01*
X156740000Y-114061250D01*
X156740000Y-113373750D01*
X156741655Y-113340057D01*
X156746605Y-113306688D01*
X156754802Y-113273965D01*
X156766166Y-113242203D01*
X156780590Y-113211707D01*
X156797932Y-113182773D01*
X156818028Y-113155677D01*
X156840682Y-113130682D01*
X156865677Y-113108028D01*
X156892773Y-113087932D01*
X156921707Y-113070590D01*
X156952203Y-113056166D01*
X156983965Y-113044802D01*
X157016688Y-113036605D01*
X157050057Y-113031655D01*
X157083750Y-113030000D01*
X158196250Y-113030000D01*
X158229943Y-113031655D01*
G37*
G36*
X155689943Y-111156655D02*
G01*
X155723312Y-111161605D01*
X155756035Y-111169802D01*
X155787797Y-111181166D01*
X155818293Y-111195590D01*
X155847227Y-111212932D01*
X155874323Y-111233028D01*
X155899318Y-111255682D01*
X155921972Y-111280677D01*
X155942068Y-111307773D01*
X155959410Y-111336707D01*
X155973834Y-111367203D01*
X155985198Y-111398965D01*
X155993395Y-111431688D01*
X155998345Y-111465057D01*
X156000000Y-111498750D01*
X156000000Y-112186250D01*
X155998345Y-112219943D01*
X155993395Y-112253312D01*
X155985198Y-112286035D01*
X155973834Y-112317797D01*
X155959410Y-112348293D01*
X155942068Y-112377227D01*
X155921972Y-112404323D01*
X155899318Y-112429318D01*
X155874323Y-112451972D01*
X155847227Y-112472068D01*
X155818293Y-112489410D01*
X155787797Y-112503834D01*
X155756035Y-112515198D01*
X155723312Y-112523395D01*
X155689943Y-112528345D01*
X155656250Y-112530000D01*
X154543750Y-112530000D01*
X154510057Y-112528345D01*
X154476688Y-112523395D01*
X154443965Y-112515198D01*
X154412203Y-112503834D01*
X154381707Y-112489410D01*
X154352773Y-112472068D01*
X154325677Y-112451972D01*
X154300682Y-112429318D01*
X154278028Y-112404323D01*
X154257932Y-112377227D01*
X154240590Y-112348293D01*
X154226166Y-112317797D01*
X154214802Y-112286035D01*
X154206605Y-112253312D01*
X154201655Y-112219943D01*
X154200000Y-112186250D01*
X154200000Y-111498750D01*
X154201655Y-111465057D01*
X154206605Y-111431688D01*
X154214802Y-111398965D01*
X154226166Y-111367203D01*
X154240590Y-111336707D01*
X154257932Y-111307773D01*
X154278028Y-111280677D01*
X154300682Y-111255682D01*
X154325677Y-111233028D01*
X154352773Y-111212932D01*
X154381707Y-111195590D01*
X154412203Y-111181166D01*
X154443965Y-111169802D01*
X154476688Y-111161605D01*
X154510057Y-111156655D01*
X154543750Y-111155000D01*
X155656250Y-111155000D01*
X155689943Y-111156655D01*
G37*
G36*
X155689943Y-113031655D02*
G01*
X155723312Y-113036605D01*
X155756035Y-113044802D01*
X155787797Y-113056166D01*
X155818293Y-113070590D01*
X155847227Y-113087932D01*
X155874323Y-113108028D01*
X155899318Y-113130682D01*
X155921972Y-113155677D01*
X155942068Y-113182773D01*
X155959410Y-113211707D01*
X155973834Y-113242203D01*
X155985198Y-113273965D01*
X155993395Y-113306688D01*
X155998345Y-113340057D01*
X156000000Y-113373750D01*
X156000000Y-114061250D01*
X155998345Y-114094943D01*
X155993395Y-114128312D01*
X155985198Y-114161035D01*
X155973834Y-114192797D01*
X155959410Y-114223293D01*
X155942068Y-114252227D01*
X155921972Y-114279323D01*
X155899318Y-114304318D01*
X155874323Y-114326972D01*
X155847227Y-114347068D01*
X155818293Y-114364410D01*
X155787797Y-114378834D01*
X155756035Y-114390198D01*
X155723312Y-114398395D01*
X155689943Y-114403345D01*
X155656250Y-114405000D01*
X154543750Y-114405000D01*
X154510057Y-114403345D01*
X154476688Y-114398395D01*
X154443965Y-114390198D01*
X154412203Y-114378834D01*
X154381707Y-114364410D01*
X154352773Y-114347068D01*
X154325677Y-114326972D01*
X154300682Y-114304318D01*
X154278028Y-114279323D01*
X154257932Y-114252227D01*
X154240590Y-114223293D01*
X154226166Y-114192797D01*
X154214802Y-114161035D01*
X154206605Y-114128312D01*
X154201655Y-114094943D01*
X154200000Y-114061250D01*
X154200000Y-113373750D01*
X154201655Y-113340057D01*
X154206605Y-113306688D01*
X154214802Y-113273965D01*
X154226166Y-113242203D01*
X154240590Y-113211707D01*
X154257932Y-113182773D01*
X154278028Y-113155677D01*
X154300682Y-113130682D01*
X154325677Y-113108028D01*
X154352773Y-113087932D01*
X154381707Y-113070590D01*
X154412203Y-113056166D01*
X154443965Y-113044802D01*
X154476688Y-113036605D01*
X154510057Y-113031655D01*
X154543750Y-113030000D01*
X155656250Y-113030000D01*
X155689943Y-113031655D01*
G37*
D25*
X190075000Y-106195000D03*
X190075000Y-101075000D03*
D26*
X188775000Y-97015000D03*
X184075000Y-97015000D03*
D27*
X179100000Y-97400000D03*
D28*
X179325000Y-109140000D03*
D29*
X178975000Y-107940000D03*
D30*
X178975000Y-106890000D03*
X178975000Y-105790000D03*
X178975000Y-104690000D03*
X178975000Y-103590000D03*
X178975000Y-102490000D03*
X178975000Y-101390000D03*
X178975000Y-100290000D03*
D31*
X119250888Y-122629032D03*
D32*
X119525888Y-123879032D03*
D31*
X119250888Y-125179032D03*
X124600888Y-122629032D03*
X124600888Y-123879032D03*
X124600888Y-126429032D03*
X124600888Y-125179032D03*
X119250888Y-126429032D03*
M02*
