M48
; DRILL file {KiCad (5.1.5)-3} date 2020/11/27 10:24:05
; FORMAT={-:-/ absolute / inch / decimal}
; #@! TF.CreationDate,2020-11-27T10:24:05+11:00
; #@! TF.GenerationSoftware,Kicad,Pcbnew,(5.1.5)-3
FMAT,2
INCH
T1C0.0157
T2C0.0197
T3C0.0354
T4C0.0394
T5C0.0472
T6C0.0866
T7C0.1280
%
G90
G05
T1
X4.5748Y-4.252
X4.7047Y-2.8583
X4.815Y-4.7047
X4.8583Y-5.0551
X4.9882Y-4.0748
X5.0079Y-2.7244
X5.0551Y-2.7244
X5.0787Y-2.7598
X5.0827Y-4.2835
X5.0906Y-4.5906
X5.126Y-4.5866
X5.1299Y-2.7323
X5.1614Y-4.5827
X5.189Y-4.3937
X5.1969Y-4.5787
X5.2087Y-4.4213
X5.2205Y-3.3858
X5.2244Y-4.4567
X5.2286Y-4.1087
X5.2509Y-4.131
X5.2559Y-4.4646
X5.2638Y-4.1732
X5.2874Y-4.1378
X5.2953Y-4.4685
X5.3189Y-3.0984
X5.4094Y-4.4016
X5.4567Y-3.6378
X5.4646Y-3.5591
X5.4843Y-4.4134
X5.5045Y-4.4414
X5.5472Y-4.2638
X5.5748Y-3.122
X5.5756Y-4.0999
X5.6009Y-4.1188
X5.6102Y-3.0984
X5.6292Y-4.1378
X5.6803Y-4.1803
X5.7244Y-3.2244
X5.7362Y-3.811
X5.7402Y-4.2323
X5.748Y-3.6575
X5.8Y-4.355
X5.835Y-4.34
X5.8386Y-3.5197
X5.874Y-4.2953
X5.9409Y-3.1102
X5.9567Y-4.248
X5.9724Y-3.2205
X6.0315Y-3.7933
X6.0316Y-3.866
X6.1063Y-4.0177
X6.1063Y-4.4026
X6.1063Y-4.4771
X6.165Y-4.195
X6.1709Y-3.8675
X6.1732Y-3.7953
X6.2063Y-4.4771
X6.2067Y-4.4035
X6.3127Y-3.866
X6.314Y-3.7933
X6.3494Y-4.0
X6.4055Y-4.4016
X6.4173Y-3.4134
X6.4291Y-3.1299
X6.5008Y-4.0559
X6.5512Y-3.5079
X6.5555Y-3.9935
X6.5591Y-3.5787
X6.5669Y-3.2717
X6.5945Y-3.4646
X6.5984Y-3.5787
X6.6181Y-3.7323
X6.689Y-3.6486
X6.7717Y-3.4528
X6.8307Y-3.8031
X6.874Y-3.3346
X6.9016Y-2.7559
X6.9016Y-2.815
X6.9016Y-2.874
X6.9016Y-2.9331
X6.9016Y-2.9921
X6.9961Y-4.122
X7.0276Y-2.7559
X7.0276Y-2.815
X7.0276Y-2.874
X7.0276Y-2.9331
X7.0276Y-2.9921
X7.122Y-4.1378
X7.1654Y-2.7559
X7.1654Y-2.815
X7.1654Y-2.874
X7.1654Y-2.9331
X7.1654Y-2.9921
X7.2165Y-4.5
X7.2323Y-4.1378
X7.2638Y-3.2283
X7.2913Y-2.7559
X7.2913Y-2.815
X7.2913Y-2.874
X7.2913Y-2.9331
X7.2913Y-2.9921
X7.3189Y-4.437
T3
X4.7316Y-4.039
X4.7316Y-4.1193
X4.7316Y-4.1996
X4.7316Y-4.2799
X4.8016Y-4.0776
X4.8016Y-4.1579
X4.8016Y-4.2382
X4.8016Y-4.3185
T4
X5.1331Y-5.0787
X5.2331Y-5.0787
X5.3331Y-5.0787
X5.4331Y-5.0787
X6.0961Y-2.5787
X6.1961Y-2.5787
X6.2961Y-2.5787
X6.3961Y-2.5787
X6.4961Y-2.5787
X5.5315Y-2.5787
X5.6315Y-2.5787
X5.7315Y-2.5787
X5.8315Y-2.5787
X5.2992Y-2.5787
X5.2992Y-2.6787
X5.2992Y-2.7787
X5.2992Y-2.8787
X5.722Y-5.0787
X5.822Y-5.0787
X5.922Y-5.0787
X6.022Y-5.0787
X6.122Y-5.0787
X6.222Y-5.0787
X6.6472Y-5.0787
X6.7472Y-5.0787
X6.8472Y-5.0787
X6.9472Y-5.0787
X7.0472Y-5.0787
X7.1472Y-5.0787
X7.2472Y-5.0787
X7.3472Y-5.0787
T5
X5.6299Y-4.8425
X5.7677Y-4.8425
X5.9055Y-4.8425
X6.0433Y-4.8425
X6.1811Y-4.8425
X6.3189Y-4.8425
X5.4724Y-2.815
X5.6102Y-2.815
X5.748Y-2.815
X5.8858Y-2.815
X6.5157Y-4.8425
X6.6535Y-4.8425
X6.7913Y-4.8425
X6.9291Y-4.8425
X7.0669Y-4.8425
X7.2047Y-4.8425
X7.3425Y-4.8425
X7.4803Y-4.8425
X6.0827Y-2.815
X6.2205Y-2.815
X6.3583Y-2.815
X6.4961Y-2.815
X5.2953Y-4.8425
X5.4331Y-4.8425
T6
X4.6772Y-2.6654
X6.6496Y-4.4449
T7
X4.9016Y-3.9291
X4.9016Y-4.4291
T2
G00X4.9193Y-2.6368
M15
G01X4.9469Y-2.6368
M16
G05
G00X5.0217Y-2.5522
M15
G01X5.065Y-2.5522
M16
G05
G00X5.1398Y-2.6368
M15
G01X5.1673Y-2.6368
M16
G05
T4
G00X4.6417Y-3.5591
M15
G01X4.6417Y-3.4803
M16
G05
G00X4.7992Y-3.7047
M15
G01X4.7205Y-3.7047
M16
G05
G00X4.878Y-3.5591
M15
G01X4.878Y-3.4803
M16
G05
T0
M30
