G04 #@! TF.GenerationSoftware,KiCad,Pcbnew,(5.1.5)-3*
G04 #@! TF.CreationDate,2020-11-27T10:24:00+11:00*
G04 #@! TF.ProjectId,BoSL,426f534c-2e6b-4696-9361-645f70636258,0.4.2*
G04 #@! TF.SameCoordinates,Original*
G04 #@! TF.FileFunction,Legend,Top*
G04 #@! TF.FilePolarity,Positive*
%FSLAX46Y46*%
G04 Gerber Fmt 4.6, Leading zero omitted, Abs format (unit mm)*
G04 Created by KiCad (PCBNEW (5.1.5)-3) date 2020-11-27 10:24:00*
%MOMM*%
%LPD*%
G04 APERTURE LIST*
%ADD10C,0.150000*%
%ADD11C,0.300000*%
%ADD12C,0.120000*%
G04 APERTURE END LIST*
D10*
X177554000Y-110489904D02*
X177506380Y-110585142D01*
X177506380Y-110728000D01*
X177554000Y-110870857D01*
X177649238Y-110966095D01*
X177744476Y-111013714D01*
X177934952Y-111061333D01*
X178077809Y-111061333D01*
X178268285Y-111013714D01*
X178363523Y-110966095D01*
X178458761Y-110870857D01*
X178506380Y-110728000D01*
X178506380Y-110632761D01*
X178458761Y-110489904D01*
X178411142Y-110442285D01*
X178077809Y-110442285D01*
X178077809Y-110632761D01*
X178506380Y-110013714D02*
X177506380Y-110013714D01*
X178506380Y-109442285D01*
X177506380Y-109442285D01*
X178506380Y-108966095D02*
X177506380Y-108966095D01*
X177506380Y-108728000D01*
X177554000Y-108585142D01*
X177649238Y-108489904D01*
X177744476Y-108442285D01*
X177934952Y-108394666D01*
X178077809Y-108394666D01*
X178268285Y-108442285D01*
X178363523Y-108489904D01*
X178458761Y-108585142D01*
X178506380Y-108728000D01*
X178506380Y-108966095D01*
X175966380Y-110235904D02*
X174966380Y-110235904D01*
X174966380Y-109997809D01*
X175014000Y-109854952D01*
X175109238Y-109759714D01*
X175204476Y-109712095D01*
X175394952Y-109664476D01*
X175537809Y-109664476D01*
X175728285Y-109712095D01*
X175823523Y-109759714D01*
X175918761Y-109854952D01*
X175966380Y-109997809D01*
X175966380Y-110235904D01*
X175966380Y-109235904D02*
X174966380Y-109235904D01*
X174966380Y-108854952D01*
X175014000Y-108759714D01*
X175061619Y-108712095D01*
X175156857Y-108664476D01*
X175299714Y-108664476D01*
X175394952Y-108712095D01*
X175442571Y-108759714D01*
X175490190Y-108854952D01*
X175490190Y-109235904D01*
X173426380Y-110307333D02*
X172426380Y-110307333D01*
X172426380Y-110069238D01*
X172474000Y-109926380D01*
X172569238Y-109831142D01*
X172664476Y-109783523D01*
X172854952Y-109735904D01*
X172997809Y-109735904D01*
X173188285Y-109783523D01*
X173283523Y-109831142D01*
X173378761Y-109926380D01*
X173426380Y-110069238D01*
X173426380Y-110307333D01*
X173426380Y-109307333D02*
X172426380Y-109307333D01*
X173140666Y-108974000D01*
X172426380Y-108640666D01*
X173426380Y-108640666D01*
X169886380Y-110426380D02*
X170886380Y-110093047D01*
X169886380Y-109759714D01*
X170505428Y-109426380D02*
X170505428Y-108664476D01*
X170886380Y-109045428D02*
X170124476Y-109045428D01*
D11*
X167557428Y-102810571D02*
X167557428Y-104024857D01*
X167628857Y-104167714D01*
X167700285Y-104239142D01*
X167843142Y-104310571D01*
X168128857Y-104310571D01*
X168271714Y-104239142D01*
X168343142Y-104167714D01*
X168414571Y-104024857D01*
X168414571Y-102810571D01*
X169057428Y-104239142D02*
X169271714Y-104310571D01*
X169628857Y-104310571D01*
X169771714Y-104239142D01*
X169843142Y-104167714D01*
X169914571Y-104024857D01*
X169914571Y-103882000D01*
X169843142Y-103739142D01*
X169771714Y-103667714D01*
X169628857Y-103596285D01*
X169343142Y-103524857D01*
X169200285Y-103453428D01*
X169128857Y-103382000D01*
X169057428Y-103239142D01*
X169057428Y-103096285D01*
X169128857Y-102953428D01*
X169200285Y-102882000D01*
X169343142Y-102810571D01*
X169700285Y-102810571D01*
X169914571Y-102882000D01*
X171057428Y-103524857D02*
X171271714Y-103596285D01*
X171343142Y-103667714D01*
X171414571Y-103810571D01*
X171414571Y-104024857D01*
X171343142Y-104167714D01*
X171271714Y-104239142D01*
X171128857Y-104310571D01*
X170557428Y-104310571D01*
X170557428Y-102810571D01*
X171057428Y-102810571D01*
X171200285Y-102882000D01*
X171271714Y-102953428D01*
X171343142Y-103096285D01*
X171343142Y-103239142D01*
X171271714Y-103382000D01*
X171200285Y-103453428D01*
X171057428Y-103524857D01*
X170557428Y-103524857D01*
X171700285Y-104453428D02*
X172843142Y-104453428D01*
X173200285Y-104310571D02*
X173200285Y-102810571D01*
X173557428Y-102810571D01*
X173771714Y-102882000D01*
X173914571Y-103024857D01*
X173986000Y-103167714D01*
X174057428Y-103453428D01*
X174057428Y-103667714D01*
X173986000Y-103953428D01*
X173914571Y-104096285D01*
X173771714Y-104239142D01*
X173557428Y-104310571D01*
X173200285Y-104310571D01*
X174700285Y-103524857D02*
X175200285Y-103524857D01*
X175414571Y-104310571D02*
X174700285Y-104310571D01*
X174700285Y-102810571D01*
X175414571Y-102810571D01*
X176557428Y-103524857D02*
X176771714Y-103596285D01*
X176843142Y-103667714D01*
X176914571Y-103810571D01*
X176914571Y-104024857D01*
X176843142Y-104167714D01*
X176771714Y-104239142D01*
X176628857Y-104310571D01*
X176057428Y-104310571D01*
X176057428Y-102810571D01*
X176557428Y-102810571D01*
X176700285Y-102882000D01*
X176771714Y-102953428D01*
X176843142Y-103096285D01*
X176843142Y-103239142D01*
X176771714Y-103382000D01*
X176700285Y-103453428D01*
X176557428Y-103524857D01*
X176057428Y-103524857D01*
X177557428Y-102810571D02*
X177557428Y-104024857D01*
X177628857Y-104167714D01*
X177700285Y-104239142D01*
X177843142Y-104310571D01*
X178128857Y-104310571D01*
X178271714Y-104239142D01*
X178343142Y-104167714D01*
X178414571Y-104024857D01*
X178414571Y-102810571D01*
X179914571Y-102882000D02*
X179771714Y-102810571D01*
X179557428Y-102810571D01*
X179343142Y-102882000D01*
X179200285Y-103024857D01*
X179128857Y-103167714D01*
X179057428Y-103453428D01*
X179057428Y-103667714D01*
X179128857Y-103953428D01*
X179200285Y-104096285D01*
X179343142Y-104239142D01*
X179557428Y-104310571D01*
X179700285Y-104310571D01*
X179914571Y-104239142D01*
X179986000Y-104167714D01*
X179986000Y-103667714D01*
X179700285Y-103667714D01*
D12*
X177050000Y-107350000D02*
X177050000Y-105450000D01*
X178950000Y-107350000D02*
X177050000Y-107350000D01*
X178950000Y-105450000D02*
X178950000Y-107350000D01*
X177050000Y-105450000D02*
X178950000Y-105450000D01*
X174550000Y-107350000D02*
X174550000Y-105450000D01*
X176450000Y-107350000D02*
X174550000Y-107350000D01*
X176450000Y-105450000D02*
X176450000Y-107350000D01*
X174550000Y-105450000D02*
X176450000Y-105450000D01*
X172050000Y-107350000D02*
X172050000Y-105450000D01*
X173950000Y-107350000D02*
X172050000Y-107350000D01*
X173950000Y-105450000D02*
X173950000Y-107350000D01*
X172050000Y-105450000D02*
X173950000Y-105450000D01*
X169550000Y-107350000D02*
X169550000Y-105450000D01*
X171450000Y-107350000D02*
X169550000Y-107350000D01*
X171450000Y-105450000D02*
X171450000Y-107350000D01*
X169550000Y-105450000D02*
X171450000Y-105450000D01*
X175200000Y-65300000D02*
X176000000Y-65300000D01*
X175200000Y-65500000D02*
X175200000Y-65300000D01*
X178200000Y-65300000D02*
X178200000Y-65500000D01*
X177400000Y-65300000D02*
X178200000Y-65300000D01*
X178200000Y-68300000D02*
X177400000Y-68300000D01*
X178200000Y-68100000D02*
X178200000Y-68300000D01*
X175400000Y-68300000D02*
X175200000Y-68100000D01*
X176000000Y-68300000D02*
X175400000Y-68300000D01*
X176000000Y-68300000D02*
X176000000Y-68800000D01*
X177400000Y-68300000D02*
X177400000Y-68800000D01*
X142575000Y-101725000D02*
X148325000Y-101725000D01*
X142575000Y-98125000D02*
X142575000Y-101725000D01*
X148325000Y-98125000D02*
X142575000Y-98125000D01*
D10*
X160261000Y-87558000D02*
X161861000Y-87558000D01*
X160261000Y-77483000D02*
X154511000Y-77483000D01*
X160261000Y-88133000D02*
X154511000Y-88133000D01*
X160261000Y-77483000D02*
X160261000Y-78133000D01*
X154511000Y-77483000D02*
X154511000Y-78133000D01*
X154511000Y-88133000D02*
X154511000Y-87483000D01*
X160261000Y-88133000D02*
X160261000Y-87558000D01*
D12*
X151965000Y-106400000D02*
X151965000Y-109850000D01*
X151965000Y-106400000D02*
X151965000Y-104450000D01*
X160835000Y-106400000D02*
X160835000Y-108350000D01*
X160835000Y-106400000D02*
X160835000Y-104450000D01*
X175290000Y-114370000D02*
X175290000Y-115770000D01*
X177610000Y-115770000D02*
X177610000Y-113870000D01*
X130100000Y-85120000D02*
X131300000Y-85120000D01*
X130100000Y-89120000D02*
X130100000Y-85120000D01*
X134900000Y-85120000D02*
X134900000Y-87820000D01*
X133700000Y-85120000D02*
X134900000Y-85120000D01*
X172926000Y-110294000D02*
G75*
G03X172926000Y-110294000I-700000J0D01*
G01*
X172900000Y-118200000D02*
G75*
G03X172900000Y-118200000I-700000J0D01*
G01*
X172900000Y-114400000D02*
G75*
G03X172900000Y-114400000I-700000J0D01*
G01*
X163700000Y-105350000D02*
X166250000Y-105350000D01*
X163700000Y-107050000D02*
X166250000Y-107050000D01*
X163700000Y-105350000D02*
X163700000Y-107050000D01*
X182200000Y-65300000D02*
X183000000Y-65300000D01*
X182200000Y-65500000D02*
X182200000Y-65300000D01*
X185200000Y-65300000D02*
X185200000Y-65500000D01*
X184400000Y-65300000D02*
X185200000Y-65300000D01*
X185200000Y-68300000D02*
X184400000Y-68300000D01*
X185200000Y-68100000D02*
X185200000Y-68300000D01*
X182400000Y-68300000D02*
X182200000Y-68100000D01*
X183000000Y-68300000D02*
X182400000Y-68300000D01*
X183000000Y-68300000D02*
X183000000Y-68800000D01*
X184400000Y-68300000D02*
X184400000Y-68800000D01*
X149058578Y-81890000D02*
X148541422Y-81890000D01*
X149058578Y-83310000D02*
X148541422Y-83310000D01*
X161052000Y-92198578D02*
X161052000Y-91681422D01*
X159632000Y-92198578D02*
X159632000Y-91681422D01*
X157496000Y-92198578D02*
X157496000Y-91681422D01*
X156076000Y-92198578D02*
X156076000Y-91681422D01*
X153940000Y-92198578D02*
X153940000Y-91681422D01*
X152520000Y-92198578D02*
X152520000Y-91681422D01*
X158278922Y-116407000D02*
X158796078Y-116407000D01*
X158278922Y-114987000D02*
X158796078Y-114987000D01*
X154436578Y-114987000D02*
X153919422Y-114987000D01*
X154436578Y-116407000D02*
X153919422Y-116407000D01*
X139690000Y-89203922D02*
X139690000Y-89721078D01*
X141110000Y-89203922D02*
X141110000Y-89721078D01*
X141110000Y-93458578D02*
X141110000Y-92941422D01*
X139690000Y-93458578D02*
X139690000Y-92941422D01*
X133058578Y-99490000D02*
X132541422Y-99490000D01*
X133058578Y-100910000D02*
X132541422Y-100910000D01*
X182990000Y-72791422D02*
X182990000Y-73308578D01*
X184410000Y-72791422D02*
X184410000Y-73308578D01*
X132491422Y-103510000D02*
X133008578Y-103510000D01*
X132491422Y-102090000D02*
X133008578Y-102090000D01*
X149058578Y-79290000D02*
X148541422Y-79290000D01*
X149058578Y-80710000D02*
X148541422Y-80710000D01*
X131702064Y-81090000D02*
X130497936Y-81090000D01*
X131702064Y-82910000D02*
X130497936Y-82910000D01*
X131821078Y-78690000D02*
X131303922Y-78690000D01*
X131821078Y-80110000D02*
X131303922Y-80110000D01*
X189648578Y-103180000D02*
X189131422Y-103180000D01*
X189648578Y-104600000D02*
X189131422Y-104600000D01*
X140415000Y-99641422D02*
X140415000Y-100158578D01*
X141835000Y-99641422D02*
X141835000Y-100158578D01*
X149465000Y-99616422D02*
X149465000Y-100133578D01*
X150885000Y-99616422D02*
X150885000Y-100133578D01*
X136002064Y-90390000D02*
X134797936Y-90390000D01*
X136002064Y-92210000D02*
X134797936Y-92210000D01*
X145525000Y-95325000D02*
X148975000Y-95325000D01*
X145525000Y-95325000D02*
X143575000Y-95325000D01*
X145525000Y-90205000D02*
X147475000Y-90205000D01*
X145525000Y-90205000D02*
X143575000Y-90205000D01*
X149300000Y-84650000D02*
X147500000Y-84650000D01*
X147450000Y-86050000D02*
X147450000Y-87150000D01*
X149350000Y-86050000D02*
X149350000Y-87150000D01*
D10*
X139659099Y-115217425D02*
X140666726Y-116225052D01*
X134373476Y-110250000D02*
X134603286Y-110479810D01*
X139500000Y-105123476D02*
X139729810Y-105353286D01*
X144626524Y-110250000D02*
X144396714Y-110020190D01*
X139500000Y-115376524D02*
X139270190Y-115146714D01*
X144626524Y-110250000D02*
X144396714Y-110479810D01*
X139500000Y-105123476D02*
X139270190Y-105353286D01*
X134373476Y-110250000D02*
X134603286Y-110020190D01*
X139500000Y-115376524D02*
X139659099Y-115217425D01*
D12*
X144878922Y-89110000D02*
X145396078Y-89110000D01*
X144878922Y-87690000D02*
X145396078Y-87690000D01*
X144941422Y-85710000D02*
X145458578Y-85710000D01*
X144941422Y-84290000D02*
X145458578Y-84290000D01*
D10*
X164690000Y-101920000D02*
X164690000Y-77920000D01*
X188690000Y-101920000D02*
X164690000Y-101920000D01*
X188690000Y-77920000D02*
X188690000Y-101920000D01*
X164690000Y-77920000D02*
X188690000Y-77920000D01*
X179755000Y-116385000D02*
X179755000Y-106635000D01*
X191955000Y-116385000D02*
X191955000Y-106635000D01*
X191955000Y-106635000D02*
X179755000Y-106635000D01*
X191955000Y-116385000D02*
X191930000Y-116360000D01*
X179755000Y-116385000D02*
X191955000Y-116385000D01*
X180566666Y-67895238D02*
X180566666Y-67419047D01*
X180852380Y-67990476D02*
X179852380Y-67657142D01*
X180852380Y-67323809D01*
X179852380Y-67133333D02*
X179852380Y-66561904D01*
X180852380Y-66847619D02*
X179852380Y-66847619D01*
X179852380Y-66323809D02*
X179852380Y-65704761D01*
X180233333Y-66038095D01*
X180233333Y-65895238D01*
X180280952Y-65800000D01*
X180328571Y-65752380D01*
X180423809Y-65704761D01*
X180661904Y-65704761D01*
X180757142Y-65752380D01*
X180804761Y-65800000D01*
X180852380Y-65895238D01*
X180852380Y-66180952D01*
X180804761Y-66276190D01*
X180757142Y-66323809D01*
X145148809Y-97101190D02*
X145148809Y-97577380D01*
X144815476Y-96577380D02*
X145148809Y-97101190D01*
X145482142Y-96577380D01*
X146339285Y-97577380D02*
X145767857Y-97577380D01*
X146053571Y-97577380D02*
X146053571Y-96577380D01*
X145958333Y-96720238D01*
X145863095Y-96815476D01*
X145767857Y-96863095D01*
X156624095Y-88510380D02*
X156624095Y-89319904D01*
X156671714Y-89415142D01*
X156719333Y-89462761D01*
X156814571Y-89510380D01*
X157005047Y-89510380D01*
X157100285Y-89462761D01*
X157147904Y-89415142D01*
X157195523Y-89319904D01*
X157195523Y-88510380D01*
X158147904Y-88510380D02*
X157671714Y-88510380D01*
X157624095Y-88986571D01*
X157671714Y-88938952D01*
X157766952Y-88891333D01*
X158005047Y-88891333D01*
X158100285Y-88938952D01*
X158147904Y-88986571D01*
X158195523Y-89081809D01*
X158195523Y-89319904D01*
X158147904Y-89415142D01*
X158100285Y-89462761D01*
X158005047Y-89510380D01*
X157766952Y-89510380D01*
X157671714Y-89462761D01*
X157624095Y-89415142D01*
X150572380Y-109761904D02*
X151381904Y-109761904D01*
X151477142Y-109714285D01*
X151524761Y-109666666D01*
X151572380Y-109571428D01*
X151572380Y-109380952D01*
X151524761Y-109285714D01*
X151477142Y-109238095D01*
X151381904Y-109190476D01*
X150572380Y-109190476D01*
X150905714Y-108285714D02*
X151572380Y-108285714D01*
X150524761Y-108523809D02*
X151239047Y-108761904D01*
X151239047Y-108142857D01*
X177902380Y-114961904D02*
X178711904Y-114961904D01*
X178807142Y-114914285D01*
X178854761Y-114866666D01*
X178902380Y-114771428D01*
X178902380Y-114580952D01*
X178854761Y-114485714D01*
X178807142Y-114438095D01*
X178711904Y-114390476D01*
X177902380Y-114390476D01*
X177902380Y-114009523D02*
X177902380Y-113390476D01*
X178283333Y-113723809D01*
X178283333Y-113580952D01*
X178330952Y-113485714D01*
X178378571Y-113438095D01*
X178473809Y-113390476D01*
X178711904Y-113390476D01*
X178807142Y-113438095D01*
X178854761Y-113485714D01*
X178902380Y-113580952D01*
X178902380Y-113866666D01*
X178854761Y-113961904D01*
X178807142Y-114009523D01*
X128752380Y-87211904D02*
X129561904Y-87211904D01*
X129657142Y-87164285D01*
X129704761Y-87116666D01*
X129752380Y-87021428D01*
X129752380Y-86830952D01*
X129704761Y-86735714D01*
X129657142Y-86688095D01*
X129561904Y-86640476D01*
X128752380Y-86640476D01*
X129752380Y-85640476D02*
X129752380Y-86211904D01*
X129752380Y-85926190D02*
X128752380Y-85926190D01*
X128895238Y-86021428D01*
X128990476Y-86116666D01*
X129038095Y-86211904D01*
X170964095Y-108298380D02*
X171535523Y-108298380D01*
X171249809Y-109298380D02*
X171249809Y-108298380D01*
X171868857Y-109298380D02*
X171868857Y-108298380D01*
X172249809Y-108298380D01*
X172345047Y-108346000D01*
X172392666Y-108393619D01*
X172440285Y-108488857D01*
X172440285Y-108631714D01*
X172392666Y-108726952D01*
X172345047Y-108774571D01*
X172249809Y-108822190D01*
X171868857Y-108822190D01*
X172773619Y-108298380D02*
X173392666Y-108298380D01*
X173059333Y-108679333D01*
X173202190Y-108679333D01*
X173297428Y-108726952D01*
X173345047Y-108774571D01*
X173392666Y-108869809D01*
X173392666Y-109107904D01*
X173345047Y-109203142D01*
X173297428Y-109250761D01*
X173202190Y-109298380D01*
X172916476Y-109298380D01*
X172821238Y-109250761D01*
X172773619Y-109203142D01*
X170938095Y-116204380D02*
X171509523Y-116204380D01*
X171223809Y-117204380D02*
X171223809Y-116204380D01*
X171842857Y-117204380D02*
X171842857Y-116204380D01*
X172223809Y-116204380D01*
X172319047Y-116252000D01*
X172366666Y-116299619D01*
X172414285Y-116394857D01*
X172414285Y-116537714D01*
X172366666Y-116632952D01*
X172319047Y-116680571D01*
X172223809Y-116728190D01*
X171842857Y-116728190D01*
X172795238Y-116299619D02*
X172842857Y-116252000D01*
X172938095Y-116204380D01*
X173176190Y-116204380D01*
X173271428Y-116252000D01*
X173319047Y-116299619D01*
X173366666Y-116394857D01*
X173366666Y-116490095D01*
X173319047Y-116632952D01*
X172747619Y-117204380D01*
X173366666Y-117204380D01*
X170938095Y-112404380D02*
X171509523Y-112404380D01*
X171223809Y-113404380D02*
X171223809Y-112404380D01*
X171842857Y-113404380D02*
X171842857Y-112404380D01*
X172223809Y-112404380D01*
X172319047Y-112452000D01*
X172366666Y-112499619D01*
X172414285Y-112594857D01*
X172414285Y-112737714D01*
X172366666Y-112832952D01*
X172319047Y-112880571D01*
X172223809Y-112928190D01*
X171842857Y-112928190D01*
X173366666Y-113404380D02*
X172795238Y-113404380D01*
X173080952Y-113404380D02*
X173080952Y-112404380D01*
X172985714Y-112547238D01*
X172890476Y-112642476D01*
X172795238Y-112690095D01*
X168138095Y-110152380D02*
X168138095Y-109152380D01*
X168138095Y-109628571D02*
X168709523Y-109628571D01*
X168709523Y-110152380D02*
X168709523Y-109152380D01*
X169138095Y-109247619D02*
X169185714Y-109200000D01*
X169280952Y-109152380D01*
X169519047Y-109152380D01*
X169614285Y-109200000D01*
X169661904Y-109247619D01*
X169709523Y-109342857D01*
X169709523Y-109438095D01*
X169661904Y-109580952D01*
X169090476Y-110152380D01*
X169709523Y-110152380D01*
X118038095Y-64952380D02*
X118038095Y-63952380D01*
X118038095Y-64428571D02*
X118609523Y-64428571D01*
X118609523Y-64952380D02*
X118609523Y-63952380D01*
X119609523Y-64952380D02*
X119038095Y-64952380D01*
X119323809Y-64952380D02*
X119323809Y-63952380D01*
X119228571Y-64095238D01*
X119133333Y-64190476D01*
X119038095Y-64238095D01*
X164461904Y-104802380D02*
X164461904Y-103802380D01*
X164700000Y-103802380D01*
X164842857Y-103850000D01*
X164938095Y-103945238D01*
X164985714Y-104040476D01*
X165033333Y-104230952D01*
X165033333Y-104373809D01*
X164985714Y-104564285D01*
X164938095Y-104659523D01*
X164842857Y-104754761D01*
X164700000Y-104802380D01*
X164461904Y-104802380D01*
X165985714Y-104802380D02*
X165414285Y-104802380D01*
X165700000Y-104802380D02*
X165700000Y-103802380D01*
X165604761Y-103945238D01*
X165509523Y-104040476D01*
X165414285Y-104088095D01*
X182604761Y-70466666D02*
X183080952Y-70466666D01*
X182509523Y-70752380D02*
X182842857Y-69752380D01*
X183176190Y-70752380D01*
X183366666Y-69752380D02*
X183938095Y-69752380D01*
X183652380Y-70752380D02*
X183652380Y-69752380D01*
X184223809Y-69847619D02*
X184271428Y-69800000D01*
X184366666Y-69752380D01*
X184604761Y-69752380D01*
X184700000Y-69800000D01*
X184747619Y-69847619D01*
X184795238Y-69942857D01*
X184795238Y-70038095D01*
X184747619Y-70180952D01*
X184176190Y-70752380D01*
X184795238Y-70752380D01*
X145783333Y-83052380D02*
X145450000Y-82576190D01*
X145211904Y-83052380D02*
X145211904Y-82052380D01*
X145592857Y-82052380D01*
X145688095Y-82100000D01*
X145735714Y-82147619D01*
X145783333Y-82242857D01*
X145783333Y-82385714D01*
X145735714Y-82480952D01*
X145688095Y-82528571D01*
X145592857Y-82576190D01*
X145211904Y-82576190D01*
X146259523Y-83052380D02*
X146450000Y-83052380D01*
X146545238Y-83004761D01*
X146592857Y-82957142D01*
X146688095Y-82814285D01*
X146735714Y-82623809D01*
X146735714Y-82242857D01*
X146688095Y-82147619D01*
X146640476Y-82100000D01*
X146545238Y-82052380D01*
X146354761Y-82052380D01*
X146259523Y-82100000D01*
X146211904Y-82147619D01*
X146164285Y-82242857D01*
X146164285Y-82480952D01*
X146211904Y-82576190D01*
X146259523Y-82623809D01*
X146354761Y-82671428D01*
X146545238Y-82671428D01*
X146640476Y-82623809D01*
X146688095Y-82576190D01*
X146735714Y-82480952D01*
X159144380Y-92106666D02*
X158668190Y-92440000D01*
X159144380Y-92678095D02*
X158144380Y-92678095D01*
X158144380Y-92297142D01*
X158192000Y-92201904D01*
X158239619Y-92154285D01*
X158334857Y-92106666D01*
X158477714Y-92106666D01*
X158572952Y-92154285D01*
X158620571Y-92201904D01*
X158668190Y-92297142D01*
X158668190Y-92678095D01*
X158572952Y-91535238D02*
X158525333Y-91630476D01*
X158477714Y-91678095D01*
X158382476Y-91725714D01*
X158334857Y-91725714D01*
X158239619Y-91678095D01*
X158192000Y-91630476D01*
X158144380Y-91535238D01*
X158144380Y-91344761D01*
X158192000Y-91249523D01*
X158239619Y-91201904D01*
X158334857Y-91154285D01*
X158382476Y-91154285D01*
X158477714Y-91201904D01*
X158525333Y-91249523D01*
X158572952Y-91344761D01*
X158572952Y-91535238D01*
X158620571Y-91630476D01*
X158668190Y-91678095D01*
X158763428Y-91725714D01*
X158953904Y-91725714D01*
X159049142Y-91678095D01*
X159096761Y-91630476D01*
X159144380Y-91535238D01*
X159144380Y-91344761D01*
X159096761Y-91249523D01*
X159049142Y-91201904D01*
X158953904Y-91154285D01*
X158763428Y-91154285D01*
X158668190Y-91201904D01*
X158620571Y-91249523D01*
X158572952Y-91344761D01*
X155588380Y-92106666D02*
X155112190Y-92440000D01*
X155588380Y-92678095D02*
X154588380Y-92678095D01*
X154588380Y-92297142D01*
X154636000Y-92201904D01*
X154683619Y-92154285D01*
X154778857Y-92106666D01*
X154921714Y-92106666D01*
X155016952Y-92154285D01*
X155064571Y-92201904D01*
X155112190Y-92297142D01*
X155112190Y-92678095D01*
X154588380Y-91773333D02*
X154588380Y-91106666D01*
X155588380Y-91535238D01*
X152032380Y-92106666D02*
X151556190Y-92440000D01*
X152032380Y-92678095D02*
X151032380Y-92678095D01*
X151032380Y-92297142D01*
X151080000Y-92201904D01*
X151127619Y-92154285D01*
X151222857Y-92106666D01*
X151365714Y-92106666D01*
X151460952Y-92154285D01*
X151508571Y-92201904D01*
X151556190Y-92297142D01*
X151556190Y-92678095D01*
X151032380Y-91249523D02*
X151032380Y-91440000D01*
X151080000Y-91535238D01*
X151127619Y-91582857D01*
X151270476Y-91678095D01*
X151460952Y-91725714D01*
X151841904Y-91725714D01*
X151937142Y-91678095D01*
X151984761Y-91630476D01*
X152032380Y-91535238D01*
X152032380Y-91344761D01*
X151984761Y-91249523D01*
X151937142Y-91201904D01*
X151841904Y-91154285D01*
X151603809Y-91154285D01*
X151508571Y-91201904D01*
X151460952Y-91249523D01*
X151413333Y-91344761D01*
X151413333Y-91535238D01*
X151460952Y-91630476D01*
X151508571Y-91678095D01*
X151603809Y-91725714D01*
X158433333Y-117849380D02*
X158100000Y-117373190D01*
X157861904Y-117849380D02*
X157861904Y-116849380D01*
X158242857Y-116849380D01*
X158338095Y-116897000D01*
X158385714Y-116944619D01*
X158433333Y-117039857D01*
X158433333Y-117182714D01*
X158385714Y-117277952D01*
X158338095Y-117325571D01*
X158242857Y-117373190D01*
X157861904Y-117373190D01*
X159338095Y-116849380D02*
X158861904Y-116849380D01*
X158814285Y-117325571D01*
X158861904Y-117277952D01*
X158957142Y-117230333D01*
X159195238Y-117230333D01*
X159290476Y-117277952D01*
X159338095Y-117325571D01*
X159385714Y-117420809D01*
X159385714Y-117658904D01*
X159338095Y-117754142D01*
X159290476Y-117801761D01*
X159195238Y-117849380D01*
X158957142Y-117849380D01*
X158861904Y-117801761D01*
X158814285Y-117754142D01*
X154011333Y-117799380D02*
X153678000Y-117323190D01*
X153439904Y-117799380D02*
X153439904Y-116799380D01*
X153820857Y-116799380D01*
X153916095Y-116847000D01*
X153963714Y-116894619D01*
X154011333Y-116989857D01*
X154011333Y-117132714D01*
X153963714Y-117227952D01*
X153916095Y-117275571D01*
X153820857Y-117323190D01*
X153439904Y-117323190D01*
X154868476Y-117132714D02*
X154868476Y-117799380D01*
X154630380Y-116751761D02*
X154392285Y-117466047D01*
X155011333Y-117466047D01*
X138852380Y-94366666D02*
X138376190Y-94700000D01*
X138852380Y-94938095D02*
X137852380Y-94938095D01*
X137852380Y-94557142D01*
X137900000Y-94461904D01*
X137947619Y-94414285D01*
X138042857Y-94366666D01*
X138185714Y-94366666D01*
X138280952Y-94414285D01*
X138328571Y-94461904D01*
X138376190Y-94557142D01*
X138376190Y-94938095D01*
X137852380Y-94033333D02*
X137852380Y-93414285D01*
X138233333Y-93747619D01*
X138233333Y-93604761D01*
X138280952Y-93509523D01*
X138328571Y-93461904D01*
X138423809Y-93414285D01*
X138661904Y-93414285D01*
X138757142Y-93461904D01*
X138804761Y-93509523D01*
X138852380Y-93604761D01*
X138852380Y-93890476D01*
X138804761Y-93985714D01*
X138757142Y-94033333D01*
X138852380Y-88766666D02*
X138376190Y-89100000D01*
X138852380Y-89338095D02*
X137852380Y-89338095D01*
X137852380Y-88957142D01*
X137900000Y-88861904D01*
X137947619Y-88814285D01*
X138042857Y-88766666D01*
X138185714Y-88766666D01*
X138280952Y-88814285D01*
X138328571Y-88861904D01*
X138376190Y-88957142D01*
X138376190Y-89338095D01*
X137947619Y-88385714D02*
X137900000Y-88338095D01*
X137852380Y-88242857D01*
X137852380Y-88004761D01*
X137900000Y-87909523D01*
X137947619Y-87861904D01*
X138042857Y-87814285D01*
X138138095Y-87814285D01*
X138280952Y-87861904D01*
X138852380Y-88433333D01*
X138852380Y-87814285D01*
X129733333Y-100652380D02*
X129400000Y-100176190D01*
X129161904Y-100652380D02*
X129161904Y-99652380D01*
X129542857Y-99652380D01*
X129638095Y-99700000D01*
X129685714Y-99747619D01*
X129733333Y-99842857D01*
X129733333Y-99985714D01*
X129685714Y-100080952D01*
X129638095Y-100128571D01*
X129542857Y-100176190D01*
X129161904Y-100176190D01*
X130685714Y-100652380D02*
X130114285Y-100652380D01*
X130400000Y-100652380D02*
X130400000Y-99652380D01*
X130304761Y-99795238D01*
X130209523Y-99890476D01*
X130114285Y-99938095D01*
X185707142Y-73692857D02*
X185754761Y-73740476D01*
X185802380Y-73883333D01*
X185802380Y-73978571D01*
X185754761Y-74121428D01*
X185659523Y-74216666D01*
X185564285Y-74264285D01*
X185373809Y-74311904D01*
X185230952Y-74311904D01*
X185040476Y-74264285D01*
X184945238Y-74216666D01*
X184850000Y-74121428D01*
X184802380Y-73978571D01*
X184802380Y-73883333D01*
X184850000Y-73740476D01*
X184897619Y-73692857D01*
X185802380Y-72740476D02*
X185802380Y-73311904D01*
X185802380Y-73026190D02*
X184802380Y-73026190D01*
X184945238Y-73121428D01*
X185040476Y-73216666D01*
X185088095Y-73311904D01*
X184802380Y-72121428D02*
X184802380Y-72026190D01*
X184850000Y-71930952D01*
X184897619Y-71883333D01*
X184992857Y-71835714D01*
X185183333Y-71788095D01*
X185421428Y-71788095D01*
X185611904Y-71835714D01*
X185707142Y-71883333D01*
X185754761Y-71930952D01*
X185802380Y-72026190D01*
X185802380Y-72121428D01*
X185754761Y-72216666D01*
X185707142Y-72264285D01*
X185611904Y-72311904D01*
X185421428Y-72359523D01*
X185183333Y-72359523D01*
X184992857Y-72311904D01*
X184897619Y-72264285D01*
X184850000Y-72216666D01*
X184802380Y-72121428D01*
X129733333Y-103157142D02*
X129685714Y-103204761D01*
X129542857Y-103252380D01*
X129447619Y-103252380D01*
X129304761Y-103204761D01*
X129209523Y-103109523D01*
X129161904Y-103014285D01*
X129114285Y-102823809D01*
X129114285Y-102680952D01*
X129161904Y-102490476D01*
X129209523Y-102395238D01*
X129304761Y-102300000D01*
X129447619Y-102252380D01*
X129542857Y-102252380D01*
X129685714Y-102300000D01*
X129733333Y-102347619D01*
X130209523Y-103252380D02*
X130400000Y-103252380D01*
X130495238Y-103204761D01*
X130542857Y-103157142D01*
X130638095Y-103014285D01*
X130685714Y-102823809D01*
X130685714Y-102442857D01*
X130638095Y-102347619D01*
X130590476Y-102300000D01*
X130495238Y-102252380D01*
X130304761Y-102252380D01*
X130209523Y-102300000D01*
X130161904Y-102347619D01*
X130114285Y-102442857D01*
X130114285Y-102680952D01*
X130161904Y-102776190D01*
X130209523Y-102823809D01*
X130304761Y-102871428D01*
X130495238Y-102871428D01*
X130590476Y-102823809D01*
X130638095Y-102776190D01*
X130685714Y-102680952D01*
X145733333Y-80357142D02*
X145685714Y-80404761D01*
X145542857Y-80452380D01*
X145447619Y-80452380D01*
X145304761Y-80404761D01*
X145209523Y-80309523D01*
X145161904Y-80214285D01*
X145114285Y-80023809D01*
X145114285Y-79880952D01*
X145161904Y-79690476D01*
X145209523Y-79595238D01*
X145304761Y-79500000D01*
X145447619Y-79452380D01*
X145542857Y-79452380D01*
X145685714Y-79500000D01*
X145733333Y-79547619D01*
X146304761Y-79880952D02*
X146209523Y-79833333D01*
X146161904Y-79785714D01*
X146114285Y-79690476D01*
X146114285Y-79642857D01*
X146161904Y-79547619D01*
X146209523Y-79500000D01*
X146304761Y-79452380D01*
X146495238Y-79452380D01*
X146590476Y-79500000D01*
X146638095Y-79547619D01*
X146685714Y-79642857D01*
X146685714Y-79690476D01*
X146638095Y-79785714D01*
X146590476Y-79833333D01*
X146495238Y-79880952D01*
X146304761Y-79880952D01*
X146209523Y-79928571D01*
X146161904Y-79976190D01*
X146114285Y-80071428D01*
X146114285Y-80261904D01*
X146161904Y-80357142D01*
X146209523Y-80404761D01*
X146304761Y-80452380D01*
X146495238Y-80452380D01*
X146590476Y-80404761D01*
X146638095Y-80357142D01*
X146685714Y-80261904D01*
X146685714Y-80071428D01*
X146638095Y-79976190D01*
X146590476Y-79928571D01*
X146495238Y-79880952D01*
X127533333Y-82357142D02*
X127485714Y-82404761D01*
X127342857Y-82452380D01*
X127247619Y-82452380D01*
X127104761Y-82404761D01*
X127009523Y-82309523D01*
X126961904Y-82214285D01*
X126914285Y-82023809D01*
X126914285Y-81880952D01*
X126961904Y-81690476D01*
X127009523Y-81595238D01*
X127104761Y-81500000D01*
X127247619Y-81452380D01*
X127342857Y-81452380D01*
X127485714Y-81500000D01*
X127533333Y-81547619D01*
X128390476Y-81452380D02*
X128200000Y-81452380D01*
X128104761Y-81500000D01*
X128057142Y-81547619D01*
X127961904Y-81690476D01*
X127914285Y-81880952D01*
X127914285Y-82261904D01*
X127961904Y-82357142D01*
X128009523Y-82404761D01*
X128104761Y-82452380D01*
X128295238Y-82452380D01*
X128390476Y-82404761D01*
X128438095Y-82357142D01*
X128485714Y-82261904D01*
X128485714Y-82023809D01*
X128438095Y-81928571D01*
X128390476Y-81880952D01*
X128295238Y-81833333D01*
X128104761Y-81833333D01*
X128009523Y-81880952D01*
X127961904Y-81928571D01*
X127914285Y-82023809D01*
X128349833Y-79721142D02*
X128302214Y-79768761D01*
X128159357Y-79816380D01*
X128064119Y-79816380D01*
X127921261Y-79768761D01*
X127826023Y-79673523D01*
X127778404Y-79578285D01*
X127730785Y-79387809D01*
X127730785Y-79244952D01*
X127778404Y-79054476D01*
X127826023Y-78959238D01*
X127921261Y-78864000D01*
X128064119Y-78816380D01*
X128159357Y-78816380D01*
X128302214Y-78864000D01*
X128349833Y-78911619D01*
X129254595Y-78816380D02*
X128778404Y-78816380D01*
X128730785Y-79292571D01*
X128778404Y-79244952D01*
X128873642Y-79197333D01*
X129111738Y-79197333D01*
X129206976Y-79244952D01*
X129254595Y-79292571D01*
X129302214Y-79387809D01*
X129302214Y-79625904D01*
X129254595Y-79721142D01*
X129206976Y-79768761D01*
X129111738Y-79816380D01*
X128873642Y-79816380D01*
X128778404Y-79768761D01*
X128730785Y-79721142D01*
X190333333Y-102407142D02*
X190285714Y-102454761D01*
X190142857Y-102502380D01*
X190047619Y-102502380D01*
X189904761Y-102454761D01*
X189809523Y-102359523D01*
X189761904Y-102264285D01*
X189714285Y-102073809D01*
X189714285Y-101930952D01*
X189761904Y-101740476D01*
X189809523Y-101645238D01*
X189904761Y-101550000D01*
X190047619Y-101502380D01*
X190142857Y-101502380D01*
X190285714Y-101550000D01*
X190333333Y-101597619D01*
X191190476Y-101835714D02*
X191190476Y-102502380D01*
X190952380Y-101454761D02*
X190714285Y-102169047D01*
X191333333Y-102169047D01*
X139557142Y-99966666D02*
X139604761Y-100014285D01*
X139652380Y-100157142D01*
X139652380Y-100252380D01*
X139604761Y-100395238D01*
X139509523Y-100490476D01*
X139414285Y-100538095D01*
X139223809Y-100585714D01*
X139080952Y-100585714D01*
X138890476Y-100538095D01*
X138795238Y-100490476D01*
X138700000Y-100395238D01*
X138652380Y-100252380D01*
X138652380Y-100157142D01*
X138700000Y-100014285D01*
X138747619Y-99966666D01*
X138652380Y-99633333D02*
X138652380Y-99014285D01*
X139033333Y-99347619D01*
X139033333Y-99204761D01*
X139080952Y-99109523D01*
X139128571Y-99061904D01*
X139223809Y-99014285D01*
X139461904Y-99014285D01*
X139557142Y-99061904D01*
X139604761Y-99109523D01*
X139652380Y-99204761D01*
X139652380Y-99490476D01*
X139604761Y-99585714D01*
X139557142Y-99633333D01*
X150382142Y-102879166D02*
X150429761Y-102926785D01*
X150477380Y-103069642D01*
X150477380Y-103164880D01*
X150429761Y-103307738D01*
X150334523Y-103402976D01*
X150239285Y-103450595D01*
X150048809Y-103498214D01*
X149905952Y-103498214D01*
X149715476Y-103450595D01*
X149620238Y-103402976D01*
X149525000Y-103307738D01*
X149477380Y-103164880D01*
X149477380Y-103069642D01*
X149525000Y-102926785D01*
X149572619Y-102879166D01*
X149572619Y-102498214D02*
X149525000Y-102450595D01*
X149477380Y-102355357D01*
X149477380Y-102117261D01*
X149525000Y-102022023D01*
X149572619Y-101974404D01*
X149667857Y-101926785D01*
X149763095Y-101926785D01*
X149905952Y-101974404D01*
X150477380Y-102545833D01*
X150477380Y-101926785D01*
X134233333Y-94057142D02*
X134185714Y-94104761D01*
X134042857Y-94152380D01*
X133947619Y-94152380D01*
X133804761Y-94104761D01*
X133709523Y-94009523D01*
X133661904Y-93914285D01*
X133614285Y-93723809D01*
X133614285Y-93580952D01*
X133661904Y-93390476D01*
X133709523Y-93295238D01*
X133804761Y-93200000D01*
X133947619Y-93152380D01*
X134042857Y-93152380D01*
X134185714Y-93200000D01*
X134233333Y-93247619D01*
X135185714Y-94152380D02*
X134614285Y-94152380D01*
X134900000Y-94152380D02*
X134900000Y-93152380D01*
X134804761Y-93295238D01*
X134709523Y-93390476D01*
X134614285Y-93438095D01*
X147263095Y-95617380D02*
X147263095Y-96426904D01*
X147310714Y-96522142D01*
X147358333Y-96569761D01*
X147453571Y-96617380D01*
X147644047Y-96617380D01*
X147739285Y-96569761D01*
X147786904Y-96522142D01*
X147834523Y-96426904D01*
X147834523Y-95617380D01*
X148215476Y-95617380D02*
X148882142Y-95617380D01*
X148453571Y-96617380D01*
X150323809Y-86576190D02*
X150323809Y-87052380D01*
X149990476Y-86052380D02*
X150323809Y-86576190D01*
X150657142Y-86052380D01*
X150942857Y-86147619D02*
X150990476Y-86100000D01*
X151085714Y-86052380D01*
X151323809Y-86052380D01*
X151419047Y-86100000D01*
X151466666Y-86147619D01*
X151514285Y-86242857D01*
X151514285Y-86338095D01*
X151466666Y-86480952D01*
X150895238Y-87052380D01*
X151514285Y-87052380D01*
X140798477Y-116824026D02*
X140226057Y-117396446D01*
X140192385Y-117497461D01*
X140192385Y-117564805D01*
X140226057Y-117665820D01*
X140360744Y-117800507D01*
X140461759Y-117834179D01*
X140529103Y-117834179D01*
X140630118Y-117800507D01*
X141202538Y-117228087D01*
X141842301Y-117867851D02*
X141707614Y-117733164D01*
X141606599Y-117699492D01*
X141539255Y-117699492D01*
X141370896Y-117733164D01*
X141202538Y-117834179D01*
X140933164Y-118103553D01*
X140899492Y-118204568D01*
X140899492Y-118271912D01*
X140933164Y-118372927D01*
X141067851Y-118507614D01*
X141168866Y-118541286D01*
X141236209Y-118541286D01*
X141337225Y-118507614D01*
X141505583Y-118339255D01*
X141539255Y-118238240D01*
X141539255Y-118170896D01*
X141505583Y-118069881D01*
X141370896Y-117935194D01*
X141269881Y-117901522D01*
X141202538Y-117901522D01*
X141101522Y-117935194D01*
X142957142Y-88842857D02*
X143004761Y-88890476D01*
X143052380Y-89033333D01*
X143052380Y-89128571D01*
X143004761Y-89271428D01*
X142909523Y-89366666D01*
X142814285Y-89414285D01*
X142623809Y-89461904D01*
X142480952Y-89461904D01*
X142290476Y-89414285D01*
X142195238Y-89366666D01*
X142100000Y-89271428D01*
X142052380Y-89128571D01*
X142052380Y-89033333D01*
X142100000Y-88890476D01*
X142147619Y-88842857D01*
X143052380Y-87890476D02*
X143052380Y-88461904D01*
X143052380Y-88176190D02*
X142052380Y-88176190D01*
X142195238Y-88271428D01*
X142290476Y-88366666D01*
X142338095Y-88461904D01*
X142147619Y-87509523D02*
X142100000Y-87461904D01*
X142052380Y-87366666D01*
X142052380Y-87128571D01*
X142100000Y-87033333D01*
X142147619Y-86985714D01*
X142242857Y-86938095D01*
X142338095Y-86938095D01*
X142480952Y-86985714D01*
X143052380Y-87557142D01*
X143052380Y-86938095D01*
X142957142Y-85592976D02*
X143004761Y-85640595D01*
X143052380Y-85783452D01*
X143052380Y-85878690D01*
X143004761Y-86021547D01*
X142909523Y-86116785D01*
X142814285Y-86164404D01*
X142623809Y-86212023D01*
X142480952Y-86212023D01*
X142290476Y-86164404D01*
X142195238Y-86116785D01*
X142100000Y-86021547D01*
X142052380Y-85878690D01*
X142052380Y-85783452D01*
X142100000Y-85640595D01*
X142147619Y-85592976D01*
X143052380Y-84640595D02*
X143052380Y-85212023D01*
X143052380Y-84926309D02*
X142052380Y-84926309D01*
X142195238Y-85021547D01*
X142290476Y-85116785D01*
X142338095Y-85212023D01*
X143052380Y-83688214D02*
X143052380Y-84259642D01*
X143052380Y-83973928D02*
X142052380Y-83973928D01*
X142195238Y-84069166D01*
X142290476Y-84164404D01*
X142338095Y-84259642D01*
X165423809Y-81252380D02*
X165423809Y-80252380D01*
X166471428Y-81157142D02*
X166423809Y-81204761D01*
X166280952Y-81252380D01*
X166185714Y-81252380D01*
X166042857Y-81204761D01*
X165947619Y-81109523D01*
X165900000Y-81014285D01*
X165852380Y-80823809D01*
X165852380Y-80680952D01*
X165900000Y-80490476D01*
X165947619Y-80395238D01*
X166042857Y-80300000D01*
X166185714Y-80252380D01*
X166280952Y-80252380D01*
X166423809Y-80300000D01*
X166471428Y-80347619D01*
X166852380Y-80347619D02*
X166900000Y-80300000D01*
X166995238Y-80252380D01*
X167233333Y-80252380D01*
X167328571Y-80300000D01*
X167376190Y-80347619D01*
X167423809Y-80442857D01*
X167423809Y-80538095D01*
X167376190Y-80680952D01*
X166804761Y-81252380D01*
X167423809Y-81252380D01*
X190432380Y-111886190D02*
X189432380Y-111886190D01*
X190432380Y-110886190D02*
X190432380Y-111457619D01*
X190432380Y-111171904D02*
X189432380Y-111171904D01*
X189575238Y-111267142D01*
X189670476Y-111362380D01*
X189718095Y-111457619D01*
M02*
