<?xml version="1.0" standalone="no"?>
 <!DOCTYPE svg PUBLIC "-//W3C//DTD SVG 1.1//EN" 
 "http://www.w3.org/Graphics/SVG/1.1/DTD/svg11.dtd"> 
<svg xmlns="http://www.w3.org/2000/svg" version="1.1" 
    width="29.7002cm" height="21.0007cm" viewBox="0 0 116930 82680 ">
<title>SVG Picture created as Heterodyne-B_Mask.svg date 2020/02/28 13:52:18 </title>
  <desc>Picture generated by PCBNEW </desc>
<g style="fill:#000000; fill-opacity:1;stroke:#000000; stroke-opacity:1;
stroke-linecap:round; stroke-linejoin:round; "
 transform="translate(0 0) scale(1 1)">
</g>
<g style="fill:#000000; fill-opacity:0.0; 
stroke:#000000; stroke-width:-0.000393701; stroke-opacity:1; 
stroke-linecap:round; stroke-linejoin:round;">
</g>
<g style="fill:#000000; fill-opacity:0.0; 
stroke:#000000; stroke-width:39.3701; stroke-opacity:1; 
stroke-linecap:round; stroke-linejoin:round;">
</g>
<g style="fill:#000000; fill-opacity:1.0; 
stroke:#000000; stroke-width:39.3701; stroke-opacity:1; 
stroke-linecap:round; stroke-linejoin:round;">
<path style="fill:#000000; fill-opacity:1.0; 
stroke:#000000; stroke-width:39.3701; stroke-opacity:1; 
stroke-linecap:round; stroke-linejoin:round;fill-rule:evenodd;"
d="M 8937.01,7440.94
7755.91,7440.94
7755.91,7204.72
8937.01,7204.72
Z" /> 
</g>
<g style="fill:#000000; fill-opacity:1.0; 
stroke:#000000; stroke-width:0; stroke-opacity:1; 
stroke-linecap:round; stroke-linejoin:round;">
<path style="fill:#000000; fill-opacity:1.0; 
stroke:#000000; stroke-width:0; stroke-opacity:1; 
stroke-linecap:round; stroke-linejoin:round;fill-rule:evenodd;"
d="M 10522,7205.12
9006.3,7205.12
8996.7,7206.06
8987.47,7208.86
8978.96,7213.41
8971.5,7219.53
8965.38,7226.99
8960.83,7235.5
8958.03,7244.73
8957.09,7254.33
8957.09,7461.02
7735.83,7461.02
7735.83,7184.65
8011.42,7184.65
8021.02,7183.7
8030.25,7180.9
8038.76,7176.35
8046.22,7170.23
8052.34,7162.77
8056.88,7154.27
8059.68,7145.03
8060.63,7135.43
8060.63,6535.04
10522,6535.04
Z" /> 
<path style="fill:#000000; fill-opacity:1.0; 
stroke:#000000; stroke-width:0; stroke-opacity:1; 
stroke-linecap:round; stroke-linejoin:round;fill-rule:evenodd;"
d="M 12465,7165.75
11755.5,7165.75
11755.5,6456.3
12465,6456.3
Z" /> 
<path style="fill:#000000; fill-opacity:1.0; 
stroke:#000000; stroke-width:0; stroke-opacity:1; 
stroke-linecap:round; stroke-linejoin:round;fill-rule:evenodd;"
d="M 13154.9,6458.24
13213.7,6469.93
13278.3,6496.67
13336.4,6535.49
13385.8,6584.9
13424.6,6643
13451.3,6707.55
13465,6776.09
13465,6845.96
13451.3,6914.49
13424.6,6979.05
13385.8,7037.15
13336.4,7086.56
13278.3,7125.38
13213.7,7152.12
13160.1,7162.77
13145.2,7165.75
13075.3,7165.75
13060.3,7162.77
13006.8,7152.12
12942.2,7125.38
12884.1,7086.56
12834.7,7037.15
12795.9,6979.05
12769.1,6914.49
12755.5,6845.96
12755.5,6776.09
12769.1,6707.55
12795.9,6643
12834.7,6584.9
12884.1,6535.49
12942.2,6496.67
13006.8,6469.93
13065.5,6458.24
13075.3,6456.3
13145.2,6456.3
Z" /> 
<path style="fill:#000000; fill-opacity:1.0; 
stroke:#000000; stroke-width:0; stroke-opacity:1; 
stroke-linecap:round; stroke-linejoin:round;fill-rule:evenodd;"
d="M 6836.42,6074.19
6851.18,6078.67
6864.79,6085.94
6876.71,6095.73
6886.5,6107.66
6893.77,6121.26
6898.25,6136.02
6900,6153.79
6900,6444.63
6898.25,6462.4
6893.77,6477.16
6886.5,6490.77
6876.71,6502.7
6864.79,6512.48
6851.18,6519.76
6836.42,6524.23
6818.65,6525.98
6567.18,6525.98
6549.41,6524.23
6534.65,6519.76
6521.04,6512.48
6509.12,6502.7
6499.33,6490.77
6492.06,6477.16
6487.58,6462.4
6485.83,6444.63
6485.83,6153.79
6487.58,6136.02
6492.06,6121.26
6499.33,6107.66
6509.12,6095.73
6521.04,6085.94
6534.65,6078.67
6549.41,6074.19
6567.18,6072.44
6818.65,6072.44
Z" /> 
<path style="fill:#000000; fill-opacity:1.0; 
stroke:#000000; stroke-width:0; stroke-opacity:1; 
stroke-linecap:round; stroke-linejoin:round;fill-rule:evenodd;"
d="M 7953.15,6427.56
7283.07,6427.56
7283.07,3966.14
7953.15,3966.14
Z" /> 
<path style="fill:#000000; fill-opacity:1.0; 
stroke:#000000; stroke-width:0; stroke-opacity:1; 
stroke-linecap:round; stroke-linejoin:round;fill-rule:evenodd;"
d="M 11299.6,6427.56
10629.5,6427.56
10629.5,3966.14
11299.6,3966.14
Z" /> 
<path style="fill:#000000; fill-opacity:1.0; 
stroke:#000000; stroke-width:0; stroke-opacity:1; 
stroke-linecap:round; stroke-linejoin:round;fill-rule:evenodd;"
d="M 12933.5,6004.33
11948.4,6004.33
11948.4,5176.77
12933.5,5176.77
Z" /> 
<path style="fill:#000000; fill-opacity:1.0; 
stroke:#000000; stroke-width:0; stroke-opacity:1; 
stroke-linecap:round; stroke-linejoin:round;fill-rule:evenodd;"
d="M 6836.42,5385.21
6851.18,5389.69
6864.79,5396.97
6876.71,5406.75
6886.5,5418.68
6893.77,5432.29
6898.25,5447.05
6900,5464.82
6900,5755.65
6898.25,5773.42
6893.77,5788.19
6886.5,5801.79
6876.71,5813.72
6864.79,5823.51
6851.18,5830.78
6836.42,5835.26
6818.65,5837.01
6567.18,5837.01
6549.41,5835.26
6534.65,5830.78
6521.04,5823.51
6509.12,5813.72
6499.33,5801.79
6492.06,5788.19
6487.58,5773.42
6485.83,5755.65
6485.83,5464.82
6487.58,5447.05
6492.06,5432.29
6499.33,5418.68
6509.12,5406.75
6521.04,5396.97
6534.65,5389.69
6549.41,5385.21
6567.18,5383.46
6818.65,5383.46
Z" /> 
<path style="fill:#000000; fill-opacity:1.0; 
stroke:#000000; stroke-width:0; stroke-opacity:1; 
stroke-linecap:round; stroke-linejoin:round;fill-rule:evenodd;"
d="M 13686.8,5306.47
13701.6,5310.95
13715.2,5318.23
13727.1,5328.01
13736.9,5339.94
13744.2,5353.55
13748.6,5368.31
13750.4,5386.08
13750.4,5676.91
13748.6,5694.68
13744.2,5709.45
13736.9,5723.05
13727.1,5734.98
13715.2,5744.77
13701.6,5752.04
13686.8,5756.52
13669,5758.27
13417.6,5758.27
13399.8,5756.52
13385,5752.04
13371.4,5744.77
13359.5,5734.98
13349.7,5723.05
13342.4,5709.45
13338,5694.68
13336.2,5676.91
13336.2,5386.08
13338,5368.31
13342.4,5353.55
13349.7,5339.94
13359.5,5328.01
13371.4,5318.23
13385,5310.95
13399.8,5306.47
13417.6,5304.72
13669,5304.72
Z" /> 
<path style="fill:#000000; fill-opacity:1.0; 
stroke:#000000; stroke-width:0; stroke-opacity:1; 
stroke-linecap:round; stroke-linejoin:round;fill-rule:evenodd;"
d="M 13686.8,4617.5
13701.6,4621.98
13715.2,4629.25
13727.1,4639.04
13736.9,4650.96
13744.2,4664.57
13748.6,4679.33
13750.4,4697.1
13750.4,4987.94
13748.6,5005.71
13744.2,5020.47
13736.9,5034.08
13727.1,5046
13715.2,5055.79
13701.6,5063.06
13686.8,5067.54
13669,5069.29
13417.6,5069.29
13399.8,5067.54
13385,5063.06
13371.4,5055.79
13359.5,5046
13349.7,5034.08
13342.4,5020.47
13338,5005.71
13336.2,4987.94
13336.2,4697.1
13338,4679.33
13342.4,4664.57
13349.7,4650.96
13359.5,4639.04
13371.4,4629.25
13385,4621.98
13399.8,4617.5
13417.6,4615.75
13669,4615.75
Z" /> 
<path style="fill:#000000; fill-opacity:1.0; 
stroke:#000000; stroke-width:0; stroke-opacity:1; 
stroke-linecap:round; stroke-linejoin:round;fill-rule:evenodd;"
d="M 12933.5,4547.64
11948.4,4547.64
11948.4,3720.08
12933.5,3720.08
Z" /> 
<path style="fill:#000000; fill-opacity:1.0; 
stroke:#000000; stroke-width:0; stroke-opacity:1; 
stroke-linecap:round; stroke-linejoin:round;fill-rule:evenodd;"
d="M 10522,3858.66
8060.63,3858.66
8060.63,3188.58
10522,3188.58
Z" /> 
<path style="fill:#000000; fill-opacity:1.0; 
stroke:#000000; stroke-width:0; stroke-opacity:1; 
stroke-linecap:round; stroke-linejoin:round;fill-rule:evenodd;"
d="M 7018.16,3641.35
7030.25,3646.36
7036.86,3649.1
7053.69,3660.34
7068,3674.65
7079.25,3691.48
7079.25,3691.48
7087,3710.19
7090.94,3730.04
7090.94,3750.28
7087,3770.13
7081.99,3782.22
7079.25,3788.83
7068,3805.66
7053.69,3819.97
7036.86,3831.22
7030.25,3833.96
7018.16,3838.97
6998.31,3842.91
6978.07,3842.91
6958.22,3838.97
6946.13,3833.96
6939.52,3831.22
6922.69,3819.97
6908.37,3805.66
6897.13,3788.83
6894.39,3782.22
6889.38,3770.13
6885.43,3750.28
6885.43,3730.04
6889.38,3710.19
6897.13,3691.48
6897.13,3691.48
6908.37,3674.65
6922.69,3660.34
6939.52,3649.1
6946.13,3646.36
6958.22,3641.35
6978.07,3637.4
6998.31,3637.4
Z" /> 
<path style="fill:#000000; fill-opacity:1.0; 
stroke:#000000; stroke-width:0; stroke-opacity:1; 
stroke-linecap:round; stroke-linejoin:round;fill-rule:evenodd;"
d="M 1142.13,3504.33
432.677,3504.33
432.677,2794.88
1142.13,2794.88
Z" /> 
<path style="fill:#000000; fill-opacity:1.0; 
stroke:#000000; stroke-width:0; stroke-opacity:1; 
stroke-linecap:round; stroke-linejoin:round;fill-rule:evenodd;"
d="M 13273.4,2904.9
13288.2,2909.38
13301.8,2916.65
13313.7,2926.44
13323.5,2938.36
13330.8,2951.97
13335.3,2966.73
13337,2984.5
13337,3235.97
13335.3,3253.74
13330.8,3268.5
13323.5,3282.11
13313.7,3294.03
13301.8,3303.82
13288.2,3311.09
13273.4,3315.57
13255.7,3317.32
12964.8,3317.32
12947,3315.57
12932.3,3311.09
12918.7,3303.82
12906.8,3294.03
12897,3282.11
12889.7,3268.5
12885.2,3253.74
12883.5,3235.97
12883.5,2984.5
12885.2,2966.73
12889.7,2951.97
12897,2938.36
12906.8,2926.44
12918.7,2916.65
12932.3,2909.38
12947,2904.9
12964.8,2903.15
13255.7,2903.15
Z" /> 
<path style="fill:#000000; fill-opacity:1.0; 
stroke:#000000; stroke-width:0; stroke-opacity:1; 
stroke-linecap:round; stroke-linejoin:round;fill-rule:evenodd;"
d="M 12584.4,2904.9
12599.2,2909.38
12612.8,2916.65
12624.7,2926.44
12634.5,2938.36
12641.8,2951.97
12646.3,2966.73
12648,2984.5
12648,3235.97
12646.3,3253.74
12641.8,3268.5
12634.5,3282.11
12624.7,3294.03
12612.8,3303.82
12599.2,3311.09
12584.4,3315.57
12566.7,3317.32
12275.8,3317.32
12258.1,3315.57
12243.3,3311.09
12229.7,3303.82
12217.8,3294.03
12208,3282.11
12200.7,3268.5
12196.2,3253.74
12194.5,3235.97
12194.5,2984.5
12196.2,2966.73
12200.7,2951.97
12208,2938.36
12217.8,2926.44
12229.7,2916.65
12243.3,2909.38
12258.1,2904.9
12275.8,2903.15
12566.7,2903.15
Z" /> 
<path style="fill:#000000; fill-opacity:1.0; 
stroke:#000000; stroke-width:0; stroke-opacity:1; 
stroke-linecap:round; stroke-linejoin:round;fill-rule:evenodd;"
d="M 9148.39,2104.61
9163.16,2109.08
9176.76,2116.36
9190.57,2127.69
9368.38,2305.5
9379.71,2319.3
9386.98,2332.91
9391.46,2347.67
9392.97,2363.02
9391.46,2378.38
9386.98,2393.14
9379.71,2406.75
9368.38,2420.55
9162.73,2626.2
9148.92,2637.53
9135.32,2644.8
9120.55,2649.28
9105.2,2650.79
9089.85,2649.28
9075.08,2644.8
9061.48,2637.53
9047.67,2626.2
8869.86,2448.39
8858.53,2434.58
8851.26,2420.98
8846.78,2406.22
8845.27,2390.86
8846.78,2375.51
8851.26,2360.75
8858.53,2347.14
8869.86,2333.34
9075.51,2127.69
9089.32,2116.36
9102.92,2109.08
9117.69,2104.61
9133.04,2103.09
Z" /> 
<path style="fill:#000000; fill-opacity:1.0; 
stroke:#000000; stroke-width:0; stroke-opacity:1; 
stroke-linecap:round; stroke-linejoin:round;fill-rule:evenodd;"
d="M 8532.27,1910.85
8547.5,1915.47
8561.53,1922.97
8573.83,1933.06
8583.92,1945.36
8591.42,1959.39
8596.04,1974.62
8597.83,1992.87
8597.83,2416.58
8596.04,2434.83
8591.42,2450.05
8583.92,2464.09
8573.83,2476.38
8561.53,2486.48
8547.5,2493.98
8532.27,2498.6
8514.02,2500.39
8257.63,2500.39
8239.38,2498.6
8224.16,2493.98
8210.13,2486.48
8197.83,2476.38
8187.73,2464.09
8180.23,2450.05
8175.62,2434.83
8173.82,2416.58
8173.82,1992.87
8175.62,1974.62
8180.23,1959.39
8187.73,1945.36
8197.83,1933.06
8210.13,1922.97
8224.16,1915.47
8239.38,1910.85
8257.63,1909.06
8514.02,1909.06
Z" /> 
<path style="fill:#000000; fill-opacity:1.0; 
stroke:#000000; stroke-width:0; stroke-opacity:1; 
stroke-linecap:round; stroke-linejoin:round;fill-rule:evenodd;"
d="M 7794.08,1910.85
7809.31,1915.47
7823.34,1922.97
7835.64,1933.06
7845.73,1945.36
7853.23,1959.39
7857.85,1974.62
7859.65,1992.87
7859.65,2416.58
7857.85,2434.83
7853.23,2450.05
7845.73,2464.09
7835.64,2476.38
7823.34,2486.48
7809.31,2493.98
7794.08,2498.6
7775.83,2500.39
7519.44,2500.39
7501.19,2498.6
7485.97,2493.98
7471.94,2486.48
7459.64,2476.38
7449.55,2464.09
7442.05,2450.05
7437.43,2434.83
7435.63,2416.58
7435.63,1992.87
7437.43,1974.62
7442.05,1959.39
7449.55,1945.36
7459.64,1933.06
7471.94,1922.97
7485.97,1915.47
7501.19,1910.85
7519.44,1909.06
7775.83,1909.06
Z" /> 
<path style="fill:#000000; fill-opacity:1.0; 
stroke:#000000; stroke-width:0; stroke-opacity:1; 
stroke-linecap:round; stroke-linejoin:round;fill-rule:evenodd;"
d="M 9635.57,1617.43
9650.33,1621.9
9663.94,1629.18
9677.75,1640.51
9855.56,1818.32
9866.89,1832.12
9874.16,1845.73
9878.64,1860.49
9880.15,1875.84
9878.64,1891.2
9874.16,1905.96
9866.89,1919.57
9855.56,1933.37
9649.91,2139.02
9636.1,2150.35
9622.5,2157.62
9607.73,2162.1
9592.38,2163.61
9577.03,2162.1
9562.26,2157.62
9548.66,2150.35
9534.85,2139.02
9357.04,1961.21
9345.71,1947.41
9338.44,1933.8
9333.96,1919.04
9332.45,1903.68
9333.96,1888.33
9338.44,1873.57
9345.71,1859.96
9357.04,1846.16
9562.69,1640.51
9576.5,1629.18
9590.1,1621.9
9604.86,1617.43
9620.22,1615.91
Z" /> 
<path style="fill:#000000; fill-opacity:1.0; 
stroke:#000000; stroke-width:0; stroke-opacity:1; 
stroke-linecap:round; stroke-linejoin:round;fill-rule:evenodd;"
d="M 1142.13,2087.01
432.677,2087.01
432.677,1377.56
1142.13,1377.56
Z" /> 
<path style="fill:#000000; fill-opacity:1.0; 
stroke:#000000; stroke-width:0; stroke-opacity:1; 
stroke-linecap:round; stroke-linejoin:round;fill-rule:evenodd;"
d="M 9855.71,631.467
9914.49,643.159
9979.05,669.899
10037.1,708.719
10086.6,758.128
10125.4,816.227
10152.1,880.783
10165.7,949.315
10165.7,1019.19
10152.1,1087.72
10125.4,1152.28
10086.6,1210.38
10037.1,1259.78
9979.05,1298.6
9914.49,1325.34
9855.71,1337.04
9845.96,1338.98
9776.09,1338.98
9766.33,1337.04
9707.55,1325.34
9643,1298.6
9584.9,1259.78
9535.49,1210.38
9496.67,1152.28
9469.93,1087.72
9456.3,1019.19
9456.3,949.315
9469.93,880.783
9496.67,816.227
9535.49,758.128
9584.9,708.719
9643,669.899
9707.55,643.159
9766.33,631.467
9776.09,629.528
9845.96,629.528
Z" /> 
<path style="fill:#000000; fill-opacity:1.0; 
stroke:#000000; stroke-width:0; stroke-opacity:1; 
stroke-linecap:round; stroke-linejoin:round;fill-rule:evenodd;"
d="M 10855.7,631.467
10914.5,643.159
10979,669.899
11037.1,708.719
11086.6,758.128
11125.4,816.227
11152.1,880.783
11165.7,949.315
11165.7,1019.19
11152.1,1087.72
11125.4,1152.28
11086.6,1210.38
11037.1,1259.78
10979,1298.6
10914.5,1325.34
10855.7,1337.04
10846,1338.98
10776.1,1338.98
10766.3,1337.04
10707.6,1325.34
10643,1298.6
10584.9,1259.78
10535.5,1210.38
10496.7,1152.28
10469.9,1087.72
10456.3,1019.19
10456.3,949.315
10469.9,880.783
10496.7,816.227
10535.5,758.128
10584.9,708.719
10643,669.899
10707.6,643.159
10766.3,631.467
10776.1,629.528
10846,629.528
Z" /> 
<path style="fill:#000000; fill-opacity:1.0; 
stroke:#000000; stroke-width:0; stroke-opacity:1; 
stroke-linecap:round; stroke-linejoin:round;fill-rule:evenodd;"
d="M 8855.71,631.467
8914.49,643.159
8979.05,669.899
9037.15,708.719
9086.56,758.128
9125.38,816.227
9152.12,880.783
9165.75,949.315
9165.75,1019.19
9152.12,1087.72
9125.38,1152.28
9086.56,1210.38
9037.15,1259.78
8979.05,1298.6
8914.49,1325.34
8855.71,1337.04
8845.96,1338.98
8776.09,1338.98
8766.33,1337.04
8707.55,1325.34
8643,1298.6
8584.9,1259.78
8535.49,1210.38
8496.67,1152.28
8469.93,1087.72
8456.3,1019.19
8456.3,949.315
8469.93,880.783
8496.67,816.227
8535.49,758.128
8584.9,708.719
8643,669.899
8707.55,643.159
8766.33,631.467
8776.09,629.528
8845.96,629.528
Z" /> 
<path style="fill:#000000; fill-opacity:1.0; 
stroke:#000000; stroke-width:0; stroke-opacity:1; 
stroke-linecap:round; stroke-linejoin:round;fill-rule:evenodd;"
d="M 8165.75,1338.98
7456.3,1338.98
7456.3,629.528
8165.75,629.528
Z" /> 
<path style="fill:#000000; fill-opacity:1.0; 
stroke:#000000; stroke-width:0; stroke-opacity:1; 
stroke-linecap:round; stroke-linejoin:round;fill-rule:evenodd;"
d="M 11855.7,631.467
11914.5,643.159
11979,669.899
12037.1,708.719
12086.6,758.128
12125.4,816.227
12152.1,880.783
12165.7,949.315
12165.7,1019.19
12152.1,1087.72
12125.4,1152.28
12086.6,1210.38
12037.1,1259.78
11979,1298.6
11914.5,1325.34
11855.7,1337.04
11846,1338.98
11776.1,1338.98
11766.3,1337.04
11707.6,1325.34
11643,1298.6
11584.9,1259.78
11535.5,1210.38
11496.7,1152.28
11469.9,1087.72
11456.3,1019.19
11456.3,949.315
11469.9,880.783
11496.7,816.227
11535.5,758.128
11584.9,708.719
11643,669.899
11707.6,643.159
11766.3,631.467
11776.1,629.528
11846,629.528
Z" /> 
<path style="fill:#000000; fill-opacity:1.0; 
stroke:#000000; stroke-width:0; stroke-opacity:1; 
stroke-linecap:round; stroke-linejoin:round;fill-rule:evenodd;"
d="M 832.091,379.499
890.871,391.191
955.427,417.931
1013.53,456.751
1062.93,506.16
1101.75,564.258
1128.49,628.814
1142.13,697.346
1142.13,767.221
1128.49,835.753
1101.75,900.309
1062.93,958.407
1013.53,1007.82
955.427,1046.64
890.871,1073.38
832.091,1085.07
822.339,1087.01
752.464,1087.01
742.712,1085.07
683.932,1073.38
619.376,1046.64
561.278,1007.82
511.869,958.407
473.049,900.309
446.309,835.753
432.677,767.221
432.677,697.346
446.309,628.814
473.049,564.258
511.869,506.16
561.278,456.751
619.376,417.931
683.932,391.191
742.712,379.499
752.464,377.559
822.339,377.559
Z" /> 
</g> 
</svg>
