<?xml version="1.0" standalone="no"?>
 <!DOCTYPE svg PUBLIC "-//W3C//DTD SVG 1.1//EN" 
 "http://www.w3.org/Graphics/SVG/1.1/DTD/svg11.dtd"> 
<svg xmlns="http://www.w3.org/2000/svg" version="1.1" 
    width="29.7002cm" height="21.0007cm" viewBox="0 0 116930 82680 ">
<title>SVG Picture created as Heterodyne-F_Mask.svg date 2020/02/28 10:36:22 </title>
  <desc>Picture generated by PCBNEW </desc>
<g style="fill:#000000; fill-opacity:1;stroke:#000000; stroke-opacity:1;
stroke-linecap:round; stroke-linejoin:round; "
 transform="translate(0 0) scale(1 1)">
</g>
<g style="fill:#000000; fill-opacity:0.0; 
stroke:#000000; stroke-width:-0.000393701; stroke-opacity:1; 
stroke-linecap:round; stroke-linejoin:round;">
</g>
<g style="fill:#000000; fill-opacity:1.0; 
stroke:#000000; stroke-width:0; stroke-opacity:1; 
stroke-linecap:round; stroke-linejoin:round;">
<path style="fill:#000000; fill-opacity:1.0; 
stroke:#000000; stroke-width:0; stroke-opacity:1; 
stroke-linecap:round; stroke-linejoin:round;fill-rule:evenodd;"
d="M 4194.9,6752.47
4201.36,6754.43
4209.09,6758.56
4218,6762.26
4227.46,6764.14
4237.11,6764.14
4246.57,6762.25
4255.48,6758.56
4263.21,6754.43
4269.66,6752.47
4278.8,6751.57
4441.68,6751.57
4450.81,6752.47
4457.26,6754.43
4464.99,6758.56
4473.9,6762.26
4483.37,6764.14
4493.01,6764.14
4502.48,6762.25
4511.39,6758.56
4519.12,6754.43
4525.57,6752.47
4534.7,6751.57
4697.58,6751.57
4706.71,6752.47
4713.17,6754.43
4720.9,6758.56
4729.81,6762.26
4739.27,6764.14
4748.92,6764.14
4758.38,6762.25
4767.29,6758.56
4775.02,6754.43
4781.48,6752.47
4790.61,6751.57
4953.49,6751.57
4962.62,6752.47
4969.07,6754.43
4975.02,6757.61
4980.24,6761.89
4984.51,6767.1
4987.69,6773.05
4989.65,6779.51
4990.55,6788.64
4990.55,7394.43
4989.65,7403.56
4987.69,7410.02
4984.51,7415.97
4980.24,7421.18
4975.02,7425.46
4969.07,7428.64
4962.62,7430.6
4953.49,7431.5
4790.61,7431.5
4781.48,7430.6
4775.02,7428.64
4767.29,7424.51
4758.38,7420.82
4748.92,7418.93
4739.27,7418.93
4729.81,7420.82
4720.9,7424.51
4713.17,7428.64
4706.71,7430.6
4697.58,7431.5
4534.7,7431.5
4525.57,7430.6
4519.12,7428.64
4511.39,7424.51
4502.47,7420.82
4493.01,7418.93
4483.36,7418.93
4473.9,7420.82
4464.99,7424.51
4457.26,7428.64
4450.81,7430.6
4441.68,7431.5
4278.8,7431.5
4269.66,7430.6
4263.21,7428.64
4255.48,7424.51
4246.57,7420.82
4237.11,7418.93
4227.46,7418.93
4218,7420.82
4209.09,7424.51
4201.36,7428.64
4194.9,7430.6
4185.77,7431.5
4022.89,7431.5
4013.76,7430.6
4007.31,7428.64
4001.36,7425.46
3996.14,7421.18
3991.86,7415.97
3988.68,7410.02
3986.73,7403.56
3985.83,7394.43
3985.83,6788.64
3986.73,6779.51
3988.68,6773.05
3991.86,6767.1
3996.14,6761.89
4001.36,6757.61
4007.31,6754.43
4013.76,6752.47
4022.89,6751.57
4185.77,6751.57
Z" /> 
<path style="fill:#000000; fill-opacity:1.0; 
stroke:#000000; stroke-width:0; stroke-opacity:1; 
stroke-linecap:round; stroke-linejoin:round;fill-rule:evenodd;"
d="M 13154.9,6458.24
13213.7,6469.93
13278.3,6496.67
13336.4,6535.49
13385.8,6584.9
13424.6,6643
13451.3,6707.55
13465,6776.09
13465,6845.96
13451.3,6914.49
13424.6,6979.05
13385.8,7037.15
13336.4,7086.56
13278.3,7125.38
13213.7,7152.12
13154.9,7163.81
13145.2,7165.75
13075.3,7165.75
13065.5,7163.81
13006.8,7152.12
12942.2,7125.38
12884.1,7086.56
12834.7,7037.15
12795.9,6979.05
12769.1,6914.49
12755.5,6845.96
12755.5,6776.09
12769.1,6707.55
12795.9,6643
12834.7,6584.9
12884.1,6535.49
12942.2,6496.67
13006.8,6469.93
13065.5,6458.24
13075.3,6456.3
13145.2,6456.3
Z" /> 
<path style="fill:#000000; fill-opacity:1.0; 
stroke:#000000; stroke-width:0; stroke-opacity:1; 
stroke-linecap:round; stroke-linejoin:round;fill-rule:evenodd;"
d="M 12465,7165.75
11755.5,7165.75
11755.5,6456.3
12465,6456.3
Z" /> 
<path style="fill:#000000; fill-opacity:1.0; 
stroke:#000000; stroke-width:0; stroke-opacity:1; 
stroke-linecap:round; stroke-linejoin:round;fill-rule:evenodd;"
d="M 5694.68,6261.2
5709.45,6265.68
5723.05,6272.95
5734.98,6282.74
5744.77,6294.66
5752.04,6308.27
5756.52,6323.03
5758.27,6340.8
5758.27,6631.64
5756.52,6649.41
5752.04,6664.17
5744.77,6677.78
5734.98,6689.7
5723.05,6699.49
5709.45,6706.76
5694.68,6711.24
5676.91,6712.99
5425.45,6712.99
5407.68,6711.24
5392.92,6706.76
5379.31,6699.49
5367.38,6689.7
5357.6,6677.78
5350.32,6664.17
5345.84,6649.41
5344.09,6631.64
5344.09,6340.8
5345.84,6323.03
5350.32,6308.27
5357.6,6294.66
5367.38,6282.74
5379.31,6272.95
5392.92,6265.68
5407.68,6261.2
5425.45,6259.45
5676.91,6259.45
Z" /> 
<path style="fill:#000000; fill-opacity:1.0; 
stroke:#000000; stroke-width:0; stroke-opacity:1; 
stroke-linecap:round; stroke-linejoin:round;fill-rule:evenodd;"
d="M 9009.63,6197.27
9024.86,6201.89
9038.89,6209.39
9051.19,6219.48
9061.28,6231.78
9068.78,6245.81
9073.4,6261.04
9075.2,6279.29
9075.2,6535.67
9073.4,6553.92
9068.78,6569.15
9061.28,6583.18
9051.19,6595.48
9038.89,6605.57
9024.86,6613.07
9009.63,6617.69
8991.38,6619.49
8567.67,6619.49
8549.42,6617.69
8534.2,6613.07
8520.17,6605.57
8507.87,6595.48
8497.77,6583.18
8490.27,6569.15
8485.66,6553.92
8483.86,6535.67
8483.86,6279.29
8485.66,6261.04
8490.27,6245.81
8497.77,6231.78
8507.87,6219.48
8520.17,6209.39
8534.2,6201.89
8549.42,6197.27
8567.67,6195.47
8991.38,6195.47
Z" /> 
<path style="fill:#000000; fill-opacity:1.0; 
stroke:#000000; stroke-width:0; stroke-opacity:1; 
stroke-linecap:round; stroke-linejoin:round;fill-rule:evenodd;"
d="M 3529.33,5906.87
3544.09,5911.35
3557.7,5918.62
3569.62,5928.41
3579.41,5940.33
3586.69,5953.94
3591.16,5968.7
3592.91,5986.47
3592.91,6277.31
3591.16,6295.08
3586.69,6309.84
3579.41,6323.45
3569.62,6335.37
3557.7,6345.16
3544.09,6352.43
3529.33,6356.91
3511.56,6358.66
3260.09,6358.66
3242.32,6356.91
3227.56,6352.43
3213.96,6345.16
3202.03,6335.37
3192.24,6323.45
3184.97,6309.84
3180.49,6295.08
3178.74,6277.31
3178.74,5986.47
3180.49,5968.7
3184.97,5953.94
3192.24,5940.33
3202.03,5928.41
3213.96,5918.62
3227.56,5911.35
3242.32,5906.87
3260.09,5905.12
3511.56,5905.12
Z" /> 
<path style="fill:#000000; fill-opacity:1.0; 
stroke:#000000; stroke-width:0; stroke-opacity:1; 
stroke-linecap:round; stroke-linejoin:round;fill-rule:evenodd;"
d="M 5694.68,5572.22
5709.45,5576.7
5723.05,5583.97
5734.98,5593.76
5744.77,5605.69
5752.04,5619.29
5756.52,5634.06
5758.27,5651.83
5758.27,5942.66
5756.52,5960.43
5752.04,5975.19
5744.77,5988.8
5734.98,6000.73
5723.05,6010.51
5709.45,6017.79
5694.68,6022.27
5676.91,6024.02
5425.45,6024.02
5407.68,6022.27
5392.92,6017.79
5379.31,6010.51
5367.38,6000.73
5357.6,5988.8
5350.32,5975.19
5345.84,5960.43
5344.09,5942.66
5344.09,5651.83
5345.84,5634.06
5350.32,5619.29
5357.6,5605.69
5367.38,5593.76
5379.31,5583.97
5392.92,5576.7
5407.68,5572.22
5425.45,5570.47
5676.91,5570.47
Z" /> 
<path style="fill:#000000; fill-opacity:1.0; 
stroke:#000000; stroke-width:0; stroke-opacity:1; 
stroke-linecap:round; stroke-linejoin:round;fill-rule:evenodd;"
d="M 9009.63,5459.08
9024.86,5463.7
9038.89,5471.2
9051.19,5481.29
9061.28,5493.59
9068.78,5507.62
9073.4,5522.85
9075.2,5541.1
9075.2,5797.49
9073.4,5815.74
9068.78,5830.96
9061.28,5844.99
9051.19,5857.29
9038.89,5867.38
9024.86,5874.88
9009.63,5879.5
8991.38,5881.3
8567.67,5881.3
8549.42,5879.5
8534.2,5874.88
8520.17,5867.38
8507.87,5857.29
8497.77,5844.99
8490.27,5830.96
8485.66,5815.74
8483.86,5797.49
8483.86,5541.1
8485.66,5522.85
8490.27,5507.62
8497.77,5493.59
8507.87,5481.29
8520.17,5471.2
8534.2,5463.7
8549.42,5459.08
8567.67,5457.28
8991.38,5457.28
Z" /> 
<path style="fill:#000000; fill-opacity:1.0; 
stroke:#000000; stroke-width:0; stroke-opacity:1; 
stroke-linecap:round; stroke-linejoin:round;fill-rule:evenodd;"
d="M 7820.67,5345.84
7835.43,5350.32
7849.04,5357.6
7860.96,5367.38
7870.75,5379.31
7878.02,5392.92
7882.5,5407.68
7884.25,5425.45
7884.25,5716.28
7882.5,5734.05
7878.02,5748.82
7870.75,5762.42
7860.96,5774.35
7849.04,5784.14
7835.43,5791.41
7820.67,5795.89
7802.9,5797.64
7551.43,5797.64
7533.66,5795.89
7518.9,5791.41
7505.29,5784.14
7493.37,5774.35
7483.58,5762.42
7476.31,5748.82
7471.83,5734.05
7470.08,5716.28
7470.08,5425.45
7471.83,5407.68
7476.31,5392.92
7483.58,5379.31
7493.37,5367.38
7505.29,5357.6
7518.9,5350.32
7533.66,5345.84
7551.43,5344.09
7802.9,5344.09
Z" /> 
<path style="fill:#000000; fill-opacity:1.0; 
stroke:#000000; stroke-width:0; stroke-opacity:1; 
stroke-linecap:round; stroke-linejoin:round;fill-rule:evenodd;"
d="M 4194.9,5089.09
4201.36,5091.05
4209.09,5095.18
4218,5098.87
4227.46,5100.75
4237.11,5100.75
4246.57,5098.87
4255.48,5095.18
4263.21,5091.05
4269.66,5089.09
4278.8,5088.19
4441.68,5088.19
4450.81,5089.09
4457.26,5091.05
4464.99,5095.18
4473.9,5098.87
4483.37,5100.75
4493.01,5100.75
4502.48,5098.87
4511.39,5095.18
4519.12,5091.05
4525.57,5089.09
4534.7,5088.19
4697.58,5088.19
4706.71,5089.09
4713.17,5091.05
4720.9,5095.18
4729.81,5098.87
4739.27,5100.75
4748.92,5100.75
4758.38,5098.87
4767.29,5095.18
4775.02,5091.05
4781.48,5089.09
4790.61,5088.19
4953.49,5088.19
4962.62,5089.09
4969.07,5091.05
4975.02,5094.23
4980.24,5098.5
4984.51,5103.72
4987.69,5109.67
4989.65,5116.12
4990.55,5125.25
4990.55,5731.05
4989.65,5740.18
4987.69,5746.63
4984.51,5752.58
4980.24,5757.79
4975.02,5762.07
4969.07,5765.25
4962.62,5767.21
4953.49,5768.11
4790.61,5768.11
4781.48,5767.21
4775.02,5765.25
4767.29,5761.12
4758.38,5757.43
4748.92,5755.55
4739.27,5755.55
4729.81,5757.43
4720.9,5761.12
4713.17,5765.25
4706.71,5767.21
4697.58,5768.11
4534.7,5768.11
4525.57,5767.21
4519.12,5765.25
4511.39,5761.12
4502.47,5757.43
4493.01,5755.55
4483.36,5755.55
4473.9,5757.43
4464.99,5761.12
4457.26,5765.25
4450.81,5767.21
4441.68,5768.11
4278.8,5768.11
4269.66,5767.21
4263.21,5765.25
4255.48,5761.12
4246.57,5757.43
4237.11,5755.55
4227.46,5755.55
4218,5757.43
4209.09,5761.12
4201.36,5765.25
4194.9,5767.21
4185.77,5768.11
4022.89,5768.11
4013.76,5767.21
4007.31,5765.25
4001.36,5762.07
3996.14,5757.79
3991.86,5752.58
3988.68,5746.63
3986.73,5740.18
3985.83,5731.05
3985.83,5125.25
3986.73,5116.12
3988.68,5109.67
3991.86,5103.72
3996.14,5098.5
4001.36,5094.23
4007.31,5091.05
4013.76,5089.09
4022.89,5088.19
4185.77,5088.19
Z" /> 
<path style="fill:#000000; fill-opacity:1.0; 
stroke:#000000; stroke-width:0; stroke-opacity:1; 
stroke-linecap:round; stroke-linejoin:round;fill-rule:evenodd;"
d="M 3529.33,5217.89
3544.09,5222.37
3557.7,5229.64
3569.62,5239.43
3579.41,5251.36
3586.69,5264.96
3591.16,5279.72
3592.91,5297.5
3592.91,5588.33
3591.16,5606.1
3586.69,5620.86
3579.41,5634.47
3569.62,5646.4
3557.7,5656.18
3544.09,5663.46
3529.33,5667.94
3511.56,5669.69
3260.09,5669.69
3242.32,5667.94
3227.56,5663.46
3213.96,5656.18
3202.03,5646.4
3192.24,5634.47
3184.97,5620.86
3180.49,5606.1
3178.74,5588.33
3178.74,5297.5
3180.49,5279.72
3184.97,5264.96
3192.24,5251.36
3202.03,5239.43
3213.96,5229.64
3227.56,5222.37
3242.32,5217.89
3260.09,5216.14
3511.56,5216.14
Z" /> 
<path style="fill:#000000; fill-opacity:1.0; 
stroke:#000000; stroke-width:0; stroke-opacity:1; 
stroke-linecap:round; stroke-linejoin:round;fill-rule:evenodd;"
d="M 2899.41,5198.21
2914.17,5202.69
2927.78,5209.96
2939.7,5219.75
2949.49,5231.67
2956.76,5245.28
2961.24,5260.04
2962.99,5277.81
2962.99,5568.65
2961.24,5586.42
2956.76,5601.18
2949.49,5614.79
2939.7,5626.71
2927.78,5636.5
2914.17,5643.77
2899.41,5648.25
2881.64,5650
2630.17,5650
2612.4,5648.25
2597.64,5643.77
2584.03,5636.5
2572.11,5626.71
2562.32,5614.79
2555.05,5601.18
2550.57,5586.42
2548.82,5568.65
2548.82,5277.81
2550.57,5260.04
2555.05,5245.28
2562.32,5231.67
2572.11,5219.75
2584.03,5209.96
2597.64,5202.69
2612.4,5198.21
2630.17,5196.46
2881.64,5196.46
Z" /> 
<path style="fill:#000000; fill-opacity:1.0; 
stroke:#000000; stroke-width:0; stroke-opacity:1; 
stroke-linecap:round; stroke-linejoin:round;fill-rule:evenodd;"
d="M 10220.4,5179.83
10228.7,5182.35
10236.4,5186.44
10243.1,5191.94
10248.6,5198.64
10252.7,5206.3
10255.2,5214.6
10256.3,5225.65
10256.3,5408.21
10255.2,5419.26
10252.7,5427.56
10248.6,5435.21
10243.1,5441.92
10236.4,5447.42
10228.7,5451.51
10220.4,5454.03
10209.4,5455.12
9495.33,5455.12
9484.28,5454.03
9475.98,5451.51
9468.33,5447.42
9461.62,5441.92
9456.12,5435.21
9452.03,5427.56
9449.51,5419.26
9448.43,5408.21
9448.43,5225.65
9449.51,5214.6
9452.03,5206.3
9456.12,5198.64
9461.62,5191.94
9468.33,5186.44
9475.98,5182.35
9484.28,5179.83
9495.33,5178.74
10209.4,5178.74
Z" /> 
<path style="fill:#000000; fill-opacity:1.0; 
stroke:#000000; stroke-width:0; stroke-opacity:1; 
stroke-linecap:round; stroke-linejoin:round;fill-rule:evenodd;"
d="M 12169.3,5179.83
12177.6,5182.35
12185.2,5186.44
12191.9,5191.94
12197.4,5198.64
12201.5,5206.3
12204,5214.6
12205.1,5225.65
12205.1,5408.21
12204,5419.26
12201.5,5427.56
12197.4,5435.21
12191.9,5441.92
12185.2,5447.42
12177.6,5451.51
12169.3,5454.03
12158.2,5455.12
11444.1,5455.12
11433.1,5454.03
11424.8,5451.51
11417.1,5447.42
11410.4,5441.92
11404.9,5435.21
11400.9,5427.56
11398.3,5419.26
11397.2,5408.21
11397.2,5225.65
11398.3,5214.6
11400.9,5206.3
11404.9,5198.64
11410.4,5191.94
11417.1,5186.44
11424.8,5182.35
11433.1,5179.83
11444.1,5178.74
12158.2,5178.74
Z" /> 
<path style="fill:#000000; fill-opacity:1.0; 
stroke:#000000; stroke-width:0; stroke-opacity:1; 
stroke-linecap:round; stroke-linejoin:round;fill-rule:evenodd;"
d="M 9001.77,4656.87
9016.53,4661.35
9030.14,4668.62
9042.07,4678.41
9051.85,4690.33
9059.13,4703.94
9063.6,4718.7
9065.35,4736.47
9065.35,5027.31
9063.6,5045.08
9059.13,5059.84
9051.85,5073.45
9042.07,5085.37
9030.14,5095.16
9016.53,5102.43
9001.77,5106.91
8984,5108.66
8732.53,5108.66
8714.76,5106.91
8700,5102.43
8686.4,5095.16
8674.47,5085.37
8664.68,5073.45
8657.41,5059.84
8652.93,5045.08
8651.18,5027.31
8651.18,4736.47
8652.93,4718.7
8657.41,4703.94
8664.68,4690.33
8674.47,4678.41
8686.4,4668.62
8700,4661.35
8714.76,4656.87
8732.53,4655.12
8984,4655.12
Z" /> 
<path style="fill:#000000; fill-opacity:1.0; 
stroke:#000000; stroke-width:0; stroke-opacity:1; 
stroke-linecap:round; stroke-linejoin:round;fill-rule:evenodd;"
d="M 7820.67,4656.87
7835.43,4661.35
7849.04,4668.62
7860.96,4678.41
7870.75,4690.33
7878.02,4703.94
7882.5,4718.7
7884.25,4736.47
7884.25,5027.31
7882.5,5045.08
7878.02,5059.84
7870.75,5073.45
7860.96,5085.37
7849.04,5095.16
7835.43,5102.43
7820.67,5106.91
7802.9,5108.66
7551.43,5108.66
7533.66,5106.91
7518.9,5102.43
7505.29,5095.16
7493.37,5085.37
7483.58,5073.45
7476.31,5059.84
7471.83,5045.08
7470.08,5027.31
7470.08,4736.47
7471.83,4718.7
7476.31,4703.94
7483.58,4690.33
7493.37,4678.41
7505.29,4668.62
7518.9,4661.35
7533.66,4656.87
7551.43,4655.12
7802.9,4655.12
Z" /> 
<path style="fill:#000000; fill-opacity:1.0; 
stroke:#000000; stroke-width:0; stroke-opacity:1; 
stroke-linecap:round; stroke-linejoin:round;fill-rule:evenodd;"
d="M 2899.41,4509.23
2914.17,4513.71
2927.78,4520.98
2939.7,4530.77
2949.49,4542.7
2956.76,4556.3
2961.24,4571.06
2962.99,4588.83
2962.99,4879.67
2961.24,4897.44
2956.76,4912.2
2949.49,4925.81
2939.7,4937.74
2927.78,4947.52
2914.17,4954.8
2899.41,4959.27
2881.64,4961.02
2630.17,4961.02
2612.4,4959.27
2597.64,4954.8
2584.03,4947.52
2572.11,4937.74
2562.32,4925.81
2555.05,4912.2
2550.57,4897.44
2548.82,4879.67
2548.82,4588.83
2550.57,4571.06
2555.05,4556.3
2562.32,4542.7
2572.11,4530.77
2584.03,4520.98
2597.64,4513.71
2612.4,4509.23
2630.17,4507.48
2881.64,4507.48
Z" /> 
<path style="fill:#000000; fill-opacity:1.0; 
stroke:#000000; stroke-width:0; stroke-opacity:1; 
stroke-linecap:round; stroke-linejoin:round;fill-rule:evenodd;"
d="M 12169.3,4679.83
12177.6,4682.35
12185.2,4686.44
12191.9,4691.94
12197.4,4698.64
12201.5,4706.3
12204,4714.6
12205.1,4725.65
12205.1,4908.21
12204,4919.26
12201.5,4927.56
12197.4,4935.21
12191.9,4941.92
12185.2,4947.42
12177.6,4951.51
12169.3,4954.03
12158.2,4955.12
11444.1,4955.12
11433.1,4954.03
11424.8,4951.51
11417.1,4947.42
11410.4,4941.92
11404.9,4935.21
11400.9,4927.56
11398.3,4919.26
11397.2,4908.21
11397.2,4725.65
11398.3,4714.6
11400.9,4706.3
11404.9,4698.64
11410.4,4691.94
11417.1,4686.44
11424.8,4682.35
11433.1,4679.83
11444.1,4678.74
12158.2,4678.74
Z" /> 
<path style="fill:#000000; fill-opacity:1.0; 
stroke:#000000; stroke-width:0; stroke-opacity:1; 
stroke-linecap:round; stroke-linejoin:round;fill-rule:evenodd;"
d="M 10220.4,4679.83
10228.7,4682.35
10236.4,4686.44
10243.1,4691.94
10248.6,4698.64
10252.7,4706.3
10255.2,4714.6
10256.3,4725.65
10256.3,4908.21
10255.2,4919.26
10252.7,4927.56
10248.6,4935.21
10243.1,4941.92
10236.4,4947.42
10228.7,4951.51
10220.4,4954.03
10209.4,4955.12
9495.33,4955.12
9484.28,4954.03
9475.98,4951.51
9468.33,4947.42
9461.62,4941.92
9456.12,4935.21
9452.03,4927.56
9449.51,4919.26
9448.43,4908.21
9448.43,4725.65
9449.51,4714.6
9452.03,4706.3
9456.12,4698.64
9461.62,4691.94
9468.33,4686.44
9475.98,4682.35
9484.28,4679.83
9495.33,4678.74
10209.4,4678.74
Z" /> 
<path style="fill:#000000; fill-opacity:1.0; 
stroke:#000000; stroke-width:0; stroke-opacity:1; 
stroke-linecap:round; stroke-linejoin:round;fill-rule:evenodd;"
d="M 5232.09,4400.96
5246.85,4405.44
5260.45,4412.71
5272.38,4422.5
5282.17,4434.43
5289.44,4448.03
5293.92,4462.8
5295.67,4480.57
5295.67,4732.03
5293.92,4749.8
5289.44,4764.56
5282.17,4778.17
5272.38,4790.1
5260.45,4799.89
5246.85,4807.16
5232.09,4811.64
5214.32,4813.39
4923.48,4813.39
4905.71,4811.64
4890.95,4807.16
4877.34,4799.89
4865.41,4790.1
4855.63,4778.17
4848.35,4764.56
4843.88,4749.8
4842.13,4732.03
4842.13,4480.57
4843.88,4462.8
4848.35,4448.03
4855.63,4434.43
4865.41,4422.5
4877.34,4412.71
4890.95,4405.44
4905.71,4400.96
4923.48,4399.21
5214.32,4399.21
Z" /> 
<path style="fill:#000000; fill-opacity:1.0; 
stroke:#000000; stroke-width:0; stroke-opacity:1; 
stroke-linecap:round; stroke-linejoin:round;fill-rule:evenodd;"
d="M 4543.11,4400.96
4557.87,4405.44
4571.48,4412.71
4583.4,4422.5
4593.19,4434.43
4600.46,4448.03
4604.94,4462.8
4606.69,4480.57
4606.69,4732.03
4604.94,4749.8
4600.46,4764.56
4593.19,4778.17
4583.4,4790.1
4571.48,4799.89
4557.87,4807.16
4543.11,4811.64
4525.34,4813.39
4234.5,4813.39
4216.73,4811.64
4201.97,4807.16
4188.36,4799.89
4176.44,4790.1
4166.65,4778.17
4159.38,4764.56
4154.9,4749.8
4153.15,4732.03
4153.15,4480.57
4154.9,4462.8
4159.38,4448.03
4166.65,4434.43
4176.44,4422.5
4188.36,4412.71
4201.97,4405.44
4216.73,4400.96
4234.5,4399.21
4525.34,4399.21
Z" /> 
<path style="fill:#000000; fill-opacity:1.0; 
stroke:#000000; stroke-width:0; stroke-opacity:1; 
stroke-linecap:round; stroke-linejoin:round;fill-rule:evenodd;"
d="M 12169.3,4179.83
12177.6,4182.35
12185.2,4186.44
12191.9,4191.94
12197.4,4198.64
12201.5,4206.3
12204,4214.6
12205.1,4225.65
12205.1,4408.21
12204,4419.26
12201.5,4427.56
12197.4,4435.21
12191.9,4441.92
12185.2,4447.42
12177.6,4451.51
12169.3,4454.03
12158.2,4455.12
11444.1,4455.12
11433.1,4454.03
11424.8,4451.51
11417.1,4447.42
11410.4,4441.92
11404.9,4435.21
11400.9,4427.56
11398.3,4419.26
11397.2,4408.21
11397.2,4225.65
11398.3,4214.6
11400.9,4206.3
11404.9,4198.64
11410.4,4191.94
11417.1,4186.44
11424.8,4182.35
11433.1,4179.83
11444.1,4178.74
12158.2,4178.74
Z" /> 
<path style="fill:#000000; fill-opacity:1.0; 
stroke:#000000; stroke-width:0; stroke-opacity:1; 
stroke-linecap:round; stroke-linejoin:round;fill-rule:evenodd;"
d="M 10220.4,4179.83
10228.7,4182.35
10236.4,4186.44
10243.1,4191.94
10248.6,4198.64
10252.7,4206.3
10255.2,4214.6
10256.3,4225.65
10256.3,4408.21
10255.2,4419.26
10252.7,4427.56
10248.6,4435.21
10243.1,4441.92
10236.4,4447.42
10228.7,4451.51
10220.4,4454.03
10209.4,4455.12
9495.33,4455.12
9484.28,4454.03
9475.98,4451.51
9468.33,4447.42
9461.62,4441.92
9456.12,4435.21
9452.03,4427.56
9449.51,4419.26
9448.43,4408.21
9448.43,4225.65
9449.51,4214.6
9452.03,4206.3
9456.12,4198.64
9461.62,4191.94
9468.33,4186.44
9475.98,4182.35
9484.28,4179.83
9495.33,4178.74
10209.4,4178.74
Z" /> 
<path style="fill:#000000; fill-opacity:1.0; 
stroke:#000000; stroke-width:0; stroke-opacity:1; 
stroke-linecap:round; stroke-linejoin:round;fill-rule:evenodd;"
d="M 8293.11,3977.73
8307.87,3982.21
8321.48,3989.49
8333.4,3999.27
8343.19,4011.2
8350.46,4024.81
8354.94,4039.57
8356.69,4057.34
8356.69,4348.17
8354.94,4365.94
8350.46,4380.71
8343.19,4394.31
8333.4,4406.24
8321.48,4416.03
8307.87,4423.3
8293.11,4427.78
8275.34,4429.53
8023.87,4429.53
8006.1,4427.78
7991.34,4423.3
7977.73,4416.03
7965.81,4406.24
7956.02,4394.31
7948.75,4380.71
7944.27,4365.94
7942.52,4348.17
7942.52,4057.34
7944.27,4039.57
7948.75,4024.81
7956.02,4011.2
7965.81,3999.27
7977.73,3989.49
7991.34,3982.21
8006.1,3977.73
8023.87,3975.98
8275.34,3975.98
Z" /> 
<path style="fill:#000000; fill-opacity:1.0; 
stroke:#000000; stroke-width:0; stroke-opacity:1; 
stroke-linecap:round; stroke-linejoin:round;fill-rule:evenodd;"
d="M 9001.77,3967.89
9016.53,3972.37
9030.14,3979.64
9042.07,3989.43
9051.85,4001.36
9059.13,4014.96
9063.6,4029.72
9065.35,4047.5
9065.35,4338.33
9063.6,4356.1
9059.13,4370.86
9051.85,4384.47
9042.07,4396.4
9030.14,4406.18
9016.53,4413.46
9001.77,4417.94
8984,4419.69
8732.53,4419.69
8714.76,4417.94
8700,4413.46
8686.4,4406.18
8674.47,4396.4
8664.68,4384.47
8657.41,4370.86
8652.93,4356.1
8651.18,4338.33
8651.18,4047.5
8652.93,4029.72
8657.41,4014.96
8664.68,4001.36
8674.47,3989.43
8686.4,3979.64
8700,3972.37
8714.76,3967.89
8732.53,3966.14
8984,3966.14
Z" /> 
<path style="fill:#000000; fill-opacity:1.0; 
stroke:#000000; stroke-width:0; stroke-opacity:1; 
stroke-linecap:round; stroke-linejoin:round;fill-rule:evenodd;"
d="M 5655.31,3741.51
5670.08,3745.99
5683.68,3753.26
5695.61,3763.05
5705.4,3774.98
5712.67,3788.58
5717.15,3803.35
5718.9,3821.12
5718.9,4111.95
5717.15,4129.72
5712.67,4144.49
5705.4,4158.09
5695.61,4170.02
5683.68,4179.81
5670.08,4187.08
5655.31,4191.56
5637.54,4193.31
5386.08,4193.31
5368.31,4191.56
5353.55,4187.08
5339.94,4179.81
5328.01,4170.02
5318.23,4158.09
5310.95,4144.49
5306.47,4129.72
5304.72,4111.95
5304.72,3821.12
5306.47,3803.35
5310.95,3788.58
5318.23,3774.98
5328.01,3763.05
5339.94,3753.26
5353.55,3745.99
5368.31,3741.51
5386.08,3739.76
5637.54,3739.76
Z" /> 
<path style="fill:#000000; fill-opacity:1.0; 
stroke:#000000; stroke-width:0; stroke-opacity:1; 
stroke-linecap:round; stroke-linejoin:round;fill-rule:evenodd;"
d="M 4080.51,3702.14
4095.27,3706.62
4108.88,3713.89
4120.81,3723.68
4130.59,3735.61
4137.87,3749.21
4142.34,3763.98
4144.09,3781.75
4144.09,4072.58
4142.34,4090.35
4137.87,4105.12
4130.59,4118.72
4120.81,4130.65
4108.88,4140.44
4095.27,4147.71
4080.51,4152.19
4062.74,4153.94
3811.27,4153.94
3793.5,4152.19
3778.74,4147.71
3765.14,4140.44
3753.21,4130.65
3743.42,4118.72
3736.15,4105.12
3731.67,4090.35
3729.92,4072.58
3729.92,3781.75
3731.67,3763.98
3736.15,3749.21
3743.42,3735.61
3753.21,3723.68
3765.14,3713.89
3778.74,3706.62
3793.5,3702.14
3811.27,3700.39
4062.74,3700.39
Z" /> 
<path style="fill:#000000; fill-opacity:1.0; 
stroke:#000000; stroke-width:0; stroke-opacity:1; 
stroke-linecap:round; stroke-linejoin:round;fill-rule:evenodd;"
d="M 10220.4,3679.83
10228.7,3682.35
10236.4,3686.44
10243.1,3691.94
10248.6,3698.64
10252.7,3706.3
10255.2,3714.6
10256.3,3725.65
10256.3,3908.21
10255.2,3919.26
10252.7,3927.56
10248.6,3935.21
10243.1,3941.92
10236.4,3947.42
10228.7,3951.51
10220.4,3954.03
10209.4,3955.12
9495.33,3955.12
9484.28,3954.03
9475.98,3951.51
9468.33,3947.42
9461.62,3941.92
9456.12,3935.21
9452.03,3927.56
9449.51,3919.26
9448.43,3908.21
9448.43,3725.65
9449.51,3714.6
9452.03,3706.3
9456.12,3698.64
9461.62,3691.94
9468.33,3686.44
9475.98,3682.35
9484.28,3679.83
9495.33,3678.74
10209.4,3678.74
Z" /> 
<path style="fill:#000000; fill-opacity:1.0; 
stroke:#000000; stroke-width:0; stroke-opacity:1; 
stroke-linecap:round; stroke-linejoin:round;fill-rule:evenodd;"
d="M 12169.3,3679.83
12177.6,3682.35
12185.2,3686.44
12191.9,3691.94
12197.4,3698.64
12201.5,3706.3
12204,3714.6
12205.1,3725.65
12205.1,3908.21
12204,3919.26
12201.5,3927.56
12197.4,3935.21
12191.9,3941.92
12185.2,3947.42
12177.6,3951.51
12169.3,3954.03
12158.2,3955.12
11444.1,3955.12
11433.1,3954.03
11424.8,3951.51
11417.1,3947.42
11410.4,3941.92
11404.9,3935.21
11400.9,3927.56
11398.3,3919.26
11397.2,3908.21
11397.2,3725.65
11398.3,3714.6
11400.9,3706.3
11404.9,3698.64
11410.4,3691.94
11417.1,3686.44
11424.8,3682.35
11433.1,3679.83
11444.1,3678.74
12158.2,3678.74
Z" /> 
<path style="fill:#000000; fill-opacity:1.0; 
stroke:#000000; stroke-width:0; stroke-opacity:1; 
stroke-linecap:round; stroke-linejoin:round;fill-rule:evenodd;"
d="M 7018.16,3641.35
7030.25,3646.36
7036.86,3649.1
7053.69,3660.34
7068,3674.65
7079.25,3691.48
7079.44,3691.94
7087,3710.19
7090.94,3730.04
7090.94,3750.28
7087,3770.13
7084.99,3774.98
7079.25,3788.83
7068,3805.66
7053.69,3819.97
7036.86,3831.22
7030.25,3833.96
7018.16,3838.97
6998.31,3842.91
6978.07,3842.91
6958.22,3838.97
6946.13,3833.96
6939.52,3831.22
6922.69,3819.97
6908.37,3805.66
6897.13,3788.83
6891.39,3774.98
6889.38,3770.13
6885.43,3750.28
6885.43,3730.04
6889.38,3710.19
6896.94,3691.94
6897.13,3691.48
6908.37,3674.65
6922.69,3660.34
6939.52,3649.1
6946.13,3646.36
6958.22,3641.35
6978.07,3637.4
6998.31,3637.4
Z" /> 
<path style="fill:#000000; fill-opacity:1.0; 
stroke:#000000; stroke-width:0; stroke-opacity:1; 
stroke-linecap:round; stroke-linejoin:round;fill-rule:evenodd;"
d="M 8293.11,3288.76
8307.87,3293.24
8321.48,3300.51
8333.4,3310.3
8343.19,3322.22
8350.46,3335.83
8354.94,3350.59
8356.69,3368.36
8356.69,3659.2
8354.94,3676.97
8350.46,3691.73
8343.19,3705.34
8333.4,3717.26
8321.48,3727.05
8307.87,3734.32
8293.11,3738.8
8275.34,3740.55
8023.87,3740.55
8006.1,3738.8
7991.34,3734.32
7977.73,3727.05
7965.81,3717.26
7956.02,3705.34
7948.75,3691.73
7944.27,3676.97
7942.52,3659.2
7942.52,3368.36
7944.27,3350.59
7948.75,3335.83
7956.02,3322.22
7965.81,3310.3
7977.73,3300.51
7991.34,3293.24
8006.1,3288.76
8023.87,3287.01
8275.34,3287.01
Z" /> 
<path style="fill:#000000; fill-opacity:1.0; 
stroke:#000000; stroke-width:0; stroke-opacity:1; 
stroke-linecap:round; stroke-linejoin:round;fill-rule:evenodd;"
d="M 1142.13,3504.33
432.677,3504.33
432.677,2794.88
1142.13,2794.88
Z" /> 
<path style="fill:#000000; fill-opacity:1.0; 
stroke:#000000; stroke-width:0; stroke-opacity:1; 
stroke-linecap:round; stroke-linejoin:round;fill-rule:evenodd;"
d="M 5655.31,3052.54
5670.08,3057.02
5683.68,3064.29
5695.61,3074.08
5705.4,3086
5712.67,3099.61
5717.15,3114.37
5718.9,3132.14
5718.9,3422.98
5717.15,3440.75
5712.67,3455.51
5705.4,3469.12
5695.61,3481.04
5683.68,3490.83
5670.08,3498.1
5655.31,3502.58
5637.54,3504.33
5386.08,3504.33
5368.31,3502.58
5353.55,3498.1
5339.94,3490.83
5328.01,3481.04
5318.23,3469.12
5310.95,3455.51
5306.47,3440.75
5304.72,3422.98
5304.72,3132.14
5306.47,3114.37
5310.95,3099.61
5318.23,3086
5328.01,3074.08
5339.94,3064.29
5353.55,3057.02
5368.31,3052.54
5386.08,3050.79
5637.54,3050.79
Z" /> 
<path style="fill:#000000; fill-opacity:1.0; 
stroke:#000000; stroke-width:0; stroke-opacity:1; 
stroke-linecap:round; stroke-linejoin:round;fill-rule:evenodd;"
d="M 4080.51,3013.17
4095.27,3017.65
4108.88,3024.92
4120.81,3034.71
4130.59,3046.63
4137.87,3060.24
4142.34,3075
4144.09,3092.77
4144.09,3383.61
4142.34,3401.38
4137.87,3416.14
4130.59,3429.75
4120.81,3441.67
4108.88,3451.46
4095.27,3458.73
4080.51,3463.21
4062.74,3464.96
3811.27,3464.96
3793.5,3463.21
3778.74,3458.73
3765.14,3451.46
3753.21,3441.67
3743.42,3429.75
3736.15,3416.14
3731.67,3401.38
3729.92,3383.61
3729.92,3092.77
3731.67,3075
3736.15,3060.24
3743.42,3046.63
3753.21,3034.71
3765.14,3024.92
3778.74,3017.65
3793.5,3013.17
3811.27,3011.42
4062.74,3011.42
Z" /> 
<path style="fill:#000000; fill-opacity:1.0; 
stroke:#000000; stroke-width:0; stroke-opacity:1; 
stroke-linecap:round; stroke-linejoin:round;fill-rule:evenodd;"
d="M 12549.6,3358.66
12332.3,3358.66
12332.3,2727.95
12549.6,2727.95
Z" /> 
<path style="fill:#000000; fill-opacity:1.0; 
stroke:#000000; stroke-width:0; stroke-opacity:1; 
stroke-linecap:round; stroke-linejoin:round;fill-rule:evenodd;"
d="M 13655.3,2521.09
13670.5,2525.71
13684.6,2533.21
13696.9,2543.3
13707,2555.6
13714.5,2569.63
13719.1,2584.86
13720.9,2603.11
13720.9,2859.49
13719.1,2877.74
13714.5,2892.97
13707,2907
13696.9,2919.3
13684.6,2929.39
13670.5,2936.89
13655.3,2941.51
13637.1,2943.31
13213.3,2943.31
13195.1,2941.51
13179.9,2936.89
13165.8,2929.39
13153.5,2919.3
13143.4,2907
13135.9,2892.97
13131.3,2877.74
13129.5,2859.49
13129.5,2603.11
13131.3,2584.86
13135.9,2569.63
13143.4,2555.6
13153.5,2543.3
13165.8,2533.21
13179.9,2525.71
13195.1,2521.09
13213.3,2519.29
13637.1,2519.29
Z" /> 
<path style="fill:#000000; fill-opacity:1.0; 
stroke:#000000; stroke-width:0; stroke-opacity:1; 
stroke-linecap:round; stroke-linejoin:round;fill-rule:evenodd;"
d="M 10379.7,2442.3
10394.5,2446.78
10408.1,2454.05
10420,2463.84
10429.8,2475.77
10437.1,2489.37
10441.6,2504.13
10443.3,2521.9
10443.3,2812.74
10441.6,2830.51
10437.1,2845.27
10429.8,2858.88
10420,2870.81
10408.1,2880.59
10394.5,2887.87
10379.7,2892.34
10362,2894.09
10110.5,2894.09
10092.7,2892.34
10078,2887.87
10064.3,2880.59
10052.4,2870.81
10042.6,2858.88
10035.4,2845.27
10030.9,2830.51
10029.1,2812.74
10029.1,2521.9
10030.9,2504.13
10035.4,2489.37
10042.6,2475.77
10052.4,2463.84
10064.3,2454.05
10078,2446.78
10092.7,2442.3
10110.5,2440.55
10362,2440.55
Z" /> 
<path style="fill:#000000; fill-opacity:1.0; 
stroke:#000000; stroke-width:0; stroke-opacity:1; 
stroke-linecap:round; stroke-linejoin:round;fill-rule:evenodd;"
d="M 8411.22,2442.3
8425.98,2446.78
8439.59,2454.05
8451.51,2463.84
8461.3,2475.77
8468.57,2489.37
8473.05,2504.13
8474.8,2521.9
8474.8,2812.74
8473.05,2830.51
8468.57,2845.27
8461.3,2858.88
8451.51,2870.81
8439.59,2880.59
8425.98,2887.87
8411.22,2892.34
8393.45,2894.09
8141.98,2894.09
8124.21,2892.34
8109.45,2887.87
8095.84,2880.59
8083.92,2870.81
8074.13,2858.88
8066.86,2845.27
8062.38,2830.51
8060.63,2812.74
8060.63,2521.9
8062.38,2504.13
8066.86,2489.37
8074.13,2475.77
8083.92,2463.84
8095.84,2454.05
8109.45,2446.78
8124.21,2442.3
8141.98,2440.55
8393.45,2440.55
Z" /> 
<path style="fill:#000000; fill-opacity:1.0; 
stroke:#000000; stroke-width:0; stroke-opacity:1; 
stroke-linecap:round; stroke-linejoin:round;fill-rule:evenodd;"
d="M 6440.92,2331.4
6449.22,2333.92
6456.87,2338.01
6463.57,2343.51
6469.08,2350.22
6473.17,2357.87
6475.68,2366.17
6476.77,2377.22
6476.77,2559.79
6475.68,2570.84
6473.17,2579.14
6469.08,2586.79
6463.57,2593.49
6456.87,2599
6449.22,2603.09
6440.92,2605.6
6429.87,2606.69
5853.6,2606.69
5842.55,2605.6
5834.25,2603.09
5826.6,2599
5819.89,2593.49
5814.39,2586.79
5810.3,2579.14
5807.78,2570.84
5806.69,2559.79
5806.69,2377.22
5807.78,2366.17
5810.3,2357.87
5814.39,2350.22
5819.89,2343.51
5826.6,2338.01
5834.25,2333.92
5842.55,2331.4
5853.6,2330.31
6429.87,2330.31
Z" /> 
<path style="fill:#000000; fill-opacity:1.0; 
stroke:#000000; stroke-width:0; stroke-opacity:1; 
stroke-linecap:round; stroke-linejoin:round;fill-rule:evenodd;"
d="M 3606.27,2331.4
3614.57,2333.92
3622.22,2338.01
3628.93,2343.51
3634.43,2350.22
3638.52,2357.87
3641.04,2366.17
3642.13,2377.22
3642.13,2559.79
3641.04,2570.84
3638.52,2579.14
3634.43,2586.79
3628.93,2593.49
3622.22,2599
3614.57,2603.09
3606.27,2605.6
3595.22,2606.69
3018.95,2606.69
3007.9,2605.6
2999.6,2603.09
2991.95,2599
2985.25,2593.49
2979.74,2586.79
2975.65,2579.14
2973.14,2570.84
2972.05,2559.79
2972.05,2377.22
2973.14,2366.17
2975.65,2357.87
2979.74,2350.22
2985.25,2343.51
2991.95,2338.01
2999.6,2333.92
3007.9,2331.4
3018.95,2330.31
3595.22,2330.31
Z" /> 
<path style="fill:#000000; fill-opacity:1.0; 
stroke:#000000; stroke-width:0; stroke-opacity:1; 
stroke-linecap:round; stroke-linejoin:round;fill-rule:evenodd;"
d="M 12805.5,2311.42
12588.2,2311.42
12588.2,1680.71
12805.5,1680.71
Z" /> 
<path style="fill:#000000; fill-opacity:1.0; 
stroke:#000000; stroke-width:0; stroke-opacity:1; 
stroke-linecap:round; stroke-linejoin:round;fill-rule:evenodd;"
d="M 12293.7,2311.42
12076.4,2311.42
12076.4,1680.71
12293.7,1680.71
Z" /> 
<path style="fill:#000000; fill-opacity:1.0; 
stroke:#000000; stroke-width:0; stroke-opacity:1; 
stroke-linecap:round; stroke-linejoin:round;fill-rule:evenodd;"
d="M 13655.3,1782.9
13670.5,1787.52
13684.6,1795.02
13696.9,1805.11
13707,1817.41
13714.5,1831.44
13719.1,1846.67
13720.9,1864.92
13720.9,2121.3
13719.1,2139.55
13714.5,2154.78
13707,2168.81
13696.9,2181.11
13684.6,2191.2
13670.5,2198.7
13655.3,2203.32
13637.1,2205.12
13213.3,2205.12
13195.1,2203.32
13179.9,2198.7
13165.8,2191.2
13153.5,2181.11
13143.4,2168.81
13135.9,2154.78
13131.3,2139.55
13129.5,2121.3
13129.5,1864.92
13131.3,1846.67
13135.9,1831.44
13143.4,1817.41
13153.5,1805.11
13165.8,1795.02
13179.9,1787.52
13195.1,1782.9
13213.3,1781.1
13637.1,1781.1
Z" /> 
<path style="fill:#000000; fill-opacity:1.0; 
stroke:#000000; stroke-width:0; stroke-opacity:1; 
stroke-linecap:round; stroke-linejoin:round;fill-rule:evenodd;"
d="M 10379.7,1753.32
10394.5,1757.8
10408.1,1765.08
10420,1774.86
10429.8,1786.79
10437.1,1800.4
10441.6,1815.16
10443.3,1832.93
10443.3,2123.76
10441.6,2141.54
10437.1,2156.3
10429.8,2169.9
10420,2181.83
10408.1,2191.62
10394.5,2198.89
10379.7,2203.37
10362,2205.12
10110.5,2205.12
10092.7,2203.37
10078,2198.89
10064.3,2191.62
10052.4,2181.83
10042.6,2169.9
10035.4,2156.3
10030.9,2141.54
10029.1,2123.76
10029.1,1832.93
10030.9,1815.16
10035.4,1800.4
10042.6,1786.79
10052.4,1774.86
10064.3,1765.08
10078,1757.8
10092.7,1753.32
10110.5,1751.57
10362,1751.57
Z" /> 
<path style="fill:#000000; fill-opacity:1.0; 
stroke:#000000; stroke-width:0; stroke-opacity:1; 
stroke-linecap:round; stroke-linejoin:round;fill-rule:evenodd;"
d="M 8411.22,1753.32
8425.98,1757.8
8439.59,1765.08
8451.51,1774.86
8461.3,1786.79
8468.57,1800.4
8473.05,1815.16
8474.8,1832.93
8474.8,2123.76
8473.05,2141.54
8468.57,2156.3
8461.3,2169.9
8451.51,2181.83
8439.59,2191.62
8425.98,2198.89
8411.22,2203.37
8393.45,2205.12
8141.98,2205.12
8124.21,2203.37
8109.45,2198.89
8095.84,2191.62
8083.92,2181.83
8074.13,2169.9
8066.86,2156.3
8062.38,2141.54
8060.63,2123.76
8060.63,1832.93
8062.38,1815.16
8066.86,1800.4
8074.13,1786.79
8083.92,1774.86
8095.84,1765.08
8109.45,1757.8
8124.21,1753.32
8141.98,1751.57
8393.45,1751.57
Z" /> 
<path style="fill:#000000; fill-opacity:1.0; 
stroke:#000000; stroke-width:0; stroke-opacity:1; 
stroke-linecap:round; stroke-linejoin:round;fill-rule:evenodd;"
d="M 11728.1,1763.17
11742.9,1767.65
11756.5,1774.92
11768.4,1784.71
11778.2,1796.63
11785.5,1810.24
11790,1825
11791.7,1842.77
11791.7,2094.24
11790,2112.01
11785.5,2126.77
11778.2,2140.38
11768.4,2152.3
11756.5,2162.09
11742.9,2169.36
11728.1,2173.84
11710.4,2175.59
11419.5,2175.59
11401.8,2173.84
11387,2169.36
11373.4,2162.09
11361.5,2152.3
11351.7,2140.38
11344.4,2126.77
11339.9,2112.01
11338.2,2094.24
11338.2,1842.77
11339.9,1825
11344.4,1810.24
11351.7,1796.63
11361.5,1784.71
11373.4,1774.92
11387,1767.65
11401.8,1763.17
11419.5,1761.42
11710.4,1761.42
Z" /> 
<path style="fill:#000000; fill-opacity:1.0; 
stroke:#000000; stroke-width:0; stroke-opacity:1; 
stroke-linecap:round; stroke-linejoin:round;fill-rule:evenodd;"
d="M 11039.2,1763.17
11053.9,1767.65
11067.5,1774.92
11079.5,1784.71
11089.3,1796.63
11096.5,1810.24
11101,1825
11102.8,1842.77
11102.8,2094.24
11101,2112.01
11096.5,2126.77
11089.3,2140.38
11079.5,2152.3
11067.5,2162.09
11053.9,2169.36
11039.2,2173.84
11021.4,2175.59
10730.6,2175.59
10712.8,2173.84
10698,2169.36
10684.4,2162.09
10672.5,2152.3
10662.7,2140.38
10655.4,2126.77
10651,2112.01
10649.2,2094.24
10649.2,1842.77
10651,1825
10655.4,1810.24
10662.7,1796.63
10672.5,1784.71
10684.4,1774.92
10698,1767.65
10712.8,1763.17
10730.6,1761.42
11021.4,1761.42
Z" /> 
<path style="fill:#000000; fill-opacity:1.0; 
stroke:#000000; stroke-width:0; stroke-opacity:1; 
stroke-linecap:round; stroke-linejoin:round;fill-rule:evenodd;"
d="M 7791.14,1763.17
7805.9,1767.65
7819.51,1774.92
7831.44,1784.71
7841.22,1796.63
7848.5,1810.24
7852.97,1825
7854.72,1842.77
7854.72,2094.24
7852.97,2112.01
7848.5,2126.77
7841.22,2140.38
7831.44,2152.3
7819.51,2162.09
7805.9,2169.36
7791.14,2173.84
7773.37,2175.59
7482.53,2175.59
7464.76,2173.84
7450,2169.36
7436.4,2162.09
7424.47,2152.3
7414.68,2140.38
7407.41,2126.77
7402.93,2112.01
7401.18,2094.24
7401.18,1842.77
7402.93,1825
7407.41,1810.24
7414.68,1796.63
7424.47,1784.71
7436.4,1774.92
7450,1767.65
7464.76,1763.17
7482.53,1761.42
7773.37,1761.42
Z" /> 
<path style="fill:#000000; fill-opacity:1.0; 
stroke:#000000; stroke-width:0; stroke-opacity:1; 
stroke-linecap:round; stroke-linejoin:round;fill-rule:evenodd;"
d="M 9759.65,1763.17
9774.41,1767.65
9788.01,1774.92
9799.94,1784.71
9809.73,1796.63
9817,1810.24
9821.48,1825
9823.23,1842.77
9823.23,2094.24
9821.48,2112.01
9817,2126.77
9809.73,2140.38
9799.94,2152.3
9788.01,2162.09
9774.41,2169.36
9759.65,2173.84
9741.87,2175.59
9451.04,2175.59
9433.27,2173.84
9418.51,2169.36
9404.9,2162.09
9392.97,2152.3
9383.19,2140.38
9375.91,2126.77
9371.44,2112.01
9369.69,2094.24
9369.69,1842.77
9371.44,1825
9375.91,1810.24
9383.19,1796.63
9392.97,1784.71
9404.9,1774.92
9418.51,1767.65
9433.27,1763.17
9451.04,1761.42
9741.87,1761.42
Z" /> 
<path style="fill:#000000; fill-opacity:1.0; 
stroke:#000000; stroke-width:0; stroke-opacity:1; 
stroke-linecap:round; stroke-linejoin:round;fill-rule:evenodd;"
d="M 9070.67,1763.17
9085.43,1767.65
9099.04,1774.92
9110.96,1784.71
9120.75,1796.63
9128.02,1810.24
9132.5,1825
9134.25,1842.77
9134.25,2094.24
9132.5,2112.01
9128.02,2126.77
9120.75,2140.38
9110.96,2152.3
9099.04,2162.09
9085.43,2169.36
9070.67,2173.84
9052.9,2175.59
8762.06,2175.59
8744.29,2173.84
8729.53,2169.36
8715.92,2162.09
8704,2152.3
8694.21,2140.38
8686.94,2126.77
8682.46,2112.01
8680.71,2094.24
8680.71,1842.77
8682.46,1825
8686.94,1810.24
8694.21,1796.63
8704,1784.71
8715.92,1774.92
8729.53,1767.65
8744.29,1763.17
8762.06,1761.42
9052.9,1761.42
Z" /> 
<path style="fill:#000000; fill-opacity:1.0; 
stroke:#000000; stroke-width:0; stroke-opacity:1; 
stroke-linecap:round; stroke-linejoin:round;fill-rule:evenodd;"
d="M 7102.16,1763.17
7116.93,1767.65
7130.53,1774.92
7142.46,1784.71
7152.25,1796.63
7159.52,1810.24
7164,1825
7165.75,1842.77
7165.75,2094.24
7164,2112.01
7159.52,2126.77
7152.25,2140.38
7142.46,2152.3
7130.53,2162.09
7116.93,2169.36
7102.16,2173.84
7084.39,2175.59
6793.56,2175.59
6775.79,2173.84
6761.03,2169.36
6747.42,2162.09
6735.49,2152.3
6725.71,2140.38
6718.43,2126.77
6713.95,2112.01
6712.2,2094.24
6712.2,1842.77
6713.95,1825
6718.43,1810.24
6725.71,1796.63
6735.49,1784.71
6747.42,1774.92
6761.03,1767.65
6775.79,1763.17
6793.56,1761.42
7084.39,1761.42
Z" /> 
<path style="fill:#000000; fill-opacity:1.0; 
stroke:#000000; stroke-width:0; stroke-opacity:1; 
stroke-linecap:round; stroke-linejoin:round;fill-rule:evenodd;"
d="M 6440.92,1831.4
6449.22,1833.92
6456.87,1838.01
6463.57,1843.51
6469.08,1850.22
6473.17,1857.87
6475.68,1866.17
6476.77,1877.22
6476.77,2059.79
6475.68,2070.84
6473.17,2079.14
6469.08,2086.79
6463.57,2093.49
6456.87,2099
6449.22,2103.09
6440.92,2105.6
6429.87,2106.69
5853.6,2106.69
5842.55,2105.6
5834.25,2103.09
5826.6,2099
5819.89,2093.49
5814.39,2086.79
5810.3,2079.14
5807.78,2070.84
5806.69,2059.79
5806.69,1877.22
5807.78,1866.17
5810.3,1857.87
5814.39,1850.22
5819.89,1843.51
5826.6,1838.01
5834.25,1833.92
5842.55,1831.4
5853.6,1830.31
6429.87,1830.31
Z" /> 
<path style="fill:#000000; fill-opacity:1.0; 
stroke:#000000; stroke-width:0; stroke-opacity:1; 
stroke-linecap:round; stroke-linejoin:round;fill-rule:evenodd;"
d="M 3606.27,1831.4
3614.57,1833.92
3622.22,1838.01
3628.93,1843.51
3634.43,1850.22
3638.52,1857.87
3641.04,1866.17
3642.13,1877.22
3642.13,2059.79
3641.04,2070.84
3638.52,2079.14
3634.43,2086.79
3628.93,2093.49
3622.22,2099
3614.57,2103.09
3606.27,2105.6
3595.22,2106.69
3018.95,2106.69
3007.9,2105.6
2999.6,2103.09
2991.95,2099
2985.25,2093.49
2979.74,2086.79
2975.65,2079.14
2973.14,2070.84
2972.05,2059.79
2972.05,1877.22
2973.14,1866.17
2975.65,1857.87
2979.74,1850.22
2985.25,1843.51
2991.95,1838.01
2999.6,1833.92
3007.9,1831.4
3018.95,1830.31
3595.22,1830.31
Z" /> 
<path style="fill:#000000; fill-opacity:1.0; 
stroke:#000000; stroke-width:0; stroke-opacity:1; 
stroke-linecap:round; stroke-linejoin:round;fill-rule:evenodd;"
d="M 1142.13,2087.01
432.677,2087.01
432.677,1377.56
1142.13,1377.56
Z" /> 
<path style="fill:#000000; fill-opacity:1.0; 
stroke:#000000; stroke-width:0; stroke-opacity:1; 
stroke-linecap:round; stroke-linejoin:round;fill-rule:evenodd;"
d="M 1984.05,1408.84
1998.82,1413.31
2012.42,1420.59
2024.35,1430.38
2034.14,1442.3
2041.41,1455.91
2045.89,1470.67
2047.64,1488.44
2047.64,1739.91
2045.89,1757.68
2041.41,1772.44
2034.14,1786.04
2024.35,1797.97
2012.42,1807.76
1998.82,1815.03
1984.05,1819.51
1966.28,1821.26
1675.45,1821.26
1657.68,1819.51
1642.92,1815.03
1629.31,1807.76
1617.38,1797.97
1607.6,1786.04
1600.32,1772.44
1595.84,1757.68
1594.09,1739.91
1594.09,1488.44
1595.84,1470.67
1600.32,1455.91
1607.6,1442.3
1617.38,1430.38
1629.31,1420.59
1642.92,1413.31
1657.68,1408.84
1675.45,1407.09
1966.28,1407.09
Z" /> 
<path style="fill:#000000; fill-opacity:1.0; 
stroke:#000000; stroke-width:0; stroke-opacity:1; 
stroke-linecap:round; stroke-linejoin:round;fill-rule:evenodd;"
d="M 2673.03,1408.84
2687.79,1413.31
2701.4,1420.59
2713.33,1430.38
2723.11,1442.3
2730.39,1455.91
2734.86,1470.67
2736.61,1488.44
2736.61,1739.91
2734.86,1757.68
2730.39,1772.44
2723.11,1786.04
2713.33,1797.97
2701.4,1807.76
2687.79,1815.03
2673.03,1819.51
2655.26,1821.26
2364.42,1821.26
2346.65,1819.51
2331.89,1815.03
2318.29,1807.76
2306.36,1797.97
2296.57,1786.04
2289.3,1772.44
2284.82,1757.68
2283.07,1739.91
2283.07,1488.44
2284.82,1470.67
2289.3,1455.91
2296.57,1442.3
2306.36,1430.38
2318.29,1420.59
2331.89,1413.31
2346.65,1408.84
2364.42,1407.09
2655.26,1407.09
Z" /> 
<path style="fill:#000000; fill-opacity:1.0; 
stroke:#000000; stroke-width:0; stroke-opacity:1; 
stroke-linecap:round; stroke-linejoin:round;fill-rule:evenodd;"
d="M 6440.92,1331.4
6449.22,1333.92
6456.87,1338.01
6463.57,1343.51
6469.08,1350.22
6473.17,1357.87
6475.68,1366.17
6476.77,1377.22
6476.77,1559.79
6475.68,1570.84
6473.17,1579.14
6469.08,1586.79
6463.57,1593.49
6456.87,1599
6449.22,1603.09
6440.92,1605.6
6429.87,1606.69
5853.6,1606.69
5842.55,1605.6
5834.25,1603.09
5826.6,1599
5819.89,1593.49
5814.39,1586.79
5810.3,1579.14
5807.78,1570.84
5806.69,1559.79
5806.69,1377.22
5807.78,1366.17
5810.3,1357.87
5814.39,1350.22
5819.89,1343.51
5826.6,1338.01
5834.25,1333.92
5842.55,1331.4
5853.6,1330.31
6429.87,1330.31
Z" /> 
<path style="fill:#000000; fill-opacity:1.0; 
stroke:#000000; stroke-width:0; stroke-opacity:1; 
stroke-linecap:round; stroke-linejoin:round;fill-rule:evenodd;"
d="M 3606.27,1331.4
3614.57,1333.92
3622.22,1338.01
3628.93,1343.51
3634.43,1350.22
3638.52,1357.87
3641.04,1366.17
3642.13,1377.22
3642.13,1559.79
3641.04,1570.84
3638.52,1579.14
3634.43,1586.79
3628.93,1593.49
3622.22,1599
3614.57,1603.09
3606.27,1605.6
3595.22,1606.69
3018.95,1606.69
3007.9,1605.6
2999.6,1603.09
2991.95,1599
2985.25,1593.49
2979.74,1586.79
2975.65,1579.14
2973.14,1570.84
2972.05,1559.79
2972.05,1377.22
2973.14,1366.17
2975.65,1357.87
2979.74,1350.22
2985.25,1343.51
2991.95,1338.01
2999.6,1333.92
3007.9,1331.4
3018.95,1330.31
3595.22,1330.31
Z" /> 
<path style="fill:#000000; fill-opacity:1.0; 
stroke:#000000; stroke-width:0; stroke-opacity:1; 
stroke-linecap:round; stroke-linejoin:round;fill-rule:evenodd;"
d="M 8165.75,1338.98
7456.3,1338.98
7456.3,629.528
8165.75,629.528
Z" /> 
<path style="fill:#000000; fill-opacity:1.0; 
stroke:#000000; stroke-width:0; stroke-opacity:1; 
stroke-linecap:round; stroke-linejoin:round;fill-rule:evenodd;"
d="M 11855.7,631.467
11914.5,643.159
11979,669.899
12037.1,708.719
12086.6,758.128
12125.4,816.227
12152.1,880.783
12165.7,949.315
12165.7,1019.19
12152.1,1087.72
12125.4,1152.28
12086.6,1210.38
12037.1,1259.78
11979,1298.6
11914.5,1325.34
11863.1,1335.57
11846,1338.98
11776.1,1338.98
11759,1335.57
11707.6,1325.34
11643,1298.6
11584.9,1259.78
11535.5,1210.38
11496.7,1152.28
11469.9,1087.72
11456.3,1019.19
11456.3,949.315
11469.9,880.783
11496.7,816.227
11535.5,758.128
11584.9,708.719
11643,669.899
11707.6,643.159
11766.3,631.467
11776.1,629.528
11846,629.528
Z" /> 
<path style="fill:#000000; fill-opacity:1.0; 
stroke:#000000; stroke-width:0; stroke-opacity:1; 
stroke-linecap:round; stroke-linejoin:round;fill-rule:evenodd;"
d="M 10855.7,631.467
10914.5,643.159
10979,669.899
11037.1,708.719
11086.6,758.128
11125.4,816.227
11152.1,880.783
11165.7,949.315
11165.7,1019.19
11152.1,1087.72
11125.4,1152.28
11086.6,1210.38
11037.1,1259.78
10979,1298.6
10914.5,1325.34
10863.1,1335.57
10846,1338.98
10776.1,1338.98
10759,1335.57
10707.6,1325.34
10643,1298.6
10584.9,1259.78
10535.5,1210.38
10496.7,1152.28
10469.9,1087.72
10456.3,1019.19
10456.3,949.315
10469.9,880.783
10496.7,816.227
10535.5,758.128
10584.9,708.719
10643,669.899
10707.6,643.159
10766.3,631.467
10776.1,629.528
10846,629.528
Z" /> 
<path style="fill:#000000; fill-opacity:1.0; 
stroke:#000000; stroke-width:0; stroke-opacity:1; 
stroke-linecap:round; stroke-linejoin:round;fill-rule:evenodd;"
d="M 9855.71,631.467
9914.49,643.159
9979.05,669.899
10037.1,708.719
10086.6,758.128
10125.4,816.227
10152.1,880.783
10165.7,949.315
10165.7,1019.19
10152.1,1087.72
10125.4,1152.28
10086.6,1210.38
10037.1,1259.78
9979.05,1298.6
9914.49,1325.34
9863.06,1335.57
9845.96,1338.98
9776.09,1338.98
9758.98,1335.57
9707.55,1325.34
9643,1298.6
9584.9,1259.78
9535.49,1210.38
9496.67,1152.28
9469.93,1087.72
9456.3,1019.19
9456.3,949.315
9469.93,880.783
9496.67,816.227
9535.49,758.128
9584.9,708.719
9643,669.899
9707.55,643.159
9766.33,631.467
9776.09,629.528
9845.96,629.528
Z" /> 
<path style="fill:#000000; fill-opacity:1.0; 
stroke:#000000; stroke-width:0; stroke-opacity:1; 
stroke-linecap:round; stroke-linejoin:round;fill-rule:evenodd;"
d="M 8855.71,631.467
8914.49,643.159
8979.05,669.899
9037.15,708.719
9086.56,758.128
9125.38,816.227
9152.12,880.783
9165.75,949.315
9165.75,1019.19
9152.12,1087.72
9125.38,1152.28
9086.56,1210.38
9037.15,1259.78
8979.05,1298.6
8914.49,1325.34
8863.06,1335.57
8845.96,1338.98
8776.09,1338.98
8758.98,1335.57
8707.55,1325.34
8643,1298.6
8584.9,1259.78
8535.49,1210.38
8496.67,1152.28
8469.93,1087.72
8456.3,1019.19
8456.3,949.315
8469.93,880.783
8496.67,816.227
8535.49,758.128
8584.9,708.719
8643,669.899
8707.55,643.159
8766.33,631.467
8776.09,629.528
8845.96,629.528
Z" /> 
<path style="fill:#000000; fill-opacity:1.0; 
stroke:#000000; stroke-width:0; stroke-opacity:1; 
stroke-linecap:round; stroke-linejoin:round;fill-rule:evenodd;"
d="M 3606.27,831.403
3614.57,833.921
3622.22,838.011
3628.93,843.513
3634.43,850.219
3638.52,857.87
3641.04,866.17
3642.13,877.22
3642.13,1059.79
3641.04,1070.84
3638.52,1079.14
3634.43,1086.79
3628.93,1093.49
3622.22,1099
3614.57,1103.09
3606.27,1105.6
3595.22,1106.69
3018.95,1106.69
3007.9,1105.6
2999.6,1103.09
2991.95,1099
2985.25,1093.49
2979.74,1086.79
2975.65,1079.14
2973.14,1070.84
2972.05,1059.79
2972.05,877.22
2973.14,866.17
2975.65,857.87
2979.74,850.219
2985.25,843.513
2991.95,838.011
2999.6,833.921
3007.9,831.403
3018.95,830.315
3595.22,830.315
Z" /> 
<path style="fill:#000000; fill-opacity:1.0; 
stroke:#000000; stroke-width:0; stroke-opacity:1; 
stroke-linecap:round; stroke-linejoin:round;fill-rule:evenodd;"
d="M 6440.92,831.403
6449.22,833.921
6456.87,838.011
6463.57,843.513
6469.08,850.219
6473.17,857.87
6475.68,866.17
6476.77,877.22
6476.77,1059.79
6475.68,1070.84
6473.17,1079.14
6469.08,1086.79
6463.57,1093.49
6456.87,1099
6449.22,1103.09
6440.92,1105.6
6429.87,1106.69
5853.6,1106.69
5842.55,1105.6
5834.25,1103.09
5826.6,1099
5819.89,1093.49
5814.39,1086.79
5810.3,1079.14
5807.78,1070.84
5806.69,1059.79
5806.69,877.22
5807.78,866.17
5810.3,857.87
5814.39,850.219
5819.89,843.513
5826.6,838.011
5834.25,833.921
5842.55,831.403
5853.6,830.315
6429.87,830.315
Z" /> 
<path style="fill:#000000; fill-opacity:1.0; 
stroke:#000000; stroke-width:0; stroke-opacity:1; 
stroke-linecap:round; stroke-linejoin:round;fill-rule:evenodd;"
d="M 832.091,379.499
890.871,391.191
955.427,417.931
1013.53,456.751
1062.93,506.16
1101.75,564.258
1128.49,628.814
1142.13,697.346
1142.13,767.221
1128.49,835.753
1101.75,900.309
1062.93,958.407
1013.53,1007.82
955.427,1046.64
890.871,1073.38
832.091,1085.07
822.339,1087.01
752.464,1087.01
742.712,1085.07
683.932,1073.38
619.376,1046.64
561.278,1007.82
511.869,958.407
473.049,900.309
446.309,835.753
432.677,767.221
432.677,697.346
446.309,628.814
473.049,564.258
511.869,506.16
561.278,456.751
619.376,417.931
683.932,391.191
742.712,379.499
752.464,377.559
822.339,377.559
Z" /> 
<path style="fill:#000000; fill-opacity:1.0; 
stroke:#000000; stroke-width:0; stroke-opacity:1; 
stroke-linecap:round; stroke-linejoin:round;fill-rule:evenodd;"
d="M 1984.05,621.435
1998.82,625.913
2012.42,633.186
2024.35,642.974
2034.14,654.9
2041.41,668.506
2045.89,683.268
2047.64,701.039
2047.64,952.505
2045.89,970.275
2041.41,985.037
2034.14,998.643
2024.35,1010.57
2012.42,1020.36
1998.82,1027.63
1984.05,1032.11
1966.28,1033.86
1675.45,1033.86
1657.68,1032.11
1642.92,1027.63
1629.31,1020.36
1617.38,1010.57
1607.6,998.643
1600.32,985.037
1595.84,970.275
1594.09,952.505
1594.09,701.039
1595.84,683.268
1600.32,668.506
1607.6,654.9
1617.38,642.974
1629.31,633.186
1642.92,625.913
1657.68,621.435
1675.45,619.685
1966.28,619.685
Z" /> 
<path style="fill:#000000; fill-opacity:1.0; 
stroke:#000000; stroke-width:0; stroke-opacity:1; 
stroke-linecap:round; stroke-linejoin:round;fill-rule:evenodd;"
d="M 2673.03,621.435
2687.79,625.913
2701.4,633.186
2713.33,642.974
2723.11,654.9
2730.39,668.506
2734.86,683.268
2736.61,701.039
2736.61,952.505
2734.86,970.275
2730.39,985.037
2723.11,998.643
2713.33,1010.57
2701.4,1020.36
2687.79,1027.63
2673.03,1032.11
2655.26,1033.86
2364.42,1033.86
2346.65,1032.11
2331.89,1027.63
2318.29,1020.36
2306.36,1010.57
2296.57,998.643
2289.3,985.037
2284.82,970.275
2283.07,952.505
2283.07,701.039
2284.82,683.268
2289.3,668.506
2296.57,654.9
2306.36,642.974
2318.29,633.186
2331.89,625.913
2346.65,621.435
2364.42,619.685
2655.26,619.685
Z" /> 
</g> 
</svg>
