<?xml version="1.0" standalone="no"?>
 <!DOCTYPE svg PUBLIC "-//W3C//DTD SVG 1.1//EN" 
 "http://www.w3.org/Graphics/SVG/1.1/DTD/svg11.dtd"> 
<svg xmlns="http://www.w3.org/2000/svg" version="1.1" 
    width="29.7002cm" height="21.0007cm" viewBox="0 0 116930 82680 ">
<title>SVG Picture created as Heterodyne-F_SilkS.svg date 2020/02/21 16:22:14 </title>
  <desc>Picture generated by PCBNEW </desc>
<g style="fill:#000000; fill-opacity:1;stroke:#000000; stroke-opacity:1;
stroke-linecap:round; stroke-linejoin:round; "
 transform="translate(0 0) scale(1 1)">
</g>
<g style="fill:#000000; fill-opacity:0.0; 
stroke:#000000; stroke-width:-0.000393701; stroke-opacity:1; 
stroke-linecap:round; stroke-linejoin:round;">
</g>
<g style="fill:#000000; fill-opacity:0.0; 
stroke:#000000; stroke-width:78.7402; stroke-opacity:1; 
stroke-linecap:round; stroke-linejoin:round;">
<g transform="rotate(-90 708.661 7125.98)">
<text x="708.661" y="7322.83"
textLength="1802.59" font-size="524.934" lengthAdjust="spacingAndGlyphs"
text-anchor="start" opacity="0">BoSL </text>
</g>
<path d="M680 6849
L699 6793
L718 6774
L755 6756
L811 6756
L849 6774
L868 6793
L886 6831
L886 6981
L493 6981
L493 6849
L511 6812
L530 6793
L568 6774
L605 6774
L643 6793
L661 6812
L680 6849
L680 6981
" />
<path d="M886 6531
L868 6568
L849 6587
L811 6606
L699 6606
L661 6587
L643 6568
L624 6531
L624 6474
L643 6437
L661 6418
L699 6399
L811 6399
L849 6418
L868 6437
L886 6474
L886 6531
" />
<path d="M868 6249
L886 6193
L886 6099
L868 6062
L849 6043
L811 6024
L774 6024
L736 6043
L718 6062
L699 6099
L680 6174
L661 6212
L643 6231
L605 6249
L568 6249
L530 6231
L511 6212
L493 6174
L493 6081
L511 6024
" />
<path d="M886 5668
L886 5856
L493 5856
" />
<g transform="rotate(-90 1377.95 7125.98)">
<text x="1377.95" y="7322.83"
textLength="2389.58" font-size="524.934" lengthAdjust="spacingAndGlyphs"
text-anchor="start" opacity="0">Velocity</text>
</g>
<path d="M1162 7037
L1556 6906
L1162 6774
" />
<path d="M1537 6493
L1556 6531
L1556 6606
L1537 6643
L1499 6662
L1349 6662
L1312 6643
L1293 6606
L1293 6531
L1312 6493
L1349 6474
L1387 6474
L1424 6662
" />
<path d="M1556 6249
L1537 6287
L1499 6306
L1162 6306
" />
<path d="M1556 6043
L1537 6081
L1518 6099
L1481 6118
L1368 6118
L1331 6099
L1312 6081
L1293 6043
L1293 5987
L1312 5949
L1331 5931
L1368 5912
L1481 5912
L1518 5931
L1537 5949
L1556 5987
L1556 6043
" />
<path d="M1537 5574
L1556 5612
L1556 5687
L1537 5724
L1518 5743
L1481 5762
L1368 5762
L1331 5743
L1312 5724
L1293 5687
L1293 5612
L1312 5574
" />
<path d="M1556 5406
L1293 5406
" />
<path d="M1162 5406
L1181 5425
L1199 5406
L1181 5387
L1162 5406
L1199 5406
" />
<path d="M1293 5275
L1293 5125
" />
<path d="M1162 5218
L1499 5218
L1537 5200
L1556 5162
L1556 5125
" />
<path d="M1293 5031
L1556 4937
" />
<path d="M1293 4843
L1556 4937
L1649 4975
L1668 4993
L1687 5031
" />
<g transform="rotate(-90 2047.24 7125.98)">
<text x="2047.24" y="7322.83"
textLength="2220.85" font-size="524.934" lengthAdjust="spacingAndGlyphs"
text-anchor="start" opacity="0">rev 0.1</text>
</g>
<path d="M2225 6981
L1962 6981
" />
<path d="M2037 6981
L2000 6962
L1981 6943
L1962 6906
L1962 6868
" />
<path d="M2206 6587
L2225 6624
L2225 6699
L2206 6737
L2169 6756
L2019 6756
L1981 6737
L1962 6699
L1962 6624
L1981 6587
L2019 6568
L2056 6568
L2094 6756
" />
<path d="M1962 6437
L2225 6343
L1962 6249
" />
<path d="M1831 5724
L1831 5687
L1850 5649
L1869 5631
L1906 5612
L1981 5593
L2075 5593
L2150 5612
L2187 5631
L2206 5649
L2225 5687
L2225 5724
L2206 5762
L2187 5781
L2150 5799
L2075 5818
L1981 5818
L1906 5799
L1869 5781
L1850 5762
L1831 5724
" />
<path d="M2187 5425
L2206 5406
L2225 5425
L2206 5443
L2187 5425
L2225 5425
" />
<path d="M2225 5031
L2225 5256
" />
<path d="M2225 5143
L1831 5143
L1887 5181
L1925 5218
L1944 5256
" />
</g>
<g style="fill:#000000; fill-opacity:0.0; 
stroke:#000000; stroke-width:39.3701; stroke-opacity:1; 
stroke-linecap:round; stroke-linejoin:round;">
<text x="11811" y="393.701"
textLength="642.295" font-size="419.947" lengthAdjust="spacingAndGlyphs"
text-anchor="middle" opacity="0">TX</text>
<path d="M11571 63
L11751 63
" />
<path d="M11661 378
L11661 63
" />
<path d="M11826 63
L12035 378
" />
<path d="M12035 63
L11826 378
" />
<text x="10826.8" y="393.701"
textLength="666.104" font-size="419.947" lengthAdjust="spacingAndGlyphs"
text-anchor="middle" opacity="0">RX</text>
<path d="M10774 378
L10669 228
" />
<path d="M10594 378
L10594 63
L10714 63
L10744 78
L10759 93
L10774 123
L10774 168
L10759 198
L10744 213
L10714 228
L10594 228
" />
<path d="M10879 63
L11089 378
" />
<path d="M11089 63
L10879 378
" />
<text x="9803.15" y="393.701"
textLength="906.074" font-size="419.947" lengthAdjust="spacingAndGlyphs"
text-anchor="middle" opacity="0">RST</text>
<path d="M9630 378
L9525 228
" />
<path d="M9450 378
L9450 63
L9570 63
L9600 78
L9615 93
L9630 123
L9630 168
L9615 198
L9600 213
L9570 228
L9450 228
" />
<path d="M9750 363
L9795 378
L9870 378
L9900 363
L9915 348
L9930 318
L9930 288
L9915 258
L9900 243
L9870 228
L9810 213
L9780 198
L9765 183
L9750 153
L9750 123
L9765 93
L9780 78
L9810 63
L9885 63
L9930 78
" />
<path d="M10020 63
L10200 63
" />
<path d="M10110 378
L10110 63
" />
<text x="8818.9" y="393.701"
textLength="1011.06" font-size="419.947" lengthAdjust="spacingAndGlyphs"
text-anchor="middle" opacity="0">GND</text>
<path d="M8578 78
L8548 63
L8503 63
L8458 78
L8428 108
L8413 138
L8398 198
L8398 243
L8413 303
L8428 333
L8458 363
L8503 378
L8533 378
L8578 363
L8593 348
L8593 243
L8533 243
" />
<path d="M8728 378
L8728 63
L8908 378
L8908 63
" />
<path d="M9058 378
L9058 63
L9133 63
L9178 78
L9208 108
L9223 138
L9238 198
L9238 243
L9223 303
L9208 333
L9178 363
L9133 378
L9058 378
" />
<text x="7834.65" y="393.701"
textLength="921.072" font-size="419.947" lengthAdjust="spacingAndGlyphs"
text-anchor="middle" opacity="0">3V3</text>
<path d="M7444 63
L7639 63
L7534 183
L7579 183
L7609 198
L7624 213
L7639 243
L7639 318
L7624 348
L7609 363
L7579 378
L7489 378
L7459 363
L7444 348
" />
<path d="M7729 63
L7834 378
L7939 63
" />
<path d="M8014 63
L8209 63
L8104 183
L8149 183
L8179 198
L8194 213
L8209 243
L8209 318
L8194 348
L8179 363
L8149 378
L8059 378
L8029 363
L8014 348
" />
</g>
<g style="fill:#000000; fill-opacity:0.0; 
stroke:#000000; stroke-width:47.2441; stroke-opacity:1; 
stroke-linecap:round; stroke-linejoin:round;">
<path d="M7287 1507
L7287 984
" />
<path d="M7811 1507
L7287 1507
" />
<path d="M8311 1507
L8311 460
" />
<path d="M8311 460
L12334 460
" />
<path d="M8311 1507
L12334 1507
" />
<path d="M12334 1507
L12334 460
" />
<path d="M9319 1767
L9184 1767
" />
<path d="M9319 2169
L9184 2169
" />
<path d="M3736 3515
L3736 3650
" />
<path d="M4137 3515
L4137 3650
" />
<path d="M5311 3554
L5311 3689
" />
<path d="M5712 3554
L5712 3689
" />
<path d="M2956 5146
L2956 5011
" />
<path d="M2555 5146
L2555 5011
" />
<path d="M3586 5854
L3586 5719
" />
<path d="M3185 5854
L3185 5719
" />
<path d="M8657 4469
L8657 4604
" />
<path d="M9059 4469
L9059 4604
" />
<path d="M7948 3790
L7948 3925
" />
<path d="M8350 3790
L8350 3925
" />
<path d="M11287 1767
L11153 1767
" />
<path d="M11287 2169
L11153 2169
" />
<path d="M7877 5293
L7877 5158
" />
<path d="M7476 5293
L7476 5158
" />
<path d="M8500 5936
L8500 6140
" />
<path d="M9059 5936
L9059 6140
" />
<path d="M13704 2464
L13704 2260
" />
<path d="M13145 2464
L13145 2260
" />
<path d="M10035 2255
L10035 2390
" />
<path d="M10437 2255
L10437 2390
" />
<path d="M8468 2390
L8468 2255
" />
<path d="M8066 2390
L8066 2255
" />
<path d="M7350 1767
L7216 1767
" />
<path d="M7350 2169
L7216 2169
" />
<path d="M4791 4405
L4656 4405
" />
<path d="M4791 4807
L4656 4807
" />
<path d="M5350 6074
L5350 6209
" />
<path d="M5751 6074
L5751 6209
" />
<path d="M2232 1413
L2097 1413
" />
<path d="M2232 1814
L2097 1814
" />
<path d="M2232 625
L2097 625
" />
<path d="M2232 1027
L2097 1027
" />
<path d="M263 3673
L1311 3673
" />
<path d="M263 3625
L263 3673
" />
<path d="M1311 3625
L1311 3673
" />
<path d="M1311 2625
L1311 3149
" />
<path d="M787 2625
L1311 2625
" />
<path d="M1311 208
L263 208
" />
<path d="M1311 1232
L1311 208
" />
<path d="M263 1232
L263 208
" />
<path d="M1311 1232
L263 1232
" />
<path d="M1311 1732
L1311 2255
" />
<path d="M1311 2255
L787 2255
" />
<path d="M11586 7334
L11586 6811
" />
<path d="M12110 7334
L11586 7334
" />
<path d="M12610 7334
L12610 6287
" />
<path d="M12610 6287
L13633 6287
" />
<path d="M12610 7334
L13633 7334
" />
<path d="M13633 7334
L13633 6287
" />
<path d="M4724 2800
L5806 2800
" />
<path d="M5806 2800
L5806 2688
" />
<path d="M4724 2800
L3642 2800
" />
<path d="M3642 2800
L3642 2688
" />
<path d="M4724 636
L5806 636
" />
<path d="M5806 636
L5806 748
" />
<path d="M4724 636
L3642 636
" />
<path d="M3642 636
L3642 748
" />
<path d="M3642 748
L2992 748
" />
<path d="M10826 3559
L10059 3559
" />
<path d="M10826 3559
L11594 3559
" />
<path d="M10826 5574
L10059 5574
" />
<path d="M10826 5574
L12185 5574
" />
<path d="M12244 2809
L11984 2809
" />
<path d="M12901 2809
L12637 2809
" />
<path d="M12897 2809
L12897 1732
" />
<path d="M11984 2253
L11984 2809
" />
<path d="M3854 6259
L3854 6850
" />
<path d="M3854 6259
L3854 5669
" />
<path d="M5122 6259
L5122 6850
" />
<path d="M5122 6259
L5122 5108
" />
</g>
<g style="fill:#000000; fill-opacity:0.0; 
stroke:#000000; stroke-width:59.0551; stroke-opacity:1; 
stroke-linecap:round; stroke-linejoin:round;">
<text x="6988.19" y="4133.86"
textLength="1738.47" font-size="524.934" lengthAdjust="spacingAndGlyphs"
text-anchor="middle" opacity="0">REF**</text>
<path d="M6463 4115
L6332 3927
" />
<path d="M6238 4115
L6238 3721
L6388 3721
L6425 3740
L6444 3758
L6463 3796
L6463 3852
L6444 3890
L6425 3908
L6388 3927
L6238 3927
" />
<path d="M6631 3908
L6763 3908
" />
<path d="M6819 4115
L6631 4115
L6631 3721
L6819 3721
" />
<path d="M7119 3908
L6988 3908
" />
<path d="M6988 4115
L6988 3721
L7175 3721
" />
<path d="M7381 3721
L7381 3815
" />
<path d="M7288 3777
L7381 3815
L7475 3777
" />
<path d="M7325 3890
L7381 3815
L7438 3890
" />
<path d="M7681 3721
L7681 3815
" />
<path d="M7588 3777
L7681 3815
L7775 3777
" />
<path d="M7625 3890
L7681 3815
L7738 3890
" />
<text x="12874" y="708.661"
textLength="751.687" font-size="524.934" lengthAdjust="spacingAndGlyphs"
text-anchor="middle" opacity="0">J1</text>
<path d="M12742 296
L12742 577
L12724 633
L12686 671
L12630 689
L12592 689
" />
<path d="M13136 689
L12911 689
" />
<path d="M13023 689
L13023 296
L12986 352
L12949 389
L12911 408
" />
<text x="9251.97" y="2728.35"
textLength="1220.38" font-size="524.934" lengthAdjust="spacingAndGlyphs"
text-anchor="middle" opacity="0">R10</text>
<path d="M8998 2709
L8867 2522
" />
<path d="M8773 2709
L8773 2315
L8923 2315
L8961 2334
L8980 2353
L8998 2390
L8998 2447
L8980 2484
L8961 2503
L8923 2522
L8773 2522
" />
<path d="M9373 2709
L9148 2709
" />
<path d="M9261 2709
L9261 2315
L9223 2372
L9186 2409
L9148 2428
" />
<path d="M9617 2315
L9655 2315
L9692 2334
L9711 2353
L9730 2390
L9748 2465
L9748 2559
L9730 2634
L9711 2672
L9692 2690
L9655 2709
L9617 2709
L9580 2690
L9561 2672
L9542 2634
L9523 2559
L9523 2465
L9542 2390
L9561 2353
L9580 2334
L9617 2315
" />
<g transform="rotate(-90 4500 3582.68)">
<text x="4500" y="3779.53"
textLength="845.426" font-size="524.934" lengthAdjust="spacingAndGlyphs"
text-anchor="middle" opacity="0">R9</text>
</g>
<path d="M4678 3648
L4490 3779
" />
<path d="M4678 3873
L4284 3873
L4284 3723
L4303 3685
L4321 3667
L4359 3648
L4415 3648
L4453 3667
L4471 3685
L4490 3723
L4490 3873
" />
<path d="M4678 3460
L4678 3385
L4659 3348
L4640 3329
L4584 3292
L4509 3273
L4359 3273
L4321 3292
L4303 3310
L4284 3348
L4284 3423
L4303 3460
L4321 3479
L4359 3498
L4453 3498
L4490 3479
L4509 3460
L4528 3423
L4528 3348
L4509 3310
L4490 3292
L4453 3273
" />
<g transform="rotate(-90 6074.8 3622.05)">
<text x="6074.8" y="3818.9"
textLength="845.426" font-size="524.934" lengthAdjust="spacingAndGlyphs"
text-anchor="middle" opacity="0">R7</text>
</g>
<path d="M6252 3687
L6065 3818
" />
<path d="M6252 3912
L5859 3912
L5859 3762
L5877 3725
L5896 3706
L5934 3687
L5990 3687
L6027 3706
L6046 3725
L6065 3762
L6065 3912
" />
<path d="M5859 3556
L5859 3293
L6252 3462
" />
<text x="3464.57" y="4921.26"
textLength="845.426" font-size="524.934" lengthAdjust="spacingAndGlyphs"
text-anchor="middle" opacity="0">R6</text>
<path d="M3398 4902
L3267 4715
" />
<path d="M3173 4902
L3173 4508
L3323 4508
L3361 4527
L3380 4546
L3398 4583
L3398 4640
L3380 4677
L3361 4696
L3323 4715
L3173 4715
" />
<path d="M3736 4508
L3661 4508
L3623 4527
L3605 4546
L3567 4602
L3548 4677
L3548 4827
L3567 4865
L3586 4883
L3623 4902
L3698 4902
L3736 4883
L3755 4865
L3773 4827
L3773 4733
L3755 4696
L3736 4677
L3698 4658
L3623 4658
L3586 4677
L3567 4696
L3548 4733
" />
<g transform="rotate(-90 2755.91 6259.84)">
<text x="2755.91" y="6456.69"
textLength="845.426" font-size="524.934" lengthAdjust="spacingAndGlyphs"
text-anchor="middle" opacity="0">R5</text>
</g>
<path d="M2934 6325
L2746 6456
" />
<path d="M2934 6550
L2540 6550
L2540 6400
L2559 6362
L2577 6344
L2615 6325
L2671 6325
L2709 6344
L2727 6362
L2746 6400
L2746 6550
" />
<path d="M2540 5969
L2540 6156
L2727 6175
L2709 6156
L2690 6119
L2690 6025
L2709 5988
L2727 5969
L2765 5950
L2859 5950
L2896 5969
L2915 5988
L2934 6025
L2934 6119
L2915 6156
L2896 6175
" />
<text x="8897.64" y="3858.27"
textLength="845.426" font-size="524.934" lengthAdjust="spacingAndGlyphs"
text-anchor="middle" opacity="0">R4</text>
<path d="M8832 3839
L8700 3652
" />
<path d="M8607 3839
L8607 3445
L8757 3445
L8794 3464
L8813 3483
L8832 3520
L8832 3577
L8813 3614
L8794 3633
L8757 3652
L8607 3652
" />
<path d="M9169 3577
L9169 3839
" />
<path d="M9075 3427
L8982 3708
L9225 3708
" />
<g transform="rotate(-90 7598.43 4015.75)">
<text x="7598.43" y="4212.6"
textLength="845.426" font-size="524.934" lengthAdjust="spacingAndGlyphs"
text-anchor="middle" opacity="0">R3</text>
</g>
<path d="M7776 4081
L7589 4212
" />
<path d="M7776 4306
L7382 4306
L7382 4156
L7401 4118
L7420 4100
L7457 4081
L7514 4081
L7551 4100
L7570 4118
L7589 4156
L7589 4306
" />
<path d="M7382 3950
L7382 3706
L7532 3837
L7532 3781
L7551 3743
L7570 3725
L7607 3706
L7701 3706
L7739 3725
L7757 3743
L7776 3781
L7776 3893
L7757 3931
L7739 3950
" />
<text x="11220.5" y="2795.28"
textLength="845.426" font-size="524.934" lengthAdjust="spacingAndGlyphs"
text-anchor="middle" opacity="0">R2</text>
<path d="M11154 2776
L11023 2589
" />
<path d="M10929 2776
L10929 2382
L11079 2382
L11117 2401
L11136 2420
L11154 2457
L11154 2514
L11136 2551
L11117 2570
L11079 2589
L10929 2589
" />
<path d="M11304 2420
L11323 2401
L11361 2382
L11454 2382
L11492 2401
L11511 2420
L11529 2457
L11529 2495
L11511 2551
L11286 2776
L11529 2776
" />
<g transform="rotate(-90 7114.17 5226.38)">
<text x="7114.17" y="5423.23"
textLength="845.426" font-size="524.934" lengthAdjust="spacingAndGlyphs"
text-anchor="middle" opacity="0">R1</text>
</g>
<path d="M7292 5291
L7104 5423
" />
<path d="M7292 5516
L6898 5516
L6898 5366
L6917 5329
L6936 5310
L6973 5291
L7029 5291
L7067 5310
L7086 5329
L7104 5366
L7104 5516
" />
<path d="M7292 4917
L7292 5142
" />
<path d="M7292 5029
L6898 5029
L6954 5067
L6992 5104
L7011 5142
" />
<text x="8818.9" y="7204.72"
textLength="1220.38" font-size="524.934" lengthAdjust="spacingAndGlyphs"
text-anchor="middle" opacity="0">C14</text>
<path d="M8565 7148
L8547 7167
L8490 7185
L8453 7185
L8397 7167
L8359 7129
L8340 7092
L8322 7017
L8322 6961
L8340 6886
L8359 6848
L8397 6811
L8453 6792
L8490 6792
L8547 6811
L8565 6829
" />
<path d="M8940 7185
L8715 7185
" />
<path d="M8828 7185
L8828 6792
L8790 6848
L8753 6886
L8715 6904
" />
<path d="M9278 6923
L9278 7185
" />
<path d="M9184 6773
L9090 7054
L9334 7054
" />
<g transform="rotate(-90 13622 1102.36)">
<text x="13622" y="1299.21"
textLength="1220.38" font-size="524.934" lengthAdjust="spacingAndGlyphs"
text-anchor="middle" opacity="0">C13</text>
</g>
<path d="M13762 1355
L13781 1374
L13800 1430
L13800 1467
L13781 1524
L13743 1561
L13706 1580
L13631 1599
L13575 1599
L13500 1580
L13462 1561
L13425 1524
L13406 1467
L13406 1430
L13425 1374
L13443 1355
" />
<path d="M13800 980
L13800 1205
" />
<path d="M13800 1092
L13406 1092
L13462 1130
L13500 1167
L13518 1205
" />
<path d="M13406 849
L13406 605
L13556 736
L13556 680
L13575 643
L13593 624
L13631 605
L13725 605
L13762 624
L13781 643
L13800 680
L13800 793
L13781 830
L13762 849
" />
<text x="10629.9" y="3425.2"
textLength="1220.38" font-size="524.934" lengthAdjust="spacingAndGlyphs"
text-anchor="middle" opacity="0">C12</text>
<path d="M10376 3368
L10358 3387
L10301 3406
L10264 3406
L10208 3387
L10170 3350
L10151 3312
L10133 3237
L10133 3181
L10151 3106
L10170 3068
L10208 3031
L10264 3012
L10301 3012
L10358 3031
L10376 3050
" />
<path d="M10751 3406
L10526 3406
" />
<path d="M10639 3406
L10639 3012
L10601 3068
L10564 3106
L10526 3125
" />
<path d="M10901 3050
L10920 3031
L10958 3012
L11051 3012
L11089 3031
L11107 3050
L11126 3087
L11126 3125
L11107 3181
L10883 3406
L11126 3406
" />
<text x="9133.86" y="3228.35"
textLength="1220.38" font-size="524.934" lengthAdjust="spacingAndGlyphs"
text-anchor="middle" opacity="0">C10</text>
<path d="M8880 3172
L8862 3190
L8805 3209
L8768 3209
L8712 3190
L8674 3153
L8655 3115
L8637 3040
L8637 2984
L8655 2909
L8674 2872
L8712 2834
L8768 2815
L8805 2815
L8862 2834
L8880 2853
" />
<path d="M9255 3209
L9030 3209
" />
<path d="M9143 3209
L9143 2815
L9105 2872
L9068 2909
L9030 2928
" />
<path d="M9499 2815
L9536 2815
L9574 2834
L9593 2853
L9611 2890
L9630 2965
L9630 3059
L9611 3134
L9593 3172
L9574 3190
L9536 3209
L9499 3209
L9461 3190
L9443 3172
L9424 3134
L9405 3059
L9405 2965
L9424 2890
L9443 2853
L9461 2834
L9499 2815
" />
<text x="7283.46" y="2755.91"
textLength="845.426" font-size="524.934" lengthAdjust="spacingAndGlyphs"
text-anchor="middle" opacity="0">C9</text>
<path d="M7217 2699
L7199 2718
L7142 2737
L7105 2737
L7049 2718
L7011 2680
L6992 2643
L6974 2568
L6974 2512
L6992 2437
L7011 2399
L7049 2362
L7105 2343
L7142 2343
L7199 2362
L7217 2380
" />
<path d="M7405 2737
L7480 2737
L7517 2718
L7536 2699
L7574 2643
L7592 2568
L7592 2418
L7574 2380
L7555 2362
L7517 2343
L7442 2343
L7405 2362
L7386 2380
L7367 2418
L7367 2512
L7386 2549
L7405 2568
L7442 2587
L7517 2587
L7555 2568
L7574 2549
L7592 2512
" />
<text x="5905.51" y="4763.78"
textLength="845.426" font-size="524.934" lengthAdjust="spacingAndGlyphs"
text-anchor="middle" opacity="0">C4</text>
<path d="M5839 4707
L5821 4726
L5764 4745
L5727 4745
L5671 4726
L5633 4688
L5614 4651
L5596 4576
L5596 4520
L5614 4445
L5633 4407
L5671 4370
L5727 4351
L5764 4351
L5821 4370
L5839 4388
" />
<path d="M6177 4482
L6177 4745
" />
<path d="M6083 4332
L5989 4613
L6233 4613
" />
<g transform="rotate(-90 6114.17 6141.73)">
<text x="6114.17" y="6338.58"
textLength="845.426" font-size="524.934" lengthAdjust="spacingAndGlyphs"
text-anchor="middle" opacity="0">C3</text>
</g>
<path d="M6254 6207
L6273 6226
L6292 6282
L6292 6319
L6273 6376
L6236 6413
L6198 6432
L6123 6451
L6067 6451
L5992 6432
L5954 6413
L5917 6376
L5898 6319
L5898 6282
L5917 6226
L5936 6207
" />
<path d="M5898 6076
L5898 5832
L6048 5963
L6048 5907
L6067 5869
L6086 5851
L6123 5832
L6217 5832
L6254 5851
L6273 5869
L6292 5907
L6292 6019
L6273 6057
L6254 6076
" />
<text x="2165.35" y="2374.02"
textLength="845.426" font-size="524.934" lengthAdjust="spacingAndGlyphs"
text-anchor="middle" opacity="0">C2</text>
<path d="M2099 2317
L2080 2336
L2024 2355
L1987 2355
L1931 2336
L1893 2299
L1874 2261
L1856 2186
L1856 2130
L1874 2055
L1893 2017
L1931 1980
L1987 1961
L2024 1961
L2080 1980
L2099 1999
" />
<path d="M2249 1999
L2268 1980
L2305 1961
L2399 1961
L2437 1980
L2455 1999
L2474 2036
L2474 2074
L2455 2130
L2230 2355
L2474 2355
" />
<text x="2165.35" y="472.441"
textLength="845.426" font-size="524.934" lengthAdjust="spacingAndGlyphs"
text-anchor="middle" opacity="0">C1</text>
<path d="M2099 416
L2080 434
L2024 453
L1987 453
L1931 434
L1893 397
L1874 359
L1856 284
L1856 228
L1874 153
L1893 116
L1931 78
L1987 59
L2024 59
L2080 78
L2099 97
" />
<path d="M2474 453
L2249 453
" />
<path d="M2362 453
L2362 59
L2324 116
L2287 153
L2249 172
" />
<text x="354.331" y="4370.08"
textLength="751.687" font-size="524.934" lengthAdjust="spacingAndGlyphs"
text-anchor="middle" opacity="0">J7</text>
<path d="M223 3957
L223 4238
L204 4295
L166 4332
L110 4351
L73 4351
" />
<path d="M373 3957
L635 3957
L466 4351
" />
<g transform="rotate(-90 1771.65 2952.76)">
<text x="1771.65" y="3149.61"
textLength="1145.39" font-size="524.934" lengthAdjust="spacingAndGlyphs"
text-anchor="middle" opacity="0">LS1</text>
</g>
<path d="M1949 3205
L1949 3393
L1556 3393
" />
<path d="M1931 3093
L1949 3037
L1949 2943
L1931 2905
L1912 2887
L1874 2868
L1837 2868
L1799 2887
L1781 2905
L1762 2943
L1743 3018
L1724 3055
L1706 3074
L1668 3093
L1631 3093
L1593 3074
L1574 3055
L1556 3018
L1556 2924
L1574 2868
" />
<path d="M1949 2493
L1949 2718
" />
<path d="M1949 2605
L1556 2605
L1612 2643
L1649 2680
L1668 2718
" />
<g transform="rotate(-90 11192.9 6811.02)">
<text x="11192.9" y="7007.87"
textLength="1145.39" font-size="524.934" lengthAdjust="spacingAndGlyphs"
text-anchor="middle" opacity="0">LS2</text>
</g>
<path d="M11371 7064
L11371 7251
L10977 7251
" />
<path d="M11352 6951
L11371 6895
L11371 6801
L11352 6764
L11333 6745
L11296 6726
L11258 6726
L11221 6745
L11202 6764
L11183 6801
L11164 6876
L11146 6914
L11127 6932
L11089 6951
L11052 6951
L11014 6932
L10996 6914
L10977 6876
L10977 6782
L10996 6726
" />
<path d="M11014 6576
L10996 6557
L10977 6520
L10977 6426
L10996 6389
L11014 6370
L11052 6351
L11089 6351
L11146 6370
L11371 6595
L11371 6351
" />
<text x="3267.72" y="551.181"
textLength="864.173" font-size="524.934" lengthAdjust="spacingAndGlyphs"
text-anchor="middle" opacity="0">U1</text>
<path d="M2967 138
L2967 457
L2986 494
L3005 513
L3042 532
L3117 532
L3155 513
L3173 494
L3192 457
L3192 138
" />
<path d="M3586 532
L3361 532
" />
<path d="M3473 532
L3473 138
L3436 194
L3398 232
L3361 251
" />
<text x="11811" y="6102.36"
textLength="864.173" font-size="524.934" lengthAdjust="spacingAndGlyphs"
text-anchor="middle" opacity="0">U2</text>
<path d="M11511 5689
L11511 6008
L11529 6046
L11548 6064
L11586 6083
L11661 6083
L11698 6064
L11717 6046
L11736 6008
L11736 5689
" />
<path d="M11904 5727
L11923 5708
L11961 5689
L12054 5689
L12092 5708
L12110 5727
L12129 5764
L12129 5802
L12110 5858
L11886 6083
L12129 6083
" />
<text x="12874" y="1535.43"
textLength="864.173" font-size="524.934" lengthAdjust="spacingAndGlyphs"
text-anchor="middle" opacity="0">U3</text>
<path d="M12574 1122
L12574 1441
L12592 1479
L12611 1497
L12649 1516
L12724 1516
L12761 1497
L12780 1479
L12799 1441
L12799 1122
" />
<path d="M12949 1122
L13192 1122
L13061 1272
L13117 1272
L13155 1291
L13173 1310
L13192 1347
L13192 1441
L13173 1479
L13155 1497
L13117 1516
L13005 1516
L12967 1497
L12949 1479
" />
<g transform="rotate(-90 5551.18 5157.48)">
<text x="5551.18" y="5354.33"
textLength="864.173" font-size="524.934" lengthAdjust="spacingAndGlyphs"
text-anchor="middle" opacity="0">U4</text>
</g>
<path d="M5335 5457
L5654 5457
L5691 5438
L5710 5419
L5729 5382
L5729 5307
L5710 5269
L5691 5251
L5654 5232
L5335 5232
" />
<path d="M5466 4876
L5729 4876
" />
<path d="M5316 4970
L5598 5063
L5598 4820
" />
<g >
</g>
</g> 
</svg>
