<?xml version="1.0" standalone="no"?>
 <!DOCTYPE svg PUBLIC "-//W3C//DTD SVG 1.1//EN" 
 "http://www.w3.org/Graphics/SVG/1.1/DTD/svg11.dtd"> 
<svg xmlns="http://www.w3.org/2000/svg" version="1.1" 
    width="29.7002cm" height="21.0007cm" viewBox="0 0 116930 82680 ">
<title>SVG Picture created as Heterodyne-B_SilkS.svg date 2020/02/21 16:22:14 </title>
  <desc>Picture generated by PCBNEW </desc>
<g style="fill:#000000; fill-opacity:1;stroke:#000000; stroke-opacity:1;
stroke-linecap:round; stroke-linejoin:round; "
 transform="translate(0 0) scale(1 1)">
</g>
<g style="fill:#000000; fill-opacity:0.0; 
stroke:#000000; stroke-width:-0.000393701; stroke-opacity:1; 
stroke-linecap:round; stroke-linejoin:round;">
</g>
<g style="fill:#000000; fill-opacity:0.0; 
stroke:#000000; stroke-width:47.2441; stroke-opacity:1; 
stroke-linecap:round; stroke-linejoin:round;">
<path d="M13342 5254
L13342 5119
" />
<path d="M13744 5254
L13744 5119
" />
<path d="M6893 5887
L6893 6022
" />
<path d="M6492 5887
L6492 6022
" />
<path d="M9173 2039
L9268 1943
" />
<path d="M9457 2323
L9552 2227
" />
<path d="M7914 1925
L8118 1925
" />
<path d="M7914 2484
L8118 2484
" />
<path d="M12833 3311
L12698 3311
" />
<path d="M12833 2909
L12698 2909
" />
</g>
<g style="fill:#000000; fill-opacity:0.0; 
stroke:#000000; stroke-width:59.0551; stroke-opacity:1; 
stroke-linecap:round; stroke-linejoin:round;">
<path d="M10718 3769
L10718 3858
" />
<path d="M7864 3769
L7864 3897
" />
<path d="M7864 6624
L7864 6496
" />
<path d="M10718 6624
L10718 6496
" />
<path d="M10718 3769
L10590 3769
" />
<path d="M10718 6624
L10590 6624
" />
<path d="M7864 6624
L7992 6624
" />
<path d="M7864 3769
L7992 3769
" />
<path d="M10718 3858
L11279 3858
" />
</g>
<g style="fill:#000000; fill-opacity:0.0; 
stroke:#000000; stroke-width:47.2441; stroke-opacity:1; 
stroke-linecap:round; stroke-linejoin:round;">
<path d="M11732 5925
L11732 3661
" />
<path d="M11732 3661
L13149 3661
" />
<path d="M13149 3661
L13149 5925
" />
</g>
<g style="fill:#000000; fill-opacity:0.0; 
stroke:#000000; stroke-width:59.0551; stroke-opacity:1; 
stroke-linecap:round; stroke-linejoin:round;">
<text x="13582.7" y="4448.82"
textLength="-691.882" font-size="-524.934" lengthAdjust="spacingAndGlyphs"
text-anchor="middle" opacity="0">C6</text>
<path d="M13648 4392
L13667 4411
L13723 4430
L13760 4430
L13817 4411
L13854 4373
L13873 4336
L13892 4261
L13892 4205
L13873 4130
L13854 4092
L13817 4055
L13760 4036
L13723 4036
L13667 4055
L13648 4073
" />
<path d="M13310 4036
L13385 4036
L13423 4055
L13442 4073
L13479 4130
L13498 4205
L13498 4355
L13479 4392
L13460 4411
L13423 4430
L13348 4430
L13310 4411
L13292 4392
L13273 4355
L13273 4261
L13292 4223
L13310 4205
L13348 4186
L13423 4186
L13460 4205
L13479 4223
L13498 4261
" />
<g transform="rotate(-90 6129.92 5954.72)">
<text x="6129.92" y="6151.57"
textLength="-1066.84" font-size="-524.934" lengthAdjust="spacingAndGlyphs"
text-anchor="middle" opacity="0">R11</text>
</g>
<path d="M6308 5701
L6120 5570
" />
<path d="M6308 5476
L5914 5476
L5914 5626
L5933 5664
L5951 5682
L5989 5701
L6045 5701
L6083 5682
L6101 5664
L6120 5626
L6120 5476
" />
<path d="M6308 6076
L6308 5851
" />
<path d="M6308 5964
L5914 5964
L5970 5926
L6008 5889
L6026 5851
" />
<path d="M6308 6451
L6308 6226
" />
<path d="M6308 6339
L5914 6339
L5970 6301
L6008 6264
L6026 6226
" />
<g transform="rotate(-45 9760.81 2531.45)">
<text x="9760.81" y="2728.3"
textLength="-691.882" font-size="-524.934" lengthAdjust="spacingAndGlyphs"
text-anchor="middle" opacity="0">R8</text>
</g>
<path d="M9933 2610
L9893 2385
" />
<path d="M10092 2451
L9813 2173
L9707 2279
L9694 2319
L9694 2345
L9707 2385
L9747 2425
L9787 2438
L9813 2438
L9853 2425
L9959 2319
" />
<path d="M9614 2610
L9628 2571
L9628 2544
L9614 2504
L9601 2491
L9561 2478
L9535 2478
L9495 2491
L9442 2544
L9429 2584
L9429 2610
L9442 2650
L9455 2664
L9495 2677
L9522 2677
L9561 2664
L9614 2610
L9654 2597
L9681 2597
L9721 2610
L9774 2664
L9787 2703
L9787 2730
L9774 2770
L9721 2823
L9681 2836
L9654 2836
L9614 2823
L9561 2770
L9548 2730
L9548 2703
L9561 2664
" />
<text x="8016.73" y="3051.18"
textLength="-1066.84" font-size="-524.934" lengthAdjust="spacingAndGlyphs"
text-anchor="middle" opacity="0">C11</text>
<path d="M8269 2994
L8288 3013
L8344 3032
L8382 3032
L8438 3013
L8476 2976
L8494 2938
L8513 2863
L8513 2807
L8494 2732
L8476 2694
L8438 2657
L8382 2638
L8344 2638
L8288 2657
L8269 2676
" />
<path d="M7894 3032
L8119 3032
" />
<path d="M8007 3032
L8007 2638
L8044 2694
L8082 2732
L8119 2751
" />
<path d="M7519 3032
L7744 3032
" />
<path d="M7632 3032
L7632 2638
L7669 2694
L7707 2732
L7744 2751
" />
<text x="13503.9" y="3582.68"
textLength="-691.882" font-size="-524.934" lengthAdjust="spacingAndGlyphs"
text-anchor="middle" opacity="0">C5</text>
<path d="M13569 3526
L13588 3545
L13644 3563
L13682 3563
L13738 3545
L13775 3507
L13794 3470
L13813 3395
L13813 3338
L13794 3263
L13775 3226
L13738 3188
L13682 3170
L13644 3170
L13588 3188
L13569 3207
" />
<path d="M13213 3170
L13400 3170
L13419 3357
L13400 3338
L13363 3320
L13269 3320
L13232 3338
L13213 3357
L13194 3395
L13194 3488
L13213 3526
L13232 3545
L13269 3563
L13363 3563
L13400 3545
L13419 3526
" />
<text x="10944.9" y="3700.79"
textLength="-710.63" font-size="-524.934" lengthAdjust="spacingAndGlyphs"
text-anchor="middle" opacity="0">U5</text>
<path d="M11244 3288
L11244 3607
L11226 3644
L11207 3663
L11169 3682
L11094 3682
L11057 3663
L11038 3644
L11019 3607
L11019 3288
" />
<path d="M10644 3288
L10832 3288
L10851 3475
L10832 3457
L10794 3438
L10701 3438
L10663 3457
L10644 3475
L10626 3513
L10626 3607
L10644 3644
L10663 3663
L10701 3682
L10794 3682
L10832 3663
L10851 3644
" />
<text x="11653.5" y="3228.35"
textLength="-635.639" font-size="-524.934" lengthAdjust="spacingAndGlyphs"
text-anchor="middle" opacity="0">Y1</text>
<path d="M11841 3022
L11841 3209
" />
<path d="M11972 2815
L11841 3022
L11709 2815
" />
<path d="M11372 3209
L11597 3209
" />
<path d="M11484 3209
L11484 2815
L11522 2872
L11559 2909
L11597 2928
" />
<g >
</g>
</g> 
</svg>
