<?xml version="1.0" standalone="no"?>
 <!DOCTYPE svg PUBLIC "-//W3C//DTD SVG 1.1//EN" 
 "http://www.w3.org/Graphics/SVG/1.1/DTD/svg11.dtd"> 
<svg xmlns="http://www.w3.org/2000/svg" version="1.1" 
    width="29.7002cm" height="21.0007cm" viewBox="0 0 116930 82680 ">
<title>SVG Picture created as Heterodyne-B_Cu.svg date 2020/02/21 13:39:22 </title>
  <desc>Picture generated by PCBNEW </desc>
<g style="fill:#000000; fill-opacity:1;stroke:#000000; stroke-opacity:1;
stroke-linecap:round; stroke-linejoin:round; "
 transform="translate(0 0) scale(1 1)">
</g>
<g style="fill:#000000; fill-opacity:0.0; 
stroke:#000000; stroke-width:-0.000393701; stroke-opacity:1; 
stroke-linecap:round; stroke-linejoin:round;">
<g >
</g>
<g style="fill:#000000; fill-opacity:1.0; 
stroke:#000000; stroke-width:0; stroke-opacity:1; 
stroke-linecap:round; stroke-linejoin:round;">
<circle cx="6988.19" cy="3740.16" r="82.6772" /> 
</g>
<g style="fill:#000000; fill-opacity:1.0; 
stroke:#000000; stroke-width:39.3701; stroke-opacity:1; 
stroke-linecap:round; stroke-linejoin:round;">
</g>
<g >
</g>
<g style="fill:#000000; fill-opacity:1.0; 
stroke:#000000; stroke-width:39.3701; stroke-opacity:1; 
stroke-linecap:round; stroke-linejoin:round;">
</g>
<g style="fill:#000000; fill-opacity:1.0; 
stroke:#000000; stroke-width:0; stroke-opacity:1; 
stroke-linecap:round; stroke-linejoin:round;">
<path style="fill:#000000; fill-opacity:1.0; 
stroke:#000000; stroke-width:0; stroke-opacity:1; 
stroke-linecap:round; stroke-linejoin:round;fill-rule:evenodd;"
d="M 7755.91,7440.94
7755.91,7204.72
7992.13,7204.72
7992.13,7440.94
Z" /> 
</g>
<g >
</g>
<g style="fill:#000000; fill-opacity:1.0; 
stroke:#000000; stroke-width:0; stroke-opacity:1; 
stroke-linecap:round; stroke-linejoin:round;">
<path style="fill:#000000; fill-opacity:1.0; 
stroke:#000000; stroke-width:0; stroke-opacity:1; 
stroke-linecap:round; stroke-linejoin:round;fill-rule:evenodd;"
d="M 8070.87,7440.94
8070.87,7204.72
8307.09,7204.72
8307.09,7440.94
Z" /> 
</g>
<g >
</g>
<g style="fill:#000000; fill-opacity:1.0; 
stroke:#000000; stroke-width:0; stroke-opacity:1; 
stroke-linecap:round; stroke-linejoin:round;">
<path style="fill:#000000; fill-opacity:1.0; 
stroke:#000000; stroke-width:0; stroke-opacity:1; 
stroke-linecap:round; stroke-linejoin:round;fill-rule:evenodd;"
d="M 8385.83,7440.94
8385.83,7204.72
8622.05,7204.72
8622.05,7440.94
Z" /> 
</g>
<g >
</g>
<g style="fill:#000000; fill-opacity:1.0; 
stroke:#000000; stroke-width:0; stroke-opacity:1; 
stroke-linecap:round; stroke-linejoin:round;">
<path style="fill:#000000; fill-opacity:1.0; 
stroke:#000000; stroke-width:0; stroke-opacity:1; 
stroke-linecap:round; stroke-linejoin:round;fill-rule:evenodd;"
d="M 8700.79,7440.94
8700.79,7204.72
8937.01,7204.72
8937.01,7440.94
Z" /> 
</g>
<g >
</g>
<g style="fill:#000000; fill-opacity:1.0; 
stroke:#000000; stroke-width:0; stroke-opacity:1; 
stroke-linecap:round; stroke-linejoin:round;">
<path style="fill:#000000; fill-opacity:1.0; 
stroke:#000000; stroke-width:0; stroke-opacity:1; 
stroke-linecap:round; stroke-linejoin:round;fill-rule:evenodd;"
d="M 13646,4636.28
13655.1,4637.62
13664,4639.85
13672.6,4642.94
13680.9,4646.87
13688.8,4651.59
13696.1,4657.05
13702.9,4663.21
13709.1,4670.01
13714.6,4677.38
13719.3,4685.25
13723.2,4693.55
13726.3,4702.19
13728.5,4711.09
13729.9,4720.17
13730.3,4729.33
13730.3,4955.71
13729.9,4964.87
13728.5,4973.95
13726.3,4982.85
13723.2,4991.49
13719.3,4999.79
13714.6,5007.66
13709.1,5015.03
13702.9,5021.83
13696.1,5027.99
13688.8,5033.45
13680.9,5038.17
13672.6,5042.09
13664,5045.19
13655.1,5047.42
13646,5048.76
13636.8,5049.21
13449.8,5049.21
13440.6,5048.76
13431.6,5047.42
13422.7,5045.19
13414,5042.09
13405.7,5038.17
13397.9,5033.45
13390.5,5027.99
13383.7,5021.83
13377.5,5015.03
13372.1,5007.66
13367.3,4999.79
13363.4,4991.49
13360.3,4982.85
13358.1,4973.95
13356.7,4964.87
13356.3,4955.71
13356.3,4729.33
13356.7,4720.17
13358.1,4711.09
13360.3,4702.19
13363.4,4693.55
13367.3,4685.25
13372.1,4677.38
13377.5,4670.01
13383.7,4663.21
13390.5,4657.05
13397.9,4651.59
13405.7,4646.87
13414,4642.94
13422.7,4639.85
13431.6,4637.62
13440.6,4636.28
13449.8,4635.83
13636.8,4635.83
Z" /> 
<path style="fill:#000000; fill-opacity:1.0; 
stroke:#000000; stroke-width:0; stroke-opacity:1; 
stroke-linecap:round; stroke-linejoin:round;fill-rule:evenodd;"
d="M 13646,5325.25
13655.1,5326.6
13664,5328.83
13672.6,5331.92
13680.9,5335.84
13688.8,5340.56
13696.1,5346.03
13702.9,5352.19
13709.1,5358.99
13714.6,5366.36
13719.3,5374.23
13723.2,5382.52
13726.3,5391.16
13728.5,5400.07
13729.9,5409.14
13730.3,5418.31
13730.3,5644.69
13729.9,5653.85
13728.5,5662.93
13726.3,5671.83
13723.2,5680.47
13719.3,5688.76
13714.6,5696.63
13709.1,5704
13702.9,5710.8
13696.1,5716.96
13688.8,5722.43
13680.9,5727.15
13672.6,5731.07
13664,5734.16
13655.1,5736.39
13646,5737.74
13636.8,5738.19
13449.8,5738.19
13440.6,5737.74
13431.6,5736.39
13422.7,5734.16
13414,5731.07
13405.7,5727.15
13397.9,5722.43
13390.5,5716.96
13383.7,5710.8
13377.5,5704
13372.1,5696.63
13367.3,5688.76
13363.4,5680.47
13360.3,5671.83
13358.1,5662.93
13356.7,5653.85
13356.3,5644.69
13356.3,5418.31
13356.7,5409.14
13358.1,5400.07
13360.3,5391.16
13363.4,5382.52
13367.3,5374.23
13372.1,5366.36
13377.5,5358.99
13383.7,5352.19
13390.5,5346.03
13397.9,5340.56
13405.7,5335.84
13414,5331.92
13422.7,5328.83
13431.6,5326.6
13440.6,5325.25
13449.8,5324.8
13636.8,5324.8
Z" /> 
</g>
<g >
</g>
<g style="fill:#000000; fill-opacity:1.0; 
stroke:#000000; stroke-width:0; stroke-opacity:1; 
stroke-linecap:round; stroke-linejoin:round;">
</g>
<g style="fill:#000000; fill-opacity:1.0; 
stroke:#000000; stroke-width:669.291; stroke-opacity:1; 
stroke-linecap:round; stroke-linejoin:round;">
</g>
<g style="fill:#000000; fill-opacity:0.0; 
stroke:#000000; stroke-width:669.291; stroke-opacity:1; 
stroke-linecap:round; stroke-linejoin:round;">
<path d="M11811 984
L11811 984
" />
<path d="M10811 984
L10811 984
" />
<path d="M9811 984
L9811 984
" />
<path d="M8811 984
L8811 984
" />
</g>
<g style="fill:#000000; fill-opacity:0.0; 
stroke:#000000; stroke-width:0; stroke-opacity:1; 
stroke-linecap:round; stroke-linejoin:round;">
</g>
<g style="fill:#000000; fill-opacity:1.0; 
stroke:#000000; stroke-width:0; stroke-opacity:1; 
stroke-linecap:round; stroke-linejoin:round;">
<path style="fill:#000000; fill-opacity:1.0; 
stroke:#000000; stroke-width:0; stroke-opacity:1; 
stroke-linecap:round; stroke-linejoin:round;fill-rule:evenodd;"
d="M 8145.67,1318.9
7476.38,1318.9
7476.38,649.606
8145.67,649.606
Z" /> 
</g>
<g >
</g>
<g style="fill:#000000; fill-opacity:1.0; 
stroke:#000000; stroke-width:0; stroke-opacity:1; 
stroke-linecap:round; stroke-linejoin:round;">
<path style="fill:#000000; fill-opacity:1.0; 
stroke:#000000; stroke-width:0; stroke-opacity:1; 
stroke-linecap:round; stroke-linejoin:round;fill-rule:evenodd;"
d="M 6795.58,6092.97
6804.66,6094.32
6813.56,6096.55
6822.2,6099.64
6830.49,6103.56
6838.37,6108.28
6845.74,6113.74
6852.53,6119.91
6858.7,6126.71
6864.16,6134.08
6868.88,6141.95
6872.8,6150.24
6875.89,6158.88
6878.12,6167.78
6879.47,6176.86
6879.92,6186.02
6879.92,6412.4
6879.47,6421.57
6878.12,6430.64
6875.89,6439.54
6872.8,6448.18
6868.88,6456.48
6864.16,6464.35
6858.7,6471.72
6852.53,6478.52
6845.74,6484.68
6838.37,6490.15
6830.49,6494.86
6822.2,6498.79
6813.56,6501.88
6804.66,6504.11
6795.58,6505.46
6786.42,6505.91
6599.41,6505.91
6590.24,6505.46
6581.17,6504.11
6572.27,6501.88
6563.63,6498.79
6555.33,6494.86
6547.46,6490.15
6540.09,6484.68
6533.29,6478.52
6527.13,6471.72
6521.66,6464.35
6516.95,6456.48
6513.02,6448.18
6509.93,6439.54
6507.7,6430.64
6506.36,6421.57
6505.91,6412.4
6505.91,6186.02
6506.36,6176.86
6507.7,6167.78
6509.93,6158.88
6513.02,6150.24
6516.95,6141.95
6521.66,6134.08
6527.13,6126.71
6533.29,6119.91
6540.09,6113.74
6547.46,6108.28
6555.33,6103.56
6563.63,6099.64
6572.27,6096.55
6581.17,6094.32
6590.24,6092.97
6599.41,6092.52
6786.42,6092.52
Z" /> 
<path style="fill:#000000; fill-opacity:1.0; 
stroke:#000000; stroke-width:0; stroke-opacity:1; 
stroke-linecap:round; stroke-linejoin:round;fill-rule:evenodd;"
d="M 6795.58,5403.99
6804.66,5405.34
6813.56,5407.57
6822.2,5410.66
6830.49,5414.58
6838.37,5419.3
6845.74,5424.77
6852.53,5430.93
6858.7,5437.73
6864.16,5445.1
6868.88,5452.97
6872.8,5461.26
6875.89,5469.9
6878.12,5478.81
6879.47,5487.88
6879.92,5497.05
6879.92,5723.43
6879.47,5732.59
6878.12,5741.67
6875.89,5750.57
6872.8,5759.21
6868.88,5767.5
6864.16,5775.37
6858.7,5782.74
6852.53,5789.54
6845.74,5795.7
6838.37,5801.17
6830.49,5805.89
6822.2,5809.81
6813.56,5812.9
6804.66,5815.13
6795.58,5816.48
6786.42,5816.93
6599.41,5816.93
6590.24,5816.48
6581.17,5815.13
6572.27,5812.9
6563.63,5809.81
6555.33,5805.89
6547.46,5801.17
6540.09,5795.7
6533.29,5789.54
6527.13,5782.74
6521.66,5775.37
6516.95,5767.5
6513.02,5759.21
6509.93,5750.57
6507.7,5741.67
6506.36,5732.59
6505.91,5723.43
6505.91,5497.05
6506.36,5487.88
6507.7,5478.81
6509.93,5469.9
6513.02,5461.26
6516.95,5452.97
6521.66,5445.1
6527.13,5437.73
6533.29,5430.93
6540.09,5424.77
6547.46,5419.3
6555.33,5414.58
6563.63,5410.66
6572.27,5407.57
6581.17,5405.34
6590.24,5403.99
6599.41,5403.54
6786.42,5403.54
Z" /> 
</g>
<g >
</g>
<g >
</g>
<g >
</g>
<g style="fill:#000000; fill-opacity:1.0; 
stroke:#000000; stroke-width:0; stroke-opacity:1; 
stroke-linecap:round; stroke-linejoin:round;">
<path style="fill:#000000; fill-opacity:1.0; 
stroke:#000000; stroke-width:0; stroke-opacity:1; 
stroke-linecap:round; stroke-linejoin:round;fill-rule:evenodd;"
d="M 9629.38,1650.56
9638.46,1651.9
9647.36,1654.13
9656,1657.22
9664.3,1661.15
9672.17,1665.86
9679.54,1671.33
9686.34,1677.49
9818.57,1809.73
9824.73,1816.53
9830.2,1823.9
9834.92,1831.77
9838.84,1840.06
9841.93,1848.7
9844.16,1857.6
9845.51,1866.68
9845.96,1875.84
9845.51,1885.01
9844.16,1894.09
9841.93,1902.99
9838.84,1911.63
9834.92,1919.92
9830.2,1927.79
9824.73,1935.16
9818.57,1941.96
9658.5,2102.04
9651.7,2108.2
9644.33,2113.66
9636.46,2118.38
9628.16,2122.3
9619.52,2125.4
9610.62,2127.63
9601.54,2128.97
9592.38,2129.42
9583.21,2128.97
9574.14,2127.63
9565.24,2125.4
9556.6,2122.3
9548.3,2118.38
9540.43,2113.66
9533.06,2108.2
9526.26,2102.04
9394.03,1969.8
9387.87,1963
9382.4,1955.63
9377.68,1947.76
9373.76,1939.47
9370.67,1930.83
9368.44,1921.92
9367.09,1912.85
9366.64,1903.68
9367.09,1894.52
9368.44,1885.44
9370.67,1876.54
9373.76,1867.9
9377.68,1859.61
9382.4,1851.74
9387.87,1844.36
9394.03,1837.57
9554.1,1677.49
9560.9,1671.33
9568.27,1665.86
9576.14,1661.15
9584.44,1657.22
9593.08,1654.13
9601.98,1651.9
9611.05,1650.56
9620.22,1650.11
Z" /> 
<path style="fill:#000000; fill-opacity:1.0; 
stroke:#000000; stroke-width:0; stroke-opacity:1; 
stroke-linecap:round; stroke-linejoin:round;fill-rule:evenodd;"
d="M 9142.2,2137.74
9151.28,2139.08
9160.18,2141.31
9168.82,2144.4
9177.12,2148.33
9184.99,2153.04
9192.36,2158.51
9199.16,2164.67
9331.39,2296.91
9337.55,2303.71
9343.02,2311.08
9347.74,2318.95
9351.66,2327.24
9354.75,2335.88
9356.98,2344.78
9358.33,2353.86
9358.78,2363.02
9358.33,2372.19
9356.98,2381.27
9354.75,2390.17
9351.66,2398.81
9347.74,2407.1
9343.02,2414.97
9337.55,2422.34
9331.39,2429.14
9171.32,2589.21
9164.52,2595.38
9157.15,2600.84
9149.28,2605.56
9140.98,2609.48
9132.34,2612.57
9123.44,2614.8
9114.37,2616.15
9105.2,2616.6
9096.04,2616.15
9086.96,2614.8
9078.06,2612.57
9069.42,2609.48
9061.12,2605.56
9053.25,2600.84
9045.88,2595.38
9039.08,2589.21
8906.85,2456.98
8900.69,2450.18
8895.22,2442.81
8890.5,2434.94
8886.58,2426.64
8883.49,2418.01
8881.26,2409.1
8879.91,2400.03
8879.46,2390.86
8879.91,2381.7
8881.26,2372.62
8883.49,2363.72
8886.58,2355.08
8890.5,2346.79
8895.22,2338.91
8900.69,2331.54
8906.85,2324.75
9066.92,2164.67
9073.72,2158.51
9081.09,2153.04
9088.96,2148.33
9097.26,2144.4
9105.9,2141.31
9114.8,2139.08
9123.87,2137.74
9133.04,2137.29
Z" /> 
</g>
<g >
</g>
<g >
</g>
<g >
</g>
<g >
</g>
<g >
</g>
<g >
</g>
<g >
</g>
<g >
</g>
<g >
</g>
<g >
</g>
<g >
</g>
<g style="fill:#000000; fill-opacity:1.0; 
stroke:#000000; stroke-width:0; stroke-opacity:1; 
stroke-linecap:round; stroke-linejoin:round;">
<path style="fill:#000000; fill-opacity:1.0; 
stroke:#000000; stroke-width:0; stroke-opacity:1; 
stroke-linecap:round; stroke-linejoin:round;fill-rule:evenodd;"
d="M 8491.2,1929.6
8500.51,1930.98
8509.65,1933.27
8518.52,1936.44
8527.03,1940.47
8535.11,1945.31
8542.67,1950.92
8549.65,1957.24
8555.97,1964.22
8561.58,1971.78
8566.42,1979.86
8570.45,1988.37
8573.62,1997.24
8575.91,2006.38
8577.29,2015.69
8577.76,2025.1
8577.76,2384.35
8577.29,2393.76
8575.91,2403.07
8573.62,2412.21
8570.45,2421.07
8566.42,2429.59
8561.58,2437.67
8555.97,2445.23
8549.65,2452.21
8542.67,2458.53
8535.11,2464.14
8527.03,2468.98
8518.52,2473.01
8509.65,2476.18
8500.51,2478.47
8491.2,2479.85
8481.79,2480.31
8289.86,2480.31
8280.46,2479.85
8271.14,2478.47
8262.01,2476.18
8253.14,2473.01
8244.62,2468.98
8236.55,2464.14
8228.98,2458.53
8222.01,2452.21
8215.68,2445.23
8210.07,2437.67
8205.23,2429.59
8201.2,2421.07
8198.03,2412.21
8195.74,2403.07
8194.36,2393.76
8193.9,2384.35
8193.9,2025.1
8194.36,2015.69
8195.74,2006.38
8198.03,1997.24
8201.2,1988.37
8205.23,1979.86
8210.07,1971.78
8215.68,1964.22
8222.01,1957.24
8228.98,1950.92
8236.55,1945.31
8244.62,1940.47
8253.14,1936.44
8262.01,1933.27
8271.14,1930.98
8280.46,1929.6
8289.86,1929.13
8481.79,1929.13
Z" /> 
<path style="fill:#000000; fill-opacity:1.0; 
stroke:#000000; stroke-width:0; stroke-opacity:1; 
stroke-linecap:round; stroke-linejoin:round;fill-rule:evenodd;"
d="M 7753.01,1929.6
7762.32,1930.98
7771.46,1933.27
7780.33,1936.44
7788.84,1940.47
7796.92,1945.31
7804.48,1950.92
7811.46,1957.24
7817.78,1964.22
7823.39,1971.78
7828.24,1979.86
7832.26,1988.37
7835.43,1997.24
7837.72,2006.38
7839.1,2015.69
7839.57,2025.1
7839.57,2384.35
7839.1,2393.76
7837.72,2403.07
7835.43,2412.21
7832.26,2421.07
7828.24,2429.59
7823.39,2437.67
7817.78,2445.23
7811.46,2452.21
7804.48,2458.53
7796.92,2464.14
7788.84,2468.98
7780.33,2473.01
7771.46,2476.18
7762.32,2478.47
7753.01,2479.85
7743.6,2480.31
7551.67,2480.31
7542.27,2479.85
7532.95,2478.47
7523.82,2476.18
7514.95,2473.01
7506.44,2468.98
7498.36,2464.14
7490.79,2458.53
7483.82,2452.21
7477.49,2445.23
7471.88,2437.67
7467.04,2429.59
7463.01,2421.07
7459.84,2412.21
7457.55,2403.07
7456.17,2393.76
7455.71,2384.35
7455.71,2025.1
7456.17,2015.69
7457.55,2006.38
7459.84,1997.24
7463.01,1988.37
7467.04,1979.86
7471.88,1971.78
7477.49,1964.22
7483.82,1957.24
7490.79,1950.92
7498.36,1945.31
7506.44,1940.47
7514.95,1936.44
7523.82,1933.27
7532.95,1930.98
7542.27,1929.6
7551.67,1929.13
7743.6,1929.13
Z" /> 
</g>
<g >
</g>
<g >
</g>
<g >
</g>
<g style="fill:#000000; fill-opacity:1.0; 
stroke:#000000; stroke-width:0; stroke-opacity:1; 
stroke-linecap:round; stroke-linejoin:round;">
<path style="fill:#000000; fill-opacity:1.0; 
stroke:#000000; stroke-width:0; stroke-opacity:1; 
stroke-linecap:round; stroke-linejoin:round;fill-rule:evenodd;"
d="M 12543.6,2923.68
12552.7,2925.02
12561.6,2927.25
12570.2,2930.35
12578.5,2934.27
12586.4,2938.99
12593.8,2944.45
12600.6,2950.61
12606.7,2957.41
12612.2,2964.78
12616.9,2972.65
12620.8,2980.95
12623.9,2989.59
12626.2,2998.49
12627.5,3007.57
12628,3016.73
12628,3203.74
12627.5,3212.91
12626.2,3221.98
12623.9,3230.88
12620.8,3239.52
12616.9,3247.82
12612.2,3255.69
12606.7,3263.06
12600.6,3269.86
12593.8,3276.02
12586.4,3281.49
12578.5,3286.2
12570.2,3290.13
12561.6,3293.22
12552.7,3295.45
12543.6,3296.79
12534.4,3297.24
12308.1,3297.24
12298.9,3296.79
12289.8,3295.45
12280.9,3293.22
12272.3,3290.13
12264,3286.2
12256.1,3281.49
12248.8,3276.02
12242,3269.86
12235.8,3263.06
12230.3,3255.69
12225.6,3247.82
12221.7,3239.52
12218.6,3230.88
12216.4,3221.98
12215,3212.91
12214.6,3203.74
12214.6,3016.73
12215,3007.57
12216.4,2998.49
12218.6,2989.59
12221.7,2980.95
12225.6,2972.65
12230.3,2964.78
12235.8,2957.41
12242,2950.61
12248.8,2944.45
12256.1,2938.99
12264,2934.27
12272.3,2930.35
12280.9,2927.25
12289.8,2925.02
12298.9,2923.68
12308.1,2923.23
12534.4,2923.23
Z" /> 
<path style="fill:#000000; fill-opacity:1.0; 
stroke:#000000; stroke-width:0; stroke-opacity:1; 
stroke-linecap:round; stroke-linejoin:round;fill-rule:evenodd;"
d="M 13232.6,2923.68
13241.7,2925.02
13250.6,2927.25
13259.2,2930.35
13267.5,2934.27
13275.4,2938.99
13282.7,2944.45
13289.5,2950.61
13295.7,2957.41
13301.2,2964.78
13305.9,2972.65
13309.8,2980.95
13312.9,2989.59
13315.1,2998.49
13316.5,3007.57
13316.9,3016.73
13316.9,3203.74
13316.5,3212.91
13315.1,3221.98
13312.9,3230.88
13309.8,3239.52
13305.9,3247.82
13301.2,3255.69
13295.7,3263.06
13289.5,3269.86
13282.7,3276.02
13275.4,3281.49
13267.5,3286.2
13259.2,3290.13
13250.6,3293.22
13241.7,3295.45
13232.6,3296.79
13223.4,3297.24
12997,3297.24
12987.9,3296.79
12978.8,3295.45
12969.9,3293.22
12961.3,3290.13
12953,3286.2
12945.1,3281.49
12937.7,3276.02
12930.9,3269.86
12924.8,3263.06
12919.3,3255.69
12914.6,3247.82
12910.7,3239.52
12907.6,3230.88
12905.3,3221.98
12904,3212.91
12903.5,3203.74
12903.5,3016.73
12904,3007.57
12905.3,2998.49
12907.6,2989.59
12910.7,2980.95
12914.6,2972.65
12919.3,2964.78
12924.8,2957.41
12930.9,2950.61
12937.7,2944.45
12945.1,2938.99
12953,2934.27
12961.3,2930.35
12969.9,2927.25
12978.8,2925.02
12987.9,2923.68
12997,2923.23
13223.4,2923.23
Z" /> 
</g>
<g >
</g>
<g >
</g>
<g >
</g>
<g >
</g>
<g >
</g>
<g style="fill:#000000; fill-opacity:1.0; 
stroke:#000000; stroke-width:0; stroke-opacity:1; 
stroke-linecap:round; stroke-linejoin:round;">
<path style="fill:#000000; fill-opacity:1.0; 
stroke:#000000; stroke-width:0; stroke-opacity:1; 
stroke-linecap:round; stroke-linejoin:round;fill-rule:evenodd;"
d="M 452.756,3484.25
452.756,2814.96
1122.05,2814.96
1122.05,3484.25
Z" /> 
</g>
<g >
</g>
<g style="fill:#000000; fill-opacity:1.0; 
stroke:#000000; stroke-width:0; stroke-opacity:1; 
stroke-linecap:round; stroke-linejoin:round;">
<path style="fill:#000000; fill-opacity:1.0; 
stroke:#000000; stroke-width:0; stroke-opacity:1; 
stroke-linecap:round; stroke-linejoin:round;fill-rule:evenodd;"
d="M 1122.05,1397.64
1122.05,2066.93
452.756,2066.93
452.756,1397.64
Z" /> 
</g>
<g style="fill:#000000; fill-opacity:1.0; 
stroke:#000000; stroke-width:669.291; stroke-opacity:1; 
stroke-linecap:round; stroke-linejoin:round;">
</g>
<g style="fill:#000000; fill-opacity:0.0; 
stroke:#000000; stroke-width:669.291; stroke-opacity:1; 
stroke-linecap:round; stroke-linejoin:round;">
<path d="M787 732
L787 732
" />
</g>
<g >
</g>
<g style="fill:#000000; fill-opacity:0.0; 
stroke:#000000; stroke-width:669.291; stroke-opacity:1; 
stroke-linecap:round; stroke-linejoin:round;">
<path d="M13110 6811
L13110 6811
" />
</g>
<g style="fill:#000000; fill-opacity:0.0; 
stroke:#000000; stroke-width:0; stroke-opacity:1; 
stroke-linecap:round; stroke-linejoin:round;">
</g>
<g style="fill:#000000; fill-opacity:1.0; 
stroke:#000000; stroke-width:0; stroke-opacity:1; 
stroke-linecap:round; stroke-linejoin:round;">
<path style="fill:#000000; fill-opacity:1.0; 
stroke:#000000; stroke-width:0; stroke-opacity:1; 
stroke-linecap:round; stroke-linejoin:round;fill-rule:evenodd;"
d="M 12444.9,7145.67
11775.6,7145.67
11775.6,6476.38
12444.9,6476.38
Z" /> 
</g>
<g >
</g>
<g >
</g>
<g >
</g>
<g >
</g>
<g >
</g>
<g style="fill:#000000; fill-opacity:1.0; 
stroke:#000000; stroke-width:0; stroke-opacity:1; 
stroke-linecap:round; stroke-linejoin:round;">
<path style="fill:#000000; fill-opacity:1.0; 
stroke:#000000; stroke-width:0; stroke-opacity:1; 
stroke-linecap:round; stroke-linejoin:round;fill-rule:evenodd;"
d="M 11279.5,3986.22
11279.5,4202.76
10649.6,4202.76
10649.6,3986.22
Z" /> 
<path style="fill:#000000; fill-opacity:1.0; 
stroke:#000000; stroke-width:0; stroke-opacity:1; 
stroke-linecap:round; stroke-linejoin:round;fill-rule:evenodd;"
d="M 11279.5,4301.18
11279.5,4517.72
10649.6,4517.72
10649.6,4301.18
Z" /> 
<path style="fill:#000000; fill-opacity:1.0; 
stroke:#000000; stroke-width:0; stroke-opacity:1; 
stroke-linecap:round; stroke-linejoin:round;fill-rule:evenodd;"
d="M 11279.5,4616.14
11279.5,4832.68
10649.6,4832.68
10649.6,4616.14
Z" /> 
<path style="fill:#000000; fill-opacity:1.0; 
stroke:#000000; stroke-width:0; stroke-opacity:1; 
stroke-linecap:round; stroke-linejoin:round;fill-rule:evenodd;"
d="M 11279.5,4931.1
11279.5,5147.64
10649.6,5147.64
10649.6,4931.1
Z" /> 
<path style="fill:#000000; fill-opacity:1.0; 
stroke:#000000; stroke-width:0; stroke-opacity:1; 
stroke-linecap:round; stroke-linejoin:round;fill-rule:evenodd;"
d="M 11279.5,5246.06
11279.5,5462.6
10649.6,5462.6
10649.6,5246.06
Z" /> 
<path style="fill:#000000; fill-opacity:1.0; 
stroke:#000000; stroke-width:0; stroke-opacity:1; 
stroke-linecap:round; stroke-linejoin:round;fill-rule:evenodd;"
d="M 11279.5,5561.02
11279.5,5777.56
10649.6,5777.56
10649.6,5561.02
Z" /> 
<path style="fill:#000000; fill-opacity:1.0; 
stroke:#000000; stroke-width:0; stroke-opacity:1; 
stroke-linecap:round; stroke-linejoin:round;fill-rule:evenodd;"
d="M 11279.5,5875.98
11279.5,6092.52
10649.6,6092.52
10649.6,5875.98
Z" /> 
<path style="fill:#000000; fill-opacity:1.0; 
stroke:#000000; stroke-width:0; stroke-opacity:1; 
stroke-linecap:round; stroke-linejoin:round;fill-rule:evenodd;"
d="M 11279.5,6190.94
11279.5,6407.48
10649.6,6407.48
10649.6,6190.94
Z" /> 
<path style="fill:#000000; fill-opacity:1.0; 
stroke:#000000; stroke-width:0; stroke-opacity:1; 
stroke-linecap:round; stroke-linejoin:round;fill-rule:evenodd;"
d="M 10502,7185.04
10285.4,7185.04
10285.4,6555.12
10502,6555.12
Z" /> 
<path style="fill:#000000; fill-opacity:1.0; 
stroke:#000000; stroke-width:0; stroke-opacity:1; 
stroke-linecap:round; stroke-linejoin:round;fill-rule:evenodd;"
d="M 10187,7185.04
9970.47,7185.04
9970.47,6555.12
10187,6555.12
Z" /> 
<path style="fill:#000000; fill-opacity:1.0; 
stroke:#000000; stroke-width:0; stroke-opacity:1; 
stroke-linecap:round; stroke-linejoin:round;fill-rule:evenodd;"
d="M 9872.05,7185.04
9655.51,7185.04
9655.51,6555.12
9872.05,6555.12
Z" /> 
<path style="fill:#000000; fill-opacity:1.0; 
stroke:#000000; stroke-width:0; stroke-opacity:1; 
stroke-linecap:round; stroke-linejoin:round;fill-rule:evenodd;"
d="M 9557.09,7185.04
9340.55,7185.04
9340.55,6555.12
9557.09,6555.12
Z" /> 
<path style="fill:#000000; fill-opacity:1.0; 
stroke:#000000; stroke-width:0; stroke-opacity:1; 
stroke-linecap:round; stroke-linejoin:round;fill-rule:evenodd;"
d="M 9242.13,7185.04
9025.59,7185.04
9025.59,6555.12
9242.13,6555.12
Z" /> 
<path style="fill:#000000; fill-opacity:1.0; 
stroke:#000000; stroke-width:0; stroke-opacity:1; 
stroke-linecap:round; stroke-linejoin:round;fill-rule:evenodd;"
d="M 8927.17,7185.04
8710.63,7185.04
8710.63,6555.12
8927.17,6555.12
Z" /> 
<path style="fill:#000000; fill-opacity:1.0; 
stroke:#000000; stroke-width:0; stroke-opacity:1; 
stroke-linecap:round; stroke-linejoin:round;fill-rule:evenodd;"
d="M 8612.2,7185.04
8395.67,7185.04
8395.67,6555.12
8612.2,6555.12
Z" /> 
<path style="fill:#000000; fill-opacity:1.0; 
stroke:#000000; stroke-width:0; stroke-opacity:1; 
stroke-linecap:round; stroke-linejoin:round;fill-rule:evenodd;"
d="M 8297.24,7185.04
8080.71,7185.04
8080.71,6555.12
8297.24,6555.12
Z" /> 
<path style="fill:#000000; fill-opacity:1.0; 
stroke:#000000; stroke-width:0; stroke-opacity:1; 
stroke-linecap:round; stroke-linejoin:round;fill-rule:evenodd;"
d="M 7933.07,6190.94
7933.07,6407.48
7303.15,6407.48
7303.15,6190.94
Z" /> 
<path style="fill:#000000; fill-opacity:1.0; 
stroke:#000000; stroke-width:0; stroke-opacity:1; 
stroke-linecap:round; stroke-linejoin:round;fill-rule:evenodd;"
d="M 7933.07,5875.98
7933.07,6092.52
7303.15,6092.52
7303.15,5875.98
Z" /> 
<path style="fill:#000000; fill-opacity:1.0; 
stroke:#000000; stroke-width:0; stroke-opacity:1; 
stroke-linecap:round; stroke-linejoin:round;fill-rule:evenodd;"
d="M 7933.07,5561.02
7933.07,5777.56
7303.15,5777.56
7303.15,5561.02
Z" /> 
<path style="fill:#000000; fill-opacity:1.0; 
stroke:#000000; stroke-width:0; stroke-opacity:1; 
stroke-linecap:round; stroke-linejoin:round;fill-rule:evenodd;"
d="M 7933.07,5246.06
7933.07,5462.6
7303.15,5462.6
7303.15,5246.06
Z" /> 
<path style="fill:#000000; fill-opacity:1.0; 
stroke:#000000; stroke-width:0; stroke-opacity:1; 
stroke-linecap:round; stroke-linejoin:round;fill-rule:evenodd;"
d="M 7933.07,4931.1
7933.07,5147.64
7303.15,5147.64
7303.15,4931.1
Z" /> 
<path style="fill:#000000; fill-opacity:1.0; 
stroke:#000000; stroke-width:0; stroke-opacity:1; 
stroke-linecap:round; stroke-linejoin:round;fill-rule:evenodd;"
d="M 7933.07,4616.14
7933.07,4832.68
7303.15,4832.68
7303.15,4616.14
Z" /> 
<path style="fill:#000000; fill-opacity:1.0; 
stroke:#000000; stroke-width:0; stroke-opacity:1; 
stroke-linecap:round; stroke-linejoin:round;fill-rule:evenodd;"
d="M 7933.07,4301.18
7933.07,4517.72
7303.15,4517.72
7303.15,4301.18
Z" /> 
<path style="fill:#000000; fill-opacity:1.0; 
stroke:#000000; stroke-width:0; stroke-opacity:1; 
stroke-linecap:round; stroke-linejoin:round;fill-rule:evenodd;"
d="M 7933.07,3986.22
7933.07,4202.76
7303.15,4202.76
7303.15,3986.22
Z" /> 
<path style="fill:#000000; fill-opacity:1.0; 
stroke:#000000; stroke-width:0; stroke-opacity:1; 
stroke-linecap:round; stroke-linejoin:round;fill-rule:evenodd;"
d="M 8297.24,3838.58
8080.71,3838.58
8080.71,3208.66
8297.24,3208.66
Z" /> 
<path style="fill:#000000; fill-opacity:1.0; 
stroke:#000000; stroke-width:0; stroke-opacity:1; 
stroke-linecap:round; stroke-linejoin:round;fill-rule:evenodd;"
d="M 8612.2,3838.58
8395.67,3838.58
8395.67,3208.66
8612.2,3208.66
Z" /> 
<path style="fill:#000000; fill-opacity:1.0; 
stroke:#000000; stroke-width:0; stroke-opacity:1; 
stroke-linecap:round; stroke-linejoin:round;fill-rule:evenodd;"
d="M 8927.17,3838.58
8710.63,3838.58
8710.63,3208.66
8927.17,3208.66
Z" /> 
<path style="fill:#000000; fill-opacity:1.0; 
stroke:#000000; stroke-width:0; stroke-opacity:1; 
stroke-linecap:round; stroke-linejoin:round;fill-rule:evenodd;"
d="M 9242.13,3838.58
9025.59,3838.58
9025.59,3208.66
9242.13,3208.66
Z" /> 
<path style="fill:#000000; fill-opacity:1.0; 
stroke:#000000; stroke-width:0; stroke-opacity:1; 
stroke-linecap:round; stroke-linejoin:round;fill-rule:evenodd;"
d="M 9557.09,3838.58
9340.55,3838.58
9340.55,3208.66
9557.09,3208.66
Z" /> 
<path style="fill:#000000; fill-opacity:1.0; 
stroke:#000000; stroke-width:0; stroke-opacity:1; 
stroke-linecap:round; stroke-linejoin:round;fill-rule:evenodd;"
d="M 9872.05,3838.58
9655.51,3838.58
9655.51,3208.66
9872.05,3208.66
Z" /> 
<path style="fill:#000000; fill-opacity:1.0; 
stroke:#000000; stroke-width:0; stroke-opacity:1; 
stroke-linecap:round; stroke-linejoin:round;fill-rule:evenodd;"
d="M 10187,3838.58
9970.47,3838.58
9970.47,3208.66
10187,3208.66
Z" /> 
<path style="fill:#000000; fill-opacity:1.0; 
stroke:#000000; stroke-width:0; stroke-opacity:1; 
stroke-linecap:round; stroke-linejoin:round;fill-rule:evenodd;"
d="M 10502,3838.58
10285.4,3838.58
10285.4,3208.66
10502,3208.66
Z" /> 
</g>
<g >
</g>
<g style="fill:#000000; fill-opacity:1.0; 
stroke:#000000; stroke-width:0; stroke-opacity:1; 
stroke-linecap:round; stroke-linejoin:round;">
<path style="fill:#000000; fill-opacity:1.0; 
stroke:#000000; stroke-width:0; stroke-opacity:1; 
stroke-linecap:round; stroke-linejoin:round;fill-rule:evenodd;"
d="M 11968.5,3740.16
12913.4,3740.16
12913.4,4527.56
11968.5,4527.56
Z" /> 
<path style="fill:#000000; fill-opacity:1.0; 
stroke:#000000; stroke-width:0; stroke-opacity:1; 
stroke-linecap:round; stroke-linejoin:round;fill-rule:evenodd;"
d="M 11968.5,5196.85
12913.4,5196.85
12913.4,5984.25
11968.5,5984.25
Z" /> 
</g>
<g >
</g>
<g style="fill:#000000; fill-opacity:1.0; 
stroke:#000000; stroke-width:0; stroke-opacity:1; 
stroke-linecap:round; stroke-linejoin:round;">
<circle cx="13533.5" cy="3858.27" r="157.48" /> 
</g>
<g style="fill:#000000; fill-opacity:1.0; 
stroke:#000000; stroke-width:39.3701; stroke-opacity:1; 
stroke-linecap:round; stroke-linejoin:round;">
</g>
<g style="fill:#000000; fill-opacity:1.0; 
stroke:#000000; stroke-width:0; stroke-opacity:1; 
stroke-linecap:round; stroke-linejoin:round;">
<circle cx="6614.17" cy="4842.52" r="157.48" /> 
</g>
<g style="fill:#000000; fill-opacity:1.0; 
stroke:#000000; stroke-width:39.3701; stroke-opacity:1; 
stroke-linecap:round; stroke-linejoin:round;">
</g>
<g style="fill:#000000; fill-opacity:1.0; 
stroke:#000000; stroke-width:0; stroke-opacity:1; 
stroke-linecap:round; stroke-linejoin:round;">
<circle cx="6574.8" cy="7007.87" r="157.48" /> 
</g>
<g style="fill:#000000; fill-opacity:1.0; 
stroke:#000000; stroke-width:39.3701; stroke-opacity:1; 
stroke-linecap:round; stroke-linejoin:round;">
</g>
<g style="fill:#000000; fill-opacity:1.0; 
stroke:#000000; stroke-width:0; stroke-opacity:1; 
stroke-linecap:round; stroke-linejoin:round;">
<circle cx="2440.94" cy="6102.36" r="157.48" /> 
</g>
<g style="fill:#000000; fill-opacity:1.0; 
stroke:#000000; stroke-width:39.3701; stroke-opacity:1; 
stroke-linecap:round; stroke-linejoin:round;">
</g>
<g style="fill:#000000; fill-opacity:1.0; 
stroke:#000000; stroke-width:0; stroke-opacity:1; 
stroke-linecap:round; stroke-linejoin:round;">
<circle cx="13149.6" cy="984.25" r="157.48" /> 
</g>
<g style="fill:#000000; fill-opacity:1.0; 
stroke:#000000; stroke-width:39.3701; stroke-opacity:1; 
stroke-linecap:round; stroke-linejoin:round;">
</g>
<g style="fill:#000000; fill-opacity:1.0; 
stroke:#000000; stroke-width:0; stroke-opacity:1; 
stroke-linecap:round; stroke-linejoin:round;">
<circle cx="11259.8" cy="7125.98" r="157.48" /> 
</g>
<g style="fill:#000000; fill-opacity:1.0; 
stroke:#000000; stroke-width:39.3701; stroke-opacity:1; 
stroke-linecap:round; stroke-linejoin:round;">
</g>
<g style="fill:#000000; fill-opacity:1.0; 
stroke:#000000; stroke-width:0; stroke-opacity:1; 
stroke-linecap:round; stroke-linejoin:round;">
<circle cx="3149.61" cy="6732.28" r="157.48" /> 
</g>
<g style="fill:#000000; fill-opacity:1.0; 
stroke:#000000; stroke-width:39.3701; stroke-opacity:1; 
stroke-linecap:round; stroke-linejoin:round;">
</g>
<g style="fill:#000000; fill-opacity:1.0; 
stroke:#000000; stroke-width:0; stroke-opacity:1; 
stroke-linecap:round; stroke-linejoin:round;">
<circle cx="2362.21" cy="6732.28" r="157.48" /> 
</g>
<g style="fill:#000000; fill-opacity:1.0; 
stroke:#000000; stroke-width:39.3701; stroke-opacity:1; 
stroke-linecap:round; stroke-linejoin:round;">
</g>
<g >
</g>
<g style="fill:#000000; fill-opacity:1.0; 
stroke:#000000; stroke-width:39.3701; stroke-opacity:1; 
stroke-linecap:round; stroke-linejoin:round;">
</g>
<g style="fill:#000000; fill-opacity:1.0; 
stroke:#000000; stroke-width:236.22; stroke-opacity:1; 
stroke-linecap:round; stroke-linejoin:round;">
</g>
<g style="fill:#000000; fill-opacity:0.0; 
stroke:#000000; stroke-width:236.22; stroke-opacity:1; 
stroke-linecap:round; stroke-linejoin:round;">
<path d="M13543 3543
L13110 3110
" />
<path d="M13543 3858
L13533 3858
" />
<path d="M13543 3858
L13543 3543
" />
<path d="M13543 4842
L13543 3858
" />
</g>
<g style="fill:#000000; fill-opacity:0.0; 
stroke:#000000; stroke-width:472.441; stroke-opacity:1; 
stroke-linecap:round; stroke-linejoin:round;">
<path d="M8811 1779
L8385 2204
" />
<path d="M8811 984
L8811 1779
" />
</g>
<g style="fill:#000000; fill-opacity:0.0; 
stroke:#000000; stroke-width:236.22; stroke-opacity:1; 
stroke-linecap:round; stroke-linejoin:round;">
<path d="M13690 3700
L13533 3858
" />
<path d="M13740 3651
L13690 3700
" />
</g>
<g style="fill:#000000; fill-opacity:0.0; 
stroke:#000000; stroke-width:157.48; stroke-opacity:1; 
stroke-linecap:round; stroke-linejoin:round;">
<path d="M13395 2765
L13740 3110
" />
<path d="M12204 2765
L13395 2765
" />
<path d="M11535 3434
L12204 2765
" />
</g>
<g style="fill:#000000; fill-opacity:0.0; 
stroke:#000000; stroke-width:236.22; stroke-opacity:1; 
stroke-linecap:round; stroke-linejoin:round;">
<path d="M13740 3110
L13740 3651
" />
</g>
<g style="fill:#000000; fill-opacity:0.0; 
stroke:#000000; stroke-width:157.48; stroke-opacity:1; 
stroke-linecap:round; stroke-linejoin:round;">
<path d="M11356 5354
L11535 5175
" />
<path d="M10964 5354
L11356 5354
" />
<path d="M11535 5175
L11535 3434
" />
</g>
<g style="fill:#000000; fill-opacity:0.0; 
stroke:#000000; stroke-width:236.22; stroke-opacity:1; 
stroke-linecap:round; stroke-linejoin:round;">
<path d="M8811 582
L8811 984
" />
<path d="M8435 206
L8811 582
" />
<path d="M787 3149
L1358 3149
" />
<path d="M4301 206
L8435 206
" />
<path d="M2194 2312
L2204 2322
" />
<path d="M2194 2312
L4301 206
" />
<path d="M1358 3149
L2194 2312
" />
<path d="M10954 5364
L10964 5354
" />
<path d="M8811 984
L9559 236
" />
<path d="M13769 764
L13769 3080
" />
<path d="M13769 3080
L13740 3110
" />
<path d="M9559 236
L13240 236
" />
<path d="M13240 236
L13769 764
" />
</g>
<g style="fill:#000000; fill-opacity:0.0; 
stroke:#000000; stroke-width:157.48; stroke-opacity:1; 
stroke-linecap:round; stroke-linejoin:round;">
<path d="M6811 5039
L6614 4842
" />
<path d="M7618 5039
L6811 5039
" />
</g>
<g style="fill:#000000; fill-opacity:0.0; 
stroke:#000000; stroke-width:236.22; stroke-opacity:1; 
stroke-linecap:round; stroke-linejoin:round;">
<path d="M6692 6299
L6879 6299
" />
<path d="M7194 5984
L7618 5984
" />
<path d="M6879 6299
L7194 5984
" />
</g>
<g style="fill:#000000; fill-opacity:0.0; 
stroke:#000000; stroke-width:472.441; stroke-opacity:1; 
stroke-linecap:round; stroke-linejoin:round;">
<path d="M7647 1147
L7811 984
" />
<path d="M7647 2204
L7647 1147
" />
</g>
<g style="fill:#000000; fill-opacity:0.0; 
stroke:#000000; stroke-width:98.4252; stroke-opacity:1; 
stroke-linecap:round; stroke-linejoin:round;">
<path d="M7647 2529
L7647 2204
" />
<path d="M7755 2637
L7647 2529
" />
<path d="M9119 2376
L8858 2637
" />
<path d="M8858 2637
L7755 2637
" />
</g>
<g style="fill:#000000; fill-opacity:0.0; 
stroke:#000000; stroke-width:236.22; stroke-opacity:1; 
stroke-linecap:round; stroke-linejoin:round;">
<path d="M6505 6299
L5797 7007
" />
<path d="M6692 6299
L6505 6299
" />
<path d="M5797 7007
L6574 7007
" />
<path d="M6574 7007
L6574 7007
" />
<path d="M2007 6535
L2440 6102
" />
<path d="M5718 7086
L2007 7086
" />
<path d="M2007 7086
L2007 6535
" />
<path d="M5797 7007
L5718 7086
" />
<path d="M9960 5039
L10964 5039
" />
<path d="M7618 5984
L9015 5984
" />
<path d="M9015 5984
L9960 5039
" />
<path d="M2598 5944
L2440 6102
" />
<path d="M2610 5932
L2598 5944
" />
<path d="M7647 2204
L7362 2204
" />
<path d="M3634 5932
L2610 5932
" />
<path d="M7362 2204
L3634 5932
" />
<path d="M12440 3129
L12421 3110
" />
<path d="M12440 4133
L12440 3129
" />
</g>
<g style="fill:#000000; fill-opacity:0.0; 
stroke:#000000; stroke-width:157.48; stroke-opacity:1; 
stroke-linecap:round; stroke-linejoin:round;">
<path d="M12362 4133
L12440 4133
" />
<path d="M11456 5866
L11456 5590
" />
<path d="M11771 4724
L12362 4133
" />
<path d="M11338 5984
L11456 5866
" />
<path d="M11771 5275
L11771 4724
" />
<path d="M10964 5984
L11338 5984
" />
<path d="M11456 5590
L11771 5275
" />
<path d="M11437 6299
L11692 6043
" />
<path d="M10964 6299
L11437 6299
" />
<path d="M11811 5590
L12440 5590
" />
<path d="M11692 5708
L11811 5590
" />
<path d="M11692 6043
L11692 5708
" />
</g>
<g style="fill:#000000; fill-opacity:0.0; 
stroke:#000000; stroke-width:236.22; stroke-opacity:1; 
stroke-linecap:round; stroke-linejoin:round;">
<path d="M13484 5590
L13543 5531
" />
<path d="M12440 5590
L13484 5590
" />
<path d="M12992 1141
L13149 984
" />
<path d="M10964 3169
L12992 1141
" />
<path d="M10964 4094
L10964 3169
" />
</g>
<g style="fill:#000000; fill-opacity:0.0; 
stroke:#000000; stroke-width:125.984; stroke-opacity:1; 
stroke-linecap:round; stroke-linejoin:round;">
<path d="M9133 7233
L9229 7328
" />
<path d="M9133 6870
L9133 7233
" />
<path d="M11057 7328
L11259 7125
" />
<path d="M9229 7328
L11057 7328
" />
</g>
<g style="fill:#000000; fill-opacity:0.0; 
stroke:#000000; stroke-width:98.4252; stroke-opacity:1; 
stroke-linecap:round; stroke-linejoin:round;">
<path d="M5295 5610
L6692 5610
" />
<path d="M4441 6464
L5295 5610
" />
<path d="M3149 6732
L3417 6464
" />
<path d="M3417 6464
L4441 6464
" />
<path d="M8818 3110
L8818 3523
" />
<path d="M8700 2992
L8818 3110
" />
<path d="M6594 5610
L6062 5078
" />
<path d="M6692 5610
L6594 5610
" />
<path d="M6062 5078
L6062 4163
" />
<path d="M6062 4163
L7234 2992
" />
<path d="M7234 2992
L8700 2992
" />
<path d="M2584 6732
L2362 6732
" />
<path d="M3138 6178
L2584 6732
" />
<path d="M9133 3110
L8838 2814
" />
<path d="M9133 3523
L9133 3110
" />
<path d="M8838 2814
L7155 2814
" />
<path d="M3791 6178
L3138 6178
" />
<path d="M7155 2814
L3791 6178
" />
</g>
<g style="fill:#000000; fill-opacity:0.0; 
stroke:#000000; stroke-width:157.48; stroke-opacity:1; 
stroke-linecap:round; stroke-linejoin:round;">
<path d="M11811 1160
L11811 984
" />
<path d="M10078 3523
L10078 2893
" />
<path d="M10078 2893
L11811 1160
" />
<path d="M9763 2874
L9763 3523
" />
<path d="M10811 1826
L9763 2874
" />
<path d="M10811 984
L10811 1826
" />
<path d="M9811 1685
L9606 1889
" />
<path d="M9811 984
L9811 1685
" />
<path d="M9448 2854
L9448 3523
" />
<path d="M9606 2697
L9448 2854
" />
<path d="M9606 1889
L9606 2697
" />
</g>
<g style="fill:#000000; fill-opacity:0.0; 
stroke:#000000; stroke-width:236.22; stroke-opacity:1; 
stroke-linecap:round; stroke-linejoin:round;">
<path d="M8818 6870
L8818 7273
" />
<path d="M8503 6870
L8503 7273
" />
</g>
<g style="fill:#000000; fill-opacity:0.0; 
stroke:#000000; stroke-width:157.48; stroke-opacity:1; 
stroke-linecap:round; stroke-linejoin:round;">
<path d="M8188 6870
L8188 6889
" />
</g>
<g style="fill:#000000; fill-opacity:0.0; 
stroke:#000000; stroke-width:236.22; stroke-opacity:1; 
stroke-linecap:round; stroke-linejoin:round;">
<path d="M8188 6870
L8188 7273
" />
<path d="M7755 6299
L7874 6417
" />
<path d="M7618 6299
L7755 6299
" />
<path d="M7874 6417
L7874 7273
" />
</g>
<g >
</g>
<g style="fill:#000000; fill-opacity:0.0; 
stroke:#000000; stroke-width:236.22; stroke-opacity:1; 
stroke-linecap:round; stroke-linejoin:round;">
</g>
<g style="fill:#000000; fill-opacity:1.0; 
stroke:#000000; stroke-width:98.4252; stroke-opacity:1; 
stroke-linecap:round; stroke-linejoin:round;">
<path style="fill:#000000; fill-opacity:1.0; 
stroke:#000000; stroke-width:98.4252; stroke-opacity:1; 
stroke-linecap:round; stroke-linejoin:round;fill-rule:evenodd;"
d="M 13628.4,162.72
13672.4,176.003
13713,197.576
13748.6,226.622
13777.9,262.03
13799.7,302.455
13813.3,346.352
13818.9,399.301
13818.9,4402.27
13779.2,4390.22
13730.3,4385.41
13656.4,4386.61
13594.1,4448.92
13594.1,4791.73
13602,4791.73
13602,4893.31
13594.1,4893.31
13594.1,4901.18
13492.5,4901.18
13492.5,4893.31
13484.6,4893.31
13484.6,4791.73
13492.5,4791.73
13492.5,4448.92
13430.2,4386.61
13356.3,4385.41
13307.4,4390.22
13260.5,4404.47
13217.2,4427.61
13179.2,4458.75
13161.7,4480.06
13159.2,4479.29
13149.6,4478.35
13061.7,4478.35
13061.7,3740.16
13058.9,3711.22
13050.4,3683.39
13036.7,3657.74
13018.3,3635.26
12995.8,3616.81
12970.2,3603.1
12942.3,3594.66
12913.4,3591.81
12706.7,3591.81
12706.7,3450.22
12726.5,3474.32
12764.4,3505.46
12807.7,3528.6
12854.7,3542.85
12903.5,3547.66
12997.1,3546.46
13059.4,3484.15
13059.4,3161.02
13161,3161.02
13161,3484.15
13223.3,3546.46
13316.9,3547.66
13365.8,3542.85
13412.8,3528.6
13456.1,3505.46
13494,3474.32
13525.1,3436.37
13548.3,3393.08
13562.5,3346.1
13567.3,3297.24
13566.1,3223.33
13503.8,3161.02
13161,3161.02
13059.4,3161.02
13051.6,3161.02
13051.6,3059.45
13059.4,3059.45
13059.4,2736.32
13161,2736.32
13161,3059.45
13503.8,3059.45
13566.1,2997.15
13567.3,2923.23
13562.5,2874.37
13548.3,2827.4
13525.1,2784.1
13494,2746.16
13456.1,2715.01
13412.8,2691.87
13365.8,2677.62
13316.9,2672.81
13223.3,2674.02
13161,2736.32
13059.4,2736.32
12997.1,2674.02
12903.5,2672.81
12854.7,2677.62
12807.7,2691.87
12764.4,2715.01
12726.5,2746.16
12695.3,2784.1
12675.5,2821.14
12668.8,2815.64
12627,2793.29
12581.6,2779.52
12534.4,2774.88
12308.1,2774.88
12260.9,2779.52
12215.5,2793.29
12173.7,2815.64
12137.1,2845.71
12107,2882.36
12084.6,2924.18
12070.9,2969.55
12066.2,3016.73
12066.2,3203.74
12070.9,3250.92
12084.6,3296.29
12107,3338.11
12137.1,3374.76
12173.7,3404.84
12175.2,3405.63
12175.2,3591.81
11968.5,3591.81
11939.6,3594.66
11911.7,3603.1
11886.1,3616.81
11863.6,3635.26
11845.2,3657.74
11831.4,3683.39
11823,3711.22
11820.2,3740.16
11820.2,4355.76
11619.4,4556.47
11610.8,4563.56
11603.7,4572.2
11582.5,4598.03
11561.5,4637.36
11548.6,4680.03
11544.2,4724.41
11545.3,4735.53
11545.3,5181.82
11525.4,5201.73
11524.9,5195.86
11510.4,5148.96
11487,5105.8
11455.6,5068.02
11427.9,5045.5
11427.9,4931.1
11425,4902.16
11418.9,4881.89
11425,4861.62
11427.9,4832.68
11427.9,4616.14
11425,4587.2
11418.9,4566.93
11425,4546.66
11427.9,4517.72
11427.9,4301.18
11425,4272.24
11418.9,4251.97
11425,4231.7
11427.9,4202.76
11427.9,3986.22
11425,3957.28
11416.6,3929.45
11402.9,3903.8
11384.4,3881.32
11361.9,3862.87
11336.3,3849.16
11308.5,3840.72
11279.5,3837.87
11230.3,3837.87
11230.3,3279.36
13230.4,1279.27
13238.6,1277.64
13294.1,1254.64
13344.1,1221.25
13386.6,1178.75
13420,1128.78
13443,1073.25
13454.7,1014.3
13454.7,954.198
13443,895.25
13420,839.722
13386.6,789.748
13344.1,747.249
13294.1,713.858
13238.6,690.857
13179.7,679.132
13119.6,679.132
13060.6,690.857
13005.1,713.858
12955.1,747.249
12912.6,789.748
12879.2,839.722
12856.2,895.25
12854.6,903.449
10785.9,2972.15
10775.7,2980.47
10767.4,2990.6
10767.4,2990.61
10742.5,3020.93
10717.9,3067.1
10702.7,3117.19
10697.5,3169.29
10698.8,3182.34
10698.8,3837.87
10650.3,3837.87
10650.3,3208.66
10647.5,3179.72
10639,3151.89
10625.3,3126.24
10606.9,3103.76
10584.4,3085.31
10558.7,3071.6
10530.9,3063.16
10502,3060.31
10305.1,3060.31
10305.1,2986.9
11825.5,1466.54
11858.5,1466.54
11951.7,1448
12039.5,1411.65
12118.5,1358.87
12185.6,1291.69
12238.4,1212.7
12274.8,1124.93
12293.3,1031.75
12293.3,936.751
12274.8,843.575
12238.4,755.805
12185.6,676.814
12118.5,609.638
12039.5,556.858
11951.7,520.502
11858.5,501.969
11763.5,501.969
11670.3,520.502
11582.6,556.858
11503.6,609.638
11436.4,676.814
11383.6,755.805
11347.3,843.575
11328.7,936.751
11328.7,1031.75
11347.3,1124.93
11383.6,1212.7
11405.8,1245.9
11037.4,1614.32
11037.4,1412.5
11039.5,1411.65
11118.5,1358.87
11185.6,1291.69
11238.4,1212.7
11274.8,1124.93
11293.3,1031.75
11293.3,936.751
11274.8,843.575
11238.4,755.805
11185.6,676.814
11118.5,609.638
11039.5,556.858
10951.7,520.502
10858.5,501.969
10763.5,501.969
10670.3,520.502
10582.6,556.858
10503.6,609.638
10436.4,676.814
10383.6,755.805
10347.3,843.575
10328.7,936.751
10328.7,1031.75
10347.3,1124.93
10383.6,1212.7
10436.4,1291.69
10503.6,1358.87
10582.6,1411.65
10584.6,1412.5
10584.6,1733
9832.68,2484.97
9832.68,2137.66
9923.47,2046.86
9953.55,2010.21
9975.9,1968.4
9989.66,1923.03
9994.31,1875.84
9989.66,1828.66
9988.68,1825.41
10000.2,1811.42
10021.2,1772.09
10023.8,1763.39
10034.1,1729.42
10037.4,1696.16
10037.4,1696.16
10038.5,1685.04
10037.4,1673.92
10037.4,1412.5
10039.5,1411.65
10118.5,1358.87
10185.6,1291.69
10238.4,1212.7
10274.8,1124.93
10293.3,1031.75
10293.3,936.751
10274.8,843.575
10238.4,755.805
10185.6,676.814
10118.5,609.638
10039.5,556.858
9951.7,520.502
9858.52,501.969
9763.52,501.969
9670.35,520.502
9582.58,556.858
9503.59,609.638
9436.41,676.814
9383.63,755.805
9363.65,804.047
9339.14,735.285
9280.42,637.039
9203.67,552.135
9111.82,483.837
9008.41,434.77
8952.18,417.713
8861.81,465.176
8861.81,933.465
8869.69,933.465
8869.69,1035.04
8861.81,1035.04
8861.81,1503.33
8952.18,1550.79
9008.41,1533.73
9111.82,1484.67
9203.67,1416.37
9280.42,1331.47
9339.14,1233.22
9363.65,1164.46
9383.63,1212.7
9436.41,1291.69
9503.59,1358.87
9582.58,1411.65
9584.65,1412.5
9584.65,1505.26
9573.03,1506.4
9527.66,1520.16
9485.85,1542.51
9449.2,1572.59
9289.13,1732.66
9259.05,1769.31
9236.7,1811.13
9222.94,1856.5
9218.29,1903.68
9222.94,1950.87
9236.7,1996.24
9249.45,2020.1
9225.59,2007.34
9180.22,1993.58
9133.04,1988.93
9085.86,1993.58
9040.48,2007.34
8998.67,2029.69
8962.02,2059.77
8826.97,2194.82
8826.97,2153.94
8764.67,2153.94
8826.97,2091.63
8828.17,1929.13
8823.36,1880.28
8809.11,1833.3
8785.97,1790.01
8754.83,1752.06
8716.88,1720.92
8673.59,1697.78
8626.61,1683.53
8577.76,1678.72
8498.92,1679.92
8436.61,1742.22
8436.61,2153.94
8444.49,2153.94
8444.49,2255.51
8436.61,2255.51
8436.61,2263.39
8335.04,2263.39
8335.04,2255.51
8327.17,2255.51
8327.17,2153.94
8335.04,2153.94
8335.04,1742.22
8272.74,1679.92
8193.9,1678.72
8145.04,1683.53
8098.07,1697.78
8054.77,1720.92
8031.5,1740.02
8031.5,1467.25
8145.67,1467.25
8174.61,1464.4
8202.44,1455.96
8228.09,1442.25
8250.57,1423.8
8269.02,1401.32
8282.73,1375.67
8291.17,1347.84
8294.02,1318.9
8294.02,1251.82
8341.62,1331.47
8418.38,1416.37
8510.23,1484.67
8613.63,1533.73
8669.87,1550.79
8760.24,1503.33
8760.24,1035.04
8752.36,1035.04
8752.36,933.465
8760.24,933.465
8760.24,465.176
8669.87,417.713
8613.63,434.77
8510.23,483.837
8418.38,552.135
8341.62,637.039
8294.02,716.687
8294.02,649.606
8291.17,620.664
8282.73,592.835
8269.02,567.186
8250.57,544.706
8228.09,526.256
8202.44,512.547
8174.61,504.105
8145.67,501.254
7476.38,501.254
7447.44,504.105
7419.61,512.547
7393.96,526.256
7371.48,544.706
7353.03,567.186
7339.32,592.835
7330.88,620.664
7328.03,649.606
7328.03,932.007
7326.93,933.346
7295.09,992.907
7291.28,1000.03
7269.33,1072.39
7261.92,1147.64
7263.78,1166.5
7263.78,1956.88
7260.01,1958.02
7240.59,1968.4
7213.85,1982.69
7173.38,2015.9
7165.06,2026.04
3524,5667.1
2623.51,5667.1
2610.46,5665.82
2597.41,5667.1
2597.4,5667.1
2563.8,5670.41
2558.36,5670.95
2546.7,5674.48
2508.27,5686.14
2462.1,5710.82
2421.64,5744.03
2413.32,5754.17
2360.14,5807.34
2351.95,5808.97
2296.42,5831.97
2246.44,5865.36
2203.94,5907.86
2170.55,5957.83
2147.55,6013.36
2145.92,6021.56
1829.2,6338.29
1819.06,6346.61
1810.74,6356.74
1810.74,6356.75
1785.85,6387.07
1761.17,6433.24
1745.98,6483.33
1740.85,6535.43
1742.13,6548.48
1742.13,7073.57
1740.85,7086.62
1745.98,7138.72
1761.17,7188.81
1785.85,7234.98
1819.06,7275.44
1850.53,7301.27
1859.52,7308.65
1886.06,7322.83
401.403,7322.83
347.966,7317.59
303.972,7304.31
263.397,7282.74
227.783,7253.69
198.491,7218.29
176.634,7177.86
163.045,7133.96
157.48,7081.02
157.48,3484.25
202.337,3484.25
207.149,3533.11
221.399,3580.08
244.541,3623.38
275.683,3661.32
313.631,3692.47
356.925,3715.61
403.902,3729.86
452.756,3734.67
674.311,3733.46
736.614,3671.16
736.614,3200.39
838.189,3200.39
838.189,3671.16
900.492,3733.46
1122.05,3734.67
1170.9,3729.86
1217.88,3715.61
1261.17,3692.47
1299.12,3661.32
1330.26,3623.38
1353.4,3580.08
1367.65,3533.11
1372.47,3484.25
1371.26,3262.7
1308.96,3200.39
838.189,3200.39
736.614,3200.39
265.846,3200.39
203.543,3262.7
202.337,3484.25
157.48,3484.25
157.48,2814.96
202.337,2814.96
203.543,3036.52
265.846,3098.82
736.614,3098.82
736.614,2628.05
838.189,2628.05
838.189,3098.82
1308.96,3098.82
1371.26,3036.52
1372.47,2814.96
1367.65,2766.11
1353.4,2719.13
1330.26,2675.84
1299.12,2637.89
1261.17,2606.75
1217.88,2583.6
1170.9,2569.35
1122.05,2564.54
900.492,2565.75
838.189,2628.05
736.614,2628.05
674.311,2565.75
452.756,2564.54
403.902,2569.35
356.925,2583.6
313.631,2606.75
275.683,2637.89
244.541,2675.84
221.399,2719.13
207.149,2766.11
202.337,2814.96
157.48,2814.96
157.48,1397.64
304.404,1397.64
304.404,2066.93
307.254,2095.87
315.696,2123.7
329.406,2149.35
347.855,2171.83
370.336,2190.28
395.984,2203.99
423.814,2212.43
452.756,2215.28
1122.05,2215.28
1150.99,2212.43
1178.82,2203.99
1204.47,2190.28
1226.95,2171.83
1245.4,2149.35
1259.11,2123.7
1267.55,2095.87
1270.4,2066.93
1270.4,1397.64
1267.55,1368.7
1259.11,1340.87
1245.4,1315.22
1226.95,1292.74
1204.47,1274.29
1178.82,1260.58
1150.99,1252.14
1122.05,1249.29
452.756,1249.29
423.814,1252.14
395.984,1260.58
370.336,1274.29
347.855,1292.74
329.406,1315.22
315.696,1340.87
307.254,1368.7
304.404,1397.64
157.48,1397.64
157.48,684.783
305.118,684.783
305.118,779.784
323.652,872.96
360.007,960.73
412.788,1039.72
479.964,1106.9
558.955,1159.68
646.725,1196.03
739.901,1214.57
834.902,1214.57
928.078,1196.03
1015.85,1159.68
1094.84,1106.9
1162.02,1039.72
1214.8,960.73
1251.15,872.96
1269.69,779.784
1269.69,684.783
1251.15,591.607
1214.8,503.837
1162.02,424.846
1094.84,357.67
1015.85,304.889
928.078,268.534
834.902,250
739.901,250
646.725,268.534
558.955,304.889
479.964,357.67
412.788,424.846
360.007,503.837
323.652,591.607
305.118,684.783
157.48,684.783
157.48,401.404
162.72,347.966
176.003,303.971
197.576,263.397
226.622,227.783
262.03,198.491
302.455,176.634
346.352,163.045
399.297,157.48
13575,157.48
Z" /> 
<path style="fill:#000000; fill-opacity:1.0; 
stroke:#000000; stroke-width:98.4252; stroke-opacity:1; 
stroke-linecap:round; stroke-linejoin:round;fill-rule:evenodd;"
d="M 7932.36,3208.66
7932.36,3837.87
7303.15,3837.87
7274.21,3840.72
7246.38,3849.16
7220.73,3862.87
7198.25,3881.32
7179.8,3903.8
7166.09,3929.45
7157.65,3957.28
7154.8,3986.22
7154.8,4202.76
7157.65,4231.7
7163.8,4251.97
7157.65,4272.24
7154.8,4301.18
7154.8,4517.72
7157.65,4546.66
7163.8,4566.93
7157.65,4587.2
7154.8,4616.14
7154.8,4730.54
7127.05,4753.06
7095.7,4790.84
7072.32,4834
7057.81,4880.9
7053.94,4926.28
7116.24,4988.58
7567.32,4988.58
7567.32,4981.03
7668.9,4981.03
7668.9,4988.58
7676.77,4988.58
7676.77,5090.16
7668.9,5090.16
7668.9,5097.71
7567.32,5097.71
7567.32,5090.16
7116.24,5090.16
7053.94,5152.46
7057.81,5197.84
7072.32,5244.74
7095.7,5287.9
7127.05,5325.68
7154.8,5348.2
7154.8,5462.6
7157.65,5491.54
7163.8,5511.81
7157.65,5532.08
7154.8,5561.02
7154.8,5721.16
7147.72,5721.86
7142.79,5722.35
7139.23,5723.43
7092.7,5737.54
7046.53,5762.22
7046.53,5762.22
7046.53,5762.22
7019.42,5784.46
7023.63,5770.61
7028.27,5723.43
7028.27,5497.05
7023.63,5449.86
7009.86,5404.49
6987.51,5362.68
6957.44,5326.03
6920.79,5295.95
6878.97,5273.6
6833.6,5259.84
6786.42,5255.19
6599.41,5255.19
6552.23,5259.84
6529.4,5266.76
6259.84,4997.2
6259.84,4244.92
6757.87,3746.89
6757.87,3762.84
6766.72,3807.34
6784.09,3849.25
6809.29,3886.97
6841.37,3919.06
6879.09,3944.26
6921.01,3961.62
6965.5,3970.47
7010.87,3970.47
7055.37,3961.62
7097.28,3944.26
7135.01,3919.06
7167.09,3886.97
7192.29,3849.25
7209.65,3807.34
7218.5,3762.84
7218.5,3717.47
7209.65,3672.98
7192.29,3631.06
7167.09,3593.34
7135.01,3561.26
7097.28,3536.05
7055.37,3518.69
7010.87,3509.84
6994.92,3509.84
7315.79,3188.98
7934.3,3188.98
Z" /> 
<path style="fill:#000000; fill-opacity:1.0; 
stroke:#000000; stroke-width:98.4252; stroke-opacity:1; 
stroke-linecap:round; stroke-linejoin:round;fill-rule:evenodd;"
d="M 11015.4,5303.54
11023.2,5303.54
11023.2,5405.12
11015.4,5405.12
11015.4,5412.67
10913.8,5412.67
10913.8,5405.12
10905.9,5405.12
10905.9,5305.11
10977.6,5305.11
11015.4,5301.4
Z" /> 
</g>
</g> 
</svg>
