M48
; DRILL file {KiCad (5.1.2)-2} date 2019/9/12   9:52:05
; FORMAT={-:-/ absolute / inch / decimal}
; #@! TF.CreationDate,2019-09-12T09:52:05+10:00
; #@! TF.GenerationSoftware,Kicad,Pcbnew,(5.1.2)-2
FMAT,2
INCH
T1C0.0157
T2C0.0197
T3C0.0217
T4C0.0315
T5C0.0354
T6C0.0394
T7C0.0591
T8C0.0669
T9C0.1280
T10C0.0866
%
G90
G05
T1
X4.3661Y-4.6339
X4.3937Y-4.5709
X4.4291Y-4.2165
X4.4606Y-3.1535
X4.5Y-3.1732
X4.5433Y-3.2008
X4.5433Y-4.626
X4.5492Y-4.6673
X4.563Y-4.378
X4.5838Y-4.0778
X4.6Y-4.05
X4.6417Y-3.4016
X4.6614Y-3.8976
X4.8661Y-3.8504
X4.8661Y-4.6073
X4.8978Y-4.6071
X4.9134Y-3.8543
X4.9467Y-3.8178
X4.9737Y-3.8341
X5.1535Y-3.2992
X5.1772Y-3.2362
X5.2047Y-2.8425
X5.2087Y-3.126
X5.2244Y-4.3465
X5.2283Y-4.4724
X5.2599Y-3.0955
X5.4882Y-4.1378
X5.5157Y-4.2953
X5.5226Y-4.3583
X5.689Y-4.6919
X5.7323Y-2.7924
X5.7441Y-3.1496
X5.7853Y-4.5796
X5.8701Y-4.122
X5.8701Y-4.2362
X5.9449Y-4.4882
X5.9528Y-4.3622
X6.0079Y-4.4252
X6.1102Y-4.0079
X6.1417Y-3.1969
X6.2026Y-3.2702
X6.374Y-4.4173
X6.4331Y-4.063
X6.4488Y-3.9764
X6.4606Y-3.9016
X6.4646Y-4.0157
X6.5236Y-3.9409
X6.5709Y-3.2638
X6.6142Y-3.3071
X6.7087Y-3.5039
X6.7913Y-3.2441
X6.8465Y-2.9331
X6.8465Y-2.9843
X6.9331Y-4.1102
X6.9528Y-3.5984
X6.9921Y-3.5984
X6.9961Y-3.9055
X7.0276Y-4.4331
X7.0709Y-2.9331
X7.0709Y-2.9803
X7.122Y-4.1654
X7.1614Y-4.4646
X7.1693Y-4.5039
X7.185Y-4.1024
X7.2087Y-4.4173
X7.2126Y-4.5315
X7.2323Y-4.2874
X7.2323Y-4.4409
T4
X5.8563Y-3.5402
X5.8563Y-3.7323
X5.3563Y-3.1902
X5.3563Y-3.2902
X5.3563Y-3.3902
X5.3563Y-3.4902
X5.3563Y-3.5902
X5.3563Y-3.6902
X5.3563Y-3.7902
X5.3563Y-3.8902
X5.3563Y-3.9902
X5.3563Y-4.0902
X5.3563Y-4.1902
X5.3563Y-4.2902
X5.3563Y-4.3902
X5.3563Y-4.4902
X5.6563Y-3.1902
X5.6563Y-3.2902
X5.6563Y-3.3902
X5.6563Y-3.4902
X5.6563Y-3.5902
X5.6563Y-3.6902
X5.6563Y-3.7902
X5.6563Y-3.8902
X5.6563Y-3.9902
X5.6563Y-4.0902
X5.6563Y-4.1902
X5.6563Y-4.2902
X5.6563Y-4.3902
X5.6563Y-4.4902
T5
X4.3913Y-3.6575
X4.3913Y-3.7378
X4.3913Y-3.8181
X4.3913Y-3.8984
X4.4613Y-3.6189
X4.4613Y-3.6992
X4.4613Y-3.7795
X4.4613Y-3.8598
T6
X4.9354Y-2.9429
X5.0354Y-2.9429
X5.1354Y-2.9429
X5.2354Y-2.9429
X4.7105Y-4.7682
X4.8105Y-4.7682
X4.9105Y-4.7682
X5.0105Y-4.7682
X5.1105Y-4.7682
X5.2105Y-4.7682
X5.3105Y-4.7682
X5.4105Y-4.7682
X5.5105Y-4.7682
X5.6105Y-4.7682
X5.7105Y-4.7682
X5.8105Y-4.7682
X5.8173Y-2.9429
X5.9173Y-2.9429
X6.0173Y-2.9429
X6.1173Y-2.9429
X6.2173Y-2.9429
X6.3173Y-2.9429
X6.4173Y-2.9429
X6.5173Y-2.9429
X6.6173Y-2.9429
X5.874Y-2.6457
X6.0709Y-2.6457
X6.2677Y-2.6457
X6.4646Y-2.6457
X4.3071Y-5.063
X4.5039Y-5.063
X5.367Y-2.9429
X5.467Y-2.9429
X5.567Y-2.9429
X5.667Y-2.9429
X6.7063Y-4.1902
X6.8063Y-4.1902
X6.9063Y-4.1902
X7.0063Y-4.1902
X5.0236Y-2.6457
X5.2205Y-2.6457
X5.4173Y-2.6457
X5.6142Y-2.6457
X4.25Y-4.77
X4.35Y-4.77
X4.45Y-4.77
X4.55Y-4.77
X5.9634Y-4.7646
X6.0634Y-4.7646
X6.1634Y-4.7646
X6.2634Y-4.7646
X6.3634Y-4.7646
X6.4634Y-4.7646
X6.5634Y-4.7646
X6.6634Y-4.7646
X6.7634Y-4.7646
X6.8634Y-4.7646
X6.9634Y-4.7646
X7.0634Y-4.7646
X7.1634Y-4.7646
X7.2634Y-4.7646
X7.3634Y-4.7646
X7.4634Y-4.7646
X6.0236Y-5.063
X6.2205Y-5.063
X6.4173Y-5.063
X6.6142Y-5.063
X6.811Y-5.063
X7.0079Y-5.063
X7.2047Y-5.063
X7.4016Y-5.063
X4.7638Y-5.063
X4.9606Y-5.063
X5.1575Y-5.063
X5.3543Y-5.063
X5.5512Y-5.063
X5.748Y-5.063
T7
X6.9563Y-2.7402
T8
X6.8563Y-2.6402
X6.8563Y-2.8402
X7.0563Y-2.6402
X7.0563Y-2.8402
T9
X4.2913Y-3.5091
X4.2913Y-4.0091
T10
X6.6496Y-4.4449
X4.9803Y-3.5787
T2
G00X4.1624Y-3.0669
M15
G01X4.188Y-3.0669
M16
G05
G00X4.1624Y-3.3425
M15
G01X4.188Y-3.3425
M16
G05
T3
G00X4.2815Y-3.1004
M15
G01X4.2815Y-3.1122
M16
G05
G00X4.2815Y-3.2972
M15
G01X4.2815Y-3.3091
M16
G05
T6
G00X4.4488Y-2.6496
M15
G01X4.4488Y-2.7283
M16
G05
G00X4.5276Y-2.874
M15
G01X4.6063Y-2.874
M16
G05
G00X4.685Y-2.6496
M15
G01X4.685Y-2.7283
M16
G05
T0
M30
