G04 #@! TF.GenerationSoftware,KiCad,Pcbnew,(5.1.5)-3*
G04 #@! TF.CreationDate,2020-05-04T21:38:57+10:00*
G04 #@! TF.ProjectId,BoSL,426f534c-2e6b-4696-9361-645f70636258,0.4*
G04 #@! TF.SameCoordinates,Original*
G04 #@! TF.FileFunction,Legend,Bot*
G04 #@! TF.FilePolarity,Positive*
%FSLAX46Y46*%
G04 Gerber Fmt 4.6, Leading zero omitted, Abs format (unit mm)*
G04 Created by KiCad (PCBNEW (5.1.5)-3) date 2020-05-04 21:38:57*
%MOMM*%
%LPD*%
G04 APERTURE LIST*
%ADD10C,0.150000*%
%ADD11C,0.300000*%
%ADD12C,0.450000*%
%ADD13C,0.120000*%
G04 APERTURE END LIST*
D10*
X136202190Y-66402380D02*
X136164095Y-66288095D01*
X136164095Y-66097619D01*
X136202190Y-66021428D01*
X136240285Y-65983333D01*
X136316476Y-65945238D01*
X136392666Y-65945238D01*
X136468857Y-65983333D01*
X136506952Y-66021428D01*
X136545047Y-66097619D01*
X136583142Y-66250000D01*
X136621238Y-66326190D01*
X136659333Y-66364285D01*
X136735523Y-66402380D01*
X136811714Y-66402380D01*
X136887904Y-66364285D01*
X136926000Y-66326190D01*
X136964095Y-66250000D01*
X136964095Y-66059523D01*
X136926000Y-65945238D01*
X136240285Y-65145238D02*
X136202190Y-65183333D01*
X136164095Y-65297619D01*
X136164095Y-65373809D01*
X136202190Y-65488095D01*
X136278380Y-65564285D01*
X136354571Y-65602380D01*
X136506952Y-65640476D01*
X136621238Y-65640476D01*
X136773619Y-65602380D01*
X136849809Y-65564285D01*
X136926000Y-65488095D01*
X136964095Y-65373809D01*
X136964095Y-65297619D01*
X136926000Y-65183333D01*
X136887904Y-65145238D01*
X136164095Y-64421428D02*
X136164095Y-64802380D01*
X136964095Y-64802380D01*
X136964095Y-74250952D02*
X136964095Y-73755714D01*
X136659333Y-74022380D01*
X136659333Y-73908095D01*
X136621238Y-73831904D01*
X136583142Y-73793809D01*
X136506952Y-73755714D01*
X136316476Y-73755714D01*
X136240285Y-73793809D01*
X136202190Y-73831904D01*
X136164095Y-73908095D01*
X136164095Y-74136666D01*
X136202190Y-74212857D01*
X136240285Y-74250952D01*
X136240285Y-73412857D02*
X136202190Y-73374761D01*
X136164095Y-73412857D01*
X136202190Y-73450952D01*
X136240285Y-73412857D01*
X136164095Y-73412857D01*
X136964095Y-73108095D02*
X136964095Y-72612857D01*
X136659333Y-72879523D01*
X136659333Y-72765238D01*
X136621238Y-72689047D01*
X136583142Y-72650952D01*
X136506952Y-72612857D01*
X136316476Y-72612857D01*
X136240285Y-72650952D01*
X136202190Y-72689047D01*
X136164095Y-72765238D01*
X136164095Y-72993809D01*
X136202190Y-73070000D01*
X136240285Y-73108095D01*
X136964095Y-72384285D02*
X136164095Y-72117619D01*
X136964095Y-71850952D01*
X136202190Y-68961428D02*
X136164095Y-68847142D01*
X136164095Y-68656666D01*
X136202190Y-68580476D01*
X136240285Y-68542380D01*
X136316476Y-68504285D01*
X136392666Y-68504285D01*
X136468857Y-68542380D01*
X136506952Y-68580476D01*
X136545047Y-68656666D01*
X136583142Y-68809047D01*
X136621238Y-68885238D01*
X136659333Y-68923333D01*
X136735523Y-68961428D01*
X136811714Y-68961428D01*
X136887904Y-68923333D01*
X136926000Y-68885238D01*
X136964095Y-68809047D01*
X136964095Y-68618571D01*
X136926000Y-68504285D01*
X136164095Y-68161428D02*
X136964095Y-68161428D01*
X136964095Y-67970952D01*
X136926000Y-67856666D01*
X136849809Y-67780476D01*
X136773619Y-67742380D01*
X136621238Y-67704285D01*
X136506952Y-67704285D01*
X136354571Y-67742380D01*
X136278380Y-67780476D01*
X136202190Y-67856666D01*
X136164095Y-67970952D01*
X136164095Y-68161428D01*
X136392666Y-67399523D02*
X136392666Y-67018571D01*
X136164095Y-67475714D02*
X136964095Y-67209047D01*
X136164095Y-66942380D01*
X136926000Y-71139523D02*
X136964095Y-71215714D01*
X136964095Y-71330000D01*
X136926000Y-71444285D01*
X136849809Y-71520476D01*
X136773619Y-71558571D01*
X136621238Y-71596666D01*
X136506952Y-71596666D01*
X136354571Y-71558571D01*
X136278380Y-71520476D01*
X136202190Y-71444285D01*
X136164095Y-71330000D01*
X136164095Y-71253809D01*
X136202190Y-71139523D01*
X136240285Y-71101428D01*
X136506952Y-71101428D01*
X136506952Y-71253809D01*
X136164095Y-70758571D02*
X136964095Y-70758571D01*
X136164095Y-70301428D01*
X136964095Y-70301428D01*
X136164095Y-69920476D02*
X136964095Y-69920476D01*
X136964095Y-69730000D01*
X136926000Y-69615714D01*
X136849809Y-69539523D01*
X136773619Y-69501428D01*
X136621238Y-69463333D01*
X136506952Y-69463333D01*
X136354571Y-69501428D01*
X136278380Y-69539523D01*
X136202190Y-69615714D01*
X136164095Y-69730000D01*
X136164095Y-69920476D01*
X135566666Y-132052380D02*
X135900000Y-131576190D01*
X136138095Y-132052380D02*
X136138095Y-131052380D01*
X135757142Y-131052380D01*
X135661904Y-131100000D01*
X135614285Y-131147619D01*
X135566666Y-131242857D01*
X135566666Y-131385714D01*
X135614285Y-131480952D01*
X135661904Y-131528571D01*
X135757142Y-131576190D01*
X136138095Y-131576190D01*
X135233333Y-131052380D02*
X134566666Y-132052380D01*
X134566666Y-131052380D02*
X135233333Y-132052380D01*
X138861904Y-131052380D02*
X138290476Y-131052380D01*
X138576190Y-132052380D02*
X138576190Y-131052380D01*
X138052380Y-131052380D02*
X137385714Y-132052380D01*
X137385714Y-131052380D02*
X138052380Y-132052380D01*
X134716666Y-115652380D02*
X135050000Y-115176190D01*
X135288095Y-115652380D02*
X135288095Y-114652380D01*
X134907142Y-114652380D01*
X134811904Y-114700000D01*
X134764285Y-114747619D01*
X134716666Y-114842857D01*
X134716666Y-114985714D01*
X134764285Y-115080952D01*
X134811904Y-115128571D01*
X134907142Y-115176190D01*
X135288095Y-115176190D01*
X134383333Y-114652380D02*
X133716666Y-115652380D01*
X133716666Y-114652380D02*
X134383333Y-115652380D01*
X138861904Y-114652380D02*
X138290476Y-114652380D01*
X138576190Y-115652380D02*
X138576190Y-114652380D01*
X138052380Y-114652380D02*
X137385714Y-115652380D01*
X137385714Y-114652380D02*
X138052380Y-115652380D01*
D11*
X145714285Y-82928571D02*
X145714285Y-81428571D01*
X145071428Y-81571428D02*
X145000000Y-81500000D01*
X144857142Y-81428571D01*
X144500000Y-81428571D01*
X144357142Y-81500000D01*
X144285714Y-81571428D01*
X144214285Y-81714285D01*
X144214285Y-81857142D01*
X144285714Y-82071428D01*
X145142857Y-82928571D01*
X144214285Y-82928571D01*
X142714285Y-82785714D02*
X142785714Y-82857142D01*
X143000000Y-82928571D01*
X143142857Y-82928571D01*
X143357142Y-82857142D01*
X143500000Y-82714285D01*
X143571428Y-82571428D01*
X143642857Y-82285714D01*
X143642857Y-82071428D01*
X143571428Y-81785714D01*
X143500000Y-81642857D01*
X143357142Y-81500000D01*
X143142857Y-81428571D01*
X143000000Y-81428571D01*
X142785714Y-81500000D01*
X142714285Y-81571428D01*
D10*
X133100000Y-80150000D02*
X133100000Y-80950000D01*
X151850000Y-81050000D02*
X133100000Y-81000000D01*
X151850000Y-81050000D02*
X151850000Y-80150000D01*
X191800000Y-113600000D02*
X191800000Y-114000000D01*
X178100000Y-113600000D02*
X178100000Y-114000000D01*
X178100000Y-113600000D02*
X191800000Y-113600000D01*
X139404761Y-76909523D02*
X139452380Y-77052380D01*
X139452380Y-77290476D01*
X139404761Y-77385714D01*
X139357142Y-77433333D01*
X139261904Y-77480952D01*
X139166666Y-77480952D01*
X139071428Y-77433333D01*
X139023809Y-77385714D01*
X138976190Y-77290476D01*
X138928571Y-77100000D01*
X138880952Y-77004761D01*
X138833333Y-76957142D01*
X138738095Y-76909523D01*
X138642857Y-76909523D01*
X138547619Y-76957142D01*
X138500000Y-77004761D01*
X138452380Y-77100000D01*
X138452380Y-77338095D01*
X138500000Y-77480952D01*
X139357142Y-78480952D02*
X139404761Y-78433333D01*
X139452380Y-78290476D01*
X139452380Y-78195238D01*
X139404761Y-78052380D01*
X139309523Y-77957142D01*
X139214285Y-77909523D01*
X139023809Y-77861904D01*
X138880952Y-77861904D01*
X138690476Y-77909523D01*
X138595238Y-77957142D01*
X138500000Y-78052380D01*
X138452380Y-78195238D01*
X138452380Y-78290476D01*
X138500000Y-78433333D01*
X138547619Y-78480952D01*
X139452380Y-79385714D02*
X139452380Y-78909523D01*
X138452380Y-78909523D01*
X142904761Y-77135714D02*
X142952380Y-77278571D01*
X142952380Y-77516666D01*
X142904761Y-77611904D01*
X142857142Y-77659523D01*
X142761904Y-77707142D01*
X142666666Y-77707142D01*
X142571428Y-77659523D01*
X142523809Y-77611904D01*
X142476190Y-77516666D01*
X142428571Y-77326190D01*
X142380952Y-77230952D01*
X142333333Y-77183333D01*
X142238095Y-77135714D01*
X142142857Y-77135714D01*
X142047619Y-77183333D01*
X142000000Y-77230952D01*
X141952380Y-77326190D01*
X141952380Y-77564285D01*
X142000000Y-77707142D01*
X142952380Y-78135714D02*
X141952380Y-78135714D01*
X141952380Y-78373809D01*
X142000000Y-78516666D01*
X142095238Y-78611904D01*
X142190476Y-78659523D01*
X142380952Y-78707142D01*
X142523809Y-78707142D01*
X142714285Y-78659523D01*
X142809523Y-78611904D01*
X142904761Y-78516666D01*
X142952380Y-78373809D01*
X142952380Y-78135714D01*
X142666666Y-79088095D02*
X142666666Y-79564285D01*
X142952380Y-78992857D02*
X141952380Y-79326190D01*
X142952380Y-79659523D01*
X145500000Y-77438095D02*
X145452380Y-77342857D01*
X145452380Y-77200000D01*
X145500000Y-77057142D01*
X145595238Y-76961904D01*
X145690476Y-76914285D01*
X145880952Y-76866666D01*
X146023809Y-76866666D01*
X146214285Y-76914285D01*
X146309523Y-76961904D01*
X146404761Y-77057142D01*
X146452380Y-77200000D01*
X146452380Y-77295238D01*
X146404761Y-77438095D01*
X146357142Y-77485714D01*
X146023809Y-77485714D01*
X146023809Y-77295238D01*
X146452380Y-77914285D02*
X145452380Y-77914285D01*
X146452380Y-78485714D01*
X145452380Y-78485714D01*
X146452380Y-78961904D02*
X145452380Y-78961904D01*
X145452380Y-79200000D01*
X145500000Y-79342857D01*
X145595238Y-79438095D01*
X145690476Y-79485714D01*
X145880952Y-79533333D01*
X146023809Y-79533333D01*
X146214285Y-79485714D01*
X146309523Y-79438095D01*
X146404761Y-79342857D01*
X146452380Y-79200000D01*
X146452380Y-78961904D01*
X149202380Y-76973809D02*
X149202380Y-77592857D01*
X149583333Y-77259523D01*
X149583333Y-77402380D01*
X149630952Y-77497619D01*
X149678571Y-77545238D01*
X149773809Y-77592857D01*
X150011904Y-77592857D01*
X150107142Y-77545238D01*
X150154761Y-77497619D01*
X150202380Y-77402380D01*
X150202380Y-77116666D01*
X150154761Y-77021428D01*
X150107142Y-76973809D01*
X150107142Y-78021428D02*
X150154761Y-78069047D01*
X150202380Y-78021428D01*
X150154761Y-77973809D01*
X150107142Y-78021428D01*
X150202380Y-78021428D01*
X149202380Y-78402380D02*
X149202380Y-79021428D01*
X149583333Y-78688095D01*
X149583333Y-78830952D01*
X149630952Y-78926190D01*
X149678571Y-78973809D01*
X149773809Y-79021428D01*
X150011904Y-79021428D01*
X150107142Y-78973809D01*
X150154761Y-78926190D01*
X150202380Y-78830952D01*
X150202380Y-78545238D01*
X150154761Y-78450000D01*
X150107142Y-78402380D01*
X149202380Y-79307142D02*
X150202380Y-79640476D01*
X149202380Y-79973809D01*
D11*
X185878571Y-112907142D02*
X185664285Y-112978571D01*
X185307142Y-112978571D01*
X185164285Y-112907142D01*
X185092857Y-112835714D01*
X185021428Y-112692857D01*
X185021428Y-112550000D01*
X185092857Y-112407142D01*
X185164285Y-112335714D01*
X185307142Y-112264285D01*
X185592857Y-112192857D01*
X185735714Y-112121428D01*
X185807142Y-112050000D01*
X185878571Y-111907142D01*
X185878571Y-111764285D01*
X185807142Y-111621428D01*
X185735714Y-111550000D01*
X185592857Y-111478571D01*
X185235714Y-111478571D01*
X185021428Y-111550000D01*
X184378571Y-112978571D02*
X184378571Y-111478571D01*
X184021428Y-111478571D01*
X183807142Y-111550000D01*
X183664285Y-111692857D01*
X183592857Y-111835714D01*
X183521428Y-112121428D01*
X183521428Y-112335714D01*
X183592857Y-112621428D01*
X183664285Y-112764285D01*
X183807142Y-112907142D01*
X184021428Y-112978571D01*
X184378571Y-112978571D01*
D12*
X187129761Y-66111547D02*
X186177380Y-65444880D01*
X187129761Y-64968690D02*
X185129761Y-64968690D01*
X185129761Y-65730595D01*
X185225000Y-65921071D01*
X185320238Y-66016309D01*
X185510714Y-66111547D01*
X185796428Y-66111547D01*
X185986904Y-66016309D01*
X186082142Y-65921071D01*
X186177380Y-65730595D01*
X186177380Y-64968690D01*
X187034523Y-67730595D02*
X187129761Y-67540119D01*
X187129761Y-67159166D01*
X187034523Y-66968690D01*
X186844047Y-66873452D01*
X186082142Y-66873452D01*
X185891666Y-66968690D01*
X185796428Y-67159166D01*
X185796428Y-67540119D01*
X185891666Y-67730595D01*
X186082142Y-67825833D01*
X186272619Y-67825833D01*
X186463095Y-66873452D01*
X185796428Y-68492500D02*
X187129761Y-68968690D01*
X185796428Y-69444880D01*
X186939285Y-70206785D02*
X187034523Y-70302023D01*
X187129761Y-70206785D01*
X187034523Y-70111547D01*
X186939285Y-70206785D01*
X187129761Y-70206785D01*
X185891666Y-70206785D02*
X185986904Y-70302023D01*
X186082142Y-70206785D01*
X185986904Y-70111547D01*
X185891666Y-70206785D01*
X186082142Y-70206785D01*
X185129761Y-73063928D02*
X185129761Y-73254404D01*
X185225000Y-73444880D01*
X185320238Y-73540119D01*
X185510714Y-73635357D01*
X185891666Y-73730595D01*
X186367857Y-73730595D01*
X186748809Y-73635357D01*
X186939285Y-73540119D01*
X187034523Y-73444880D01*
X187129761Y-73254404D01*
X187129761Y-73063928D01*
X187034523Y-72873452D01*
X186939285Y-72778214D01*
X186748809Y-72682976D01*
X186367857Y-72587738D01*
X185891666Y-72587738D01*
X185510714Y-72682976D01*
X185320238Y-72778214D01*
X185225000Y-72873452D01*
X185129761Y-73063928D01*
X186939285Y-74587738D02*
X187034523Y-74682976D01*
X187129761Y-74587738D01*
X187034523Y-74492500D01*
X186939285Y-74587738D01*
X187129761Y-74587738D01*
X185796428Y-76397261D02*
X187129761Y-76397261D01*
X185034523Y-75921071D02*
X186463095Y-75444880D01*
X186463095Y-76682976D01*
X190579761Y-64968690D02*
X188579761Y-64968690D01*
X190008333Y-65635357D01*
X188579761Y-66302023D01*
X190579761Y-66302023D01*
X190579761Y-67540119D02*
X190484523Y-67349642D01*
X190389285Y-67254404D01*
X190198809Y-67159166D01*
X189627380Y-67159166D01*
X189436904Y-67254404D01*
X189341666Y-67349642D01*
X189246428Y-67540119D01*
X189246428Y-67825833D01*
X189341666Y-68016309D01*
X189436904Y-68111547D01*
X189627380Y-68206785D01*
X190198809Y-68206785D01*
X190389285Y-68111547D01*
X190484523Y-68016309D01*
X190579761Y-67825833D01*
X190579761Y-67540119D01*
X189246428Y-69063928D02*
X190579761Y-69063928D01*
X189436904Y-69063928D02*
X189341666Y-69159166D01*
X189246428Y-69349642D01*
X189246428Y-69635357D01*
X189341666Y-69825833D01*
X189532142Y-69921071D01*
X190579761Y-69921071D01*
X190579761Y-71730595D02*
X189532142Y-71730595D01*
X189341666Y-71635357D01*
X189246428Y-71444880D01*
X189246428Y-71063928D01*
X189341666Y-70873452D01*
X190484523Y-71730595D02*
X190579761Y-71540119D01*
X190579761Y-71063928D01*
X190484523Y-70873452D01*
X190294047Y-70778214D01*
X190103571Y-70778214D01*
X189913095Y-70873452D01*
X189817857Y-71063928D01*
X189817857Y-71540119D01*
X189722619Y-71730595D01*
X190484523Y-72587738D02*
X190579761Y-72778214D01*
X190579761Y-73159166D01*
X190484523Y-73349642D01*
X190294047Y-73444880D01*
X190198809Y-73444880D01*
X190008333Y-73349642D01*
X189913095Y-73159166D01*
X189913095Y-72873452D01*
X189817857Y-72682976D01*
X189627380Y-72587738D01*
X189532142Y-72587738D01*
X189341666Y-72682976D01*
X189246428Y-72873452D01*
X189246428Y-73159166D01*
X189341666Y-73349642D01*
X190579761Y-74302023D02*
X188579761Y-74302023D01*
X190579761Y-75159166D02*
X189532142Y-75159166D01*
X189341666Y-75063928D01*
X189246428Y-74873452D01*
X189246428Y-74587738D01*
X189341666Y-74397261D01*
X189436904Y-74302023D01*
X189532142Y-78302023D02*
X189627380Y-78587738D01*
X189722619Y-78682976D01*
X189913095Y-78778214D01*
X190198809Y-78778214D01*
X190389285Y-78682976D01*
X190484523Y-78587738D01*
X190579761Y-78397261D01*
X190579761Y-77635357D01*
X188579761Y-77635357D01*
X188579761Y-78302023D01*
X188675000Y-78492499D01*
X188770238Y-78587738D01*
X188960714Y-78682976D01*
X189151190Y-78682976D01*
X189341666Y-78587738D01*
X189436904Y-78492499D01*
X189532142Y-78302023D01*
X189532142Y-77635357D01*
X190579761Y-79921071D02*
X190484523Y-79730595D01*
X190389285Y-79635357D01*
X190198809Y-79540119D01*
X189627380Y-79540119D01*
X189436904Y-79635357D01*
X189341666Y-79730595D01*
X189246428Y-79921071D01*
X189246428Y-80206785D01*
X189341666Y-80397261D01*
X189436904Y-80492499D01*
X189627380Y-80587738D01*
X190198809Y-80587738D01*
X190389285Y-80492499D01*
X190484523Y-80397261D01*
X190579761Y-80206785D01*
X190579761Y-79921071D01*
X190484523Y-81349642D02*
X190579761Y-81635357D01*
X190579761Y-82111547D01*
X190484523Y-82302023D01*
X190389285Y-82397261D01*
X190198809Y-82492499D01*
X190008333Y-82492499D01*
X189817857Y-82397261D01*
X189722619Y-82302023D01*
X189627380Y-82111547D01*
X189532142Y-81730595D01*
X189436904Y-81540119D01*
X189341666Y-81444880D01*
X189151190Y-81349642D01*
X188960714Y-81349642D01*
X188770238Y-81444880D01*
X188675000Y-81540119D01*
X188579761Y-81730595D01*
X188579761Y-82206785D01*
X188675000Y-82492499D01*
X190579761Y-84302023D02*
X190579761Y-83349642D01*
X188579761Y-83349642D01*
X189532142Y-87159166D02*
X189627380Y-87444880D01*
X189722619Y-87540119D01*
X189913095Y-87635357D01*
X190198809Y-87635357D01*
X190389285Y-87540119D01*
X190484523Y-87444880D01*
X190579761Y-87254404D01*
X190579761Y-86492499D01*
X188579761Y-86492499D01*
X188579761Y-87159166D01*
X188675000Y-87349642D01*
X188770238Y-87444880D01*
X188960714Y-87540119D01*
X189151190Y-87540119D01*
X189341666Y-87444880D01*
X189436904Y-87349642D01*
X189532142Y-87159166D01*
X189532142Y-86492499D01*
X190579761Y-88778214D02*
X190484523Y-88587738D01*
X190389285Y-88492499D01*
X190198809Y-88397261D01*
X189627380Y-88397261D01*
X189436904Y-88492499D01*
X189341666Y-88587738D01*
X189246428Y-88778214D01*
X189246428Y-89063928D01*
X189341666Y-89254404D01*
X189436904Y-89349642D01*
X189627380Y-89444880D01*
X190198809Y-89444880D01*
X190389285Y-89349642D01*
X190484523Y-89254404D01*
X190579761Y-89063928D01*
X190579761Y-88778214D01*
X190579761Y-91159166D02*
X189532142Y-91159166D01*
X189341666Y-91063928D01*
X189246428Y-90873452D01*
X189246428Y-90492499D01*
X189341666Y-90302023D01*
X190484523Y-91159166D02*
X190579761Y-90968690D01*
X190579761Y-90492499D01*
X190484523Y-90302023D01*
X190294047Y-90206785D01*
X190103571Y-90206785D01*
X189913095Y-90302023D01*
X189817857Y-90492499D01*
X189817857Y-90968690D01*
X189722619Y-91159166D01*
X190579761Y-92111547D02*
X189246428Y-92111547D01*
X189627380Y-92111547D02*
X189436904Y-92206785D01*
X189341666Y-92302023D01*
X189246428Y-92492499D01*
X189246428Y-92682976D01*
X190579761Y-94206785D02*
X188579761Y-94206785D01*
X190484523Y-94206785D02*
X190579761Y-94016309D01*
X190579761Y-93635357D01*
X190484523Y-93444880D01*
X190389285Y-93349642D01*
X190198809Y-93254404D01*
X189627380Y-93254404D01*
X189436904Y-93349642D01*
X189341666Y-93444880D01*
X189246428Y-93635357D01*
X189246428Y-94016309D01*
X189341666Y-94206785D01*
D10*
X177554000Y-108966095D02*
X177506380Y-108870857D01*
X177506380Y-108728000D01*
X177554000Y-108585142D01*
X177649238Y-108489904D01*
X177744476Y-108442285D01*
X177934952Y-108394666D01*
X178077809Y-108394666D01*
X178268285Y-108442285D01*
X178363523Y-108489904D01*
X178458761Y-108585142D01*
X178506380Y-108728000D01*
X178506380Y-108823238D01*
X178458761Y-108966095D01*
X178411142Y-109013714D01*
X178077809Y-109013714D01*
X178077809Y-108823238D01*
X178506380Y-109442285D02*
X177506380Y-109442285D01*
X178506380Y-110013714D01*
X177506380Y-110013714D01*
X178506380Y-110489904D02*
X177506380Y-110489904D01*
X177506380Y-110728000D01*
X177554000Y-110870857D01*
X177649238Y-110966095D01*
X177744476Y-111013714D01*
X177934952Y-111061333D01*
X178077809Y-111061333D01*
X178268285Y-111013714D01*
X178363523Y-110966095D01*
X178458761Y-110870857D01*
X178506380Y-110728000D01*
X178506380Y-110489904D01*
X175966380Y-108712095D02*
X174966380Y-108712095D01*
X174966380Y-108950190D01*
X175014000Y-109093047D01*
X175109238Y-109188285D01*
X175204476Y-109235904D01*
X175394952Y-109283523D01*
X175537809Y-109283523D01*
X175728285Y-109235904D01*
X175823523Y-109188285D01*
X175918761Y-109093047D01*
X175966380Y-108950190D01*
X175966380Y-108712095D01*
X175966380Y-109712095D02*
X174966380Y-109712095D01*
X174966380Y-110093047D01*
X175014000Y-110188285D01*
X175061619Y-110235904D01*
X175156857Y-110283523D01*
X175299714Y-110283523D01*
X175394952Y-110235904D01*
X175442571Y-110188285D01*
X175490190Y-110093047D01*
X175490190Y-109712095D01*
X173426380Y-108640666D02*
X172426380Y-108640666D01*
X172426380Y-108878761D01*
X172474000Y-109021619D01*
X172569238Y-109116857D01*
X172664476Y-109164476D01*
X172854952Y-109212095D01*
X172997809Y-109212095D01*
X173188285Y-109164476D01*
X173283523Y-109116857D01*
X173378761Y-109021619D01*
X173426380Y-108878761D01*
X173426380Y-108640666D01*
X173426380Y-109640666D02*
X172426380Y-109640666D01*
X173140666Y-109974000D01*
X172426380Y-110307333D01*
X173426380Y-110307333D01*
X169886380Y-108521619D02*
X170886380Y-108854952D01*
X169886380Y-109188285D01*
X170505428Y-109521619D02*
X170505428Y-110283523D01*
X170886380Y-109902571D02*
X170124476Y-109902571D01*
D11*
X179914571Y-102810571D02*
X179914571Y-104024857D01*
X179843142Y-104167714D01*
X179771714Y-104239142D01*
X179628857Y-104310571D01*
X179343142Y-104310571D01*
X179200285Y-104239142D01*
X179128857Y-104167714D01*
X179057428Y-104024857D01*
X179057428Y-102810571D01*
X178414571Y-104239142D02*
X178200285Y-104310571D01*
X177843142Y-104310571D01*
X177700285Y-104239142D01*
X177628857Y-104167714D01*
X177557428Y-104024857D01*
X177557428Y-103882000D01*
X177628857Y-103739142D01*
X177700285Y-103667714D01*
X177843142Y-103596285D01*
X178128857Y-103524857D01*
X178271714Y-103453428D01*
X178343142Y-103382000D01*
X178414571Y-103239142D01*
X178414571Y-103096285D01*
X178343142Y-102953428D01*
X178271714Y-102882000D01*
X178128857Y-102810571D01*
X177771714Y-102810571D01*
X177557428Y-102882000D01*
X176414571Y-103524857D02*
X176200285Y-103596285D01*
X176128857Y-103667714D01*
X176057428Y-103810571D01*
X176057428Y-104024857D01*
X176128857Y-104167714D01*
X176200285Y-104239142D01*
X176343142Y-104310571D01*
X176914571Y-104310571D01*
X176914571Y-102810571D01*
X176414571Y-102810571D01*
X176271714Y-102882000D01*
X176200285Y-102953428D01*
X176128857Y-103096285D01*
X176128857Y-103239142D01*
X176200285Y-103382000D01*
X176271714Y-103453428D01*
X176414571Y-103524857D01*
X176914571Y-103524857D01*
X175771714Y-104453428D02*
X174628857Y-104453428D01*
X174271714Y-104310571D02*
X174271714Y-102810571D01*
X173914571Y-102810571D01*
X173700285Y-102882000D01*
X173557428Y-103024857D01*
X173486000Y-103167714D01*
X173414571Y-103453428D01*
X173414571Y-103667714D01*
X173486000Y-103953428D01*
X173557428Y-104096285D01*
X173700285Y-104239142D01*
X173914571Y-104310571D01*
X174271714Y-104310571D01*
X172771714Y-103524857D02*
X172271714Y-103524857D01*
X172057428Y-104310571D02*
X172771714Y-104310571D01*
X172771714Y-102810571D01*
X172057428Y-102810571D01*
X170914571Y-103524857D02*
X170700285Y-103596285D01*
X170628857Y-103667714D01*
X170557428Y-103810571D01*
X170557428Y-104024857D01*
X170628857Y-104167714D01*
X170700285Y-104239142D01*
X170843142Y-104310571D01*
X171414571Y-104310571D01*
X171414571Y-102810571D01*
X170914571Y-102810571D01*
X170771714Y-102882000D01*
X170700285Y-102953428D01*
X170628857Y-103096285D01*
X170628857Y-103239142D01*
X170700285Y-103382000D01*
X170771714Y-103453428D01*
X170914571Y-103524857D01*
X171414571Y-103524857D01*
X169914571Y-102810571D02*
X169914571Y-104024857D01*
X169843142Y-104167714D01*
X169771714Y-104239142D01*
X169628857Y-104310571D01*
X169343142Y-104310571D01*
X169200285Y-104239142D01*
X169128857Y-104167714D01*
X169057428Y-104024857D01*
X169057428Y-102810571D01*
X167557428Y-102882000D02*
X167700285Y-102810571D01*
X167914571Y-102810571D01*
X168128857Y-102882000D01*
X168271714Y-103024857D01*
X168343142Y-103167714D01*
X168414571Y-103453428D01*
X168414571Y-103667714D01*
X168343142Y-103953428D01*
X168271714Y-104096285D01*
X168128857Y-104239142D01*
X167914571Y-104310571D01*
X167771714Y-104310571D01*
X167557428Y-104239142D01*
X167486000Y-104167714D01*
X167486000Y-103667714D01*
X167771714Y-103667714D01*
D10*
X155771428Y-67733333D02*
X155485714Y-67733333D01*
X155828571Y-67961904D02*
X155628571Y-67161904D01*
X155428571Y-67961904D01*
X154885714Y-67961904D02*
X155085714Y-67580952D01*
X155228571Y-67961904D02*
X155228571Y-67161904D01*
X155000000Y-67161904D01*
X154942857Y-67200000D01*
X154914285Y-67238095D01*
X154885714Y-67314285D01*
X154885714Y-67428571D01*
X154914285Y-67504761D01*
X154942857Y-67542857D01*
X155000000Y-67580952D01*
X155228571Y-67580952D01*
X154628571Y-67542857D02*
X154428571Y-67542857D01*
X154342857Y-67961904D02*
X154628571Y-67961904D01*
X154628571Y-67161904D01*
X154342857Y-67161904D01*
X153885714Y-67542857D02*
X154085714Y-67542857D01*
X154085714Y-67961904D02*
X154085714Y-67161904D01*
X153800000Y-67161904D01*
X163466666Y-67161904D02*
X163200000Y-67961904D01*
X162933333Y-67161904D01*
X162666666Y-67961904D02*
X162666666Y-67161904D01*
X162361904Y-67161904D01*
X162285714Y-67200000D01*
X162247619Y-67238095D01*
X162209523Y-67314285D01*
X162209523Y-67428571D01*
X162247619Y-67504761D01*
X162285714Y-67542857D01*
X162361904Y-67580952D01*
X162666666Y-67580952D01*
X161866666Y-67961904D02*
X161866666Y-67161904D01*
X161561904Y-67161904D01*
X161485714Y-67200000D01*
X161447619Y-67238095D01*
X161409523Y-67314285D01*
X161409523Y-67428571D01*
X161447619Y-67504761D01*
X161485714Y-67542857D01*
X161561904Y-67580952D01*
X161866666Y-67580952D01*
X160952380Y-76966666D02*
X161952380Y-77300000D01*
X160952380Y-77633333D01*
X161952380Y-77966666D02*
X160952380Y-77966666D01*
X160952380Y-78347619D01*
X161000000Y-78442857D01*
X161047619Y-78490476D01*
X161142857Y-78538095D01*
X161285714Y-78538095D01*
X161380952Y-78490476D01*
X161428571Y-78442857D01*
X161476190Y-78347619D01*
X161476190Y-77966666D01*
X161952380Y-78966666D02*
X160952380Y-78966666D01*
X160952380Y-79347619D01*
X161000000Y-79442857D01*
X161047619Y-79490476D01*
X161142857Y-79538095D01*
X161285714Y-79538095D01*
X161380952Y-79490476D01*
X161428571Y-79442857D01*
X161476190Y-79347619D01*
X161476190Y-78966666D01*
X153952380Y-76823809D02*
X153952380Y-77442857D01*
X154333333Y-77109523D01*
X154333333Y-77252380D01*
X154380952Y-77347619D01*
X154428571Y-77395238D01*
X154523809Y-77442857D01*
X154761904Y-77442857D01*
X154857142Y-77395238D01*
X154904761Y-77347619D01*
X154952380Y-77252380D01*
X154952380Y-76966666D01*
X154904761Y-76871428D01*
X154857142Y-76823809D01*
X154857142Y-77871428D02*
X154904761Y-77919047D01*
X154952380Y-77871428D01*
X154904761Y-77823809D01*
X154857142Y-77871428D01*
X154952380Y-77871428D01*
X153952380Y-78252380D02*
X153952380Y-78871428D01*
X154333333Y-78538095D01*
X154333333Y-78680952D01*
X154380952Y-78776190D01*
X154428571Y-78823809D01*
X154523809Y-78871428D01*
X154761904Y-78871428D01*
X154857142Y-78823809D01*
X154904761Y-78776190D01*
X154952380Y-78680952D01*
X154952380Y-78395238D01*
X154904761Y-78300000D01*
X154857142Y-78252380D01*
X153952380Y-79157142D02*
X154952380Y-79490476D01*
X153952380Y-79823809D01*
X158580952Y-67161904D02*
X158085714Y-67161904D01*
X158352380Y-67466666D01*
X158238095Y-67466666D01*
X158161904Y-67504761D01*
X158123809Y-67542857D01*
X158085714Y-67619047D01*
X158085714Y-67809523D01*
X158123809Y-67885714D01*
X158161904Y-67923809D01*
X158238095Y-67961904D01*
X158466666Y-67961904D01*
X158542857Y-67923809D01*
X158580952Y-67885714D01*
X157742857Y-67885714D02*
X157704761Y-67923809D01*
X157742857Y-67961904D01*
X157780952Y-67923809D01*
X157742857Y-67885714D01*
X157742857Y-67961904D01*
X157438095Y-67161904D02*
X156942857Y-67161904D01*
X157209523Y-67466666D01*
X157095238Y-67466666D01*
X157019047Y-67504761D01*
X156980952Y-67542857D01*
X156942857Y-67619047D01*
X156942857Y-67809523D01*
X156980952Y-67885714D01*
X157019047Y-67923809D01*
X157095238Y-67961904D01*
X157323809Y-67961904D01*
X157400000Y-67923809D01*
X157438095Y-67885714D01*
X156714285Y-67161904D02*
X156447619Y-67961904D01*
X156180952Y-67161904D01*
X164500000Y-77538095D02*
X164452380Y-77442857D01*
X164452380Y-77300000D01*
X164500000Y-77157142D01*
X164595238Y-77061904D01*
X164690476Y-77014285D01*
X164880952Y-76966666D01*
X165023809Y-76966666D01*
X165214285Y-77014285D01*
X165309523Y-77061904D01*
X165404761Y-77157142D01*
X165452380Y-77300000D01*
X165452380Y-77395238D01*
X165404761Y-77538095D01*
X165357142Y-77585714D01*
X165023809Y-77585714D01*
X165023809Y-77395238D01*
X165452380Y-78014285D02*
X164452380Y-78014285D01*
X165452380Y-78585714D01*
X164452380Y-78585714D01*
X165452380Y-79061904D02*
X164452380Y-79061904D01*
X164452380Y-79300000D01*
X164500000Y-79442857D01*
X164595238Y-79538095D01*
X164690476Y-79585714D01*
X164880952Y-79633333D01*
X165023809Y-79633333D01*
X165214285Y-79585714D01*
X165309523Y-79538095D01*
X165404761Y-79442857D01*
X165452380Y-79300000D01*
X165452380Y-79061904D01*
X160609523Y-67200000D02*
X160685714Y-67161904D01*
X160800000Y-67161904D01*
X160914285Y-67200000D01*
X160990476Y-67276190D01*
X161028571Y-67352380D01*
X161066666Y-67504761D01*
X161066666Y-67619047D01*
X161028571Y-67771428D01*
X160990476Y-67847619D01*
X160914285Y-67923809D01*
X160800000Y-67961904D01*
X160723809Y-67961904D01*
X160609523Y-67923809D01*
X160571428Y-67885714D01*
X160571428Y-67619047D01*
X160723809Y-67619047D01*
X160228571Y-67961904D02*
X160228571Y-67161904D01*
X159771428Y-67961904D01*
X159771428Y-67161904D01*
X159390476Y-67961904D02*
X159390476Y-67161904D01*
X159200000Y-67161904D01*
X159085714Y-67200000D01*
X159009523Y-67276190D01*
X158971428Y-67352380D01*
X158933333Y-67504761D01*
X158933333Y-67619047D01*
X158971428Y-67771428D01*
X159009523Y-67847619D01*
X159085714Y-67923809D01*
X159200000Y-67961904D01*
X159390476Y-67961904D01*
X165609523Y-67200000D02*
X165685714Y-67161904D01*
X165800000Y-67161904D01*
X165914285Y-67200000D01*
X165990476Y-67276190D01*
X166028571Y-67352380D01*
X166066666Y-67504761D01*
X166066666Y-67619047D01*
X166028571Y-67771428D01*
X165990476Y-67847619D01*
X165914285Y-67923809D01*
X165800000Y-67961904D01*
X165723809Y-67961904D01*
X165609523Y-67923809D01*
X165571428Y-67885714D01*
X165571428Y-67619047D01*
X165723809Y-67619047D01*
X165228571Y-67961904D02*
X165228571Y-67161904D01*
X164771428Y-67961904D01*
X164771428Y-67161904D01*
X164390476Y-67961904D02*
X164390476Y-67161904D01*
X164200000Y-67161904D01*
X164085714Y-67200000D01*
X164009523Y-67276190D01*
X163971428Y-67352380D01*
X163933333Y-67504761D01*
X163933333Y-67619047D01*
X163971428Y-67771428D01*
X164009523Y-67847619D01*
X164085714Y-67923809D01*
X164200000Y-67961904D01*
X164390476Y-67961904D01*
X157400000Y-77538095D02*
X157352380Y-77442857D01*
X157352380Y-77300000D01*
X157400000Y-77157142D01*
X157495238Y-77061904D01*
X157590476Y-77014285D01*
X157780952Y-76966666D01*
X157923809Y-76966666D01*
X158114285Y-77014285D01*
X158209523Y-77061904D01*
X158304761Y-77157142D01*
X158352380Y-77300000D01*
X158352380Y-77395238D01*
X158304761Y-77538095D01*
X158257142Y-77585714D01*
X157923809Y-77585714D01*
X157923809Y-77395238D01*
X158352380Y-78014285D02*
X157352380Y-78014285D01*
X158352380Y-78585714D01*
X157352380Y-78585714D01*
X158352380Y-79061904D02*
X157352380Y-79061904D01*
X157352380Y-79300000D01*
X157400000Y-79442857D01*
X157495238Y-79538095D01*
X157590476Y-79585714D01*
X157780952Y-79633333D01*
X157923809Y-79633333D01*
X158114285Y-79585714D01*
X158209523Y-79538095D01*
X158304761Y-79442857D01*
X158352380Y-79300000D01*
X158352380Y-79061904D01*
X146239523Y-67174000D02*
X146315714Y-67135904D01*
X146430000Y-67135904D01*
X146544285Y-67174000D01*
X146620476Y-67250190D01*
X146658571Y-67326380D01*
X146696666Y-67478761D01*
X146696666Y-67593047D01*
X146658571Y-67745428D01*
X146620476Y-67821619D01*
X146544285Y-67897809D01*
X146430000Y-67935904D01*
X146353809Y-67935904D01*
X146239523Y-67897809D01*
X146201428Y-67859714D01*
X146201428Y-67593047D01*
X146353809Y-67593047D01*
X145858571Y-67935904D02*
X145858571Y-67135904D01*
X145401428Y-67935904D01*
X145401428Y-67135904D01*
X145020476Y-67935904D02*
X145020476Y-67135904D01*
X144830000Y-67135904D01*
X144715714Y-67174000D01*
X144639523Y-67250190D01*
X144601428Y-67326380D01*
X144563333Y-67478761D01*
X144563333Y-67593047D01*
X144601428Y-67745428D01*
X144639523Y-67821619D01*
X144715714Y-67897809D01*
X144830000Y-67935904D01*
X145020476Y-67935904D01*
X149350952Y-67135904D02*
X148855714Y-67135904D01*
X149122380Y-67440666D01*
X149008095Y-67440666D01*
X148931904Y-67478761D01*
X148893809Y-67516857D01*
X148855714Y-67593047D01*
X148855714Y-67783523D01*
X148893809Y-67859714D01*
X148931904Y-67897809D01*
X149008095Y-67935904D01*
X149236666Y-67935904D01*
X149312857Y-67897809D01*
X149350952Y-67859714D01*
X148512857Y-67859714D02*
X148474761Y-67897809D01*
X148512857Y-67935904D01*
X148550952Y-67897809D01*
X148512857Y-67859714D01*
X148512857Y-67935904D01*
X148208095Y-67135904D02*
X147712857Y-67135904D01*
X147979523Y-67440666D01*
X147865238Y-67440666D01*
X147789047Y-67478761D01*
X147750952Y-67516857D01*
X147712857Y-67593047D01*
X147712857Y-67783523D01*
X147750952Y-67859714D01*
X147789047Y-67897809D01*
X147865238Y-67935904D01*
X148093809Y-67935904D01*
X148170000Y-67897809D01*
X148208095Y-67859714D01*
X147484285Y-67135904D02*
X147217619Y-67935904D01*
X146950952Y-67135904D01*
X144061428Y-67897809D02*
X143947142Y-67935904D01*
X143756666Y-67935904D01*
X143680476Y-67897809D01*
X143642380Y-67859714D01*
X143604285Y-67783523D01*
X143604285Y-67707333D01*
X143642380Y-67631142D01*
X143680476Y-67593047D01*
X143756666Y-67554952D01*
X143909047Y-67516857D01*
X143985238Y-67478761D01*
X144023333Y-67440666D01*
X144061428Y-67364476D01*
X144061428Y-67288285D01*
X144023333Y-67212095D01*
X143985238Y-67174000D01*
X143909047Y-67135904D01*
X143718571Y-67135904D01*
X143604285Y-67174000D01*
X143261428Y-67935904D02*
X143261428Y-67135904D01*
X143070952Y-67135904D01*
X142956666Y-67174000D01*
X142880476Y-67250190D01*
X142842380Y-67326380D01*
X142804285Y-67478761D01*
X142804285Y-67593047D01*
X142842380Y-67745428D01*
X142880476Y-67821619D01*
X142956666Y-67897809D01*
X143070952Y-67935904D01*
X143261428Y-67935904D01*
X142499523Y-67707333D02*
X142118571Y-67707333D01*
X142575714Y-67935904D02*
X142309047Y-67135904D01*
X142042380Y-67935904D01*
X141502380Y-67897809D02*
X141388095Y-67935904D01*
X141197619Y-67935904D01*
X141121428Y-67897809D01*
X141083333Y-67859714D01*
X141045238Y-67783523D01*
X141045238Y-67707333D01*
X141083333Y-67631142D01*
X141121428Y-67593047D01*
X141197619Y-67554952D01*
X141350000Y-67516857D01*
X141426190Y-67478761D01*
X141464285Y-67440666D01*
X141502380Y-67364476D01*
X141502380Y-67288285D01*
X141464285Y-67212095D01*
X141426190Y-67174000D01*
X141350000Y-67135904D01*
X141159523Y-67135904D01*
X141045238Y-67174000D01*
X140245238Y-67859714D02*
X140283333Y-67897809D01*
X140397619Y-67935904D01*
X140473809Y-67935904D01*
X140588095Y-67897809D01*
X140664285Y-67821619D01*
X140702380Y-67745428D01*
X140740476Y-67593047D01*
X140740476Y-67478761D01*
X140702380Y-67326380D01*
X140664285Y-67250190D01*
X140588095Y-67174000D01*
X140473809Y-67135904D01*
X140397619Y-67135904D01*
X140283333Y-67174000D01*
X140245238Y-67212095D01*
X139521428Y-67935904D02*
X139902380Y-67935904D01*
X139902380Y-67135904D01*
X190452380Y-114685714D02*
X189452380Y-114685714D01*
X189452380Y-114923809D01*
X189500000Y-115066666D01*
X189595238Y-115161904D01*
X189690476Y-115209523D01*
X189880952Y-115257142D01*
X190023809Y-115257142D01*
X190214285Y-115209523D01*
X190309523Y-115161904D01*
X190404761Y-115066666D01*
X190452380Y-114923809D01*
X190452380Y-114685714D01*
X190452380Y-116209523D02*
X190452380Y-115638095D01*
X190452380Y-115923809D02*
X189452380Y-115923809D01*
X189595238Y-115828571D01*
X189690476Y-115733333D01*
X189738095Y-115638095D01*
X189452380Y-116542857D02*
X189452380Y-117161904D01*
X189833333Y-116828571D01*
X189833333Y-116971428D01*
X189880952Y-117066666D01*
X189928571Y-117114285D01*
X190023809Y-117161904D01*
X190261904Y-117161904D01*
X190357142Y-117114285D01*
X190404761Y-117066666D01*
X190452380Y-116971428D01*
X190452380Y-116685714D01*
X190404761Y-116590476D01*
X190357142Y-116542857D01*
X187671428Y-131961904D02*
X187671428Y-131161904D01*
X187480952Y-131161904D01*
X187366666Y-131200000D01*
X187290476Y-131276190D01*
X187252380Y-131352380D01*
X187214285Y-131504761D01*
X187214285Y-131619047D01*
X187252380Y-131771428D01*
X187290476Y-131847619D01*
X187366666Y-131923809D01*
X187480952Y-131961904D01*
X187671428Y-131961904D01*
X186452380Y-131961904D02*
X186909523Y-131961904D01*
X186680952Y-131961904D02*
X186680952Y-131161904D01*
X186757142Y-131276190D01*
X186833333Y-131352380D01*
X186909523Y-131390476D01*
X186185714Y-131161904D02*
X185690476Y-131161904D01*
X185957142Y-131466666D01*
X185842857Y-131466666D01*
X185766666Y-131504761D01*
X185728571Y-131542857D01*
X185690476Y-131619047D01*
X185690476Y-131809523D01*
X185728571Y-131885714D01*
X185766666Y-131923809D01*
X185842857Y-131961904D01*
X186071428Y-131961904D01*
X186147619Y-131923809D01*
X186185714Y-131885714D01*
X186952380Y-114685714D02*
X185952380Y-114685714D01*
X185952380Y-114923809D01*
X186000000Y-115066666D01*
X186095238Y-115161904D01*
X186190476Y-115209523D01*
X186380952Y-115257142D01*
X186523809Y-115257142D01*
X186714285Y-115209523D01*
X186809523Y-115161904D01*
X186904761Y-115066666D01*
X186952380Y-114923809D01*
X186952380Y-114685714D01*
X186952380Y-116209523D02*
X186952380Y-115638095D01*
X186952380Y-115923809D02*
X185952380Y-115923809D01*
X186095238Y-115828571D01*
X186190476Y-115733333D01*
X186238095Y-115638095D01*
X186047619Y-116590476D02*
X186000000Y-116638095D01*
X185952380Y-116733333D01*
X185952380Y-116971428D01*
X186000000Y-117066666D01*
X186047619Y-117114285D01*
X186142857Y-117161904D01*
X186238095Y-117161904D01*
X186380952Y-117114285D01*
X186952380Y-116542857D01*
X186952380Y-117161904D01*
X185071428Y-131961904D02*
X185071428Y-131161904D01*
X184880952Y-131161904D01*
X184766666Y-131200000D01*
X184690476Y-131276190D01*
X184652380Y-131352380D01*
X184614285Y-131504761D01*
X184614285Y-131619047D01*
X184652380Y-131771428D01*
X184690476Y-131847619D01*
X184766666Y-131923809D01*
X184880952Y-131961904D01*
X185071428Y-131961904D01*
X183852380Y-131961904D02*
X184309523Y-131961904D01*
X184080952Y-131961904D02*
X184080952Y-131161904D01*
X184157142Y-131276190D01*
X184233333Y-131352380D01*
X184309523Y-131390476D01*
X183547619Y-131238095D02*
X183509523Y-131200000D01*
X183433333Y-131161904D01*
X183242857Y-131161904D01*
X183166666Y-131200000D01*
X183128571Y-131238095D01*
X183090476Y-131314285D01*
X183090476Y-131390476D01*
X183128571Y-131504761D01*
X183585714Y-131961904D01*
X183090476Y-131961904D01*
X183452380Y-114685714D02*
X182452380Y-114685714D01*
X182452380Y-114923809D01*
X182500000Y-115066666D01*
X182595238Y-115161904D01*
X182690476Y-115209523D01*
X182880952Y-115257142D01*
X183023809Y-115257142D01*
X183214285Y-115209523D01*
X183309523Y-115161904D01*
X183404761Y-115066666D01*
X183452380Y-114923809D01*
X183452380Y-114685714D01*
X183452380Y-116209523D02*
X183452380Y-115638095D01*
X183452380Y-115923809D02*
X182452380Y-115923809D01*
X182595238Y-115828571D01*
X182690476Y-115733333D01*
X182738095Y-115638095D01*
X183452380Y-117161904D02*
X183452380Y-116590476D01*
X183452380Y-116876190D02*
X182452380Y-116876190D01*
X182595238Y-116780952D01*
X182690476Y-116685714D01*
X182738095Y-116590476D01*
X182471428Y-131961904D02*
X182471428Y-131161904D01*
X182280952Y-131161904D01*
X182166666Y-131200000D01*
X182090476Y-131276190D01*
X182052380Y-131352380D01*
X182014285Y-131504761D01*
X182014285Y-131619047D01*
X182052380Y-131771428D01*
X182090476Y-131847619D01*
X182166666Y-131923809D01*
X182280952Y-131961904D01*
X182471428Y-131961904D01*
X181252380Y-131961904D02*
X181709523Y-131961904D01*
X181480952Y-131961904D02*
X181480952Y-131161904D01*
X181557142Y-131276190D01*
X181633333Y-131352380D01*
X181709523Y-131390476D01*
X180490476Y-131961904D02*
X180947619Y-131961904D01*
X180719047Y-131961904D02*
X180719047Y-131161904D01*
X180795238Y-131276190D01*
X180871428Y-131352380D01*
X180947619Y-131390476D01*
X179952380Y-114685714D02*
X178952380Y-114685714D01*
X178952380Y-114923809D01*
X179000000Y-115066666D01*
X179095238Y-115161904D01*
X179190476Y-115209523D01*
X179380952Y-115257142D01*
X179523809Y-115257142D01*
X179714285Y-115209523D01*
X179809523Y-115161904D01*
X179904761Y-115066666D01*
X179952380Y-114923809D01*
X179952380Y-114685714D01*
X179952380Y-116209523D02*
X179952380Y-115638095D01*
X179952380Y-115923809D02*
X178952380Y-115923809D01*
X179095238Y-115828571D01*
X179190476Y-115733333D01*
X179238095Y-115638095D01*
X178952380Y-116828571D02*
X178952380Y-116923809D01*
X179000000Y-117019047D01*
X179047619Y-117066666D01*
X179142857Y-117114285D01*
X179333333Y-117161904D01*
X179571428Y-117161904D01*
X179761904Y-117114285D01*
X179857142Y-117066666D01*
X179904761Y-117019047D01*
X179952380Y-116923809D01*
X179952380Y-116828571D01*
X179904761Y-116733333D01*
X179857142Y-116685714D01*
X179761904Y-116638095D01*
X179571428Y-116590476D01*
X179333333Y-116590476D01*
X179142857Y-116638095D01*
X179047619Y-116685714D01*
X179000000Y-116733333D01*
X178952380Y-116828571D01*
X179971428Y-131961904D02*
X179971428Y-131161904D01*
X179780952Y-131161904D01*
X179666666Y-131200000D01*
X179590476Y-131276190D01*
X179552380Y-131352380D01*
X179514285Y-131504761D01*
X179514285Y-131619047D01*
X179552380Y-131771428D01*
X179590476Y-131847619D01*
X179666666Y-131923809D01*
X179780952Y-131961904D01*
X179971428Y-131961904D01*
X178752380Y-131961904D02*
X179209523Y-131961904D01*
X178980952Y-131961904D02*
X178980952Y-131161904D01*
X179057142Y-131276190D01*
X179133333Y-131352380D01*
X179209523Y-131390476D01*
X178257142Y-131161904D02*
X178180952Y-131161904D01*
X178104761Y-131200000D01*
X178066666Y-131238095D01*
X178028571Y-131314285D01*
X177990476Y-131466666D01*
X177990476Y-131657142D01*
X178028571Y-131809523D01*
X178066666Y-131885714D01*
X178104761Y-131923809D01*
X178180952Y-131961904D01*
X178257142Y-131961904D01*
X178333333Y-131923809D01*
X178371428Y-131885714D01*
X178409523Y-131809523D01*
X178447619Y-131657142D01*
X178447619Y-131466666D01*
X178409523Y-131314285D01*
X178371428Y-131238095D01*
X178333333Y-131200000D01*
X178257142Y-131161904D01*
X176738095Y-117352380D02*
X176738095Y-116352380D01*
X176500000Y-116352380D01*
X176357142Y-116400000D01*
X176261904Y-116495238D01*
X176214285Y-116590476D01*
X176166666Y-116780952D01*
X176166666Y-116923809D01*
X176214285Y-117114285D01*
X176261904Y-117209523D01*
X176357142Y-117304761D01*
X176500000Y-117352380D01*
X176738095Y-117352380D01*
X175833333Y-116352380D02*
X175166666Y-116352380D01*
X175595238Y-117352380D01*
X177238095Y-132052380D02*
X177238095Y-131052380D01*
X177000000Y-131052380D01*
X176857142Y-131100000D01*
X176761904Y-131195238D01*
X176714285Y-131290476D01*
X176666666Y-131480952D01*
X176666666Y-131623809D01*
X176714285Y-131814285D01*
X176761904Y-131909523D01*
X176857142Y-132004761D01*
X177000000Y-132052380D01*
X177238095Y-132052380D01*
X176333333Y-131052380D02*
X175666666Y-131052380D01*
X176095238Y-132052380D01*
X173238095Y-117352380D02*
X173238095Y-116352380D01*
X173000000Y-116352380D01*
X172857142Y-116400000D01*
X172761904Y-116495238D01*
X172714285Y-116590476D01*
X172666666Y-116780952D01*
X172666666Y-116923809D01*
X172714285Y-117114285D01*
X172761904Y-117209523D01*
X172857142Y-117304761D01*
X173000000Y-117352380D01*
X173238095Y-117352380D01*
X171809523Y-116352380D02*
X172000000Y-116352380D01*
X172095238Y-116400000D01*
X172142857Y-116447619D01*
X172238095Y-116590476D01*
X172285714Y-116780952D01*
X172285714Y-117161904D01*
X172238095Y-117257142D01*
X172190476Y-117304761D01*
X172095238Y-117352380D01*
X171904761Y-117352380D01*
X171809523Y-117304761D01*
X171761904Y-117257142D01*
X171714285Y-117161904D01*
X171714285Y-116923809D01*
X171761904Y-116828571D01*
X171809523Y-116780952D01*
X171904761Y-116733333D01*
X172095238Y-116733333D01*
X172190476Y-116780952D01*
X172238095Y-116828571D01*
X172285714Y-116923809D01*
X174638095Y-132052380D02*
X174638095Y-131052380D01*
X174400000Y-131052380D01*
X174257142Y-131100000D01*
X174161904Y-131195238D01*
X174114285Y-131290476D01*
X174066666Y-131480952D01*
X174066666Y-131623809D01*
X174114285Y-131814285D01*
X174161904Y-131909523D01*
X174257142Y-132004761D01*
X174400000Y-132052380D01*
X174638095Y-132052380D01*
X173209523Y-131052380D02*
X173400000Y-131052380D01*
X173495238Y-131100000D01*
X173542857Y-131147619D01*
X173638095Y-131290476D01*
X173685714Y-131480952D01*
X173685714Y-131861904D01*
X173638095Y-131957142D01*
X173590476Y-132004761D01*
X173495238Y-132052380D01*
X173304761Y-132052380D01*
X173209523Y-132004761D01*
X173161904Y-131957142D01*
X173114285Y-131861904D01*
X173114285Y-131623809D01*
X173161904Y-131528571D01*
X173209523Y-131480952D01*
X173304761Y-131433333D01*
X173495238Y-131433333D01*
X173590476Y-131480952D01*
X173638095Y-131528571D01*
X173685714Y-131623809D01*
X169738095Y-117352380D02*
X169738095Y-116352380D01*
X169500000Y-116352380D01*
X169357142Y-116400000D01*
X169261904Y-116495238D01*
X169214285Y-116590476D01*
X169166666Y-116780952D01*
X169166666Y-116923809D01*
X169214285Y-117114285D01*
X169261904Y-117209523D01*
X169357142Y-117304761D01*
X169500000Y-117352380D01*
X169738095Y-117352380D01*
X168833333Y-116352380D02*
X168214285Y-116352380D01*
X168547619Y-116733333D01*
X168404761Y-116733333D01*
X168309523Y-116780952D01*
X168261904Y-116828571D01*
X168214285Y-116923809D01*
X168214285Y-117161904D01*
X168261904Y-117257142D01*
X168309523Y-117304761D01*
X168404761Y-117352380D01*
X168690476Y-117352380D01*
X168785714Y-117304761D01*
X168833333Y-117257142D01*
X172138095Y-132052380D02*
X172138095Y-131052380D01*
X171900000Y-131052380D01*
X171757142Y-131100000D01*
X171661904Y-131195238D01*
X171614285Y-131290476D01*
X171566666Y-131480952D01*
X171566666Y-131623809D01*
X171614285Y-131814285D01*
X171661904Y-131909523D01*
X171757142Y-132004761D01*
X171900000Y-132052380D01*
X172138095Y-132052380D01*
X171233333Y-131052380D02*
X170614285Y-131052380D01*
X170947619Y-131433333D01*
X170804761Y-131433333D01*
X170709523Y-131480952D01*
X170661904Y-131528571D01*
X170614285Y-131623809D01*
X170614285Y-131861904D01*
X170661904Y-131957142D01*
X170709523Y-132004761D01*
X170804761Y-132052380D01*
X171090476Y-132052380D01*
X171185714Y-132004761D01*
X171233333Y-131957142D01*
X166262095Y-117370380D02*
X166262095Y-116370380D01*
X166024000Y-116370380D01*
X165881142Y-116418000D01*
X165785904Y-116513238D01*
X165738285Y-116608476D01*
X165690666Y-116798952D01*
X165690666Y-116941809D01*
X165738285Y-117132285D01*
X165785904Y-117227523D01*
X165881142Y-117322761D01*
X166024000Y-117370380D01*
X166262095Y-117370380D01*
X165309714Y-116465619D02*
X165262095Y-116418000D01*
X165166857Y-116370380D01*
X164928761Y-116370380D01*
X164833523Y-116418000D01*
X164785904Y-116465619D01*
X164738285Y-116560857D01*
X164738285Y-116656095D01*
X164785904Y-116798952D01*
X165357333Y-117370380D01*
X164738285Y-117370380D01*
X169538095Y-132052380D02*
X169538095Y-131052380D01*
X169300000Y-131052380D01*
X169157142Y-131100000D01*
X169061904Y-131195238D01*
X169014285Y-131290476D01*
X168966666Y-131480952D01*
X168966666Y-131623809D01*
X169014285Y-131814285D01*
X169061904Y-131909523D01*
X169157142Y-132004761D01*
X169300000Y-132052380D01*
X169538095Y-132052380D01*
X168585714Y-131147619D02*
X168538095Y-131100000D01*
X168442857Y-131052380D01*
X168204761Y-131052380D01*
X168109523Y-131100000D01*
X168061904Y-131147619D01*
X168014285Y-131242857D01*
X168014285Y-131338095D01*
X168061904Y-131480952D01*
X168633333Y-132052380D01*
X168014285Y-132052380D01*
X161590476Y-115604761D02*
X161447619Y-115652380D01*
X161209523Y-115652380D01*
X161114285Y-115604761D01*
X161066666Y-115557142D01*
X161019047Y-115461904D01*
X161019047Y-115366666D01*
X161066666Y-115271428D01*
X161114285Y-115223809D01*
X161209523Y-115176190D01*
X161400000Y-115128571D01*
X161495238Y-115080952D01*
X161542857Y-115033333D01*
X161590476Y-114938095D01*
X161590476Y-114842857D01*
X161542857Y-114747619D01*
X161495238Y-114700000D01*
X161400000Y-114652380D01*
X161161904Y-114652380D01*
X161019047Y-114700000D01*
X160019047Y-115557142D02*
X160066666Y-115604761D01*
X160209523Y-115652380D01*
X160304761Y-115652380D01*
X160447619Y-115604761D01*
X160542857Y-115509523D01*
X160590476Y-115414285D01*
X160638095Y-115223809D01*
X160638095Y-115080952D01*
X160590476Y-114890476D01*
X160542857Y-114795238D01*
X160447619Y-114700000D01*
X160304761Y-114652380D01*
X160209523Y-114652380D01*
X160066666Y-114700000D01*
X160019047Y-114747619D01*
X159114285Y-115652380D02*
X159590476Y-115652380D01*
X159590476Y-114652380D01*
X158214285Y-115604761D02*
X158071428Y-115652380D01*
X157833333Y-115652380D01*
X157738095Y-115604761D01*
X157690476Y-115557142D01*
X157642857Y-115461904D01*
X157642857Y-115366666D01*
X157690476Y-115271428D01*
X157738095Y-115223809D01*
X157833333Y-115176190D01*
X158023809Y-115128571D01*
X158119047Y-115080952D01*
X158166666Y-115033333D01*
X158214285Y-114938095D01*
X158214285Y-114842857D01*
X158166666Y-114747619D01*
X158119047Y-114700000D01*
X158023809Y-114652380D01*
X157785714Y-114652380D01*
X157642857Y-114700000D01*
X157214285Y-115652380D02*
X157214285Y-114652380D01*
X156976190Y-114652380D01*
X156833333Y-114700000D01*
X156738095Y-114795238D01*
X156690476Y-114890476D01*
X156642857Y-115080952D01*
X156642857Y-115223809D01*
X156690476Y-115414285D01*
X156738095Y-115509523D01*
X156833333Y-115604761D01*
X156976190Y-115652380D01*
X157214285Y-115652380D01*
X156261904Y-115366666D02*
X155785714Y-115366666D01*
X156357142Y-115652380D02*
X156023809Y-114652380D01*
X155690476Y-115652380D01*
X138838095Y-117352380D02*
X138838095Y-116352380D01*
X138600000Y-116352380D01*
X138457142Y-116400000D01*
X138361904Y-116495238D01*
X138314285Y-116590476D01*
X138266666Y-116780952D01*
X138266666Y-116923809D01*
X138314285Y-117114285D01*
X138361904Y-117209523D01*
X138457142Y-117304761D01*
X138600000Y-117352380D01*
X138838095Y-117352380D01*
X137314285Y-117352380D02*
X137885714Y-117352380D01*
X137600000Y-117352380D02*
X137600000Y-116352380D01*
X137695238Y-116495238D01*
X137790476Y-116590476D01*
X137885714Y-116638095D01*
X135288095Y-117352380D02*
X135288095Y-116352380D01*
X135050000Y-116352380D01*
X134907142Y-116400000D01*
X134811904Y-116495238D01*
X134764285Y-116590476D01*
X134716666Y-116780952D01*
X134716666Y-116923809D01*
X134764285Y-117114285D01*
X134811904Y-117209523D01*
X134907142Y-117304761D01*
X135050000Y-117352380D01*
X135288095Y-117352380D01*
X134097619Y-116352380D02*
X134002380Y-116352380D01*
X133907142Y-116400000D01*
X133859523Y-116447619D01*
X133811904Y-116542857D01*
X133764285Y-116733333D01*
X133764285Y-116971428D01*
X133811904Y-117161904D01*
X133859523Y-117257142D01*
X133907142Y-117304761D01*
X134002380Y-117352380D01*
X134097619Y-117352380D01*
X134192857Y-117304761D01*
X134240476Y-117257142D01*
X134288095Y-117161904D01*
X134335714Y-116971428D01*
X134335714Y-116733333D01*
X134288095Y-116542857D01*
X134240476Y-116447619D01*
X134192857Y-116400000D01*
X134097619Y-116352380D01*
X143714285Y-117084666D02*
X143238095Y-117084666D01*
X143809523Y-117370380D02*
X143476190Y-116370380D01*
X143142857Y-117370380D01*
X142619047Y-116370380D02*
X142523809Y-116370380D01*
X142428571Y-116418000D01*
X142380952Y-116465619D01*
X142333333Y-116560857D01*
X142285714Y-116751333D01*
X142285714Y-116989428D01*
X142333333Y-117179904D01*
X142380952Y-117275142D01*
X142428571Y-117322761D01*
X142523809Y-117370380D01*
X142619047Y-117370380D01*
X142714285Y-117322761D01*
X142761904Y-117275142D01*
X142809523Y-117179904D01*
X142857142Y-116989428D01*
X142857142Y-116751333D01*
X142809523Y-116560857D01*
X142761904Y-116465619D01*
X142714285Y-116418000D01*
X142619047Y-116370380D01*
X131009523Y-131200000D02*
X131085714Y-131161904D01*
X131200000Y-131161904D01*
X131314285Y-131200000D01*
X131390476Y-131276190D01*
X131428571Y-131352380D01*
X131466666Y-131504761D01*
X131466666Y-131619047D01*
X131428571Y-131771428D01*
X131390476Y-131847619D01*
X131314285Y-131923809D01*
X131200000Y-131961904D01*
X131123809Y-131961904D01*
X131009523Y-131923809D01*
X130971428Y-131885714D01*
X130971428Y-131619047D01*
X131123809Y-131619047D01*
X130628571Y-131961904D02*
X130628571Y-131161904D01*
X130171428Y-131961904D01*
X130171428Y-131161904D01*
X129790476Y-131961904D02*
X129790476Y-131161904D01*
X129600000Y-131161904D01*
X129485714Y-131200000D01*
X129409523Y-131276190D01*
X129371428Y-131352380D01*
X129333333Y-131504761D01*
X129333333Y-131619047D01*
X129371428Y-131771428D01*
X129409523Y-131847619D01*
X129485714Y-131923809D01*
X129600000Y-131961904D01*
X129790476Y-131961904D01*
X133338095Y-131961904D02*
X133604761Y-131580952D01*
X133795238Y-131961904D02*
X133795238Y-131161904D01*
X133490476Y-131161904D01*
X133414285Y-131200000D01*
X133376190Y-131238095D01*
X133338095Y-131314285D01*
X133338095Y-131428571D01*
X133376190Y-131504761D01*
X133414285Y-131542857D01*
X133490476Y-131580952D01*
X133795238Y-131580952D01*
X133033333Y-131923809D02*
X132919047Y-131961904D01*
X132728571Y-131961904D01*
X132652380Y-131923809D01*
X132614285Y-131885714D01*
X132576190Y-131809523D01*
X132576190Y-131733333D01*
X132614285Y-131657142D01*
X132652380Y-131619047D01*
X132728571Y-131580952D01*
X132880952Y-131542857D01*
X132957142Y-131504761D01*
X132995238Y-131466666D01*
X133033333Y-131390476D01*
X133033333Y-131314285D01*
X132995238Y-131238095D01*
X132957142Y-131200000D01*
X132880952Y-131161904D01*
X132690476Y-131161904D01*
X132576190Y-131200000D01*
X132347619Y-131161904D02*
X131890476Y-131161904D01*
X132119047Y-131961904D02*
X132119047Y-131161904D01*
X161142285Y-117084666D02*
X160666095Y-117084666D01*
X161237523Y-117370380D02*
X160904190Y-116370380D01*
X160570857Y-117370380D01*
X159761333Y-116370380D02*
X160237523Y-116370380D01*
X160285142Y-116846571D01*
X160237523Y-116798952D01*
X160142285Y-116751333D01*
X159904190Y-116751333D01*
X159808952Y-116798952D01*
X159761333Y-116846571D01*
X159713714Y-116941809D01*
X159713714Y-117179904D01*
X159761333Y-117275142D01*
X159808952Y-117322761D01*
X159904190Y-117370380D01*
X160142285Y-117370380D01*
X160237523Y-117322761D01*
X160285142Y-117275142D01*
X157814285Y-117066666D02*
X157338095Y-117066666D01*
X157909523Y-117352380D02*
X157576190Y-116352380D01*
X157242857Y-117352380D01*
X156480952Y-116685714D02*
X156480952Y-117352380D01*
X156719047Y-116304761D02*
X156957142Y-117019047D01*
X156338095Y-117019047D01*
X158902285Y-131784666D02*
X158426095Y-131784666D01*
X158997523Y-132070380D02*
X158664190Y-131070380D01*
X158330857Y-132070380D01*
X157521333Y-131070380D02*
X157997523Y-131070380D01*
X158045142Y-131546571D01*
X157997523Y-131498952D01*
X157902285Y-131451333D01*
X157664190Y-131451333D01*
X157568952Y-131498952D01*
X157521333Y-131546571D01*
X157473714Y-131641809D01*
X157473714Y-131879904D01*
X157521333Y-131975142D01*
X157568952Y-132022761D01*
X157664190Y-132070380D01*
X157902285Y-132070380D01*
X157997523Y-132022761D01*
X158045142Y-131975142D01*
X153714285Y-131766666D02*
X153238095Y-131766666D01*
X153809523Y-132052380D02*
X153476190Y-131052380D01*
X153142857Y-132052380D01*
X152904761Y-131052380D02*
X152285714Y-131052380D01*
X152619047Y-131433333D01*
X152476190Y-131433333D01*
X152380952Y-131480952D01*
X152333333Y-131528571D01*
X152285714Y-131623809D01*
X152285714Y-131861904D01*
X152333333Y-131957142D01*
X152380952Y-132004761D01*
X152476190Y-132052380D01*
X152761904Y-132052380D01*
X152857142Y-132004761D01*
X152904761Y-131957142D01*
X156214285Y-131766666D02*
X155738095Y-131766666D01*
X156309523Y-132052380D02*
X155976190Y-131052380D01*
X155642857Y-132052380D01*
X154880952Y-131385714D02*
X154880952Y-132052380D01*
X155119047Y-131004761D02*
X155357142Y-131719047D01*
X154738095Y-131719047D01*
X154128285Y-117084666D02*
X153652095Y-117084666D01*
X154223523Y-117370380D02*
X153890190Y-116370380D01*
X153556857Y-117370380D01*
X153318761Y-116370380D02*
X152699714Y-116370380D01*
X153033047Y-116751333D01*
X152890190Y-116751333D01*
X152794952Y-116798952D01*
X152747333Y-116846571D01*
X152699714Y-116941809D01*
X152699714Y-117179904D01*
X152747333Y-117275142D01*
X152794952Y-117322761D01*
X152890190Y-117370380D01*
X153175904Y-117370380D01*
X153271142Y-117322761D01*
X153318761Y-117275142D01*
X147214285Y-117084666D02*
X146738095Y-117084666D01*
X147309523Y-117370380D02*
X146976190Y-116370380D01*
X146642857Y-117370380D01*
X145785714Y-117370380D02*
X146357142Y-117370380D01*
X146071428Y-117370380D02*
X146071428Y-116370380D01*
X146166666Y-116513238D01*
X146261904Y-116608476D01*
X146357142Y-116656095D01*
X150714285Y-117084666D02*
X150238095Y-117084666D01*
X150809523Y-117370380D02*
X150476190Y-116370380D01*
X150142857Y-117370380D01*
X149857142Y-116465619D02*
X149809523Y-116418000D01*
X149714285Y-116370380D01*
X149476190Y-116370380D01*
X149380952Y-116418000D01*
X149333333Y-116465619D01*
X149285714Y-116560857D01*
X149285714Y-116656095D01*
X149333333Y-116798952D01*
X149904761Y-117370380D01*
X149285714Y-117370380D01*
X151114285Y-131766666D02*
X150638095Y-131766666D01*
X151209523Y-132052380D02*
X150876190Y-131052380D01*
X150542857Y-132052380D01*
X150257142Y-131147619D02*
X150209523Y-131100000D01*
X150114285Y-131052380D01*
X149876190Y-131052380D01*
X149780952Y-131100000D01*
X149733333Y-131147619D01*
X149685714Y-131242857D01*
X149685714Y-131338095D01*
X149733333Y-131480952D01*
X150304761Y-132052380D01*
X149685714Y-132052380D01*
X148614285Y-131784666D02*
X148138095Y-131784666D01*
X148709523Y-132070380D02*
X148376190Y-131070380D01*
X148042857Y-132070380D01*
X147185714Y-132070380D02*
X147757142Y-132070380D01*
X147471428Y-132070380D02*
X147471428Y-131070380D01*
X147566666Y-131213238D01*
X147661904Y-131308476D01*
X147757142Y-131356095D01*
X146014285Y-131866666D02*
X145538095Y-131866666D01*
X146109523Y-132152380D02*
X145776190Y-131152380D01*
X145442857Y-132152380D01*
X144919047Y-131152380D02*
X144823809Y-131152380D01*
X144728571Y-131200000D01*
X144680952Y-131247619D01*
X144633333Y-131342857D01*
X144585714Y-131533333D01*
X144585714Y-131771428D01*
X144633333Y-131961904D01*
X144680952Y-132057142D01*
X144728571Y-132104761D01*
X144823809Y-132152380D01*
X144919047Y-132152380D01*
X145014285Y-132104761D01*
X145061904Y-132057142D01*
X145109523Y-131961904D01*
X145157142Y-131771428D01*
X145157142Y-131533333D01*
X145109523Y-131342857D01*
X145061904Y-131247619D01*
X145014285Y-131200000D01*
X144919047Y-131152380D01*
D13*
X117450000Y-79825000D02*
X120050000Y-79825000D01*
X122200000Y-73525000D02*
X121950000Y-73525000D01*
X122200000Y-79825000D02*
X122200000Y-73525000D01*
X121950000Y-79825000D02*
X122200000Y-79825000D01*
X120050000Y-73525000D02*
X117450000Y-73525000D01*
X115300000Y-79825000D02*
X115550000Y-79825000D01*
X115300000Y-73525000D02*
X115300000Y-79825000D01*
X115550000Y-73525000D02*
X115300000Y-73525000D01*
D10*
X114450000Y-100550000D02*
X122700000Y-100550000D01*
X114450000Y-116800000D02*
X114450000Y-100550000D01*
X122700000Y-116800000D02*
X114450000Y-116800000D01*
X126950000Y-116800000D02*
X122700000Y-116800000D01*
X126950000Y-100550000D02*
X126950000Y-116800000D01*
X122700000Y-100550000D02*
X126950000Y-100550000D01*
D13*
X167510000Y-127670000D02*
X167510000Y-129000000D01*
X168840000Y-127670000D02*
X167510000Y-127670000D01*
X170110000Y-127670000D02*
X170110000Y-130330000D01*
X170110000Y-130330000D02*
X187950000Y-130330000D01*
X170110000Y-127670000D02*
X187950000Y-127670000D01*
X187950000Y-127670000D02*
X187950000Y-130330000D01*
X159370000Y-130330000D02*
X159370000Y-129000000D01*
X158040000Y-130330000D02*
X159370000Y-130330000D01*
X156770000Y-130330000D02*
X156770000Y-127670000D01*
X156770000Y-127670000D02*
X144010000Y-127670000D01*
X156770000Y-130330000D02*
X144010000Y-130330000D01*
X144010000Y-130330000D02*
X144010000Y-127670000D01*
X129050000Y-127670000D02*
X129050000Y-129000000D01*
X130380000Y-127670000D02*
X129050000Y-127670000D01*
X131650000Y-127670000D02*
X131650000Y-130330000D01*
X131650000Y-130330000D02*
X139330000Y-130330000D01*
X131650000Y-127670000D02*
X139330000Y-127670000D01*
X139330000Y-127670000D02*
X139330000Y-130330000D01*
X139170000Y-64170000D02*
X139170000Y-65500000D01*
X140500000Y-64170000D02*
X139170000Y-64170000D01*
X141770000Y-64170000D02*
X141770000Y-66830000D01*
X141770000Y-66830000D02*
X149450000Y-66830000D01*
X141770000Y-64170000D02*
X149450000Y-64170000D01*
X149450000Y-64170000D02*
X149450000Y-66830000D01*
X135930000Y-64170000D02*
X134600000Y-64170000D01*
X135930000Y-65500000D02*
X135930000Y-64170000D01*
X135930000Y-66770000D02*
X133270000Y-66770000D01*
X133270000Y-66770000D02*
X133270000Y-74450000D01*
X135930000Y-66770000D02*
X135930000Y-74450000D01*
X135930000Y-74450000D02*
X133270000Y-74450000D01*
X167050000Y-76300000D02*
X166650000Y-76300000D01*
X167050000Y-75660000D02*
X167050000Y-76300000D01*
X155645000Y-72441000D02*
X155774000Y-72569000D01*
X153430000Y-70225000D02*
X153524000Y-70319000D01*
X155475000Y-72681000D02*
X155569000Y-72774000D01*
X153225000Y-70431000D02*
X153354000Y-70559000D01*
X159145000Y-72441000D02*
X159274000Y-72569000D01*
X156930000Y-70225000D02*
X157024000Y-70319000D01*
X158975000Y-72681000D02*
X159069000Y-72774000D01*
X156725000Y-70431000D02*
X156854000Y-70559000D01*
X162645000Y-72441000D02*
X162774000Y-72569000D01*
X160430000Y-70225000D02*
X160524000Y-70319000D01*
X162475000Y-72681000D02*
X162569000Y-72774000D01*
X160225000Y-70431000D02*
X160354000Y-70559000D01*
X152690000Y-68340000D02*
X152690000Y-76060000D01*
X166810000Y-68340000D02*
X166810000Y-76060000D01*
X166810000Y-76060000D02*
X152690000Y-76060000D01*
X166810000Y-68340000D02*
X152690000Y-68340000D01*
X166810000Y-74500000D02*
X152690000Y-74500000D01*
X166810000Y-75600000D02*
X152690000Y-75600000D01*
X156180000Y-71500000D02*
G75*
G03X156180000Y-71500000I-1680000J0D01*
G01*
X159680000Y-71500000D02*
G75*
G03X159680000Y-71500000I-1680000J0D01*
G01*
X163180000Y-71500000D02*
G75*
G03X163180000Y-71500000I-1680000J0D01*
G01*
X164971326Y-73180099D02*
G75*
G03X165866000Y-72940000I28674J1680099D01*
G01*
X166425358Y-72389894D02*
G75*
G03X166440000Y-70634000I-1425358J889894D01*
G01*
X165889894Y-70074642D02*
G75*
G03X164134000Y-70060000I-889894J-1425358D01*
G01*
X163574495Y-70609807D02*
G75*
G03X163575000Y-72391000I1425505J-890193D01*
G01*
X164109736Y-72924721D02*
G75*
G03X165000000Y-73180000I890264J1424721D01*
G01*
X166330000Y-66830000D02*
X166330000Y-65500000D01*
X165000000Y-66830000D02*
X166330000Y-66830000D01*
X163730000Y-66830000D02*
X163730000Y-64170000D01*
X163730000Y-64170000D02*
X153510000Y-64170000D01*
X163730000Y-66830000D02*
X153510000Y-66830000D01*
X153510000Y-66830000D02*
X153510000Y-64170000D01*
X163450000Y-118200000D02*
X163850000Y-118200000D01*
X163450000Y-118840000D02*
X163450000Y-118200000D01*
X188855000Y-122059000D02*
X188726000Y-121931000D01*
X191070000Y-124275000D02*
X190976000Y-124181000D01*
X189025000Y-121819000D02*
X188931000Y-121726000D01*
X191275000Y-124069000D02*
X191146000Y-123941000D01*
X185355000Y-122059000D02*
X185226000Y-121931000D01*
X187570000Y-124275000D02*
X187476000Y-124181000D01*
X185525000Y-121819000D02*
X185431000Y-121726000D01*
X187775000Y-124069000D02*
X187646000Y-123941000D01*
X181855000Y-122059000D02*
X181726000Y-121931000D01*
X184070000Y-124275000D02*
X183976000Y-124181000D01*
X182025000Y-121819000D02*
X181931000Y-121726000D01*
X184275000Y-124069000D02*
X184146000Y-123941000D01*
X178355000Y-122059000D02*
X178226000Y-121931000D01*
X180570000Y-124275000D02*
X180476000Y-124181000D01*
X178525000Y-121819000D02*
X178431000Y-121726000D01*
X180775000Y-124069000D02*
X180646000Y-123941000D01*
X174855000Y-122059000D02*
X174726000Y-121931000D01*
X177070000Y-124275000D02*
X176976000Y-124181000D01*
X175025000Y-121819000D02*
X174931000Y-121726000D01*
X177275000Y-124069000D02*
X177146000Y-123941000D01*
X171355000Y-122059000D02*
X171226000Y-121931000D01*
X173570000Y-124275000D02*
X173476000Y-124181000D01*
X171525000Y-121819000D02*
X171431000Y-121726000D01*
X173775000Y-124069000D02*
X173646000Y-123941000D01*
X167855000Y-122059000D02*
X167726000Y-121931000D01*
X170070000Y-124275000D02*
X169976000Y-124181000D01*
X168025000Y-121819000D02*
X167931000Y-121726000D01*
X170275000Y-124069000D02*
X170146000Y-123941000D01*
X191810000Y-126160000D02*
X191810000Y-118440000D01*
X163690000Y-126160000D02*
X163690000Y-118440000D01*
X163690000Y-118440000D02*
X191810000Y-118440000D01*
X163690000Y-126160000D02*
X191810000Y-126160000D01*
X163690000Y-120000000D02*
X191810000Y-120000000D01*
X163690000Y-118900000D02*
X191810000Y-118900000D01*
X191680000Y-123000000D02*
G75*
G03X191680000Y-123000000I-1680000J0D01*
G01*
X188180000Y-123000000D02*
G75*
G03X188180000Y-123000000I-1680000J0D01*
G01*
X184680000Y-123000000D02*
G75*
G03X184680000Y-123000000I-1680000J0D01*
G01*
X181180000Y-123000000D02*
G75*
G03X181180000Y-123000000I-1680000J0D01*
G01*
X177680000Y-123000000D02*
G75*
G03X177680000Y-123000000I-1680000J0D01*
G01*
X174180000Y-123000000D02*
G75*
G03X174180000Y-123000000I-1680000J0D01*
G01*
X170680000Y-123000000D02*
G75*
G03X170680000Y-123000000I-1680000J0D01*
G01*
X165528674Y-121319901D02*
G75*
G03X164634000Y-121560000I-28674J-1680099D01*
G01*
X164074642Y-122110106D02*
G75*
G03X164060000Y-123866000I1425358J-889894D01*
G01*
X164610106Y-124425358D02*
G75*
G03X166366000Y-124440000I889894J1425358D01*
G01*
X166925505Y-123890193D02*
G75*
G03X166925000Y-122109000I-1425505J890193D01*
G01*
X166390264Y-121575279D02*
G75*
G03X165500000Y-121320000I-890264J-1424721D01*
G01*
X132450000Y-118200000D02*
X132850000Y-118200000D01*
X132450000Y-118840000D02*
X132450000Y-118200000D01*
X136855000Y-122059000D02*
X136726000Y-121931000D01*
X139070000Y-124275000D02*
X138976000Y-124181000D01*
X137025000Y-121819000D02*
X136931000Y-121726000D01*
X139275000Y-124069000D02*
X139146000Y-123941000D01*
X139810000Y-126160000D02*
X139810000Y-118440000D01*
X132690000Y-126160000D02*
X132690000Y-118440000D01*
X132690000Y-118440000D02*
X139810000Y-118440000D01*
X132690000Y-126160000D02*
X139810000Y-126160000D01*
X132690000Y-120000000D02*
X139810000Y-120000000D01*
X132690000Y-118900000D02*
X139810000Y-118900000D01*
X139680000Y-123000000D02*
G75*
G03X139680000Y-123000000I-1680000J0D01*
G01*
X134528674Y-121319901D02*
G75*
G03X133634000Y-121560000I-28674J-1680099D01*
G01*
X133074642Y-122110106D02*
G75*
G03X133060000Y-123866000I1425358J-889894D01*
G01*
X133610106Y-124425358D02*
G75*
G03X135366000Y-124440000I889894J1425358D01*
G01*
X135925505Y-123890193D02*
G75*
G03X135925000Y-122109000I-1425505J890193D01*
G01*
X135390264Y-121575279D02*
G75*
G03X134500000Y-121320000I-890264J-1424721D01*
G01*
X151550000Y-76300000D02*
X151150000Y-76300000D01*
X151550000Y-75660000D02*
X151550000Y-76300000D01*
X140145000Y-72441000D02*
X140274000Y-72569000D01*
X137930000Y-70225000D02*
X138024000Y-70319000D01*
X139975000Y-72681000D02*
X140069000Y-72774000D01*
X137725000Y-70431000D02*
X137854000Y-70559000D01*
X143645000Y-72441000D02*
X143774000Y-72569000D01*
X141430000Y-70225000D02*
X141524000Y-70319000D01*
X143475000Y-72681000D02*
X143569000Y-72774000D01*
X141225000Y-70431000D02*
X141354000Y-70559000D01*
X147145000Y-72441000D02*
X147274000Y-72569000D01*
X144930000Y-70225000D02*
X145024000Y-70319000D01*
X146975000Y-72681000D02*
X147069000Y-72774000D01*
X144725000Y-70431000D02*
X144854000Y-70559000D01*
X137190000Y-68340000D02*
X137190000Y-76060000D01*
X151310000Y-68340000D02*
X151310000Y-76060000D01*
X151310000Y-76060000D02*
X137190000Y-76060000D01*
X151310000Y-68340000D02*
X137190000Y-68340000D01*
X151310000Y-74500000D02*
X137190000Y-74500000D01*
X151310000Y-75600000D02*
X137190000Y-75600000D01*
X140680000Y-71500000D02*
G75*
G03X140680000Y-71500000I-1680000J0D01*
G01*
X144180000Y-71500000D02*
G75*
G03X144180000Y-71500000I-1680000J0D01*
G01*
X147680000Y-71500000D02*
G75*
G03X147680000Y-71500000I-1680000J0D01*
G01*
X149471326Y-73180099D02*
G75*
G03X150366000Y-72940000I28674J1680099D01*
G01*
X150925358Y-72389894D02*
G75*
G03X150940000Y-70634000I-1425358J889894D01*
G01*
X150389894Y-70074642D02*
G75*
G03X148634000Y-70060000I-889894J-1425358D01*
G01*
X148074495Y-70609807D02*
G75*
G03X148075000Y-72391000I1425505J-890193D01*
G01*
X148609736Y-72924721D02*
G75*
G03X149500000Y-73180000I890264J1424721D01*
G01*
X140950000Y-118200000D02*
X141350000Y-118200000D01*
X140950000Y-118840000D02*
X140950000Y-118200000D01*
X159355000Y-122059000D02*
X159226000Y-121931000D01*
X161570000Y-124275000D02*
X161476000Y-124181000D01*
X159525000Y-121819000D02*
X159431000Y-121726000D01*
X161775000Y-124069000D02*
X161646000Y-123941000D01*
X155855000Y-122059000D02*
X155726000Y-121931000D01*
X158070000Y-124275000D02*
X157976000Y-124181000D01*
X156025000Y-121819000D02*
X155931000Y-121726000D01*
X158275000Y-124069000D02*
X158146000Y-123941000D01*
X152355000Y-122059000D02*
X152226000Y-121931000D01*
X154570000Y-124275000D02*
X154476000Y-124181000D01*
X152525000Y-121819000D02*
X152431000Y-121726000D01*
X154775000Y-124069000D02*
X154646000Y-123941000D01*
X148855000Y-122059000D02*
X148726000Y-121931000D01*
X151070000Y-124275000D02*
X150976000Y-124181000D01*
X149025000Y-121819000D02*
X148931000Y-121726000D01*
X151275000Y-124069000D02*
X151146000Y-123941000D01*
X145355000Y-122059000D02*
X145226000Y-121931000D01*
X147570000Y-124275000D02*
X147476000Y-124181000D01*
X145525000Y-121819000D02*
X145431000Y-121726000D01*
X147775000Y-124069000D02*
X147646000Y-123941000D01*
X162311000Y-126160000D02*
X162311000Y-118440000D01*
X141190000Y-126160000D02*
X141190000Y-118440000D01*
X141190000Y-118440000D02*
X162311000Y-118440000D01*
X141190000Y-126160000D02*
X162311000Y-126160000D01*
X141190000Y-120000000D02*
X162311000Y-120000000D01*
X141190000Y-118900000D02*
X162311000Y-118900000D01*
X162180000Y-123000000D02*
G75*
G03X162180000Y-123000000I-1680000J0D01*
G01*
X158680000Y-123000000D02*
G75*
G03X158680000Y-123000000I-1680000J0D01*
G01*
X155180000Y-123000000D02*
G75*
G03X155180000Y-123000000I-1680000J0D01*
G01*
X151680000Y-123000000D02*
G75*
G03X151680000Y-123000000I-1680000J0D01*
G01*
X148180000Y-123000000D02*
G75*
G03X148180000Y-123000000I-1680000J0D01*
G01*
X143028674Y-121319901D02*
G75*
G03X142134000Y-121560000I-28674J-1680099D01*
G01*
X141574642Y-122110106D02*
G75*
G03X141560000Y-123866000I1425358J-889894D01*
G01*
X142110106Y-124425358D02*
G75*
G03X143866000Y-124440000I889894J1425358D01*
G01*
X144425505Y-123890193D02*
G75*
G03X144425000Y-122109000I-1425505J890193D01*
G01*
X143890264Y-121575279D02*
G75*
G03X143000000Y-121320000I-890264J-1424721D01*
G01*
X130410000Y-83850000D02*
X129410000Y-83850000D01*
X129910000Y-84350000D02*
X129910000Y-83350000D01*
X124204437Y-83110000D02*
X123140000Y-82045563D01*
X130595563Y-83110000D02*
X131660000Y-82045563D01*
X130595563Y-83110000D02*
X128910000Y-83110000D01*
X124204437Y-83110000D02*
X125890000Y-83110000D01*
X123140000Y-82045563D02*
X123140000Y-74590000D01*
X131660000Y-82045563D02*
X131660000Y-74590000D01*
X131660000Y-74590000D02*
X128910000Y-74590000D01*
X123140000Y-74590000D02*
X125890000Y-74590000D01*
X178150000Y-64945000D02*
X175250000Y-64945000D01*
X178150000Y-71655000D02*
X175250000Y-71655000D01*
X173345000Y-66850000D02*
X173345000Y-69750000D01*
X180055000Y-66850000D02*
X180055000Y-69750000D01*
X126400000Y-68050000D02*
X126400000Y-67600000D01*
X126400000Y-68050000D02*
X126850000Y-68050000D01*
X132000000Y-67500000D02*
X131550000Y-67500000D01*
X132000000Y-65650000D02*
X132000000Y-67500000D01*
X124200000Y-63100000D02*
X124200000Y-63350000D01*
X132000000Y-63100000D02*
X132000000Y-63350000D01*
X124200000Y-65650000D02*
X124200000Y-67500000D01*
X124200000Y-67500000D02*
X124650000Y-67500000D01*
X118400000Y-84800000D02*
X118400000Y-87400000D01*
X133100000Y-84800000D02*
X118400000Y-84800000D01*
X118400000Y-94000000D02*
X120300000Y-94000000D01*
X118400000Y-91300000D02*
X118400000Y-94000000D01*
X133100000Y-94000000D02*
X133100000Y-84800000D01*
X124300000Y-94000000D02*
X133100000Y-94000000D01*
X119250000Y-84600000D02*
X118200000Y-84600000D01*
X118200000Y-85650000D02*
X118200000Y-84600000D01*
D10*
X125175888Y-127629032D02*
X118775888Y-127629032D01*
X118775888Y-127629032D02*
X118775888Y-121429032D01*
X118775888Y-121429032D02*
X125175888Y-121429032D01*
X125175888Y-121429032D02*
X125175888Y-127629032D01*
X119658731Y-127029032D02*
G75*
G03X119658731Y-127029032I-282843J0D01*
G01*
X118804761Y-68766666D02*
X118852380Y-68909523D01*
X118852380Y-69147619D01*
X118804761Y-69242857D01*
X118757142Y-69290476D01*
X118661904Y-69338095D01*
X118566666Y-69338095D01*
X118471428Y-69290476D01*
X118423809Y-69242857D01*
X118376190Y-69147619D01*
X118328571Y-68957142D01*
X118280952Y-68861904D01*
X118233333Y-68814285D01*
X118138095Y-68766666D01*
X118042857Y-68766666D01*
X117947619Y-68814285D01*
X117900000Y-68861904D01*
X117852380Y-68957142D01*
X117852380Y-69195238D01*
X117900000Y-69338095D01*
X117852380Y-69671428D02*
X118852380Y-69909523D01*
X118138095Y-70100000D01*
X118852380Y-70290476D01*
X117852380Y-70528571D01*
X118852380Y-71433333D02*
X118852380Y-70861904D01*
X118852380Y-71147619D02*
X117852380Y-71147619D01*
X117995238Y-71052380D01*
X118090476Y-70957142D01*
X118138095Y-70861904D01*
X119252380Y-114636666D02*
X119966666Y-114636666D01*
X120109523Y-114589047D01*
X120204761Y-114493809D01*
X120252380Y-114350952D01*
X120252380Y-114255714D01*
X119252380Y-115541428D02*
X119252380Y-115350952D01*
X119300000Y-115255714D01*
X119347619Y-115208095D01*
X119490476Y-115112857D01*
X119680952Y-115065238D01*
X120061904Y-115065238D01*
X120157142Y-115112857D01*
X120204761Y-115160476D01*
X120252380Y-115255714D01*
X120252380Y-115446190D01*
X120204761Y-115541428D01*
X120157142Y-115589047D01*
X120061904Y-115636666D01*
X119823809Y-115636666D01*
X119728571Y-115589047D01*
X119680952Y-115541428D01*
X119633333Y-115446190D01*
X119633333Y-115255714D01*
X119680952Y-115160476D01*
X119728571Y-115112857D01*
X119823809Y-115065238D01*
X128428571Y-101012857D02*
X128428571Y-100679523D01*
X128952380Y-100679523D02*
X127952380Y-100679523D01*
X127952380Y-101155714D01*
X128952380Y-101536666D02*
X128285714Y-101536666D01*
X128476190Y-101536666D02*
X128380952Y-101584285D01*
X128333333Y-101631904D01*
X128285714Y-101727142D01*
X128285714Y-101822380D01*
X128952380Y-102298571D02*
X128904761Y-102203333D01*
X128857142Y-102155714D01*
X128761904Y-102108095D01*
X128476190Y-102108095D01*
X128380952Y-102155714D01*
X128333333Y-102203333D01*
X128285714Y-102298571D01*
X128285714Y-102441428D01*
X128333333Y-102536666D01*
X128380952Y-102584285D01*
X128476190Y-102631904D01*
X128761904Y-102631904D01*
X128857142Y-102584285D01*
X128904761Y-102536666D01*
X128952380Y-102441428D01*
X128952380Y-102298571D01*
X128285714Y-103060476D02*
X128952380Y-103060476D01*
X128380952Y-103060476D02*
X128333333Y-103108095D01*
X128285714Y-103203333D01*
X128285714Y-103346190D01*
X128333333Y-103441428D01*
X128428571Y-103489047D01*
X128952380Y-103489047D01*
X128285714Y-103822380D02*
X128285714Y-104203333D01*
X127952380Y-103965238D02*
X128809523Y-103965238D01*
X128904761Y-104012857D01*
X128952380Y-104108095D01*
X128952380Y-104203333D01*
X165962380Y-128190476D02*
X166676666Y-128190476D01*
X166819523Y-128142857D01*
X166914761Y-128047619D01*
X166962380Y-127904761D01*
X166962380Y-127809523D01*
X166962380Y-129190476D02*
X166962380Y-128619047D01*
X166962380Y-128904761D02*
X165962380Y-128904761D01*
X166105238Y-128809523D01*
X166200476Y-128714285D01*
X166248095Y-128619047D01*
X165962380Y-129809523D02*
X165962380Y-129904761D01*
X166010000Y-130000000D01*
X166057619Y-130047619D01*
X166152857Y-130095238D01*
X166343333Y-130142857D01*
X166581428Y-130142857D01*
X166771904Y-130095238D01*
X166867142Y-130047619D01*
X166914761Y-130000000D01*
X166962380Y-129904761D01*
X166962380Y-129809523D01*
X166914761Y-129714285D01*
X166867142Y-129666666D01*
X166771904Y-129619047D01*
X166581428Y-129571428D01*
X166343333Y-129571428D01*
X166152857Y-129619047D01*
X166057619Y-129666666D01*
X166010000Y-129714285D01*
X165962380Y-129809523D01*
X160917619Y-129333333D02*
X160203333Y-129333333D01*
X160060476Y-129380952D01*
X159965238Y-129476190D01*
X159917619Y-129619047D01*
X159917619Y-129714285D01*
X159917619Y-128809523D02*
X159917619Y-128619047D01*
X159965238Y-128523809D01*
X160012857Y-128476190D01*
X160155714Y-128380952D01*
X160346190Y-128333333D01*
X160727142Y-128333333D01*
X160822380Y-128380952D01*
X160870000Y-128428571D01*
X160917619Y-128523809D01*
X160917619Y-128714285D01*
X160870000Y-128809523D01*
X160822380Y-128857142D01*
X160727142Y-128904761D01*
X160489047Y-128904761D01*
X160393809Y-128857142D01*
X160346190Y-128809523D01*
X160298571Y-128714285D01*
X160298571Y-128523809D01*
X160346190Y-128428571D01*
X160393809Y-128380952D01*
X160489047Y-128333333D01*
X128502380Y-128261904D02*
X127502380Y-128261904D01*
X127502380Y-128642857D01*
X127550000Y-128738095D01*
X127597619Y-128785714D01*
X127692857Y-128833333D01*
X127835714Y-128833333D01*
X127930952Y-128785714D01*
X127978571Y-128738095D01*
X128026190Y-128642857D01*
X128026190Y-128261904D01*
X127835714Y-129690476D02*
X128502380Y-129690476D01*
X127454761Y-129452380D02*
X128169047Y-129214285D01*
X128169047Y-129833333D01*
X151238095Y-65252380D02*
X151238095Y-64252380D01*
X150857142Y-64252380D01*
X150761904Y-64300000D01*
X150714285Y-64347619D01*
X150666666Y-64442857D01*
X150666666Y-64585714D01*
X150714285Y-64680952D01*
X150761904Y-64728571D01*
X150857142Y-64776190D01*
X151238095Y-64776190D01*
X150333333Y-64252380D02*
X149714285Y-64252380D01*
X150047619Y-64633333D01*
X149904761Y-64633333D01*
X149809523Y-64680952D01*
X149761904Y-64728571D01*
X149714285Y-64823809D01*
X149714285Y-65061904D01*
X149761904Y-65157142D01*
X149809523Y-65204761D01*
X149904761Y-65252380D01*
X150190476Y-65252380D01*
X150285714Y-65204761D01*
X150333333Y-65157142D01*
X132852380Y-72561904D02*
X131852380Y-72561904D01*
X131852380Y-72942857D01*
X131900000Y-73038095D01*
X131947619Y-73085714D01*
X132042857Y-73133333D01*
X132185714Y-73133333D01*
X132280952Y-73085714D01*
X132328571Y-73038095D01*
X132376190Y-72942857D01*
X132376190Y-72561904D01*
X131947619Y-73514285D02*
X131900000Y-73561904D01*
X131852380Y-73657142D01*
X131852380Y-73895238D01*
X131900000Y-73990476D01*
X131947619Y-74038095D01*
X132042857Y-74085714D01*
X132138095Y-74085714D01*
X132280952Y-74038095D01*
X132852380Y-73466666D01*
X132852380Y-74085714D01*
X168033333Y-68452380D02*
X168033333Y-69166666D01*
X168080952Y-69309523D01*
X168176190Y-69404761D01*
X168319047Y-69452380D01*
X168414285Y-69452380D01*
X167080952Y-68452380D02*
X167557142Y-68452380D01*
X167604761Y-68928571D01*
X167557142Y-68880952D01*
X167461904Y-68833333D01*
X167223809Y-68833333D01*
X167128571Y-68880952D01*
X167080952Y-68928571D01*
X167033333Y-69023809D01*
X167033333Y-69261904D01*
X167080952Y-69357142D01*
X167128571Y-69404761D01*
X167223809Y-69452380D01*
X167461904Y-69452380D01*
X167557142Y-69404761D01*
X167604761Y-69357142D01*
X167663333Y-64952380D02*
X167663333Y-65666666D01*
X167710952Y-65809523D01*
X167806190Y-65904761D01*
X167949047Y-65952380D01*
X168044285Y-65952380D01*
X167044285Y-65380952D02*
X167139523Y-65333333D01*
X167187142Y-65285714D01*
X167234761Y-65190476D01*
X167234761Y-65142857D01*
X167187142Y-65047619D01*
X167139523Y-65000000D01*
X167044285Y-64952380D01*
X166853809Y-64952380D01*
X166758571Y-65000000D01*
X166710952Y-65047619D01*
X166663333Y-65142857D01*
X166663333Y-65190476D01*
X166710952Y-65285714D01*
X166758571Y-65333333D01*
X166853809Y-65380952D01*
X167044285Y-65380952D01*
X167139523Y-65428571D01*
X167187142Y-65476190D01*
X167234761Y-65571428D01*
X167234761Y-65761904D01*
X167187142Y-65857142D01*
X167139523Y-65904761D01*
X167044285Y-65952380D01*
X166853809Y-65952380D01*
X166758571Y-65904761D01*
X166710952Y-65857142D01*
X166663333Y-65761904D01*
X166663333Y-65571428D01*
X166710952Y-65476190D01*
X166758571Y-65428571D01*
X166853809Y-65380952D01*
X164733333Y-126552380D02*
X164733333Y-127266666D01*
X164780952Y-127409523D01*
X164876190Y-127504761D01*
X165019047Y-127552380D01*
X165114285Y-127552380D01*
X163828571Y-126885714D02*
X163828571Y-127552380D01*
X164066666Y-126504761D02*
X164304761Y-127219047D01*
X163685714Y-127219047D01*
X132033333Y-125152380D02*
X132033333Y-125866666D01*
X132080952Y-126009523D01*
X132176190Y-126104761D01*
X132319047Y-126152380D01*
X132414285Y-126152380D01*
X131652380Y-125152380D02*
X131033333Y-125152380D01*
X131366666Y-125533333D01*
X131223809Y-125533333D01*
X131128571Y-125580952D01*
X131080952Y-125628571D01*
X131033333Y-125723809D01*
X131033333Y-125961904D01*
X131080952Y-126057142D01*
X131128571Y-126104761D01*
X131223809Y-126152380D01*
X131509523Y-126152380D01*
X131604761Y-126104761D01*
X131652380Y-126057142D01*
X151633333Y-66952380D02*
X151633333Y-67666666D01*
X151680952Y-67809523D01*
X151776190Y-67904761D01*
X151919047Y-67952380D01*
X152014285Y-67952380D01*
X151204761Y-67047619D02*
X151157142Y-67000000D01*
X151061904Y-66952380D01*
X150823809Y-66952380D01*
X150728571Y-67000000D01*
X150680952Y-67047619D01*
X150633333Y-67142857D01*
X150633333Y-67238095D01*
X150680952Y-67380952D01*
X151252380Y-67952380D01*
X150633333Y-67952380D01*
X142233333Y-126352380D02*
X142233333Y-127066666D01*
X142280952Y-127209523D01*
X142376190Y-127304761D01*
X142519047Y-127352380D01*
X142614285Y-127352380D01*
X141233333Y-127352380D02*
X141804761Y-127352380D01*
X141519047Y-127352380D02*
X141519047Y-126352380D01*
X141614285Y-126495238D01*
X141709523Y-126590476D01*
X141804761Y-126638095D01*
X176528571Y-91814285D02*
X176576190Y-91957142D01*
X176623809Y-92004761D01*
X176719047Y-92052380D01*
X176861904Y-92052380D01*
X176957142Y-92004761D01*
X177004761Y-91957142D01*
X177052380Y-91861904D01*
X177052380Y-91480952D01*
X176052380Y-91480952D01*
X176052380Y-91814285D01*
X176100000Y-91909523D01*
X176147619Y-91957142D01*
X176242857Y-92004761D01*
X176338095Y-92004761D01*
X176433333Y-91957142D01*
X176480952Y-91909523D01*
X176528571Y-91814285D01*
X176528571Y-91480952D01*
X176052380Y-92338095D02*
X176052380Y-92909523D01*
X177052380Y-92623809D02*
X176052380Y-92623809D01*
X177052380Y-93766666D02*
X177052380Y-93195238D01*
X177052380Y-93480952D02*
X176052380Y-93480952D01*
X176195238Y-93385714D01*
X176290476Y-93290476D01*
X176338095Y-93195238D01*
X124666666Y-74257142D02*
X124714285Y-74304761D01*
X124857142Y-74352380D01*
X124952380Y-74352380D01*
X125095238Y-74304761D01*
X125190476Y-74209523D01*
X125238095Y-74114285D01*
X125285714Y-73923809D01*
X125285714Y-73780952D01*
X125238095Y-73590476D01*
X125190476Y-73495238D01*
X125095238Y-73400000D01*
X124952380Y-73352380D01*
X124857142Y-73352380D01*
X124714285Y-73400000D01*
X124666666Y-73447619D01*
X124333333Y-73352380D02*
X123666666Y-73352380D01*
X124095238Y-74352380D01*
X172695238Y-68366666D02*
X172219047Y-68366666D01*
X172790476Y-68652380D02*
X172457142Y-67652380D01*
X172123809Y-68652380D01*
X171933333Y-67652380D02*
X171361904Y-67652380D01*
X171647619Y-68652380D02*
X171647619Y-67652380D01*
X170504761Y-68652380D02*
X171076190Y-68652380D01*
X170790476Y-68652380D02*
X170790476Y-67652380D01*
X170885714Y-67795238D01*
X170980952Y-67890476D01*
X171076190Y-67938095D01*
X123033333Y-65052380D02*
X123033333Y-65766666D01*
X123080952Y-65909523D01*
X123176190Y-66004761D01*
X123319047Y-66052380D01*
X123414285Y-66052380D01*
X122652380Y-65052380D02*
X121985714Y-65052380D01*
X122414285Y-66052380D01*
X128964285Y-95507142D02*
X129011904Y-95554761D01*
X129154761Y-95602380D01*
X129250000Y-95602380D01*
X129392857Y-95554761D01*
X129488095Y-95459523D01*
X129535714Y-95364285D01*
X129583333Y-95173809D01*
X129583333Y-95030952D01*
X129535714Y-94840476D01*
X129488095Y-94745238D01*
X129392857Y-94650000D01*
X129250000Y-94602380D01*
X129154761Y-94602380D01*
X129011904Y-94650000D01*
X128964285Y-94697619D01*
X128345238Y-94602380D02*
X128154761Y-94602380D01*
X128059523Y-94650000D01*
X127964285Y-94745238D01*
X127916666Y-94935714D01*
X127916666Y-95269047D01*
X127964285Y-95459523D01*
X128059523Y-95554761D01*
X128154761Y-95602380D01*
X128345238Y-95602380D01*
X128440476Y-95554761D01*
X128535714Y-95459523D01*
X128583333Y-95269047D01*
X128583333Y-94935714D01*
X128535714Y-94745238D01*
X128440476Y-94650000D01*
X128345238Y-94602380D01*
X127488095Y-95602380D02*
X127488095Y-94602380D01*
X126916666Y-95602380D01*
X126916666Y-94602380D01*
X126488095Y-94697619D02*
X126440476Y-94650000D01*
X126345238Y-94602380D01*
X126107142Y-94602380D01*
X126011904Y-94650000D01*
X125964285Y-94697619D01*
X125916666Y-94792857D01*
X125916666Y-94888095D01*
X125964285Y-95030952D01*
X126535714Y-95602380D01*
X125916666Y-95602380D01*
X120162792Y-128231412D02*
X120162792Y-129040936D01*
X120115173Y-129136174D01*
X120067554Y-129183793D01*
X119972316Y-129231412D01*
X119781840Y-129231412D01*
X119686602Y-129183793D01*
X119638983Y-129136174D01*
X119591364Y-129040936D01*
X119591364Y-128231412D01*
X119162792Y-128326651D02*
X119115173Y-128279032D01*
X119019935Y-128231412D01*
X118781840Y-128231412D01*
X118686602Y-128279032D01*
X118638983Y-128326651D01*
X118591364Y-128421889D01*
X118591364Y-128517127D01*
X118638983Y-128659984D01*
X119210411Y-129231412D01*
X118591364Y-129231412D01*
M02*
