M48
; DRILL file {KiCad (5.1.5)-3} date 2020/05/04 21:39:01
; FORMAT={-:-/ absolute / inch / decimal}
; #@! TF.CreationDate,2020-05-04T21:39:01+10:00
; #@! TF.GenerationSoftware,Kicad,Pcbnew,(5.1.5)-3
FMAT,2
INCH
T1C0.0157
T2C0.0236
T3C0.0335
T4C0.0354
T5C0.0394
T6C0.0472
T7C0.0591
T8C0.0669
T9C0.0866
T10C0.1280
%
G90
G05
T1
X4.5846Y-3.1772
X4.5856Y-4.5984
X4.5866Y-2.9488
X4.6181Y-3.0679
X4.6654Y-3.8819
X4.6654Y-3.937
X4.6929Y-3.8543
X4.6929Y-3.9094
X4.7047Y-2.8583
X4.815Y-4.7047
X4.9252Y-4.2677
X5.0079Y-2.7244
X5.0079Y-4.378
X5.0433Y-4.6063
X5.0551Y-2.7244
X5.0787Y-2.7598
X5.0866Y-4.6102
X5.1181Y-4.3701
X5.1181Y-4.4094
X5.126Y-4.6102
X5.1299Y-2.7323
X5.1457Y-4.4484
X5.1654Y-4.6102
X5.1787Y-4.4721
X5.2035Y-4.2178
X5.2165Y-4.4882
X5.2205Y-3.3858
X5.2281Y-4.11
X5.2441Y-4.1378
X5.2874Y-4.1378
X5.3189Y-3.0984
X5.3543Y-4.3937
X5.4348Y-4.4037
X5.437Y-4.4449
X5.4567Y-3.6378
X5.4646Y-3.5591
X5.5Y-4.0551
X5.5079Y-4.0197
X5.5374Y-4.3386
X5.5591Y-4.122
X5.5748Y-3.122
X5.5945Y-4.1535
X5.6102Y-3.0984
X5.626Y-4.1654
X5.7008Y-4.2283
X5.7244Y-3.2244
X5.7362Y-3.811
X5.748Y-3.6575
X5.8Y-4.355
X5.835Y-4.34
X5.8386Y-3.5197
X5.8456Y-4.31
X5.9409Y-3.1102
X5.9724Y-3.2205
X6.1139Y-3.9997
X6.165Y-4.195
X6.365Y-3.97
X6.4055Y-4.4016
X6.4173Y-3.4134
X6.4291Y-3.1299
X6.5008Y-4.0559
X6.5593Y-3.9973
X6.5669Y-3.2717
X6.5827Y-3.4213
X6.5866Y-3.5787
X6.6181Y-3.7323
X6.6378Y-3.5394
X6.6378Y-3.5827
X6.685Y-3.56
X6.7717Y-3.4528
X6.8307Y-2.9016
X6.8898Y-2.9331
X6.8898Y-2.9921
X6.9724Y-4.4213
X7.0276Y-2.874
X7.0276Y-2.9331
X7.0276Y-2.9921
X7.1142Y-4.1181
X7.1654Y-2.7559
X7.1654Y-2.815
X7.1654Y-2.874
X7.1654Y-2.9331
X7.1654Y-2.9921
X7.2323Y-4.1378
X7.2638Y-3.2283
X7.3031Y-2.7559
X7.3031Y-2.815
X7.3031Y-2.874
X7.3031Y-2.9331
X7.3031Y-2.9921
X7.3189Y-4.437
T3
X4.9449Y-2.6457
X5.1417Y-2.6457
T4
X4.6607Y-4.1374
X4.6607Y-4.2177
X4.6607Y-4.298
X4.6607Y-4.3783
X4.7307Y-4.176
X4.7307Y-4.2563
X4.7307Y-4.3366
X4.7307Y-4.4169
T5
X6.0961Y-2.5787
X6.1961Y-2.5787
X6.2961Y-2.5787
X6.3961Y-2.5787
X6.4961Y-2.5787
X5.2992Y-2.5787
X5.2992Y-2.6787
X5.2992Y-2.7787
X5.2992Y-2.8787
X5.722Y-5.0787
X5.822Y-5.0787
X5.922Y-5.0787
X6.022Y-5.0787
X6.122Y-5.0787
X6.222Y-5.0787
X6.6472Y-5.0787
X6.7472Y-5.0787
X6.8472Y-5.0787
X6.9472Y-5.0787
X7.0472Y-5.0787
X7.1472Y-5.0787
X7.2472Y-5.0787
X7.3472Y-5.0787
X6.7063Y-4.1902
X6.8063Y-4.1902
X6.9063Y-4.1902
X7.0063Y-4.1902
X5.1331Y-5.0787
X5.2331Y-5.0787
X5.3331Y-5.0787
X5.4331Y-5.0787
X5.5315Y-2.5787
X5.6315Y-2.5787
X5.7315Y-2.5787
X5.8315Y-2.5787
T6
X5.2953Y-4.8425
X5.4331Y-4.8425
X6.0827Y-2.815
X6.2205Y-2.815
X6.3583Y-2.815
X6.4961Y-2.815
X5.6299Y-4.8425
X5.7677Y-4.8425
X5.9055Y-4.8425
X6.0433Y-4.8425
X6.1811Y-4.8425
X6.3189Y-4.8425
X5.4724Y-2.815
X5.6102Y-2.815
X5.748Y-2.815
X5.8858Y-2.815
X6.5157Y-4.8425
X6.6535Y-4.8425
X6.7913Y-4.8425
X6.9291Y-4.8425
X7.0669Y-4.8425
X7.2047Y-4.8425
X7.3425Y-4.8425
X7.4803Y-4.8425
T7
X6.9567Y-2.689
T8
X6.8567Y-2.589
X6.8567Y-2.789
X7.0567Y-2.589
X7.0567Y-2.789
T9
X4.6772Y-2.6654
X6.6496Y-4.4449
T10
X4.8307Y-4.0276
X4.8307Y-4.5276
T2
G00X4.9055Y-2.5531
M15
G01X4.9055Y-2.5256
M16
G05
G00X5.1811Y-2.5256
M15
G01X5.1811Y-2.5531
M16
G05
T5
G00X4.6969Y-3.5591
M15
G01X4.6969Y-3.4803
M16
G05
G00X4.8543Y-3.7047
M15
G01X4.7756Y-3.7047
M16
G05
G00X4.9331Y-3.5591
M15
G01X4.9331Y-3.4803
M16
G05
T0
M30
