G04 #@! TF.GenerationSoftware,KiCad,Pcbnew,(5.1.5)-3*
G04 #@! TF.CreationDate,2020-05-04T21:38:58+10:00*
G04 #@! TF.ProjectId,BoSL,426f534c-2e6b-4696-9361-645f70636258,0.4*
G04 #@! TF.SameCoordinates,Original*
G04 #@! TF.FileFunction,Soldermask,Bot*
G04 #@! TF.FilePolarity,Negative*
%FSLAX46Y46*%
G04 Gerber Fmt 4.6, Leading zero omitted, Abs format (unit mm)*
G04 Created by KiCad (PCBNEW (5.1.5)-3) date 2020-05-04 21:38:58*
%MOMM*%
%LPD*%
G04 APERTURE LIST*
%ADD10R,1.700000X1.950000*%
%ADD11C,1.850000*%
%ADD12C,4.000000*%
%ADD13O,2.100000X2.100000*%
%ADD14R,2.100000X2.100000*%
%ADD15C,2.800000*%
%ADD16R,2.800000X2.800000*%
%ADD17R,3.600000X3.600000*%
%ADD18R,4.400000X4.400000*%
%ADD19C,4.800000*%
%ADD20C,0.100000*%
%ADD21C,2.650000*%
%ADD22C,2.450000*%
%ADD23R,1.600000X2.300000*%
%ADD24O,1.600000X2.300000*%
%ADD25R,1.900000X2.300000*%
%ADD26R,0.800000X1.750000*%
%ADD27R,3.900000X3.900000*%
%ADD28R,2.650000X1.300000*%
%ADD29R,3.200000X1.300000*%
G04 APERTURE END LIST*
D10*
X121000000Y-80650000D03*
X121000000Y-72700000D03*
X116500000Y-80650000D03*
X116500000Y-72700000D03*
D11*
X118382000Y-111210000D03*
X118382000Y-109170000D03*
X118382000Y-107130000D03*
X118382000Y-105090000D03*
X120160000Y-112190000D03*
X120160000Y-106070000D03*
X120160000Y-110150000D03*
X120160000Y-108110000D03*
D12*
X122700000Y-102300000D03*
X122700000Y-115000000D03*
D13*
X186620000Y-129000000D03*
X184080000Y-129000000D03*
X181540000Y-129000000D03*
X179000000Y-129000000D03*
X176460000Y-129000000D03*
X173920000Y-129000000D03*
X171380000Y-129000000D03*
D14*
X168840000Y-129000000D03*
D13*
X145340000Y-129000000D03*
X147880000Y-129000000D03*
X150420000Y-129000000D03*
X152960000Y-129000000D03*
X155500000Y-129000000D03*
D14*
X158040000Y-129000000D03*
D13*
X138000000Y-129000000D03*
X135460000Y-129000000D03*
X132920000Y-129000000D03*
D14*
X130380000Y-129000000D03*
D13*
X148120000Y-65500000D03*
X145580000Y-65500000D03*
X143040000Y-65500000D03*
D14*
X140500000Y-65500000D03*
D13*
X134600000Y-73120000D03*
X134600000Y-70580000D03*
X134600000Y-68040000D03*
D14*
X134600000Y-65500000D03*
D15*
X154500000Y-71500000D03*
X158000000Y-71500000D03*
X161500000Y-71500000D03*
D16*
X165000000Y-71500000D03*
D13*
X154840000Y-65500000D03*
X157380000Y-65500000D03*
X159920000Y-65500000D03*
X162460000Y-65500000D03*
D14*
X165000000Y-65500000D03*
D15*
X190000000Y-123000000D03*
X186500000Y-123000000D03*
X183000000Y-123000000D03*
X179500000Y-123000000D03*
X176000000Y-123000000D03*
X172500000Y-123000000D03*
X169000000Y-123000000D03*
D16*
X165500000Y-123000000D03*
D15*
X138000000Y-123000000D03*
D16*
X134500000Y-123000000D03*
D15*
X139000000Y-71500000D03*
X142500000Y-71500000D03*
X146000000Y-71500000D03*
D16*
X149500000Y-71500000D03*
D15*
X160500000Y-123000000D03*
X157000000Y-123000000D03*
X153500000Y-123000000D03*
X150000000Y-123000000D03*
X146500000Y-123000000D03*
D16*
X143000000Y-123000000D03*
D17*
X181300000Y-99900000D03*
X181300000Y-85300000D03*
D18*
X181300000Y-92600000D03*
D13*
X170340000Y-106430000D03*
X172880000Y-106430000D03*
X175420000Y-106430000D03*
D14*
X177960000Y-106430000D03*
D19*
X168900000Y-112900000D03*
X118800000Y-67700000D03*
D20*
G36*
X128588425Y-73651396D02*
G01*
X128616576Y-73655572D01*
X128644183Y-73662487D01*
X128670978Y-73672075D01*
X128696705Y-73684243D01*
X128721115Y-73698874D01*
X128743974Y-73715827D01*
X128765061Y-73734939D01*
X128784173Y-73756026D01*
X128801126Y-73778885D01*
X128815757Y-73803295D01*
X128827925Y-73829022D01*
X128837513Y-73855817D01*
X128844428Y-73883424D01*
X128848604Y-73911575D01*
X128850000Y-73940000D01*
X128850000Y-77260000D01*
X128848604Y-77288425D01*
X128844428Y-77316576D01*
X128837513Y-77344183D01*
X128827925Y-77370978D01*
X128815757Y-77396705D01*
X128801126Y-77421115D01*
X128784173Y-77443974D01*
X128765061Y-77465061D01*
X128743974Y-77484173D01*
X128721115Y-77501126D01*
X128696705Y-77515757D01*
X128670978Y-77527925D01*
X128644183Y-77537513D01*
X128616576Y-77544428D01*
X128588425Y-77548604D01*
X128560000Y-77550000D01*
X126240000Y-77550000D01*
X126211575Y-77548604D01*
X126183424Y-77544428D01*
X126155817Y-77537513D01*
X126129022Y-77527925D01*
X126103295Y-77515757D01*
X126078885Y-77501126D01*
X126056026Y-77484173D01*
X126034939Y-77465061D01*
X126015827Y-77443974D01*
X125998874Y-77421115D01*
X125984243Y-77396705D01*
X125972075Y-77370978D01*
X125962487Y-77344183D01*
X125955572Y-77316576D01*
X125951396Y-77288425D01*
X125950000Y-77260000D01*
X125950000Y-73940000D01*
X125951396Y-73911575D01*
X125955572Y-73883424D01*
X125962487Y-73855817D01*
X125972075Y-73829022D01*
X125984243Y-73803295D01*
X125998874Y-73778885D01*
X126015827Y-73756026D01*
X126034939Y-73734939D01*
X126056026Y-73715827D01*
X126078885Y-73698874D01*
X126103295Y-73684243D01*
X126129022Y-73672075D01*
X126155817Y-73662487D01*
X126183424Y-73655572D01*
X126211575Y-73651396D01*
X126240000Y-73650000D01*
X128560000Y-73650000D01*
X128588425Y-73651396D01*
G37*
G36*
X128588425Y-80151396D02*
G01*
X128616576Y-80155572D01*
X128644183Y-80162487D01*
X128670978Y-80172075D01*
X128696705Y-80184243D01*
X128721115Y-80198874D01*
X128743974Y-80215827D01*
X128765061Y-80234939D01*
X128784173Y-80256026D01*
X128801126Y-80278885D01*
X128815757Y-80303295D01*
X128827925Y-80329022D01*
X128837513Y-80355817D01*
X128844428Y-80383424D01*
X128848604Y-80411575D01*
X128850000Y-80440000D01*
X128850000Y-83760000D01*
X128848604Y-83788425D01*
X128844428Y-83816576D01*
X128837513Y-83844183D01*
X128827925Y-83870978D01*
X128815757Y-83896705D01*
X128801126Y-83921115D01*
X128784173Y-83943974D01*
X128765061Y-83965061D01*
X128743974Y-83984173D01*
X128721115Y-84001126D01*
X128696705Y-84015757D01*
X128670978Y-84027925D01*
X128644183Y-84037513D01*
X128616576Y-84044428D01*
X128588425Y-84048604D01*
X128560000Y-84050000D01*
X126240000Y-84050000D01*
X126211575Y-84048604D01*
X126183424Y-84044428D01*
X126155817Y-84037513D01*
X126129022Y-84027925D01*
X126103295Y-84015757D01*
X126078885Y-84001126D01*
X126056026Y-83984173D01*
X126034939Y-83965061D01*
X126015827Y-83943974D01*
X125998874Y-83921115D01*
X125984243Y-83896705D01*
X125972075Y-83870978D01*
X125962487Y-83844183D01*
X125955572Y-83816576D01*
X125951396Y-83788425D01*
X125950000Y-83760000D01*
X125950000Y-80440000D01*
X125951396Y-80411575D01*
X125955572Y-80383424D01*
X125962487Y-80355817D01*
X125972075Y-80329022D01*
X125984243Y-80303295D01*
X125998874Y-80278885D01*
X126015827Y-80256026D01*
X126034939Y-80234939D01*
X126056026Y-80215827D01*
X126078885Y-80198874D01*
X126103295Y-80184243D01*
X126129022Y-80172075D01*
X126155817Y-80162487D01*
X126183424Y-80155572D01*
X126211575Y-80151396D01*
X126240000Y-80150000D01*
X128560000Y-80150000D01*
X128588425Y-80151396D01*
G37*
D21*
X179240000Y-70840000D03*
X179240000Y-65760000D03*
X174160000Y-65760000D03*
X174160000Y-70840000D03*
D22*
X176700000Y-68300000D03*
D23*
X125200000Y-64500000D03*
X131000000Y-64500000D03*
D24*
X131600000Y-64500000D03*
X124600000Y-64500000D03*
D25*
X127100000Y-64500000D03*
D11*
X130600000Y-67200000D03*
D26*
X128100000Y-67200000D03*
X128750000Y-67200000D03*
X129400000Y-67200000D03*
X126800000Y-67200000D03*
X127450000Y-67200000D03*
D11*
X125600000Y-67200000D03*
D25*
X129100000Y-64500000D03*
D20*
G36*
X123370567Y-92154695D02*
G01*
X123465213Y-92168734D01*
X123558028Y-92191983D01*
X123648116Y-92224217D01*
X123734612Y-92265127D01*
X123816681Y-92314317D01*
X123893533Y-92371315D01*
X123964429Y-92435571D01*
X124028685Y-92506467D01*
X124085683Y-92583319D01*
X124134873Y-92665388D01*
X124175783Y-92751884D01*
X124208017Y-92841972D01*
X124231266Y-92934787D01*
X124245305Y-93029433D01*
X124250000Y-93125000D01*
X124250000Y-95075000D01*
X124245305Y-95170567D01*
X124231266Y-95265213D01*
X124208017Y-95358028D01*
X124175783Y-95448116D01*
X124134873Y-95534612D01*
X124085683Y-95616681D01*
X124028685Y-95693533D01*
X123964429Y-95764429D01*
X123893533Y-95828685D01*
X123816681Y-95885683D01*
X123734612Y-95934873D01*
X123648116Y-95975783D01*
X123558028Y-96008017D01*
X123465213Y-96031266D01*
X123370567Y-96045305D01*
X123275000Y-96050000D01*
X121325000Y-96050000D01*
X121229433Y-96045305D01*
X121134787Y-96031266D01*
X121041972Y-96008017D01*
X120951884Y-95975783D01*
X120865388Y-95934873D01*
X120783319Y-95885683D01*
X120706467Y-95828685D01*
X120635571Y-95764429D01*
X120571315Y-95693533D01*
X120514317Y-95616681D01*
X120465127Y-95534612D01*
X120424217Y-95448116D01*
X120391983Y-95358028D01*
X120368734Y-95265213D01*
X120354695Y-95170567D01*
X120350000Y-95075000D01*
X120350000Y-93125000D01*
X120354695Y-93029433D01*
X120368734Y-92934787D01*
X120391983Y-92841972D01*
X120424217Y-92751884D01*
X120465127Y-92665388D01*
X120514317Y-92583319D01*
X120571315Y-92506467D01*
X120635571Y-92435571D01*
X120706467Y-92371315D01*
X120783319Y-92314317D01*
X120865388Y-92265127D01*
X120951884Y-92224217D01*
X121041972Y-92191983D01*
X121134787Y-92168734D01*
X121229433Y-92154695D01*
X121325000Y-92150000D01*
X123275000Y-92150000D01*
X123370567Y-92154695D01*
G37*
G36*
X126233315Y-87454093D02*
G01*
X126315827Y-87466333D01*
X126396742Y-87486601D01*
X126475281Y-87514702D01*
X126550687Y-87550367D01*
X126622235Y-87593251D01*
X126689234Y-87642941D01*
X126751041Y-87698959D01*
X126807059Y-87760766D01*
X126856749Y-87827765D01*
X126899633Y-87899313D01*
X126935298Y-87974719D01*
X126963399Y-88053258D01*
X126983667Y-88134173D01*
X126995907Y-88216685D01*
X127000000Y-88300000D01*
X127000000Y-90500000D01*
X126995907Y-90583315D01*
X126983667Y-90665827D01*
X126963399Y-90746742D01*
X126935298Y-90825281D01*
X126899633Y-90900687D01*
X126856749Y-90972235D01*
X126807059Y-91039234D01*
X126751041Y-91101041D01*
X126689234Y-91157059D01*
X126622235Y-91206749D01*
X126550687Y-91249633D01*
X126475281Y-91285298D01*
X126396742Y-91313399D01*
X126315827Y-91333667D01*
X126233315Y-91345907D01*
X126150000Y-91350000D01*
X124450000Y-91350000D01*
X124366685Y-91345907D01*
X124284173Y-91333667D01*
X124203258Y-91313399D01*
X124124719Y-91285298D01*
X124049313Y-91249633D01*
X123977765Y-91206749D01*
X123910766Y-91157059D01*
X123848959Y-91101041D01*
X123792941Y-91039234D01*
X123743251Y-90972235D01*
X123700367Y-90900687D01*
X123664702Y-90825281D01*
X123636601Y-90746742D01*
X123616333Y-90665827D01*
X123604093Y-90583315D01*
X123600000Y-90500000D01*
X123600000Y-88300000D01*
X123604093Y-88216685D01*
X123616333Y-88134173D01*
X123636601Y-88053258D01*
X123664702Y-87974719D01*
X123700367Y-87899313D01*
X123743251Y-87827765D01*
X123792941Y-87760766D01*
X123848959Y-87698959D01*
X123910766Y-87642941D01*
X123977765Y-87593251D01*
X124049313Y-87550367D01*
X124124719Y-87514702D01*
X124203258Y-87486601D01*
X124284173Y-87466333D01*
X124366685Y-87454093D01*
X124450000Y-87450000D01*
X126150000Y-87450000D01*
X126233315Y-87454093D01*
G37*
D27*
X119300000Y-89400000D03*
D28*
X119250888Y-122629032D03*
D29*
X119525888Y-123879032D03*
D28*
X119250888Y-125179032D03*
X124600888Y-122629032D03*
X124600888Y-123879032D03*
X124600888Y-126429032D03*
X124600888Y-125179032D03*
X119250888Y-126429032D03*
M02*
