G04 #@! TF.GenerationSoftware,KiCad,Pcbnew,(5.1.5)-3*
G04 #@! TF.CreationDate,2020-05-04T21:38:57+10:00*
G04 #@! TF.ProjectId,BoSL,426f534c-2e6b-4696-9361-645f70636258,0.4*
G04 #@! TF.SameCoordinates,Original*
G04 #@! TF.FileFunction,Soldermask,Top*
G04 #@! TF.FilePolarity,Negative*
%FSLAX46Y46*%
G04 Gerber Fmt 4.6, Leading zero omitted, Abs format (unit mm)*
G04 Created by KiCad (PCBNEW (5.1.5)-3) date 2020-05-04 21:38:57*
%MOMM*%
%LPD*%
G04 APERTURE LIST*
%ADD10C,1.850000*%
%ADD11C,4.000000*%
%ADD12O,2.100000X2.100000*%
%ADD13R,2.100000X2.100000*%
%ADD14C,2.800000*%
%ADD15R,2.800000X2.800000*%
%ADD16R,1.400000X1.400000*%
%ADD17R,2.600000X1.450000*%
%ADD18R,2.400000X2.800000*%
%ADD19R,2.150000X0.850000*%
%ADD20C,0.100000*%
%ADD21R,0.800000X1.050000*%
%ADD22R,2.600000X2.240000*%
%ADD23R,1.400000X1.900000*%
%ADD24R,1.400000X2.200000*%
%ADD25C,1.400000*%
%ADD26C,4.800000*%
%ADD27R,1.000000X0.850000*%
%ADD28R,1.450000X2.600000*%
%ADD29C,2.650000*%
%ADD30C,2.450000*%
%ADD31O,1.600000X2.300000*%
%ADD32R,3.900000X3.900000*%
%ADD33R,2.200000X1.400000*%
%ADD34R,1.750000X2.300000*%
%ADD35R,1.400000X1.600000*%
%ADD36R,1.750000X1.950000*%
%ADD37R,2.200000X1.570000*%
%ADD38R,1.500000X1.150000*%
%ADD39R,1.500000X1.250000*%
%ADD40O,1.000000X2.400000*%
%ADD41O,2.400000X1.000000*%
%ADD42R,1.200000X1.400000*%
%ADD43R,2.700000X1.400000*%
%ADD44R,1.700000X1.500000*%
G04 APERTURE END LIST*
D10*
X118382000Y-111210000D03*
X118382000Y-109170000D03*
X118382000Y-107130000D03*
X118382000Y-105090000D03*
X120160000Y-112190000D03*
X120160000Y-106070000D03*
X120160000Y-110150000D03*
X120160000Y-108110000D03*
D11*
X122700000Y-102300000D03*
X122700000Y-115000000D03*
D12*
X186620000Y-129000000D03*
X184080000Y-129000000D03*
X181540000Y-129000000D03*
X179000000Y-129000000D03*
X176460000Y-129000000D03*
X173920000Y-129000000D03*
X171380000Y-129000000D03*
D13*
X168840000Y-129000000D03*
D12*
X145340000Y-129000000D03*
X147880000Y-129000000D03*
X150420000Y-129000000D03*
X152960000Y-129000000D03*
X155500000Y-129000000D03*
D13*
X158040000Y-129000000D03*
D12*
X138000000Y-129000000D03*
X135460000Y-129000000D03*
X132920000Y-129000000D03*
D13*
X130380000Y-129000000D03*
D12*
X148120000Y-65500000D03*
X145580000Y-65500000D03*
X143040000Y-65500000D03*
D13*
X140500000Y-65500000D03*
D12*
X134600000Y-73120000D03*
X134600000Y-70580000D03*
X134600000Y-68040000D03*
D13*
X134600000Y-65500000D03*
D14*
X154500000Y-71500000D03*
X158000000Y-71500000D03*
X161500000Y-71500000D03*
D15*
X165000000Y-71500000D03*
D12*
X154840000Y-65500000D03*
X157380000Y-65500000D03*
X159920000Y-65500000D03*
X162460000Y-65500000D03*
D13*
X165000000Y-65500000D03*
D14*
X190000000Y-123000000D03*
X186500000Y-123000000D03*
X183000000Y-123000000D03*
X179500000Y-123000000D03*
X176000000Y-123000000D03*
X172500000Y-123000000D03*
X169000000Y-123000000D03*
D15*
X165500000Y-123000000D03*
D14*
X138000000Y-123000000D03*
D15*
X134500000Y-123000000D03*
D14*
X139000000Y-71500000D03*
X142500000Y-71500000D03*
X146000000Y-71500000D03*
D15*
X149500000Y-71500000D03*
D14*
X160500000Y-123000000D03*
X157000000Y-123000000D03*
X153500000Y-123000000D03*
X150000000Y-123000000D03*
X146500000Y-123000000D03*
D15*
X143000000Y-123000000D03*
D16*
X171500000Y-72700000D03*
X168500000Y-72700000D03*
D17*
X170000000Y-71225000D03*
X170000000Y-74175000D03*
D18*
X147475000Y-99925000D03*
X143775000Y-99925000D03*
D19*
X153786000Y-87033000D03*
X153786000Y-86383000D03*
X153786000Y-85733000D03*
X153786000Y-85083000D03*
X153786000Y-84433000D03*
X153786000Y-83783000D03*
X153786000Y-83133000D03*
X153786000Y-82483000D03*
X153786000Y-81833000D03*
X153786000Y-81183000D03*
X153786000Y-80533000D03*
X153786000Y-79883000D03*
X153786000Y-79233000D03*
X153786000Y-78583000D03*
X160986000Y-78583000D03*
X160986000Y-79233000D03*
X160986000Y-79883000D03*
X160986000Y-80533000D03*
X160986000Y-81183000D03*
X160986000Y-81833000D03*
X160986000Y-82483000D03*
X160986000Y-83133000D03*
X160986000Y-83783000D03*
X160986000Y-84433000D03*
X160986000Y-85083000D03*
X160986000Y-85733000D03*
X160986000Y-86383000D03*
X160986000Y-87033000D03*
D20*
G36*
X152864504Y-102751204D02*
G01*
X152888773Y-102754804D01*
X152912571Y-102760765D01*
X152935671Y-102769030D01*
X152957849Y-102779520D01*
X152978893Y-102792133D01*
X152998598Y-102806747D01*
X153016777Y-102823223D01*
X153033253Y-102841402D01*
X153047867Y-102861107D01*
X153060480Y-102882151D01*
X153070970Y-102904329D01*
X153079235Y-102927429D01*
X153085196Y-102951227D01*
X153088796Y-102975496D01*
X153090000Y-103000000D01*
X153090000Y-104850000D01*
X153088796Y-104874504D01*
X153085196Y-104898773D01*
X153079235Y-104922571D01*
X153070970Y-104945671D01*
X153060480Y-104967849D01*
X153047867Y-104988893D01*
X153033253Y-105008598D01*
X153016777Y-105026777D01*
X152998598Y-105043253D01*
X152978893Y-105057867D01*
X152957849Y-105070480D01*
X152935671Y-105080970D01*
X152912571Y-105089235D01*
X152888773Y-105095196D01*
X152864504Y-105098796D01*
X152840000Y-105100000D01*
X152340000Y-105100000D01*
X152315496Y-105098796D01*
X152291227Y-105095196D01*
X152267429Y-105089235D01*
X152244329Y-105080970D01*
X152222151Y-105070480D01*
X152201107Y-105057867D01*
X152181402Y-105043253D01*
X152163223Y-105026777D01*
X152146747Y-105008598D01*
X152132133Y-104988893D01*
X152119520Y-104967849D01*
X152109030Y-104945671D01*
X152100765Y-104922571D01*
X152094804Y-104898773D01*
X152091204Y-104874504D01*
X152090000Y-104850000D01*
X152090000Y-103000000D01*
X152091204Y-102975496D01*
X152094804Y-102951227D01*
X152100765Y-102927429D01*
X152109030Y-102904329D01*
X152119520Y-102882151D01*
X152132133Y-102861107D01*
X152146747Y-102841402D01*
X152163223Y-102823223D01*
X152181402Y-102806747D01*
X152201107Y-102792133D01*
X152222151Y-102779520D01*
X152244329Y-102769030D01*
X152267429Y-102760765D01*
X152291227Y-102754804D01*
X152315496Y-102751204D01*
X152340000Y-102750000D01*
X152840000Y-102750000D01*
X152864504Y-102751204D01*
G37*
G36*
X154134504Y-102751204D02*
G01*
X154158773Y-102754804D01*
X154182571Y-102760765D01*
X154205671Y-102769030D01*
X154227849Y-102779520D01*
X154248893Y-102792133D01*
X154268598Y-102806747D01*
X154286777Y-102823223D01*
X154303253Y-102841402D01*
X154317867Y-102861107D01*
X154330480Y-102882151D01*
X154340970Y-102904329D01*
X154349235Y-102927429D01*
X154355196Y-102951227D01*
X154358796Y-102975496D01*
X154360000Y-103000000D01*
X154360000Y-104850000D01*
X154358796Y-104874504D01*
X154355196Y-104898773D01*
X154349235Y-104922571D01*
X154340970Y-104945671D01*
X154330480Y-104967849D01*
X154317867Y-104988893D01*
X154303253Y-105008598D01*
X154286777Y-105026777D01*
X154268598Y-105043253D01*
X154248893Y-105057867D01*
X154227849Y-105070480D01*
X154205671Y-105080970D01*
X154182571Y-105089235D01*
X154158773Y-105095196D01*
X154134504Y-105098796D01*
X154110000Y-105100000D01*
X153610000Y-105100000D01*
X153585496Y-105098796D01*
X153561227Y-105095196D01*
X153537429Y-105089235D01*
X153514329Y-105080970D01*
X153492151Y-105070480D01*
X153471107Y-105057867D01*
X153451402Y-105043253D01*
X153433223Y-105026777D01*
X153416747Y-105008598D01*
X153402133Y-104988893D01*
X153389520Y-104967849D01*
X153379030Y-104945671D01*
X153370765Y-104922571D01*
X153364804Y-104898773D01*
X153361204Y-104874504D01*
X153360000Y-104850000D01*
X153360000Y-103000000D01*
X153361204Y-102975496D01*
X153364804Y-102951227D01*
X153370765Y-102927429D01*
X153379030Y-102904329D01*
X153389520Y-102882151D01*
X153402133Y-102861107D01*
X153416747Y-102841402D01*
X153433223Y-102823223D01*
X153451402Y-102806747D01*
X153471107Y-102792133D01*
X153492151Y-102779520D01*
X153514329Y-102769030D01*
X153537429Y-102760765D01*
X153561227Y-102754804D01*
X153585496Y-102751204D01*
X153610000Y-102750000D01*
X154110000Y-102750000D01*
X154134504Y-102751204D01*
G37*
G36*
X155404504Y-102751204D02*
G01*
X155428773Y-102754804D01*
X155452571Y-102760765D01*
X155475671Y-102769030D01*
X155497849Y-102779520D01*
X155518893Y-102792133D01*
X155538598Y-102806747D01*
X155556777Y-102823223D01*
X155573253Y-102841402D01*
X155587867Y-102861107D01*
X155600480Y-102882151D01*
X155610970Y-102904329D01*
X155619235Y-102927429D01*
X155625196Y-102951227D01*
X155628796Y-102975496D01*
X155630000Y-103000000D01*
X155630000Y-104850000D01*
X155628796Y-104874504D01*
X155625196Y-104898773D01*
X155619235Y-104922571D01*
X155610970Y-104945671D01*
X155600480Y-104967849D01*
X155587867Y-104988893D01*
X155573253Y-105008598D01*
X155556777Y-105026777D01*
X155538598Y-105043253D01*
X155518893Y-105057867D01*
X155497849Y-105070480D01*
X155475671Y-105080970D01*
X155452571Y-105089235D01*
X155428773Y-105095196D01*
X155404504Y-105098796D01*
X155380000Y-105100000D01*
X154880000Y-105100000D01*
X154855496Y-105098796D01*
X154831227Y-105095196D01*
X154807429Y-105089235D01*
X154784329Y-105080970D01*
X154762151Y-105070480D01*
X154741107Y-105057867D01*
X154721402Y-105043253D01*
X154703223Y-105026777D01*
X154686747Y-105008598D01*
X154672133Y-104988893D01*
X154659520Y-104967849D01*
X154649030Y-104945671D01*
X154640765Y-104922571D01*
X154634804Y-104898773D01*
X154631204Y-104874504D01*
X154630000Y-104850000D01*
X154630000Y-103000000D01*
X154631204Y-102975496D01*
X154634804Y-102951227D01*
X154640765Y-102927429D01*
X154649030Y-102904329D01*
X154659520Y-102882151D01*
X154672133Y-102861107D01*
X154686747Y-102841402D01*
X154703223Y-102823223D01*
X154721402Y-102806747D01*
X154741107Y-102792133D01*
X154762151Y-102779520D01*
X154784329Y-102769030D01*
X154807429Y-102760765D01*
X154831227Y-102754804D01*
X154855496Y-102751204D01*
X154880000Y-102750000D01*
X155380000Y-102750000D01*
X155404504Y-102751204D01*
G37*
G36*
X156674504Y-102751204D02*
G01*
X156698773Y-102754804D01*
X156722571Y-102760765D01*
X156745671Y-102769030D01*
X156767849Y-102779520D01*
X156788893Y-102792133D01*
X156808598Y-102806747D01*
X156826777Y-102823223D01*
X156843253Y-102841402D01*
X156857867Y-102861107D01*
X156870480Y-102882151D01*
X156880970Y-102904329D01*
X156889235Y-102927429D01*
X156895196Y-102951227D01*
X156898796Y-102975496D01*
X156900000Y-103000000D01*
X156900000Y-104850000D01*
X156898796Y-104874504D01*
X156895196Y-104898773D01*
X156889235Y-104922571D01*
X156880970Y-104945671D01*
X156870480Y-104967849D01*
X156857867Y-104988893D01*
X156843253Y-105008598D01*
X156826777Y-105026777D01*
X156808598Y-105043253D01*
X156788893Y-105057867D01*
X156767849Y-105070480D01*
X156745671Y-105080970D01*
X156722571Y-105089235D01*
X156698773Y-105095196D01*
X156674504Y-105098796D01*
X156650000Y-105100000D01*
X156150000Y-105100000D01*
X156125496Y-105098796D01*
X156101227Y-105095196D01*
X156077429Y-105089235D01*
X156054329Y-105080970D01*
X156032151Y-105070480D01*
X156011107Y-105057867D01*
X155991402Y-105043253D01*
X155973223Y-105026777D01*
X155956747Y-105008598D01*
X155942133Y-104988893D01*
X155929520Y-104967849D01*
X155919030Y-104945671D01*
X155910765Y-104922571D01*
X155904804Y-104898773D01*
X155901204Y-104874504D01*
X155900000Y-104850000D01*
X155900000Y-103000000D01*
X155901204Y-102975496D01*
X155904804Y-102951227D01*
X155910765Y-102927429D01*
X155919030Y-102904329D01*
X155929520Y-102882151D01*
X155942133Y-102861107D01*
X155956747Y-102841402D01*
X155973223Y-102823223D01*
X155991402Y-102806747D01*
X156011107Y-102792133D01*
X156032151Y-102779520D01*
X156054329Y-102769030D01*
X156077429Y-102760765D01*
X156101227Y-102754804D01*
X156125496Y-102751204D01*
X156150000Y-102750000D01*
X156650000Y-102750000D01*
X156674504Y-102751204D01*
G37*
G36*
X157944504Y-102751204D02*
G01*
X157968773Y-102754804D01*
X157992571Y-102760765D01*
X158015671Y-102769030D01*
X158037849Y-102779520D01*
X158058893Y-102792133D01*
X158078598Y-102806747D01*
X158096777Y-102823223D01*
X158113253Y-102841402D01*
X158127867Y-102861107D01*
X158140480Y-102882151D01*
X158150970Y-102904329D01*
X158159235Y-102927429D01*
X158165196Y-102951227D01*
X158168796Y-102975496D01*
X158170000Y-103000000D01*
X158170000Y-104850000D01*
X158168796Y-104874504D01*
X158165196Y-104898773D01*
X158159235Y-104922571D01*
X158150970Y-104945671D01*
X158140480Y-104967849D01*
X158127867Y-104988893D01*
X158113253Y-105008598D01*
X158096777Y-105026777D01*
X158078598Y-105043253D01*
X158058893Y-105057867D01*
X158037849Y-105070480D01*
X158015671Y-105080970D01*
X157992571Y-105089235D01*
X157968773Y-105095196D01*
X157944504Y-105098796D01*
X157920000Y-105100000D01*
X157420000Y-105100000D01*
X157395496Y-105098796D01*
X157371227Y-105095196D01*
X157347429Y-105089235D01*
X157324329Y-105080970D01*
X157302151Y-105070480D01*
X157281107Y-105057867D01*
X157261402Y-105043253D01*
X157243223Y-105026777D01*
X157226747Y-105008598D01*
X157212133Y-104988893D01*
X157199520Y-104967849D01*
X157189030Y-104945671D01*
X157180765Y-104922571D01*
X157174804Y-104898773D01*
X157171204Y-104874504D01*
X157170000Y-104850000D01*
X157170000Y-103000000D01*
X157171204Y-102975496D01*
X157174804Y-102951227D01*
X157180765Y-102927429D01*
X157189030Y-102904329D01*
X157199520Y-102882151D01*
X157212133Y-102861107D01*
X157226747Y-102841402D01*
X157243223Y-102823223D01*
X157261402Y-102806747D01*
X157281107Y-102792133D01*
X157302151Y-102779520D01*
X157324329Y-102769030D01*
X157347429Y-102760765D01*
X157371227Y-102754804D01*
X157395496Y-102751204D01*
X157420000Y-102750000D01*
X157920000Y-102750000D01*
X157944504Y-102751204D01*
G37*
G36*
X159214504Y-102751204D02*
G01*
X159238773Y-102754804D01*
X159262571Y-102760765D01*
X159285671Y-102769030D01*
X159307849Y-102779520D01*
X159328893Y-102792133D01*
X159348598Y-102806747D01*
X159366777Y-102823223D01*
X159383253Y-102841402D01*
X159397867Y-102861107D01*
X159410480Y-102882151D01*
X159420970Y-102904329D01*
X159429235Y-102927429D01*
X159435196Y-102951227D01*
X159438796Y-102975496D01*
X159440000Y-103000000D01*
X159440000Y-104850000D01*
X159438796Y-104874504D01*
X159435196Y-104898773D01*
X159429235Y-104922571D01*
X159420970Y-104945671D01*
X159410480Y-104967849D01*
X159397867Y-104988893D01*
X159383253Y-105008598D01*
X159366777Y-105026777D01*
X159348598Y-105043253D01*
X159328893Y-105057867D01*
X159307849Y-105070480D01*
X159285671Y-105080970D01*
X159262571Y-105089235D01*
X159238773Y-105095196D01*
X159214504Y-105098796D01*
X159190000Y-105100000D01*
X158690000Y-105100000D01*
X158665496Y-105098796D01*
X158641227Y-105095196D01*
X158617429Y-105089235D01*
X158594329Y-105080970D01*
X158572151Y-105070480D01*
X158551107Y-105057867D01*
X158531402Y-105043253D01*
X158513223Y-105026777D01*
X158496747Y-105008598D01*
X158482133Y-104988893D01*
X158469520Y-104967849D01*
X158459030Y-104945671D01*
X158450765Y-104922571D01*
X158444804Y-104898773D01*
X158441204Y-104874504D01*
X158440000Y-104850000D01*
X158440000Y-103000000D01*
X158441204Y-102975496D01*
X158444804Y-102951227D01*
X158450765Y-102927429D01*
X158459030Y-102904329D01*
X158469520Y-102882151D01*
X158482133Y-102861107D01*
X158496747Y-102841402D01*
X158513223Y-102823223D01*
X158531402Y-102806747D01*
X158551107Y-102792133D01*
X158572151Y-102779520D01*
X158594329Y-102769030D01*
X158617429Y-102760765D01*
X158641227Y-102754804D01*
X158665496Y-102751204D01*
X158690000Y-102750000D01*
X159190000Y-102750000D01*
X159214504Y-102751204D01*
G37*
G36*
X160484504Y-102751204D02*
G01*
X160508773Y-102754804D01*
X160532571Y-102760765D01*
X160555671Y-102769030D01*
X160577849Y-102779520D01*
X160598893Y-102792133D01*
X160618598Y-102806747D01*
X160636777Y-102823223D01*
X160653253Y-102841402D01*
X160667867Y-102861107D01*
X160680480Y-102882151D01*
X160690970Y-102904329D01*
X160699235Y-102927429D01*
X160705196Y-102951227D01*
X160708796Y-102975496D01*
X160710000Y-103000000D01*
X160710000Y-104850000D01*
X160708796Y-104874504D01*
X160705196Y-104898773D01*
X160699235Y-104922571D01*
X160690970Y-104945671D01*
X160680480Y-104967849D01*
X160667867Y-104988893D01*
X160653253Y-105008598D01*
X160636777Y-105026777D01*
X160618598Y-105043253D01*
X160598893Y-105057867D01*
X160577849Y-105070480D01*
X160555671Y-105080970D01*
X160532571Y-105089235D01*
X160508773Y-105095196D01*
X160484504Y-105098796D01*
X160460000Y-105100000D01*
X159960000Y-105100000D01*
X159935496Y-105098796D01*
X159911227Y-105095196D01*
X159887429Y-105089235D01*
X159864329Y-105080970D01*
X159842151Y-105070480D01*
X159821107Y-105057867D01*
X159801402Y-105043253D01*
X159783223Y-105026777D01*
X159766747Y-105008598D01*
X159752133Y-104988893D01*
X159739520Y-104967849D01*
X159729030Y-104945671D01*
X159720765Y-104922571D01*
X159714804Y-104898773D01*
X159711204Y-104874504D01*
X159710000Y-104850000D01*
X159710000Y-103000000D01*
X159711204Y-102975496D01*
X159714804Y-102951227D01*
X159720765Y-102927429D01*
X159729030Y-102904329D01*
X159739520Y-102882151D01*
X159752133Y-102861107D01*
X159766747Y-102841402D01*
X159783223Y-102823223D01*
X159801402Y-102806747D01*
X159821107Y-102792133D01*
X159842151Y-102779520D01*
X159864329Y-102769030D01*
X159887429Y-102760765D01*
X159911227Y-102754804D01*
X159935496Y-102751204D01*
X159960000Y-102750000D01*
X160460000Y-102750000D01*
X160484504Y-102751204D01*
G37*
G36*
X160484504Y-107701204D02*
G01*
X160508773Y-107704804D01*
X160532571Y-107710765D01*
X160555671Y-107719030D01*
X160577849Y-107729520D01*
X160598893Y-107742133D01*
X160618598Y-107756747D01*
X160636777Y-107773223D01*
X160653253Y-107791402D01*
X160667867Y-107811107D01*
X160680480Y-107832151D01*
X160690970Y-107854329D01*
X160699235Y-107877429D01*
X160705196Y-107901227D01*
X160708796Y-107925496D01*
X160710000Y-107950000D01*
X160710000Y-109800000D01*
X160708796Y-109824504D01*
X160705196Y-109848773D01*
X160699235Y-109872571D01*
X160690970Y-109895671D01*
X160680480Y-109917849D01*
X160667867Y-109938893D01*
X160653253Y-109958598D01*
X160636777Y-109976777D01*
X160618598Y-109993253D01*
X160598893Y-110007867D01*
X160577849Y-110020480D01*
X160555671Y-110030970D01*
X160532571Y-110039235D01*
X160508773Y-110045196D01*
X160484504Y-110048796D01*
X160460000Y-110050000D01*
X159960000Y-110050000D01*
X159935496Y-110048796D01*
X159911227Y-110045196D01*
X159887429Y-110039235D01*
X159864329Y-110030970D01*
X159842151Y-110020480D01*
X159821107Y-110007867D01*
X159801402Y-109993253D01*
X159783223Y-109976777D01*
X159766747Y-109958598D01*
X159752133Y-109938893D01*
X159739520Y-109917849D01*
X159729030Y-109895671D01*
X159720765Y-109872571D01*
X159714804Y-109848773D01*
X159711204Y-109824504D01*
X159710000Y-109800000D01*
X159710000Y-107950000D01*
X159711204Y-107925496D01*
X159714804Y-107901227D01*
X159720765Y-107877429D01*
X159729030Y-107854329D01*
X159739520Y-107832151D01*
X159752133Y-107811107D01*
X159766747Y-107791402D01*
X159783223Y-107773223D01*
X159801402Y-107756747D01*
X159821107Y-107742133D01*
X159842151Y-107729520D01*
X159864329Y-107719030D01*
X159887429Y-107710765D01*
X159911227Y-107704804D01*
X159935496Y-107701204D01*
X159960000Y-107700000D01*
X160460000Y-107700000D01*
X160484504Y-107701204D01*
G37*
G36*
X159214504Y-107701204D02*
G01*
X159238773Y-107704804D01*
X159262571Y-107710765D01*
X159285671Y-107719030D01*
X159307849Y-107729520D01*
X159328893Y-107742133D01*
X159348598Y-107756747D01*
X159366777Y-107773223D01*
X159383253Y-107791402D01*
X159397867Y-107811107D01*
X159410480Y-107832151D01*
X159420970Y-107854329D01*
X159429235Y-107877429D01*
X159435196Y-107901227D01*
X159438796Y-107925496D01*
X159440000Y-107950000D01*
X159440000Y-109800000D01*
X159438796Y-109824504D01*
X159435196Y-109848773D01*
X159429235Y-109872571D01*
X159420970Y-109895671D01*
X159410480Y-109917849D01*
X159397867Y-109938893D01*
X159383253Y-109958598D01*
X159366777Y-109976777D01*
X159348598Y-109993253D01*
X159328893Y-110007867D01*
X159307849Y-110020480D01*
X159285671Y-110030970D01*
X159262571Y-110039235D01*
X159238773Y-110045196D01*
X159214504Y-110048796D01*
X159190000Y-110050000D01*
X158690000Y-110050000D01*
X158665496Y-110048796D01*
X158641227Y-110045196D01*
X158617429Y-110039235D01*
X158594329Y-110030970D01*
X158572151Y-110020480D01*
X158551107Y-110007867D01*
X158531402Y-109993253D01*
X158513223Y-109976777D01*
X158496747Y-109958598D01*
X158482133Y-109938893D01*
X158469520Y-109917849D01*
X158459030Y-109895671D01*
X158450765Y-109872571D01*
X158444804Y-109848773D01*
X158441204Y-109824504D01*
X158440000Y-109800000D01*
X158440000Y-107950000D01*
X158441204Y-107925496D01*
X158444804Y-107901227D01*
X158450765Y-107877429D01*
X158459030Y-107854329D01*
X158469520Y-107832151D01*
X158482133Y-107811107D01*
X158496747Y-107791402D01*
X158513223Y-107773223D01*
X158531402Y-107756747D01*
X158551107Y-107742133D01*
X158572151Y-107729520D01*
X158594329Y-107719030D01*
X158617429Y-107710765D01*
X158641227Y-107704804D01*
X158665496Y-107701204D01*
X158690000Y-107700000D01*
X159190000Y-107700000D01*
X159214504Y-107701204D01*
G37*
G36*
X157944504Y-107701204D02*
G01*
X157968773Y-107704804D01*
X157992571Y-107710765D01*
X158015671Y-107719030D01*
X158037849Y-107729520D01*
X158058893Y-107742133D01*
X158078598Y-107756747D01*
X158096777Y-107773223D01*
X158113253Y-107791402D01*
X158127867Y-107811107D01*
X158140480Y-107832151D01*
X158150970Y-107854329D01*
X158159235Y-107877429D01*
X158165196Y-107901227D01*
X158168796Y-107925496D01*
X158170000Y-107950000D01*
X158170000Y-109800000D01*
X158168796Y-109824504D01*
X158165196Y-109848773D01*
X158159235Y-109872571D01*
X158150970Y-109895671D01*
X158140480Y-109917849D01*
X158127867Y-109938893D01*
X158113253Y-109958598D01*
X158096777Y-109976777D01*
X158078598Y-109993253D01*
X158058893Y-110007867D01*
X158037849Y-110020480D01*
X158015671Y-110030970D01*
X157992571Y-110039235D01*
X157968773Y-110045196D01*
X157944504Y-110048796D01*
X157920000Y-110050000D01*
X157420000Y-110050000D01*
X157395496Y-110048796D01*
X157371227Y-110045196D01*
X157347429Y-110039235D01*
X157324329Y-110030970D01*
X157302151Y-110020480D01*
X157281107Y-110007867D01*
X157261402Y-109993253D01*
X157243223Y-109976777D01*
X157226747Y-109958598D01*
X157212133Y-109938893D01*
X157199520Y-109917849D01*
X157189030Y-109895671D01*
X157180765Y-109872571D01*
X157174804Y-109848773D01*
X157171204Y-109824504D01*
X157170000Y-109800000D01*
X157170000Y-107950000D01*
X157171204Y-107925496D01*
X157174804Y-107901227D01*
X157180765Y-107877429D01*
X157189030Y-107854329D01*
X157199520Y-107832151D01*
X157212133Y-107811107D01*
X157226747Y-107791402D01*
X157243223Y-107773223D01*
X157261402Y-107756747D01*
X157281107Y-107742133D01*
X157302151Y-107729520D01*
X157324329Y-107719030D01*
X157347429Y-107710765D01*
X157371227Y-107704804D01*
X157395496Y-107701204D01*
X157420000Y-107700000D01*
X157920000Y-107700000D01*
X157944504Y-107701204D01*
G37*
G36*
X156674504Y-107701204D02*
G01*
X156698773Y-107704804D01*
X156722571Y-107710765D01*
X156745671Y-107719030D01*
X156767849Y-107729520D01*
X156788893Y-107742133D01*
X156808598Y-107756747D01*
X156826777Y-107773223D01*
X156843253Y-107791402D01*
X156857867Y-107811107D01*
X156870480Y-107832151D01*
X156880970Y-107854329D01*
X156889235Y-107877429D01*
X156895196Y-107901227D01*
X156898796Y-107925496D01*
X156900000Y-107950000D01*
X156900000Y-109800000D01*
X156898796Y-109824504D01*
X156895196Y-109848773D01*
X156889235Y-109872571D01*
X156880970Y-109895671D01*
X156870480Y-109917849D01*
X156857867Y-109938893D01*
X156843253Y-109958598D01*
X156826777Y-109976777D01*
X156808598Y-109993253D01*
X156788893Y-110007867D01*
X156767849Y-110020480D01*
X156745671Y-110030970D01*
X156722571Y-110039235D01*
X156698773Y-110045196D01*
X156674504Y-110048796D01*
X156650000Y-110050000D01*
X156150000Y-110050000D01*
X156125496Y-110048796D01*
X156101227Y-110045196D01*
X156077429Y-110039235D01*
X156054329Y-110030970D01*
X156032151Y-110020480D01*
X156011107Y-110007867D01*
X155991402Y-109993253D01*
X155973223Y-109976777D01*
X155956747Y-109958598D01*
X155942133Y-109938893D01*
X155929520Y-109917849D01*
X155919030Y-109895671D01*
X155910765Y-109872571D01*
X155904804Y-109848773D01*
X155901204Y-109824504D01*
X155900000Y-109800000D01*
X155900000Y-107950000D01*
X155901204Y-107925496D01*
X155904804Y-107901227D01*
X155910765Y-107877429D01*
X155919030Y-107854329D01*
X155929520Y-107832151D01*
X155942133Y-107811107D01*
X155956747Y-107791402D01*
X155973223Y-107773223D01*
X155991402Y-107756747D01*
X156011107Y-107742133D01*
X156032151Y-107729520D01*
X156054329Y-107719030D01*
X156077429Y-107710765D01*
X156101227Y-107704804D01*
X156125496Y-107701204D01*
X156150000Y-107700000D01*
X156650000Y-107700000D01*
X156674504Y-107701204D01*
G37*
G36*
X155404504Y-107701204D02*
G01*
X155428773Y-107704804D01*
X155452571Y-107710765D01*
X155475671Y-107719030D01*
X155497849Y-107729520D01*
X155518893Y-107742133D01*
X155538598Y-107756747D01*
X155556777Y-107773223D01*
X155573253Y-107791402D01*
X155587867Y-107811107D01*
X155600480Y-107832151D01*
X155610970Y-107854329D01*
X155619235Y-107877429D01*
X155625196Y-107901227D01*
X155628796Y-107925496D01*
X155630000Y-107950000D01*
X155630000Y-109800000D01*
X155628796Y-109824504D01*
X155625196Y-109848773D01*
X155619235Y-109872571D01*
X155610970Y-109895671D01*
X155600480Y-109917849D01*
X155587867Y-109938893D01*
X155573253Y-109958598D01*
X155556777Y-109976777D01*
X155538598Y-109993253D01*
X155518893Y-110007867D01*
X155497849Y-110020480D01*
X155475671Y-110030970D01*
X155452571Y-110039235D01*
X155428773Y-110045196D01*
X155404504Y-110048796D01*
X155380000Y-110050000D01*
X154880000Y-110050000D01*
X154855496Y-110048796D01*
X154831227Y-110045196D01*
X154807429Y-110039235D01*
X154784329Y-110030970D01*
X154762151Y-110020480D01*
X154741107Y-110007867D01*
X154721402Y-109993253D01*
X154703223Y-109976777D01*
X154686747Y-109958598D01*
X154672133Y-109938893D01*
X154659520Y-109917849D01*
X154649030Y-109895671D01*
X154640765Y-109872571D01*
X154634804Y-109848773D01*
X154631204Y-109824504D01*
X154630000Y-109800000D01*
X154630000Y-107950000D01*
X154631204Y-107925496D01*
X154634804Y-107901227D01*
X154640765Y-107877429D01*
X154649030Y-107854329D01*
X154659520Y-107832151D01*
X154672133Y-107811107D01*
X154686747Y-107791402D01*
X154703223Y-107773223D01*
X154721402Y-107756747D01*
X154741107Y-107742133D01*
X154762151Y-107729520D01*
X154784329Y-107719030D01*
X154807429Y-107710765D01*
X154831227Y-107704804D01*
X154855496Y-107701204D01*
X154880000Y-107700000D01*
X155380000Y-107700000D01*
X155404504Y-107701204D01*
G37*
G36*
X154134504Y-107701204D02*
G01*
X154158773Y-107704804D01*
X154182571Y-107710765D01*
X154205671Y-107719030D01*
X154227849Y-107729520D01*
X154248893Y-107742133D01*
X154268598Y-107756747D01*
X154286777Y-107773223D01*
X154303253Y-107791402D01*
X154317867Y-107811107D01*
X154330480Y-107832151D01*
X154340970Y-107854329D01*
X154349235Y-107877429D01*
X154355196Y-107901227D01*
X154358796Y-107925496D01*
X154360000Y-107950000D01*
X154360000Y-109800000D01*
X154358796Y-109824504D01*
X154355196Y-109848773D01*
X154349235Y-109872571D01*
X154340970Y-109895671D01*
X154330480Y-109917849D01*
X154317867Y-109938893D01*
X154303253Y-109958598D01*
X154286777Y-109976777D01*
X154268598Y-109993253D01*
X154248893Y-110007867D01*
X154227849Y-110020480D01*
X154205671Y-110030970D01*
X154182571Y-110039235D01*
X154158773Y-110045196D01*
X154134504Y-110048796D01*
X154110000Y-110050000D01*
X153610000Y-110050000D01*
X153585496Y-110048796D01*
X153561227Y-110045196D01*
X153537429Y-110039235D01*
X153514329Y-110030970D01*
X153492151Y-110020480D01*
X153471107Y-110007867D01*
X153451402Y-109993253D01*
X153433223Y-109976777D01*
X153416747Y-109958598D01*
X153402133Y-109938893D01*
X153389520Y-109917849D01*
X153379030Y-109895671D01*
X153370765Y-109872571D01*
X153364804Y-109848773D01*
X153361204Y-109824504D01*
X153360000Y-109800000D01*
X153360000Y-107950000D01*
X153361204Y-107925496D01*
X153364804Y-107901227D01*
X153370765Y-107877429D01*
X153379030Y-107854329D01*
X153389520Y-107832151D01*
X153402133Y-107811107D01*
X153416747Y-107791402D01*
X153433223Y-107773223D01*
X153451402Y-107756747D01*
X153471107Y-107742133D01*
X153492151Y-107729520D01*
X153514329Y-107719030D01*
X153537429Y-107710765D01*
X153561227Y-107704804D01*
X153585496Y-107701204D01*
X153610000Y-107700000D01*
X154110000Y-107700000D01*
X154134504Y-107701204D01*
G37*
G36*
X152864504Y-107701204D02*
G01*
X152888773Y-107704804D01*
X152912571Y-107710765D01*
X152935671Y-107719030D01*
X152957849Y-107729520D01*
X152978893Y-107742133D01*
X152998598Y-107756747D01*
X153016777Y-107773223D01*
X153033253Y-107791402D01*
X153047867Y-107811107D01*
X153060480Y-107832151D01*
X153070970Y-107854329D01*
X153079235Y-107877429D01*
X153085196Y-107901227D01*
X153088796Y-107925496D01*
X153090000Y-107950000D01*
X153090000Y-109800000D01*
X153088796Y-109824504D01*
X153085196Y-109848773D01*
X153079235Y-109872571D01*
X153070970Y-109895671D01*
X153060480Y-109917849D01*
X153047867Y-109938893D01*
X153033253Y-109958598D01*
X153016777Y-109976777D01*
X152998598Y-109993253D01*
X152978893Y-110007867D01*
X152957849Y-110020480D01*
X152935671Y-110030970D01*
X152912571Y-110039235D01*
X152888773Y-110045196D01*
X152864504Y-110048796D01*
X152840000Y-110050000D01*
X152340000Y-110050000D01*
X152315496Y-110048796D01*
X152291227Y-110045196D01*
X152267429Y-110039235D01*
X152244329Y-110030970D01*
X152222151Y-110020480D01*
X152201107Y-110007867D01*
X152181402Y-109993253D01*
X152163223Y-109976777D01*
X152146747Y-109958598D01*
X152132133Y-109938893D01*
X152119520Y-109917849D01*
X152109030Y-109895671D01*
X152100765Y-109872571D01*
X152094804Y-109848773D01*
X152091204Y-109824504D01*
X152090000Y-109800000D01*
X152090000Y-107950000D01*
X152091204Y-107925496D01*
X152094804Y-107901227D01*
X152100765Y-107877429D01*
X152109030Y-107854329D01*
X152119520Y-107832151D01*
X152132133Y-107811107D01*
X152146747Y-107791402D01*
X152163223Y-107773223D01*
X152181402Y-107756747D01*
X152201107Y-107742133D01*
X152222151Y-107729520D01*
X152244329Y-107719030D01*
X152267429Y-107710765D01*
X152291227Y-107704804D01*
X152315496Y-107701204D01*
X152340000Y-107700000D01*
X152840000Y-107700000D01*
X152864504Y-107701204D01*
G37*
D21*
X177100000Y-116020000D03*
X175800000Y-116020000D03*
X176450000Y-114120000D03*
X175800000Y-114120000D03*
X177100000Y-114120000D03*
D20*
G36*
X133984131Y-86276200D02*
G01*
X133004131Y-87676200D01*
X131995869Y-87676200D01*
X131015869Y-86276200D01*
X133984131Y-86276200D01*
G37*
D22*
X132500000Y-85566500D03*
D23*
X134000000Y-88380000D03*
D24*
X132500000Y-88233500D03*
D23*
X131000000Y-88380000D03*
D20*
G36*
X131014016Y-84858000D02*
G01*
X131896368Y-83608000D01*
X133103632Y-83608000D01*
X133985984Y-84858000D01*
X131014016Y-84858000D01*
G37*
D25*
X172226000Y-110294000D03*
X172200000Y-118200000D03*
X172200000Y-114400000D03*
D12*
X170340000Y-106430000D03*
X172880000Y-106430000D03*
X175420000Y-106430000D03*
D13*
X177960000Y-106430000D03*
D26*
X168900000Y-112900000D03*
X118800000Y-67700000D03*
D27*
X166250000Y-106200000D03*
X164150000Y-106200000D03*
D16*
X183700000Y-68300000D03*
X183700000Y-65300000D03*
D28*
X185175000Y-66800000D03*
X182225000Y-66800000D03*
D29*
X179240000Y-70840000D03*
X179240000Y-65760000D03*
X174160000Y-65760000D03*
X174160000Y-70840000D03*
D30*
X176700000Y-68300000D03*
D31*
X131600000Y-64500000D03*
X124600000Y-64500000D03*
D10*
X130600000Y-67200000D03*
X125600000Y-67200000D03*
D20*
G36*
X123370567Y-92154695D02*
G01*
X123465213Y-92168734D01*
X123558028Y-92191983D01*
X123648116Y-92224217D01*
X123734612Y-92265127D01*
X123816681Y-92314317D01*
X123893533Y-92371315D01*
X123964429Y-92435571D01*
X124028685Y-92506467D01*
X124085683Y-92583319D01*
X124134873Y-92665388D01*
X124175783Y-92751884D01*
X124208017Y-92841972D01*
X124231266Y-92934787D01*
X124245305Y-93029433D01*
X124250000Y-93125000D01*
X124250000Y-95075000D01*
X124245305Y-95170567D01*
X124231266Y-95265213D01*
X124208017Y-95358028D01*
X124175783Y-95448116D01*
X124134873Y-95534612D01*
X124085683Y-95616681D01*
X124028685Y-95693533D01*
X123964429Y-95764429D01*
X123893533Y-95828685D01*
X123816681Y-95885683D01*
X123734612Y-95934873D01*
X123648116Y-95975783D01*
X123558028Y-96008017D01*
X123465213Y-96031266D01*
X123370567Y-96045305D01*
X123275000Y-96050000D01*
X121325000Y-96050000D01*
X121229433Y-96045305D01*
X121134787Y-96031266D01*
X121041972Y-96008017D01*
X120951884Y-95975783D01*
X120865388Y-95934873D01*
X120783319Y-95885683D01*
X120706467Y-95828685D01*
X120635571Y-95764429D01*
X120571315Y-95693533D01*
X120514317Y-95616681D01*
X120465127Y-95534612D01*
X120424217Y-95448116D01*
X120391983Y-95358028D01*
X120368734Y-95265213D01*
X120354695Y-95170567D01*
X120350000Y-95075000D01*
X120350000Y-93125000D01*
X120354695Y-93029433D01*
X120368734Y-92934787D01*
X120391983Y-92841972D01*
X120424217Y-92751884D01*
X120465127Y-92665388D01*
X120514317Y-92583319D01*
X120571315Y-92506467D01*
X120635571Y-92435571D01*
X120706467Y-92371315D01*
X120783319Y-92314317D01*
X120865388Y-92265127D01*
X120951884Y-92224217D01*
X121041972Y-92191983D01*
X121134787Y-92168734D01*
X121229433Y-92154695D01*
X121325000Y-92150000D01*
X123275000Y-92150000D01*
X123370567Y-92154695D01*
G37*
G36*
X126233315Y-87454093D02*
G01*
X126315827Y-87466333D01*
X126396742Y-87486601D01*
X126475281Y-87514702D01*
X126550687Y-87550367D01*
X126622235Y-87593251D01*
X126689234Y-87642941D01*
X126751041Y-87698959D01*
X126807059Y-87760766D01*
X126856749Y-87827765D01*
X126899633Y-87899313D01*
X126935298Y-87974719D01*
X126963399Y-88053258D01*
X126983667Y-88134173D01*
X126995907Y-88216685D01*
X127000000Y-88300000D01*
X127000000Y-90500000D01*
X126995907Y-90583315D01*
X126983667Y-90665827D01*
X126963399Y-90746742D01*
X126935298Y-90825281D01*
X126899633Y-90900687D01*
X126856749Y-90972235D01*
X126807059Y-91039234D01*
X126751041Y-91101041D01*
X126689234Y-91157059D01*
X126622235Y-91206749D01*
X126550687Y-91249633D01*
X126475281Y-91285298D01*
X126396742Y-91313399D01*
X126315827Y-91333667D01*
X126233315Y-91345907D01*
X126150000Y-91350000D01*
X124450000Y-91350000D01*
X124366685Y-91345907D01*
X124284173Y-91333667D01*
X124203258Y-91313399D01*
X124124719Y-91285298D01*
X124049313Y-91249633D01*
X123977765Y-91206749D01*
X123910766Y-91157059D01*
X123848959Y-91101041D01*
X123792941Y-91039234D01*
X123743251Y-90972235D01*
X123700367Y-90900687D01*
X123664702Y-90825281D01*
X123636601Y-90746742D01*
X123616333Y-90665827D01*
X123604093Y-90583315D01*
X123600000Y-90500000D01*
X123600000Y-88300000D01*
X123604093Y-88216685D01*
X123616333Y-88134173D01*
X123636601Y-88053258D01*
X123664702Y-87974719D01*
X123700367Y-87899313D01*
X123743251Y-87827765D01*
X123792941Y-87760766D01*
X123848959Y-87698959D01*
X123910766Y-87642941D01*
X123977765Y-87593251D01*
X124049313Y-87550367D01*
X124124719Y-87514702D01*
X124203258Y-87486601D01*
X124284173Y-87466333D01*
X124366685Y-87454093D01*
X124450000Y-87450000D01*
X126150000Y-87450000D01*
X126233315Y-87454093D01*
G37*
D32*
X119300000Y-89400000D03*
D20*
G36*
X148239943Y-81701655D02*
G01*
X148273312Y-81706605D01*
X148306035Y-81714802D01*
X148337797Y-81726166D01*
X148368293Y-81740590D01*
X148397227Y-81757932D01*
X148424323Y-81778028D01*
X148449318Y-81800682D01*
X148471972Y-81825677D01*
X148492068Y-81852773D01*
X148509410Y-81881707D01*
X148523834Y-81912203D01*
X148535198Y-81943965D01*
X148543395Y-81976688D01*
X148548345Y-82010057D01*
X148550000Y-82043750D01*
X148550000Y-83156250D01*
X148548345Y-83189943D01*
X148543395Y-83223312D01*
X148535198Y-83256035D01*
X148523834Y-83287797D01*
X148509410Y-83318293D01*
X148492068Y-83347227D01*
X148471972Y-83374323D01*
X148449318Y-83399318D01*
X148424323Y-83421972D01*
X148397227Y-83442068D01*
X148368293Y-83459410D01*
X148337797Y-83473834D01*
X148306035Y-83485198D01*
X148273312Y-83493395D01*
X148239943Y-83498345D01*
X148206250Y-83500000D01*
X147518750Y-83500000D01*
X147485057Y-83498345D01*
X147451688Y-83493395D01*
X147418965Y-83485198D01*
X147387203Y-83473834D01*
X147356707Y-83459410D01*
X147327773Y-83442068D01*
X147300677Y-83421972D01*
X147275682Y-83399318D01*
X147253028Y-83374323D01*
X147232932Y-83347227D01*
X147215590Y-83318293D01*
X147201166Y-83287797D01*
X147189802Y-83256035D01*
X147181605Y-83223312D01*
X147176655Y-83189943D01*
X147175000Y-83156250D01*
X147175000Y-82043750D01*
X147176655Y-82010057D01*
X147181605Y-81976688D01*
X147189802Y-81943965D01*
X147201166Y-81912203D01*
X147215590Y-81881707D01*
X147232932Y-81852773D01*
X147253028Y-81825677D01*
X147275682Y-81800682D01*
X147300677Y-81778028D01*
X147327773Y-81757932D01*
X147356707Y-81740590D01*
X147387203Y-81726166D01*
X147418965Y-81714802D01*
X147451688Y-81706605D01*
X147485057Y-81701655D01*
X147518750Y-81700000D01*
X148206250Y-81700000D01*
X148239943Y-81701655D01*
G37*
G36*
X150114943Y-81701655D02*
G01*
X150148312Y-81706605D01*
X150181035Y-81714802D01*
X150212797Y-81726166D01*
X150243293Y-81740590D01*
X150272227Y-81757932D01*
X150299323Y-81778028D01*
X150324318Y-81800682D01*
X150346972Y-81825677D01*
X150367068Y-81852773D01*
X150384410Y-81881707D01*
X150398834Y-81912203D01*
X150410198Y-81943965D01*
X150418395Y-81976688D01*
X150423345Y-82010057D01*
X150425000Y-82043750D01*
X150425000Y-83156250D01*
X150423345Y-83189943D01*
X150418395Y-83223312D01*
X150410198Y-83256035D01*
X150398834Y-83287797D01*
X150384410Y-83318293D01*
X150367068Y-83347227D01*
X150346972Y-83374323D01*
X150324318Y-83399318D01*
X150299323Y-83421972D01*
X150272227Y-83442068D01*
X150243293Y-83459410D01*
X150212797Y-83473834D01*
X150181035Y-83485198D01*
X150148312Y-83493395D01*
X150114943Y-83498345D01*
X150081250Y-83500000D01*
X149393750Y-83500000D01*
X149360057Y-83498345D01*
X149326688Y-83493395D01*
X149293965Y-83485198D01*
X149262203Y-83473834D01*
X149231707Y-83459410D01*
X149202773Y-83442068D01*
X149175677Y-83421972D01*
X149150682Y-83399318D01*
X149128028Y-83374323D01*
X149107932Y-83347227D01*
X149090590Y-83318293D01*
X149076166Y-83287797D01*
X149064802Y-83256035D01*
X149056605Y-83223312D01*
X149051655Y-83189943D01*
X149050000Y-83156250D01*
X149050000Y-82043750D01*
X149051655Y-82010057D01*
X149056605Y-81976688D01*
X149064802Y-81943965D01*
X149076166Y-81912203D01*
X149090590Y-81881707D01*
X149107932Y-81852773D01*
X149128028Y-81825677D01*
X149150682Y-81800682D01*
X149175677Y-81778028D01*
X149202773Y-81757932D01*
X149231707Y-81740590D01*
X149262203Y-81726166D01*
X149293965Y-81714802D01*
X149326688Y-81706605D01*
X149360057Y-81701655D01*
X149393750Y-81700000D01*
X150081250Y-81700000D01*
X150114943Y-81701655D01*
G37*
G36*
X160931943Y-90316655D02*
G01*
X160965312Y-90321605D01*
X160998035Y-90329802D01*
X161029797Y-90341166D01*
X161060293Y-90355590D01*
X161089227Y-90372932D01*
X161116323Y-90393028D01*
X161141318Y-90415682D01*
X161163972Y-90440677D01*
X161184068Y-90467773D01*
X161201410Y-90496707D01*
X161215834Y-90527203D01*
X161227198Y-90558965D01*
X161235395Y-90591688D01*
X161240345Y-90625057D01*
X161242000Y-90658750D01*
X161242000Y-91346250D01*
X161240345Y-91379943D01*
X161235395Y-91413312D01*
X161227198Y-91446035D01*
X161215834Y-91477797D01*
X161201410Y-91508293D01*
X161184068Y-91537227D01*
X161163972Y-91564323D01*
X161141318Y-91589318D01*
X161116323Y-91611972D01*
X161089227Y-91632068D01*
X161060293Y-91649410D01*
X161029797Y-91663834D01*
X160998035Y-91675198D01*
X160965312Y-91683395D01*
X160931943Y-91688345D01*
X160898250Y-91690000D01*
X159785750Y-91690000D01*
X159752057Y-91688345D01*
X159718688Y-91683395D01*
X159685965Y-91675198D01*
X159654203Y-91663834D01*
X159623707Y-91649410D01*
X159594773Y-91632068D01*
X159567677Y-91611972D01*
X159542682Y-91589318D01*
X159520028Y-91564323D01*
X159499932Y-91537227D01*
X159482590Y-91508293D01*
X159468166Y-91477797D01*
X159456802Y-91446035D01*
X159448605Y-91413312D01*
X159443655Y-91379943D01*
X159442000Y-91346250D01*
X159442000Y-90658750D01*
X159443655Y-90625057D01*
X159448605Y-90591688D01*
X159456802Y-90558965D01*
X159468166Y-90527203D01*
X159482590Y-90496707D01*
X159499932Y-90467773D01*
X159520028Y-90440677D01*
X159542682Y-90415682D01*
X159567677Y-90393028D01*
X159594773Y-90372932D01*
X159623707Y-90355590D01*
X159654203Y-90341166D01*
X159685965Y-90329802D01*
X159718688Y-90321605D01*
X159752057Y-90316655D01*
X159785750Y-90315000D01*
X160898250Y-90315000D01*
X160931943Y-90316655D01*
G37*
G36*
X160931943Y-92191655D02*
G01*
X160965312Y-92196605D01*
X160998035Y-92204802D01*
X161029797Y-92216166D01*
X161060293Y-92230590D01*
X161089227Y-92247932D01*
X161116323Y-92268028D01*
X161141318Y-92290682D01*
X161163972Y-92315677D01*
X161184068Y-92342773D01*
X161201410Y-92371707D01*
X161215834Y-92402203D01*
X161227198Y-92433965D01*
X161235395Y-92466688D01*
X161240345Y-92500057D01*
X161242000Y-92533750D01*
X161242000Y-93221250D01*
X161240345Y-93254943D01*
X161235395Y-93288312D01*
X161227198Y-93321035D01*
X161215834Y-93352797D01*
X161201410Y-93383293D01*
X161184068Y-93412227D01*
X161163972Y-93439323D01*
X161141318Y-93464318D01*
X161116323Y-93486972D01*
X161089227Y-93507068D01*
X161060293Y-93524410D01*
X161029797Y-93538834D01*
X160998035Y-93550198D01*
X160965312Y-93558395D01*
X160931943Y-93563345D01*
X160898250Y-93565000D01*
X159785750Y-93565000D01*
X159752057Y-93563345D01*
X159718688Y-93558395D01*
X159685965Y-93550198D01*
X159654203Y-93538834D01*
X159623707Y-93524410D01*
X159594773Y-93507068D01*
X159567677Y-93486972D01*
X159542682Y-93464318D01*
X159520028Y-93439323D01*
X159499932Y-93412227D01*
X159482590Y-93383293D01*
X159468166Y-93352797D01*
X159456802Y-93321035D01*
X159448605Y-93288312D01*
X159443655Y-93254943D01*
X159442000Y-93221250D01*
X159442000Y-92533750D01*
X159443655Y-92500057D01*
X159448605Y-92466688D01*
X159456802Y-92433965D01*
X159468166Y-92402203D01*
X159482590Y-92371707D01*
X159499932Y-92342773D01*
X159520028Y-92315677D01*
X159542682Y-92290682D01*
X159567677Y-92268028D01*
X159594773Y-92247932D01*
X159623707Y-92230590D01*
X159654203Y-92216166D01*
X159685965Y-92204802D01*
X159718688Y-92196605D01*
X159752057Y-92191655D01*
X159785750Y-92190000D01*
X160898250Y-92190000D01*
X160931943Y-92191655D01*
G37*
G36*
X157375943Y-90316655D02*
G01*
X157409312Y-90321605D01*
X157442035Y-90329802D01*
X157473797Y-90341166D01*
X157504293Y-90355590D01*
X157533227Y-90372932D01*
X157560323Y-90393028D01*
X157585318Y-90415682D01*
X157607972Y-90440677D01*
X157628068Y-90467773D01*
X157645410Y-90496707D01*
X157659834Y-90527203D01*
X157671198Y-90558965D01*
X157679395Y-90591688D01*
X157684345Y-90625057D01*
X157686000Y-90658750D01*
X157686000Y-91346250D01*
X157684345Y-91379943D01*
X157679395Y-91413312D01*
X157671198Y-91446035D01*
X157659834Y-91477797D01*
X157645410Y-91508293D01*
X157628068Y-91537227D01*
X157607972Y-91564323D01*
X157585318Y-91589318D01*
X157560323Y-91611972D01*
X157533227Y-91632068D01*
X157504293Y-91649410D01*
X157473797Y-91663834D01*
X157442035Y-91675198D01*
X157409312Y-91683395D01*
X157375943Y-91688345D01*
X157342250Y-91690000D01*
X156229750Y-91690000D01*
X156196057Y-91688345D01*
X156162688Y-91683395D01*
X156129965Y-91675198D01*
X156098203Y-91663834D01*
X156067707Y-91649410D01*
X156038773Y-91632068D01*
X156011677Y-91611972D01*
X155986682Y-91589318D01*
X155964028Y-91564323D01*
X155943932Y-91537227D01*
X155926590Y-91508293D01*
X155912166Y-91477797D01*
X155900802Y-91446035D01*
X155892605Y-91413312D01*
X155887655Y-91379943D01*
X155886000Y-91346250D01*
X155886000Y-90658750D01*
X155887655Y-90625057D01*
X155892605Y-90591688D01*
X155900802Y-90558965D01*
X155912166Y-90527203D01*
X155926590Y-90496707D01*
X155943932Y-90467773D01*
X155964028Y-90440677D01*
X155986682Y-90415682D01*
X156011677Y-90393028D01*
X156038773Y-90372932D01*
X156067707Y-90355590D01*
X156098203Y-90341166D01*
X156129965Y-90329802D01*
X156162688Y-90321605D01*
X156196057Y-90316655D01*
X156229750Y-90315000D01*
X157342250Y-90315000D01*
X157375943Y-90316655D01*
G37*
G36*
X157375943Y-92191655D02*
G01*
X157409312Y-92196605D01*
X157442035Y-92204802D01*
X157473797Y-92216166D01*
X157504293Y-92230590D01*
X157533227Y-92247932D01*
X157560323Y-92268028D01*
X157585318Y-92290682D01*
X157607972Y-92315677D01*
X157628068Y-92342773D01*
X157645410Y-92371707D01*
X157659834Y-92402203D01*
X157671198Y-92433965D01*
X157679395Y-92466688D01*
X157684345Y-92500057D01*
X157686000Y-92533750D01*
X157686000Y-93221250D01*
X157684345Y-93254943D01*
X157679395Y-93288312D01*
X157671198Y-93321035D01*
X157659834Y-93352797D01*
X157645410Y-93383293D01*
X157628068Y-93412227D01*
X157607972Y-93439323D01*
X157585318Y-93464318D01*
X157560323Y-93486972D01*
X157533227Y-93507068D01*
X157504293Y-93524410D01*
X157473797Y-93538834D01*
X157442035Y-93550198D01*
X157409312Y-93558395D01*
X157375943Y-93563345D01*
X157342250Y-93565000D01*
X156229750Y-93565000D01*
X156196057Y-93563345D01*
X156162688Y-93558395D01*
X156129965Y-93550198D01*
X156098203Y-93538834D01*
X156067707Y-93524410D01*
X156038773Y-93507068D01*
X156011677Y-93486972D01*
X155986682Y-93464318D01*
X155964028Y-93439323D01*
X155943932Y-93412227D01*
X155926590Y-93383293D01*
X155912166Y-93352797D01*
X155900802Y-93321035D01*
X155892605Y-93288312D01*
X155887655Y-93254943D01*
X155886000Y-93221250D01*
X155886000Y-92533750D01*
X155887655Y-92500057D01*
X155892605Y-92466688D01*
X155900802Y-92433965D01*
X155912166Y-92402203D01*
X155926590Y-92371707D01*
X155943932Y-92342773D01*
X155964028Y-92315677D01*
X155986682Y-92290682D01*
X156011677Y-92268028D01*
X156038773Y-92247932D01*
X156067707Y-92230590D01*
X156098203Y-92216166D01*
X156129965Y-92204802D01*
X156162688Y-92196605D01*
X156196057Y-92191655D01*
X156229750Y-92190000D01*
X157342250Y-92190000D01*
X157375943Y-92191655D01*
G37*
G36*
X153819943Y-90316655D02*
G01*
X153853312Y-90321605D01*
X153886035Y-90329802D01*
X153917797Y-90341166D01*
X153948293Y-90355590D01*
X153977227Y-90372932D01*
X154004323Y-90393028D01*
X154029318Y-90415682D01*
X154051972Y-90440677D01*
X154072068Y-90467773D01*
X154089410Y-90496707D01*
X154103834Y-90527203D01*
X154115198Y-90558965D01*
X154123395Y-90591688D01*
X154128345Y-90625057D01*
X154130000Y-90658750D01*
X154130000Y-91346250D01*
X154128345Y-91379943D01*
X154123395Y-91413312D01*
X154115198Y-91446035D01*
X154103834Y-91477797D01*
X154089410Y-91508293D01*
X154072068Y-91537227D01*
X154051972Y-91564323D01*
X154029318Y-91589318D01*
X154004323Y-91611972D01*
X153977227Y-91632068D01*
X153948293Y-91649410D01*
X153917797Y-91663834D01*
X153886035Y-91675198D01*
X153853312Y-91683395D01*
X153819943Y-91688345D01*
X153786250Y-91690000D01*
X152673750Y-91690000D01*
X152640057Y-91688345D01*
X152606688Y-91683395D01*
X152573965Y-91675198D01*
X152542203Y-91663834D01*
X152511707Y-91649410D01*
X152482773Y-91632068D01*
X152455677Y-91611972D01*
X152430682Y-91589318D01*
X152408028Y-91564323D01*
X152387932Y-91537227D01*
X152370590Y-91508293D01*
X152356166Y-91477797D01*
X152344802Y-91446035D01*
X152336605Y-91413312D01*
X152331655Y-91379943D01*
X152330000Y-91346250D01*
X152330000Y-90658750D01*
X152331655Y-90625057D01*
X152336605Y-90591688D01*
X152344802Y-90558965D01*
X152356166Y-90527203D01*
X152370590Y-90496707D01*
X152387932Y-90467773D01*
X152408028Y-90440677D01*
X152430682Y-90415682D01*
X152455677Y-90393028D01*
X152482773Y-90372932D01*
X152511707Y-90355590D01*
X152542203Y-90341166D01*
X152573965Y-90329802D01*
X152606688Y-90321605D01*
X152640057Y-90316655D01*
X152673750Y-90315000D01*
X153786250Y-90315000D01*
X153819943Y-90316655D01*
G37*
G36*
X153819943Y-92191655D02*
G01*
X153853312Y-92196605D01*
X153886035Y-92204802D01*
X153917797Y-92216166D01*
X153948293Y-92230590D01*
X153977227Y-92247932D01*
X154004323Y-92268028D01*
X154029318Y-92290682D01*
X154051972Y-92315677D01*
X154072068Y-92342773D01*
X154089410Y-92371707D01*
X154103834Y-92402203D01*
X154115198Y-92433965D01*
X154123395Y-92466688D01*
X154128345Y-92500057D01*
X154130000Y-92533750D01*
X154130000Y-93221250D01*
X154128345Y-93254943D01*
X154123395Y-93288312D01*
X154115198Y-93321035D01*
X154103834Y-93352797D01*
X154089410Y-93383293D01*
X154072068Y-93412227D01*
X154051972Y-93439323D01*
X154029318Y-93464318D01*
X154004323Y-93486972D01*
X153977227Y-93507068D01*
X153948293Y-93524410D01*
X153917797Y-93538834D01*
X153886035Y-93550198D01*
X153853312Y-93558395D01*
X153819943Y-93563345D01*
X153786250Y-93565000D01*
X152673750Y-93565000D01*
X152640057Y-93563345D01*
X152606688Y-93558395D01*
X152573965Y-93550198D01*
X152542203Y-93538834D01*
X152511707Y-93524410D01*
X152482773Y-93507068D01*
X152455677Y-93486972D01*
X152430682Y-93464318D01*
X152408028Y-93439323D01*
X152387932Y-93412227D01*
X152370590Y-93383293D01*
X152356166Y-93352797D01*
X152344802Y-93321035D01*
X152336605Y-93288312D01*
X152331655Y-93254943D01*
X152330000Y-93221250D01*
X152330000Y-92533750D01*
X152331655Y-92500057D01*
X152336605Y-92466688D01*
X152344802Y-92433965D01*
X152356166Y-92402203D01*
X152370590Y-92371707D01*
X152387932Y-92342773D01*
X152408028Y-92315677D01*
X152430682Y-92290682D01*
X152455677Y-92268028D01*
X152482773Y-92247932D01*
X152511707Y-92230590D01*
X152542203Y-92216166D01*
X152573965Y-92204802D01*
X152606688Y-92196605D01*
X152640057Y-92191655D01*
X152673750Y-92190000D01*
X153786250Y-92190000D01*
X153819943Y-92191655D01*
G37*
G36*
X159852443Y-114798655D02*
G01*
X159885812Y-114803605D01*
X159918535Y-114811802D01*
X159950297Y-114823166D01*
X159980793Y-114837590D01*
X160009727Y-114854932D01*
X160036823Y-114875028D01*
X160061818Y-114897682D01*
X160084472Y-114922677D01*
X160104568Y-114949773D01*
X160121910Y-114978707D01*
X160136334Y-115009203D01*
X160147698Y-115040965D01*
X160155895Y-115073688D01*
X160160845Y-115107057D01*
X160162500Y-115140750D01*
X160162500Y-116253250D01*
X160160845Y-116286943D01*
X160155895Y-116320312D01*
X160147698Y-116353035D01*
X160136334Y-116384797D01*
X160121910Y-116415293D01*
X160104568Y-116444227D01*
X160084472Y-116471323D01*
X160061818Y-116496318D01*
X160036823Y-116518972D01*
X160009727Y-116539068D01*
X159980793Y-116556410D01*
X159950297Y-116570834D01*
X159918535Y-116582198D01*
X159885812Y-116590395D01*
X159852443Y-116595345D01*
X159818750Y-116597000D01*
X159131250Y-116597000D01*
X159097557Y-116595345D01*
X159064188Y-116590395D01*
X159031465Y-116582198D01*
X158999703Y-116570834D01*
X158969207Y-116556410D01*
X158940273Y-116539068D01*
X158913177Y-116518972D01*
X158888182Y-116496318D01*
X158865528Y-116471323D01*
X158845432Y-116444227D01*
X158828090Y-116415293D01*
X158813666Y-116384797D01*
X158802302Y-116353035D01*
X158794105Y-116320312D01*
X158789155Y-116286943D01*
X158787500Y-116253250D01*
X158787500Y-115140750D01*
X158789155Y-115107057D01*
X158794105Y-115073688D01*
X158802302Y-115040965D01*
X158813666Y-115009203D01*
X158828090Y-114978707D01*
X158845432Y-114949773D01*
X158865528Y-114922677D01*
X158888182Y-114897682D01*
X158913177Y-114875028D01*
X158940273Y-114854932D01*
X158969207Y-114837590D01*
X158999703Y-114823166D01*
X159031465Y-114811802D01*
X159064188Y-114803605D01*
X159097557Y-114798655D01*
X159131250Y-114797000D01*
X159818750Y-114797000D01*
X159852443Y-114798655D01*
G37*
G36*
X157977443Y-114798655D02*
G01*
X158010812Y-114803605D01*
X158043535Y-114811802D01*
X158075297Y-114823166D01*
X158105793Y-114837590D01*
X158134727Y-114854932D01*
X158161823Y-114875028D01*
X158186818Y-114897682D01*
X158209472Y-114922677D01*
X158229568Y-114949773D01*
X158246910Y-114978707D01*
X158261334Y-115009203D01*
X158272698Y-115040965D01*
X158280895Y-115073688D01*
X158285845Y-115107057D01*
X158287500Y-115140750D01*
X158287500Y-116253250D01*
X158285845Y-116286943D01*
X158280895Y-116320312D01*
X158272698Y-116353035D01*
X158261334Y-116384797D01*
X158246910Y-116415293D01*
X158229568Y-116444227D01*
X158209472Y-116471323D01*
X158186818Y-116496318D01*
X158161823Y-116518972D01*
X158134727Y-116539068D01*
X158105793Y-116556410D01*
X158075297Y-116570834D01*
X158043535Y-116582198D01*
X158010812Y-116590395D01*
X157977443Y-116595345D01*
X157943750Y-116597000D01*
X157256250Y-116597000D01*
X157222557Y-116595345D01*
X157189188Y-116590395D01*
X157156465Y-116582198D01*
X157124703Y-116570834D01*
X157094207Y-116556410D01*
X157065273Y-116539068D01*
X157038177Y-116518972D01*
X157013182Y-116496318D01*
X156990528Y-116471323D01*
X156970432Y-116444227D01*
X156953090Y-116415293D01*
X156938666Y-116384797D01*
X156927302Y-116353035D01*
X156919105Y-116320312D01*
X156914155Y-116286943D01*
X156912500Y-116253250D01*
X156912500Y-115140750D01*
X156914155Y-115107057D01*
X156919105Y-115073688D01*
X156927302Y-115040965D01*
X156938666Y-115009203D01*
X156953090Y-114978707D01*
X156970432Y-114949773D01*
X156990528Y-114922677D01*
X157013182Y-114897682D01*
X157038177Y-114875028D01*
X157065273Y-114854932D01*
X157094207Y-114837590D01*
X157124703Y-114823166D01*
X157156465Y-114811802D01*
X157189188Y-114803605D01*
X157222557Y-114798655D01*
X157256250Y-114797000D01*
X157943750Y-114797000D01*
X157977443Y-114798655D01*
G37*
G36*
X153617943Y-114798655D02*
G01*
X153651312Y-114803605D01*
X153684035Y-114811802D01*
X153715797Y-114823166D01*
X153746293Y-114837590D01*
X153775227Y-114854932D01*
X153802323Y-114875028D01*
X153827318Y-114897682D01*
X153849972Y-114922677D01*
X153870068Y-114949773D01*
X153887410Y-114978707D01*
X153901834Y-115009203D01*
X153913198Y-115040965D01*
X153921395Y-115073688D01*
X153926345Y-115107057D01*
X153928000Y-115140750D01*
X153928000Y-116253250D01*
X153926345Y-116286943D01*
X153921395Y-116320312D01*
X153913198Y-116353035D01*
X153901834Y-116384797D01*
X153887410Y-116415293D01*
X153870068Y-116444227D01*
X153849972Y-116471323D01*
X153827318Y-116496318D01*
X153802323Y-116518972D01*
X153775227Y-116539068D01*
X153746293Y-116556410D01*
X153715797Y-116570834D01*
X153684035Y-116582198D01*
X153651312Y-116590395D01*
X153617943Y-116595345D01*
X153584250Y-116597000D01*
X152896750Y-116597000D01*
X152863057Y-116595345D01*
X152829688Y-116590395D01*
X152796965Y-116582198D01*
X152765203Y-116570834D01*
X152734707Y-116556410D01*
X152705773Y-116539068D01*
X152678677Y-116518972D01*
X152653682Y-116496318D01*
X152631028Y-116471323D01*
X152610932Y-116444227D01*
X152593590Y-116415293D01*
X152579166Y-116384797D01*
X152567802Y-116353035D01*
X152559605Y-116320312D01*
X152554655Y-116286943D01*
X152553000Y-116253250D01*
X152553000Y-115140750D01*
X152554655Y-115107057D01*
X152559605Y-115073688D01*
X152567802Y-115040965D01*
X152579166Y-115009203D01*
X152593590Y-114978707D01*
X152610932Y-114949773D01*
X152631028Y-114922677D01*
X152653682Y-114897682D01*
X152678677Y-114875028D01*
X152705773Y-114854932D01*
X152734707Y-114837590D01*
X152765203Y-114823166D01*
X152796965Y-114811802D01*
X152829688Y-114803605D01*
X152863057Y-114798655D01*
X152896750Y-114797000D01*
X153584250Y-114797000D01*
X153617943Y-114798655D01*
G37*
G36*
X155492943Y-114798655D02*
G01*
X155526312Y-114803605D01*
X155559035Y-114811802D01*
X155590797Y-114823166D01*
X155621293Y-114837590D01*
X155650227Y-114854932D01*
X155677323Y-114875028D01*
X155702318Y-114897682D01*
X155724972Y-114922677D01*
X155745068Y-114949773D01*
X155762410Y-114978707D01*
X155776834Y-115009203D01*
X155788198Y-115040965D01*
X155796395Y-115073688D01*
X155801345Y-115107057D01*
X155803000Y-115140750D01*
X155803000Y-116253250D01*
X155801345Y-116286943D01*
X155796395Y-116320312D01*
X155788198Y-116353035D01*
X155776834Y-116384797D01*
X155762410Y-116415293D01*
X155745068Y-116444227D01*
X155724972Y-116471323D01*
X155702318Y-116496318D01*
X155677323Y-116518972D01*
X155650227Y-116539068D01*
X155621293Y-116556410D01*
X155590797Y-116570834D01*
X155559035Y-116582198D01*
X155526312Y-116590395D01*
X155492943Y-116595345D01*
X155459250Y-116597000D01*
X154771750Y-116597000D01*
X154738057Y-116595345D01*
X154704688Y-116590395D01*
X154671965Y-116582198D01*
X154640203Y-116570834D01*
X154609707Y-116556410D01*
X154580773Y-116539068D01*
X154553677Y-116518972D01*
X154528682Y-116496318D01*
X154506028Y-116471323D01*
X154485932Y-116444227D01*
X154468590Y-116415293D01*
X154454166Y-116384797D01*
X154442802Y-116353035D01*
X154434605Y-116320312D01*
X154429655Y-116286943D01*
X154428000Y-116253250D01*
X154428000Y-115140750D01*
X154429655Y-115107057D01*
X154434605Y-115073688D01*
X154442802Y-115040965D01*
X154454166Y-115009203D01*
X154468590Y-114978707D01*
X154485932Y-114949773D01*
X154506028Y-114922677D01*
X154528682Y-114897682D01*
X154553677Y-114875028D01*
X154580773Y-114854932D01*
X154609707Y-114837590D01*
X154640203Y-114823166D01*
X154671965Y-114811802D01*
X154704688Y-114803605D01*
X154738057Y-114798655D01*
X154771750Y-114797000D01*
X155459250Y-114797000D01*
X155492943Y-114798655D01*
G37*
G36*
X140989943Y-89714155D02*
G01*
X141023312Y-89719105D01*
X141056035Y-89727302D01*
X141087797Y-89738666D01*
X141118293Y-89753090D01*
X141147227Y-89770432D01*
X141174323Y-89790528D01*
X141199318Y-89813182D01*
X141221972Y-89838177D01*
X141242068Y-89865273D01*
X141259410Y-89894207D01*
X141273834Y-89924703D01*
X141285198Y-89956465D01*
X141293395Y-89989188D01*
X141298345Y-90022557D01*
X141300000Y-90056250D01*
X141300000Y-90743750D01*
X141298345Y-90777443D01*
X141293395Y-90810812D01*
X141285198Y-90843535D01*
X141273834Y-90875297D01*
X141259410Y-90905793D01*
X141242068Y-90934727D01*
X141221972Y-90961823D01*
X141199318Y-90986818D01*
X141174323Y-91009472D01*
X141147227Y-91029568D01*
X141118293Y-91046910D01*
X141087797Y-91061334D01*
X141056035Y-91072698D01*
X141023312Y-91080895D01*
X140989943Y-91085845D01*
X140956250Y-91087500D01*
X139843750Y-91087500D01*
X139810057Y-91085845D01*
X139776688Y-91080895D01*
X139743965Y-91072698D01*
X139712203Y-91061334D01*
X139681707Y-91046910D01*
X139652773Y-91029568D01*
X139625677Y-91009472D01*
X139600682Y-90986818D01*
X139578028Y-90961823D01*
X139557932Y-90934727D01*
X139540590Y-90905793D01*
X139526166Y-90875297D01*
X139514802Y-90843535D01*
X139506605Y-90810812D01*
X139501655Y-90777443D01*
X139500000Y-90743750D01*
X139500000Y-90056250D01*
X139501655Y-90022557D01*
X139506605Y-89989188D01*
X139514802Y-89956465D01*
X139526166Y-89924703D01*
X139540590Y-89894207D01*
X139557932Y-89865273D01*
X139578028Y-89838177D01*
X139600682Y-89813182D01*
X139625677Y-89790528D01*
X139652773Y-89770432D01*
X139681707Y-89753090D01*
X139712203Y-89738666D01*
X139743965Y-89727302D01*
X139776688Y-89719105D01*
X139810057Y-89714155D01*
X139843750Y-89712500D01*
X140956250Y-89712500D01*
X140989943Y-89714155D01*
G37*
G36*
X140989943Y-87839155D02*
G01*
X141023312Y-87844105D01*
X141056035Y-87852302D01*
X141087797Y-87863666D01*
X141118293Y-87878090D01*
X141147227Y-87895432D01*
X141174323Y-87915528D01*
X141199318Y-87938182D01*
X141221972Y-87963177D01*
X141242068Y-87990273D01*
X141259410Y-88019207D01*
X141273834Y-88049703D01*
X141285198Y-88081465D01*
X141293395Y-88114188D01*
X141298345Y-88147557D01*
X141300000Y-88181250D01*
X141300000Y-88868750D01*
X141298345Y-88902443D01*
X141293395Y-88935812D01*
X141285198Y-88968535D01*
X141273834Y-89000297D01*
X141259410Y-89030793D01*
X141242068Y-89059727D01*
X141221972Y-89086823D01*
X141199318Y-89111818D01*
X141174323Y-89134472D01*
X141147227Y-89154568D01*
X141118293Y-89171910D01*
X141087797Y-89186334D01*
X141056035Y-89197698D01*
X141023312Y-89205895D01*
X140989943Y-89210845D01*
X140956250Y-89212500D01*
X139843750Y-89212500D01*
X139810057Y-89210845D01*
X139776688Y-89205895D01*
X139743965Y-89197698D01*
X139712203Y-89186334D01*
X139681707Y-89171910D01*
X139652773Y-89154568D01*
X139625677Y-89134472D01*
X139600682Y-89111818D01*
X139578028Y-89086823D01*
X139557932Y-89059727D01*
X139540590Y-89030793D01*
X139526166Y-89000297D01*
X139514802Y-88968535D01*
X139506605Y-88935812D01*
X139501655Y-88902443D01*
X139500000Y-88868750D01*
X139500000Y-88181250D01*
X139501655Y-88147557D01*
X139506605Y-88114188D01*
X139514802Y-88081465D01*
X139526166Y-88049703D01*
X139540590Y-88019207D01*
X139557932Y-87990273D01*
X139578028Y-87963177D01*
X139600682Y-87938182D01*
X139625677Y-87915528D01*
X139652773Y-87895432D01*
X139681707Y-87878090D01*
X139712203Y-87863666D01*
X139743965Y-87852302D01*
X139776688Y-87844105D01*
X139810057Y-87839155D01*
X139843750Y-87837500D01*
X140956250Y-87837500D01*
X140989943Y-87839155D01*
G37*
G36*
X140989943Y-91576655D02*
G01*
X141023312Y-91581605D01*
X141056035Y-91589802D01*
X141087797Y-91601166D01*
X141118293Y-91615590D01*
X141147227Y-91632932D01*
X141174323Y-91653028D01*
X141199318Y-91675682D01*
X141221972Y-91700677D01*
X141242068Y-91727773D01*
X141259410Y-91756707D01*
X141273834Y-91787203D01*
X141285198Y-91818965D01*
X141293395Y-91851688D01*
X141298345Y-91885057D01*
X141300000Y-91918750D01*
X141300000Y-92606250D01*
X141298345Y-92639943D01*
X141293395Y-92673312D01*
X141285198Y-92706035D01*
X141273834Y-92737797D01*
X141259410Y-92768293D01*
X141242068Y-92797227D01*
X141221972Y-92824323D01*
X141199318Y-92849318D01*
X141174323Y-92871972D01*
X141147227Y-92892068D01*
X141118293Y-92909410D01*
X141087797Y-92923834D01*
X141056035Y-92935198D01*
X141023312Y-92943395D01*
X140989943Y-92948345D01*
X140956250Y-92950000D01*
X139843750Y-92950000D01*
X139810057Y-92948345D01*
X139776688Y-92943395D01*
X139743965Y-92935198D01*
X139712203Y-92923834D01*
X139681707Y-92909410D01*
X139652773Y-92892068D01*
X139625677Y-92871972D01*
X139600682Y-92849318D01*
X139578028Y-92824323D01*
X139557932Y-92797227D01*
X139540590Y-92768293D01*
X139526166Y-92737797D01*
X139514802Y-92706035D01*
X139506605Y-92673312D01*
X139501655Y-92639943D01*
X139500000Y-92606250D01*
X139500000Y-91918750D01*
X139501655Y-91885057D01*
X139506605Y-91851688D01*
X139514802Y-91818965D01*
X139526166Y-91787203D01*
X139540590Y-91756707D01*
X139557932Y-91727773D01*
X139578028Y-91700677D01*
X139600682Y-91675682D01*
X139625677Y-91653028D01*
X139652773Y-91632932D01*
X139681707Y-91615590D01*
X139712203Y-91601166D01*
X139743965Y-91589802D01*
X139776688Y-91581605D01*
X139810057Y-91576655D01*
X139843750Y-91575000D01*
X140956250Y-91575000D01*
X140989943Y-91576655D01*
G37*
G36*
X140989943Y-93451655D02*
G01*
X141023312Y-93456605D01*
X141056035Y-93464802D01*
X141087797Y-93476166D01*
X141118293Y-93490590D01*
X141147227Y-93507932D01*
X141174323Y-93528028D01*
X141199318Y-93550682D01*
X141221972Y-93575677D01*
X141242068Y-93602773D01*
X141259410Y-93631707D01*
X141273834Y-93662203D01*
X141285198Y-93693965D01*
X141293395Y-93726688D01*
X141298345Y-93760057D01*
X141300000Y-93793750D01*
X141300000Y-94481250D01*
X141298345Y-94514943D01*
X141293395Y-94548312D01*
X141285198Y-94581035D01*
X141273834Y-94612797D01*
X141259410Y-94643293D01*
X141242068Y-94672227D01*
X141221972Y-94699323D01*
X141199318Y-94724318D01*
X141174323Y-94746972D01*
X141147227Y-94767068D01*
X141118293Y-94784410D01*
X141087797Y-94798834D01*
X141056035Y-94810198D01*
X141023312Y-94818395D01*
X140989943Y-94823345D01*
X140956250Y-94825000D01*
X139843750Y-94825000D01*
X139810057Y-94823345D01*
X139776688Y-94818395D01*
X139743965Y-94810198D01*
X139712203Y-94798834D01*
X139681707Y-94784410D01*
X139652773Y-94767068D01*
X139625677Y-94746972D01*
X139600682Y-94724318D01*
X139578028Y-94699323D01*
X139557932Y-94672227D01*
X139540590Y-94643293D01*
X139526166Y-94612797D01*
X139514802Y-94581035D01*
X139506605Y-94548312D01*
X139501655Y-94514943D01*
X139500000Y-94481250D01*
X139500000Y-93793750D01*
X139501655Y-93760057D01*
X139506605Y-93726688D01*
X139514802Y-93693965D01*
X139526166Y-93662203D01*
X139540590Y-93631707D01*
X139557932Y-93602773D01*
X139578028Y-93575677D01*
X139600682Y-93550682D01*
X139625677Y-93528028D01*
X139652773Y-93507932D01*
X139681707Y-93490590D01*
X139712203Y-93476166D01*
X139743965Y-93464802D01*
X139776688Y-93456605D01*
X139810057Y-93451655D01*
X139843750Y-93450000D01*
X140956250Y-93450000D01*
X140989943Y-93451655D01*
G37*
G36*
X132239943Y-99301655D02*
G01*
X132273312Y-99306605D01*
X132306035Y-99314802D01*
X132337797Y-99326166D01*
X132368293Y-99340590D01*
X132397227Y-99357932D01*
X132424323Y-99378028D01*
X132449318Y-99400682D01*
X132471972Y-99425677D01*
X132492068Y-99452773D01*
X132509410Y-99481707D01*
X132523834Y-99512203D01*
X132535198Y-99543965D01*
X132543395Y-99576688D01*
X132548345Y-99610057D01*
X132550000Y-99643750D01*
X132550000Y-100756250D01*
X132548345Y-100789943D01*
X132543395Y-100823312D01*
X132535198Y-100856035D01*
X132523834Y-100887797D01*
X132509410Y-100918293D01*
X132492068Y-100947227D01*
X132471972Y-100974323D01*
X132449318Y-100999318D01*
X132424323Y-101021972D01*
X132397227Y-101042068D01*
X132368293Y-101059410D01*
X132337797Y-101073834D01*
X132306035Y-101085198D01*
X132273312Y-101093395D01*
X132239943Y-101098345D01*
X132206250Y-101100000D01*
X131518750Y-101100000D01*
X131485057Y-101098345D01*
X131451688Y-101093395D01*
X131418965Y-101085198D01*
X131387203Y-101073834D01*
X131356707Y-101059410D01*
X131327773Y-101042068D01*
X131300677Y-101021972D01*
X131275682Y-100999318D01*
X131253028Y-100974323D01*
X131232932Y-100947227D01*
X131215590Y-100918293D01*
X131201166Y-100887797D01*
X131189802Y-100856035D01*
X131181605Y-100823312D01*
X131176655Y-100789943D01*
X131175000Y-100756250D01*
X131175000Y-99643750D01*
X131176655Y-99610057D01*
X131181605Y-99576688D01*
X131189802Y-99543965D01*
X131201166Y-99512203D01*
X131215590Y-99481707D01*
X131232932Y-99452773D01*
X131253028Y-99425677D01*
X131275682Y-99400682D01*
X131300677Y-99378028D01*
X131327773Y-99357932D01*
X131356707Y-99340590D01*
X131387203Y-99326166D01*
X131418965Y-99314802D01*
X131451688Y-99306605D01*
X131485057Y-99301655D01*
X131518750Y-99300000D01*
X132206250Y-99300000D01*
X132239943Y-99301655D01*
G37*
G36*
X134114943Y-99301655D02*
G01*
X134148312Y-99306605D01*
X134181035Y-99314802D01*
X134212797Y-99326166D01*
X134243293Y-99340590D01*
X134272227Y-99357932D01*
X134299323Y-99378028D01*
X134324318Y-99400682D01*
X134346972Y-99425677D01*
X134367068Y-99452773D01*
X134384410Y-99481707D01*
X134398834Y-99512203D01*
X134410198Y-99543965D01*
X134418395Y-99576688D01*
X134423345Y-99610057D01*
X134425000Y-99643750D01*
X134425000Y-100756250D01*
X134423345Y-100789943D01*
X134418395Y-100823312D01*
X134410198Y-100856035D01*
X134398834Y-100887797D01*
X134384410Y-100918293D01*
X134367068Y-100947227D01*
X134346972Y-100974323D01*
X134324318Y-100999318D01*
X134299323Y-101021972D01*
X134272227Y-101042068D01*
X134243293Y-101059410D01*
X134212797Y-101073834D01*
X134181035Y-101085198D01*
X134148312Y-101093395D01*
X134114943Y-101098345D01*
X134081250Y-101100000D01*
X133393750Y-101100000D01*
X133360057Y-101098345D01*
X133326688Y-101093395D01*
X133293965Y-101085198D01*
X133262203Y-101073834D01*
X133231707Y-101059410D01*
X133202773Y-101042068D01*
X133175677Y-101021972D01*
X133150682Y-100999318D01*
X133128028Y-100974323D01*
X133107932Y-100947227D01*
X133090590Y-100918293D01*
X133076166Y-100887797D01*
X133064802Y-100856035D01*
X133056605Y-100823312D01*
X133051655Y-100789943D01*
X133050000Y-100756250D01*
X133050000Y-99643750D01*
X133051655Y-99610057D01*
X133056605Y-99576688D01*
X133064802Y-99543965D01*
X133076166Y-99512203D01*
X133090590Y-99481707D01*
X133107932Y-99452773D01*
X133128028Y-99425677D01*
X133150682Y-99400682D01*
X133175677Y-99378028D01*
X133202773Y-99357932D01*
X133231707Y-99340590D01*
X133262203Y-99326166D01*
X133293965Y-99314802D01*
X133326688Y-99306605D01*
X133360057Y-99301655D01*
X133393750Y-99300000D01*
X134081250Y-99300000D01*
X134114943Y-99301655D01*
G37*
G36*
X160931943Y-97511655D02*
G01*
X160965312Y-97516605D01*
X160998035Y-97524802D01*
X161029797Y-97536166D01*
X161060293Y-97550590D01*
X161089227Y-97567932D01*
X161116323Y-97588028D01*
X161141318Y-97610682D01*
X161163972Y-97635677D01*
X161184068Y-97662773D01*
X161201410Y-97691707D01*
X161215834Y-97722203D01*
X161227198Y-97753965D01*
X161235395Y-97786688D01*
X161240345Y-97820057D01*
X161242000Y-97853750D01*
X161242000Y-98541250D01*
X161240345Y-98574943D01*
X161235395Y-98608312D01*
X161227198Y-98641035D01*
X161215834Y-98672797D01*
X161201410Y-98703293D01*
X161184068Y-98732227D01*
X161163972Y-98759323D01*
X161141318Y-98784318D01*
X161116323Y-98806972D01*
X161089227Y-98827068D01*
X161060293Y-98844410D01*
X161029797Y-98858834D01*
X160998035Y-98870198D01*
X160965312Y-98878395D01*
X160931943Y-98883345D01*
X160898250Y-98885000D01*
X159785750Y-98885000D01*
X159752057Y-98883345D01*
X159718688Y-98878395D01*
X159685965Y-98870198D01*
X159654203Y-98858834D01*
X159623707Y-98844410D01*
X159594773Y-98827068D01*
X159567677Y-98806972D01*
X159542682Y-98784318D01*
X159520028Y-98759323D01*
X159499932Y-98732227D01*
X159482590Y-98703293D01*
X159468166Y-98672797D01*
X159456802Y-98641035D01*
X159448605Y-98608312D01*
X159443655Y-98574943D01*
X159442000Y-98541250D01*
X159442000Y-97853750D01*
X159443655Y-97820057D01*
X159448605Y-97786688D01*
X159456802Y-97753965D01*
X159468166Y-97722203D01*
X159482590Y-97691707D01*
X159499932Y-97662773D01*
X159520028Y-97635677D01*
X159542682Y-97610682D01*
X159567677Y-97588028D01*
X159594773Y-97567932D01*
X159623707Y-97550590D01*
X159654203Y-97536166D01*
X159685965Y-97524802D01*
X159718688Y-97516605D01*
X159752057Y-97511655D01*
X159785750Y-97510000D01*
X160898250Y-97510000D01*
X160931943Y-97511655D01*
G37*
G36*
X160931943Y-95636655D02*
G01*
X160965312Y-95641605D01*
X160998035Y-95649802D01*
X161029797Y-95661166D01*
X161060293Y-95675590D01*
X161089227Y-95692932D01*
X161116323Y-95713028D01*
X161141318Y-95735682D01*
X161163972Y-95760677D01*
X161184068Y-95787773D01*
X161201410Y-95816707D01*
X161215834Y-95847203D01*
X161227198Y-95878965D01*
X161235395Y-95911688D01*
X161240345Y-95945057D01*
X161242000Y-95978750D01*
X161242000Y-96666250D01*
X161240345Y-96699943D01*
X161235395Y-96733312D01*
X161227198Y-96766035D01*
X161215834Y-96797797D01*
X161201410Y-96828293D01*
X161184068Y-96857227D01*
X161163972Y-96884323D01*
X161141318Y-96909318D01*
X161116323Y-96931972D01*
X161089227Y-96952068D01*
X161060293Y-96969410D01*
X161029797Y-96983834D01*
X160998035Y-96995198D01*
X160965312Y-97003395D01*
X160931943Y-97008345D01*
X160898250Y-97010000D01*
X159785750Y-97010000D01*
X159752057Y-97008345D01*
X159718688Y-97003395D01*
X159685965Y-96995198D01*
X159654203Y-96983834D01*
X159623707Y-96969410D01*
X159594773Y-96952068D01*
X159567677Y-96931972D01*
X159542682Y-96909318D01*
X159520028Y-96884323D01*
X159499932Y-96857227D01*
X159482590Y-96828293D01*
X159468166Y-96797797D01*
X159456802Y-96766035D01*
X159448605Y-96733312D01*
X159443655Y-96699943D01*
X159442000Y-96666250D01*
X159442000Y-95978750D01*
X159443655Y-95945057D01*
X159448605Y-95911688D01*
X159456802Y-95878965D01*
X159468166Y-95847203D01*
X159482590Y-95816707D01*
X159499932Y-95787773D01*
X159520028Y-95760677D01*
X159542682Y-95735682D01*
X159567677Y-95713028D01*
X159594773Y-95692932D01*
X159623707Y-95675590D01*
X159654203Y-95661166D01*
X159685965Y-95649802D01*
X159718688Y-95641605D01*
X159752057Y-95636655D01*
X159785750Y-95635000D01*
X160898250Y-95635000D01*
X160931943Y-95636655D01*
G37*
G36*
X157375943Y-97591655D02*
G01*
X157409312Y-97596605D01*
X157442035Y-97604802D01*
X157473797Y-97616166D01*
X157504293Y-97630590D01*
X157533227Y-97647932D01*
X157560323Y-97668028D01*
X157585318Y-97690682D01*
X157607972Y-97715677D01*
X157628068Y-97742773D01*
X157645410Y-97771707D01*
X157659834Y-97802203D01*
X157671198Y-97833965D01*
X157679395Y-97866688D01*
X157684345Y-97900057D01*
X157686000Y-97933750D01*
X157686000Y-98621250D01*
X157684345Y-98654943D01*
X157679395Y-98688312D01*
X157671198Y-98721035D01*
X157659834Y-98752797D01*
X157645410Y-98783293D01*
X157628068Y-98812227D01*
X157607972Y-98839323D01*
X157585318Y-98864318D01*
X157560323Y-98886972D01*
X157533227Y-98907068D01*
X157504293Y-98924410D01*
X157473797Y-98938834D01*
X157442035Y-98950198D01*
X157409312Y-98958395D01*
X157375943Y-98963345D01*
X157342250Y-98965000D01*
X156229750Y-98965000D01*
X156196057Y-98963345D01*
X156162688Y-98958395D01*
X156129965Y-98950198D01*
X156098203Y-98938834D01*
X156067707Y-98924410D01*
X156038773Y-98907068D01*
X156011677Y-98886972D01*
X155986682Y-98864318D01*
X155964028Y-98839323D01*
X155943932Y-98812227D01*
X155926590Y-98783293D01*
X155912166Y-98752797D01*
X155900802Y-98721035D01*
X155892605Y-98688312D01*
X155887655Y-98654943D01*
X155886000Y-98621250D01*
X155886000Y-97933750D01*
X155887655Y-97900057D01*
X155892605Y-97866688D01*
X155900802Y-97833965D01*
X155912166Y-97802203D01*
X155926590Y-97771707D01*
X155943932Y-97742773D01*
X155964028Y-97715677D01*
X155986682Y-97690682D01*
X156011677Y-97668028D01*
X156038773Y-97647932D01*
X156067707Y-97630590D01*
X156098203Y-97616166D01*
X156129965Y-97604802D01*
X156162688Y-97596605D01*
X156196057Y-97591655D01*
X156229750Y-97590000D01*
X157342250Y-97590000D01*
X157375943Y-97591655D01*
G37*
G36*
X157375943Y-95716655D02*
G01*
X157409312Y-95721605D01*
X157442035Y-95729802D01*
X157473797Y-95741166D01*
X157504293Y-95755590D01*
X157533227Y-95772932D01*
X157560323Y-95793028D01*
X157585318Y-95815682D01*
X157607972Y-95840677D01*
X157628068Y-95867773D01*
X157645410Y-95896707D01*
X157659834Y-95927203D01*
X157671198Y-95958965D01*
X157679395Y-95991688D01*
X157684345Y-96025057D01*
X157686000Y-96058750D01*
X157686000Y-96746250D01*
X157684345Y-96779943D01*
X157679395Y-96813312D01*
X157671198Y-96846035D01*
X157659834Y-96877797D01*
X157645410Y-96908293D01*
X157628068Y-96937227D01*
X157607972Y-96964323D01*
X157585318Y-96989318D01*
X157560323Y-97011972D01*
X157533227Y-97032068D01*
X157504293Y-97049410D01*
X157473797Y-97063834D01*
X157442035Y-97075198D01*
X157409312Y-97083395D01*
X157375943Y-97088345D01*
X157342250Y-97090000D01*
X156229750Y-97090000D01*
X156196057Y-97088345D01*
X156162688Y-97083395D01*
X156129965Y-97075198D01*
X156098203Y-97063834D01*
X156067707Y-97049410D01*
X156038773Y-97032068D01*
X156011677Y-97011972D01*
X155986682Y-96989318D01*
X155964028Y-96964323D01*
X155943932Y-96937227D01*
X155926590Y-96908293D01*
X155912166Y-96877797D01*
X155900802Y-96846035D01*
X155892605Y-96813312D01*
X155887655Y-96779943D01*
X155886000Y-96746250D01*
X155886000Y-96058750D01*
X155887655Y-96025057D01*
X155892605Y-95991688D01*
X155900802Y-95958965D01*
X155912166Y-95927203D01*
X155926590Y-95896707D01*
X155943932Y-95867773D01*
X155964028Y-95840677D01*
X155986682Y-95815682D01*
X156011677Y-95793028D01*
X156038773Y-95772932D01*
X156067707Y-95755590D01*
X156098203Y-95741166D01*
X156129965Y-95729802D01*
X156162688Y-95721605D01*
X156196057Y-95716655D01*
X156229750Y-95715000D01*
X157342250Y-95715000D01*
X157375943Y-95716655D01*
G37*
G36*
X153819943Y-97511655D02*
G01*
X153853312Y-97516605D01*
X153886035Y-97524802D01*
X153917797Y-97536166D01*
X153948293Y-97550590D01*
X153977227Y-97567932D01*
X154004323Y-97588028D01*
X154029318Y-97610682D01*
X154051972Y-97635677D01*
X154072068Y-97662773D01*
X154089410Y-97691707D01*
X154103834Y-97722203D01*
X154115198Y-97753965D01*
X154123395Y-97786688D01*
X154128345Y-97820057D01*
X154130000Y-97853750D01*
X154130000Y-98541250D01*
X154128345Y-98574943D01*
X154123395Y-98608312D01*
X154115198Y-98641035D01*
X154103834Y-98672797D01*
X154089410Y-98703293D01*
X154072068Y-98732227D01*
X154051972Y-98759323D01*
X154029318Y-98784318D01*
X154004323Y-98806972D01*
X153977227Y-98827068D01*
X153948293Y-98844410D01*
X153917797Y-98858834D01*
X153886035Y-98870198D01*
X153853312Y-98878395D01*
X153819943Y-98883345D01*
X153786250Y-98885000D01*
X152673750Y-98885000D01*
X152640057Y-98883345D01*
X152606688Y-98878395D01*
X152573965Y-98870198D01*
X152542203Y-98858834D01*
X152511707Y-98844410D01*
X152482773Y-98827068D01*
X152455677Y-98806972D01*
X152430682Y-98784318D01*
X152408028Y-98759323D01*
X152387932Y-98732227D01*
X152370590Y-98703293D01*
X152356166Y-98672797D01*
X152344802Y-98641035D01*
X152336605Y-98608312D01*
X152331655Y-98574943D01*
X152330000Y-98541250D01*
X152330000Y-97853750D01*
X152331655Y-97820057D01*
X152336605Y-97786688D01*
X152344802Y-97753965D01*
X152356166Y-97722203D01*
X152370590Y-97691707D01*
X152387932Y-97662773D01*
X152408028Y-97635677D01*
X152430682Y-97610682D01*
X152455677Y-97588028D01*
X152482773Y-97567932D01*
X152511707Y-97550590D01*
X152542203Y-97536166D01*
X152573965Y-97524802D01*
X152606688Y-97516605D01*
X152640057Y-97511655D01*
X152673750Y-97510000D01*
X153786250Y-97510000D01*
X153819943Y-97511655D01*
G37*
G36*
X153819943Y-95636655D02*
G01*
X153853312Y-95641605D01*
X153886035Y-95649802D01*
X153917797Y-95661166D01*
X153948293Y-95675590D01*
X153977227Y-95692932D01*
X154004323Y-95713028D01*
X154029318Y-95735682D01*
X154051972Y-95760677D01*
X154072068Y-95787773D01*
X154089410Y-95816707D01*
X154103834Y-95847203D01*
X154115198Y-95878965D01*
X154123395Y-95911688D01*
X154128345Y-95945057D01*
X154130000Y-95978750D01*
X154130000Y-96666250D01*
X154128345Y-96699943D01*
X154123395Y-96733312D01*
X154115198Y-96766035D01*
X154103834Y-96797797D01*
X154089410Y-96828293D01*
X154072068Y-96857227D01*
X154051972Y-96884323D01*
X154029318Y-96909318D01*
X154004323Y-96931972D01*
X153977227Y-96952068D01*
X153948293Y-96969410D01*
X153917797Y-96983834D01*
X153886035Y-96995198D01*
X153853312Y-97003395D01*
X153819943Y-97008345D01*
X153786250Y-97010000D01*
X152673750Y-97010000D01*
X152640057Y-97008345D01*
X152606688Y-97003395D01*
X152573965Y-96995198D01*
X152542203Y-96983834D01*
X152511707Y-96969410D01*
X152482773Y-96952068D01*
X152455677Y-96931972D01*
X152430682Y-96909318D01*
X152408028Y-96884323D01*
X152387932Y-96857227D01*
X152370590Y-96828293D01*
X152356166Y-96797797D01*
X152344802Y-96766035D01*
X152336605Y-96733312D01*
X152331655Y-96699943D01*
X152330000Y-96666250D01*
X152330000Y-95978750D01*
X152331655Y-95945057D01*
X152336605Y-95911688D01*
X152344802Y-95878965D01*
X152356166Y-95847203D01*
X152370590Y-95816707D01*
X152387932Y-95787773D01*
X152408028Y-95760677D01*
X152430682Y-95735682D01*
X152455677Y-95713028D01*
X152482773Y-95692932D01*
X152511707Y-95675590D01*
X152542203Y-95661166D01*
X152573965Y-95649802D01*
X152606688Y-95641605D01*
X152640057Y-95636655D01*
X152673750Y-95635000D01*
X153786250Y-95635000D01*
X153819943Y-95636655D01*
G37*
G36*
X158229943Y-111156655D02*
G01*
X158263312Y-111161605D01*
X158296035Y-111169802D01*
X158327797Y-111181166D01*
X158358293Y-111195590D01*
X158387227Y-111212932D01*
X158414323Y-111233028D01*
X158439318Y-111255682D01*
X158461972Y-111280677D01*
X158482068Y-111307773D01*
X158499410Y-111336707D01*
X158513834Y-111367203D01*
X158525198Y-111398965D01*
X158533395Y-111431688D01*
X158538345Y-111465057D01*
X158540000Y-111498750D01*
X158540000Y-112186250D01*
X158538345Y-112219943D01*
X158533395Y-112253312D01*
X158525198Y-112286035D01*
X158513834Y-112317797D01*
X158499410Y-112348293D01*
X158482068Y-112377227D01*
X158461972Y-112404323D01*
X158439318Y-112429318D01*
X158414323Y-112451972D01*
X158387227Y-112472068D01*
X158358293Y-112489410D01*
X158327797Y-112503834D01*
X158296035Y-112515198D01*
X158263312Y-112523395D01*
X158229943Y-112528345D01*
X158196250Y-112530000D01*
X157083750Y-112530000D01*
X157050057Y-112528345D01*
X157016688Y-112523395D01*
X156983965Y-112515198D01*
X156952203Y-112503834D01*
X156921707Y-112489410D01*
X156892773Y-112472068D01*
X156865677Y-112451972D01*
X156840682Y-112429318D01*
X156818028Y-112404323D01*
X156797932Y-112377227D01*
X156780590Y-112348293D01*
X156766166Y-112317797D01*
X156754802Y-112286035D01*
X156746605Y-112253312D01*
X156741655Y-112219943D01*
X156740000Y-112186250D01*
X156740000Y-111498750D01*
X156741655Y-111465057D01*
X156746605Y-111431688D01*
X156754802Y-111398965D01*
X156766166Y-111367203D01*
X156780590Y-111336707D01*
X156797932Y-111307773D01*
X156818028Y-111280677D01*
X156840682Y-111255682D01*
X156865677Y-111233028D01*
X156892773Y-111212932D01*
X156921707Y-111195590D01*
X156952203Y-111181166D01*
X156983965Y-111169802D01*
X157016688Y-111161605D01*
X157050057Y-111156655D01*
X157083750Y-111155000D01*
X158196250Y-111155000D01*
X158229943Y-111156655D01*
G37*
G36*
X158229943Y-113031655D02*
G01*
X158263312Y-113036605D01*
X158296035Y-113044802D01*
X158327797Y-113056166D01*
X158358293Y-113070590D01*
X158387227Y-113087932D01*
X158414323Y-113108028D01*
X158439318Y-113130682D01*
X158461972Y-113155677D01*
X158482068Y-113182773D01*
X158499410Y-113211707D01*
X158513834Y-113242203D01*
X158525198Y-113273965D01*
X158533395Y-113306688D01*
X158538345Y-113340057D01*
X158540000Y-113373750D01*
X158540000Y-114061250D01*
X158538345Y-114094943D01*
X158533395Y-114128312D01*
X158525198Y-114161035D01*
X158513834Y-114192797D01*
X158499410Y-114223293D01*
X158482068Y-114252227D01*
X158461972Y-114279323D01*
X158439318Y-114304318D01*
X158414323Y-114326972D01*
X158387227Y-114347068D01*
X158358293Y-114364410D01*
X158327797Y-114378834D01*
X158296035Y-114390198D01*
X158263312Y-114398395D01*
X158229943Y-114403345D01*
X158196250Y-114405000D01*
X157083750Y-114405000D01*
X157050057Y-114403345D01*
X157016688Y-114398395D01*
X156983965Y-114390198D01*
X156952203Y-114378834D01*
X156921707Y-114364410D01*
X156892773Y-114347068D01*
X156865677Y-114326972D01*
X156840682Y-114304318D01*
X156818028Y-114279323D01*
X156797932Y-114252227D01*
X156780590Y-114223293D01*
X156766166Y-114192797D01*
X156754802Y-114161035D01*
X156746605Y-114128312D01*
X156741655Y-114094943D01*
X156740000Y-114061250D01*
X156740000Y-113373750D01*
X156741655Y-113340057D01*
X156746605Y-113306688D01*
X156754802Y-113273965D01*
X156766166Y-113242203D01*
X156780590Y-113211707D01*
X156797932Y-113182773D01*
X156818028Y-113155677D01*
X156840682Y-113130682D01*
X156865677Y-113108028D01*
X156892773Y-113087932D01*
X156921707Y-113070590D01*
X156952203Y-113056166D01*
X156983965Y-113044802D01*
X157016688Y-113036605D01*
X157050057Y-113031655D01*
X157083750Y-113030000D01*
X158196250Y-113030000D01*
X158229943Y-113031655D01*
G37*
G36*
X155689943Y-111156655D02*
G01*
X155723312Y-111161605D01*
X155756035Y-111169802D01*
X155787797Y-111181166D01*
X155818293Y-111195590D01*
X155847227Y-111212932D01*
X155874323Y-111233028D01*
X155899318Y-111255682D01*
X155921972Y-111280677D01*
X155942068Y-111307773D01*
X155959410Y-111336707D01*
X155973834Y-111367203D01*
X155985198Y-111398965D01*
X155993395Y-111431688D01*
X155998345Y-111465057D01*
X156000000Y-111498750D01*
X156000000Y-112186250D01*
X155998345Y-112219943D01*
X155993395Y-112253312D01*
X155985198Y-112286035D01*
X155973834Y-112317797D01*
X155959410Y-112348293D01*
X155942068Y-112377227D01*
X155921972Y-112404323D01*
X155899318Y-112429318D01*
X155874323Y-112451972D01*
X155847227Y-112472068D01*
X155818293Y-112489410D01*
X155787797Y-112503834D01*
X155756035Y-112515198D01*
X155723312Y-112523395D01*
X155689943Y-112528345D01*
X155656250Y-112530000D01*
X154543750Y-112530000D01*
X154510057Y-112528345D01*
X154476688Y-112523395D01*
X154443965Y-112515198D01*
X154412203Y-112503834D01*
X154381707Y-112489410D01*
X154352773Y-112472068D01*
X154325677Y-112451972D01*
X154300682Y-112429318D01*
X154278028Y-112404323D01*
X154257932Y-112377227D01*
X154240590Y-112348293D01*
X154226166Y-112317797D01*
X154214802Y-112286035D01*
X154206605Y-112253312D01*
X154201655Y-112219943D01*
X154200000Y-112186250D01*
X154200000Y-111498750D01*
X154201655Y-111465057D01*
X154206605Y-111431688D01*
X154214802Y-111398965D01*
X154226166Y-111367203D01*
X154240590Y-111336707D01*
X154257932Y-111307773D01*
X154278028Y-111280677D01*
X154300682Y-111255682D01*
X154325677Y-111233028D01*
X154352773Y-111212932D01*
X154381707Y-111195590D01*
X154412203Y-111181166D01*
X154443965Y-111169802D01*
X154476688Y-111161605D01*
X154510057Y-111156655D01*
X154543750Y-111155000D01*
X155656250Y-111155000D01*
X155689943Y-111156655D01*
G37*
G36*
X155689943Y-113031655D02*
G01*
X155723312Y-113036605D01*
X155756035Y-113044802D01*
X155787797Y-113056166D01*
X155818293Y-113070590D01*
X155847227Y-113087932D01*
X155874323Y-113108028D01*
X155899318Y-113130682D01*
X155921972Y-113155677D01*
X155942068Y-113182773D01*
X155959410Y-113211707D01*
X155973834Y-113242203D01*
X155985198Y-113273965D01*
X155993395Y-113306688D01*
X155998345Y-113340057D01*
X156000000Y-113373750D01*
X156000000Y-114061250D01*
X155998345Y-114094943D01*
X155993395Y-114128312D01*
X155985198Y-114161035D01*
X155973834Y-114192797D01*
X155959410Y-114223293D01*
X155942068Y-114252227D01*
X155921972Y-114279323D01*
X155899318Y-114304318D01*
X155874323Y-114326972D01*
X155847227Y-114347068D01*
X155818293Y-114364410D01*
X155787797Y-114378834D01*
X155756035Y-114390198D01*
X155723312Y-114398395D01*
X155689943Y-114403345D01*
X155656250Y-114405000D01*
X154543750Y-114405000D01*
X154510057Y-114403345D01*
X154476688Y-114398395D01*
X154443965Y-114390198D01*
X154412203Y-114378834D01*
X154381707Y-114364410D01*
X154352773Y-114347068D01*
X154325677Y-114326972D01*
X154300682Y-114304318D01*
X154278028Y-114279323D01*
X154257932Y-114252227D01*
X154240590Y-114223293D01*
X154226166Y-114192797D01*
X154214802Y-114161035D01*
X154206605Y-114128312D01*
X154201655Y-114094943D01*
X154200000Y-114061250D01*
X154200000Y-113373750D01*
X154201655Y-113340057D01*
X154206605Y-113306688D01*
X154214802Y-113273965D01*
X154226166Y-113242203D01*
X154240590Y-113211707D01*
X154257932Y-113182773D01*
X154278028Y-113155677D01*
X154300682Y-113130682D01*
X154325677Y-113108028D01*
X154352773Y-113087932D01*
X154381707Y-113070590D01*
X154412203Y-113056166D01*
X154443965Y-113044802D01*
X154476688Y-113036605D01*
X154510057Y-113031655D01*
X154543750Y-113030000D01*
X155656250Y-113030000D01*
X155689943Y-113031655D01*
G37*
G36*
X184289943Y-73301655D02*
G01*
X184323312Y-73306605D01*
X184356035Y-73314802D01*
X184387797Y-73326166D01*
X184418293Y-73340590D01*
X184447227Y-73357932D01*
X184474323Y-73378028D01*
X184499318Y-73400682D01*
X184521972Y-73425677D01*
X184542068Y-73452773D01*
X184559410Y-73481707D01*
X184573834Y-73512203D01*
X184585198Y-73543965D01*
X184593395Y-73576688D01*
X184598345Y-73610057D01*
X184600000Y-73643750D01*
X184600000Y-74331250D01*
X184598345Y-74364943D01*
X184593395Y-74398312D01*
X184585198Y-74431035D01*
X184573834Y-74462797D01*
X184559410Y-74493293D01*
X184542068Y-74522227D01*
X184521972Y-74549323D01*
X184499318Y-74574318D01*
X184474323Y-74596972D01*
X184447227Y-74617068D01*
X184418293Y-74634410D01*
X184387797Y-74648834D01*
X184356035Y-74660198D01*
X184323312Y-74668395D01*
X184289943Y-74673345D01*
X184256250Y-74675000D01*
X183143750Y-74675000D01*
X183110057Y-74673345D01*
X183076688Y-74668395D01*
X183043965Y-74660198D01*
X183012203Y-74648834D01*
X182981707Y-74634410D01*
X182952773Y-74617068D01*
X182925677Y-74596972D01*
X182900682Y-74574318D01*
X182878028Y-74549323D01*
X182857932Y-74522227D01*
X182840590Y-74493293D01*
X182826166Y-74462797D01*
X182814802Y-74431035D01*
X182806605Y-74398312D01*
X182801655Y-74364943D01*
X182800000Y-74331250D01*
X182800000Y-73643750D01*
X182801655Y-73610057D01*
X182806605Y-73576688D01*
X182814802Y-73543965D01*
X182826166Y-73512203D01*
X182840590Y-73481707D01*
X182857932Y-73452773D01*
X182878028Y-73425677D01*
X182900682Y-73400682D01*
X182925677Y-73378028D01*
X182952773Y-73357932D01*
X182981707Y-73340590D01*
X183012203Y-73326166D01*
X183043965Y-73314802D01*
X183076688Y-73306605D01*
X183110057Y-73301655D01*
X183143750Y-73300000D01*
X184256250Y-73300000D01*
X184289943Y-73301655D01*
G37*
G36*
X184289943Y-71426655D02*
G01*
X184323312Y-71431605D01*
X184356035Y-71439802D01*
X184387797Y-71451166D01*
X184418293Y-71465590D01*
X184447227Y-71482932D01*
X184474323Y-71503028D01*
X184499318Y-71525682D01*
X184521972Y-71550677D01*
X184542068Y-71577773D01*
X184559410Y-71606707D01*
X184573834Y-71637203D01*
X184585198Y-71668965D01*
X184593395Y-71701688D01*
X184598345Y-71735057D01*
X184600000Y-71768750D01*
X184600000Y-72456250D01*
X184598345Y-72489943D01*
X184593395Y-72523312D01*
X184585198Y-72556035D01*
X184573834Y-72587797D01*
X184559410Y-72618293D01*
X184542068Y-72647227D01*
X184521972Y-72674323D01*
X184499318Y-72699318D01*
X184474323Y-72721972D01*
X184447227Y-72742068D01*
X184418293Y-72759410D01*
X184387797Y-72773834D01*
X184356035Y-72785198D01*
X184323312Y-72793395D01*
X184289943Y-72798345D01*
X184256250Y-72800000D01*
X183143750Y-72800000D01*
X183110057Y-72798345D01*
X183076688Y-72793395D01*
X183043965Y-72785198D01*
X183012203Y-72773834D01*
X182981707Y-72759410D01*
X182952773Y-72742068D01*
X182925677Y-72721972D01*
X182900682Y-72699318D01*
X182878028Y-72674323D01*
X182857932Y-72647227D01*
X182840590Y-72618293D01*
X182826166Y-72587797D01*
X182814802Y-72556035D01*
X182806605Y-72523312D01*
X182801655Y-72489943D01*
X182800000Y-72456250D01*
X182800000Y-71768750D01*
X182801655Y-71735057D01*
X182806605Y-71701688D01*
X182814802Y-71668965D01*
X182826166Y-71637203D01*
X182840590Y-71606707D01*
X182857932Y-71577773D01*
X182878028Y-71550677D01*
X182900682Y-71525682D01*
X182925677Y-71503028D01*
X182952773Y-71482932D01*
X182981707Y-71465590D01*
X183012203Y-71451166D01*
X183043965Y-71439802D01*
X183076688Y-71431605D01*
X183110057Y-71426655D01*
X183143750Y-71425000D01*
X184256250Y-71425000D01*
X184289943Y-71426655D01*
G37*
G36*
X134064943Y-101901655D02*
G01*
X134098312Y-101906605D01*
X134131035Y-101914802D01*
X134162797Y-101926166D01*
X134193293Y-101940590D01*
X134222227Y-101957932D01*
X134249323Y-101978028D01*
X134274318Y-102000682D01*
X134296972Y-102025677D01*
X134317068Y-102052773D01*
X134334410Y-102081707D01*
X134348834Y-102112203D01*
X134360198Y-102143965D01*
X134368395Y-102176688D01*
X134373345Y-102210057D01*
X134375000Y-102243750D01*
X134375000Y-103356250D01*
X134373345Y-103389943D01*
X134368395Y-103423312D01*
X134360198Y-103456035D01*
X134348834Y-103487797D01*
X134334410Y-103518293D01*
X134317068Y-103547227D01*
X134296972Y-103574323D01*
X134274318Y-103599318D01*
X134249323Y-103621972D01*
X134222227Y-103642068D01*
X134193293Y-103659410D01*
X134162797Y-103673834D01*
X134131035Y-103685198D01*
X134098312Y-103693395D01*
X134064943Y-103698345D01*
X134031250Y-103700000D01*
X133343750Y-103700000D01*
X133310057Y-103698345D01*
X133276688Y-103693395D01*
X133243965Y-103685198D01*
X133212203Y-103673834D01*
X133181707Y-103659410D01*
X133152773Y-103642068D01*
X133125677Y-103621972D01*
X133100682Y-103599318D01*
X133078028Y-103574323D01*
X133057932Y-103547227D01*
X133040590Y-103518293D01*
X133026166Y-103487797D01*
X133014802Y-103456035D01*
X133006605Y-103423312D01*
X133001655Y-103389943D01*
X133000000Y-103356250D01*
X133000000Y-102243750D01*
X133001655Y-102210057D01*
X133006605Y-102176688D01*
X133014802Y-102143965D01*
X133026166Y-102112203D01*
X133040590Y-102081707D01*
X133057932Y-102052773D01*
X133078028Y-102025677D01*
X133100682Y-102000682D01*
X133125677Y-101978028D01*
X133152773Y-101957932D01*
X133181707Y-101940590D01*
X133212203Y-101926166D01*
X133243965Y-101914802D01*
X133276688Y-101906605D01*
X133310057Y-101901655D01*
X133343750Y-101900000D01*
X134031250Y-101900000D01*
X134064943Y-101901655D01*
G37*
G36*
X132189943Y-101901655D02*
G01*
X132223312Y-101906605D01*
X132256035Y-101914802D01*
X132287797Y-101926166D01*
X132318293Y-101940590D01*
X132347227Y-101957932D01*
X132374323Y-101978028D01*
X132399318Y-102000682D01*
X132421972Y-102025677D01*
X132442068Y-102052773D01*
X132459410Y-102081707D01*
X132473834Y-102112203D01*
X132485198Y-102143965D01*
X132493395Y-102176688D01*
X132498345Y-102210057D01*
X132500000Y-102243750D01*
X132500000Y-103356250D01*
X132498345Y-103389943D01*
X132493395Y-103423312D01*
X132485198Y-103456035D01*
X132473834Y-103487797D01*
X132459410Y-103518293D01*
X132442068Y-103547227D01*
X132421972Y-103574323D01*
X132399318Y-103599318D01*
X132374323Y-103621972D01*
X132347227Y-103642068D01*
X132318293Y-103659410D01*
X132287797Y-103673834D01*
X132256035Y-103685198D01*
X132223312Y-103693395D01*
X132189943Y-103698345D01*
X132156250Y-103700000D01*
X131468750Y-103700000D01*
X131435057Y-103698345D01*
X131401688Y-103693395D01*
X131368965Y-103685198D01*
X131337203Y-103673834D01*
X131306707Y-103659410D01*
X131277773Y-103642068D01*
X131250677Y-103621972D01*
X131225682Y-103599318D01*
X131203028Y-103574323D01*
X131182932Y-103547227D01*
X131165590Y-103518293D01*
X131151166Y-103487797D01*
X131139802Y-103456035D01*
X131131605Y-103423312D01*
X131126655Y-103389943D01*
X131125000Y-103356250D01*
X131125000Y-102243750D01*
X131126655Y-102210057D01*
X131131605Y-102176688D01*
X131139802Y-102143965D01*
X131151166Y-102112203D01*
X131165590Y-102081707D01*
X131182932Y-102052773D01*
X131203028Y-102025677D01*
X131225682Y-102000682D01*
X131250677Y-101978028D01*
X131277773Y-101957932D01*
X131306707Y-101940590D01*
X131337203Y-101926166D01*
X131368965Y-101914802D01*
X131401688Y-101906605D01*
X131435057Y-101901655D01*
X131468750Y-101900000D01*
X132156250Y-101900000D01*
X132189943Y-101901655D01*
G37*
G36*
X148239943Y-79101655D02*
G01*
X148273312Y-79106605D01*
X148306035Y-79114802D01*
X148337797Y-79126166D01*
X148368293Y-79140590D01*
X148397227Y-79157932D01*
X148424323Y-79178028D01*
X148449318Y-79200682D01*
X148471972Y-79225677D01*
X148492068Y-79252773D01*
X148509410Y-79281707D01*
X148523834Y-79312203D01*
X148535198Y-79343965D01*
X148543395Y-79376688D01*
X148548345Y-79410057D01*
X148550000Y-79443750D01*
X148550000Y-80556250D01*
X148548345Y-80589943D01*
X148543395Y-80623312D01*
X148535198Y-80656035D01*
X148523834Y-80687797D01*
X148509410Y-80718293D01*
X148492068Y-80747227D01*
X148471972Y-80774323D01*
X148449318Y-80799318D01*
X148424323Y-80821972D01*
X148397227Y-80842068D01*
X148368293Y-80859410D01*
X148337797Y-80873834D01*
X148306035Y-80885198D01*
X148273312Y-80893395D01*
X148239943Y-80898345D01*
X148206250Y-80900000D01*
X147518750Y-80900000D01*
X147485057Y-80898345D01*
X147451688Y-80893395D01*
X147418965Y-80885198D01*
X147387203Y-80873834D01*
X147356707Y-80859410D01*
X147327773Y-80842068D01*
X147300677Y-80821972D01*
X147275682Y-80799318D01*
X147253028Y-80774323D01*
X147232932Y-80747227D01*
X147215590Y-80718293D01*
X147201166Y-80687797D01*
X147189802Y-80656035D01*
X147181605Y-80623312D01*
X147176655Y-80589943D01*
X147175000Y-80556250D01*
X147175000Y-79443750D01*
X147176655Y-79410057D01*
X147181605Y-79376688D01*
X147189802Y-79343965D01*
X147201166Y-79312203D01*
X147215590Y-79281707D01*
X147232932Y-79252773D01*
X147253028Y-79225677D01*
X147275682Y-79200682D01*
X147300677Y-79178028D01*
X147327773Y-79157932D01*
X147356707Y-79140590D01*
X147387203Y-79126166D01*
X147418965Y-79114802D01*
X147451688Y-79106605D01*
X147485057Y-79101655D01*
X147518750Y-79100000D01*
X148206250Y-79100000D01*
X148239943Y-79101655D01*
G37*
G36*
X150114943Y-79101655D02*
G01*
X150148312Y-79106605D01*
X150181035Y-79114802D01*
X150212797Y-79126166D01*
X150243293Y-79140590D01*
X150272227Y-79157932D01*
X150299323Y-79178028D01*
X150324318Y-79200682D01*
X150346972Y-79225677D01*
X150367068Y-79252773D01*
X150384410Y-79281707D01*
X150398834Y-79312203D01*
X150410198Y-79343965D01*
X150418395Y-79376688D01*
X150423345Y-79410057D01*
X150425000Y-79443750D01*
X150425000Y-80556250D01*
X150423345Y-80589943D01*
X150418395Y-80623312D01*
X150410198Y-80656035D01*
X150398834Y-80687797D01*
X150384410Y-80718293D01*
X150367068Y-80747227D01*
X150346972Y-80774323D01*
X150324318Y-80799318D01*
X150299323Y-80821972D01*
X150272227Y-80842068D01*
X150243293Y-80859410D01*
X150212797Y-80873834D01*
X150181035Y-80885198D01*
X150148312Y-80893395D01*
X150114943Y-80898345D01*
X150081250Y-80900000D01*
X149393750Y-80900000D01*
X149360057Y-80898345D01*
X149326688Y-80893395D01*
X149293965Y-80885198D01*
X149262203Y-80873834D01*
X149231707Y-80859410D01*
X149202773Y-80842068D01*
X149175677Y-80821972D01*
X149150682Y-80799318D01*
X149128028Y-80774323D01*
X149107932Y-80747227D01*
X149090590Y-80718293D01*
X149076166Y-80687797D01*
X149064802Y-80656035D01*
X149056605Y-80623312D01*
X149051655Y-80589943D01*
X149050000Y-80556250D01*
X149050000Y-79443750D01*
X149051655Y-79410057D01*
X149056605Y-79376688D01*
X149064802Y-79343965D01*
X149076166Y-79312203D01*
X149090590Y-79281707D01*
X149107932Y-79252773D01*
X149128028Y-79225677D01*
X149150682Y-79200682D01*
X149175677Y-79178028D01*
X149202773Y-79157932D01*
X149231707Y-79140590D01*
X149262203Y-79126166D01*
X149293965Y-79114802D01*
X149326688Y-79106605D01*
X149360057Y-79101655D01*
X149393750Y-79100000D01*
X150081250Y-79100000D01*
X150114943Y-79101655D01*
G37*
G36*
X130227346Y-80926589D02*
G01*
X130259380Y-80931341D01*
X130290794Y-80939210D01*
X130321286Y-80950120D01*
X130350561Y-80963966D01*
X130378338Y-80980615D01*
X130404350Y-80999907D01*
X130428345Y-81021655D01*
X130450093Y-81045650D01*
X130469385Y-81071662D01*
X130486034Y-81099439D01*
X130499880Y-81128714D01*
X130510790Y-81159206D01*
X130518659Y-81190620D01*
X130523411Y-81222654D01*
X130525000Y-81255000D01*
X130525000Y-82745000D01*
X130523411Y-82777346D01*
X130518659Y-82809380D01*
X130510790Y-82840794D01*
X130499880Y-82871286D01*
X130486034Y-82900561D01*
X130469385Y-82928338D01*
X130450093Y-82954350D01*
X130428345Y-82978345D01*
X130404350Y-83000093D01*
X130378338Y-83019385D01*
X130350561Y-83036034D01*
X130321286Y-83049880D01*
X130290794Y-83060790D01*
X130259380Y-83068659D01*
X130227346Y-83073411D01*
X130195000Y-83075000D01*
X129205000Y-83075000D01*
X129172654Y-83073411D01*
X129140620Y-83068659D01*
X129109206Y-83060790D01*
X129078714Y-83049880D01*
X129049439Y-83036034D01*
X129021662Y-83019385D01*
X128995650Y-83000093D01*
X128971655Y-82978345D01*
X128949907Y-82954350D01*
X128930615Y-82928338D01*
X128913966Y-82900561D01*
X128900120Y-82871286D01*
X128889210Y-82840794D01*
X128881341Y-82809380D01*
X128876589Y-82777346D01*
X128875000Y-82745000D01*
X128875000Y-81255000D01*
X128876589Y-81222654D01*
X128881341Y-81190620D01*
X128889210Y-81159206D01*
X128900120Y-81128714D01*
X128913966Y-81099439D01*
X128930615Y-81071662D01*
X128949907Y-81045650D01*
X128971655Y-81021655D01*
X128995650Y-80999907D01*
X129021662Y-80980615D01*
X129049439Y-80963966D01*
X129078714Y-80950120D01*
X129109206Y-80939210D01*
X129140620Y-80931341D01*
X129172654Y-80926589D01*
X129205000Y-80925000D01*
X130195000Y-80925000D01*
X130227346Y-80926589D01*
G37*
G36*
X133027346Y-80926589D02*
G01*
X133059380Y-80931341D01*
X133090794Y-80939210D01*
X133121286Y-80950120D01*
X133150561Y-80963966D01*
X133178338Y-80980615D01*
X133204350Y-80999907D01*
X133228345Y-81021655D01*
X133250093Y-81045650D01*
X133269385Y-81071662D01*
X133286034Y-81099439D01*
X133299880Y-81128714D01*
X133310790Y-81159206D01*
X133318659Y-81190620D01*
X133323411Y-81222654D01*
X133325000Y-81255000D01*
X133325000Y-82745000D01*
X133323411Y-82777346D01*
X133318659Y-82809380D01*
X133310790Y-82840794D01*
X133299880Y-82871286D01*
X133286034Y-82900561D01*
X133269385Y-82928338D01*
X133250093Y-82954350D01*
X133228345Y-82978345D01*
X133204350Y-83000093D01*
X133178338Y-83019385D01*
X133150561Y-83036034D01*
X133121286Y-83049880D01*
X133090794Y-83060790D01*
X133059380Y-83068659D01*
X133027346Y-83073411D01*
X132995000Y-83075000D01*
X132005000Y-83075000D01*
X131972654Y-83073411D01*
X131940620Y-83068659D01*
X131909206Y-83060790D01*
X131878714Y-83049880D01*
X131849439Y-83036034D01*
X131821662Y-83019385D01*
X131795650Y-83000093D01*
X131771655Y-82978345D01*
X131749907Y-82954350D01*
X131730615Y-82928338D01*
X131713966Y-82900561D01*
X131700120Y-82871286D01*
X131689210Y-82840794D01*
X131681341Y-82809380D01*
X131676589Y-82777346D01*
X131675000Y-82745000D01*
X131675000Y-81255000D01*
X131676589Y-81222654D01*
X131681341Y-81190620D01*
X131689210Y-81159206D01*
X131700120Y-81128714D01*
X131713966Y-81099439D01*
X131730615Y-81071662D01*
X131749907Y-81045650D01*
X131771655Y-81021655D01*
X131795650Y-80999907D01*
X131821662Y-80980615D01*
X131849439Y-80963966D01*
X131878714Y-80950120D01*
X131909206Y-80939210D01*
X131940620Y-80931341D01*
X131972654Y-80926589D01*
X132005000Y-80925000D01*
X132995000Y-80925000D01*
X133027346Y-80926589D01*
G37*
G36*
X131002443Y-78501655D02*
G01*
X131035812Y-78506605D01*
X131068535Y-78514802D01*
X131100297Y-78526166D01*
X131130793Y-78540590D01*
X131159727Y-78557932D01*
X131186823Y-78578028D01*
X131211818Y-78600682D01*
X131234472Y-78625677D01*
X131254568Y-78652773D01*
X131271910Y-78681707D01*
X131286334Y-78712203D01*
X131297698Y-78743965D01*
X131305895Y-78776688D01*
X131310845Y-78810057D01*
X131312500Y-78843750D01*
X131312500Y-79956250D01*
X131310845Y-79989943D01*
X131305895Y-80023312D01*
X131297698Y-80056035D01*
X131286334Y-80087797D01*
X131271910Y-80118293D01*
X131254568Y-80147227D01*
X131234472Y-80174323D01*
X131211818Y-80199318D01*
X131186823Y-80221972D01*
X131159727Y-80242068D01*
X131130793Y-80259410D01*
X131100297Y-80273834D01*
X131068535Y-80285198D01*
X131035812Y-80293395D01*
X131002443Y-80298345D01*
X130968750Y-80300000D01*
X130281250Y-80300000D01*
X130247557Y-80298345D01*
X130214188Y-80293395D01*
X130181465Y-80285198D01*
X130149703Y-80273834D01*
X130119207Y-80259410D01*
X130090273Y-80242068D01*
X130063177Y-80221972D01*
X130038182Y-80199318D01*
X130015528Y-80174323D01*
X129995432Y-80147227D01*
X129978090Y-80118293D01*
X129963666Y-80087797D01*
X129952302Y-80056035D01*
X129944105Y-80023312D01*
X129939155Y-79989943D01*
X129937500Y-79956250D01*
X129937500Y-78843750D01*
X129939155Y-78810057D01*
X129944105Y-78776688D01*
X129952302Y-78743965D01*
X129963666Y-78712203D01*
X129978090Y-78681707D01*
X129995432Y-78652773D01*
X130015528Y-78625677D01*
X130038182Y-78600682D01*
X130063177Y-78578028D01*
X130090273Y-78557932D01*
X130119207Y-78540590D01*
X130149703Y-78526166D01*
X130181465Y-78514802D01*
X130214188Y-78506605D01*
X130247557Y-78501655D01*
X130281250Y-78500000D01*
X130968750Y-78500000D01*
X131002443Y-78501655D01*
G37*
G36*
X132877443Y-78501655D02*
G01*
X132910812Y-78506605D01*
X132943535Y-78514802D01*
X132975297Y-78526166D01*
X133005793Y-78540590D01*
X133034727Y-78557932D01*
X133061823Y-78578028D01*
X133086818Y-78600682D01*
X133109472Y-78625677D01*
X133129568Y-78652773D01*
X133146910Y-78681707D01*
X133161334Y-78712203D01*
X133172698Y-78743965D01*
X133180895Y-78776688D01*
X133185845Y-78810057D01*
X133187500Y-78843750D01*
X133187500Y-79956250D01*
X133185845Y-79989943D01*
X133180895Y-80023312D01*
X133172698Y-80056035D01*
X133161334Y-80087797D01*
X133146910Y-80118293D01*
X133129568Y-80147227D01*
X133109472Y-80174323D01*
X133086818Y-80199318D01*
X133061823Y-80221972D01*
X133034727Y-80242068D01*
X133005793Y-80259410D01*
X132975297Y-80273834D01*
X132943535Y-80285198D01*
X132910812Y-80293395D01*
X132877443Y-80298345D01*
X132843750Y-80300000D01*
X132156250Y-80300000D01*
X132122557Y-80298345D01*
X132089188Y-80293395D01*
X132056465Y-80285198D01*
X132024703Y-80273834D01*
X131994207Y-80259410D01*
X131965273Y-80242068D01*
X131938177Y-80221972D01*
X131913182Y-80199318D01*
X131890528Y-80174323D01*
X131870432Y-80147227D01*
X131853090Y-80118293D01*
X131838666Y-80087797D01*
X131827302Y-80056035D01*
X131819105Y-80023312D01*
X131814155Y-79989943D01*
X131812500Y-79956250D01*
X131812500Y-78843750D01*
X131814155Y-78810057D01*
X131819105Y-78776688D01*
X131827302Y-78743965D01*
X131838666Y-78712203D01*
X131853090Y-78681707D01*
X131870432Y-78652773D01*
X131890528Y-78625677D01*
X131913182Y-78600682D01*
X131938177Y-78578028D01*
X131965273Y-78557932D01*
X131994207Y-78540590D01*
X132024703Y-78526166D01*
X132056465Y-78514802D01*
X132089188Y-78506605D01*
X132122557Y-78501655D01*
X132156250Y-78500000D01*
X132843750Y-78500000D01*
X132877443Y-78501655D01*
G37*
G36*
X188829943Y-102991655D02*
G01*
X188863312Y-102996605D01*
X188896035Y-103004802D01*
X188927797Y-103016166D01*
X188958293Y-103030590D01*
X188987227Y-103047932D01*
X189014323Y-103068028D01*
X189039318Y-103090682D01*
X189061972Y-103115677D01*
X189082068Y-103142773D01*
X189099410Y-103171707D01*
X189113834Y-103202203D01*
X189125198Y-103233965D01*
X189133395Y-103266688D01*
X189138345Y-103300057D01*
X189140000Y-103333750D01*
X189140000Y-104446250D01*
X189138345Y-104479943D01*
X189133395Y-104513312D01*
X189125198Y-104546035D01*
X189113834Y-104577797D01*
X189099410Y-104608293D01*
X189082068Y-104637227D01*
X189061972Y-104664323D01*
X189039318Y-104689318D01*
X189014323Y-104711972D01*
X188987227Y-104732068D01*
X188958293Y-104749410D01*
X188927797Y-104763834D01*
X188896035Y-104775198D01*
X188863312Y-104783395D01*
X188829943Y-104788345D01*
X188796250Y-104790000D01*
X188108750Y-104790000D01*
X188075057Y-104788345D01*
X188041688Y-104783395D01*
X188008965Y-104775198D01*
X187977203Y-104763834D01*
X187946707Y-104749410D01*
X187917773Y-104732068D01*
X187890677Y-104711972D01*
X187865682Y-104689318D01*
X187843028Y-104664323D01*
X187822932Y-104637227D01*
X187805590Y-104608293D01*
X187791166Y-104577797D01*
X187779802Y-104546035D01*
X187771605Y-104513312D01*
X187766655Y-104479943D01*
X187765000Y-104446250D01*
X187765000Y-103333750D01*
X187766655Y-103300057D01*
X187771605Y-103266688D01*
X187779802Y-103233965D01*
X187791166Y-103202203D01*
X187805590Y-103171707D01*
X187822932Y-103142773D01*
X187843028Y-103115677D01*
X187865682Y-103090682D01*
X187890677Y-103068028D01*
X187917773Y-103047932D01*
X187946707Y-103030590D01*
X187977203Y-103016166D01*
X188008965Y-103004802D01*
X188041688Y-102996605D01*
X188075057Y-102991655D01*
X188108750Y-102990000D01*
X188796250Y-102990000D01*
X188829943Y-102991655D01*
G37*
G36*
X190704943Y-102991655D02*
G01*
X190738312Y-102996605D01*
X190771035Y-103004802D01*
X190802797Y-103016166D01*
X190833293Y-103030590D01*
X190862227Y-103047932D01*
X190889323Y-103068028D01*
X190914318Y-103090682D01*
X190936972Y-103115677D01*
X190957068Y-103142773D01*
X190974410Y-103171707D01*
X190988834Y-103202203D01*
X191000198Y-103233965D01*
X191008395Y-103266688D01*
X191013345Y-103300057D01*
X191015000Y-103333750D01*
X191015000Y-104446250D01*
X191013345Y-104479943D01*
X191008395Y-104513312D01*
X191000198Y-104546035D01*
X190988834Y-104577797D01*
X190974410Y-104608293D01*
X190957068Y-104637227D01*
X190936972Y-104664323D01*
X190914318Y-104689318D01*
X190889323Y-104711972D01*
X190862227Y-104732068D01*
X190833293Y-104749410D01*
X190802797Y-104763834D01*
X190771035Y-104775198D01*
X190738312Y-104783395D01*
X190704943Y-104788345D01*
X190671250Y-104790000D01*
X189983750Y-104790000D01*
X189950057Y-104788345D01*
X189916688Y-104783395D01*
X189883965Y-104775198D01*
X189852203Y-104763834D01*
X189821707Y-104749410D01*
X189792773Y-104732068D01*
X189765677Y-104711972D01*
X189740682Y-104689318D01*
X189718028Y-104664323D01*
X189697932Y-104637227D01*
X189680590Y-104608293D01*
X189666166Y-104577797D01*
X189654802Y-104546035D01*
X189646605Y-104513312D01*
X189641655Y-104479943D01*
X189640000Y-104446250D01*
X189640000Y-103333750D01*
X189641655Y-103300057D01*
X189646605Y-103266688D01*
X189654802Y-103233965D01*
X189666166Y-103202203D01*
X189680590Y-103171707D01*
X189697932Y-103142773D01*
X189718028Y-103115677D01*
X189740682Y-103090682D01*
X189765677Y-103068028D01*
X189792773Y-103047932D01*
X189821707Y-103030590D01*
X189852203Y-103016166D01*
X189883965Y-103004802D01*
X189916688Y-102996605D01*
X189950057Y-102991655D01*
X189983750Y-102990000D01*
X190671250Y-102990000D01*
X190704943Y-102991655D01*
G37*
G36*
X141714943Y-100151655D02*
G01*
X141748312Y-100156605D01*
X141781035Y-100164802D01*
X141812797Y-100176166D01*
X141843293Y-100190590D01*
X141872227Y-100207932D01*
X141899323Y-100228028D01*
X141924318Y-100250682D01*
X141946972Y-100275677D01*
X141967068Y-100302773D01*
X141984410Y-100331707D01*
X141998834Y-100362203D01*
X142010198Y-100393965D01*
X142018395Y-100426688D01*
X142023345Y-100460057D01*
X142025000Y-100493750D01*
X142025000Y-101181250D01*
X142023345Y-101214943D01*
X142018395Y-101248312D01*
X142010198Y-101281035D01*
X141998834Y-101312797D01*
X141984410Y-101343293D01*
X141967068Y-101372227D01*
X141946972Y-101399323D01*
X141924318Y-101424318D01*
X141899323Y-101446972D01*
X141872227Y-101467068D01*
X141843293Y-101484410D01*
X141812797Y-101498834D01*
X141781035Y-101510198D01*
X141748312Y-101518395D01*
X141714943Y-101523345D01*
X141681250Y-101525000D01*
X140568750Y-101525000D01*
X140535057Y-101523345D01*
X140501688Y-101518395D01*
X140468965Y-101510198D01*
X140437203Y-101498834D01*
X140406707Y-101484410D01*
X140377773Y-101467068D01*
X140350677Y-101446972D01*
X140325682Y-101424318D01*
X140303028Y-101399323D01*
X140282932Y-101372227D01*
X140265590Y-101343293D01*
X140251166Y-101312797D01*
X140239802Y-101281035D01*
X140231605Y-101248312D01*
X140226655Y-101214943D01*
X140225000Y-101181250D01*
X140225000Y-100493750D01*
X140226655Y-100460057D01*
X140231605Y-100426688D01*
X140239802Y-100393965D01*
X140251166Y-100362203D01*
X140265590Y-100331707D01*
X140282932Y-100302773D01*
X140303028Y-100275677D01*
X140325682Y-100250682D01*
X140350677Y-100228028D01*
X140377773Y-100207932D01*
X140406707Y-100190590D01*
X140437203Y-100176166D01*
X140468965Y-100164802D01*
X140501688Y-100156605D01*
X140535057Y-100151655D01*
X140568750Y-100150000D01*
X141681250Y-100150000D01*
X141714943Y-100151655D01*
G37*
G36*
X141714943Y-98276655D02*
G01*
X141748312Y-98281605D01*
X141781035Y-98289802D01*
X141812797Y-98301166D01*
X141843293Y-98315590D01*
X141872227Y-98332932D01*
X141899323Y-98353028D01*
X141924318Y-98375682D01*
X141946972Y-98400677D01*
X141967068Y-98427773D01*
X141984410Y-98456707D01*
X141998834Y-98487203D01*
X142010198Y-98518965D01*
X142018395Y-98551688D01*
X142023345Y-98585057D01*
X142025000Y-98618750D01*
X142025000Y-99306250D01*
X142023345Y-99339943D01*
X142018395Y-99373312D01*
X142010198Y-99406035D01*
X141998834Y-99437797D01*
X141984410Y-99468293D01*
X141967068Y-99497227D01*
X141946972Y-99524323D01*
X141924318Y-99549318D01*
X141899323Y-99571972D01*
X141872227Y-99592068D01*
X141843293Y-99609410D01*
X141812797Y-99623834D01*
X141781035Y-99635198D01*
X141748312Y-99643395D01*
X141714943Y-99648345D01*
X141681250Y-99650000D01*
X140568750Y-99650000D01*
X140535057Y-99648345D01*
X140501688Y-99643395D01*
X140468965Y-99635198D01*
X140437203Y-99623834D01*
X140406707Y-99609410D01*
X140377773Y-99592068D01*
X140350677Y-99571972D01*
X140325682Y-99549318D01*
X140303028Y-99524323D01*
X140282932Y-99497227D01*
X140265590Y-99468293D01*
X140251166Y-99437797D01*
X140239802Y-99406035D01*
X140231605Y-99373312D01*
X140226655Y-99339943D01*
X140225000Y-99306250D01*
X140225000Y-98618750D01*
X140226655Y-98585057D01*
X140231605Y-98551688D01*
X140239802Y-98518965D01*
X140251166Y-98487203D01*
X140265590Y-98456707D01*
X140282932Y-98427773D01*
X140303028Y-98400677D01*
X140325682Y-98375682D01*
X140350677Y-98353028D01*
X140377773Y-98332932D01*
X140406707Y-98315590D01*
X140437203Y-98301166D01*
X140468965Y-98289802D01*
X140501688Y-98281605D01*
X140535057Y-98276655D01*
X140568750Y-98275000D01*
X141681250Y-98275000D01*
X141714943Y-98276655D01*
G37*
G36*
X150764943Y-100126655D02*
G01*
X150798312Y-100131605D01*
X150831035Y-100139802D01*
X150862797Y-100151166D01*
X150893293Y-100165590D01*
X150922227Y-100182932D01*
X150949323Y-100203028D01*
X150974318Y-100225682D01*
X150996972Y-100250677D01*
X151017068Y-100277773D01*
X151034410Y-100306707D01*
X151048834Y-100337203D01*
X151060198Y-100368965D01*
X151068395Y-100401688D01*
X151073345Y-100435057D01*
X151075000Y-100468750D01*
X151075000Y-101156250D01*
X151073345Y-101189943D01*
X151068395Y-101223312D01*
X151060198Y-101256035D01*
X151048834Y-101287797D01*
X151034410Y-101318293D01*
X151017068Y-101347227D01*
X150996972Y-101374323D01*
X150974318Y-101399318D01*
X150949323Y-101421972D01*
X150922227Y-101442068D01*
X150893293Y-101459410D01*
X150862797Y-101473834D01*
X150831035Y-101485198D01*
X150798312Y-101493395D01*
X150764943Y-101498345D01*
X150731250Y-101500000D01*
X149618750Y-101500000D01*
X149585057Y-101498345D01*
X149551688Y-101493395D01*
X149518965Y-101485198D01*
X149487203Y-101473834D01*
X149456707Y-101459410D01*
X149427773Y-101442068D01*
X149400677Y-101421972D01*
X149375682Y-101399318D01*
X149353028Y-101374323D01*
X149332932Y-101347227D01*
X149315590Y-101318293D01*
X149301166Y-101287797D01*
X149289802Y-101256035D01*
X149281605Y-101223312D01*
X149276655Y-101189943D01*
X149275000Y-101156250D01*
X149275000Y-100468750D01*
X149276655Y-100435057D01*
X149281605Y-100401688D01*
X149289802Y-100368965D01*
X149301166Y-100337203D01*
X149315590Y-100306707D01*
X149332932Y-100277773D01*
X149353028Y-100250677D01*
X149375682Y-100225682D01*
X149400677Y-100203028D01*
X149427773Y-100182932D01*
X149456707Y-100165590D01*
X149487203Y-100151166D01*
X149518965Y-100139802D01*
X149551688Y-100131605D01*
X149585057Y-100126655D01*
X149618750Y-100125000D01*
X150731250Y-100125000D01*
X150764943Y-100126655D01*
G37*
G36*
X150764943Y-98251655D02*
G01*
X150798312Y-98256605D01*
X150831035Y-98264802D01*
X150862797Y-98276166D01*
X150893293Y-98290590D01*
X150922227Y-98307932D01*
X150949323Y-98328028D01*
X150974318Y-98350682D01*
X150996972Y-98375677D01*
X151017068Y-98402773D01*
X151034410Y-98431707D01*
X151048834Y-98462203D01*
X151060198Y-98493965D01*
X151068395Y-98526688D01*
X151073345Y-98560057D01*
X151075000Y-98593750D01*
X151075000Y-99281250D01*
X151073345Y-99314943D01*
X151068395Y-99348312D01*
X151060198Y-99381035D01*
X151048834Y-99412797D01*
X151034410Y-99443293D01*
X151017068Y-99472227D01*
X150996972Y-99499323D01*
X150974318Y-99524318D01*
X150949323Y-99546972D01*
X150922227Y-99567068D01*
X150893293Y-99584410D01*
X150862797Y-99598834D01*
X150831035Y-99610198D01*
X150798312Y-99618395D01*
X150764943Y-99623345D01*
X150731250Y-99625000D01*
X149618750Y-99625000D01*
X149585057Y-99623345D01*
X149551688Y-99618395D01*
X149518965Y-99610198D01*
X149487203Y-99598834D01*
X149456707Y-99584410D01*
X149427773Y-99567068D01*
X149400677Y-99546972D01*
X149375682Y-99524318D01*
X149353028Y-99499323D01*
X149332932Y-99472227D01*
X149315590Y-99443293D01*
X149301166Y-99412797D01*
X149289802Y-99381035D01*
X149281605Y-99348312D01*
X149276655Y-99314943D01*
X149275000Y-99281250D01*
X149275000Y-98593750D01*
X149276655Y-98560057D01*
X149281605Y-98526688D01*
X149289802Y-98493965D01*
X149301166Y-98462203D01*
X149315590Y-98431707D01*
X149332932Y-98402773D01*
X149353028Y-98375677D01*
X149375682Y-98350682D01*
X149400677Y-98328028D01*
X149427773Y-98307932D01*
X149456707Y-98290590D01*
X149487203Y-98276166D01*
X149518965Y-98264802D01*
X149551688Y-98256605D01*
X149585057Y-98251655D01*
X149618750Y-98250000D01*
X150731250Y-98250000D01*
X150764943Y-98251655D01*
G37*
G36*
X134527346Y-90226589D02*
G01*
X134559380Y-90231341D01*
X134590794Y-90239210D01*
X134621286Y-90250120D01*
X134650561Y-90263966D01*
X134678338Y-90280615D01*
X134704350Y-90299907D01*
X134728345Y-90321655D01*
X134750093Y-90345650D01*
X134769385Y-90371662D01*
X134786034Y-90399439D01*
X134799880Y-90428714D01*
X134810790Y-90459206D01*
X134818659Y-90490620D01*
X134823411Y-90522654D01*
X134825000Y-90555000D01*
X134825000Y-92045000D01*
X134823411Y-92077346D01*
X134818659Y-92109380D01*
X134810790Y-92140794D01*
X134799880Y-92171286D01*
X134786034Y-92200561D01*
X134769385Y-92228338D01*
X134750093Y-92254350D01*
X134728345Y-92278345D01*
X134704350Y-92300093D01*
X134678338Y-92319385D01*
X134650561Y-92336034D01*
X134621286Y-92349880D01*
X134590794Y-92360790D01*
X134559380Y-92368659D01*
X134527346Y-92373411D01*
X134495000Y-92375000D01*
X133505000Y-92375000D01*
X133472654Y-92373411D01*
X133440620Y-92368659D01*
X133409206Y-92360790D01*
X133378714Y-92349880D01*
X133349439Y-92336034D01*
X133321662Y-92319385D01*
X133295650Y-92300093D01*
X133271655Y-92278345D01*
X133249907Y-92254350D01*
X133230615Y-92228338D01*
X133213966Y-92200561D01*
X133200120Y-92171286D01*
X133189210Y-92140794D01*
X133181341Y-92109380D01*
X133176589Y-92077346D01*
X133175000Y-92045000D01*
X133175000Y-90555000D01*
X133176589Y-90522654D01*
X133181341Y-90490620D01*
X133189210Y-90459206D01*
X133200120Y-90428714D01*
X133213966Y-90399439D01*
X133230615Y-90371662D01*
X133249907Y-90345650D01*
X133271655Y-90321655D01*
X133295650Y-90299907D01*
X133321662Y-90280615D01*
X133349439Y-90263966D01*
X133378714Y-90250120D01*
X133409206Y-90239210D01*
X133440620Y-90231341D01*
X133472654Y-90226589D01*
X133505000Y-90225000D01*
X134495000Y-90225000D01*
X134527346Y-90226589D01*
G37*
G36*
X137327346Y-90226589D02*
G01*
X137359380Y-90231341D01*
X137390794Y-90239210D01*
X137421286Y-90250120D01*
X137450561Y-90263966D01*
X137478338Y-90280615D01*
X137504350Y-90299907D01*
X137528345Y-90321655D01*
X137550093Y-90345650D01*
X137569385Y-90371662D01*
X137586034Y-90399439D01*
X137599880Y-90428714D01*
X137610790Y-90459206D01*
X137618659Y-90490620D01*
X137623411Y-90522654D01*
X137625000Y-90555000D01*
X137625000Y-92045000D01*
X137623411Y-92077346D01*
X137618659Y-92109380D01*
X137610790Y-92140794D01*
X137599880Y-92171286D01*
X137586034Y-92200561D01*
X137569385Y-92228338D01*
X137550093Y-92254350D01*
X137528345Y-92278345D01*
X137504350Y-92300093D01*
X137478338Y-92319385D01*
X137450561Y-92336034D01*
X137421286Y-92349880D01*
X137390794Y-92360790D01*
X137359380Y-92368659D01*
X137327346Y-92373411D01*
X137295000Y-92375000D01*
X136305000Y-92375000D01*
X136272654Y-92373411D01*
X136240620Y-92368659D01*
X136209206Y-92360790D01*
X136178714Y-92349880D01*
X136149439Y-92336034D01*
X136121662Y-92319385D01*
X136095650Y-92300093D01*
X136071655Y-92278345D01*
X136049907Y-92254350D01*
X136030615Y-92228338D01*
X136013966Y-92200561D01*
X136000120Y-92171286D01*
X135989210Y-92140794D01*
X135981341Y-92109380D01*
X135976589Y-92077346D01*
X135975000Y-92045000D01*
X135975000Y-90555000D01*
X135976589Y-90522654D01*
X135981341Y-90490620D01*
X135989210Y-90459206D01*
X136000120Y-90428714D01*
X136013966Y-90399439D01*
X136030615Y-90371662D01*
X136049907Y-90345650D01*
X136071655Y-90321655D01*
X136095650Y-90299907D01*
X136121662Y-90280615D01*
X136149439Y-90263966D01*
X136178714Y-90250120D01*
X136209206Y-90239210D01*
X136240620Y-90231341D01*
X136272654Y-90226589D01*
X136305000Y-90225000D01*
X137295000Y-90225000D01*
X137327346Y-90226589D01*
G37*
G36*
X143999504Y-94171204D02*
G01*
X144023773Y-94174804D01*
X144047571Y-94180765D01*
X144070671Y-94189030D01*
X144092849Y-94199520D01*
X144113893Y-94212133D01*
X144133598Y-94226747D01*
X144151777Y-94243223D01*
X144168253Y-94261402D01*
X144182867Y-94281107D01*
X144195480Y-94302151D01*
X144205970Y-94324329D01*
X144214235Y-94347429D01*
X144220196Y-94371227D01*
X144223796Y-94395496D01*
X144225000Y-94420000D01*
X144225000Y-94920000D01*
X144223796Y-94944504D01*
X144220196Y-94968773D01*
X144214235Y-94992571D01*
X144205970Y-95015671D01*
X144195480Y-95037849D01*
X144182867Y-95058893D01*
X144168253Y-95078598D01*
X144151777Y-95096777D01*
X144133598Y-95113253D01*
X144113893Y-95127867D01*
X144092849Y-95140480D01*
X144070671Y-95150970D01*
X144047571Y-95159235D01*
X144023773Y-95165196D01*
X143999504Y-95168796D01*
X143975000Y-95170000D01*
X142125000Y-95170000D01*
X142100496Y-95168796D01*
X142076227Y-95165196D01*
X142052429Y-95159235D01*
X142029329Y-95150970D01*
X142007151Y-95140480D01*
X141986107Y-95127867D01*
X141966402Y-95113253D01*
X141948223Y-95096777D01*
X141931747Y-95078598D01*
X141917133Y-95058893D01*
X141904520Y-95037849D01*
X141894030Y-95015671D01*
X141885765Y-94992571D01*
X141879804Y-94968773D01*
X141876204Y-94944504D01*
X141875000Y-94920000D01*
X141875000Y-94420000D01*
X141876204Y-94395496D01*
X141879804Y-94371227D01*
X141885765Y-94347429D01*
X141894030Y-94324329D01*
X141904520Y-94302151D01*
X141917133Y-94281107D01*
X141931747Y-94261402D01*
X141948223Y-94243223D01*
X141966402Y-94226747D01*
X141986107Y-94212133D01*
X142007151Y-94199520D01*
X142029329Y-94189030D01*
X142052429Y-94180765D01*
X142076227Y-94174804D01*
X142100496Y-94171204D01*
X142125000Y-94170000D01*
X143975000Y-94170000D01*
X143999504Y-94171204D01*
G37*
G36*
X143999504Y-92901204D02*
G01*
X144023773Y-92904804D01*
X144047571Y-92910765D01*
X144070671Y-92919030D01*
X144092849Y-92929520D01*
X144113893Y-92942133D01*
X144133598Y-92956747D01*
X144151777Y-92973223D01*
X144168253Y-92991402D01*
X144182867Y-93011107D01*
X144195480Y-93032151D01*
X144205970Y-93054329D01*
X144214235Y-93077429D01*
X144220196Y-93101227D01*
X144223796Y-93125496D01*
X144225000Y-93150000D01*
X144225000Y-93650000D01*
X144223796Y-93674504D01*
X144220196Y-93698773D01*
X144214235Y-93722571D01*
X144205970Y-93745671D01*
X144195480Y-93767849D01*
X144182867Y-93788893D01*
X144168253Y-93808598D01*
X144151777Y-93826777D01*
X144133598Y-93843253D01*
X144113893Y-93857867D01*
X144092849Y-93870480D01*
X144070671Y-93880970D01*
X144047571Y-93889235D01*
X144023773Y-93895196D01*
X143999504Y-93898796D01*
X143975000Y-93900000D01*
X142125000Y-93900000D01*
X142100496Y-93898796D01*
X142076227Y-93895196D01*
X142052429Y-93889235D01*
X142029329Y-93880970D01*
X142007151Y-93870480D01*
X141986107Y-93857867D01*
X141966402Y-93843253D01*
X141948223Y-93826777D01*
X141931747Y-93808598D01*
X141917133Y-93788893D01*
X141904520Y-93767849D01*
X141894030Y-93745671D01*
X141885765Y-93722571D01*
X141879804Y-93698773D01*
X141876204Y-93674504D01*
X141875000Y-93650000D01*
X141875000Y-93150000D01*
X141876204Y-93125496D01*
X141879804Y-93101227D01*
X141885765Y-93077429D01*
X141894030Y-93054329D01*
X141904520Y-93032151D01*
X141917133Y-93011107D01*
X141931747Y-92991402D01*
X141948223Y-92973223D01*
X141966402Y-92956747D01*
X141986107Y-92942133D01*
X142007151Y-92929520D01*
X142029329Y-92919030D01*
X142052429Y-92910765D01*
X142076227Y-92904804D01*
X142100496Y-92901204D01*
X142125000Y-92900000D01*
X143975000Y-92900000D01*
X143999504Y-92901204D01*
G37*
G36*
X143999504Y-91631204D02*
G01*
X144023773Y-91634804D01*
X144047571Y-91640765D01*
X144070671Y-91649030D01*
X144092849Y-91659520D01*
X144113893Y-91672133D01*
X144133598Y-91686747D01*
X144151777Y-91703223D01*
X144168253Y-91721402D01*
X144182867Y-91741107D01*
X144195480Y-91762151D01*
X144205970Y-91784329D01*
X144214235Y-91807429D01*
X144220196Y-91831227D01*
X144223796Y-91855496D01*
X144225000Y-91880000D01*
X144225000Y-92380000D01*
X144223796Y-92404504D01*
X144220196Y-92428773D01*
X144214235Y-92452571D01*
X144205970Y-92475671D01*
X144195480Y-92497849D01*
X144182867Y-92518893D01*
X144168253Y-92538598D01*
X144151777Y-92556777D01*
X144133598Y-92573253D01*
X144113893Y-92587867D01*
X144092849Y-92600480D01*
X144070671Y-92610970D01*
X144047571Y-92619235D01*
X144023773Y-92625196D01*
X143999504Y-92628796D01*
X143975000Y-92630000D01*
X142125000Y-92630000D01*
X142100496Y-92628796D01*
X142076227Y-92625196D01*
X142052429Y-92619235D01*
X142029329Y-92610970D01*
X142007151Y-92600480D01*
X141986107Y-92587867D01*
X141966402Y-92573253D01*
X141948223Y-92556777D01*
X141931747Y-92538598D01*
X141917133Y-92518893D01*
X141904520Y-92497849D01*
X141894030Y-92475671D01*
X141885765Y-92452571D01*
X141879804Y-92428773D01*
X141876204Y-92404504D01*
X141875000Y-92380000D01*
X141875000Y-91880000D01*
X141876204Y-91855496D01*
X141879804Y-91831227D01*
X141885765Y-91807429D01*
X141894030Y-91784329D01*
X141904520Y-91762151D01*
X141917133Y-91741107D01*
X141931747Y-91721402D01*
X141948223Y-91703223D01*
X141966402Y-91686747D01*
X141986107Y-91672133D01*
X142007151Y-91659520D01*
X142029329Y-91649030D01*
X142052429Y-91640765D01*
X142076227Y-91634804D01*
X142100496Y-91631204D01*
X142125000Y-91630000D01*
X143975000Y-91630000D01*
X143999504Y-91631204D01*
G37*
G36*
X143999504Y-90361204D02*
G01*
X144023773Y-90364804D01*
X144047571Y-90370765D01*
X144070671Y-90379030D01*
X144092849Y-90389520D01*
X144113893Y-90402133D01*
X144133598Y-90416747D01*
X144151777Y-90433223D01*
X144168253Y-90451402D01*
X144182867Y-90471107D01*
X144195480Y-90492151D01*
X144205970Y-90514329D01*
X144214235Y-90537429D01*
X144220196Y-90561227D01*
X144223796Y-90585496D01*
X144225000Y-90610000D01*
X144225000Y-91110000D01*
X144223796Y-91134504D01*
X144220196Y-91158773D01*
X144214235Y-91182571D01*
X144205970Y-91205671D01*
X144195480Y-91227849D01*
X144182867Y-91248893D01*
X144168253Y-91268598D01*
X144151777Y-91286777D01*
X144133598Y-91303253D01*
X144113893Y-91317867D01*
X144092849Y-91330480D01*
X144070671Y-91340970D01*
X144047571Y-91349235D01*
X144023773Y-91355196D01*
X143999504Y-91358796D01*
X143975000Y-91360000D01*
X142125000Y-91360000D01*
X142100496Y-91358796D01*
X142076227Y-91355196D01*
X142052429Y-91349235D01*
X142029329Y-91340970D01*
X142007151Y-91330480D01*
X141986107Y-91317867D01*
X141966402Y-91303253D01*
X141948223Y-91286777D01*
X141931747Y-91268598D01*
X141917133Y-91248893D01*
X141904520Y-91227849D01*
X141894030Y-91205671D01*
X141885765Y-91182571D01*
X141879804Y-91158773D01*
X141876204Y-91134504D01*
X141875000Y-91110000D01*
X141875000Y-90610000D01*
X141876204Y-90585496D01*
X141879804Y-90561227D01*
X141885765Y-90537429D01*
X141894030Y-90514329D01*
X141904520Y-90492151D01*
X141917133Y-90471107D01*
X141931747Y-90451402D01*
X141948223Y-90433223D01*
X141966402Y-90416747D01*
X141986107Y-90402133D01*
X142007151Y-90389520D01*
X142029329Y-90379030D01*
X142052429Y-90370765D01*
X142076227Y-90364804D01*
X142100496Y-90361204D01*
X142125000Y-90360000D01*
X143975000Y-90360000D01*
X143999504Y-90361204D01*
G37*
G36*
X148949504Y-90361204D02*
G01*
X148973773Y-90364804D01*
X148997571Y-90370765D01*
X149020671Y-90379030D01*
X149042849Y-90389520D01*
X149063893Y-90402133D01*
X149083598Y-90416747D01*
X149101777Y-90433223D01*
X149118253Y-90451402D01*
X149132867Y-90471107D01*
X149145480Y-90492151D01*
X149155970Y-90514329D01*
X149164235Y-90537429D01*
X149170196Y-90561227D01*
X149173796Y-90585496D01*
X149175000Y-90610000D01*
X149175000Y-91110000D01*
X149173796Y-91134504D01*
X149170196Y-91158773D01*
X149164235Y-91182571D01*
X149155970Y-91205671D01*
X149145480Y-91227849D01*
X149132867Y-91248893D01*
X149118253Y-91268598D01*
X149101777Y-91286777D01*
X149083598Y-91303253D01*
X149063893Y-91317867D01*
X149042849Y-91330480D01*
X149020671Y-91340970D01*
X148997571Y-91349235D01*
X148973773Y-91355196D01*
X148949504Y-91358796D01*
X148925000Y-91360000D01*
X147075000Y-91360000D01*
X147050496Y-91358796D01*
X147026227Y-91355196D01*
X147002429Y-91349235D01*
X146979329Y-91340970D01*
X146957151Y-91330480D01*
X146936107Y-91317867D01*
X146916402Y-91303253D01*
X146898223Y-91286777D01*
X146881747Y-91268598D01*
X146867133Y-91248893D01*
X146854520Y-91227849D01*
X146844030Y-91205671D01*
X146835765Y-91182571D01*
X146829804Y-91158773D01*
X146826204Y-91134504D01*
X146825000Y-91110000D01*
X146825000Y-90610000D01*
X146826204Y-90585496D01*
X146829804Y-90561227D01*
X146835765Y-90537429D01*
X146844030Y-90514329D01*
X146854520Y-90492151D01*
X146867133Y-90471107D01*
X146881747Y-90451402D01*
X146898223Y-90433223D01*
X146916402Y-90416747D01*
X146936107Y-90402133D01*
X146957151Y-90389520D01*
X146979329Y-90379030D01*
X147002429Y-90370765D01*
X147026227Y-90364804D01*
X147050496Y-90361204D01*
X147075000Y-90360000D01*
X148925000Y-90360000D01*
X148949504Y-90361204D01*
G37*
G36*
X148949504Y-91631204D02*
G01*
X148973773Y-91634804D01*
X148997571Y-91640765D01*
X149020671Y-91649030D01*
X149042849Y-91659520D01*
X149063893Y-91672133D01*
X149083598Y-91686747D01*
X149101777Y-91703223D01*
X149118253Y-91721402D01*
X149132867Y-91741107D01*
X149145480Y-91762151D01*
X149155970Y-91784329D01*
X149164235Y-91807429D01*
X149170196Y-91831227D01*
X149173796Y-91855496D01*
X149175000Y-91880000D01*
X149175000Y-92380000D01*
X149173796Y-92404504D01*
X149170196Y-92428773D01*
X149164235Y-92452571D01*
X149155970Y-92475671D01*
X149145480Y-92497849D01*
X149132867Y-92518893D01*
X149118253Y-92538598D01*
X149101777Y-92556777D01*
X149083598Y-92573253D01*
X149063893Y-92587867D01*
X149042849Y-92600480D01*
X149020671Y-92610970D01*
X148997571Y-92619235D01*
X148973773Y-92625196D01*
X148949504Y-92628796D01*
X148925000Y-92630000D01*
X147075000Y-92630000D01*
X147050496Y-92628796D01*
X147026227Y-92625196D01*
X147002429Y-92619235D01*
X146979329Y-92610970D01*
X146957151Y-92600480D01*
X146936107Y-92587867D01*
X146916402Y-92573253D01*
X146898223Y-92556777D01*
X146881747Y-92538598D01*
X146867133Y-92518893D01*
X146854520Y-92497849D01*
X146844030Y-92475671D01*
X146835765Y-92452571D01*
X146829804Y-92428773D01*
X146826204Y-92404504D01*
X146825000Y-92380000D01*
X146825000Y-91880000D01*
X146826204Y-91855496D01*
X146829804Y-91831227D01*
X146835765Y-91807429D01*
X146844030Y-91784329D01*
X146854520Y-91762151D01*
X146867133Y-91741107D01*
X146881747Y-91721402D01*
X146898223Y-91703223D01*
X146916402Y-91686747D01*
X146936107Y-91672133D01*
X146957151Y-91659520D01*
X146979329Y-91649030D01*
X147002429Y-91640765D01*
X147026227Y-91634804D01*
X147050496Y-91631204D01*
X147075000Y-91630000D01*
X148925000Y-91630000D01*
X148949504Y-91631204D01*
G37*
G36*
X148949504Y-92901204D02*
G01*
X148973773Y-92904804D01*
X148997571Y-92910765D01*
X149020671Y-92919030D01*
X149042849Y-92929520D01*
X149063893Y-92942133D01*
X149083598Y-92956747D01*
X149101777Y-92973223D01*
X149118253Y-92991402D01*
X149132867Y-93011107D01*
X149145480Y-93032151D01*
X149155970Y-93054329D01*
X149164235Y-93077429D01*
X149170196Y-93101227D01*
X149173796Y-93125496D01*
X149175000Y-93150000D01*
X149175000Y-93650000D01*
X149173796Y-93674504D01*
X149170196Y-93698773D01*
X149164235Y-93722571D01*
X149155970Y-93745671D01*
X149145480Y-93767849D01*
X149132867Y-93788893D01*
X149118253Y-93808598D01*
X149101777Y-93826777D01*
X149083598Y-93843253D01*
X149063893Y-93857867D01*
X149042849Y-93870480D01*
X149020671Y-93880970D01*
X148997571Y-93889235D01*
X148973773Y-93895196D01*
X148949504Y-93898796D01*
X148925000Y-93900000D01*
X147075000Y-93900000D01*
X147050496Y-93898796D01*
X147026227Y-93895196D01*
X147002429Y-93889235D01*
X146979329Y-93880970D01*
X146957151Y-93870480D01*
X146936107Y-93857867D01*
X146916402Y-93843253D01*
X146898223Y-93826777D01*
X146881747Y-93808598D01*
X146867133Y-93788893D01*
X146854520Y-93767849D01*
X146844030Y-93745671D01*
X146835765Y-93722571D01*
X146829804Y-93698773D01*
X146826204Y-93674504D01*
X146825000Y-93650000D01*
X146825000Y-93150000D01*
X146826204Y-93125496D01*
X146829804Y-93101227D01*
X146835765Y-93077429D01*
X146844030Y-93054329D01*
X146854520Y-93032151D01*
X146867133Y-93011107D01*
X146881747Y-92991402D01*
X146898223Y-92973223D01*
X146916402Y-92956747D01*
X146936107Y-92942133D01*
X146957151Y-92929520D01*
X146979329Y-92919030D01*
X147002429Y-92910765D01*
X147026227Y-92904804D01*
X147050496Y-92901204D01*
X147075000Y-92900000D01*
X148925000Y-92900000D01*
X148949504Y-92901204D01*
G37*
G36*
X148949504Y-94171204D02*
G01*
X148973773Y-94174804D01*
X148997571Y-94180765D01*
X149020671Y-94189030D01*
X149042849Y-94199520D01*
X149063893Y-94212133D01*
X149083598Y-94226747D01*
X149101777Y-94243223D01*
X149118253Y-94261402D01*
X149132867Y-94281107D01*
X149145480Y-94302151D01*
X149155970Y-94324329D01*
X149164235Y-94347429D01*
X149170196Y-94371227D01*
X149173796Y-94395496D01*
X149175000Y-94420000D01*
X149175000Y-94920000D01*
X149173796Y-94944504D01*
X149170196Y-94968773D01*
X149164235Y-94992571D01*
X149155970Y-95015671D01*
X149145480Y-95037849D01*
X149132867Y-95058893D01*
X149118253Y-95078598D01*
X149101777Y-95096777D01*
X149083598Y-95113253D01*
X149063893Y-95127867D01*
X149042849Y-95140480D01*
X149020671Y-95150970D01*
X148997571Y-95159235D01*
X148973773Y-95165196D01*
X148949504Y-95168796D01*
X148925000Y-95170000D01*
X147075000Y-95170000D01*
X147050496Y-95168796D01*
X147026227Y-95165196D01*
X147002429Y-95159235D01*
X146979329Y-95150970D01*
X146957151Y-95140480D01*
X146936107Y-95127867D01*
X146916402Y-95113253D01*
X146898223Y-95096777D01*
X146881747Y-95078598D01*
X146867133Y-95058893D01*
X146854520Y-95037849D01*
X146844030Y-95015671D01*
X146835765Y-94992571D01*
X146829804Y-94968773D01*
X146826204Y-94944504D01*
X146825000Y-94920000D01*
X146825000Y-94420000D01*
X146826204Y-94395496D01*
X146829804Y-94371227D01*
X146835765Y-94347429D01*
X146844030Y-94324329D01*
X146854520Y-94302151D01*
X146867133Y-94281107D01*
X146881747Y-94261402D01*
X146898223Y-94243223D01*
X146916402Y-94226747D01*
X146936107Y-94212133D01*
X146957151Y-94199520D01*
X146979329Y-94189030D01*
X147002429Y-94180765D01*
X147026227Y-94174804D01*
X147050496Y-94171204D01*
X147075000Y-94170000D01*
X148925000Y-94170000D01*
X148949504Y-94171204D01*
G37*
D33*
X148400000Y-87850000D03*
X148400000Y-85350000D03*
D20*
G36*
X137245926Y-114192120D02*
G01*
X137917678Y-114863872D01*
X136503464Y-116278086D01*
X135831712Y-115606334D01*
X137245926Y-114192120D01*
G37*
G36*
X136680241Y-113626434D02*
G01*
X137351993Y-114298186D01*
X135937779Y-115712400D01*
X135266027Y-115040648D01*
X136680241Y-113626434D01*
G37*
G36*
X136114555Y-113060749D02*
G01*
X136786307Y-113732501D01*
X135372093Y-115146715D01*
X134700341Y-114474963D01*
X136114555Y-113060749D01*
G37*
G36*
X135548870Y-112495064D02*
G01*
X136220622Y-113166816D01*
X134806408Y-114581030D01*
X134134656Y-113909278D01*
X135548870Y-112495064D01*
G37*
G36*
X134983184Y-111929378D02*
G01*
X135654936Y-112601130D01*
X134240722Y-114015344D01*
X133568970Y-113343592D01*
X134983184Y-111929378D01*
G37*
G36*
X134417499Y-111363693D02*
G01*
X135089251Y-112035445D01*
X133675037Y-113449659D01*
X133003285Y-112777907D01*
X134417499Y-111363693D01*
G37*
G36*
X133851814Y-110798007D02*
G01*
X134523566Y-111469759D01*
X133109352Y-112883973D01*
X132437600Y-112212221D01*
X133851814Y-110798007D01*
G37*
G36*
X133286128Y-110232322D02*
G01*
X133957880Y-110904074D01*
X132543666Y-112318288D01*
X131871914Y-111646536D01*
X133286128Y-110232322D01*
G37*
G36*
X133957880Y-109595926D02*
G01*
X133286128Y-110267678D01*
X131871914Y-108853464D01*
X132543666Y-108181712D01*
X133957880Y-109595926D01*
G37*
G36*
X134523566Y-109030241D02*
G01*
X133851814Y-109701993D01*
X132437600Y-108287779D01*
X133109352Y-107616027D01*
X134523566Y-109030241D01*
G37*
G36*
X135089251Y-108464555D02*
G01*
X134417499Y-109136307D01*
X133003285Y-107722093D01*
X133675037Y-107050341D01*
X135089251Y-108464555D01*
G37*
G36*
X135654936Y-107898870D02*
G01*
X134983184Y-108570622D01*
X133568970Y-107156408D01*
X134240722Y-106484656D01*
X135654936Y-107898870D01*
G37*
G36*
X136220622Y-107333184D02*
G01*
X135548870Y-108004936D01*
X134134656Y-106590722D01*
X134806408Y-105918970D01*
X136220622Y-107333184D01*
G37*
G36*
X136786307Y-106767499D02*
G01*
X136114555Y-107439251D01*
X134700341Y-106025037D01*
X135372093Y-105353285D01*
X136786307Y-106767499D01*
G37*
G36*
X137351993Y-106201814D02*
G01*
X136680241Y-106873566D01*
X135266027Y-105459352D01*
X135937779Y-104787600D01*
X137351993Y-106201814D01*
G37*
G36*
X137917678Y-105636128D02*
G01*
X137245926Y-106307880D01*
X135831712Y-104893666D01*
X136503464Y-104221914D01*
X137917678Y-105636128D01*
G37*
G36*
X139296536Y-104221914D02*
G01*
X139968288Y-104893666D01*
X138554074Y-106307880D01*
X137882322Y-105636128D01*
X139296536Y-104221914D01*
G37*
G36*
X139862221Y-104787600D02*
G01*
X140533973Y-105459352D01*
X139119759Y-106873566D01*
X138448007Y-106201814D01*
X139862221Y-104787600D01*
G37*
G36*
X140427907Y-105353285D02*
G01*
X141099659Y-106025037D01*
X139685445Y-107439251D01*
X139013693Y-106767499D01*
X140427907Y-105353285D01*
G37*
G36*
X140993592Y-105918970D02*
G01*
X141665344Y-106590722D01*
X140251130Y-108004936D01*
X139579378Y-107333184D01*
X140993592Y-105918970D01*
G37*
G36*
X141559278Y-106484656D02*
G01*
X142231030Y-107156408D01*
X140816816Y-108570622D01*
X140145064Y-107898870D01*
X141559278Y-106484656D01*
G37*
G36*
X142124963Y-107050341D02*
G01*
X142796715Y-107722093D01*
X141382501Y-109136307D01*
X140710749Y-108464555D01*
X142124963Y-107050341D01*
G37*
G36*
X142690648Y-107616027D02*
G01*
X143362400Y-108287779D01*
X141948186Y-109701993D01*
X141276434Y-109030241D01*
X142690648Y-107616027D01*
G37*
G36*
X143256334Y-108181712D02*
G01*
X143928086Y-108853464D01*
X142513872Y-110267678D01*
X141842120Y-109595926D01*
X143256334Y-108181712D01*
G37*
G36*
X143928086Y-111646536D02*
G01*
X143256334Y-112318288D01*
X141842120Y-110904074D01*
X142513872Y-110232322D01*
X143928086Y-111646536D01*
G37*
G36*
X143362400Y-112212221D02*
G01*
X142690648Y-112883973D01*
X141276434Y-111469759D01*
X141948186Y-110798007D01*
X143362400Y-112212221D01*
G37*
G36*
X142796715Y-112777907D02*
G01*
X142124963Y-113449659D01*
X140710749Y-112035445D01*
X141382501Y-111363693D01*
X142796715Y-112777907D01*
G37*
G36*
X142231030Y-113343592D02*
G01*
X141559278Y-114015344D01*
X140145064Y-112601130D01*
X140816816Y-111929378D01*
X142231030Y-113343592D01*
G37*
G36*
X141665344Y-113909278D02*
G01*
X140993592Y-114581030D01*
X139579378Y-113166816D01*
X140251130Y-112495064D01*
X141665344Y-113909278D01*
G37*
G36*
X141099659Y-114474963D02*
G01*
X140427907Y-115146715D01*
X139013693Y-113732501D01*
X139685445Y-113060749D01*
X141099659Y-114474963D01*
G37*
G36*
X140533973Y-115040648D02*
G01*
X139862221Y-115712400D01*
X138448007Y-114298186D01*
X139119759Y-113626434D01*
X140533973Y-115040648D01*
G37*
G36*
X139968288Y-115606334D02*
G01*
X139296536Y-116278086D01*
X137882322Y-114863872D01*
X138554074Y-114192120D01*
X139968288Y-115606334D01*
G37*
G36*
X146452443Y-87501655D02*
G01*
X146485812Y-87506605D01*
X146518535Y-87514802D01*
X146550297Y-87526166D01*
X146580793Y-87540590D01*
X146609727Y-87557932D01*
X146636823Y-87578028D01*
X146661818Y-87600682D01*
X146684472Y-87625677D01*
X146704568Y-87652773D01*
X146721910Y-87681707D01*
X146736334Y-87712203D01*
X146747698Y-87743965D01*
X146755895Y-87776688D01*
X146760845Y-87810057D01*
X146762500Y-87843750D01*
X146762500Y-88956250D01*
X146760845Y-88989943D01*
X146755895Y-89023312D01*
X146747698Y-89056035D01*
X146736334Y-89087797D01*
X146721910Y-89118293D01*
X146704568Y-89147227D01*
X146684472Y-89174323D01*
X146661818Y-89199318D01*
X146636823Y-89221972D01*
X146609727Y-89242068D01*
X146580793Y-89259410D01*
X146550297Y-89273834D01*
X146518535Y-89285198D01*
X146485812Y-89293395D01*
X146452443Y-89298345D01*
X146418750Y-89300000D01*
X145731250Y-89300000D01*
X145697557Y-89298345D01*
X145664188Y-89293395D01*
X145631465Y-89285198D01*
X145599703Y-89273834D01*
X145569207Y-89259410D01*
X145540273Y-89242068D01*
X145513177Y-89221972D01*
X145488182Y-89199318D01*
X145465528Y-89174323D01*
X145445432Y-89147227D01*
X145428090Y-89118293D01*
X145413666Y-89087797D01*
X145402302Y-89056035D01*
X145394105Y-89023312D01*
X145389155Y-88989943D01*
X145387500Y-88956250D01*
X145387500Y-87843750D01*
X145389155Y-87810057D01*
X145394105Y-87776688D01*
X145402302Y-87743965D01*
X145413666Y-87712203D01*
X145428090Y-87681707D01*
X145445432Y-87652773D01*
X145465528Y-87625677D01*
X145488182Y-87600682D01*
X145513177Y-87578028D01*
X145540273Y-87557932D01*
X145569207Y-87540590D01*
X145599703Y-87526166D01*
X145631465Y-87514802D01*
X145664188Y-87506605D01*
X145697557Y-87501655D01*
X145731250Y-87500000D01*
X146418750Y-87500000D01*
X146452443Y-87501655D01*
G37*
G36*
X144577443Y-87501655D02*
G01*
X144610812Y-87506605D01*
X144643535Y-87514802D01*
X144675297Y-87526166D01*
X144705793Y-87540590D01*
X144734727Y-87557932D01*
X144761823Y-87578028D01*
X144786818Y-87600682D01*
X144809472Y-87625677D01*
X144829568Y-87652773D01*
X144846910Y-87681707D01*
X144861334Y-87712203D01*
X144872698Y-87743965D01*
X144880895Y-87776688D01*
X144885845Y-87810057D01*
X144887500Y-87843750D01*
X144887500Y-88956250D01*
X144885845Y-88989943D01*
X144880895Y-89023312D01*
X144872698Y-89056035D01*
X144861334Y-89087797D01*
X144846910Y-89118293D01*
X144829568Y-89147227D01*
X144809472Y-89174323D01*
X144786818Y-89199318D01*
X144761823Y-89221972D01*
X144734727Y-89242068D01*
X144705793Y-89259410D01*
X144675297Y-89273834D01*
X144643535Y-89285198D01*
X144610812Y-89293395D01*
X144577443Y-89298345D01*
X144543750Y-89300000D01*
X143856250Y-89300000D01*
X143822557Y-89298345D01*
X143789188Y-89293395D01*
X143756465Y-89285198D01*
X143724703Y-89273834D01*
X143694207Y-89259410D01*
X143665273Y-89242068D01*
X143638177Y-89221972D01*
X143613182Y-89199318D01*
X143590528Y-89174323D01*
X143570432Y-89147227D01*
X143553090Y-89118293D01*
X143538666Y-89087797D01*
X143527302Y-89056035D01*
X143519105Y-89023312D01*
X143514155Y-88989943D01*
X143512500Y-88956250D01*
X143512500Y-87843750D01*
X143514155Y-87810057D01*
X143519105Y-87776688D01*
X143527302Y-87743965D01*
X143538666Y-87712203D01*
X143553090Y-87681707D01*
X143570432Y-87652773D01*
X143590528Y-87625677D01*
X143613182Y-87600682D01*
X143638177Y-87578028D01*
X143665273Y-87557932D01*
X143694207Y-87540590D01*
X143724703Y-87526166D01*
X143756465Y-87514802D01*
X143789188Y-87506605D01*
X143822557Y-87501655D01*
X143856250Y-87500000D01*
X144543750Y-87500000D01*
X144577443Y-87501655D01*
G37*
G36*
X146514943Y-84101655D02*
G01*
X146548312Y-84106605D01*
X146581035Y-84114802D01*
X146612797Y-84126166D01*
X146643293Y-84140590D01*
X146672227Y-84157932D01*
X146699323Y-84178028D01*
X146724318Y-84200682D01*
X146746972Y-84225677D01*
X146767068Y-84252773D01*
X146784410Y-84281707D01*
X146798834Y-84312203D01*
X146810198Y-84343965D01*
X146818395Y-84376688D01*
X146823345Y-84410057D01*
X146825000Y-84443750D01*
X146825000Y-85556250D01*
X146823345Y-85589943D01*
X146818395Y-85623312D01*
X146810198Y-85656035D01*
X146798834Y-85687797D01*
X146784410Y-85718293D01*
X146767068Y-85747227D01*
X146746972Y-85774323D01*
X146724318Y-85799318D01*
X146699323Y-85821972D01*
X146672227Y-85842068D01*
X146643293Y-85859410D01*
X146612797Y-85873834D01*
X146581035Y-85885198D01*
X146548312Y-85893395D01*
X146514943Y-85898345D01*
X146481250Y-85900000D01*
X145793750Y-85900000D01*
X145760057Y-85898345D01*
X145726688Y-85893395D01*
X145693965Y-85885198D01*
X145662203Y-85873834D01*
X145631707Y-85859410D01*
X145602773Y-85842068D01*
X145575677Y-85821972D01*
X145550682Y-85799318D01*
X145528028Y-85774323D01*
X145507932Y-85747227D01*
X145490590Y-85718293D01*
X145476166Y-85687797D01*
X145464802Y-85656035D01*
X145456605Y-85623312D01*
X145451655Y-85589943D01*
X145450000Y-85556250D01*
X145450000Y-84443750D01*
X145451655Y-84410057D01*
X145456605Y-84376688D01*
X145464802Y-84343965D01*
X145476166Y-84312203D01*
X145490590Y-84281707D01*
X145507932Y-84252773D01*
X145528028Y-84225677D01*
X145550682Y-84200682D01*
X145575677Y-84178028D01*
X145602773Y-84157932D01*
X145631707Y-84140590D01*
X145662203Y-84126166D01*
X145693965Y-84114802D01*
X145726688Y-84106605D01*
X145760057Y-84101655D01*
X145793750Y-84100000D01*
X146481250Y-84100000D01*
X146514943Y-84101655D01*
G37*
G36*
X144639943Y-84101655D02*
G01*
X144673312Y-84106605D01*
X144706035Y-84114802D01*
X144737797Y-84126166D01*
X144768293Y-84140590D01*
X144797227Y-84157932D01*
X144824323Y-84178028D01*
X144849318Y-84200682D01*
X144871972Y-84225677D01*
X144892068Y-84252773D01*
X144909410Y-84281707D01*
X144923834Y-84312203D01*
X144935198Y-84343965D01*
X144943395Y-84376688D01*
X144948345Y-84410057D01*
X144950000Y-84443750D01*
X144950000Y-85556250D01*
X144948345Y-85589943D01*
X144943395Y-85623312D01*
X144935198Y-85656035D01*
X144923834Y-85687797D01*
X144909410Y-85718293D01*
X144892068Y-85747227D01*
X144871972Y-85774323D01*
X144849318Y-85799318D01*
X144824323Y-85821972D01*
X144797227Y-85842068D01*
X144768293Y-85859410D01*
X144737797Y-85873834D01*
X144706035Y-85885198D01*
X144673312Y-85893395D01*
X144639943Y-85898345D01*
X144606250Y-85900000D01*
X143918750Y-85900000D01*
X143885057Y-85898345D01*
X143851688Y-85893395D01*
X143818965Y-85885198D01*
X143787203Y-85873834D01*
X143756707Y-85859410D01*
X143727773Y-85842068D01*
X143700677Y-85821972D01*
X143675682Y-85799318D01*
X143653028Y-85774323D01*
X143632932Y-85747227D01*
X143615590Y-85718293D01*
X143601166Y-85687797D01*
X143589802Y-85656035D01*
X143581605Y-85623312D01*
X143576655Y-85589943D01*
X143575000Y-85556250D01*
X143575000Y-84443750D01*
X143576655Y-84410057D01*
X143581605Y-84376688D01*
X143589802Y-84343965D01*
X143601166Y-84312203D01*
X143615590Y-84281707D01*
X143632932Y-84252773D01*
X143653028Y-84225677D01*
X143675682Y-84200682D01*
X143700677Y-84178028D01*
X143727773Y-84157932D01*
X143756707Y-84140590D01*
X143787203Y-84126166D01*
X143818965Y-84114802D01*
X143851688Y-84106605D01*
X143885057Y-84101655D01*
X143918750Y-84100000D01*
X144606250Y-84100000D01*
X144639943Y-84101655D01*
G37*
D34*
X126100000Y-74405000D03*
X126100000Y-79525000D03*
D35*
X124800000Y-83585000D03*
X120100000Y-83585000D03*
D36*
X115125000Y-83200000D03*
D37*
X115350000Y-71460000D03*
D38*
X115000000Y-72660000D03*
D39*
X115000000Y-73710000D03*
X115000000Y-74810000D03*
X115000000Y-75910000D03*
X115000000Y-77010000D03*
X115000000Y-78110000D03*
X115000000Y-79210000D03*
X115000000Y-80310000D03*
D40*
X168690000Y-77920000D03*
X169690000Y-77920000D03*
X170690000Y-77920000D03*
X171690000Y-77920000D03*
X172690000Y-77920000D03*
X173690000Y-77920000D03*
X174690000Y-77920000D03*
X175690000Y-77920000D03*
X176690000Y-77920000D03*
X177690000Y-77920000D03*
X178690000Y-77920000D03*
X179690000Y-77920000D03*
X180690000Y-77920000D03*
X181690000Y-77920000D03*
X182690000Y-77920000D03*
X183690000Y-77920000D03*
X184690000Y-77920000D03*
D41*
X188690000Y-81920000D03*
X188690000Y-82920000D03*
X188690000Y-83920000D03*
X188690000Y-84920000D03*
X188690000Y-85920000D03*
X188690000Y-86920000D03*
X188690000Y-87920000D03*
X188690000Y-88920000D03*
X188690000Y-89920000D03*
X188690000Y-90920000D03*
X188690000Y-91920000D03*
X188690000Y-92920000D03*
X188690000Y-93920000D03*
X188690000Y-94920000D03*
X188690000Y-95920000D03*
X188690000Y-96920000D03*
X188690000Y-97920000D03*
D40*
X184690000Y-101920000D03*
X183690000Y-101920000D03*
X182690000Y-101920000D03*
X181690000Y-101920000D03*
X180690000Y-101920000D03*
X179690000Y-101920000D03*
X178690000Y-101920000D03*
X177690000Y-101920000D03*
X176690000Y-101920000D03*
X175690000Y-101920000D03*
X174690000Y-101920000D03*
X173690000Y-101920000D03*
X172690000Y-101920000D03*
X171690000Y-101920000D03*
X170690000Y-101920000D03*
X169690000Y-101920000D03*
X168690000Y-101920000D03*
D41*
X164690000Y-91920000D03*
X164690000Y-97920000D03*
X164690000Y-96920000D03*
X164690000Y-95920000D03*
X164690000Y-94920000D03*
X164690000Y-93920000D03*
X164690000Y-92920000D03*
X164690000Y-90920000D03*
X164690000Y-89920000D03*
X164690000Y-88920000D03*
X164690000Y-87920000D03*
X164690000Y-86920000D03*
X164690000Y-85920000D03*
X164690000Y-84920000D03*
X164690000Y-81920000D03*
X164690000Y-82920000D03*
X164690000Y-83920000D03*
D42*
X185180000Y-116410000D03*
D43*
X190430000Y-116410000D03*
X183230000Y-116410000D03*
D44*
X179865000Y-113415000D03*
X179865000Y-109605000D03*
D43*
X183230000Y-106710000D03*
X190430000Y-106610000D03*
D42*
X187580000Y-116410000D03*
X186380000Y-116410000D03*
X185180000Y-106710000D03*
X186380000Y-106710000D03*
X187580000Y-106710000D03*
M02*
