M48
; DRILL file {KiCad (5.1.2)-2} date 2019/11/29   14:03:50
; FORMAT={-:-/ absolute / inch / decimal}
; #@! TF.CreationDate,2019-11-29T14:03:50+11:00
; #@! TF.GenerationSoftware,Kicad,Pcbnew,(5.1.2)-2
FMAT,2
INCH
T1C0.0157
T2C0.0197
T3C0.0217
T4C0.0315
T5C0.0394
T6C0.0591
T7C0.0669
T8C0.1260
%
G90
G05
T1
X4.6457Y-3.3858
X4.9459Y-3.8435
X4.9803Y-3.8583
X5.0118Y-3.8659
X5.1378Y-3.3858
X5.2953Y-3.622
X5.315Y-3.6516
X5.3346Y-2.7362
X5.4035Y-3.9764
X5.4134Y-3.7205
X5.4232Y-2.6673
X5.4626Y-2.6969
X5.4779Y-3.9392
X5.4823Y-3.6417
X5.5118Y-3.878
X5.5118Y-2.9724
X5.5311Y-3.9392
X5.563Y-2.9724
X5.5789Y-3.6337
X5.5906Y-2.6969
X5.6045Y-3.9173
X5.6496Y-4.0846
X5.7087Y-2.7362
X5.7283Y-3.1496
X5.7283Y-3.8681
X5.748Y-3.622
X5.748Y-3.6614
X5.7874Y-3.5039
X5.8465Y-4.0354
X5.9843Y-2.6969
X6.0925Y-4.0354
X6.1024Y-3.0118
X6.122Y-4.124
X6.1319Y-2.7559
X6.1368Y-2.6735
X6.1417Y-2.6181
X6.378Y-3.1988
X6.3878Y-3.0315
X6.4173Y-2.6772
X6.4173Y-2.815
X6.4961Y-4.0846
X6.6142Y-3.2579
X6.624Y-3.5335
X6.624Y-3.5827
X6.7224Y-3.1594
X6.8504Y-2.9331
X6.8504Y-2.9921
X6.8898Y-3.3268
X6.9501Y-3.3514
X7.0079Y-3.4941
X7.0669Y-2.9331
X7.0669Y-2.9921
X7.1457Y-2.6969
X7.1457Y-2.7559
X7.1457Y-2.815
X7.1457Y-2.874
X7.1457Y-2.9331
X7.1457Y-2.9921
X7.1457Y-3.9173
X7.1949Y-3.9173
X7.2343Y-3.9173
X7.2736Y-3.2037
X7.3425Y-2.6969
X7.3425Y-2.7559
X7.3425Y-2.815
X7.3425Y-2.874
X7.3425Y-2.9331
X7.3425Y-2.9921
X7.4311Y-2.6181
X7.438Y-2.9724
X7.4409Y-2.874
T4
X5.8563Y-3.052
X5.8563Y-3.2441
T5
X6.698Y-4.1831
X6.798Y-4.1831
X6.898Y-4.1831
X6.998Y-4.1831
X5.5874Y-4.252
X5.6874Y-4.252
X5.7874Y-4.252
X5.8874Y-4.252
X5.1331Y-4.252
X5.2331Y-4.252
X5.3331Y-4.252
X5.4331Y-4.252
T6
X6.9563Y-2.7402
T7
X6.8563Y-2.6402
X6.8563Y-2.8402
X7.0563Y-2.6402
X7.0563Y-2.8402
T8
X6.5551Y-2.7559
X4.9213Y-4.1339
T2
G00X4.5797Y-3.878
M15
G01X4.6053Y-3.878
M16
G05
G00X4.5797Y-4.1535
M15
G01X4.6053Y-4.1535
M16
G05
T3
G00X4.6988Y-3.9114
M15
G01X4.6988Y-3.9232
M16
G05
G00X4.6988Y-4.1083
M15
G01X4.6988Y-4.1201
M16
G05
T5
G00X4.8638Y-2.6606
M15
G01X4.8638Y-2.7394
M16
G05
G00X4.9425Y-2.885
M15
G01X5.0213Y-2.885
M16
G05
G00X5.1Y-2.6606
M15
G01X5.1Y-2.7394
M16
G05
T0
M30
