G04 #@! TF.GenerationSoftware,KiCad,Pcbnew,(5.1.2)-2*
G04 #@! TF.CreationDate,2019-12-02T09:08:39+11:00*
G04 #@! TF.ProjectId,BoSL_GSP_Micro,426f534c-5f47-4535-905f-4d6963726f2e,0.3 G_*
G04 #@! TF.SameCoordinates,Original*
G04 #@! TF.FileFunction,Legend,Bot*
G04 #@! TF.FilePolarity,Positive*
%FSLAX46Y46*%
G04 Gerber Fmt 4.6, Leading zero omitted, Abs format (unit mm)*
G04 Created by KiCad (PCBNEW (5.1.2)-2) date 2019-12-02 09:08:39*
%MOMM*%
%LPD*%
G04 APERTURE LIST*
%ADD10C,0.450000*%
G04 APERTURE END LIST*
D10*
X183954761Y-85071428D02*
X183002380Y-84404761D01*
X183954761Y-83928571D02*
X181954761Y-83928571D01*
X181954761Y-84690476D01*
X182050000Y-84880952D01*
X182145238Y-84976190D01*
X182335714Y-85071428D01*
X182621428Y-85071428D01*
X182811904Y-84976190D01*
X182907142Y-84880952D01*
X183002380Y-84690476D01*
X183002380Y-83928571D01*
X183859523Y-86690476D02*
X183954761Y-86500000D01*
X183954761Y-86119047D01*
X183859523Y-85928571D01*
X183669047Y-85833333D01*
X182907142Y-85833333D01*
X182716666Y-85928571D01*
X182621428Y-86119047D01*
X182621428Y-86500000D01*
X182716666Y-86690476D01*
X182907142Y-86785714D01*
X183097619Y-86785714D01*
X183288095Y-85833333D01*
X182621428Y-87452380D02*
X183954761Y-87928571D01*
X182621428Y-88404761D01*
X183764285Y-89166666D02*
X183859523Y-89261904D01*
X183954761Y-89166666D01*
X183859523Y-89071428D01*
X183764285Y-89166666D01*
X183954761Y-89166666D01*
X182716666Y-89166666D02*
X182811904Y-89261904D01*
X182907142Y-89166666D01*
X182811904Y-89071428D01*
X182716666Y-89166666D01*
X182907142Y-89166666D01*
X181954761Y-92023809D02*
X181954761Y-92214285D01*
X182050000Y-92404761D01*
X182145238Y-92500000D01*
X182335714Y-92595238D01*
X182716666Y-92690476D01*
X183192857Y-92690476D01*
X183573809Y-92595238D01*
X183764285Y-92500000D01*
X183859523Y-92404761D01*
X183954761Y-92214285D01*
X183954761Y-92023809D01*
X183859523Y-91833333D01*
X183764285Y-91738095D01*
X183573809Y-91642857D01*
X183192857Y-91547619D01*
X182716666Y-91547619D01*
X182335714Y-91642857D01*
X182145238Y-91738095D01*
X182050000Y-91833333D01*
X181954761Y-92023809D01*
X183764285Y-93547619D02*
X183859523Y-93642857D01*
X183954761Y-93547619D01*
X183859523Y-93452380D01*
X183764285Y-93547619D01*
X183954761Y-93547619D01*
X181954761Y-94309523D02*
X181954761Y-95547619D01*
X182716666Y-94880952D01*
X182716666Y-95166666D01*
X182811904Y-95357142D01*
X182907142Y-95452380D01*
X183097619Y-95547619D01*
X183573809Y-95547619D01*
X183764285Y-95452380D01*
X183859523Y-95357142D01*
X183954761Y-95166666D01*
X183954761Y-94595238D01*
X183859523Y-94404761D01*
X183764285Y-94309523D01*
X182050000Y-98976190D02*
X181954761Y-98785714D01*
X181954761Y-98500000D01*
X182050000Y-98214285D01*
X182240476Y-98023809D01*
X182430952Y-97928571D01*
X182811904Y-97833333D01*
X183097619Y-97833333D01*
X183478571Y-97928571D01*
X183669047Y-98023809D01*
X183859523Y-98214285D01*
X183954761Y-98500000D01*
X183954761Y-98690476D01*
X183859523Y-98976190D01*
X183764285Y-99071428D01*
X183097619Y-99071428D01*
X183097619Y-98690476D01*
X182621428Y-99928571D02*
X184621428Y-99928571D01*
X183669047Y-100880952D02*
X183859523Y-100976190D01*
X183954761Y-101166666D01*
X183669047Y-99928571D02*
X183859523Y-100023809D01*
X183954761Y-100214285D01*
X183954761Y-100595238D01*
X183859523Y-100785714D01*
X183669047Y-100880952D01*
X182621428Y-100880952D01*
X187404761Y-82214285D02*
X185404761Y-82214285D01*
X186833333Y-82880952D01*
X185404761Y-83547619D01*
X187404761Y-83547619D01*
X187404761Y-84785714D02*
X187309523Y-84595238D01*
X187214285Y-84500000D01*
X187023809Y-84404761D01*
X186452380Y-84404761D01*
X186261904Y-84500000D01*
X186166666Y-84595238D01*
X186071428Y-84785714D01*
X186071428Y-85071428D01*
X186166666Y-85261904D01*
X186261904Y-85357142D01*
X186452380Y-85452380D01*
X187023809Y-85452380D01*
X187214285Y-85357142D01*
X187309523Y-85261904D01*
X187404761Y-85071428D01*
X187404761Y-84785714D01*
X186071428Y-86309523D02*
X187404761Y-86309523D01*
X186261904Y-86309523D02*
X186166666Y-86404761D01*
X186071428Y-86595238D01*
X186071428Y-86880952D01*
X186166666Y-87071428D01*
X186357142Y-87166666D01*
X187404761Y-87166666D01*
X187404761Y-88976190D02*
X186357142Y-88976190D01*
X186166666Y-88880952D01*
X186071428Y-88690476D01*
X186071428Y-88309523D01*
X186166666Y-88119047D01*
X187309523Y-88976190D02*
X187404761Y-88785714D01*
X187404761Y-88309523D01*
X187309523Y-88119047D01*
X187119047Y-88023809D01*
X186928571Y-88023809D01*
X186738095Y-88119047D01*
X186642857Y-88309523D01*
X186642857Y-88785714D01*
X186547619Y-88976190D01*
X187309523Y-89833333D02*
X187404761Y-90023809D01*
X187404761Y-90404761D01*
X187309523Y-90595238D01*
X187119047Y-90690476D01*
X187023809Y-90690476D01*
X186833333Y-90595238D01*
X186738095Y-90404761D01*
X186738095Y-90119047D01*
X186642857Y-89928571D01*
X186452380Y-89833333D01*
X186357142Y-89833333D01*
X186166666Y-89928571D01*
X186071428Y-90119047D01*
X186071428Y-90404761D01*
X186166666Y-90595238D01*
X187404761Y-91547619D02*
X185404761Y-91547619D01*
X187404761Y-92404761D02*
X186357142Y-92404761D01*
X186166666Y-92309523D01*
X186071428Y-92119047D01*
X186071428Y-91833333D01*
X186166666Y-91642857D01*
X186261904Y-91547619D01*
X186357142Y-95547619D02*
X186452380Y-95833333D01*
X186547619Y-95928571D01*
X186738095Y-96023809D01*
X187023809Y-96023809D01*
X187214285Y-95928571D01*
X187309523Y-95833333D01*
X187404761Y-95642857D01*
X187404761Y-94880952D01*
X185404761Y-94880952D01*
X185404761Y-95547619D01*
X185500000Y-95738095D01*
X185595238Y-95833333D01*
X185785714Y-95928571D01*
X185976190Y-95928571D01*
X186166666Y-95833333D01*
X186261904Y-95738095D01*
X186357142Y-95547619D01*
X186357142Y-94880952D01*
X187404761Y-97166666D02*
X187309523Y-96976190D01*
X187214285Y-96880952D01*
X187023809Y-96785714D01*
X186452380Y-96785714D01*
X186261904Y-96880952D01*
X186166666Y-96976190D01*
X186071428Y-97166666D01*
X186071428Y-97452380D01*
X186166666Y-97642857D01*
X186261904Y-97738095D01*
X186452380Y-97833333D01*
X187023809Y-97833333D01*
X187214285Y-97738095D01*
X187309523Y-97642857D01*
X187404761Y-97452380D01*
X187404761Y-97166666D01*
X187309523Y-98595238D02*
X187404761Y-98880952D01*
X187404761Y-99357142D01*
X187309523Y-99547619D01*
X187214285Y-99642857D01*
X187023809Y-99738095D01*
X186833333Y-99738095D01*
X186642857Y-99642857D01*
X186547619Y-99547619D01*
X186452380Y-99357142D01*
X186357142Y-98976190D01*
X186261904Y-98785714D01*
X186166666Y-98690476D01*
X185976190Y-98595238D01*
X185785714Y-98595238D01*
X185595238Y-98690476D01*
X185500000Y-98785714D01*
X185404761Y-98976190D01*
X185404761Y-99452380D01*
X185500000Y-99738095D01*
X187404761Y-101547619D02*
X187404761Y-100595238D01*
X185404761Y-100595238D01*
X188950000Y-81214285D02*
X188854761Y-81023809D01*
X188854761Y-80738095D01*
X188950000Y-80452380D01*
X189140476Y-80261904D01*
X189330952Y-80166666D01*
X189711904Y-80071428D01*
X189997619Y-80071428D01*
X190378571Y-80166666D01*
X190569047Y-80261904D01*
X190759523Y-80452380D01*
X190854761Y-80738095D01*
X190854761Y-80928571D01*
X190759523Y-81214285D01*
X190664285Y-81309523D01*
X189997619Y-81309523D01*
X189997619Y-80928571D01*
X190759523Y-82071428D02*
X190854761Y-82357142D01*
X190854761Y-82833333D01*
X190759523Y-83023809D01*
X190664285Y-83119047D01*
X190473809Y-83214285D01*
X190283333Y-83214285D01*
X190092857Y-83119047D01*
X189997619Y-83023809D01*
X189902380Y-82833333D01*
X189807142Y-82452380D01*
X189711904Y-82261904D01*
X189616666Y-82166666D01*
X189426190Y-82071428D01*
X189235714Y-82071428D01*
X189045238Y-82166666D01*
X188950000Y-82261904D01*
X188854761Y-82452380D01*
X188854761Y-82928571D01*
X188950000Y-83214285D01*
X190854761Y-84071428D02*
X188854761Y-84071428D01*
X188854761Y-84833333D01*
X188950000Y-85023809D01*
X189045238Y-85119047D01*
X189235714Y-85214285D01*
X189521428Y-85214285D01*
X189711904Y-85119047D01*
X189807142Y-85023809D01*
X189902380Y-84833333D01*
X189902380Y-84071428D01*
X190854761Y-87595238D02*
X188854761Y-87595238D01*
X190283333Y-88261904D01*
X188854761Y-88928571D01*
X190854761Y-88928571D01*
X190854761Y-89880952D02*
X189521428Y-89880952D01*
X188854761Y-89880952D02*
X188950000Y-89785714D01*
X189045238Y-89880952D01*
X188950000Y-89976190D01*
X188854761Y-89880952D01*
X189045238Y-89880952D01*
X190759523Y-91690476D02*
X190854761Y-91500000D01*
X190854761Y-91119047D01*
X190759523Y-90928571D01*
X190664285Y-90833333D01*
X190473809Y-90738095D01*
X189902380Y-90738095D01*
X189711904Y-90833333D01*
X189616666Y-90928571D01*
X189521428Y-91119047D01*
X189521428Y-91500000D01*
X189616666Y-91690476D01*
X190854761Y-92547619D02*
X189521428Y-92547619D01*
X189902380Y-92547619D02*
X189711904Y-92642857D01*
X189616666Y-92738095D01*
X189521428Y-92928571D01*
X189521428Y-93119047D01*
X190854761Y-94071428D02*
X190759523Y-93880952D01*
X190664285Y-93785714D01*
X190473809Y-93690476D01*
X189902380Y-93690476D01*
X189711904Y-93785714D01*
X189616666Y-93880952D01*
X189521428Y-94071428D01*
X189521428Y-94357142D01*
X189616666Y-94547619D01*
X189711904Y-94642857D01*
X189902380Y-94738095D01*
X190473809Y-94738095D01*
X190664285Y-94642857D01*
X190759523Y-94547619D01*
X190854761Y-94357142D01*
X190854761Y-94071428D01*
X189807142Y-97785714D02*
X189902380Y-98071428D01*
X189997619Y-98166666D01*
X190188095Y-98261904D01*
X190473809Y-98261904D01*
X190664285Y-98166666D01*
X190759523Y-98071428D01*
X190854761Y-97880952D01*
X190854761Y-97119047D01*
X188854761Y-97119047D01*
X188854761Y-97785714D01*
X188950000Y-97976190D01*
X189045238Y-98071428D01*
X189235714Y-98166666D01*
X189426190Y-98166666D01*
X189616666Y-98071428D01*
X189711904Y-97976190D01*
X189807142Y-97785714D01*
X189807142Y-97119047D01*
X190854761Y-99404761D02*
X190759523Y-99214285D01*
X190664285Y-99119047D01*
X190473809Y-99023809D01*
X189902380Y-99023809D01*
X189711904Y-99119047D01*
X189616666Y-99214285D01*
X189521428Y-99404761D01*
X189521428Y-99690476D01*
X189616666Y-99880952D01*
X189711904Y-99976190D01*
X189902380Y-100071428D01*
X190473809Y-100071428D01*
X190664285Y-99976190D01*
X190759523Y-99880952D01*
X190854761Y-99690476D01*
X190854761Y-99404761D01*
X190854761Y-101785714D02*
X189807142Y-101785714D01*
X189616666Y-101690476D01*
X189521428Y-101500000D01*
X189521428Y-101119047D01*
X189616666Y-100928571D01*
X190759523Y-101785714D02*
X190854761Y-101595238D01*
X190854761Y-101119047D01*
X190759523Y-100928571D01*
X190569047Y-100833333D01*
X190378571Y-100833333D01*
X190188095Y-100928571D01*
X190092857Y-101119047D01*
X190092857Y-101595238D01*
X189997619Y-101785714D01*
X190854761Y-102738095D02*
X189521428Y-102738095D01*
X189902380Y-102738095D02*
X189711904Y-102833333D01*
X189616666Y-102928571D01*
X189521428Y-103119047D01*
X189521428Y-103309523D01*
X190854761Y-104833333D02*
X188854761Y-104833333D01*
X190759523Y-104833333D02*
X190854761Y-104642857D01*
X190854761Y-104261904D01*
X190759523Y-104071428D01*
X190664285Y-103976190D01*
X190473809Y-103880952D01*
X189902380Y-103880952D01*
X189711904Y-103976190D01*
X189616666Y-104071428D01*
X189521428Y-104261904D01*
X189521428Y-104642857D01*
X189616666Y-104833333D01*
M02*
