G04 #@! TF.GenerationSoftware,KiCad,Pcbnew,(5.1.2)-2*
G04 #@! TF.CreationDate,2019-12-02T09:08:39+11:00*
G04 #@! TF.ProjectId,BoSL_GSP_Micro,426f534c-5f47-4535-905f-4d6963726f2e,0.3 G_*
G04 #@! TF.SameCoordinates,Original*
G04 #@! TF.FileFunction,Copper,L2,Bot*
G04 #@! TF.FilePolarity,Positive*
%FSLAX46Y46*%
G04 Gerber Fmt 4.6, Leading zero omitted, Abs format (unit mm)*
G04 Created by KiCad (PCBNEW (5.1.2)-2) date 2019-12-02 09:08:39*
%MOMM*%
%LPD*%
G04 APERTURE LIST*
%ADD10C,1.500000*%
%ADD11C,2.200000*%
%ADD12C,2.000000*%
%ADD13R,3.500000X3.500000*%
%ADD14R,1.700000X1.700000*%
%ADD15O,1.700000X1.700000*%
%ADD16O,0.950000X1.250000*%
%ADD17O,1.550000X1.000000*%
%ADD18C,0.600000*%
%ADD19C,0.250000*%
%ADD20C,0.254000*%
G04 APERTURE END LIST*
D10*
X148750000Y-77520000D03*
X148750000Y-82400000D03*
D11*
X174150000Y-67060000D03*
X179230000Y-67060000D03*
X179230000Y-72140000D03*
X174150000Y-72140000D03*
D12*
X176690000Y-69600000D03*
D13*
X129540000Y-68580000D03*
X123540000Y-68580000D03*
X126540000Y-73280000D03*
D14*
X138000000Y-108000000D03*
D15*
X135460000Y-108000000D03*
X132920000Y-108000000D03*
X130380000Y-108000000D03*
D14*
X141920000Y-108000000D03*
D15*
X144460000Y-108000000D03*
X147000000Y-108000000D03*
X149540000Y-108000000D03*
D14*
X170130000Y-106250000D03*
D15*
X172670000Y-106250000D03*
X175210000Y-106250000D03*
X177750000Y-106250000D03*
D16*
X119350000Y-98500000D03*
X119350000Y-103500000D03*
D17*
X116650000Y-97500000D03*
X116650000Y-104500000D03*
D15*
X125540000Y-108000000D03*
X123000000Y-108000000D03*
D14*
X120460000Y-108000000D03*
D18*
X181500000Y-76000000D03*
X181500000Y-74500000D03*
X181500000Y-73000000D03*
X181500000Y-71500000D03*
X181500000Y-70000000D03*
X186500000Y-76000000D03*
X186500000Y-74500000D03*
X186500000Y-73000000D03*
X186500000Y-71500000D03*
X186500000Y-70000000D03*
X181500000Y-68500000D03*
X186500000Y-68500000D03*
X179500000Y-76000000D03*
X179500000Y-74500000D03*
X174000000Y-74500000D03*
X174000000Y-76000000D03*
X118000000Y-86000000D03*
X145000000Y-69500000D03*
X135500000Y-69500000D03*
X148500000Y-102500000D03*
X152000000Y-68500000D03*
X163000000Y-68000000D03*
X155000000Y-76500000D03*
X147000000Y-89000000D03*
X137500000Y-94500000D03*
X142200000Y-67600000D03*
X130300000Y-85400000D03*
X167900000Y-83850000D03*
X158300000Y-85025010D03*
X137350000Y-100900000D03*
X142064444Y-70314444D03*
X174999994Y-84500000D03*
X188924979Y-75500000D03*
X125625000Y-97625000D03*
X155749988Y-69999991D03*
X181500000Y-99500000D03*
X154750000Y-102500000D03*
X183750000Y-99500000D03*
X165000000Y-103750000D03*
X182750000Y-99500000D03*
X155500000Y-104750000D03*
X139249999Y-92500000D03*
X139200000Y-99900000D03*
X137750000Y-67750000D03*
X141300013Y-75500000D03*
X141705000Y-92295000D03*
X142355000Y-99500000D03*
X138750000Y-68500000D03*
X140000004Y-75500000D03*
X168250000Y-91000000D03*
X146000000Y-93000000D03*
X168250000Y-89750000D03*
X146000000Y-91999984D03*
X140975000Y-68325000D03*
X162400000Y-85100000D03*
X144600000Y-81400000D03*
X134500000Y-92000000D03*
X135000000Y-92750000D03*
X176532958Y-85125010D03*
X189000000Y-73000000D03*
X178000000Y-88750000D03*
X188750000Y-66500000D03*
X145500000Y-98250000D03*
X184750000Y-81375010D03*
X170750000Y-80250000D03*
X140000000Y-98500000D03*
X126500000Y-98000000D03*
X155874990Y-67907715D03*
X156000000Y-66500000D03*
X127299990Y-98193100D03*
X140489109Y-100055010D03*
X158900000Y-73500000D03*
X163000000Y-71500000D03*
X143900000Y-103700000D03*
D19*
X144460000Y-108000000D02*
X138500000Y-102040000D01*
X138500000Y-96154503D02*
X138500000Y-95250000D01*
X138500000Y-102040000D02*
X138500000Y-95250000D01*
X138500000Y-102040000D02*
X138500000Y-101500000D01*
X137759999Y-101299999D02*
X138500000Y-102040000D01*
X157875736Y-85025010D02*
X158300000Y-85025010D01*
X138500000Y-95250000D02*
X138500000Y-92250000D01*
X138500000Y-92250000D02*
X145450001Y-85299999D01*
X145450001Y-85299999D02*
X157600747Y-85299999D01*
X157600747Y-85299999D02*
X157875736Y-85025010D01*
X137759999Y-101299999D02*
X137749999Y-101299999D01*
X137749999Y-101299999D02*
X137350000Y-100900000D01*
X142064444Y-70738708D02*
X142064444Y-70314444D01*
X142064444Y-76478761D02*
X142064444Y-70738708D01*
X122049989Y-96493216D02*
X142064444Y-76478761D01*
X123000000Y-108000000D02*
X122049989Y-107049989D01*
X122049989Y-107049989D02*
X122049989Y-96493216D01*
X188624980Y-75799999D02*
X188924979Y-75500000D01*
X179924979Y-84500000D02*
X188624980Y-75799999D01*
X174999994Y-84500000D02*
X179924979Y-84500000D01*
X155325724Y-69999991D02*
X155749988Y-69999991D01*
X126049989Y-97200011D02*
X126049989Y-93813599D01*
X125625000Y-97625000D02*
X126049989Y-97200011D01*
X126049989Y-93813599D02*
X149863598Y-69999991D01*
X149863598Y-69999991D02*
X155325724Y-69999991D01*
X181500000Y-99500000D02*
X178500000Y-102500000D01*
X178500000Y-102500000D02*
X154750000Y-102500000D01*
X183750000Y-99500000D02*
X179500000Y-103750000D01*
X179500000Y-103750000D02*
X165000000Y-103750000D01*
X182750000Y-99500000D02*
X179250000Y-103000000D01*
X179250000Y-103000000D02*
X157250000Y-103000000D01*
X157250000Y-103000000D02*
X155500000Y-104750000D01*
X147000000Y-108000000D02*
X143875002Y-104875002D01*
X143875002Y-104875002D02*
X139300000Y-100300000D01*
X139300000Y-100300000D02*
X139200000Y-100200000D01*
X139200000Y-92549999D02*
X139249999Y-92500000D01*
X139200000Y-100200000D02*
X139200000Y-99900000D01*
X139200000Y-99900000D02*
X139200000Y-92549999D01*
X138925002Y-67750000D02*
X141300013Y-70125011D01*
X141300013Y-70125011D02*
X141300013Y-75075736D01*
X137750000Y-67750000D02*
X138925002Y-67750000D01*
X141300013Y-75075736D02*
X141300013Y-75500000D01*
X141700009Y-96063599D02*
X141225031Y-95588621D01*
X141225031Y-92774969D02*
X141705000Y-92295000D01*
X141225031Y-95588621D02*
X141225031Y-92774969D01*
X141700009Y-97950009D02*
X141700009Y-97799991D01*
X141700009Y-97799991D02*
X141700009Y-96063599D01*
X141700009Y-98845009D02*
X142355000Y-99500000D01*
X141700009Y-97799991D02*
X141700009Y-98845009D01*
X142355000Y-100815000D02*
X142355000Y-99500000D01*
X149540000Y-108000000D02*
X142355000Y-100815000D01*
X140750000Y-74750004D02*
X140000004Y-75500000D01*
X138750000Y-68500000D02*
X140750000Y-70500000D01*
X140750000Y-70500000D02*
X140750000Y-74750004D01*
X140000004Y-77899996D02*
X140000004Y-75500000D01*
X121500000Y-96400000D02*
X140000004Y-77899996D01*
X120460000Y-108000000D02*
X121500000Y-106960000D01*
X121500000Y-106960000D02*
X121500000Y-96400000D01*
X146424264Y-93000000D02*
X146000000Y-93000000D01*
X166250000Y-93000000D02*
X146424264Y-93000000D01*
X168250000Y-91000000D02*
X166250000Y-93000000D01*
X146424264Y-91999984D02*
X146000000Y-91999984D01*
X168250000Y-89750000D02*
X166000016Y-91999984D01*
X166000016Y-91999984D02*
X146424264Y-91999984D01*
X125540000Y-108000000D02*
X122500000Y-104960000D01*
X122500000Y-104960000D02*
X122500000Y-96727177D01*
X142689445Y-70039445D02*
X140975000Y-68325000D01*
X142689445Y-76537733D02*
X142689445Y-70039445D01*
X122500000Y-96727177D02*
X142613589Y-76613589D01*
X142613589Y-76613589D02*
X142689445Y-76537733D01*
X144600000Y-82900000D02*
X144600000Y-81400000D01*
X159300000Y-85100000D02*
X158600000Y-84400000D01*
X162400000Y-85100000D02*
X159300000Y-85100000D01*
X158600000Y-84400000D02*
X157700000Y-84400000D01*
X157700000Y-84400000D02*
X157250010Y-84849990D01*
X157250010Y-84849990D02*
X146549990Y-84849990D01*
X146549990Y-84849990D02*
X144600000Y-82900000D01*
X131674989Y-104214989D02*
X131674989Y-94825011D01*
X134200001Y-92299999D02*
X134500000Y-92000000D01*
X131674989Y-94825011D02*
X134200001Y-92299999D01*
X135460000Y-108000000D02*
X131674989Y-104214989D01*
X138000000Y-106900000D02*
X132124999Y-101024999D01*
X132124999Y-101024999D02*
X132124999Y-95625001D01*
X134700001Y-93049999D02*
X135000000Y-92750000D01*
X132124999Y-95625001D02*
X134700001Y-93049999D01*
X138000000Y-108000000D02*
X138000000Y-106900000D01*
X189549989Y-75950011D02*
X189549989Y-73549989D01*
X189299999Y-73299999D02*
X189000000Y-73000000D01*
X180186400Y-84950011D02*
X184386410Y-80750000D01*
X176532958Y-85125010D02*
X176957222Y-85125010D01*
X189549989Y-73549989D02*
X189299999Y-73299999D01*
X184750000Y-80750000D02*
X189549989Y-75950011D01*
X176957222Y-85125010D02*
X177132221Y-84950011D01*
X184386410Y-80750000D02*
X184750000Y-80750000D01*
X177132221Y-84950011D02*
X180186400Y-84950011D01*
X188750000Y-71750000D02*
X188750000Y-66500000D01*
X190000000Y-73000000D02*
X188750000Y-71750000D01*
X190000000Y-76136410D02*
X190000000Y-73000000D01*
X185500000Y-80636410D02*
X190000000Y-76136410D01*
X178500000Y-88750000D02*
X185500000Y-81750000D01*
X178000000Y-88750000D02*
X178500000Y-88750000D01*
X185500000Y-81750000D02*
X185500000Y-80636410D01*
X145500000Y-98250000D02*
X167375010Y-98250000D01*
X167375010Y-98250000D02*
X180224988Y-85400022D01*
X180224988Y-85400022D02*
X180724988Y-85400022D01*
X184450001Y-81675009D02*
X184750000Y-81375010D01*
X180724988Y-85400022D02*
X184450001Y-81675009D01*
X140000000Y-98075736D02*
X140000000Y-98500000D01*
X171500000Y-81000000D02*
X171500000Y-84000000D01*
X139874999Y-97950735D02*
X140000000Y-98075736D01*
X170750000Y-80250000D02*
X171500000Y-81000000D01*
X171500000Y-84000000D02*
X169750000Y-85750000D01*
X169750000Y-85750000D02*
X145824998Y-85750000D01*
X145824998Y-85750000D02*
X139874999Y-91699999D01*
X139874999Y-91699999D02*
X139874999Y-97950735D01*
X156374998Y-68407723D02*
X155874990Y-67907715D01*
X156050001Y-70624999D02*
X156374998Y-70300002D01*
X149874999Y-70625001D02*
X156050001Y-70625001D01*
X156050001Y-70625001D02*
X156050001Y-70624999D01*
X126500000Y-93999999D02*
X149874999Y-70625001D01*
X156374998Y-70300002D02*
X156374998Y-68407723D01*
X126500000Y-98000000D02*
X126500000Y-93999999D01*
X127400000Y-98093090D02*
X127299990Y-98193100D01*
X150061398Y-71075012D02*
X127400000Y-93736410D01*
X156424989Y-71075011D02*
X150061398Y-71075012D01*
X157000000Y-70500000D02*
X156424989Y-71075011D01*
X157000000Y-67500000D02*
X157000000Y-70500000D01*
X127400000Y-93736410D02*
X127400000Y-98093090D01*
X156000000Y-66500000D02*
X157000000Y-67500000D01*
X140700000Y-99844119D02*
X140489109Y-100055010D01*
X140325010Y-96025010D02*
X140700000Y-96400000D01*
X140325010Y-91924989D02*
X140325010Y-96025010D01*
X146049988Y-86200011D02*
X140325010Y-91924989D01*
X140700000Y-96400000D02*
X140700000Y-99844119D01*
X164300000Y-73500000D02*
X165375010Y-74575010D01*
X158900000Y-73500000D02*
X164300000Y-73500000D01*
X165375010Y-74575010D02*
X166575010Y-74575010D01*
X169936400Y-86200011D02*
X146049988Y-86200011D01*
X166575010Y-74575010D02*
X171950011Y-79950011D01*
X171950011Y-79950011D02*
X171950011Y-84186400D01*
X171950011Y-84186400D02*
X169936400Y-86200011D01*
X141250000Y-101050000D02*
X143600001Y-103400001D01*
X140775021Y-92111389D02*
X140775021Y-95775021D01*
X170122800Y-86650022D02*
X146236388Y-86650022D01*
X172400022Y-84372800D02*
X170122800Y-86650022D01*
X146236388Y-86650022D02*
X140775021Y-92111389D01*
X140775021Y-95775021D02*
X141250000Y-96250000D01*
X143600001Y-103400001D02*
X143900000Y-103700000D01*
X141250000Y-96250000D02*
X141250000Y-101050000D01*
X172400022Y-79763612D02*
X172400022Y-80150022D01*
X166761411Y-74125001D02*
X172400022Y-79763612D01*
X165625000Y-74125000D02*
X166761411Y-74125001D01*
X163000000Y-71500000D02*
X165625000Y-74125000D01*
X172400022Y-80150022D02*
X172400022Y-84372800D01*
D20*
G36*
X190347018Y-63747430D02*
G01*
X190680819Y-63848211D01*
X190988687Y-64011907D01*
X191258896Y-64232284D01*
X191481157Y-64500952D01*
X191646995Y-64807663D01*
X191750104Y-65140753D01*
X191790000Y-65520341D01*
X191790001Y-107465270D01*
X191752571Y-107847016D01*
X191651789Y-108180818D01*
X191488093Y-108488687D01*
X191267716Y-108758897D01*
X190999052Y-108981154D01*
X190692337Y-109146995D01*
X190359246Y-109250104D01*
X189979659Y-109290000D01*
X150276791Y-109290000D01*
X150369014Y-109240706D01*
X150595134Y-109055134D01*
X150780706Y-108829014D01*
X150918599Y-108571034D01*
X151003513Y-108291111D01*
X151032185Y-108000000D01*
X151003513Y-107708889D01*
X150918599Y-107428966D01*
X150780706Y-107170986D01*
X150722450Y-107100000D01*
X168641928Y-107100000D01*
X168654188Y-107224482D01*
X168690498Y-107344180D01*
X168749463Y-107454494D01*
X168828815Y-107551185D01*
X168925506Y-107630537D01*
X169035820Y-107689502D01*
X169155518Y-107725812D01*
X169280000Y-107738072D01*
X169844250Y-107735000D01*
X170003000Y-107576250D01*
X170003000Y-106377000D01*
X168803750Y-106377000D01*
X168645000Y-106535750D01*
X168641928Y-107100000D01*
X150722450Y-107100000D01*
X150595134Y-106944866D01*
X150369014Y-106759294D01*
X150111034Y-106621401D01*
X149831111Y-106536487D01*
X149612950Y-106515000D01*
X149467050Y-106515000D01*
X149248889Y-106536487D01*
X149174005Y-106559203D01*
X145022713Y-102407911D01*
X153815000Y-102407911D01*
X153815000Y-102592089D01*
X153850932Y-102772729D01*
X153921414Y-102942889D01*
X154023738Y-103096028D01*
X154153972Y-103226262D01*
X154307111Y-103328586D01*
X154477271Y-103399068D01*
X154657911Y-103435000D01*
X154842089Y-103435000D01*
X155022729Y-103399068D01*
X155192889Y-103328586D01*
X155295535Y-103260000D01*
X155915198Y-103260000D01*
X155348351Y-103826847D01*
X155227271Y-103850932D01*
X155057111Y-103921414D01*
X154903972Y-104023738D01*
X154773738Y-104153972D01*
X154671414Y-104307111D01*
X154600932Y-104477271D01*
X154565000Y-104657911D01*
X154565000Y-104842089D01*
X154600932Y-105022729D01*
X154671414Y-105192889D01*
X154773738Y-105346028D01*
X154903972Y-105476262D01*
X155057111Y-105578586D01*
X155227271Y-105649068D01*
X155407911Y-105685000D01*
X155592089Y-105685000D01*
X155772729Y-105649068D01*
X155942889Y-105578586D01*
X156096028Y-105476262D01*
X156172290Y-105400000D01*
X168641928Y-105400000D01*
X168645000Y-105964250D01*
X168803750Y-106123000D01*
X170003000Y-106123000D01*
X170003000Y-104923750D01*
X170257000Y-104923750D01*
X170257000Y-106123000D01*
X170277000Y-106123000D01*
X170277000Y-106377000D01*
X170257000Y-106377000D01*
X170257000Y-107576250D01*
X170415750Y-107735000D01*
X170980000Y-107738072D01*
X171104482Y-107725812D01*
X171224180Y-107689502D01*
X171334494Y-107630537D01*
X171431185Y-107551185D01*
X171510537Y-107454494D01*
X171569502Y-107344180D01*
X171590393Y-107275313D01*
X171614866Y-107305134D01*
X171840986Y-107490706D01*
X172098966Y-107628599D01*
X172378889Y-107713513D01*
X172597050Y-107735000D01*
X172742950Y-107735000D01*
X172961111Y-107713513D01*
X173241034Y-107628599D01*
X173499014Y-107490706D01*
X173725134Y-107305134D01*
X173910706Y-107079014D01*
X173940000Y-107024209D01*
X173969294Y-107079014D01*
X174154866Y-107305134D01*
X174380986Y-107490706D01*
X174638966Y-107628599D01*
X174918889Y-107713513D01*
X175137050Y-107735000D01*
X175282950Y-107735000D01*
X175501111Y-107713513D01*
X175781034Y-107628599D01*
X176039014Y-107490706D01*
X176265134Y-107305134D01*
X176450706Y-107079014D01*
X176480000Y-107024209D01*
X176509294Y-107079014D01*
X176694866Y-107305134D01*
X176920986Y-107490706D01*
X177178966Y-107628599D01*
X177458889Y-107713513D01*
X177677050Y-107735000D01*
X177822950Y-107735000D01*
X178041111Y-107713513D01*
X178321034Y-107628599D01*
X178579014Y-107490706D01*
X178805134Y-107305134D01*
X178990706Y-107079014D01*
X179128599Y-106821034D01*
X179213513Y-106541111D01*
X179242185Y-106250000D01*
X179213513Y-105958889D01*
X179128599Y-105678966D01*
X178990706Y-105420986D01*
X178805134Y-105194866D01*
X178579014Y-105009294D01*
X178321034Y-104871401D01*
X178041111Y-104786487D01*
X177822950Y-104765000D01*
X177677050Y-104765000D01*
X177458889Y-104786487D01*
X177178966Y-104871401D01*
X176920986Y-105009294D01*
X176694866Y-105194866D01*
X176509294Y-105420986D01*
X176480000Y-105475791D01*
X176450706Y-105420986D01*
X176265134Y-105194866D01*
X176039014Y-105009294D01*
X175781034Y-104871401D01*
X175501111Y-104786487D01*
X175282950Y-104765000D01*
X175137050Y-104765000D01*
X174918889Y-104786487D01*
X174638966Y-104871401D01*
X174380986Y-105009294D01*
X174154866Y-105194866D01*
X173969294Y-105420986D01*
X173940000Y-105475791D01*
X173910706Y-105420986D01*
X173725134Y-105194866D01*
X173499014Y-105009294D01*
X173241034Y-104871401D01*
X172961111Y-104786487D01*
X172742950Y-104765000D01*
X172597050Y-104765000D01*
X172378889Y-104786487D01*
X172098966Y-104871401D01*
X171840986Y-105009294D01*
X171614866Y-105194866D01*
X171590393Y-105224687D01*
X171569502Y-105155820D01*
X171510537Y-105045506D01*
X171431185Y-104948815D01*
X171334494Y-104869463D01*
X171224180Y-104810498D01*
X171104482Y-104774188D01*
X170980000Y-104761928D01*
X170415750Y-104765000D01*
X170257000Y-104923750D01*
X170003000Y-104923750D01*
X169844250Y-104765000D01*
X169280000Y-104761928D01*
X169155518Y-104774188D01*
X169035820Y-104810498D01*
X168925506Y-104869463D01*
X168828815Y-104948815D01*
X168749463Y-105045506D01*
X168690498Y-105155820D01*
X168654188Y-105275518D01*
X168641928Y-105400000D01*
X156172290Y-105400000D01*
X156226262Y-105346028D01*
X156328586Y-105192889D01*
X156399068Y-105022729D01*
X156423153Y-104901649D01*
X157564802Y-103760000D01*
X164065000Y-103760000D01*
X164065000Y-103842089D01*
X164100932Y-104022729D01*
X164171414Y-104192889D01*
X164273738Y-104346028D01*
X164403972Y-104476262D01*
X164557111Y-104578586D01*
X164727271Y-104649068D01*
X164907911Y-104685000D01*
X165092089Y-104685000D01*
X165272729Y-104649068D01*
X165442889Y-104578586D01*
X165545535Y-104510000D01*
X179462678Y-104510000D01*
X179500000Y-104513676D01*
X179537322Y-104510000D01*
X179537333Y-104510000D01*
X179648986Y-104499003D01*
X179792247Y-104455546D01*
X179924276Y-104384974D01*
X180040001Y-104290001D01*
X180063804Y-104260997D01*
X183901649Y-100423153D01*
X184022729Y-100399068D01*
X184192889Y-100328586D01*
X184346028Y-100226262D01*
X184476262Y-100096028D01*
X184578586Y-99942889D01*
X184649068Y-99772729D01*
X184685000Y-99592089D01*
X184685000Y-99407911D01*
X184649068Y-99227271D01*
X184578586Y-99057111D01*
X184476262Y-98903972D01*
X184346028Y-98773738D01*
X184192889Y-98671414D01*
X184022729Y-98600932D01*
X183842089Y-98565000D01*
X183657911Y-98565000D01*
X183477271Y-98600932D01*
X183307111Y-98671414D01*
X183250000Y-98709574D01*
X183192889Y-98671414D01*
X183022729Y-98600932D01*
X182842089Y-98565000D01*
X182657911Y-98565000D01*
X182477271Y-98600932D01*
X182307111Y-98671414D01*
X182153972Y-98773738D01*
X182125000Y-98802710D01*
X182096028Y-98773738D01*
X181942889Y-98671414D01*
X181772729Y-98600932D01*
X181592089Y-98565000D01*
X181407911Y-98565000D01*
X181227271Y-98600932D01*
X181057111Y-98671414D01*
X180903972Y-98773738D01*
X180773738Y-98903972D01*
X180671414Y-99057111D01*
X180600932Y-99227271D01*
X180576847Y-99348351D01*
X178185199Y-101740000D01*
X155295535Y-101740000D01*
X155192889Y-101671414D01*
X155022729Y-101600932D01*
X154842089Y-101565000D01*
X154657911Y-101565000D01*
X154477271Y-101600932D01*
X154307111Y-101671414D01*
X154153972Y-101773738D01*
X154023738Y-101903972D01*
X153921414Y-102057111D01*
X153850932Y-102227271D01*
X153815000Y-102407911D01*
X145022713Y-102407911D01*
X143115000Y-100500199D01*
X143115000Y-100045535D01*
X143183586Y-99942889D01*
X143254068Y-99772729D01*
X143290000Y-99592089D01*
X143290000Y-99407911D01*
X143254068Y-99227271D01*
X143183586Y-99057111D01*
X143081262Y-98903972D01*
X142951028Y-98773738D01*
X142797889Y-98671414D01*
X142627729Y-98600932D01*
X142506649Y-98576847D01*
X142460009Y-98530208D01*
X142460009Y-98157911D01*
X144565000Y-98157911D01*
X144565000Y-98342089D01*
X144600932Y-98522729D01*
X144671414Y-98692889D01*
X144773738Y-98846028D01*
X144903972Y-98976262D01*
X145057111Y-99078586D01*
X145227271Y-99149068D01*
X145407911Y-99185000D01*
X145592089Y-99185000D01*
X145772729Y-99149068D01*
X145942889Y-99078586D01*
X146045535Y-99010000D01*
X167337688Y-99010000D01*
X167375010Y-99013676D01*
X167412332Y-99010000D01*
X167412343Y-99010000D01*
X167523996Y-98999003D01*
X167667257Y-98955546D01*
X167799286Y-98884974D01*
X167915011Y-98790001D01*
X167938814Y-98760997D01*
X177313761Y-89386051D01*
X177403972Y-89476262D01*
X177557111Y-89578586D01*
X177727271Y-89649068D01*
X177907911Y-89685000D01*
X178092089Y-89685000D01*
X178272729Y-89649068D01*
X178442889Y-89578586D01*
X178546954Y-89509052D01*
X178648986Y-89499003D01*
X178792247Y-89455546D01*
X178924276Y-89384974D01*
X179040001Y-89290001D01*
X179063804Y-89260997D01*
X186011004Y-82313798D01*
X186040001Y-82290001D01*
X186090403Y-82228586D01*
X186134974Y-82174277D01*
X186205546Y-82042247D01*
X186219571Y-81996011D01*
X186249003Y-81898986D01*
X186260000Y-81787333D01*
X186260000Y-81787323D01*
X186263676Y-81750000D01*
X186260000Y-81712677D01*
X186260000Y-80951211D01*
X190511004Y-76700208D01*
X190540001Y-76676411D01*
X190572251Y-76637114D01*
X190634974Y-76560687D01*
X190705546Y-76428657D01*
X190705546Y-76428656D01*
X190749003Y-76285396D01*
X190760000Y-76173743D01*
X190760000Y-76173734D01*
X190763676Y-76136411D01*
X190760000Y-76099088D01*
X190760000Y-73037323D01*
X190763676Y-73000000D01*
X190760000Y-72962677D01*
X190760000Y-72962667D01*
X190749003Y-72851014D01*
X190705546Y-72707753D01*
X190682707Y-72665025D01*
X190634974Y-72575723D01*
X190563799Y-72488997D01*
X190540001Y-72459999D01*
X190511003Y-72436201D01*
X189510000Y-71435199D01*
X189510000Y-67045535D01*
X189578586Y-66942889D01*
X189649068Y-66772729D01*
X189685000Y-66592089D01*
X189685000Y-66407911D01*
X189649068Y-66227271D01*
X189578586Y-66057111D01*
X189476262Y-65903972D01*
X189346028Y-65773738D01*
X189192889Y-65671414D01*
X189022729Y-65600932D01*
X188842089Y-65565000D01*
X188657911Y-65565000D01*
X188477271Y-65600932D01*
X188307111Y-65671414D01*
X188153972Y-65773738D01*
X188023738Y-65903972D01*
X187921414Y-66057111D01*
X187850932Y-66227271D01*
X187815000Y-66407911D01*
X187815000Y-66592089D01*
X187850932Y-66772729D01*
X187921414Y-66942889D01*
X187990001Y-67045537D01*
X187990000Y-71712677D01*
X187986324Y-71750000D01*
X187990000Y-71787322D01*
X187990000Y-71787332D01*
X188000997Y-71898985D01*
X188044454Y-72042246D01*
X188115026Y-72174276D01*
X188154871Y-72222826D01*
X188209999Y-72290001D01*
X188239003Y-72313804D01*
X188301454Y-72376256D01*
X188273738Y-72403972D01*
X188171414Y-72557111D01*
X188100932Y-72727271D01*
X188065000Y-72907911D01*
X188065000Y-73092089D01*
X188100932Y-73272729D01*
X188171414Y-73442889D01*
X188273738Y-73596028D01*
X188403972Y-73726262D01*
X188557111Y-73828586D01*
X188727271Y-73899068D01*
X188789990Y-73911544D01*
X188789990Y-74573534D01*
X188652250Y-74600932D01*
X188482090Y-74671414D01*
X188328951Y-74773738D01*
X188198717Y-74903972D01*
X188096393Y-75057111D01*
X188025911Y-75227271D01*
X188001827Y-75348349D01*
X179610178Y-83740000D01*
X175545529Y-83740000D01*
X175442883Y-83671414D01*
X175272723Y-83600932D01*
X175092083Y-83565000D01*
X174907905Y-83565000D01*
X174727265Y-83600932D01*
X174557105Y-83671414D01*
X174403966Y-83773738D01*
X174273732Y-83903972D01*
X174171408Y-84057111D01*
X174100926Y-84227271D01*
X174064994Y-84407911D01*
X174064994Y-84592089D01*
X174100926Y-84772729D01*
X174171408Y-84942889D01*
X174273732Y-85096028D01*
X174403966Y-85226262D01*
X174557105Y-85328586D01*
X174727265Y-85399068D01*
X174907905Y-85435000D01*
X175092083Y-85435000D01*
X175272723Y-85399068D01*
X175442883Y-85328586D01*
X175545529Y-85260000D01*
X175606492Y-85260000D01*
X175633890Y-85397739D01*
X175704372Y-85567899D01*
X175806696Y-85721038D01*
X175936930Y-85851272D01*
X176090069Y-85953596D01*
X176260229Y-86024078D01*
X176440869Y-86060010D01*
X176625047Y-86060010D01*
X176805687Y-86024078D01*
X176975847Y-85953596D01*
X177093006Y-85875313D01*
X177106208Y-85874013D01*
X177249469Y-85830556D01*
X177381498Y-85759984D01*
X177442390Y-85710011D01*
X178840197Y-85710011D01*
X167060209Y-97490000D01*
X146045535Y-97490000D01*
X145942889Y-97421414D01*
X145772729Y-97350932D01*
X145592089Y-97315000D01*
X145407911Y-97315000D01*
X145227271Y-97350932D01*
X145057111Y-97421414D01*
X144903972Y-97523738D01*
X144773738Y-97653972D01*
X144671414Y-97807111D01*
X144600932Y-97977271D01*
X144565000Y-98157911D01*
X142460009Y-98157911D01*
X142460009Y-96100921D01*
X142463685Y-96063598D01*
X142460009Y-96026275D01*
X142460009Y-96026266D01*
X142449012Y-95914613D01*
X142405555Y-95771352D01*
X142334983Y-95639323D01*
X142240010Y-95523598D01*
X142211006Y-95499795D01*
X141985031Y-95273820D01*
X141985031Y-93191043D01*
X142147889Y-93123586D01*
X142301028Y-93021262D01*
X142431262Y-92891028D01*
X142533586Y-92737889D01*
X142604068Y-92567729D01*
X142640000Y-92387089D01*
X142640000Y-92202911D01*
X142604068Y-92022271D01*
X142556693Y-91907895D01*
X145065000Y-91907895D01*
X145065000Y-92092073D01*
X145100932Y-92272713D01*
X145171414Y-92442873D01*
X145209580Y-92499992D01*
X145171414Y-92557111D01*
X145100932Y-92727271D01*
X145065000Y-92907911D01*
X145065000Y-93092089D01*
X145100932Y-93272729D01*
X145171414Y-93442889D01*
X145273738Y-93596028D01*
X145403972Y-93726262D01*
X145557111Y-93828586D01*
X145727271Y-93899068D01*
X145907911Y-93935000D01*
X146092089Y-93935000D01*
X146272729Y-93899068D01*
X146442889Y-93828586D01*
X146545535Y-93760000D01*
X166212678Y-93760000D01*
X166250000Y-93763676D01*
X166287322Y-93760000D01*
X166287333Y-93760000D01*
X166398986Y-93749003D01*
X166542247Y-93705546D01*
X166674276Y-93634974D01*
X166790001Y-93540001D01*
X166813804Y-93510997D01*
X168401649Y-91923153D01*
X168522729Y-91899068D01*
X168692889Y-91828586D01*
X168846028Y-91726262D01*
X168976262Y-91596028D01*
X169078586Y-91442889D01*
X169149068Y-91272729D01*
X169185000Y-91092089D01*
X169185000Y-90907911D01*
X169149068Y-90727271D01*
X169078586Y-90557111D01*
X168976262Y-90403972D01*
X168947290Y-90375000D01*
X168976262Y-90346028D01*
X169078586Y-90192889D01*
X169149068Y-90022729D01*
X169185000Y-89842089D01*
X169185000Y-89657911D01*
X169149068Y-89477271D01*
X169078586Y-89307111D01*
X168976262Y-89153972D01*
X168846028Y-89023738D01*
X168692889Y-88921414D01*
X168522729Y-88850932D01*
X168342089Y-88815000D01*
X168157911Y-88815000D01*
X167977271Y-88850932D01*
X167807111Y-88921414D01*
X167653972Y-89023738D01*
X167523738Y-89153972D01*
X167421414Y-89307111D01*
X167350932Y-89477271D01*
X167326847Y-89598351D01*
X165685215Y-91239984D01*
X146545535Y-91239984D01*
X146442889Y-91171398D01*
X146272729Y-91100916D01*
X146092089Y-91064984D01*
X145907911Y-91064984D01*
X145727271Y-91100916D01*
X145557111Y-91171398D01*
X145403972Y-91273722D01*
X145273738Y-91403956D01*
X145171414Y-91557095D01*
X145100932Y-91727255D01*
X145065000Y-91907895D01*
X142556693Y-91907895D01*
X142533586Y-91852111D01*
X142431262Y-91698972D01*
X142346751Y-91614461D01*
X146551190Y-87410022D01*
X170085478Y-87410022D01*
X170122800Y-87413698D01*
X170160122Y-87410022D01*
X170160133Y-87410022D01*
X170271786Y-87399025D01*
X170415047Y-87355568D01*
X170547076Y-87284996D01*
X170662801Y-87190023D01*
X170686604Y-87161019D01*
X172911025Y-84936599D01*
X172940023Y-84912801D01*
X173034996Y-84797076D01*
X173105568Y-84665047D01*
X173149025Y-84521786D01*
X173160022Y-84410133D01*
X173160022Y-84410124D01*
X173163698Y-84372801D01*
X173160022Y-84335478D01*
X173160022Y-79800934D01*
X173163698Y-79763611D01*
X173160022Y-79726288D01*
X173160022Y-79726279D01*
X173149025Y-79614626D01*
X173105568Y-79471365D01*
X173067967Y-79401019D01*
X173034996Y-79339335D01*
X172963821Y-79252609D01*
X172940023Y-79223611D01*
X172911026Y-79199814D01*
X167325208Y-73613997D01*
X167301412Y-73585001D01*
X167258749Y-73549988D01*
X167185687Y-73490027D01*
X167053657Y-73419455D01*
X166953853Y-73389181D01*
X166910397Y-73375999D01*
X166798744Y-73365002D01*
X166761411Y-73361325D01*
X166724080Y-73365002D01*
X165939802Y-73365001D01*
X165921513Y-73346712D01*
X173122893Y-73346712D01*
X173230726Y-73621338D01*
X173537384Y-73772216D01*
X173867585Y-73860369D01*
X174208639Y-73882409D01*
X174547439Y-73837489D01*
X174870966Y-73727336D01*
X175069274Y-73621338D01*
X175177107Y-73346712D01*
X178202893Y-73346712D01*
X178310726Y-73621338D01*
X178617384Y-73772216D01*
X178947585Y-73860369D01*
X179288639Y-73882409D01*
X179627439Y-73837489D01*
X179950966Y-73727336D01*
X180149274Y-73621338D01*
X180257107Y-73346712D01*
X179230000Y-72319605D01*
X178202893Y-73346712D01*
X175177107Y-73346712D01*
X174150000Y-72319605D01*
X173122893Y-73346712D01*
X165921513Y-73346712D01*
X163923153Y-71348352D01*
X163899068Y-71227271D01*
X163828586Y-71057111D01*
X163726262Y-70903972D01*
X163596028Y-70773738D01*
X163442889Y-70671414D01*
X163272729Y-70600932D01*
X163092089Y-70565000D01*
X162907911Y-70565000D01*
X162727271Y-70600932D01*
X162557111Y-70671414D01*
X162403972Y-70773738D01*
X162273738Y-70903972D01*
X162171414Y-71057111D01*
X162100932Y-71227271D01*
X162065000Y-71407911D01*
X162065000Y-71592089D01*
X162100932Y-71772729D01*
X162171414Y-71942889D01*
X162273738Y-72096028D01*
X162403972Y-72226262D01*
X162557111Y-72328586D01*
X162727271Y-72399068D01*
X162848352Y-72423153D01*
X163165199Y-72740000D01*
X159445535Y-72740000D01*
X159342889Y-72671414D01*
X159172729Y-72600932D01*
X158992089Y-72565000D01*
X158807911Y-72565000D01*
X158627271Y-72600932D01*
X158457111Y-72671414D01*
X158303972Y-72773738D01*
X158173738Y-72903972D01*
X158071414Y-73057111D01*
X158000932Y-73227271D01*
X157965000Y-73407911D01*
X157965000Y-73592089D01*
X158000932Y-73772729D01*
X158071414Y-73942889D01*
X158173738Y-74096028D01*
X158303972Y-74226262D01*
X158457111Y-74328586D01*
X158627271Y-74399068D01*
X158807911Y-74435000D01*
X158992089Y-74435000D01*
X159172729Y-74399068D01*
X159342889Y-74328586D01*
X159445535Y-74260000D01*
X163985199Y-74260000D01*
X164811210Y-75086012D01*
X164835009Y-75115011D01*
X164950734Y-75209984D01*
X165082763Y-75280556D01*
X165226024Y-75324013D01*
X165337677Y-75335010D01*
X165337685Y-75335010D01*
X165375010Y-75338686D01*
X165412335Y-75335010D01*
X166260209Y-75335010D01*
X170335043Y-79409844D01*
X170307111Y-79421414D01*
X170153972Y-79523738D01*
X170023738Y-79653972D01*
X169921414Y-79807111D01*
X169850932Y-79977271D01*
X169815000Y-80157911D01*
X169815000Y-80342089D01*
X169850932Y-80522729D01*
X169921414Y-80692889D01*
X170023738Y-80846028D01*
X170153972Y-80976262D01*
X170307111Y-81078586D01*
X170477271Y-81149068D01*
X170598351Y-81173153D01*
X170740000Y-81314802D01*
X170740001Y-83685197D01*
X169435199Y-84990000D01*
X163331437Y-84990000D01*
X163299068Y-84827271D01*
X163228586Y-84657111D01*
X163126262Y-84503972D01*
X162996028Y-84373738D01*
X162842889Y-84271414D01*
X162672729Y-84200932D01*
X162492089Y-84165000D01*
X162307911Y-84165000D01*
X162127271Y-84200932D01*
X161957111Y-84271414D01*
X161854465Y-84340000D01*
X159614802Y-84340000D01*
X159163803Y-83889002D01*
X159140001Y-83859999D01*
X159024276Y-83765026D01*
X158892247Y-83694454D01*
X158748986Y-83650997D01*
X158637333Y-83640000D01*
X158637322Y-83640000D01*
X158600000Y-83636324D01*
X158562678Y-83640000D01*
X157737323Y-83640000D01*
X157700000Y-83636324D01*
X157662677Y-83640000D01*
X157662667Y-83640000D01*
X157551014Y-83650997D01*
X157407753Y-83694454D01*
X157275723Y-83765026D01*
X157239866Y-83794454D01*
X157159999Y-83859999D01*
X157136196Y-83889003D01*
X156935209Y-84089990D01*
X146864792Y-84089990D01*
X145360000Y-82585199D01*
X145360000Y-82263589D01*
X147365000Y-82263589D01*
X147365000Y-82536411D01*
X147418225Y-82803989D01*
X147522629Y-83056043D01*
X147674201Y-83282886D01*
X147867114Y-83475799D01*
X148093957Y-83627371D01*
X148346011Y-83731775D01*
X148613589Y-83785000D01*
X148886411Y-83785000D01*
X149153989Y-83731775D01*
X149406043Y-83627371D01*
X149632886Y-83475799D01*
X149825799Y-83282886D01*
X149977371Y-83056043D01*
X150081775Y-82803989D01*
X150135000Y-82536411D01*
X150135000Y-82263589D01*
X150081775Y-81996011D01*
X149977371Y-81743957D01*
X149825799Y-81517114D01*
X149632886Y-81324201D01*
X149406043Y-81172629D01*
X149153989Y-81068225D01*
X148886411Y-81015000D01*
X148613589Y-81015000D01*
X148346011Y-81068225D01*
X148093957Y-81172629D01*
X147867114Y-81324201D01*
X147674201Y-81517114D01*
X147522629Y-81743957D01*
X147418225Y-81996011D01*
X147365000Y-82263589D01*
X145360000Y-82263589D01*
X145360000Y-81945535D01*
X145428586Y-81842889D01*
X145499068Y-81672729D01*
X145535000Y-81492089D01*
X145535000Y-81307911D01*
X145499068Y-81127271D01*
X145428586Y-80957111D01*
X145326262Y-80803972D01*
X145196028Y-80673738D01*
X145042889Y-80571414D01*
X144872729Y-80500932D01*
X144692089Y-80465000D01*
X144507911Y-80465000D01*
X144327271Y-80500932D01*
X144157111Y-80571414D01*
X144003972Y-80673738D01*
X143873738Y-80803972D01*
X143771414Y-80957111D01*
X143700932Y-81127271D01*
X143665000Y-81307911D01*
X143665000Y-81492089D01*
X143700932Y-81672729D01*
X143771414Y-81842889D01*
X143840001Y-81945536D01*
X143840000Y-82862677D01*
X143836324Y-82900000D01*
X143840000Y-82937322D01*
X143840000Y-82937332D01*
X143850997Y-83048985D01*
X143894454Y-83192246D01*
X143965026Y-83324276D01*
X143998469Y-83365026D01*
X144059999Y-83440001D01*
X144089003Y-83463804D01*
X145205245Y-84580047D01*
X145157754Y-84594453D01*
X145025725Y-84665025D01*
X144910000Y-84759998D01*
X144886202Y-84788996D01*
X137988998Y-91686201D01*
X137960000Y-91709999D01*
X137936202Y-91738997D01*
X137936201Y-91738998D01*
X137865026Y-91825724D01*
X137794454Y-91957754D01*
X137781337Y-92000997D01*
X137753706Y-92092089D01*
X137750998Y-92101015D01*
X137736324Y-92250000D01*
X137740001Y-92287332D01*
X137740000Y-95212667D01*
X137740000Y-96191835D01*
X137740001Y-96191844D01*
X137740000Y-100049507D01*
X137622729Y-100000932D01*
X137442089Y-99965000D01*
X137257911Y-99965000D01*
X137077271Y-100000932D01*
X136907111Y-100071414D01*
X136753972Y-100173738D01*
X136623738Y-100303972D01*
X136521414Y-100457111D01*
X136450932Y-100627271D01*
X136415000Y-100807911D01*
X136415000Y-100992089D01*
X136450932Y-101172729D01*
X136521414Y-101342889D01*
X136623738Y-101496028D01*
X136753972Y-101626262D01*
X136907111Y-101728586D01*
X137077271Y-101799068D01*
X137195747Y-101822635D01*
X137209998Y-101840000D01*
X137294766Y-101909567D01*
X137936206Y-102551009D01*
X137959999Y-102580001D01*
X137988992Y-102603795D01*
X137988996Y-102603799D01*
X137989007Y-102603808D01*
X141900198Y-106515000D01*
X141792998Y-106515000D01*
X141792998Y-106673748D01*
X141634250Y-106515000D01*
X141070000Y-106511928D01*
X140945518Y-106524188D01*
X140825820Y-106560498D01*
X140715506Y-106619463D01*
X140618815Y-106698815D01*
X140539463Y-106795506D01*
X140480498Y-106905820D01*
X140444188Y-107025518D01*
X140431928Y-107150000D01*
X140435000Y-107714250D01*
X140593750Y-107873000D01*
X141793000Y-107873000D01*
X141793000Y-107853000D01*
X142047000Y-107853000D01*
X142047000Y-107873000D01*
X142067000Y-107873000D01*
X142067000Y-108127000D01*
X142047000Y-108127000D01*
X142047000Y-108147000D01*
X141793000Y-108147000D01*
X141793000Y-108127000D01*
X140593750Y-108127000D01*
X140435000Y-108285750D01*
X140431928Y-108850000D01*
X140444188Y-108974482D01*
X140480498Y-109094180D01*
X140539463Y-109204494D01*
X140609636Y-109290000D01*
X139310364Y-109290000D01*
X139380537Y-109204494D01*
X139439502Y-109094180D01*
X139475812Y-108974482D01*
X139488072Y-108850000D01*
X139488072Y-107150000D01*
X139475812Y-107025518D01*
X139439502Y-106905820D01*
X139380537Y-106795506D01*
X139301185Y-106698815D01*
X139204494Y-106619463D01*
X139094180Y-106560498D01*
X138974482Y-106524188D01*
X138850000Y-106511928D01*
X138654326Y-106511928D01*
X138653289Y-106509988D01*
X138634974Y-106475723D01*
X138563799Y-106388997D01*
X138540001Y-106359999D01*
X138511003Y-106336201D01*
X132884999Y-100710198D01*
X132884999Y-95939802D01*
X135151649Y-93673153D01*
X135272729Y-93649068D01*
X135442889Y-93578586D01*
X135596028Y-93476262D01*
X135726262Y-93346028D01*
X135828586Y-93192889D01*
X135899068Y-93022729D01*
X135935000Y-92842089D01*
X135935000Y-92657911D01*
X135899068Y-92477271D01*
X135828586Y-92307111D01*
X135726262Y-92153972D01*
X135596028Y-92023738D01*
X135442889Y-91921414D01*
X135435000Y-91918146D01*
X135435000Y-91907911D01*
X135399068Y-91727271D01*
X135328586Y-91557111D01*
X135226262Y-91403972D01*
X135096028Y-91273738D01*
X134942889Y-91171414D01*
X134772729Y-91100932D01*
X134592089Y-91065000D01*
X134407911Y-91065000D01*
X134227271Y-91100932D01*
X134057111Y-91171414D01*
X133903972Y-91273738D01*
X133773738Y-91403972D01*
X133671414Y-91557111D01*
X133600932Y-91727271D01*
X133576847Y-91848351D01*
X131163987Y-94261212D01*
X131134989Y-94285010D01*
X131111191Y-94314008D01*
X131111190Y-94314009D01*
X131040015Y-94400735D01*
X130969443Y-94532765D01*
X130939169Y-94632569D01*
X130925987Y-94676025D01*
X130922641Y-94709999D01*
X130911313Y-94825011D01*
X130914990Y-94862343D01*
X130914989Y-104177667D01*
X130911313Y-104214989D01*
X130914989Y-104252311D01*
X130914989Y-104252321D01*
X130925986Y-104363974D01*
X130956230Y-104463676D01*
X130969443Y-104507235D01*
X131040015Y-104639265D01*
X131055318Y-104657911D01*
X131134988Y-104754990D01*
X131163992Y-104778793D01*
X132900199Y-106515000D01*
X132792998Y-106515000D01*
X132792998Y-106679844D01*
X132563110Y-106558524D01*
X132415901Y-106603175D01*
X132153080Y-106728359D01*
X131919731Y-106902412D01*
X131724822Y-107118645D01*
X131655201Y-107235523D01*
X131620706Y-107170986D01*
X131435134Y-106944866D01*
X131209014Y-106759294D01*
X130951034Y-106621401D01*
X130671111Y-106536487D01*
X130452950Y-106515000D01*
X130307050Y-106515000D01*
X130088889Y-106536487D01*
X129808966Y-106621401D01*
X129550986Y-106759294D01*
X129324866Y-106944866D01*
X129139294Y-107170986D01*
X129001401Y-107428966D01*
X128916487Y-107708889D01*
X128887815Y-108000000D01*
X128916487Y-108291111D01*
X129001401Y-108571034D01*
X129139294Y-108829014D01*
X129324866Y-109055134D01*
X129550986Y-109240706D01*
X129643209Y-109290000D01*
X126276791Y-109290000D01*
X126369014Y-109240706D01*
X126595134Y-109055134D01*
X126780706Y-108829014D01*
X126918599Y-108571034D01*
X127003513Y-108291111D01*
X127032185Y-108000000D01*
X127003513Y-107708889D01*
X126918599Y-107428966D01*
X126780706Y-107170986D01*
X126595134Y-106944866D01*
X126369014Y-106759294D01*
X126111034Y-106621401D01*
X125831111Y-106536487D01*
X125612950Y-106515000D01*
X125467050Y-106515000D01*
X125248889Y-106536487D01*
X125174005Y-106559203D01*
X123260000Y-104645199D01*
X123260000Y-102779872D01*
X123765000Y-102779872D01*
X123765000Y-103220128D01*
X123850890Y-103651925D01*
X124019369Y-104058669D01*
X124263962Y-104424729D01*
X124575271Y-104736038D01*
X124941331Y-104980631D01*
X125348075Y-105149110D01*
X125779872Y-105235000D01*
X126220128Y-105235000D01*
X126651925Y-105149110D01*
X127058669Y-104980631D01*
X127424729Y-104736038D01*
X127736038Y-104424729D01*
X127980631Y-104058669D01*
X128149110Y-103651925D01*
X128235000Y-103220128D01*
X128235000Y-102779872D01*
X128149110Y-102348075D01*
X127980631Y-101941331D01*
X127736038Y-101575271D01*
X127424729Y-101263962D01*
X127058669Y-101019369D01*
X126651925Y-100850890D01*
X126220128Y-100765000D01*
X125779872Y-100765000D01*
X125348075Y-100850890D01*
X124941331Y-101019369D01*
X124575271Y-101263962D01*
X124263962Y-101575271D01*
X124019369Y-101941331D01*
X123850890Y-102348075D01*
X123765000Y-102779872D01*
X123260000Y-102779872D01*
X123260000Y-97041978D01*
X125289990Y-95011989D01*
X125289989Y-96751730D01*
X125182111Y-96796414D01*
X125028972Y-96898738D01*
X124898738Y-97028972D01*
X124796414Y-97182111D01*
X124725932Y-97352271D01*
X124690000Y-97532911D01*
X124690000Y-97717089D01*
X124725932Y-97897729D01*
X124796414Y-98067889D01*
X124898738Y-98221028D01*
X125028972Y-98351262D01*
X125182111Y-98453586D01*
X125352271Y-98524068D01*
X125532911Y-98560000D01*
X125717089Y-98560000D01*
X125745843Y-98554280D01*
X125773738Y-98596028D01*
X125903972Y-98726262D01*
X126057111Y-98828586D01*
X126227271Y-98899068D01*
X126407911Y-98935000D01*
X126592089Y-98935000D01*
X126698444Y-98913844D01*
X126703962Y-98919362D01*
X126857101Y-99021686D01*
X127027261Y-99092168D01*
X127207901Y-99128100D01*
X127392079Y-99128100D01*
X127572719Y-99092168D01*
X127742879Y-99021686D01*
X127896018Y-98919362D01*
X128026252Y-98789128D01*
X128128576Y-98635989D01*
X128199058Y-98465829D01*
X128234990Y-98285189D01*
X128234990Y-98101011D01*
X128199058Y-97920371D01*
X128160000Y-97826076D01*
X128160000Y-94051211D01*
X144827623Y-77383589D01*
X147365000Y-77383589D01*
X147365000Y-77656411D01*
X147418225Y-77923989D01*
X147522629Y-78176043D01*
X147674201Y-78402886D01*
X147867114Y-78595799D01*
X148093957Y-78747371D01*
X148346011Y-78851775D01*
X148613589Y-78905000D01*
X148886411Y-78905000D01*
X149153989Y-78851775D01*
X149406043Y-78747371D01*
X149632886Y-78595799D01*
X149825799Y-78402886D01*
X149977371Y-78176043D01*
X150081775Y-77923989D01*
X150135000Y-77656411D01*
X150135000Y-77383589D01*
X150081775Y-77116011D01*
X149977371Y-76863957D01*
X149825799Y-76637114D01*
X149632886Y-76444201D01*
X149406043Y-76292629D01*
X149153989Y-76188225D01*
X148886411Y-76135000D01*
X148613589Y-76135000D01*
X148346011Y-76188225D01*
X148093957Y-76292629D01*
X147867114Y-76444201D01*
X147674201Y-76637114D01*
X147522629Y-76863957D01*
X147418225Y-77116011D01*
X147365000Y-77383589D01*
X144827623Y-77383589D01*
X150376201Y-71835012D01*
X156387657Y-71835010D01*
X156424989Y-71838687D01*
X156462322Y-71835010D01*
X156573975Y-71824013D01*
X156617431Y-71810831D01*
X156717235Y-71780557D01*
X156849265Y-71709985D01*
X156935991Y-71638810D01*
X156935992Y-71638809D01*
X156964990Y-71615011D01*
X156988788Y-71586013D01*
X157511003Y-71063799D01*
X157540001Y-71040001D01*
X157634974Y-70924276D01*
X157705546Y-70792247D01*
X157749003Y-70648986D01*
X157760000Y-70537333D01*
X157760000Y-70537324D01*
X157763676Y-70500001D01*
X157760000Y-70462678D01*
X157760000Y-69779872D01*
X164265000Y-69779872D01*
X164265000Y-70220128D01*
X164350890Y-70651925D01*
X164519369Y-71058669D01*
X164763962Y-71424729D01*
X165075271Y-71736038D01*
X165441331Y-71980631D01*
X165848075Y-72149110D01*
X166279872Y-72235000D01*
X166720128Y-72235000D01*
X166902926Y-72198639D01*
X172407591Y-72198639D01*
X172452511Y-72537439D01*
X172562664Y-72860966D01*
X172668662Y-73059274D01*
X172943288Y-73167107D01*
X173970395Y-72140000D01*
X174329605Y-72140000D01*
X175356712Y-73167107D01*
X175631338Y-73059274D01*
X175782216Y-72752616D01*
X175870369Y-72422415D01*
X175884830Y-72198639D01*
X177487591Y-72198639D01*
X177532511Y-72537439D01*
X177642664Y-72860966D01*
X177748662Y-73059274D01*
X178023288Y-73167107D01*
X179050395Y-72140000D01*
X179409605Y-72140000D01*
X180436712Y-73167107D01*
X180711338Y-73059274D01*
X180862216Y-72752616D01*
X180950369Y-72422415D01*
X180972409Y-72081361D01*
X180927489Y-71742561D01*
X180817336Y-71419034D01*
X180711338Y-71220726D01*
X180436712Y-71112893D01*
X179409605Y-72140000D01*
X179050395Y-72140000D01*
X178023288Y-71112893D01*
X177748662Y-71220726D01*
X177597784Y-71527384D01*
X177509631Y-71857585D01*
X177487591Y-72198639D01*
X175884830Y-72198639D01*
X175892409Y-72081361D01*
X175847489Y-71742561D01*
X175737336Y-71419034D01*
X175631338Y-71220726D01*
X175356712Y-71112893D01*
X174329605Y-72140000D01*
X173970395Y-72140000D01*
X172943288Y-71112893D01*
X172668662Y-71220726D01*
X172517784Y-71527384D01*
X172429631Y-71857585D01*
X172407591Y-72198639D01*
X166902926Y-72198639D01*
X167151925Y-72149110D01*
X167558669Y-71980631D01*
X167924729Y-71736038D01*
X168236038Y-71424729D01*
X168480631Y-71058669D01*
X168532565Y-70933288D01*
X173122893Y-70933288D01*
X174150000Y-71960395D01*
X175177107Y-70933288D01*
X175069274Y-70658662D01*
X174762616Y-70507784D01*
X174432415Y-70419631D01*
X174091361Y-70397591D01*
X173752561Y-70442511D01*
X173429034Y-70552664D01*
X173230726Y-70658662D01*
X173122893Y-70933288D01*
X168532565Y-70933288D01*
X168649110Y-70651925D01*
X168735000Y-70220128D01*
X168735000Y-69779872D01*
X168667190Y-69438967D01*
X175055000Y-69438967D01*
X175055000Y-69761033D01*
X175117832Y-70076912D01*
X175241082Y-70374463D01*
X175420013Y-70642252D01*
X175647748Y-70869987D01*
X175915537Y-71048918D01*
X176213088Y-71172168D01*
X176528967Y-71235000D01*
X176851033Y-71235000D01*
X177166912Y-71172168D01*
X177464463Y-71048918D01*
X177637515Y-70933288D01*
X178202893Y-70933288D01*
X179230000Y-71960395D01*
X180257107Y-70933288D01*
X180149274Y-70658662D01*
X179842616Y-70507784D01*
X179512415Y-70419631D01*
X179171361Y-70397591D01*
X178832561Y-70442511D01*
X178509034Y-70552664D01*
X178310726Y-70658662D01*
X178202893Y-70933288D01*
X177637515Y-70933288D01*
X177732252Y-70869987D01*
X177959987Y-70642252D01*
X178138918Y-70374463D01*
X178262168Y-70076912D01*
X178325000Y-69761033D01*
X178325000Y-69438967D01*
X178262168Y-69123088D01*
X178138918Y-68825537D01*
X177959987Y-68557748D01*
X177732252Y-68330013D01*
X177637516Y-68266712D01*
X178202893Y-68266712D01*
X178310726Y-68541338D01*
X178617384Y-68692216D01*
X178947585Y-68780369D01*
X179288639Y-68802409D01*
X179627439Y-68757489D01*
X179950966Y-68647336D01*
X180149274Y-68541338D01*
X180257107Y-68266712D01*
X179230000Y-67239605D01*
X178202893Y-68266712D01*
X177637516Y-68266712D01*
X177464463Y-68151082D01*
X177166912Y-68027832D01*
X176851033Y-67965000D01*
X176528967Y-67965000D01*
X176213088Y-68027832D01*
X175915537Y-68151082D01*
X175647748Y-68330013D01*
X175420013Y-68557748D01*
X175241082Y-68825537D01*
X175117832Y-69123088D01*
X175055000Y-69438967D01*
X168667190Y-69438967D01*
X168649110Y-69348075D01*
X168480631Y-68941331D01*
X168236038Y-68575271D01*
X167927479Y-68266712D01*
X173122893Y-68266712D01*
X173230726Y-68541338D01*
X173537384Y-68692216D01*
X173867585Y-68780369D01*
X174208639Y-68802409D01*
X174547439Y-68757489D01*
X174870966Y-68647336D01*
X175069274Y-68541338D01*
X175177107Y-68266712D01*
X174150000Y-67239605D01*
X173122893Y-68266712D01*
X167927479Y-68266712D01*
X167924729Y-68263962D01*
X167558669Y-68019369D01*
X167151925Y-67850890D01*
X166720128Y-67765000D01*
X166279872Y-67765000D01*
X165848075Y-67850890D01*
X165441331Y-68019369D01*
X165075271Y-68263962D01*
X164763962Y-68575271D01*
X164519369Y-68941331D01*
X164350890Y-69348075D01*
X164265000Y-69779872D01*
X157760000Y-69779872D01*
X157760000Y-67537333D01*
X157763677Y-67500000D01*
X157749003Y-67351014D01*
X157705546Y-67207753D01*
X157657913Y-67118639D01*
X172407591Y-67118639D01*
X172452511Y-67457439D01*
X172562664Y-67780966D01*
X172668662Y-67979274D01*
X172943288Y-68087107D01*
X173970395Y-67060000D01*
X174329605Y-67060000D01*
X175356712Y-68087107D01*
X175631338Y-67979274D01*
X175782216Y-67672616D01*
X175870369Y-67342415D01*
X175884830Y-67118639D01*
X177487591Y-67118639D01*
X177532511Y-67457439D01*
X177642664Y-67780966D01*
X177748662Y-67979274D01*
X178023288Y-68087107D01*
X179050395Y-67060000D01*
X179409605Y-67060000D01*
X180436712Y-68087107D01*
X180711338Y-67979274D01*
X180862216Y-67672616D01*
X180950369Y-67342415D01*
X180972409Y-67001361D01*
X180927489Y-66662561D01*
X180817336Y-66339034D01*
X180711338Y-66140726D01*
X180436712Y-66032893D01*
X179409605Y-67060000D01*
X179050395Y-67060000D01*
X178023288Y-66032893D01*
X177748662Y-66140726D01*
X177597784Y-66447384D01*
X177509631Y-66777585D01*
X177487591Y-67118639D01*
X175884830Y-67118639D01*
X175892409Y-67001361D01*
X175847489Y-66662561D01*
X175737336Y-66339034D01*
X175631338Y-66140726D01*
X175356712Y-66032893D01*
X174329605Y-67060000D01*
X173970395Y-67060000D01*
X172943288Y-66032893D01*
X172668662Y-66140726D01*
X172517784Y-66447384D01*
X172429631Y-66777585D01*
X172407591Y-67118639D01*
X157657913Y-67118639D01*
X157634974Y-67075724D01*
X157563799Y-66988997D01*
X157540001Y-66959999D01*
X157511004Y-66936202D01*
X156923153Y-66348351D01*
X156899068Y-66227271D01*
X156828586Y-66057111D01*
X156726262Y-65903972D01*
X156675578Y-65853288D01*
X173122893Y-65853288D01*
X174150000Y-66880395D01*
X175177107Y-65853288D01*
X178202893Y-65853288D01*
X179230000Y-66880395D01*
X180257107Y-65853288D01*
X180149274Y-65578662D01*
X179842616Y-65427784D01*
X179512415Y-65339631D01*
X179171361Y-65317591D01*
X178832561Y-65362511D01*
X178509034Y-65472664D01*
X178310726Y-65578662D01*
X178202893Y-65853288D01*
X175177107Y-65853288D01*
X175069274Y-65578662D01*
X174762616Y-65427784D01*
X174432415Y-65339631D01*
X174091361Y-65317591D01*
X173752561Y-65362511D01*
X173429034Y-65472664D01*
X173230726Y-65578662D01*
X173122893Y-65853288D01*
X156675578Y-65853288D01*
X156596028Y-65773738D01*
X156442889Y-65671414D01*
X156272729Y-65600932D01*
X156092089Y-65565000D01*
X155907911Y-65565000D01*
X155727271Y-65600932D01*
X155557111Y-65671414D01*
X155403972Y-65773738D01*
X155273738Y-65903972D01*
X155171414Y-66057111D01*
X155100932Y-66227271D01*
X155065000Y-66407911D01*
X155065000Y-66592089D01*
X155100932Y-66772729D01*
X155171414Y-66942889D01*
X155273738Y-67096028D01*
X155327039Y-67149329D01*
X155278962Y-67181453D01*
X155148728Y-67311687D01*
X155046404Y-67464826D01*
X154975922Y-67634986D01*
X154939990Y-67815626D01*
X154939990Y-67999804D01*
X154975922Y-68180444D01*
X155046404Y-68350604D01*
X155148728Y-68503743D01*
X155278962Y-68633977D01*
X155432101Y-68736301D01*
X155602261Y-68806783D01*
X155614999Y-68809317D01*
X155614999Y-69073525D01*
X155477259Y-69100923D01*
X155307099Y-69171405D01*
X155204453Y-69239991D01*
X149900920Y-69239991D01*
X149863597Y-69236315D01*
X149826274Y-69239991D01*
X149826265Y-69239991D01*
X149714612Y-69250988D01*
X149571351Y-69294445D01*
X149439321Y-69365017D01*
X149391866Y-69403963D01*
X149323597Y-69459990D01*
X149299799Y-69488988D01*
X143449445Y-75339342D01*
X143449445Y-70076767D01*
X143453121Y-70039444D01*
X143449445Y-70002121D01*
X143449445Y-70002112D01*
X143438448Y-69890459D01*
X143394991Y-69747198D01*
X143324419Y-69615169D01*
X143229446Y-69499444D01*
X143200448Y-69475646D01*
X141898153Y-68173351D01*
X141874068Y-68052271D01*
X141803586Y-67882111D01*
X141701262Y-67728972D01*
X141571028Y-67598738D01*
X141417889Y-67496414D01*
X141247729Y-67425932D01*
X141067089Y-67390000D01*
X140882911Y-67390000D01*
X140702271Y-67425932D01*
X140532111Y-67496414D01*
X140378972Y-67598738D01*
X140248738Y-67728972D01*
X140146414Y-67882111D01*
X140142167Y-67892364D01*
X139488806Y-67239003D01*
X139465003Y-67209999D01*
X139349278Y-67115026D01*
X139217249Y-67044454D01*
X139073988Y-67000997D01*
X138962335Y-66990000D01*
X138962324Y-66990000D01*
X138925002Y-66986324D01*
X138887680Y-66990000D01*
X138295535Y-66990000D01*
X138192889Y-66921414D01*
X138022729Y-66850932D01*
X137842089Y-66815000D01*
X137657911Y-66815000D01*
X137477271Y-66850932D01*
X137307111Y-66921414D01*
X137153972Y-67023738D01*
X137023738Y-67153972D01*
X136921414Y-67307111D01*
X136850932Y-67477271D01*
X136815000Y-67657911D01*
X136815000Y-67842089D01*
X136850932Y-68022729D01*
X136921414Y-68192889D01*
X137023738Y-68346028D01*
X137153972Y-68476262D01*
X137307111Y-68578586D01*
X137477271Y-68649068D01*
X137657911Y-68685000D01*
X137833481Y-68685000D01*
X137850932Y-68772729D01*
X137921414Y-68942889D01*
X138023738Y-69096028D01*
X138153972Y-69226262D01*
X138307111Y-69328586D01*
X138477271Y-69399068D01*
X138598352Y-69423153D01*
X139990000Y-70814802D01*
X139990001Y-74435201D01*
X139848355Y-74576847D01*
X139727275Y-74600932D01*
X139557115Y-74671414D01*
X139403976Y-74773738D01*
X139273742Y-74903972D01*
X139171418Y-75057111D01*
X139100936Y-75227271D01*
X139065004Y-75407911D01*
X139065004Y-75592089D01*
X139100936Y-75772729D01*
X139171418Y-75942889D01*
X139240005Y-76045537D01*
X139240004Y-77585194D01*
X120988998Y-95836201D01*
X120960000Y-95859999D01*
X120936202Y-95888997D01*
X120936201Y-95888998D01*
X120865026Y-95975724D01*
X120794454Y-96107754D01*
X120777089Y-96165002D01*
X120750998Y-96251014D01*
X120747550Y-96286023D01*
X120736324Y-96400000D01*
X120740001Y-96437332D01*
X120740000Y-106511928D01*
X119610000Y-106511928D01*
X119485518Y-106524188D01*
X119365820Y-106560498D01*
X119255506Y-106619463D01*
X119158815Y-106698815D01*
X119079463Y-106795506D01*
X119020498Y-106905820D01*
X118984188Y-107025518D01*
X118971928Y-107150000D01*
X118971928Y-108850000D01*
X118984188Y-108974482D01*
X119020498Y-109094180D01*
X119079463Y-109204494D01*
X119149636Y-109290000D01*
X117534720Y-109290000D01*
X117152984Y-109252571D01*
X116819182Y-109151789D01*
X116511313Y-108988093D01*
X116241103Y-108767716D01*
X116018846Y-108499052D01*
X115853005Y-108192337D01*
X115749896Y-107859246D01*
X115710000Y-107479659D01*
X115710000Y-105422533D01*
X115741377Y-105448284D01*
X115938553Y-105553676D01*
X116152501Y-105618577D01*
X116319248Y-105635000D01*
X116980752Y-105635000D01*
X117147499Y-105618577D01*
X117361447Y-105553676D01*
X117558623Y-105448284D01*
X117731449Y-105306449D01*
X117873284Y-105133623D01*
X117978676Y-104936447D01*
X118043577Y-104722499D01*
X118065491Y-104500000D01*
X118043577Y-104277501D01*
X117978676Y-104063553D01*
X117873284Y-103866377D01*
X117731449Y-103693551D01*
X117558623Y-103551716D01*
X117361447Y-103446324D01*
X117147499Y-103381423D01*
X116980752Y-103365000D01*
X116319248Y-103365000D01*
X116152501Y-103381423D01*
X115938553Y-103446324D01*
X115741377Y-103551716D01*
X115710000Y-103577467D01*
X115710000Y-103295480D01*
X118240000Y-103295480D01*
X118240000Y-103704521D01*
X118256062Y-103867598D01*
X118319532Y-104076834D01*
X118422604Y-104269666D01*
X118561315Y-104438686D01*
X118730335Y-104577396D01*
X118923167Y-104680468D01*
X119132403Y-104743938D01*
X119350000Y-104765370D01*
X119567598Y-104743938D01*
X119776834Y-104680468D01*
X119969666Y-104577396D01*
X120138686Y-104438686D01*
X120277396Y-104269666D01*
X120380468Y-104076833D01*
X120443938Y-103867597D01*
X120460000Y-103704520D01*
X120460000Y-103295479D01*
X120443938Y-103132402D01*
X120380468Y-102923166D01*
X120277396Y-102730334D01*
X120138686Y-102561314D01*
X119969666Y-102422604D01*
X119776833Y-102319532D01*
X119567597Y-102256062D01*
X119350000Y-102234630D01*
X119132402Y-102256062D01*
X118923166Y-102319532D01*
X118730334Y-102422604D01*
X118561314Y-102561314D01*
X118422604Y-102730334D01*
X118319532Y-102923167D01*
X118256062Y-103132403D01*
X118240000Y-103295480D01*
X115710000Y-103295480D01*
X115710000Y-98422533D01*
X115741377Y-98448284D01*
X115938553Y-98553676D01*
X116152501Y-98618577D01*
X116319248Y-98635000D01*
X116980752Y-98635000D01*
X117147499Y-98618577D01*
X117361447Y-98553676D01*
X117558623Y-98448284D01*
X117731449Y-98306449D01*
X117740451Y-98295480D01*
X118240000Y-98295480D01*
X118240000Y-98704521D01*
X118256062Y-98867598D01*
X118319532Y-99076834D01*
X118422604Y-99269666D01*
X118561315Y-99438686D01*
X118730335Y-99577396D01*
X118923167Y-99680468D01*
X119132403Y-99743938D01*
X119350000Y-99765370D01*
X119567598Y-99743938D01*
X119776834Y-99680468D01*
X119969666Y-99577396D01*
X120138686Y-99438686D01*
X120277396Y-99269666D01*
X120380468Y-99076833D01*
X120443938Y-98867597D01*
X120460000Y-98704520D01*
X120460000Y-98295479D01*
X120443938Y-98132402D01*
X120380468Y-97923166D01*
X120277396Y-97730334D01*
X120138686Y-97561314D01*
X119969666Y-97422604D01*
X119776833Y-97319532D01*
X119567597Y-97256062D01*
X119350000Y-97234630D01*
X119132402Y-97256062D01*
X118923166Y-97319532D01*
X118730334Y-97422604D01*
X118561314Y-97561314D01*
X118422604Y-97730334D01*
X118319532Y-97923167D01*
X118256062Y-98132403D01*
X118240000Y-98295480D01*
X117740451Y-98295480D01*
X117873284Y-98133623D01*
X117978676Y-97936447D01*
X118043577Y-97722499D01*
X118065491Y-97500000D01*
X118043577Y-97277501D01*
X117978676Y-97063553D01*
X117873284Y-96866377D01*
X117731449Y-96693551D01*
X117558623Y-96551716D01*
X117361447Y-96446324D01*
X117147499Y-96381423D01*
X116980752Y-96365000D01*
X116319248Y-96365000D01*
X116152501Y-96381423D01*
X115938553Y-96446324D01*
X115741377Y-96551716D01*
X115710000Y-96577467D01*
X115710000Y-75030000D01*
X124151928Y-75030000D01*
X124164188Y-75154482D01*
X124200498Y-75274180D01*
X124259463Y-75384494D01*
X124338815Y-75481185D01*
X124435506Y-75560537D01*
X124545820Y-75619502D01*
X124665518Y-75655812D01*
X124790000Y-75668072D01*
X126254250Y-75665000D01*
X126413000Y-75506250D01*
X126413000Y-73407000D01*
X126667000Y-73407000D01*
X126667000Y-75506250D01*
X126825750Y-75665000D01*
X128290000Y-75668072D01*
X128414482Y-75655812D01*
X128534180Y-75619502D01*
X128644494Y-75560537D01*
X128741185Y-75481185D01*
X128820537Y-75384494D01*
X128879502Y-75274180D01*
X128915812Y-75154482D01*
X128928072Y-75030000D01*
X128925000Y-73565750D01*
X128766250Y-73407000D01*
X126667000Y-73407000D01*
X126413000Y-73407000D01*
X124313750Y-73407000D01*
X124155000Y-73565750D01*
X124151928Y-75030000D01*
X115710000Y-75030000D01*
X115710000Y-70330000D01*
X121151928Y-70330000D01*
X121164188Y-70454482D01*
X121200498Y-70574180D01*
X121259463Y-70684494D01*
X121338815Y-70781185D01*
X121435506Y-70860537D01*
X121545820Y-70919502D01*
X121665518Y-70955812D01*
X121790000Y-70968072D01*
X123254250Y-70965000D01*
X123413000Y-70806250D01*
X123413000Y-68707000D01*
X123667000Y-68707000D01*
X123667000Y-70806250D01*
X123825750Y-70965000D01*
X124497345Y-70966409D01*
X124435506Y-70999463D01*
X124338815Y-71078815D01*
X124259463Y-71175506D01*
X124200498Y-71285820D01*
X124164188Y-71405518D01*
X124151928Y-71530000D01*
X124155000Y-72994250D01*
X124313750Y-73153000D01*
X126413000Y-73153000D01*
X126413000Y-71053750D01*
X126667000Y-71053750D01*
X126667000Y-73153000D01*
X128766250Y-73153000D01*
X128925000Y-72994250D01*
X128928072Y-71530000D01*
X128915812Y-71405518D01*
X128879502Y-71285820D01*
X128820537Y-71175506D01*
X128741185Y-71078815D01*
X128644494Y-70999463D01*
X128585767Y-70968072D01*
X131290000Y-70968072D01*
X131414482Y-70955812D01*
X131534180Y-70919502D01*
X131644494Y-70860537D01*
X131741185Y-70781185D01*
X131820537Y-70684494D01*
X131879502Y-70574180D01*
X131915812Y-70454482D01*
X131928072Y-70330000D01*
X131928072Y-66830000D01*
X131915812Y-66705518D01*
X131879502Y-66585820D01*
X131820537Y-66475506D01*
X131741185Y-66378815D01*
X131644494Y-66299463D01*
X131534180Y-66240498D01*
X131414482Y-66204188D01*
X131290000Y-66191928D01*
X127790000Y-66191928D01*
X127665518Y-66204188D01*
X127545820Y-66240498D01*
X127435506Y-66299463D01*
X127338815Y-66378815D01*
X127259463Y-66475506D01*
X127200498Y-66585820D01*
X127164188Y-66705518D01*
X127151928Y-66830000D01*
X127151928Y-70330000D01*
X127164188Y-70454482D01*
X127200498Y-70574180D01*
X127259463Y-70684494D01*
X127338815Y-70781185D01*
X127435506Y-70860537D01*
X127497345Y-70893591D01*
X126825750Y-70895000D01*
X126667000Y-71053750D01*
X126413000Y-71053750D01*
X126254250Y-70895000D01*
X125582655Y-70893591D01*
X125644494Y-70860537D01*
X125741185Y-70781185D01*
X125820537Y-70684494D01*
X125879502Y-70574180D01*
X125915812Y-70454482D01*
X125928072Y-70330000D01*
X125925000Y-68865750D01*
X125766250Y-68707000D01*
X123667000Y-68707000D01*
X123413000Y-68707000D01*
X121313750Y-68707000D01*
X121155000Y-68865750D01*
X121151928Y-70330000D01*
X115710000Y-70330000D01*
X115710000Y-66830000D01*
X121151928Y-66830000D01*
X121155000Y-68294250D01*
X121313750Y-68453000D01*
X123413000Y-68453000D01*
X123413000Y-66353750D01*
X123667000Y-66353750D01*
X123667000Y-68453000D01*
X125766250Y-68453000D01*
X125925000Y-68294250D01*
X125928072Y-66830000D01*
X125915812Y-66705518D01*
X125879502Y-66585820D01*
X125820537Y-66475506D01*
X125741185Y-66378815D01*
X125644494Y-66299463D01*
X125534180Y-66240498D01*
X125414482Y-66204188D01*
X125290000Y-66191928D01*
X123825750Y-66195000D01*
X123667000Y-66353750D01*
X123413000Y-66353750D01*
X123254250Y-66195000D01*
X121790000Y-66191928D01*
X121665518Y-66204188D01*
X121545820Y-66240498D01*
X121435506Y-66299463D01*
X121338815Y-66378815D01*
X121259463Y-66475506D01*
X121200498Y-66585820D01*
X121164188Y-66705518D01*
X121151928Y-66830000D01*
X115710000Y-66830000D01*
X115710000Y-65534721D01*
X115747430Y-65152982D01*
X115848211Y-64819181D01*
X116011907Y-64511313D01*
X116232284Y-64241104D01*
X116500952Y-64018843D01*
X116807663Y-63853005D01*
X117140753Y-63749896D01*
X117520341Y-63710000D01*
X189965279Y-63710000D01*
X190347018Y-63747430D01*
X190347018Y-63747430D01*
G37*
X190347018Y-63747430D02*
X190680819Y-63848211D01*
X190988687Y-64011907D01*
X191258896Y-64232284D01*
X191481157Y-64500952D01*
X191646995Y-64807663D01*
X191750104Y-65140753D01*
X191790000Y-65520341D01*
X191790001Y-107465270D01*
X191752571Y-107847016D01*
X191651789Y-108180818D01*
X191488093Y-108488687D01*
X191267716Y-108758897D01*
X190999052Y-108981154D01*
X190692337Y-109146995D01*
X190359246Y-109250104D01*
X189979659Y-109290000D01*
X150276791Y-109290000D01*
X150369014Y-109240706D01*
X150595134Y-109055134D01*
X150780706Y-108829014D01*
X150918599Y-108571034D01*
X151003513Y-108291111D01*
X151032185Y-108000000D01*
X151003513Y-107708889D01*
X150918599Y-107428966D01*
X150780706Y-107170986D01*
X150722450Y-107100000D01*
X168641928Y-107100000D01*
X168654188Y-107224482D01*
X168690498Y-107344180D01*
X168749463Y-107454494D01*
X168828815Y-107551185D01*
X168925506Y-107630537D01*
X169035820Y-107689502D01*
X169155518Y-107725812D01*
X169280000Y-107738072D01*
X169844250Y-107735000D01*
X170003000Y-107576250D01*
X170003000Y-106377000D01*
X168803750Y-106377000D01*
X168645000Y-106535750D01*
X168641928Y-107100000D01*
X150722450Y-107100000D01*
X150595134Y-106944866D01*
X150369014Y-106759294D01*
X150111034Y-106621401D01*
X149831111Y-106536487D01*
X149612950Y-106515000D01*
X149467050Y-106515000D01*
X149248889Y-106536487D01*
X149174005Y-106559203D01*
X145022713Y-102407911D01*
X153815000Y-102407911D01*
X153815000Y-102592089D01*
X153850932Y-102772729D01*
X153921414Y-102942889D01*
X154023738Y-103096028D01*
X154153972Y-103226262D01*
X154307111Y-103328586D01*
X154477271Y-103399068D01*
X154657911Y-103435000D01*
X154842089Y-103435000D01*
X155022729Y-103399068D01*
X155192889Y-103328586D01*
X155295535Y-103260000D01*
X155915198Y-103260000D01*
X155348351Y-103826847D01*
X155227271Y-103850932D01*
X155057111Y-103921414D01*
X154903972Y-104023738D01*
X154773738Y-104153972D01*
X154671414Y-104307111D01*
X154600932Y-104477271D01*
X154565000Y-104657911D01*
X154565000Y-104842089D01*
X154600932Y-105022729D01*
X154671414Y-105192889D01*
X154773738Y-105346028D01*
X154903972Y-105476262D01*
X155057111Y-105578586D01*
X155227271Y-105649068D01*
X155407911Y-105685000D01*
X155592089Y-105685000D01*
X155772729Y-105649068D01*
X155942889Y-105578586D01*
X156096028Y-105476262D01*
X156172290Y-105400000D01*
X168641928Y-105400000D01*
X168645000Y-105964250D01*
X168803750Y-106123000D01*
X170003000Y-106123000D01*
X170003000Y-104923750D01*
X170257000Y-104923750D01*
X170257000Y-106123000D01*
X170277000Y-106123000D01*
X170277000Y-106377000D01*
X170257000Y-106377000D01*
X170257000Y-107576250D01*
X170415750Y-107735000D01*
X170980000Y-107738072D01*
X171104482Y-107725812D01*
X171224180Y-107689502D01*
X171334494Y-107630537D01*
X171431185Y-107551185D01*
X171510537Y-107454494D01*
X171569502Y-107344180D01*
X171590393Y-107275313D01*
X171614866Y-107305134D01*
X171840986Y-107490706D01*
X172098966Y-107628599D01*
X172378889Y-107713513D01*
X172597050Y-107735000D01*
X172742950Y-107735000D01*
X172961111Y-107713513D01*
X173241034Y-107628599D01*
X173499014Y-107490706D01*
X173725134Y-107305134D01*
X173910706Y-107079014D01*
X173940000Y-107024209D01*
X173969294Y-107079014D01*
X174154866Y-107305134D01*
X174380986Y-107490706D01*
X174638966Y-107628599D01*
X174918889Y-107713513D01*
X175137050Y-107735000D01*
X175282950Y-107735000D01*
X175501111Y-107713513D01*
X175781034Y-107628599D01*
X176039014Y-107490706D01*
X176265134Y-107305134D01*
X176450706Y-107079014D01*
X176480000Y-107024209D01*
X176509294Y-107079014D01*
X176694866Y-107305134D01*
X176920986Y-107490706D01*
X177178966Y-107628599D01*
X177458889Y-107713513D01*
X177677050Y-107735000D01*
X177822950Y-107735000D01*
X178041111Y-107713513D01*
X178321034Y-107628599D01*
X178579014Y-107490706D01*
X178805134Y-107305134D01*
X178990706Y-107079014D01*
X179128599Y-106821034D01*
X179213513Y-106541111D01*
X179242185Y-106250000D01*
X179213513Y-105958889D01*
X179128599Y-105678966D01*
X178990706Y-105420986D01*
X178805134Y-105194866D01*
X178579014Y-105009294D01*
X178321034Y-104871401D01*
X178041111Y-104786487D01*
X177822950Y-104765000D01*
X177677050Y-104765000D01*
X177458889Y-104786487D01*
X177178966Y-104871401D01*
X176920986Y-105009294D01*
X176694866Y-105194866D01*
X176509294Y-105420986D01*
X176480000Y-105475791D01*
X176450706Y-105420986D01*
X176265134Y-105194866D01*
X176039014Y-105009294D01*
X175781034Y-104871401D01*
X175501111Y-104786487D01*
X175282950Y-104765000D01*
X175137050Y-104765000D01*
X174918889Y-104786487D01*
X174638966Y-104871401D01*
X174380986Y-105009294D01*
X174154866Y-105194866D01*
X173969294Y-105420986D01*
X173940000Y-105475791D01*
X173910706Y-105420986D01*
X173725134Y-105194866D01*
X173499014Y-105009294D01*
X173241034Y-104871401D01*
X172961111Y-104786487D01*
X172742950Y-104765000D01*
X172597050Y-104765000D01*
X172378889Y-104786487D01*
X172098966Y-104871401D01*
X171840986Y-105009294D01*
X171614866Y-105194866D01*
X171590393Y-105224687D01*
X171569502Y-105155820D01*
X171510537Y-105045506D01*
X171431185Y-104948815D01*
X171334494Y-104869463D01*
X171224180Y-104810498D01*
X171104482Y-104774188D01*
X170980000Y-104761928D01*
X170415750Y-104765000D01*
X170257000Y-104923750D01*
X170003000Y-104923750D01*
X169844250Y-104765000D01*
X169280000Y-104761928D01*
X169155518Y-104774188D01*
X169035820Y-104810498D01*
X168925506Y-104869463D01*
X168828815Y-104948815D01*
X168749463Y-105045506D01*
X168690498Y-105155820D01*
X168654188Y-105275518D01*
X168641928Y-105400000D01*
X156172290Y-105400000D01*
X156226262Y-105346028D01*
X156328586Y-105192889D01*
X156399068Y-105022729D01*
X156423153Y-104901649D01*
X157564802Y-103760000D01*
X164065000Y-103760000D01*
X164065000Y-103842089D01*
X164100932Y-104022729D01*
X164171414Y-104192889D01*
X164273738Y-104346028D01*
X164403972Y-104476262D01*
X164557111Y-104578586D01*
X164727271Y-104649068D01*
X164907911Y-104685000D01*
X165092089Y-104685000D01*
X165272729Y-104649068D01*
X165442889Y-104578586D01*
X165545535Y-104510000D01*
X179462678Y-104510000D01*
X179500000Y-104513676D01*
X179537322Y-104510000D01*
X179537333Y-104510000D01*
X179648986Y-104499003D01*
X179792247Y-104455546D01*
X179924276Y-104384974D01*
X180040001Y-104290001D01*
X180063804Y-104260997D01*
X183901649Y-100423153D01*
X184022729Y-100399068D01*
X184192889Y-100328586D01*
X184346028Y-100226262D01*
X184476262Y-100096028D01*
X184578586Y-99942889D01*
X184649068Y-99772729D01*
X184685000Y-99592089D01*
X184685000Y-99407911D01*
X184649068Y-99227271D01*
X184578586Y-99057111D01*
X184476262Y-98903972D01*
X184346028Y-98773738D01*
X184192889Y-98671414D01*
X184022729Y-98600932D01*
X183842089Y-98565000D01*
X183657911Y-98565000D01*
X183477271Y-98600932D01*
X183307111Y-98671414D01*
X183250000Y-98709574D01*
X183192889Y-98671414D01*
X183022729Y-98600932D01*
X182842089Y-98565000D01*
X182657911Y-98565000D01*
X182477271Y-98600932D01*
X182307111Y-98671414D01*
X182153972Y-98773738D01*
X182125000Y-98802710D01*
X182096028Y-98773738D01*
X181942889Y-98671414D01*
X181772729Y-98600932D01*
X181592089Y-98565000D01*
X181407911Y-98565000D01*
X181227271Y-98600932D01*
X181057111Y-98671414D01*
X180903972Y-98773738D01*
X180773738Y-98903972D01*
X180671414Y-99057111D01*
X180600932Y-99227271D01*
X180576847Y-99348351D01*
X178185199Y-101740000D01*
X155295535Y-101740000D01*
X155192889Y-101671414D01*
X155022729Y-101600932D01*
X154842089Y-101565000D01*
X154657911Y-101565000D01*
X154477271Y-101600932D01*
X154307111Y-101671414D01*
X154153972Y-101773738D01*
X154023738Y-101903972D01*
X153921414Y-102057111D01*
X153850932Y-102227271D01*
X153815000Y-102407911D01*
X145022713Y-102407911D01*
X143115000Y-100500199D01*
X143115000Y-100045535D01*
X143183586Y-99942889D01*
X143254068Y-99772729D01*
X143290000Y-99592089D01*
X143290000Y-99407911D01*
X143254068Y-99227271D01*
X143183586Y-99057111D01*
X143081262Y-98903972D01*
X142951028Y-98773738D01*
X142797889Y-98671414D01*
X142627729Y-98600932D01*
X142506649Y-98576847D01*
X142460009Y-98530208D01*
X142460009Y-98157911D01*
X144565000Y-98157911D01*
X144565000Y-98342089D01*
X144600932Y-98522729D01*
X144671414Y-98692889D01*
X144773738Y-98846028D01*
X144903972Y-98976262D01*
X145057111Y-99078586D01*
X145227271Y-99149068D01*
X145407911Y-99185000D01*
X145592089Y-99185000D01*
X145772729Y-99149068D01*
X145942889Y-99078586D01*
X146045535Y-99010000D01*
X167337688Y-99010000D01*
X167375010Y-99013676D01*
X167412332Y-99010000D01*
X167412343Y-99010000D01*
X167523996Y-98999003D01*
X167667257Y-98955546D01*
X167799286Y-98884974D01*
X167915011Y-98790001D01*
X167938814Y-98760997D01*
X177313761Y-89386051D01*
X177403972Y-89476262D01*
X177557111Y-89578586D01*
X177727271Y-89649068D01*
X177907911Y-89685000D01*
X178092089Y-89685000D01*
X178272729Y-89649068D01*
X178442889Y-89578586D01*
X178546954Y-89509052D01*
X178648986Y-89499003D01*
X178792247Y-89455546D01*
X178924276Y-89384974D01*
X179040001Y-89290001D01*
X179063804Y-89260997D01*
X186011004Y-82313798D01*
X186040001Y-82290001D01*
X186090403Y-82228586D01*
X186134974Y-82174277D01*
X186205546Y-82042247D01*
X186219571Y-81996011D01*
X186249003Y-81898986D01*
X186260000Y-81787333D01*
X186260000Y-81787323D01*
X186263676Y-81750000D01*
X186260000Y-81712677D01*
X186260000Y-80951211D01*
X190511004Y-76700208D01*
X190540001Y-76676411D01*
X190572251Y-76637114D01*
X190634974Y-76560687D01*
X190705546Y-76428657D01*
X190705546Y-76428656D01*
X190749003Y-76285396D01*
X190760000Y-76173743D01*
X190760000Y-76173734D01*
X190763676Y-76136411D01*
X190760000Y-76099088D01*
X190760000Y-73037323D01*
X190763676Y-73000000D01*
X190760000Y-72962677D01*
X190760000Y-72962667D01*
X190749003Y-72851014D01*
X190705546Y-72707753D01*
X190682707Y-72665025D01*
X190634974Y-72575723D01*
X190563799Y-72488997D01*
X190540001Y-72459999D01*
X190511003Y-72436201D01*
X189510000Y-71435199D01*
X189510000Y-67045535D01*
X189578586Y-66942889D01*
X189649068Y-66772729D01*
X189685000Y-66592089D01*
X189685000Y-66407911D01*
X189649068Y-66227271D01*
X189578586Y-66057111D01*
X189476262Y-65903972D01*
X189346028Y-65773738D01*
X189192889Y-65671414D01*
X189022729Y-65600932D01*
X188842089Y-65565000D01*
X188657911Y-65565000D01*
X188477271Y-65600932D01*
X188307111Y-65671414D01*
X188153972Y-65773738D01*
X188023738Y-65903972D01*
X187921414Y-66057111D01*
X187850932Y-66227271D01*
X187815000Y-66407911D01*
X187815000Y-66592089D01*
X187850932Y-66772729D01*
X187921414Y-66942889D01*
X187990001Y-67045537D01*
X187990000Y-71712677D01*
X187986324Y-71750000D01*
X187990000Y-71787322D01*
X187990000Y-71787332D01*
X188000997Y-71898985D01*
X188044454Y-72042246D01*
X188115026Y-72174276D01*
X188154871Y-72222826D01*
X188209999Y-72290001D01*
X188239003Y-72313804D01*
X188301454Y-72376256D01*
X188273738Y-72403972D01*
X188171414Y-72557111D01*
X188100932Y-72727271D01*
X188065000Y-72907911D01*
X188065000Y-73092089D01*
X188100932Y-73272729D01*
X188171414Y-73442889D01*
X188273738Y-73596028D01*
X188403972Y-73726262D01*
X188557111Y-73828586D01*
X188727271Y-73899068D01*
X188789990Y-73911544D01*
X188789990Y-74573534D01*
X188652250Y-74600932D01*
X188482090Y-74671414D01*
X188328951Y-74773738D01*
X188198717Y-74903972D01*
X188096393Y-75057111D01*
X188025911Y-75227271D01*
X188001827Y-75348349D01*
X179610178Y-83740000D01*
X175545529Y-83740000D01*
X175442883Y-83671414D01*
X175272723Y-83600932D01*
X175092083Y-83565000D01*
X174907905Y-83565000D01*
X174727265Y-83600932D01*
X174557105Y-83671414D01*
X174403966Y-83773738D01*
X174273732Y-83903972D01*
X174171408Y-84057111D01*
X174100926Y-84227271D01*
X174064994Y-84407911D01*
X174064994Y-84592089D01*
X174100926Y-84772729D01*
X174171408Y-84942889D01*
X174273732Y-85096028D01*
X174403966Y-85226262D01*
X174557105Y-85328586D01*
X174727265Y-85399068D01*
X174907905Y-85435000D01*
X175092083Y-85435000D01*
X175272723Y-85399068D01*
X175442883Y-85328586D01*
X175545529Y-85260000D01*
X175606492Y-85260000D01*
X175633890Y-85397739D01*
X175704372Y-85567899D01*
X175806696Y-85721038D01*
X175936930Y-85851272D01*
X176090069Y-85953596D01*
X176260229Y-86024078D01*
X176440869Y-86060010D01*
X176625047Y-86060010D01*
X176805687Y-86024078D01*
X176975847Y-85953596D01*
X177093006Y-85875313D01*
X177106208Y-85874013D01*
X177249469Y-85830556D01*
X177381498Y-85759984D01*
X177442390Y-85710011D01*
X178840197Y-85710011D01*
X167060209Y-97490000D01*
X146045535Y-97490000D01*
X145942889Y-97421414D01*
X145772729Y-97350932D01*
X145592089Y-97315000D01*
X145407911Y-97315000D01*
X145227271Y-97350932D01*
X145057111Y-97421414D01*
X144903972Y-97523738D01*
X144773738Y-97653972D01*
X144671414Y-97807111D01*
X144600932Y-97977271D01*
X144565000Y-98157911D01*
X142460009Y-98157911D01*
X142460009Y-96100921D01*
X142463685Y-96063598D01*
X142460009Y-96026275D01*
X142460009Y-96026266D01*
X142449012Y-95914613D01*
X142405555Y-95771352D01*
X142334983Y-95639323D01*
X142240010Y-95523598D01*
X142211006Y-95499795D01*
X141985031Y-95273820D01*
X141985031Y-93191043D01*
X142147889Y-93123586D01*
X142301028Y-93021262D01*
X142431262Y-92891028D01*
X142533586Y-92737889D01*
X142604068Y-92567729D01*
X142640000Y-92387089D01*
X142640000Y-92202911D01*
X142604068Y-92022271D01*
X142556693Y-91907895D01*
X145065000Y-91907895D01*
X145065000Y-92092073D01*
X145100932Y-92272713D01*
X145171414Y-92442873D01*
X145209580Y-92499992D01*
X145171414Y-92557111D01*
X145100932Y-92727271D01*
X145065000Y-92907911D01*
X145065000Y-93092089D01*
X145100932Y-93272729D01*
X145171414Y-93442889D01*
X145273738Y-93596028D01*
X145403972Y-93726262D01*
X145557111Y-93828586D01*
X145727271Y-93899068D01*
X145907911Y-93935000D01*
X146092089Y-93935000D01*
X146272729Y-93899068D01*
X146442889Y-93828586D01*
X146545535Y-93760000D01*
X166212678Y-93760000D01*
X166250000Y-93763676D01*
X166287322Y-93760000D01*
X166287333Y-93760000D01*
X166398986Y-93749003D01*
X166542247Y-93705546D01*
X166674276Y-93634974D01*
X166790001Y-93540001D01*
X166813804Y-93510997D01*
X168401649Y-91923153D01*
X168522729Y-91899068D01*
X168692889Y-91828586D01*
X168846028Y-91726262D01*
X168976262Y-91596028D01*
X169078586Y-91442889D01*
X169149068Y-91272729D01*
X169185000Y-91092089D01*
X169185000Y-90907911D01*
X169149068Y-90727271D01*
X169078586Y-90557111D01*
X168976262Y-90403972D01*
X168947290Y-90375000D01*
X168976262Y-90346028D01*
X169078586Y-90192889D01*
X169149068Y-90022729D01*
X169185000Y-89842089D01*
X169185000Y-89657911D01*
X169149068Y-89477271D01*
X169078586Y-89307111D01*
X168976262Y-89153972D01*
X168846028Y-89023738D01*
X168692889Y-88921414D01*
X168522729Y-88850932D01*
X168342089Y-88815000D01*
X168157911Y-88815000D01*
X167977271Y-88850932D01*
X167807111Y-88921414D01*
X167653972Y-89023738D01*
X167523738Y-89153972D01*
X167421414Y-89307111D01*
X167350932Y-89477271D01*
X167326847Y-89598351D01*
X165685215Y-91239984D01*
X146545535Y-91239984D01*
X146442889Y-91171398D01*
X146272729Y-91100916D01*
X146092089Y-91064984D01*
X145907911Y-91064984D01*
X145727271Y-91100916D01*
X145557111Y-91171398D01*
X145403972Y-91273722D01*
X145273738Y-91403956D01*
X145171414Y-91557095D01*
X145100932Y-91727255D01*
X145065000Y-91907895D01*
X142556693Y-91907895D01*
X142533586Y-91852111D01*
X142431262Y-91698972D01*
X142346751Y-91614461D01*
X146551190Y-87410022D01*
X170085478Y-87410022D01*
X170122800Y-87413698D01*
X170160122Y-87410022D01*
X170160133Y-87410022D01*
X170271786Y-87399025D01*
X170415047Y-87355568D01*
X170547076Y-87284996D01*
X170662801Y-87190023D01*
X170686604Y-87161019D01*
X172911025Y-84936599D01*
X172940023Y-84912801D01*
X173034996Y-84797076D01*
X173105568Y-84665047D01*
X173149025Y-84521786D01*
X173160022Y-84410133D01*
X173160022Y-84410124D01*
X173163698Y-84372801D01*
X173160022Y-84335478D01*
X173160022Y-79800934D01*
X173163698Y-79763611D01*
X173160022Y-79726288D01*
X173160022Y-79726279D01*
X173149025Y-79614626D01*
X173105568Y-79471365D01*
X173067967Y-79401019D01*
X173034996Y-79339335D01*
X172963821Y-79252609D01*
X172940023Y-79223611D01*
X172911026Y-79199814D01*
X167325208Y-73613997D01*
X167301412Y-73585001D01*
X167258749Y-73549988D01*
X167185687Y-73490027D01*
X167053657Y-73419455D01*
X166953853Y-73389181D01*
X166910397Y-73375999D01*
X166798744Y-73365002D01*
X166761411Y-73361325D01*
X166724080Y-73365002D01*
X165939802Y-73365001D01*
X165921513Y-73346712D01*
X173122893Y-73346712D01*
X173230726Y-73621338D01*
X173537384Y-73772216D01*
X173867585Y-73860369D01*
X174208639Y-73882409D01*
X174547439Y-73837489D01*
X174870966Y-73727336D01*
X175069274Y-73621338D01*
X175177107Y-73346712D01*
X178202893Y-73346712D01*
X178310726Y-73621338D01*
X178617384Y-73772216D01*
X178947585Y-73860369D01*
X179288639Y-73882409D01*
X179627439Y-73837489D01*
X179950966Y-73727336D01*
X180149274Y-73621338D01*
X180257107Y-73346712D01*
X179230000Y-72319605D01*
X178202893Y-73346712D01*
X175177107Y-73346712D01*
X174150000Y-72319605D01*
X173122893Y-73346712D01*
X165921513Y-73346712D01*
X163923153Y-71348352D01*
X163899068Y-71227271D01*
X163828586Y-71057111D01*
X163726262Y-70903972D01*
X163596028Y-70773738D01*
X163442889Y-70671414D01*
X163272729Y-70600932D01*
X163092089Y-70565000D01*
X162907911Y-70565000D01*
X162727271Y-70600932D01*
X162557111Y-70671414D01*
X162403972Y-70773738D01*
X162273738Y-70903972D01*
X162171414Y-71057111D01*
X162100932Y-71227271D01*
X162065000Y-71407911D01*
X162065000Y-71592089D01*
X162100932Y-71772729D01*
X162171414Y-71942889D01*
X162273738Y-72096028D01*
X162403972Y-72226262D01*
X162557111Y-72328586D01*
X162727271Y-72399068D01*
X162848352Y-72423153D01*
X163165199Y-72740000D01*
X159445535Y-72740000D01*
X159342889Y-72671414D01*
X159172729Y-72600932D01*
X158992089Y-72565000D01*
X158807911Y-72565000D01*
X158627271Y-72600932D01*
X158457111Y-72671414D01*
X158303972Y-72773738D01*
X158173738Y-72903972D01*
X158071414Y-73057111D01*
X158000932Y-73227271D01*
X157965000Y-73407911D01*
X157965000Y-73592089D01*
X158000932Y-73772729D01*
X158071414Y-73942889D01*
X158173738Y-74096028D01*
X158303972Y-74226262D01*
X158457111Y-74328586D01*
X158627271Y-74399068D01*
X158807911Y-74435000D01*
X158992089Y-74435000D01*
X159172729Y-74399068D01*
X159342889Y-74328586D01*
X159445535Y-74260000D01*
X163985199Y-74260000D01*
X164811210Y-75086012D01*
X164835009Y-75115011D01*
X164950734Y-75209984D01*
X165082763Y-75280556D01*
X165226024Y-75324013D01*
X165337677Y-75335010D01*
X165337685Y-75335010D01*
X165375010Y-75338686D01*
X165412335Y-75335010D01*
X166260209Y-75335010D01*
X170335043Y-79409844D01*
X170307111Y-79421414D01*
X170153972Y-79523738D01*
X170023738Y-79653972D01*
X169921414Y-79807111D01*
X169850932Y-79977271D01*
X169815000Y-80157911D01*
X169815000Y-80342089D01*
X169850932Y-80522729D01*
X169921414Y-80692889D01*
X170023738Y-80846028D01*
X170153972Y-80976262D01*
X170307111Y-81078586D01*
X170477271Y-81149068D01*
X170598351Y-81173153D01*
X170740000Y-81314802D01*
X170740001Y-83685197D01*
X169435199Y-84990000D01*
X163331437Y-84990000D01*
X163299068Y-84827271D01*
X163228586Y-84657111D01*
X163126262Y-84503972D01*
X162996028Y-84373738D01*
X162842889Y-84271414D01*
X162672729Y-84200932D01*
X162492089Y-84165000D01*
X162307911Y-84165000D01*
X162127271Y-84200932D01*
X161957111Y-84271414D01*
X161854465Y-84340000D01*
X159614802Y-84340000D01*
X159163803Y-83889002D01*
X159140001Y-83859999D01*
X159024276Y-83765026D01*
X158892247Y-83694454D01*
X158748986Y-83650997D01*
X158637333Y-83640000D01*
X158637322Y-83640000D01*
X158600000Y-83636324D01*
X158562678Y-83640000D01*
X157737323Y-83640000D01*
X157700000Y-83636324D01*
X157662677Y-83640000D01*
X157662667Y-83640000D01*
X157551014Y-83650997D01*
X157407753Y-83694454D01*
X157275723Y-83765026D01*
X157239866Y-83794454D01*
X157159999Y-83859999D01*
X157136196Y-83889003D01*
X156935209Y-84089990D01*
X146864792Y-84089990D01*
X145360000Y-82585199D01*
X145360000Y-82263589D01*
X147365000Y-82263589D01*
X147365000Y-82536411D01*
X147418225Y-82803989D01*
X147522629Y-83056043D01*
X147674201Y-83282886D01*
X147867114Y-83475799D01*
X148093957Y-83627371D01*
X148346011Y-83731775D01*
X148613589Y-83785000D01*
X148886411Y-83785000D01*
X149153989Y-83731775D01*
X149406043Y-83627371D01*
X149632886Y-83475799D01*
X149825799Y-83282886D01*
X149977371Y-83056043D01*
X150081775Y-82803989D01*
X150135000Y-82536411D01*
X150135000Y-82263589D01*
X150081775Y-81996011D01*
X149977371Y-81743957D01*
X149825799Y-81517114D01*
X149632886Y-81324201D01*
X149406043Y-81172629D01*
X149153989Y-81068225D01*
X148886411Y-81015000D01*
X148613589Y-81015000D01*
X148346011Y-81068225D01*
X148093957Y-81172629D01*
X147867114Y-81324201D01*
X147674201Y-81517114D01*
X147522629Y-81743957D01*
X147418225Y-81996011D01*
X147365000Y-82263589D01*
X145360000Y-82263589D01*
X145360000Y-81945535D01*
X145428586Y-81842889D01*
X145499068Y-81672729D01*
X145535000Y-81492089D01*
X145535000Y-81307911D01*
X145499068Y-81127271D01*
X145428586Y-80957111D01*
X145326262Y-80803972D01*
X145196028Y-80673738D01*
X145042889Y-80571414D01*
X144872729Y-80500932D01*
X144692089Y-80465000D01*
X144507911Y-80465000D01*
X144327271Y-80500932D01*
X144157111Y-80571414D01*
X144003972Y-80673738D01*
X143873738Y-80803972D01*
X143771414Y-80957111D01*
X143700932Y-81127271D01*
X143665000Y-81307911D01*
X143665000Y-81492089D01*
X143700932Y-81672729D01*
X143771414Y-81842889D01*
X143840001Y-81945536D01*
X143840000Y-82862677D01*
X143836324Y-82900000D01*
X143840000Y-82937322D01*
X143840000Y-82937332D01*
X143850997Y-83048985D01*
X143894454Y-83192246D01*
X143965026Y-83324276D01*
X143998469Y-83365026D01*
X144059999Y-83440001D01*
X144089003Y-83463804D01*
X145205245Y-84580047D01*
X145157754Y-84594453D01*
X145025725Y-84665025D01*
X144910000Y-84759998D01*
X144886202Y-84788996D01*
X137988998Y-91686201D01*
X137960000Y-91709999D01*
X137936202Y-91738997D01*
X137936201Y-91738998D01*
X137865026Y-91825724D01*
X137794454Y-91957754D01*
X137781337Y-92000997D01*
X137753706Y-92092089D01*
X137750998Y-92101015D01*
X137736324Y-92250000D01*
X137740001Y-92287332D01*
X137740000Y-95212667D01*
X137740000Y-96191835D01*
X137740001Y-96191844D01*
X137740000Y-100049507D01*
X137622729Y-100000932D01*
X137442089Y-99965000D01*
X137257911Y-99965000D01*
X137077271Y-100000932D01*
X136907111Y-100071414D01*
X136753972Y-100173738D01*
X136623738Y-100303972D01*
X136521414Y-100457111D01*
X136450932Y-100627271D01*
X136415000Y-100807911D01*
X136415000Y-100992089D01*
X136450932Y-101172729D01*
X136521414Y-101342889D01*
X136623738Y-101496028D01*
X136753972Y-101626262D01*
X136907111Y-101728586D01*
X137077271Y-101799068D01*
X137195747Y-101822635D01*
X137209998Y-101840000D01*
X137294766Y-101909567D01*
X137936206Y-102551009D01*
X137959999Y-102580001D01*
X137988992Y-102603795D01*
X137988996Y-102603799D01*
X137989007Y-102603808D01*
X141900198Y-106515000D01*
X141792998Y-106515000D01*
X141792998Y-106673748D01*
X141634250Y-106515000D01*
X141070000Y-106511928D01*
X140945518Y-106524188D01*
X140825820Y-106560498D01*
X140715506Y-106619463D01*
X140618815Y-106698815D01*
X140539463Y-106795506D01*
X140480498Y-106905820D01*
X140444188Y-107025518D01*
X140431928Y-107150000D01*
X140435000Y-107714250D01*
X140593750Y-107873000D01*
X141793000Y-107873000D01*
X141793000Y-107853000D01*
X142047000Y-107853000D01*
X142047000Y-107873000D01*
X142067000Y-107873000D01*
X142067000Y-108127000D01*
X142047000Y-108127000D01*
X142047000Y-108147000D01*
X141793000Y-108147000D01*
X141793000Y-108127000D01*
X140593750Y-108127000D01*
X140435000Y-108285750D01*
X140431928Y-108850000D01*
X140444188Y-108974482D01*
X140480498Y-109094180D01*
X140539463Y-109204494D01*
X140609636Y-109290000D01*
X139310364Y-109290000D01*
X139380537Y-109204494D01*
X139439502Y-109094180D01*
X139475812Y-108974482D01*
X139488072Y-108850000D01*
X139488072Y-107150000D01*
X139475812Y-107025518D01*
X139439502Y-106905820D01*
X139380537Y-106795506D01*
X139301185Y-106698815D01*
X139204494Y-106619463D01*
X139094180Y-106560498D01*
X138974482Y-106524188D01*
X138850000Y-106511928D01*
X138654326Y-106511928D01*
X138653289Y-106509988D01*
X138634974Y-106475723D01*
X138563799Y-106388997D01*
X138540001Y-106359999D01*
X138511003Y-106336201D01*
X132884999Y-100710198D01*
X132884999Y-95939802D01*
X135151649Y-93673153D01*
X135272729Y-93649068D01*
X135442889Y-93578586D01*
X135596028Y-93476262D01*
X135726262Y-93346028D01*
X135828586Y-93192889D01*
X135899068Y-93022729D01*
X135935000Y-92842089D01*
X135935000Y-92657911D01*
X135899068Y-92477271D01*
X135828586Y-92307111D01*
X135726262Y-92153972D01*
X135596028Y-92023738D01*
X135442889Y-91921414D01*
X135435000Y-91918146D01*
X135435000Y-91907911D01*
X135399068Y-91727271D01*
X135328586Y-91557111D01*
X135226262Y-91403972D01*
X135096028Y-91273738D01*
X134942889Y-91171414D01*
X134772729Y-91100932D01*
X134592089Y-91065000D01*
X134407911Y-91065000D01*
X134227271Y-91100932D01*
X134057111Y-91171414D01*
X133903972Y-91273738D01*
X133773738Y-91403972D01*
X133671414Y-91557111D01*
X133600932Y-91727271D01*
X133576847Y-91848351D01*
X131163987Y-94261212D01*
X131134989Y-94285010D01*
X131111191Y-94314008D01*
X131111190Y-94314009D01*
X131040015Y-94400735D01*
X130969443Y-94532765D01*
X130939169Y-94632569D01*
X130925987Y-94676025D01*
X130922641Y-94709999D01*
X130911313Y-94825011D01*
X130914990Y-94862343D01*
X130914989Y-104177667D01*
X130911313Y-104214989D01*
X130914989Y-104252311D01*
X130914989Y-104252321D01*
X130925986Y-104363974D01*
X130956230Y-104463676D01*
X130969443Y-104507235D01*
X131040015Y-104639265D01*
X131055318Y-104657911D01*
X131134988Y-104754990D01*
X131163992Y-104778793D01*
X132900199Y-106515000D01*
X132792998Y-106515000D01*
X132792998Y-106679844D01*
X132563110Y-106558524D01*
X132415901Y-106603175D01*
X132153080Y-106728359D01*
X131919731Y-106902412D01*
X131724822Y-107118645D01*
X131655201Y-107235523D01*
X131620706Y-107170986D01*
X131435134Y-106944866D01*
X131209014Y-106759294D01*
X130951034Y-106621401D01*
X130671111Y-106536487D01*
X130452950Y-106515000D01*
X130307050Y-106515000D01*
X130088889Y-106536487D01*
X129808966Y-106621401D01*
X129550986Y-106759294D01*
X129324866Y-106944866D01*
X129139294Y-107170986D01*
X129001401Y-107428966D01*
X128916487Y-107708889D01*
X128887815Y-108000000D01*
X128916487Y-108291111D01*
X129001401Y-108571034D01*
X129139294Y-108829014D01*
X129324866Y-109055134D01*
X129550986Y-109240706D01*
X129643209Y-109290000D01*
X126276791Y-109290000D01*
X126369014Y-109240706D01*
X126595134Y-109055134D01*
X126780706Y-108829014D01*
X126918599Y-108571034D01*
X127003513Y-108291111D01*
X127032185Y-108000000D01*
X127003513Y-107708889D01*
X126918599Y-107428966D01*
X126780706Y-107170986D01*
X126595134Y-106944866D01*
X126369014Y-106759294D01*
X126111034Y-106621401D01*
X125831111Y-106536487D01*
X125612950Y-106515000D01*
X125467050Y-106515000D01*
X125248889Y-106536487D01*
X125174005Y-106559203D01*
X123260000Y-104645199D01*
X123260000Y-102779872D01*
X123765000Y-102779872D01*
X123765000Y-103220128D01*
X123850890Y-103651925D01*
X124019369Y-104058669D01*
X124263962Y-104424729D01*
X124575271Y-104736038D01*
X124941331Y-104980631D01*
X125348075Y-105149110D01*
X125779872Y-105235000D01*
X126220128Y-105235000D01*
X126651925Y-105149110D01*
X127058669Y-104980631D01*
X127424729Y-104736038D01*
X127736038Y-104424729D01*
X127980631Y-104058669D01*
X128149110Y-103651925D01*
X128235000Y-103220128D01*
X128235000Y-102779872D01*
X128149110Y-102348075D01*
X127980631Y-101941331D01*
X127736038Y-101575271D01*
X127424729Y-101263962D01*
X127058669Y-101019369D01*
X126651925Y-100850890D01*
X126220128Y-100765000D01*
X125779872Y-100765000D01*
X125348075Y-100850890D01*
X124941331Y-101019369D01*
X124575271Y-101263962D01*
X124263962Y-101575271D01*
X124019369Y-101941331D01*
X123850890Y-102348075D01*
X123765000Y-102779872D01*
X123260000Y-102779872D01*
X123260000Y-97041978D01*
X125289990Y-95011989D01*
X125289989Y-96751730D01*
X125182111Y-96796414D01*
X125028972Y-96898738D01*
X124898738Y-97028972D01*
X124796414Y-97182111D01*
X124725932Y-97352271D01*
X124690000Y-97532911D01*
X124690000Y-97717089D01*
X124725932Y-97897729D01*
X124796414Y-98067889D01*
X124898738Y-98221028D01*
X125028972Y-98351262D01*
X125182111Y-98453586D01*
X125352271Y-98524068D01*
X125532911Y-98560000D01*
X125717089Y-98560000D01*
X125745843Y-98554280D01*
X125773738Y-98596028D01*
X125903972Y-98726262D01*
X126057111Y-98828586D01*
X126227271Y-98899068D01*
X126407911Y-98935000D01*
X126592089Y-98935000D01*
X126698444Y-98913844D01*
X126703962Y-98919362D01*
X126857101Y-99021686D01*
X127027261Y-99092168D01*
X127207901Y-99128100D01*
X127392079Y-99128100D01*
X127572719Y-99092168D01*
X127742879Y-99021686D01*
X127896018Y-98919362D01*
X128026252Y-98789128D01*
X128128576Y-98635989D01*
X128199058Y-98465829D01*
X128234990Y-98285189D01*
X128234990Y-98101011D01*
X128199058Y-97920371D01*
X128160000Y-97826076D01*
X128160000Y-94051211D01*
X144827623Y-77383589D01*
X147365000Y-77383589D01*
X147365000Y-77656411D01*
X147418225Y-77923989D01*
X147522629Y-78176043D01*
X147674201Y-78402886D01*
X147867114Y-78595799D01*
X148093957Y-78747371D01*
X148346011Y-78851775D01*
X148613589Y-78905000D01*
X148886411Y-78905000D01*
X149153989Y-78851775D01*
X149406043Y-78747371D01*
X149632886Y-78595799D01*
X149825799Y-78402886D01*
X149977371Y-78176043D01*
X150081775Y-77923989D01*
X150135000Y-77656411D01*
X150135000Y-77383589D01*
X150081775Y-77116011D01*
X149977371Y-76863957D01*
X149825799Y-76637114D01*
X149632886Y-76444201D01*
X149406043Y-76292629D01*
X149153989Y-76188225D01*
X148886411Y-76135000D01*
X148613589Y-76135000D01*
X148346011Y-76188225D01*
X148093957Y-76292629D01*
X147867114Y-76444201D01*
X147674201Y-76637114D01*
X147522629Y-76863957D01*
X147418225Y-77116011D01*
X147365000Y-77383589D01*
X144827623Y-77383589D01*
X150376201Y-71835012D01*
X156387657Y-71835010D01*
X156424989Y-71838687D01*
X156462322Y-71835010D01*
X156573975Y-71824013D01*
X156617431Y-71810831D01*
X156717235Y-71780557D01*
X156849265Y-71709985D01*
X156935991Y-71638810D01*
X156935992Y-71638809D01*
X156964990Y-71615011D01*
X156988788Y-71586013D01*
X157511003Y-71063799D01*
X157540001Y-71040001D01*
X157634974Y-70924276D01*
X157705546Y-70792247D01*
X157749003Y-70648986D01*
X157760000Y-70537333D01*
X157760000Y-70537324D01*
X157763676Y-70500001D01*
X157760000Y-70462678D01*
X157760000Y-69779872D01*
X164265000Y-69779872D01*
X164265000Y-70220128D01*
X164350890Y-70651925D01*
X164519369Y-71058669D01*
X164763962Y-71424729D01*
X165075271Y-71736038D01*
X165441331Y-71980631D01*
X165848075Y-72149110D01*
X166279872Y-72235000D01*
X166720128Y-72235000D01*
X166902926Y-72198639D01*
X172407591Y-72198639D01*
X172452511Y-72537439D01*
X172562664Y-72860966D01*
X172668662Y-73059274D01*
X172943288Y-73167107D01*
X173970395Y-72140000D01*
X174329605Y-72140000D01*
X175356712Y-73167107D01*
X175631338Y-73059274D01*
X175782216Y-72752616D01*
X175870369Y-72422415D01*
X175884830Y-72198639D01*
X177487591Y-72198639D01*
X177532511Y-72537439D01*
X177642664Y-72860966D01*
X177748662Y-73059274D01*
X178023288Y-73167107D01*
X179050395Y-72140000D01*
X179409605Y-72140000D01*
X180436712Y-73167107D01*
X180711338Y-73059274D01*
X180862216Y-72752616D01*
X180950369Y-72422415D01*
X180972409Y-72081361D01*
X180927489Y-71742561D01*
X180817336Y-71419034D01*
X180711338Y-71220726D01*
X180436712Y-71112893D01*
X179409605Y-72140000D01*
X179050395Y-72140000D01*
X178023288Y-71112893D01*
X177748662Y-71220726D01*
X177597784Y-71527384D01*
X177509631Y-71857585D01*
X177487591Y-72198639D01*
X175884830Y-72198639D01*
X175892409Y-72081361D01*
X175847489Y-71742561D01*
X175737336Y-71419034D01*
X175631338Y-71220726D01*
X175356712Y-71112893D01*
X174329605Y-72140000D01*
X173970395Y-72140000D01*
X172943288Y-71112893D01*
X172668662Y-71220726D01*
X172517784Y-71527384D01*
X172429631Y-71857585D01*
X172407591Y-72198639D01*
X166902926Y-72198639D01*
X167151925Y-72149110D01*
X167558669Y-71980631D01*
X167924729Y-71736038D01*
X168236038Y-71424729D01*
X168480631Y-71058669D01*
X168532565Y-70933288D01*
X173122893Y-70933288D01*
X174150000Y-71960395D01*
X175177107Y-70933288D01*
X175069274Y-70658662D01*
X174762616Y-70507784D01*
X174432415Y-70419631D01*
X174091361Y-70397591D01*
X173752561Y-70442511D01*
X173429034Y-70552664D01*
X173230726Y-70658662D01*
X173122893Y-70933288D01*
X168532565Y-70933288D01*
X168649110Y-70651925D01*
X168735000Y-70220128D01*
X168735000Y-69779872D01*
X168667190Y-69438967D01*
X175055000Y-69438967D01*
X175055000Y-69761033D01*
X175117832Y-70076912D01*
X175241082Y-70374463D01*
X175420013Y-70642252D01*
X175647748Y-70869987D01*
X175915537Y-71048918D01*
X176213088Y-71172168D01*
X176528967Y-71235000D01*
X176851033Y-71235000D01*
X177166912Y-71172168D01*
X177464463Y-71048918D01*
X177637515Y-70933288D01*
X178202893Y-70933288D01*
X179230000Y-71960395D01*
X180257107Y-70933288D01*
X180149274Y-70658662D01*
X179842616Y-70507784D01*
X179512415Y-70419631D01*
X179171361Y-70397591D01*
X178832561Y-70442511D01*
X178509034Y-70552664D01*
X178310726Y-70658662D01*
X178202893Y-70933288D01*
X177637515Y-70933288D01*
X177732252Y-70869987D01*
X177959987Y-70642252D01*
X178138918Y-70374463D01*
X178262168Y-70076912D01*
X178325000Y-69761033D01*
X178325000Y-69438967D01*
X178262168Y-69123088D01*
X178138918Y-68825537D01*
X177959987Y-68557748D01*
X177732252Y-68330013D01*
X177637516Y-68266712D01*
X178202893Y-68266712D01*
X178310726Y-68541338D01*
X178617384Y-68692216D01*
X178947585Y-68780369D01*
X179288639Y-68802409D01*
X179627439Y-68757489D01*
X179950966Y-68647336D01*
X180149274Y-68541338D01*
X180257107Y-68266712D01*
X179230000Y-67239605D01*
X178202893Y-68266712D01*
X177637516Y-68266712D01*
X177464463Y-68151082D01*
X177166912Y-68027832D01*
X176851033Y-67965000D01*
X176528967Y-67965000D01*
X176213088Y-68027832D01*
X175915537Y-68151082D01*
X175647748Y-68330013D01*
X175420013Y-68557748D01*
X175241082Y-68825537D01*
X175117832Y-69123088D01*
X175055000Y-69438967D01*
X168667190Y-69438967D01*
X168649110Y-69348075D01*
X168480631Y-68941331D01*
X168236038Y-68575271D01*
X167927479Y-68266712D01*
X173122893Y-68266712D01*
X173230726Y-68541338D01*
X173537384Y-68692216D01*
X173867585Y-68780369D01*
X174208639Y-68802409D01*
X174547439Y-68757489D01*
X174870966Y-68647336D01*
X175069274Y-68541338D01*
X175177107Y-68266712D01*
X174150000Y-67239605D01*
X173122893Y-68266712D01*
X167927479Y-68266712D01*
X167924729Y-68263962D01*
X167558669Y-68019369D01*
X167151925Y-67850890D01*
X166720128Y-67765000D01*
X166279872Y-67765000D01*
X165848075Y-67850890D01*
X165441331Y-68019369D01*
X165075271Y-68263962D01*
X164763962Y-68575271D01*
X164519369Y-68941331D01*
X164350890Y-69348075D01*
X164265000Y-69779872D01*
X157760000Y-69779872D01*
X157760000Y-67537333D01*
X157763677Y-67500000D01*
X157749003Y-67351014D01*
X157705546Y-67207753D01*
X157657913Y-67118639D01*
X172407591Y-67118639D01*
X172452511Y-67457439D01*
X172562664Y-67780966D01*
X172668662Y-67979274D01*
X172943288Y-68087107D01*
X173970395Y-67060000D01*
X174329605Y-67060000D01*
X175356712Y-68087107D01*
X175631338Y-67979274D01*
X175782216Y-67672616D01*
X175870369Y-67342415D01*
X175884830Y-67118639D01*
X177487591Y-67118639D01*
X177532511Y-67457439D01*
X177642664Y-67780966D01*
X177748662Y-67979274D01*
X178023288Y-68087107D01*
X179050395Y-67060000D01*
X179409605Y-67060000D01*
X180436712Y-68087107D01*
X180711338Y-67979274D01*
X180862216Y-67672616D01*
X180950369Y-67342415D01*
X180972409Y-67001361D01*
X180927489Y-66662561D01*
X180817336Y-66339034D01*
X180711338Y-66140726D01*
X180436712Y-66032893D01*
X179409605Y-67060000D01*
X179050395Y-67060000D01*
X178023288Y-66032893D01*
X177748662Y-66140726D01*
X177597784Y-66447384D01*
X177509631Y-66777585D01*
X177487591Y-67118639D01*
X175884830Y-67118639D01*
X175892409Y-67001361D01*
X175847489Y-66662561D01*
X175737336Y-66339034D01*
X175631338Y-66140726D01*
X175356712Y-66032893D01*
X174329605Y-67060000D01*
X173970395Y-67060000D01*
X172943288Y-66032893D01*
X172668662Y-66140726D01*
X172517784Y-66447384D01*
X172429631Y-66777585D01*
X172407591Y-67118639D01*
X157657913Y-67118639D01*
X157634974Y-67075724D01*
X157563799Y-66988997D01*
X157540001Y-66959999D01*
X157511004Y-66936202D01*
X156923153Y-66348351D01*
X156899068Y-66227271D01*
X156828586Y-66057111D01*
X156726262Y-65903972D01*
X156675578Y-65853288D01*
X173122893Y-65853288D01*
X174150000Y-66880395D01*
X175177107Y-65853288D01*
X178202893Y-65853288D01*
X179230000Y-66880395D01*
X180257107Y-65853288D01*
X180149274Y-65578662D01*
X179842616Y-65427784D01*
X179512415Y-65339631D01*
X179171361Y-65317591D01*
X178832561Y-65362511D01*
X178509034Y-65472664D01*
X178310726Y-65578662D01*
X178202893Y-65853288D01*
X175177107Y-65853288D01*
X175069274Y-65578662D01*
X174762616Y-65427784D01*
X174432415Y-65339631D01*
X174091361Y-65317591D01*
X173752561Y-65362511D01*
X173429034Y-65472664D01*
X173230726Y-65578662D01*
X173122893Y-65853288D01*
X156675578Y-65853288D01*
X156596028Y-65773738D01*
X156442889Y-65671414D01*
X156272729Y-65600932D01*
X156092089Y-65565000D01*
X155907911Y-65565000D01*
X155727271Y-65600932D01*
X155557111Y-65671414D01*
X155403972Y-65773738D01*
X155273738Y-65903972D01*
X155171414Y-66057111D01*
X155100932Y-66227271D01*
X155065000Y-66407911D01*
X155065000Y-66592089D01*
X155100932Y-66772729D01*
X155171414Y-66942889D01*
X155273738Y-67096028D01*
X155327039Y-67149329D01*
X155278962Y-67181453D01*
X155148728Y-67311687D01*
X155046404Y-67464826D01*
X154975922Y-67634986D01*
X154939990Y-67815626D01*
X154939990Y-67999804D01*
X154975922Y-68180444D01*
X155046404Y-68350604D01*
X155148728Y-68503743D01*
X155278962Y-68633977D01*
X155432101Y-68736301D01*
X155602261Y-68806783D01*
X155614999Y-68809317D01*
X155614999Y-69073525D01*
X155477259Y-69100923D01*
X155307099Y-69171405D01*
X155204453Y-69239991D01*
X149900920Y-69239991D01*
X149863597Y-69236315D01*
X149826274Y-69239991D01*
X149826265Y-69239991D01*
X149714612Y-69250988D01*
X149571351Y-69294445D01*
X149439321Y-69365017D01*
X149391866Y-69403963D01*
X149323597Y-69459990D01*
X149299799Y-69488988D01*
X143449445Y-75339342D01*
X143449445Y-70076767D01*
X143453121Y-70039444D01*
X143449445Y-70002121D01*
X143449445Y-70002112D01*
X143438448Y-69890459D01*
X143394991Y-69747198D01*
X143324419Y-69615169D01*
X143229446Y-69499444D01*
X143200448Y-69475646D01*
X141898153Y-68173351D01*
X141874068Y-68052271D01*
X141803586Y-67882111D01*
X141701262Y-67728972D01*
X141571028Y-67598738D01*
X141417889Y-67496414D01*
X141247729Y-67425932D01*
X141067089Y-67390000D01*
X140882911Y-67390000D01*
X140702271Y-67425932D01*
X140532111Y-67496414D01*
X140378972Y-67598738D01*
X140248738Y-67728972D01*
X140146414Y-67882111D01*
X140142167Y-67892364D01*
X139488806Y-67239003D01*
X139465003Y-67209999D01*
X139349278Y-67115026D01*
X139217249Y-67044454D01*
X139073988Y-67000997D01*
X138962335Y-66990000D01*
X138962324Y-66990000D01*
X138925002Y-66986324D01*
X138887680Y-66990000D01*
X138295535Y-66990000D01*
X138192889Y-66921414D01*
X138022729Y-66850932D01*
X137842089Y-66815000D01*
X137657911Y-66815000D01*
X137477271Y-66850932D01*
X137307111Y-66921414D01*
X137153972Y-67023738D01*
X137023738Y-67153972D01*
X136921414Y-67307111D01*
X136850932Y-67477271D01*
X136815000Y-67657911D01*
X136815000Y-67842089D01*
X136850932Y-68022729D01*
X136921414Y-68192889D01*
X137023738Y-68346028D01*
X137153972Y-68476262D01*
X137307111Y-68578586D01*
X137477271Y-68649068D01*
X137657911Y-68685000D01*
X137833481Y-68685000D01*
X137850932Y-68772729D01*
X137921414Y-68942889D01*
X138023738Y-69096028D01*
X138153972Y-69226262D01*
X138307111Y-69328586D01*
X138477271Y-69399068D01*
X138598352Y-69423153D01*
X139990000Y-70814802D01*
X139990001Y-74435201D01*
X139848355Y-74576847D01*
X139727275Y-74600932D01*
X139557115Y-74671414D01*
X139403976Y-74773738D01*
X139273742Y-74903972D01*
X139171418Y-75057111D01*
X139100936Y-75227271D01*
X139065004Y-75407911D01*
X139065004Y-75592089D01*
X139100936Y-75772729D01*
X139171418Y-75942889D01*
X139240005Y-76045537D01*
X139240004Y-77585194D01*
X120988998Y-95836201D01*
X120960000Y-95859999D01*
X120936202Y-95888997D01*
X120936201Y-95888998D01*
X120865026Y-95975724D01*
X120794454Y-96107754D01*
X120777089Y-96165002D01*
X120750998Y-96251014D01*
X120747550Y-96286023D01*
X120736324Y-96400000D01*
X120740001Y-96437332D01*
X120740000Y-106511928D01*
X119610000Y-106511928D01*
X119485518Y-106524188D01*
X119365820Y-106560498D01*
X119255506Y-106619463D01*
X119158815Y-106698815D01*
X119079463Y-106795506D01*
X119020498Y-106905820D01*
X118984188Y-107025518D01*
X118971928Y-107150000D01*
X118971928Y-108850000D01*
X118984188Y-108974482D01*
X119020498Y-109094180D01*
X119079463Y-109204494D01*
X119149636Y-109290000D01*
X117534720Y-109290000D01*
X117152984Y-109252571D01*
X116819182Y-109151789D01*
X116511313Y-108988093D01*
X116241103Y-108767716D01*
X116018846Y-108499052D01*
X115853005Y-108192337D01*
X115749896Y-107859246D01*
X115710000Y-107479659D01*
X115710000Y-105422533D01*
X115741377Y-105448284D01*
X115938553Y-105553676D01*
X116152501Y-105618577D01*
X116319248Y-105635000D01*
X116980752Y-105635000D01*
X117147499Y-105618577D01*
X117361447Y-105553676D01*
X117558623Y-105448284D01*
X117731449Y-105306449D01*
X117873284Y-105133623D01*
X117978676Y-104936447D01*
X118043577Y-104722499D01*
X118065491Y-104500000D01*
X118043577Y-104277501D01*
X117978676Y-104063553D01*
X117873284Y-103866377D01*
X117731449Y-103693551D01*
X117558623Y-103551716D01*
X117361447Y-103446324D01*
X117147499Y-103381423D01*
X116980752Y-103365000D01*
X116319248Y-103365000D01*
X116152501Y-103381423D01*
X115938553Y-103446324D01*
X115741377Y-103551716D01*
X115710000Y-103577467D01*
X115710000Y-103295480D01*
X118240000Y-103295480D01*
X118240000Y-103704521D01*
X118256062Y-103867598D01*
X118319532Y-104076834D01*
X118422604Y-104269666D01*
X118561315Y-104438686D01*
X118730335Y-104577396D01*
X118923167Y-104680468D01*
X119132403Y-104743938D01*
X119350000Y-104765370D01*
X119567598Y-104743938D01*
X119776834Y-104680468D01*
X119969666Y-104577396D01*
X120138686Y-104438686D01*
X120277396Y-104269666D01*
X120380468Y-104076833D01*
X120443938Y-103867597D01*
X120460000Y-103704520D01*
X120460000Y-103295479D01*
X120443938Y-103132402D01*
X120380468Y-102923166D01*
X120277396Y-102730334D01*
X120138686Y-102561314D01*
X119969666Y-102422604D01*
X119776833Y-102319532D01*
X119567597Y-102256062D01*
X119350000Y-102234630D01*
X119132402Y-102256062D01*
X118923166Y-102319532D01*
X118730334Y-102422604D01*
X118561314Y-102561314D01*
X118422604Y-102730334D01*
X118319532Y-102923167D01*
X118256062Y-103132403D01*
X118240000Y-103295480D01*
X115710000Y-103295480D01*
X115710000Y-98422533D01*
X115741377Y-98448284D01*
X115938553Y-98553676D01*
X116152501Y-98618577D01*
X116319248Y-98635000D01*
X116980752Y-98635000D01*
X117147499Y-98618577D01*
X117361447Y-98553676D01*
X117558623Y-98448284D01*
X117731449Y-98306449D01*
X117740451Y-98295480D01*
X118240000Y-98295480D01*
X118240000Y-98704521D01*
X118256062Y-98867598D01*
X118319532Y-99076834D01*
X118422604Y-99269666D01*
X118561315Y-99438686D01*
X118730335Y-99577396D01*
X118923167Y-99680468D01*
X119132403Y-99743938D01*
X119350000Y-99765370D01*
X119567598Y-99743938D01*
X119776834Y-99680468D01*
X119969666Y-99577396D01*
X120138686Y-99438686D01*
X120277396Y-99269666D01*
X120380468Y-99076833D01*
X120443938Y-98867597D01*
X120460000Y-98704520D01*
X120460000Y-98295479D01*
X120443938Y-98132402D01*
X120380468Y-97923166D01*
X120277396Y-97730334D01*
X120138686Y-97561314D01*
X119969666Y-97422604D01*
X119776833Y-97319532D01*
X119567597Y-97256062D01*
X119350000Y-97234630D01*
X119132402Y-97256062D01*
X118923166Y-97319532D01*
X118730334Y-97422604D01*
X118561314Y-97561314D01*
X118422604Y-97730334D01*
X118319532Y-97923167D01*
X118256062Y-98132403D01*
X118240000Y-98295480D01*
X117740451Y-98295480D01*
X117873284Y-98133623D01*
X117978676Y-97936447D01*
X118043577Y-97722499D01*
X118065491Y-97500000D01*
X118043577Y-97277501D01*
X117978676Y-97063553D01*
X117873284Y-96866377D01*
X117731449Y-96693551D01*
X117558623Y-96551716D01*
X117361447Y-96446324D01*
X117147499Y-96381423D01*
X116980752Y-96365000D01*
X116319248Y-96365000D01*
X116152501Y-96381423D01*
X115938553Y-96446324D01*
X115741377Y-96551716D01*
X115710000Y-96577467D01*
X115710000Y-75030000D01*
X124151928Y-75030000D01*
X124164188Y-75154482D01*
X124200498Y-75274180D01*
X124259463Y-75384494D01*
X124338815Y-75481185D01*
X124435506Y-75560537D01*
X124545820Y-75619502D01*
X124665518Y-75655812D01*
X124790000Y-75668072D01*
X126254250Y-75665000D01*
X126413000Y-75506250D01*
X126413000Y-73407000D01*
X126667000Y-73407000D01*
X126667000Y-75506250D01*
X126825750Y-75665000D01*
X128290000Y-75668072D01*
X128414482Y-75655812D01*
X128534180Y-75619502D01*
X128644494Y-75560537D01*
X128741185Y-75481185D01*
X128820537Y-75384494D01*
X128879502Y-75274180D01*
X128915812Y-75154482D01*
X128928072Y-75030000D01*
X128925000Y-73565750D01*
X128766250Y-73407000D01*
X126667000Y-73407000D01*
X126413000Y-73407000D01*
X124313750Y-73407000D01*
X124155000Y-73565750D01*
X124151928Y-75030000D01*
X115710000Y-75030000D01*
X115710000Y-70330000D01*
X121151928Y-70330000D01*
X121164188Y-70454482D01*
X121200498Y-70574180D01*
X121259463Y-70684494D01*
X121338815Y-70781185D01*
X121435506Y-70860537D01*
X121545820Y-70919502D01*
X121665518Y-70955812D01*
X121790000Y-70968072D01*
X123254250Y-70965000D01*
X123413000Y-70806250D01*
X123413000Y-68707000D01*
X123667000Y-68707000D01*
X123667000Y-70806250D01*
X123825750Y-70965000D01*
X124497345Y-70966409D01*
X124435506Y-70999463D01*
X124338815Y-71078815D01*
X124259463Y-71175506D01*
X124200498Y-71285820D01*
X124164188Y-71405518D01*
X124151928Y-71530000D01*
X124155000Y-72994250D01*
X124313750Y-73153000D01*
X126413000Y-73153000D01*
X126413000Y-71053750D01*
X126667000Y-71053750D01*
X126667000Y-73153000D01*
X128766250Y-73153000D01*
X128925000Y-72994250D01*
X128928072Y-71530000D01*
X128915812Y-71405518D01*
X128879502Y-71285820D01*
X128820537Y-71175506D01*
X128741185Y-71078815D01*
X128644494Y-70999463D01*
X128585767Y-70968072D01*
X131290000Y-70968072D01*
X131414482Y-70955812D01*
X131534180Y-70919502D01*
X131644494Y-70860537D01*
X131741185Y-70781185D01*
X131820537Y-70684494D01*
X131879502Y-70574180D01*
X131915812Y-70454482D01*
X131928072Y-70330000D01*
X131928072Y-66830000D01*
X131915812Y-66705518D01*
X131879502Y-66585820D01*
X131820537Y-66475506D01*
X131741185Y-66378815D01*
X131644494Y-66299463D01*
X131534180Y-66240498D01*
X131414482Y-66204188D01*
X131290000Y-66191928D01*
X127790000Y-66191928D01*
X127665518Y-66204188D01*
X127545820Y-66240498D01*
X127435506Y-66299463D01*
X127338815Y-66378815D01*
X127259463Y-66475506D01*
X127200498Y-66585820D01*
X127164188Y-66705518D01*
X127151928Y-66830000D01*
X127151928Y-70330000D01*
X127164188Y-70454482D01*
X127200498Y-70574180D01*
X127259463Y-70684494D01*
X127338815Y-70781185D01*
X127435506Y-70860537D01*
X127497345Y-70893591D01*
X126825750Y-70895000D01*
X126667000Y-71053750D01*
X126413000Y-71053750D01*
X126254250Y-70895000D01*
X125582655Y-70893591D01*
X125644494Y-70860537D01*
X125741185Y-70781185D01*
X125820537Y-70684494D01*
X125879502Y-70574180D01*
X125915812Y-70454482D01*
X125928072Y-70330000D01*
X125925000Y-68865750D01*
X125766250Y-68707000D01*
X123667000Y-68707000D01*
X123413000Y-68707000D01*
X121313750Y-68707000D01*
X121155000Y-68865750D01*
X121151928Y-70330000D01*
X115710000Y-70330000D01*
X115710000Y-66830000D01*
X121151928Y-66830000D01*
X121155000Y-68294250D01*
X121313750Y-68453000D01*
X123413000Y-68453000D01*
X123413000Y-66353750D01*
X123667000Y-66353750D01*
X123667000Y-68453000D01*
X125766250Y-68453000D01*
X125925000Y-68294250D01*
X125928072Y-66830000D01*
X125915812Y-66705518D01*
X125879502Y-66585820D01*
X125820537Y-66475506D01*
X125741185Y-66378815D01*
X125644494Y-66299463D01*
X125534180Y-66240498D01*
X125414482Y-66204188D01*
X125290000Y-66191928D01*
X123825750Y-66195000D01*
X123667000Y-66353750D01*
X123413000Y-66353750D01*
X123254250Y-66195000D01*
X121790000Y-66191928D01*
X121665518Y-66204188D01*
X121545820Y-66240498D01*
X121435506Y-66299463D01*
X121338815Y-66378815D01*
X121259463Y-66475506D01*
X121200498Y-66585820D01*
X121164188Y-66705518D01*
X121151928Y-66830000D01*
X115710000Y-66830000D01*
X115710000Y-65534721D01*
X115747430Y-65152982D01*
X115848211Y-64819181D01*
X116011907Y-64511313D01*
X116232284Y-64241104D01*
X116500952Y-64018843D01*
X116807663Y-63853005D01*
X117140753Y-63749896D01*
X117520341Y-63710000D01*
X189965279Y-63710000D01*
X190347018Y-63747430D01*
G36*
X133047000Y-107873000D02*
G01*
X133067000Y-107873000D01*
X133067000Y-108127000D01*
X133047000Y-108127000D01*
X133047000Y-108147000D01*
X132793000Y-108147000D01*
X132793000Y-108127000D01*
X132773000Y-108127000D01*
X132773000Y-107873000D01*
X132793000Y-107873000D01*
X132793000Y-107853000D01*
X133047000Y-107853000D01*
X133047000Y-107873000D01*
X133047000Y-107873000D01*
G37*
X133047000Y-107873000D02*
X133067000Y-107873000D01*
X133067000Y-108127000D01*
X133047000Y-108127000D01*
X133047000Y-108147000D01*
X132793000Y-108147000D01*
X132793000Y-108127000D01*
X132773000Y-108127000D01*
X132773000Y-107873000D01*
X132793000Y-107873000D01*
X132793000Y-107853000D01*
X133047000Y-107853000D01*
X133047000Y-107873000D01*
M02*
