G04 #@! TF.GenerationSoftware,KiCad,Pcbnew,(5.1.5)-3*
G04 #@! TF.CreationDate,2020-02-05T13:37:13+11:00*
G04 #@! TF.ProjectId,Heterodyne,48657465-726f-4647-996e-652e6b696361,rev?*
G04 #@! TF.SameCoordinates,Original*
G04 #@! TF.FileFunction,Soldermask,Top*
G04 #@! TF.FilePolarity,Negative*
%FSLAX46Y46*%
G04 Gerber Fmt 4.6, Leading zero omitted, Abs format (unit mm)*
G04 Created by KiCad (PCBNEW (5.1.5)-3) date 2020-02-05 13:37:13*
%MOMM*%
%LPD*%
G04 APERTURE LIST*
%ADD10C,0.100000*%
G04 APERTURE END LIST*
D10*
G36*
X154893674Y-103028465D02*
G01*
X154931367Y-103039899D01*
X154966103Y-103058466D01*
X154996548Y-103083452D01*
X155021534Y-103113897D01*
X155040101Y-103148633D01*
X155051535Y-103186326D01*
X155056000Y-103231661D01*
X155056000Y-104068339D01*
X155051535Y-104113674D01*
X155040101Y-104151367D01*
X155021534Y-104186103D01*
X154996548Y-104216548D01*
X154966103Y-104241534D01*
X154931367Y-104260101D01*
X154893674Y-104271535D01*
X154848339Y-104276000D01*
X153761661Y-104276000D01*
X153716326Y-104271535D01*
X153678633Y-104260101D01*
X153643897Y-104241534D01*
X153613452Y-104216548D01*
X153588466Y-104186103D01*
X153569899Y-104151367D01*
X153558465Y-104113674D01*
X153554000Y-104068339D01*
X153554000Y-103231661D01*
X153558465Y-103186326D01*
X153569899Y-103148633D01*
X153588466Y-103113897D01*
X153613452Y-103083452D01*
X153643897Y-103058466D01*
X153678633Y-103039899D01*
X153716326Y-103028465D01*
X153761661Y-103024000D01*
X154848339Y-103024000D01*
X154893674Y-103028465D01*
G37*
G36*
X152353674Y-103028465D02*
G01*
X152391367Y-103039899D01*
X152426103Y-103058466D01*
X152456548Y-103083452D01*
X152481534Y-103113897D01*
X152500101Y-103148633D01*
X152511535Y-103186326D01*
X152516000Y-103231661D01*
X152516000Y-104068339D01*
X152511535Y-104113674D01*
X152500101Y-104151367D01*
X152481534Y-104186103D01*
X152456548Y-104216548D01*
X152426103Y-104241534D01*
X152391367Y-104260101D01*
X152353674Y-104271535D01*
X152308339Y-104276000D01*
X151221661Y-104276000D01*
X151176326Y-104271535D01*
X151138633Y-104260101D01*
X151103897Y-104241534D01*
X151073452Y-104216548D01*
X151048466Y-104186103D01*
X151029899Y-104151367D01*
X151018465Y-104113674D01*
X151014000Y-104068339D01*
X151014000Y-103231661D01*
X151018465Y-103186326D01*
X151029899Y-103148633D01*
X151048466Y-103113897D01*
X151073452Y-103083452D01*
X151103897Y-103058466D01*
X151138633Y-103039899D01*
X151176326Y-103028465D01*
X151221661Y-103024000D01*
X152308339Y-103024000D01*
X152353674Y-103028465D01*
G37*
G36*
X149813674Y-103028465D02*
G01*
X149851367Y-103039899D01*
X149886103Y-103058466D01*
X149916548Y-103083452D01*
X149941534Y-103113897D01*
X149960101Y-103148633D01*
X149971535Y-103186326D01*
X149976000Y-103231661D01*
X149976000Y-104068339D01*
X149971535Y-104113674D01*
X149960101Y-104151367D01*
X149941534Y-104186103D01*
X149916548Y-104216548D01*
X149886103Y-104241534D01*
X149851367Y-104260101D01*
X149813674Y-104271535D01*
X149768339Y-104276000D01*
X148681661Y-104276000D01*
X148636326Y-104271535D01*
X148598633Y-104260101D01*
X148563897Y-104241534D01*
X148533452Y-104216548D01*
X148508466Y-104186103D01*
X148489899Y-104151367D01*
X148478465Y-104113674D01*
X148474000Y-104068339D01*
X148474000Y-103231661D01*
X148478465Y-103186326D01*
X148489899Y-103148633D01*
X148508466Y-103113897D01*
X148533452Y-103083452D01*
X148563897Y-103058466D01*
X148598633Y-103039899D01*
X148636326Y-103028465D01*
X148681661Y-103024000D01*
X149768339Y-103024000D01*
X149813674Y-103028465D01*
G37*
G36*
X144330051Y-102423784D02*
G01*
X144346446Y-102428758D01*
X144366078Y-102439251D01*
X144388717Y-102448628D01*
X144412750Y-102453408D01*
X144437254Y-102453408D01*
X144461287Y-102448627D01*
X144483922Y-102439251D01*
X144503554Y-102428758D01*
X144519949Y-102423784D01*
X144543141Y-102421500D01*
X144956859Y-102421500D01*
X144980051Y-102423784D01*
X144996446Y-102428758D01*
X145016078Y-102439251D01*
X145038717Y-102448628D01*
X145062750Y-102453408D01*
X145087254Y-102453408D01*
X145111287Y-102448627D01*
X145133922Y-102439251D01*
X145153554Y-102428758D01*
X145169949Y-102423784D01*
X145193141Y-102421500D01*
X145606859Y-102421500D01*
X145630051Y-102423784D01*
X145646446Y-102428758D01*
X145666078Y-102439251D01*
X145688717Y-102448628D01*
X145712750Y-102453408D01*
X145737254Y-102453408D01*
X145761287Y-102448627D01*
X145783922Y-102439251D01*
X145803554Y-102428758D01*
X145819949Y-102423784D01*
X145843141Y-102421500D01*
X146256859Y-102421500D01*
X146280051Y-102423784D01*
X146296443Y-102428757D01*
X146311555Y-102436834D01*
X146324798Y-102447702D01*
X146335666Y-102460945D01*
X146343743Y-102476057D01*
X146348716Y-102492449D01*
X146351000Y-102515641D01*
X146351000Y-104054359D01*
X146348716Y-104077551D01*
X146343743Y-104093943D01*
X146335666Y-104109055D01*
X146324798Y-104122298D01*
X146311555Y-104133166D01*
X146296443Y-104141243D01*
X146280051Y-104146216D01*
X146256859Y-104148500D01*
X145843141Y-104148500D01*
X145819949Y-104146216D01*
X145803554Y-104141242D01*
X145783922Y-104130749D01*
X145761283Y-104121372D01*
X145737250Y-104116592D01*
X145712746Y-104116592D01*
X145688713Y-104121373D01*
X145666078Y-104130749D01*
X145646446Y-104141242D01*
X145630051Y-104146216D01*
X145606859Y-104148500D01*
X145193141Y-104148500D01*
X145169949Y-104146216D01*
X145153554Y-104141242D01*
X145133922Y-104130749D01*
X145111283Y-104121372D01*
X145087250Y-104116592D01*
X145062746Y-104116592D01*
X145038713Y-104121373D01*
X145016078Y-104130749D01*
X144996446Y-104141242D01*
X144980051Y-104146216D01*
X144956859Y-104148500D01*
X144543141Y-104148500D01*
X144519949Y-104146216D01*
X144503554Y-104141242D01*
X144483922Y-104130749D01*
X144461283Y-104121372D01*
X144437250Y-104116592D01*
X144412746Y-104116592D01*
X144388713Y-104121373D01*
X144366078Y-104130749D01*
X144346446Y-104141242D01*
X144330051Y-104146216D01*
X144306859Y-104148500D01*
X143893141Y-104148500D01*
X143869949Y-104146216D01*
X143853557Y-104141243D01*
X143838445Y-104133166D01*
X143825202Y-104122298D01*
X143814334Y-104109055D01*
X143806257Y-104093943D01*
X143801284Y-104077551D01*
X143799000Y-104054359D01*
X143799000Y-102515641D01*
X143801284Y-102492449D01*
X143806257Y-102476057D01*
X143814334Y-102460945D01*
X143825202Y-102447702D01*
X143838445Y-102436834D01*
X143853557Y-102428757D01*
X143869949Y-102423784D01*
X143893141Y-102421500D01*
X144306859Y-102421500D01*
X144330051Y-102423784D01*
G37*
G36*
X157646000Y-104116000D02*
G01*
X156044000Y-104116000D01*
X156044000Y-100414000D01*
X157646000Y-100414000D01*
X157646000Y-104116000D01*
G37*
G36*
X164096000Y-103136000D02*
G01*
X162294000Y-103136000D01*
X162294000Y-101334000D01*
X164096000Y-101334000D01*
X164096000Y-103136000D01*
G37*
G36*
X160768512Y-101338927D02*
G01*
X160917812Y-101368624D01*
X161081784Y-101436544D01*
X161229354Y-101535147D01*
X161354853Y-101660646D01*
X161453456Y-101808216D01*
X161521376Y-101972188D01*
X161556000Y-102146259D01*
X161556000Y-102323741D01*
X161521376Y-102497812D01*
X161453456Y-102661784D01*
X161354853Y-102809354D01*
X161229354Y-102934853D01*
X161081784Y-103033456D01*
X160917812Y-103101376D01*
X160768512Y-103131073D01*
X160743742Y-103136000D01*
X160566258Y-103136000D01*
X160541488Y-103131073D01*
X160392188Y-103101376D01*
X160228216Y-103033456D01*
X160080646Y-102934853D01*
X159955147Y-102809354D01*
X159856544Y-102661784D01*
X159788624Y-102497812D01*
X159754000Y-102323741D01*
X159754000Y-102146259D01*
X159788624Y-101972188D01*
X159856544Y-101808216D01*
X159955147Y-101660646D01*
X160080646Y-101535147D01*
X160228216Y-101436544D01*
X160392188Y-101368624D01*
X160541488Y-101338927D01*
X160566258Y-101334000D01*
X160743742Y-101334000D01*
X160768512Y-101338927D01*
G37*
G36*
X154893674Y-100978465D02*
G01*
X154931367Y-100989899D01*
X154966103Y-101008466D01*
X154996548Y-101033452D01*
X155021534Y-101063897D01*
X155040101Y-101098633D01*
X155051535Y-101136326D01*
X155056000Y-101181661D01*
X155056000Y-102018339D01*
X155051535Y-102063674D01*
X155040101Y-102101367D01*
X155021534Y-102136103D01*
X154996548Y-102166548D01*
X154966103Y-102191534D01*
X154931367Y-102210101D01*
X154893674Y-102221535D01*
X154848339Y-102226000D01*
X153761661Y-102226000D01*
X153716326Y-102221535D01*
X153678633Y-102210101D01*
X153643897Y-102191534D01*
X153613452Y-102166548D01*
X153588466Y-102136103D01*
X153569899Y-102101367D01*
X153558465Y-102063674D01*
X153554000Y-102018339D01*
X153554000Y-101181661D01*
X153558465Y-101136326D01*
X153569899Y-101098633D01*
X153588466Y-101063897D01*
X153613452Y-101033452D01*
X153643897Y-101008466D01*
X153678633Y-100989899D01*
X153716326Y-100978465D01*
X153761661Y-100974000D01*
X154848339Y-100974000D01*
X154893674Y-100978465D01*
G37*
G36*
X152353674Y-100978465D02*
G01*
X152391367Y-100989899D01*
X152426103Y-101008466D01*
X152456548Y-101033452D01*
X152481534Y-101063897D01*
X152500101Y-101098633D01*
X152511535Y-101136326D01*
X152516000Y-101181661D01*
X152516000Y-102018339D01*
X152511535Y-102063674D01*
X152500101Y-102101367D01*
X152481534Y-102136103D01*
X152456548Y-102166548D01*
X152426103Y-102191534D01*
X152391367Y-102210101D01*
X152353674Y-102221535D01*
X152308339Y-102226000D01*
X151221661Y-102226000D01*
X151176326Y-102221535D01*
X151138633Y-102210101D01*
X151103897Y-102191534D01*
X151073452Y-102166548D01*
X151048466Y-102136103D01*
X151029899Y-102101367D01*
X151018465Y-102063674D01*
X151014000Y-102018339D01*
X151014000Y-101181661D01*
X151018465Y-101136326D01*
X151029899Y-101098633D01*
X151048466Y-101063897D01*
X151073452Y-101033452D01*
X151103897Y-101008466D01*
X151138633Y-100989899D01*
X151176326Y-100978465D01*
X151221661Y-100974000D01*
X152308339Y-100974000D01*
X152353674Y-100978465D01*
G37*
G36*
X149813674Y-100978465D02*
G01*
X149851367Y-100989899D01*
X149886103Y-101008466D01*
X149916548Y-101033452D01*
X149941534Y-101063897D01*
X149960101Y-101098633D01*
X149971535Y-101136326D01*
X149976000Y-101181661D01*
X149976000Y-102018339D01*
X149971535Y-102063674D01*
X149960101Y-102101367D01*
X149941534Y-102136103D01*
X149916548Y-102166548D01*
X149886103Y-102191534D01*
X149851367Y-102210101D01*
X149813674Y-102221535D01*
X149768339Y-102226000D01*
X148681661Y-102226000D01*
X148636326Y-102221535D01*
X148598633Y-102210101D01*
X148563897Y-102191534D01*
X148533452Y-102166548D01*
X148508466Y-102136103D01*
X148489899Y-102101367D01*
X148478465Y-102063674D01*
X148474000Y-102018339D01*
X148474000Y-101181661D01*
X148478465Y-101136326D01*
X148489899Y-101098633D01*
X148508466Y-101063897D01*
X148533452Y-101033452D01*
X148563897Y-101008466D01*
X148598633Y-100989899D01*
X148636326Y-100978465D01*
X148681661Y-100974000D01*
X149768339Y-100974000D01*
X149813674Y-100978465D01*
G37*
G36*
X133463512Y-100068927D02*
G01*
X133612812Y-100098624D01*
X133776784Y-100166544D01*
X133924354Y-100265147D01*
X134049853Y-100390646D01*
X134148456Y-100538216D01*
X134216376Y-100702188D01*
X134251000Y-100876259D01*
X134251000Y-101053741D01*
X134216376Y-101227812D01*
X134148456Y-101391784D01*
X134049853Y-101539354D01*
X133924354Y-101664853D01*
X133776784Y-101763456D01*
X133612812Y-101831376D01*
X133463512Y-101861073D01*
X133438742Y-101866000D01*
X133261258Y-101866000D01*
X133236488Y-101861073D01*
X133087188Y-101831376D01*
X132923216Y-101763456D01*
X132775646Y-101664853D01*
X132650147Y-101539354D01*
X132551544Y-101391784D01*
X132483624Y-101227812D01*
X132449000Y-101053741D01*
X132449000Y-100876259D01*
X132483624Y-100702188D01*
X132551544Y-100538216D01*
X132650147Y-100390646D01*
X132775646Y-100265147D01*
X132923216Y-100166544D01*
X133087188Y-100098624D01*
X133236488Y-100068927D01*
X133261258Y-100064000D01*
X133438742Y-100064000D01*
X133463512Y-100068927D01*
G37*
G36*
X136003512Y-100068927D02*
G01*
X136152812Y-100098624D01*
X136316784Y-100166544D01*
X136464354Y-100265147D01*
X136589853Y-100390646D01*
X136688456Y-100538216D01*
X136756376Y-100702188D01*
X136791000Y-100876259D01*
X136791000Y-101053741D01*
X136756376Y-101227812D01*
X136688456Y-101391784D01*
X136589853Y-101539354D01*
X136464354Y-101664853D01*
X136316784Y-101763456D01*
X136152812Y-101831376D01*
X136003512Y-101861073D01*
X135978742Y-101866000D01*
X135801258Y-101866000D01*
X135776488Y-101861073D01*
X135627188Y-101831376D01*
X135463216Y-101763456D01*
X135315646Y-101664853D01*
X135190147Y-101539354D01*
X135091544Y-101391784D01*
X135023624Y-101227812D01*
X134989000Y-101053741D01*
X134989000Y-100876259D01*
X135023624Y-100702188D01*
X135091544Y-100538216D01*
X135190147Y-100390646D01*
X135315646Y-100265147D01*
X135463216Y-100166544D01*
X135627188Y-100098624D01*
X135776488Y-100068927D01*
X135801258Y-100064000D01*
X135978742Y-100064000D01*
X136003512Y-100068927D01*
G37*
G36*
X138543512Y-100068927D02*
G01*
X138692812Y-100098624D01*
X138856784Y-100166544D01*
X139004354Y-100265147D01*
X139129853Y-100390646D01*
X139228456Y-100538216D01*
X139296376Y-100702188D01*
X139331000Y-100876259D01*
X139331000Y-101053741D01*
X139296376Y-101227812D01*
X139228456Y-101391784D01*
X139129853Y-101539354D01*
X139004354Y-101664853D01*
X138856784Y-101763456D01*
X138692812Y-101831376D01*
X138543512Y-101861073D01*
X138518742Y-101866000D01*
X138341258Y-101866000D01*
X138316488Y-101861073D01*
X138167188Y-101831376D01*
X138003216Y-101763456D01*
X137855646Y-101664853D01*
X137730147Y-101539354D01*
X137631544Y-101391784D01*
X137563624Y-101227812D01*
X137529000Y-101053741D01*
X137529000Y-100876259D01*
X137563624Y-100702188D01*
X137631544Y-100538216D01*
X137730147Y-100390646D01*
X137855646Y-100265147D01*
X138003216Y-100166544D01*
X138167188Y-100098624D01*
X138316488Y-100068927D01*
X138341258Y-100064000D01*
X138518742Y-100064000D01*
X138543512Y-100068927D01*
G37*
G36*
X141871000Y-101866000D02*
G01*
X140069000Y-101866000D01*
X140069000Y-100064000D01*
X141871000Y-100064000D01*
X141871000Y-101866000D01*
G37*
G36*
X144330051Y-98198784D02*
G01*
X144346446Y-98203758D01*
X144366078Y-98214251D01*
X144388717Y-98223628D01*
X144412750Y-98228408D01*
X144437254Y-98228408D01*
X144461287Y-98223627D01*
X144483922Y-98214251D01*
X144503554Y-98203758D01*
X144519949Y-98198784D01*
X144543141Y-98196500D01*
X144956859Y-98196500D01*
X144980051Y-98198784D01*
X144996446Y-98203758D01*
X145016078Y-98214251D01*
X145038717Y-98223628D01*
X145062750Y-98228408D01*
X145087254Y-98228408D01*
X145111287Y-98223627D01*
X145133922Y-98214251D01*
X145153554Y-98203758D01*
X145169949Y-98198784D01*
X145193141Y-98196500D01*
X145606859Y-98196500D01*
X145630051Y-98198784D01*
X145646446Y-98203758D01*
X145666078Y-98214251D01*
X145688717Y-98223628D01*
X145712750Y-98228408D01*
X145737254Y-98228408D01*
X145761287Y-98223627D01*
X145783922Y-98214251D01*
X145803554Y-98203758D01*
X145819949Y-98198784D01*
X145843141Y-98196500D01*
X146256859Y-98196500D01*
X146280051Y-98198784D01*
X146296443Y-98203757D01*
X146311555Y-98211834D01*
X146324798Y-98222702D01*
X146335666Y-98235945D01*
X146343743Y-98251057D01*
X146348716Y-98267449D01*
X146351000Y-98290641D01*
X146351000Y-99829359D01*
X146348716Y-99852551D01*
X146343743Y-99868943D01*
X146335666Y-99884055D01*
X146324798Y-99897298D01*
X146311555Y-99908166D01*
X146296443Y-99916243D01*
X146280051Y-99921216D01*
X146256859Y-99923500D01*
X145843141Y-99923500D01*
X145819949Y-99921216D01*
X145803554Y-99916242D01*
X145783922Y-99905749D01*
X145761283Y-99896372D01*
X145737250Y-99891592D01*
X145712746Y-99891592D01*
X145688713Y-99896373D01*
X145666078Y-99905749D01*
X145646446Y-99916242D01*
X145630051Y-99921216D01*
X145606859Y-99923500D01*
X145193141Y-99923500D01*
X145169949Y-99921216D01*
X145153554Y-99916242D01*
X145133922Y-99905749D01*
X145111283Y-99896372D01*
X145087250Y-99891592D01*
X145062746Y-99891592D01*
X145038713Y-99896373D01*
X145016078Y-99905749D01*
X144996446Y-99916242D01*
X144980051Y-99921216D01*
X144956859Y-99923500D01*
X144543141Y-99923500D01*
X144519949Y-99921216D01*
X144503554Y-99916242D01*
X144483922Y-99905749D01*
X144461283Y-99896372D01*
X144437250Y-99891592D01*
X144412746Y-99891592D01*
X144388713Y-99896373D01*
X144366078Y-99905749D01*
X144346446Y-99916242D01*
X144330051Y-99921216D01*
X144306859Y-99923500D01*
X143893141Y-99923500D01*
X143869949Y-99921216D01*
X143853557Y-99916243D01*
X143838445Y-99908166D01*
X143825202Y-99897298D01*
X143814334Y-99884055D01*
X143806257Y-99868943D01*
X143801284Y-99852551D01*
X143799000Y-99829359D01*
X143799000Y-98290641D01*
X143801284Y-98267449D01*
X143806257Y-98251057D01*
X143814334Y-98235945D01*
X143825202Y-98222702D01*
X143838445Y-98211834D01*
X143853557Y-98203757D01*
X143869949Y-98198784D01*
X143893141Y-98196500D01*
X144306859Y-98196500D01*
X144330051Y-98198784D01*
G37*
G36*
X155403674Y-97043465D02*
G01*
X155441367Y-97054899D01*
X155476103Y-97073466D01*
X155506548Y-97098452D01*
X155531534Y-97128897D01*
X155550101Y-97163633D01*
X155561535Y-97201326D01*
X155566000Y-97246661D01*
X155566000Y-98333339D01*
X155561535Y-98378674D01*
X155550101Y-98416367D01*
X155531534Y-98451103D01*
X155506548Y-98481548D01*
X155476103Y-98506534D01*
X155441367Y-98525101D01*
X155403674Y-98536535D01*
X155358339Y-98541000D01*
X154521661Y-98541000D01*
X154476326Y-98536535D01*
X154438633Y-98525101D01*
X154403897Y-98506534D01*
X154373452Y-98481548D01*
X154348466Y-98451103D01*
X154329899Y-98416367D01*
X154318465Y-98378674D01*
X154314000Y-98333339D01*
X154314000Y-97246661D01*
X154318465Y-97201326D01*
X154329899Y-97163633D01*
X154348466Y-97128897D01*
X154373452Y-97098452D01*
X154403897Y-97073466D01*
X154438633Y-97054899D01*
X154476326Y-97043465D01*
X154521661Y-97039000D01*
X155358339Y-97039000D01*
X155403674Y-97043465D01*
G37*
G36*
X157453674Y-97043465D02*
G01*
X157491367Y-97054899D01*
X157526103Y-97073466D01*
X157556548Y-97098452D01*
X157581534Y-97128897D01*
X157600101Y-97163633D01*
X157611535Y-97201326D01*
X157616000Y-97246661D01*
X157616000Y-98333339D01*
X157611535Y-98378674D01*
X157600101Y-98416367D01*
X157581534Y-98451103D01*
X157556548Y-98481548D01*
X157526103Y-98506534D01*
X157491367Y-98525101D01*
X157453674Y-98536535D01*
X157408339Y-98541000D01*
X156571661Y-98541000D01*
X156526326Y-98536535D01*
X156488633Y-98525101D01*
X156453897Y-98506534D01*
X156423452Y-98481548D01*
X156398466Y-98451103D01*
X156379899Y-98416367D01*
X156368465Y-98378674D01*
X156364000Y-98333339D01*
X156364000Y-97246661D01*
X156368465Y-97201326D01*
X156379899Y-97163633D01*
X156398466Y-97128897D01*
X156423452Y-97098452D01*
X156453897Y-97073466D01*
X156488633Y-97054899D01*
X156526326Y-97043465D01*
X156571661Y-97039000D01*
X157408339Y-97039000D01*
X157453674Y-97043465D01*
G37*
G36*
X152346000Y-97956000D02*
G01*
X149944000Y-97956000D01*
X149944000Y-96354000D01*
X152346000Y-96354000D01*
X152346000Y-97956000D01*
G37*
G36*
X148121000Y-97101000D02*
G01*
X146519000Y-97101000D01*
X146519000Y-94699000D01*
X148121000Y-94699000D01*
X148121000Y-97101000D01*
G37*
G36*
X144819000Y-97101000D02*
G01*
X143217000Y-97101000D01*
X143217000Y-94699000D01*
X144819000Y-94699000D01*
X144819000Y-97101000D01*
G37*
G36*
X162141000Y-96736000D02*
G01*
X160439000Y-96736000D01*
X160439000Y-95034000D01*
X162141000Y-95034000D01*
X162141000Y-96736000D01*
G37*
G36*
X164078228Y-95066703D02*
G01*
X164233100Y-95130853D01*
X164372481Y-95223985D01*
X164491015Y-95342519D01*
X164584147Y-95481900D01*
X164648297Y-95636772D01*
X164681000Y-95801184D01*
X164681000Y-95968816D01*
X164648297Y-96133228D01*
X164584147Y-96288100D01*
X164491015Y-96427481D01*
X164372481Y-96546015D01*
X164233100Y-96639147D01*
X164078228Y-96703297D01*
X163913816Y-96736000D01*
X163746184Y-96736000D01*
X163581772Y-96703297D01*
X163426900Y-96639147D01*
X163287519Y-96546015D01*
X163168985Y-96427481D01*
X163075853Y-96288100D01*
X163011703Y-96133228D01*
X162979000Y-95968816D01*
X162979000Y-95801184D01*
X163011703Y-95636772D01*
X163075853Y-95481900D01*
X163168985Y-95342519D01*
X163287519Y-95223985D01*
X163426900Y-95130853D01*
X163581772Y-95066703D01*
X163746184Y-95034000D01*
X163913816Y-95034000D01*
X164078228Y-95066703D01*
G37*
G36*
X166618228Y-95066703D02*
G01*
X166773100Y-95130853D01*
X166912481Y-95223985D01*
X167031015Y-95342519D01*
X167124147Y-95481900D01*
X167188297Y-95636772D01*
X167221000Y-95801184D01*
X167221000Y-95968816D01*
X167188297Y-96133228D01*
X167124147Y-96288100D01*
X167031015Y-96427481D01*
X166912481Y-96546015D01*
X166773100Y-96639147D01*
X166618228Y-96703297D01*
X166453816Y-96736000D01*
X166286184Y-96736000D01*
X166121772Y-96703297D01*
X165966900Y-96639147D01*
X165827519Y-96546015D01*
X165708985Y-96427481D01*
X165615853Y-96288100D01*
X165551703Y-96133228D01*
X165519000Y-95968816D01*
X165519000Y-95801184D01*
X165551703Y-95636772D01*
X165615853Y-95481900D01*
X165708985Y-95342519D01*
X165827519Y-95223985D01*
X165966900Y-95130853D01*
X166121772Y-95066703D01*
X166286184Y-95034000D01*
X166453816Y-95034000D01*
X166618228Y-95066703D01*
G37*
G36*
X169158228Y-95066703D02*
G01*
X169313100Y-95130853D01*
X169452481Y-95223985D01*
X169571015Y-95342519D01*
X169664147Y-95481900D01*
X169728297Y-95636772D01*
X169761000Y-95801184D01*
X169761000Y-95968816D01*
X169728297Y-96133228D01*
X169664147Y-96288100D01*
X169571015Y-96427481D01*
X169452481Y-96546015D01*
X169313100Y-96639147D01*
X169158228Y-96703297D01*
X168993816Y-96736000D01*
X168826184Y-96736000D01*
X168661772Y-96703297D01*
X168506900Y-96639147D01*
X168367519Y-96546015D01*
X168248985Y-96427481D01*
X168155853Y-96288100D01*
X168091703Y-96133228D01*
X168059000Y-95968816D01*
X168059000Y-95801184D01*
X168091703Y-95636772D01*
X168155853Y-95481900D01*
X168248985Y-95342519D01*
X168367519Y-95223985D01*
X168506900Y-95130853D01*
X168661772Y-95066703D01*
X168826184Y-95034000D01*
X168993816Y-95034000D01*
X169158228Y-95066703D01*
G37*
G36*
X157453674Y-94503465D02*
G01*
X157491367Y-94514899D01*
X157526103Y-94533466D01*
X157556548Y-94558452D01*
X157581534Y-94588897D01*
X157600101Y-94623633D01*
X157611535Y-94661326D01*
X157616000Y-94706661D01*
X157616000Y-95793339D01*
X157611535Y-95838674D01*
X157600101Y-95876367D01*
X157581534Y-95911103D01*
X157556548Y-95941548D01*
X157526103Y-95966534D01*
X157491367Y-95985101D01*
X157453674Y-95996535D01*
X157408339Y-96001000D01*
X156571661Y-96001000D01*
X156526326Y-95996535D01*
X156488633Y-95985101D01*
X156453897Y-95966534D01*
X156423452Y-95941548D01*
X156398466Y-95911103D01*
X156379899Y-95876367D01*
X156368465Y-95838674D01*
X156364000Y-95793339D01*
X156364000Y-94706661D01*
X156368465Y-94661326D01*
X156379899Y-94623633D01*
X156398466Y-94588897D01*
X156423452Y-94558452D01*
X156453897Y-94533466D01*
X156488633Y-94514899D01*
X156526326Y-94503465D01*
X156571661Y-94499000D01*
X157408339Y-94499000D01*
X157453674Y-94503465D01*
G37*
G36*
X155403674Y-94503465D02*
G01*
X155441367Y-94514899D01*
X155476103Y-94533466D01*
X155506548Y-94558452D01*
X155531534Y-94588897D01*
X155550101Y-94623633D01*
X155561535Y-94661326D01*
X155566000Y-94706661D01*
X155566000Y-95793339D01*
X155561535Y-95838674D01*
X155550101Y-95876367D01*
X155531534Y-95911103D01*
X155506548Y-95941548D01*
X155476103Y-95966534D01*
X155441367Y-95985101D01*
X155403674Y-95996535D01*
X155358339Y-96001000D01*
X154521661Y-96001000D01*
X154476326Y-95996535D01*
X154438633Y-95985101D01*
X154403897Y-95966534D01*
X154373452Y-95941548D01*
X154348466Y-95911103D01*
X154329899Y-95876367D01*
X154318465Y-95838674D01*
X154314000Y-95793339D01*
X154314000Y-94706661D01*
X154318465Y-94661326D01*
X154329899Y-94623633D01*
X154348466Y-94588897D01*
X154373452Y-94558452D01*
X154403897Y-94533466D01*
X154438633Y-94514899D01*
X154476326Y-94503465D01*
X154521661Y-94499000D01*
X155358339Y-94499000D01*
X155403674Y-94503465D01*
G37*
G36*
X152346000Y-95416000D02*
G01*
X149944000Y-95416000D01*
X149944000Y-93814000D01*
X152346000Y-93814000D01*
X152346000Y-95416000D01*
G37*
G36*
X135506934Y-91412671D02*
G01*
X135536877Y-91421754D01*
X135564465Y-91436500D01*
X135588651Y-91456349D01*
X135608500Y-91480535D01*
X135623246Y-91508123D01*
X135632329Y-91538066D01*
X135636000Y-91575340D01*
X135636000Y-93844660D01*
X135632329Y-93881934D01*
X135623246Y-93911877D01*
X135608500Y-93939465D01*
X135588651Y-93963651D01*
X135564465Y-93983500D01*
X135536877Y-93998246D01*
X135506934Y-94007329D01*
X135469660Y-94011000D01*
X132200340Y-94011000D01*
X132163066Y-94007329D01*
X132133123Y-93998246D01*
X132105535Y-93983500D01*
X132081349Y-93963651D01*
X132061500Y-93939465D01*
X132046754Y-93911877D01*
X132037671Y-93881934D01*
X132034000Y-93844660D01*
X132034000Y-91575340D01*
X132037671Y-91538066D01*
X132046754Y-91508123D01*
X132061500Y-91480535D01*
X132081349Y-91456349D01*
X132105535Y-91436500D01*
X132133123Y-91421754D01*
X132163066Y-91412671D01*
X132200340Y-91409000D01*
X135469660Y-91409000D01*
X135506934Y-91412671D01*
G37*
G36*
X142006934Y-91412671D02*
G01*
X142036877Y-91421754D01*
X142064465Y-91436500D01*
X142088651Y-91456349D01*
X142108500Y-91480535D01*
X142123246Y-91508123D01*
X142132329Y-91538066D01*
X142136000Y-91575340D01*
X142136000Y-93844660D01*
X142132329Y-93881934D01*
X142123246Y-93911877D01*
X142108500Y-93939465D01*
X142088651Y-93963651D01*
X142064465Y-93983500D01*
X142036877Y-93998246D01*
X142006934Y-94007329D01*
X141969660Y-94011000D01*
X138700340Y-94011000D01*
X138663066Y-94007329D01*
X138633123Y-93998246D01*
X138605535Y-93983500D01*
X138581349Y-93963651D01*
X138561500Y-93939465D01*
X138546754Y-93911877D01*
X138537671Y-93881934D01*
X138534000Y-93844660D01*
X138534000Y-91575340D01*
X138537671Y-91538066D01*
X138546754Y-91508123D01*
X138561500Y-91480535D01*
X138581349Y-91456349D01*
X138605535Y-91436500D01*
X138633123Y-91421754D01*
X138663066Y-91412671D01*
X138700340Y-91409000D01*
X141969660Y-91409000D01*
X142006934Y-91412671D01*
G37*
G36*
X147157674Y-91963465D02*
G01*
X147195367Y-91974899D01*
X147230103Y-91993466D01*
X147260548Y-92018452D01*
X147285534Y-92048897D01*
X147304101Y-92083633D01*
X147315535Y-92121326D01*
X147320000Y-92166661D01*
X147320000Y-93253339D01*
X147315535Y-93298674D01*
X147304101Y-93336367D01*
X147285534Y-93371103D01*
X147260548Y-93401548D01*
X147230103Y-93426534D01*
X147195367Y-93445101D01*
X147157674Y-93456535D01*
X147112339Y-93461000D01*
X146275661Y-93461000D01*
X146230326Y-93456535D01*
X146192633Y-93445101D01*
X146157897Y-93426534D01*
X146127452Y-93401548D01*
X146102466Y-93371103D01*
X146083899Y-93336367D01*
X146072465Y-93298674D01*
X146068000Y-93253339D01*
X146068000Y-92166661D01*
X146072465Y-92121326D01*
X146083899Y-92083633D01*
X146102466Y-92048897D01*
X146127452Y-92018452D01*
X146157897Y-91993466D01*
X146192633Y-91974899D01*
X146230326Y-91963465D01*
X146275661Y-91959000D01*
X147112339Y-91959000D01*
X147157674Y-91963465D01*
G37*
G36*
X145107674Y-91963465D02*
G01*
X145145367Y-91974899D01*
X145180103Y-91993466D01*
X145210548Y-92018452D01*
X145235534Y-92048897D01*
X145254101Y-92083633D01*
X145265535Y-92121326D01*
X145270000Y-92166661D01*
X145270000Y-93253339D01*
X145265535Y-93298674D01*
X145254101Y-93336367D01*
X145235534Y-93371103D01*
X145210548Y-93401548D01*
X145180103Y-93426534D01*
X145145367Y-93445101D01*
X145107674Y-93456535D01*
X145062339Y-93461000D01*
X144225661Y-93461000D01*
X144180326Y-93456535D01*
X144142633Y-93445101D01*
X144107897Y-93426534D01*
X144077452Y-93401548D01*
X144052466Y-93371103D01*
X144033899Y-93336367D01*
X144022465Y-93298674D01*
X144018000Y-93253339D01*
X144018000Y-92166661D01*
X144022465Y-92121326D01*
X144033899Y-92083633D01*
X144052466Y-92048897D01*
X144077452Y-92018452D01*
X144107897Y-91993466D01*
X144142633Y-91974899D01*
X144180326Y-91963465D01*
X144225661Y-91959000D01*
X145062339Y-91959000D01*
X145107674Y-91963465D01*
G37*
G36*
X156476000Y-91706000D02*
G01*
X154674000Y-91706000D01*
X154674000Y-89904000D01*
X156476000Y-89904000D01*
X156476000Y-91706000D01*
G37*
G36*
X144733674Y-89693465D02*
G01*
X144771367Y-89704899D01*
X144806103Y-89723466D01*
X144836548Y-89748452D01*
X144861534Y-89778897D01*
X144880101Y-89813633D01*
X144891535Y-89851326D01*
X144896000Y-89896661D01*
X144896000Y-90733339D01*
X144891535Y-90778674D01*
X144880101Y-90816367D01*
X144861534Y-90851103D01*
X144836548Y-90881548D01*
X144806103Y-90906534D01*
X144771367Y-90925101D01*
X144733674Y-90936535D01*
X144688339Y-90941000D01*
X143601661Y-90941000D01*
X143556326Y-90936535D01*
X143518633Y-90925101D01*
X143483897Y-90906534D01*
X143453452Y-90881548D01*
X143428466Y-90851103D01*
X143409899Y-90816367D01*
X143398465Y-90778674D01*
X143394000Y-90733339D01*
X143394000Y-89896661D01*
X143398465Y-89851326D01*
X143409899Y-89813633D01*
X143428466Y-89778897D01*
X143453452Y-89748452D01*
X143483897Y-89723466D01*
X143518633Y-89704899D01*
X143556326Y-89693465D01*
X143601661Y-89689000D01*
X144688339Y-89689000D01*
X144733674Y-89693465D01*
G37*
G36*
X147908674Y-89693465D02*
G01*
X147946367Y-89704899D01*
X147981103Y-89723466D01*
X148011548Y-89748452D01*
X148036534Y-89778897D01*
X148055101Y-89813633D01*
X148066535Y-89851326D01*
X148071000Y-89896661D01*
X148071000Y-90733339D01*
X148066535Y-90778674D01*
X148055101Y-90816367D01*
X148036534Y-90851103D01*
X148011548Y-90881548D01*
X147981103Y-90906534D01*
X147946367Y-90925101D01*
X147908674Y-90936535D01*
X147863339Y-90941000D01*
X146776661Y-90941000D01*
X146731326Y-90936535D01*
X146693633Y-90925101D01*
X146658897Y-90906534D01*
X146628452Y-90881548D01*
X146603466Y-90851103D01*
X146584899Y-90816367D01*
X146573465Y-90778674D01*
X146569000Y-90733339D01*
X146569000Y-89896661D01*
X146573465Y-89851326D01*
X146584899Y-89813633D01*
X146603466Y-89778897D01*
X146628452Y-89748452D01*
X146658897Y-89723466D01*
X146693633Y-89704899D01*
X146731326Y-89693465D01*
X146776661Y-89689000D01*
X147863339Y-89689000D01*
X147908674Y-89693465D01*
G37*
G36*
X155688512Y-87368927D02*
G01*
X155837812Y-87398624D01*
X156001784Y-87466544D01*
X156149354Y-87565147D01*
X156274853Y-87690646D01*
X156373456Y-87838216D01*
X156441376Y-88002188D01*
X156476000Y-88176259D01*
X156476000Y-88353741D01*
X156441376Y-88527812D01*
X156373456Y-88691784D01*
X156274853Y-88839354D01*
X156149354Y-88964853D01*
X156001784Y-89063456D01*
X155837812Y-89131376D01*
X155688512Y-89161073D01*
X155663742Y-89166000D01*
X155486258Y-89166000D01*
X155461488Y-89161073D01*
X155312188Y-89131376D01*
X155148216Y-89063456D01*
X155000646Y-88964853D01*
X154875147Y-88839354D01*
X154776544Y-88691784D01*
X154708624Y-88527812D01*
X154674000Y-88353741D01*
X154674000Y-88176259D01*
X154708624Y-88002188D01*
X154776544Y-87838216D01*
X154875147Y-87690646D01*
X155000646Y-87565147D01*
X155148216Y-87466544D01*
X155312188Y-87398624D01*
X155461488Y-87368927D01*
X155486258Y-87364000D01*
X155663742Y-87364000D01*
X155688512Y-87368927D01*
G37*
G36*
X169158228Y-87446703D02*
G01*
X169313100Y-87510853D01*
X169452481Y-87603985D01*
X169571015Y-87722519D01*
X169664147Y-87861900D01*
X169728297Y-88016772D01*
X169761000Y-88181184D01*
X169761000Y-88348816D01*
X169728297Y-88513228D01*
X169664147Y-88668100D01*
X169571015Y-88807481D01*
X169452481Y-88926015D01*
X169313100Y-89019147D01*
X169158228Y-89083297D01*
X168993816Y-89116000D01*
X168826184Y-89116000D01*
X168661772Y-89083297D01*
X168506900Y-89019147D01*
X168367519Y-88926015D01*
X168248985Y-88807481D01*
X168155853Y-88668100D01*
X168091703Y-88513228D01*
X168059000Y-88348816D01*
X168059000Y-88181184D01*
X168091703Y-88016772D01*
X168155853Y-87861900D01*
X168248985Y-87722519D01*
X168367519Y-87603985D01*
X168506900Y-87510853D01*
X168661772Y-87446703D01*
X168826184Y-87414000D01*
X168993816Y-87414000D01*
X169158228Y-87446703D01*
G37*
G36*
X166618228Y-87446703D02*
G01*
X166773100Y-87510853D01*
X166912481Y-87603985D01*
X167031015Y-87722519D01*
X167124147Y-87861900D01*
X167188297Y-88016772D01*
X167221000Y-88181184D01*
X167221000Y-88348816D01*
X167188297Y-88513228D01*
X167124147Y-88668100D01*
X167031015Y-88807481D01*
X166912481Y-88926015D01*
X166773100Y-89019147D01*
X166618228Y-89083297D01*
X166453816Y-89116000D01*
X166286184Y-89116000D01*
X166121772Y-89083297D01*
X165966900Y-89019147D01*
X165827519Y-88926015D01*
X165708985Y-88807481D01*
X165615853Y-88668100D01*
X165551703Y-88513228D01*
X165519000Y-88348816D01*
X165519000Y-88181184D01*
X165551703Y-88016772D01*
X165615853Y-87861900D01*
X165708985Y-87722519D01*
X165827519Y-87603985D01*
X165966900Y-87510853D01*
X166121772Y-87446703D01*
X166286184Y-87414000D01*
X166453816Y-87414000D01*
X166618228Y-87446703D01*
G37*
G36*
X164078228Y-87446703D02*
G01*
X164233100Y-87510853D01*
X164372481Y-87603985D01*
X164491015Y-87722519D01*
X164584147Y-87861900D01*
X164648297Y-88016772D01*
X164681000Y-88181184D01*
X164681000Y-88348816D01*
X164648297Y-88513228D01*
X164584147Y-88668100D01*
X164491015Y-88807481D01*
X164372481Y-88926015D01*
X164233100Y-89019147D01*
X164078228Y-89083297D01*
X163913816Y-89116000D01*
X163746184Y-89116000D01*
X163581772Y-89083297D01*
X163426900Y-89019147D01*
X163287519Y-88926015D01*
X163168985Y-88807481D01*
X163075853Y-88668100D01*
X163011703Y-88513228D01*
X162979000Y-88348816D01*
X162979000Y-88181184D01*
X163011703Y-88016772D01*
X163075853Y-87861900D01*
X163168985Y-87722519D01*
X163287519Y-87603985D01*
X163426900Y-87510853D01*
X163581772Y-87446703D01*
X163746184Y-87414000D01*
X163913816Y-87414000D01*
X164078228Y-87446703D01*
G37*
G36*
X161538228Y-87446703D02*
G01*
X161693100Y-87510853D01*
X161832481Y-87603985D01*
X161951015Y-87722519D01*
X162044147Y-87861900D01*
X162108297Y-88016772D01*
X162141000Y-88181184D01*
X162141000Y-88348816D01*
X162108297Y-88513228D01*
X162044147Y-88668100D01*
X161951015Y-88807481D01*
X161832481Y-88926015D01*
X161693100Y-89019147D01*
X161538228Y-89083297D01*
X161373816Y-89116000D01*
X161206184Y-89116000D01*
X161041772Y-89083297D01*
X160886900Y-89019147D01*
X160747519Y-88926015D01*
X160628985Y-88807481D01*
X160535853Y-88668100D01*
X160471703Y-88513228D01*
X160439000Y-88348816D01*
X160439000Y-88181184D01*
X160471703Y-88016772D01*
X160535853Y-87861900D01*
X160628985Y-87722519D01*
X160747519Y-87603985D01*
X160886900Y-87510853D01*
X161041772Y-87446703D01*
X161206184Y-87414000D01*
X161373816Y-87414000D01*
X161538228Y-87446703D01*
G37*
G36*
X147908674Y-87643465D02*
G01*
X147946367Y-87654899D01*
X147981103Y-87673466D01*
X148011548Y-87698452D01*
X148036534Y-87728897D01*
X148055101Y-87763633D01*
X148066535Y-87801326D01*
X148071000Y-87846661D01*
X148071000Y-88683339D01*
X148066535Y-88728674D01*
X148055101Y-88766367D01*
X148036534Y-88801103D01*
X148011548Y-88831548D01*
X147981103Y-88856534D01*
X147946367Y-88875101D01*
X147908674Y-88886535D01*
X147863339Y-88891000D01*
X146776661Y-88891000D01*
X146731326Y-88886535D01*
X146693633Y-88875101D01*
X146658897Y-88856534D01*
X146628452Y-88831548D01*
X146603466Y-88801103D01*
X146584899Y-88766367D01*
X146573465Y-88728674D01*
X146569000Y-88683339D01*
X146569000Y-87846661D01*
X146573465Y-87801326D01*
X146584899Y-87763633D01*
X146603466Y-87728897D01*
X146628452Y-87698452D01*
X146658897Y-87673466D01*
X146693633Y-87654899D01*
X146731326Y-87643465D01*
X146776661Y-87639000D01*
X147863339Y-87639000D01*
X147908674Y-87643465D01*
G37*
G36*
X144733674Y-87643465D02*
G01*
X144771367Y-87654899D01*
X144806103Y-87673466D01*
X144836548Y-87698452D01*
X144861534Y-87728897D01*
X144880101Y-87763633D01*
X144891535Y-87801326D01*
X144896000Y-87846661D01*
X144896000Y-88683339D01*
X144891535Y-88728674D01*
X144880101Y-88766367D01*
X144861534Y-88801103D01*
X144836548Y-88831548D01*
X144806103Y-88856534D01*
X144771367Y-88875101D01*
X144733674Y-88886535D01*
X144688339Y-88891000D01*
X143601661Y-88891000D01*
X143556326Y-88886535D01*
X143518633Y-88875101D01*
X143483897Y-88856534D01*
X143453452Y-88831548D01*
X143428466Y-88801103D01*
X143409899Y-88766367D01*
X143398465Y-88728674D01*
X143394000Y-88683339D01*
X143394000Y-87846661D01*
X143398465Y-87801326D01*
X143409899Y-87763633D01*
X143428466Y-87728897D01*
X143453452Y-87698452D01*
X143483897Y-87673466D01*
X143518633Y-87654899D01*
X143556326Y-87643465D01*
X143601661Y-87639000D01*
X144688339Y-87639000D01*
X144733674Y-87643465D01*
G37*
G36*
X138696000Y-86626000D02*
G01*
X136894000Y-86626000D01*
X136894000Y-84824000D01*
X138696000Y-84824000D01*
X138696000Y-86626000D01*
G37*
G36*
X140448512Y-84828927D02*
G01*
X140597812Y-84858624D01*
X140761784Y-84926544D01*
X140909354Y-85025147D01*
X141034853Y-85150646D01*
X141133456Y-85298216D01*
X141201376Y-85462188D01*
X141236000Y-85636259D01*
X141236000Y-85813741D01*
X141201376Y-85987812D01*
X141133456Y-86151784D01*
X141034853Y-86299354D01*
X140909354Y-86424853D01*
X140761784Y-86523456D01*
X140597812Y-86591376D01*
X140448512Y-86621073D01*
X140423742Y-86626000D01*
X140246258Y-86626000D01*
X140221488Y-86621073D01*
X140072188Y-86591376D01*
X139908216Y-86523456D01*
X139760646Y-86424853D01*
X139635147Y-86299354D01*
X139536544Y-86151784D01*
X139468624Y-85987812D01*
X139434000Y-85813741D01*
X139434000Y-85636259D01*
X139468624Y-85462188D01*
X139536544Y-85298216D01*
X139635147Y-85150646D01*
X139760646Y-85025147D01*
X139908216Y-84926544D01*
X140072188Y-84858624D01*
X140221488Y-84828927D01*
X140246258Y-84824000D01*
X140423742Y-84824000D01*
X140448512Y-84828927D01*
G37*
G36*
X134886000Y-86626000D02*
G01*
X133084000Y-86626000D01*
X133084000Y-84824000D01*
X134886000Y-84824000D01*
X134886000Y-86626000D01*
G37*
G36*
X151076000Y-86526000D02*
G01*
X147374000Y-86526000D01*
X147374000Y-84924000D01*
X151076000Y-84924000D01*
X151076000Y-86526000D01*
G37*
G36*
X156163674Y-83207465D02*
G01*
X156201367Y-83218899D01*
X156236103Y-83237466D01*
X156266548Y-83262452D01*
X156291534Y-83292897D01*
X156310101Y-83327633D01*
X156321535Y-83365326D01*
X156326000Y-83410661D01*
X156326000Y-84247339D01*
X156321535Y-84292674D01*
X156310101Y-84330367D01*
X156291534Y-84365103D01*
X156266548Y-84395548D01*
X156236103Y-84420534D01*
X156201367Y-84439101D01*
X156163674Y-84450535D01*
X156118339Y-84455000D01*
X155031661Y-84455000D01*
X154986326Y-84450535D01*
X154948633Y-84439101D01*
X154913897Y-84420534D01*
X154883452Y-84395548D01*
X154858466Y-84365103D01*
X154839899Y-84330367D01*
X154828465Y-84292674D01*
X154824000Y-84247339D01*
X154824000Y-83410661D01*
X154828465Y-83365326D01*
X154839899Y-83327633D01*
X154858466Y-83292897D01*
X154883452Y-83262452D01*
X154913897Y-83237466D01*
X154948633Y-83218899D01*
X154986326Y-83207465D01*
X155031661Y-83203000D01*
X156118339Y-83203000D01*
X156163674Y-83207465D01*
G37*
G36*
X161751674Y-83207465D02*
G01*
X161789367Y-83218899D01*
X161824103Y-83237466D01*
X161854548Y-83262452D01*
X161879534Y-83292897D01*
X161898101Y-83327633D01*
X161909535Y-83365326D01*
X161914000Y-83410661D01*
X161914000Y-84247339D01*
X161909535Y-84292674D01*
X161898101Y-84330367D01*
X161879534Y-84365103D01*
X161854548Y-84395548D01*
X161824103Y-84420534D01*
X161789367Y-84439101D01*
X161751674Y-84450535D01*
X161706339Y-84455000D01*
X160619661Y-84455000D01*
X160574326Y-84450535D01*
X160536633Y-84439101D01*
X160501897Y-84420534D01*
X160471452Y-84395548D01*
X160446466Y-84365103D01*
X160427899Y-84330367D01*
X160416465Y-84292674D01*
X160412000Y-84247339D01*
X160412000Y-83410661D01*
X160416465Y-83365326D01*
X160427899Y-83327633D01*
X160446466Y-83292897D01*
X160471452Y-83262452D01*
X160501897Y-83237466D01*
X160536633Y-83218899D01*
X160574326Y-83207465D01*
X160619661Y-83203000D01*
X161706339Y-83203000D01*
X161751674Y-83207465D01*
G37*
G36*
X142574928Y-82201764D02*
G01*
X142596009Y-82208160D01*
X142615445Y-82218548D01*
X142632476Y-82232524D01*
X142646452Y-82249555D01*
X142656840Y-82268991D01*
X142663236Y-82290072D01*
X142666000Y-82318140D01*
X142666000Y-82781860D01*
X142663236Y-82809928D01*
X142656840Y-82831009D01*
X142646452Y-82850445D01*
X142632476Y-82867476D01*
X142615445Y-82881452D01*
X142596009Y-82891840D01*
X142574928Y-82898236D01*
X142546860Y-82901000D01*
X141083140Y-82901000D01*
X141055072Y-82898236D01*
X141033991Y-82891840D01*
X141014555Y-82881452D01*
X140997524Y-82867476D01*
X140983548Y-82850445D01*
X140973160Y-82831009D01*
X140966764Y-82809928D01*
X140964000Y-82781860D01*
X140964000Y-82318140D01*
X140966764Y-82290072D01*
X140973160Y-82268991D01*
X140983548Y-82249555D01*
X140997524Y-82232524D01*
X141014555Y-82218548D01*
X141033991Y-82208160D01*
X141055072Y-82201764D01*
X141083140Y-82199000D01*
X142546860Y-82199000D01*
X142574928Y-82201764D01*
G37*
G36*
X149774928Y-82201764D02*
G01*
X149796009Y-82208160D01*
X149815445Y-82218548D01*
X149832476Y-82232524D01*
X149846452Y-82249555D01*
X149856840Y-82268991D01*
X149863236Y-82290072D01*
X149866000Y-82318140D01*
X149866000Y-82781860D01*
X149863236Y-82809928D01*
X149856840Y-82831009D01*
X149846452Y-82850445D01*
X149832476Y-82867476D01*
X149815445Y-82881452D01*
X149796009Y-82891840D01*
X149774928Y-82898236D01*
X149746860Y-82901000D01*
X148283140Y-82901000D01*
X148255072Y-82898236D01*
X148233991Y-82891840D01*
X148214555Y-82881452D01*
X148197524Y-82867476D01*
X148183548Y-82850445D01*
X148173160Y-82831009D01*
X148166764Y-82809928D01*
X148164000Y-82781860D01*
X148164000Y-82318140D01*
X148166764Y-82290072D01*
X148173160Y-82268991D01*
X148183548Y-82249555D01*
X148197524Y-82232524D01*
X148214555Y-82218548D01*
X148233991Y-82208160D01*
X148255072Y-82201764D01*
X148283140Y-82199000D01*
X149746860Y-82199000D01*
X149774928Y-82201764D01*
G37*
G36*
X161751674Y-81157465D02*
G01*
X161789367Y-81168899D01*
X161824103Y-81187466D01*
X161854548Y-81212452D01*
X161879534Y-81242897D01*
X161898101Y-81277633D01*
X161909535Y-81315326D01*
X161914000Y-81360661D01*
X161914000Y-82197339D01*
X161909535Y-82242674D01*
X161898101Y-82280367D01*
X161879534Y-82315103D01*
X161854548Y-82345548D01*
X161824103Y-82370534D01*
X161789367Y-82389101D01*
X161751674Y-82400535D01*
X161706339Y-82405000D01*
X160619661Y-82405000D01*
X160574326Y-82400535D01*
X160536633Y-82389101D01*
X160501897Y-82370534D01*
X160471452Y-82345548D01*
X160446466Y-82315103D01*
X160427899Y-82280367D01*
X160416465Y-82242674D01*
X160412000Y-82197339D01*
X160412000Y-81360661D01*
X160416465Y-81315326D01*
X160427899Y-81277633D01*
X160446466Y-81242897D01*
X160471452Y-81212452D01*
X160501897Y-81187466D01*
X160536633Y-81168899D01*
X160574326Y-81157465D01*
X160619661Y-81153000D01*
X161706339Y-81153000D01*
X161751674Y-81157465D01*
G37*
G36*
X156163674Y-81157465D02*
G01*
X156201367Y-81168899D01*
X156236103Y-81187466D01*
X156266548Y-81212452D01*
X156291534Y-81242897D01*
X156310101Y-81277633D01*
X156321535Y-81315326D01*
X156326000Y-81360661D01*
X156326000Y-82197339D01*
X156321535Y-82242674D01*
X156310101Y-82280367D01*
X156291534Y-82315103D01*
X156266548Y-82345548D01*
X156236103Y-82370534D01*
X156201367Y-82389101D01*
X156163674Y-82400535D01*
X156118339Y-82405000D01*
X155031661Y-82405000D01*
X154986326Y-82400535D01*
X154948633Y-82389101D01*
X154913897Y-82370534D01*
X154883452Y-82345548D01*
X154858466Y-82315103D01*
X154839899Y-82280367D01*
X154828465Y-82242674D01*
X154824000Y-82197339D01*
X154824000Y-81360661D01*
X154828465Y-81315326D01*
X154839899Y-81277633D01*
X154858466Y-81242897D01*
X154883452Y-81212452D01*
X154913897Y-81187466D01*
X154948633Y-81168899D01*
X154986326Y-81157465D01*
X155031661Y-81153000D01*
X156118339Y-81153000D01*
X156163674Y-81157465D01*
G37*
G36*
X157807674Y-80533465D02*
G01*
X157845367Y-80544899D01*
X157880103Y-80563466D01*
X157910548Y-80588452D01*
X157935534Y-80618897D01*
X157954101Y-80653633D01*
X157965535Y-80691326D01*
X157970000Y-80736661D01*
X157970000Y-81823339D01*
X157965535Y-81868674D01*
X157954101Y-81906367D01*
X157935534Y-81941103D01*
X157910548Y-81971548D01*
X157880103Y-81996534D01*
X157845367Y-82015101D01*
X157807674Y-82026535D01*
X157762339Y-82031000D01*
X156925661Y-82031000D01*
X156880326Y-82026535D01*
X156842633Y-82015101D01*
X156807897Y-81996534D01*
X156777452Y-81971548D01*
X156752466Y-81941103D01*
X156733899Y-81906367D01*
X156722465Y-81868674D01*
X156718000Y-81823339D01*
X156718000Y-80736661D01*
X156722465Y-80691326D01*
X156733899Y-80653633D01*
X156752466Y-80618897D01*
X156777452Y-80588452D01*
X156807897Y-80563466D01*
X156842633Y-80544899D01*
X156880326Y-80533465D01*
X156925661Y-80529000D01*
X157762339Y-80529000D01*
X157807674Y-80533465D01*
G37*
G36*
X163395674Y-80533465D02*
G01*
X163433367Y-80544899D01*
X163468103Y-80563466D01*
X163498548Y-80588452D01*
X163523534Y-80618897D01*
X163542101Y-80653633D01*
X163553535Y-80691326D01*
X163558000Y-80736661D01*
X163558000Y-81823339D01*
X163553535Y-81868674D01*
X163542101Y-81906367D01*
X163523534Y-81941103D01*
X163498548Y-81971548D01*
X163468103Y-81996534D01*
X163433367Y-82015101D01*
X163395674Y-82026535D01*
X163350339Y-82031000D01*
X162513661Y-82031000D01*
X162468326Y-82026535D01*
X162430633Y-82015101D01*
X162395897Y-81996534D01*
X162365452Y-81971548D01*
X162340466Y-81941103D01*
X162321899Y-81906367D01*
X162310465Y-81868674D01*
X162306000Y-81823339D01*
X162306000Y-80736661D01*
X162310465Y-80691326D01*
X162321899Y-80653633D01*
X162340466Y-80618897D01*
X162365452Y-80588452D01*
X162395897Y-80563466D01*
X162430633Y-80544899D01*
X162468326Y-80533465D01*
X162513661Y-80529000D01*
X163350339Y-80529000D01*
X163395674Y-80533465D01*
G37*
G36*
X159857674Y-80533465D02*
G01*
X159895367Y-80544899D01*
X159930103Y-80563466D01*
X159960548Y-80588452D01*
X159985534Y-80618897D01*
X160004101Y-80653633D01*
X160015535Y-80691326D01*
X160020000Y-80736661D01*
X160020000Y-81823339D01*
X160015535Y-81868674D01*
X160004101Y-81906367D01*
X159985534Y-81941103D01*
X159960548Y-81971548D01*
X159930103Y-81996534D01*
X159895367Y-82015101D01*
X159857674Y-82026535D01*
X159812339Y-82031000D01*
X158975661Y-82031000D01*
X158930326Y-82026535D01*
X158892633Y-82015101D01*
X158857897Y-81996534D01*
X158827452Y-81971548D01*
X158802466Y-81941103D01*
X158783899Y-81906367D01*
X158772465Y-81868674D01*
X158768000Y-81823339D01*
X158768000Y-80736661D01*
X158772465Y-80691326D01*
X158783899Y-80653633D01*
X158802466Y-80618897D01*
X158827452Y-80588452D01*
X158857897Y-80563466D01*
X158892633Y-80544899D01*
X158930326Y-80533465D01*
X158975661Y-80529000D01*
X159812339Y-80529000D01*
X159857674Y-80533465D01*
G37*
G36*
X152228674Y-80533465D02*
G01*
X152266367Y-80544899D01*
X152301103Y-80563466D01*
X152331548Y-80588452D01*
X152356534Y-80618897D01*
X152375101Y-80653633D01*
X152386535Y-80691326D01*
X152391000Y-80736661D01*
X152391000Y-81823339D01*
X152386535Y-81868674D01*
X152375101Y-81906367D01*
X152356534Y-81941103D01*
X152331548Y-81971548D01*
X152301103Y-81996534D01*
X152266367Y-82015101D01*
X152228674Y-82026535D01*
X152183339Y-82031000D01*
X151346661Y-82031000D01*
X151301326Y-82026535D01*
X151263633Y-82015101D01*
X151228897Y-81996534D01*
X151198452Y-81971548D01*
X151173466Y-81941103D01*
X151154899Y-81906367D01*
X151143465Y-81868674D01*
X151139000Y-81823339D01*
X151139000Y-80736661D01*
X151143465Y-80691326D01*
X151154899Y-80653633D01*
X151173466Y-80618897D01*
X151198452Y-80588452D01*
X151228897Y-80563466D01*
X151263633Y-80544899D01*
X151301326Y-80533465D01*
X151346661Y-80529000D01*
X152183339Y-80529000D01*
X152228674Y-80533465D01*
G37*
G36*
X154278674Y-80533465D02*
G01*
X154316367Y-80544899D01*
X154351103Y-80563466D01*
X154381548Y-80588452D01*
X154406534Y-80618897D01*
X154425101Y-80653633D01*
X154436535Y-80691326D01*
X154441000Y-80736661D01*
X154441000Y-81823339D01*
X154436535Y-81868674D01*
X154425101Y-81906367D01*
X154406534Y-81941103D01*
X154381548Y-81971548D01*
X154351103Y-81996534D01*
X154316367Y-82015101D01*
X154278674Y-82026535D01*
X154233339Y-82031000D01*
X153396661Y-82031000D01*
X153351326Y-82026535D01*
X153313633Y-82015101D01*
X153278897Y-81996534D01*
X153248452Y-81971548D01*
X153223466Y-81941103D01*
X153204899Y-81906367D01*
X153193465Y-81868674D01*
X153189000Y-81823339D01*
X153189000Y-80736661D01*
X153193465Y-80691326D01*
X153204899Y-80653633D01*
X153223466Y-80618897D01*
X153248452Y-80588452D01*
X153278897Y-80563466D01*
X153313633Y-80544899D01*
X153351326Y-80533465D01*
X153396661Y-80529000D01*
X154233339Y-80529000D01*
X154278674Y-80533465D01*
G37*
G36*
X165445674Y-80533465D02*
G01*
X165483367Y-80544899D01*
X165518103Y-80563466D01*
X165548548Y-80588452D01*
X165573534Y-80618897D01*
X165592101Y-80653633D01*
X165603535Y-80691326D01*
X165608000Y-80736661D01*
X165608000Y-81823339D01*
X165603535Y-81868674D01*
X165592101Y-81906367D01*
X165573534Y-81941103D01*
X165548548Y-81971548D01*
X165518103Y-81996534D01*
X165483367Y-82015101D01*
X165445674Y-82026535D01*
X165400339Y-82031000D01*
X164563661Y-82031000D01*
X164518326Y-82026535D01*
X164480633Y-82015101D01*
X164445897Y-81996534D01*
X164415452Y-81971548D01*
X164390466Y-81941103D01*
X164371899Y-81906367D01*
X164360465Y-81868674D01*
X164356000Y-81823339D01*
X164356000Y-80736661D01*
X164360465Y-80691326D01*
X164371899Y-80653633D01*
X164390466Y-80618897D01*
X164415452Y-80588452D01*
X164445897Y-80563466D01*
X164480633Y-80544899D01*
X164518326Y-80533465D01*
X164563661Y-80529000D01*
X165400339Y-80529000D01*
X165445674Y-80533465D01*
G37*
G36*
X142574928Y-80931764D02*
G01*
X142596009Y-80938160D01*
X142615445Y-80948548D01*
X142632476Y-80962524D01*
X142646452Y-80979555D01*
X142656840Y-80998991D01*
X142663236Y-81020072D01*
X142666000Y-81048140D01*
X142666000Y-81511860D01*
X142663236Y-81539928D01*
X142656840Y-81561009D01*
X142646452Y-81580445D01*
X142632476Y-81597476D01*
X142615445Y-81611452D01*
X142596009Y-81621840D01*
X142574928Y-81628236D01*
X142546860Y-81631000D01*
X141083140Y-81631000D01*
X141055072Y-81628236D01*
X141033991Y-81621840D01*
X141014555Y-81611452D01*
X140997524Y-81597476D01*
X140983548Y-81580445D01*
X140973160Y-81561009D01*
X140966764Y-81539928D01*
X140964000Y-81511860D01*
X140964000Y-81048140D01*
X140966764Y-81020072D01*
X140973160Y-80998991D01*
X140983548Y-80979555D01*
X140997524Y-80962524D01*
X141014555Y-80948548D01*
X141033991Y-80938160D01*
X141055072Y-80931764D01*
X141083140Y-80929000D01*
X142546860Y-80929000D01*
X142574928Y-80931764D01*
G37*
G36*
X149774928Y-80931764D02*
G01*
X149796009Y-80938160D01*
X149815445Y-80948548D01*
X149832476Y-80962524D01*
X149846452Y-80979555D01*
X149856840Y-80998991D01*
X149863236Y-81020072D01*
X149866000Y-81048140D01*
X149866000Y-81511860D01*
X149863236Y-81539928D01*
X149856840Y-81561009D01*
X149846452Y-81580445D01*
X149832476Y-81597476D01*
X149815445Y-81611452D01*
X149796009Y-81621840D01*
X149774928Y-81628236D01*
X149746860Y-81631000D01*
X148283140Y-81631000D01*
X148255072Y-81628236D01*
X148233991Y-81621840D01*
X148214555Y-81611452D01*
X148197524Y-81597476D01*
X148183548Y-81580445D01*
X148173160Y-81561009D01*
X148166764Y-81539928D01*
X148164000Y-81511860D01*
X148164000Y-81048140D01*
X148166764Y-81020072D01*
X148173160Y-80998991D01*
X148183548Y-80979555D01*
X148197524Y-80962524D01*
X148214555Y-80948548D01*
X148233991Y-80938160D01*
X148255072Y-80931764D01*
X148283140Y-80929000D01*
X149746860Y-80929000D01*
X149774928Y-80931764D01*
G37*
G36*
X134886000Y-81546000D02*
G01*
X133084000Y-81546000D01*
X133084000Y-79744000D01*
X134886000Y-79744000D01*
X134886000Y-81546000D01*
G37*
G36*
X137478674Y-79898465D02*
G01*
X137516367Y-79909899D01*
X137551103Y-79928466D01*
X137581548Y-79953452D01*
X137606534Y-79983897D01*
X137625101Y-80018633D01*
X137636535Y-80056326D01*
X137641000Y-80101661D01*
X137641000Y-81188339D01*
X137636535Y-81233674D01*
X137625101Y-81271367D01*
X137606534Y-81306103D01*
X137581548Y-81336548D01*
X137551103Y-81361534D01*
X137516367Y-81380101D01*
X137478674Y-81391535D01*
X137433339Y-81396000D01*
X136596661Y-81396000D01*
X136551326Y-81391535D01*
X136513633Y-81380101D01*
X136478897Y-81361534D01*
X136448452Y-81336548D01*
X136423466Y-81306103D01*
X136404899Y-81271367D01*
X136393465Y-81233674D01*
X136389000Y-81188339D01*
X136389000Y-80101661D01*
X136393465Y-80056326D01*
X136404899Y-80018633D01*
X136423466Y-79983897D01*
X136448452Y-79953452D01*
X136478897Y-79928466D01*
X136513633Y-79909899D01*
X136551326Y-79898465D01*
X136596661Y-79894000D01*
X137433339Y-79894000D01*
X137478674Y-79898465D01*
G37*
G36*
X139528674Y-79898465D02*
G01*
X139566367Y-79909899D01*
X139601103Y-79928466D01*
X139631548Y-79953452D01*
X139656534Y-79983897D01*
X139675101Y-80018633D01*
X139686535Y-80056326D01*
X139691000Y-80101661D01*
X139691000Y-81188339D01*
X139686535Y-81233674D01*
X139675101Y-81271367D01*
X139656534Y-81306103D01*
X139631548Y-81336548D01*
X139601103Y-81361534D01*
X139566367Y-81380101D01*
X139528674Y-81391535D01*
X139483339Y-81396000D01*
X138646661Y-81396000D01*
X138601326Y-81391535D01*
X138563633Y-81380101D01*
X138528897Y-81361534D01*
X138498452Y-81336548D01*
X138473466Y-81306103D01*
X138454899Y-81271367D01*
X138443465Y-81233674D01*
X138439000Y-81188339D01*
X138439000Y-80101661D01*
X138443465Y-80056326D01*
X138454899Y-80018633D01*
X138473466Y-79983897D01*
X138498452Y-79953452D01*
X138528897Y-79928466D01*
X138563633Y-79909899D01*
X138601326Y-79898465D01*
X138646661Y-79894000D01*
X139483339Y-79894000D01*
X139528674Y-79898465D01*
G37*
G36*
X168000000Y-81190000D02*
G01*
X166398000Y-81190000D01*
X166398000Y-80638000D01*
X168000000Y-80638000D01*
X168000000Y-81190000D01*
G37*
G36*
X170660000Y-80540000D02*
G01*
X169058000Y-80540000D01*
X169058000Y-79988000D01*
X170660000Y-79988000D01*
X170660000Y-80540000D01*
G37*
G36*
X142574928Y-79661764D02*
G01*
X142596009Y-79668160D01*
X142615445Y-79678548D01*
X142632476Y-79692524D01*
X142646452Y-79709555D01*
X142656840Y-79728991D01*
X142663236Y-79750072D01*
X142666000Y-79778140D01*
X142666000Y-80241860D01*
X142663236Y-80269928D01*
X142656840Y-80291009D01*
X142646452Y-80310445D01*
X142632476Y-80327476D01*
X142615445Y-80341452D01*
X142596009Y-80351840D01*
X142574928Y-80358236D01*
X142546860Y-80361000D01*
X141083140Y-80361000D01*
X141055072Y-80358236D01*
X141033991Y-80351840D01*
X141014555Y-80341452D01*
X140997524Y-80327476D01*
X140983548Y-80310445D01*
X140973160Y-80291009D01*
X140966764Y-80269928D01*
X140964000Y-80241860D01*
X140964000Y-79778140D01*
X140966764Y-79750072D01*
X140973160Y-79728991D01*
X140983548Y-79709555D01*
X140997524Y-79692524D01*
X141014555Y-79678548D01*
X141033991Y-79668160D01*
X141055072Y-79661764D01*
X141083140Y-79659000D01*
X142546860Y-79659000D01*
X142574928Y-79661764D01*
G37*
G36*
X149774928Y-79661764D02*
G01*
X149796009Y-79668160D01*
X149815445Y-79678548D01*
X149832476Y-79692524D01*
X149846452Y-79709555D01*
X149856840Y-79728991D01*
X149863236Y-79750072D01*
X149866000Y-79778140D01*
X149866000Y-80241860D01*
X149863236Y-80269928D01*
X149856840Y-80291009D01*
X149846452Y-80310445D01*
X149832476Y-80327476D01*
X149815445Y-80341452D01*
X149796009Y-80351840D01*
X149774928Y-80358236D01*
X149746860Y-80361000D01*
X148283140Y-80361000D01*
X148255072Y-80358236D01*
X148233991Y-80351840D01*
X148214555Y-80341452D01*
X148197524Y-80327476D01*
X148183548Y-80310445D01*
X148173160Y-80291009D01*
X148166764Y-80269928D01*
X148164000Y-80241860D01*
X148164000Y-79778140D01*
X148166764Y-79750072D01*
X148173160Y-79728991D01*
X148183548Y-79709555D01*
X148197524Y-79692524D01*
X148214555Y-79678548D01*
X148233991Y-79668160D01*
X148255072Y-79661764D01*
X148283140Y-79659000D01*
X149746860Y-79659000D01*
X149774928Y-79661764D01*
G37*
G36*
X168000000Y-79890000D02*
G01*
X166398000Y-79890000D01*
X166398000Y-79338000D01*
X168000000Y-79338000D01*
X168000000Y-79890000D01*
G37*
G36*
X142574928Y-78391764D02*
G01*
X142596009Y-78398160D01*
X142615445Y-78408548D01*
X142632476Y-78422524D01*
X142646452Y-78439555D01*
X142656840Y-78458991D01*
X142663236Y-78480072D01*
X142666000Y-78508140D01*
X142666000Y-78971860D01*
X142663236Y-78999928D01*
X142656840Y-79021009D01*
X142646452Y-79040445D01*
X142632476Y-79057476D01*
X142615445Y-79071452D01*
X142596009Y-79081840D01*
X142574928Y-79088236D01*
X142546860Y-79091000D01*
X141083140Y-79091000D01*
X141055072Y-79088236D01*
X141033991Y-79081840D01*
X141014555Y-79071452D01*
X140997524Y-79057476D01*
X140983548Y-79040445D01*
X140973160Y-79021009D01*
X140966764Y-78999928D01*
X140964000Y-78971860D01*
X140964000Y-78508140D01*
X140966764Y-78480072D01*
X140973160Y-78458991D01*
X140983548Y-78439555D01*
X140997524Y-78422524D01*
X141014555Y-78408548D01*
X141033991Y-78398160D01*
X141055072Y-78391764D01*
X141083140Y-78389000D01*
X142546860Y-78389000D01*
X142574928Y-78391764D01*
G37*
G36*
X149774928Y-78391764D02*
G01*
X149796009Y-78398160D01*
X149815445Y-78408548D01*
X149832476Y-78422524D01*
X149846452Y-78439555D01*
X149856840Y-78458991D01*
X149863236Y-78480072D01*
X149866000Y-78508140D01*
X149866000Y-78971860D01*
X149863236Y-78999928D01*
X149856840Y-79021009D01*
X149846452Y-79040445D01*
X149832476Y-79057476D01*
X149815445Y-79071452D01*
X149796009Y-79081840D01*
X149774928Y-79088236D01*
X149746860Y-79091000D01*
X148283140Y-79091000D01*
X148255072Y-79088236D01*
X148233991Y-79081840D01*
X148214555Y-79071452D01*
X148197524Y-79057476D01*
X148183548Y-79040445D01*
X148173160Y-79021009D01*
X148166764Y-78999928D01*
X148164000Y-78971860D01*
X148164000Y-78508140D01*
X148166764Y-78480072D01*
X148173160Y-78458991D01*
X148183548Y-78439555D01*
X148197524Y-78422524D01*
X148214555Y-78408548D01*
X148233991Y-78398160D01*
X148255072Y-78391764D01*
X148283140Y-78389000D01*
X149746860Y-78389000D01*
X149774928Y-78391764D01*
G37*
G36*
X164096000Y-79006000D02*
G01*
X162294000Y-79006000D01*
X162294000Y-77204000D01*
X164096000Y-77204000D01*
X164096000Y-79006000D01*
G37*
G36*
X160768512Y-77208927D02*
G01*
X160917812Y-77238624D01*
X161081784Y-77306544D01*
X161229354Y-77405147D01*
X161354853Y-77530646D01*
X161453456Y-77678216D01*
X161521376Y-77842188D01*
X161551073Y-77991488D01*
X161556000Y-78016258D01*
X161556000Y-78193742D01*
X161551073Y-78218512D01*
X161521376Y-78367812D01*
X161453456Y-78531784D01*
X161354853Y-78679354D01*
X161229354Y-78804853D01*
X161081784Y-78903456D01*
X160917812Y-78971376D01*
X160774268Y-78999928D01*
X160743742Y-79006000D01*
X160566258Y-79006000D01*
X160535732Y-78999928D01*
X160392188Y-78971376D01*
X160228216Y-78903456D01*
X160080646Y-78804853D01*
X159955147Y-78679354D01*
X159856544Y-78531784D01*
X159788624Y-78367812D01*
X159758927Y-78218512D01*
X159754000Y-78193742D01*
X159754000Y-78016258D01*
X159758927Y-77991488D01*
X159788624Y-77842188D01*
X159856544Y-77678216D01*
X159955147Y-77530646D01*
X160080646Y-77405147D01*
X160228216Y-77306544D01*
X160392188Y-77238624D01*
X160541488Y-77208927D01*
X160566258Y-77204000D01*
X160743742Y-77204000D01*
X160768512Y-77208927D01*
G37*
G36*
X134098512Y-77208927D02*
G01*
X134247812Y-77238624D01*
X134411784Y-77306544D01*
X134559354Y-77405147D01*
X134684853Y-77530646D01*
X134783456Y-77678216D01*
X134851376Y-77842188D01*
X134881073Y-77991488D01*
X134886000Y-78016258D01*
X134886000Y-78193742D01*
X134881073Y-78218512D01*
X134851376Y-78367812D01*
X134783456Y-78531784D01*
X134684853Y-78679354D01*
X134559354Y-78804853D01*
X134411784Y-78903456D01*
X134247812Y-78971376D01*
X134104268Y-78999928D01*
X134073742Y-79006000D01*
X133896258Y-79006000D01*
X133865732Y-78999928D01*
X133722188Y-78971376D01*
X133558216Y-78903456D01*
X133410646Y-78804853D01*
X133285147Y-78679354D01*
X133186544Y-78531784D01*
X133118624Y-78367812D01*
X133088927Y-78218512D01*
X133084000Y-78193742D01*
X133084000Y-78016258D01*
X133088927Y-77991488D01*
X133118624Y-77842188D01*
X133186544Y-77678216D01*
X133285147Y-77530646D01*
X133410646Y-77405147D01*
X133558216Y-77306544D01*
X133722188Y-77238624D01*
X133871488Y-77208927D01*
X133896258Y-77204000D01*
X134073742Y-77204000D01*
X134098512Y-77208927D01*
G37*
G36*
X139528674Y-77358465D02*
G01*
X139566367Y-77369899D01*
X139601103Y-77388466D01*
X139631548Y-77413452D01*
X139656534Y-77443897D01*
X139675101Y-77478633D01*
X139686535Y-77516326D01*
X139691000Y-77561661D01*
X139691000Y-78648339D01*
X139686535Y-78693674D01*
X139675101Y-78731367D01*
X139656534Y-78766103D01*
X139631548Y-78796548D01*
X139601103Y-78821534D01*
X139566367Y-78840101D01*
X139528674Y-78851535D01*
X139483339Y-78856000D01*
X138646661Y-78856000D01*
X138601326Y-78851535D01*
X138563633Y-78840101D01*
X138528897Y-78821534D01*
X138498452Y-78796548D01*
X138473466Y-78766103D01*
X138454899Y-78731367D01*
X138443465Y-78693674D01*
X138439000Y-78648339D01*
X138439000Y-77561661D01*
X138443465Y-77516326D01*
X138454899Y-77478633D01*
X138473466Y-77443897D01*
X138498452Y-77413452D01*
X138528897Y-77388466D01*
X138563633Y-77369899D01*
X138601326Y-77358465D01*
X138646661Y-77354000D01*
X139483339Y-77354000D01*
X139528674Y-77358465D01*
G37*
G36*
X137478674Y-77358465D02*
G01*
X137516367Y-77369899D01*
X137551103Y-77388466D01*
X137581548Y-77413452D01*
X137606534Y-77443897D01*
X137625101Y-77478633D01*
X137636535Y-77516326D01*
X137641000Y-77561661D01*
X137641000Y-78648339D01*
X137636535Y-78693674D01*
X137625101Y-78731367D01*
X137606534Y-78766103D01*
X137581548Y-78796548D01*
X137551103Y-78821534D01*
X137516367Y-78840101D01*
X137478674Y-78851535D01*
X137433339Y-78856000D01*
X136596661Y-78856000D01*
X136551326Y-78851535D01*
X136513633Y-78840101D01*
X136478897Y-78821534D01*
X136448452Y-78796548D01*
X136423466Y-78766103D01*
X136404899Y-78731367D01*
X136393465Y-78693674D01*
X136389000Y-78648339D01*
X136389000Y-77561661D01*
X136393465Y-77516326D01*
X136404899Y-77478633D01*
X136423466Y-77443897D01*
X136448452Y-77413452D01*
X136478897Y-77388466D01*
X136513633Y-77369899D01*
X136551326Y-77358465D01*
X136596661Y-77354000D01*
X137433339Y-77354000D01*
X137478674Y-77358465D01*
G37*
G36*
X170593062Y-76548181D02*
G01*
X170627981Y-76558774D01*
X170660163Y-76575976D01*
X170688373Y-76599127D01*
X170711524Y-76627337D01*
X170728726Y-76659519D01*
X170739319Y-76694438D01*
X170743500Y-76736895D01*
X170743500Y-78203105D01*
X170739319Y-78245562D01*
X170728726Y-78280481D01*
X170711524Y-78312663D01*
X170688373Y-78340873D01*
X170660163Y-78364024D01*
X170627981Y-78381226D01*
X170593062Y-78391819D01*
X170550605Y-78396000D01*
X169409395Y-78396000D01*
X169366938Y-78391819D01*
X169332019Y-78381226D01*
X169299837Y-78364024D01*
X169271627Y-78340873D01*
X169248476Y-78312663D01*
X169231274Y-78280481D01*
X169220681Y-78245562D01*
X169216500Y-78203105D01*
X169216500Y-76736895D01*
X169220681Y-76694438D01*
X169231274Y-76659519D01*
X169248476Y-76627337D01*
X169271627Y-76599127D01*
X169299837Y-76575976D01*
X169332019Y-76558774D01*
X169366938Y-76548181D01*
X169409395Y-76544000D01*
X170550605Y-76544000D01*
X170593062Y-76548181D01*
G37*
G36*
X167618062Y-76548181D02*
G01*
X167652981Y-76558774D01*
X167685163Y-76575976D01*
X167713373Y-76599127D01*
X167736524Y-76627337D01*
X167753726Y-76659519D01*
X167764319Y-76694438D01*
X167768500Y-76736895D01*
X167768500Y-78203105D01*
X167764319Y-78245562D01*
X167753726Y-78280481D01*
X167736524Y-78312663D01*
X167713373Y-78340873D01*
X167685163Y-78364024D01*
X167652981Y-78381226D01*
X167618062Y-78391819D01*
X167575605Y-78396000D01*
X166434395Y-78396000D01*
X166391938Y-78391819D01*
X166357019Y-78381226D01*
X166324837Y-78364024D01*
X166296627Y-78340873D01*
X166273476Y-78312663D01*
X166256274Y-78280481D01*
X166245681Y-78245562D01*
X166241500Y-78203105D01*
X166241500Y-76736895D01*
X166245681Y-76694438D01*
X166256274Y-76659519D01*
X166273476Y-76627337D01*
X166296627Y-76599127D01*
X166324837Y-76575976D01*
X166357019Y-76558774D01*
X166391938Y-76548181D01*
X166434395Y-76544000D01*
X167575605Y-76544000D01*
X167618062Y-76548181D01*
G37*
M02*
