G04 #@! TF.GenerationSoftware,KiCad,Pcbnew,(5.1.5)-3*
G04 #@! TF.CreationDate,2020-02-05T13:37:14+11:00*
G04 #@! TF.ProjectId,Heterodyne,48657465-726f-4647-996e-652e6b696361,rev?*
G04 #@! TF.SameCoordinates,Original*
G04 #@! TF.FileFunction,Soldermask,Bot*
G04 #@! TF.FilePolarity,Negative*
%FSLAX46Y46*%
G04 Gerber Fmt 4.6, Leading zero omitted, Abs format (unit mm)*
G04 Created by KiCad (PCBNEW (5.1.5)-3) date 2020-02-05 13:37:14*
%MOMM*%
%LPD*%
G04 APERTURE LIST*
%ADD10C,0.100000*%
G04 APERTURE END LIST*
D10*
G36*
X164096000Y-103136000D02*
G01*
X162294000Y-103136000D01*
X162294000Y-101334000D01*
X164096000Y-101334000D01*
X164096000Y-103136000D01*
G37*
G36*
X160768512Y-101338927D02*
G01*
X160917812Y-101368624D01*
X161081784Y-101436544D01*
X161229354Y-101535147D01*
X161354853Y-101660646D01*
X161453456Y-101808216D01*
X161521376Y-101972188D01*
X161556000Y-102146259D01*
X161556000Y-102323741D01*
X161521376Y-102497812D01*
X161453456Y-102661784D01*
X161354853Y-102809354D01*
X161229354Y-102934853D01*
X161081784Y-103033456D01*
X160917812Y-103101376D01*
X160768512Y-103131073D01*
X160743742Y-103136000D01*
X160566258Y-103136000D01*
X160541488Y-103131073D01*
X160392188Y-103101376D01*
X160228216Y-103033456D01*
X160080646Y-102934853D01*
X159955147Y-102809354D01*
X159856544Y-102661784D01*
X159788624Y-102497812D01*
X159754000Y-102323741D01*
X159754000Y-102146259D01*
X159788624Y-101972188D01*
X159856544Y-101808216D01*
X159955147Y-101660646D01*
X160080646Y-101535147D01*
X160228216Y-101436544D01*
X160392188Y-101368624D01*
X160541488Y-101338927D01*
X160566258Y-101334000D01*
X160743742Y-101334000D01*
X160768512Y-101338927D01*
G37*
G36*
X133463512Y-100068927D02*
G01*
X133612812Y-100098624D01*
X133776784Y-100166544D01*
X133924354Y-100265147D01*
X134049853Y-100390646D01*
X134148456Y-100538216D01*
X134216376Y-100702188D01*
X134251000Y-100876259D01*
X134251000Y-101053741D01*
X134216376Y-101227812D01*
X134148456Y-101391784D01*
X134049853Y-101539354D01*
X133924354Y-101664853D01*
X133776784Y-101763456D01*
X133612812Y-101831376D01*
X133463512Y-101861073D01*
X133438742Y-101866000D01*
X133261258Y-101866000D01*
X133236488Y-101861073D01*
X133087188Y-101831376D01*
X132923216Y-101763456D01*
X132775646Y-101664853D01*
X132650147Y-101539354D01*
X132551544Y-101391784D01*
X132483624Y-101227812D01*
X132449000Y-101053741D01*
X132449000Y-100876259D01*
X132483624Y-100702188D01*
X132551544Y-100538216D01*
X132650147Y-100390646D01*
X132775646Y-100265147D01*
X132923216Y-100166544D01*
X133087188Y-100098624D01*
X133236488Y-100068927D01*
X133261258Y-100064000D01*
X133438742Y-100064000D01*
X133463512Y-100068927D01*
G37*
G36*
X141871000Y-101866000D02*
G01*
X140069000Y-101866000D01*
X140069000Y-100064000D01*
X141871000Y-100064000D01*
X141871000Y-101866000D01*
G37*
G36*
X138543512Y-100068927D02*
G01*
X138692812Y-100098624D01*
X138856784Y-100166544D01*
X139004354Y-100265147D01*
X139129853Y-100390646D01*
X139228456Y-100538216D01*
X139296376Y-100702188D01*
X139331000Y-100876259D01*
X139331000Y-101053741D01*
X139296376Y-101227812D01*
X139228456Y-101391784D01*
X139129853Y-101539354D01*
X139004354Y-101664853D01*
X138856784Y-101763456D01*
X138692812Y-101831376D01*
X138543512Y-101861073D01*
X138518742Y-101866000D01*
X138341258Y-101866000D01*
X138316488Y-101861073D01*
X138167188Y-101831376D01*
X138003216Y-101763456D01*
X137855646Y-101664853D01*
X137730147Y-101539354D01*
X137631544Y-101391784D01*
X137563624Y-101227812D01*
X137529000Y-101053741D01*
X137529000Y-100876259D01*
X137563624Y-100702188D01*
X137631544Y-100538216D01*
X137730147Y-100390646D01*
X137855646Y-100265147D01*
X138003216Y-100166544D01*
X138167188Y-100098624D01*
X138316488Y-100068927D01*
X138341258Y-100064000D01*
X138518742Y-100064000D01*
X138543512Y-100068927D01*
G37*
G36*
X136003512Y-100068927D02*
G01*
X136152812Y-100098624D01*
X136316784Y-100166544D01*
X136464354Y-100265147D01*
X136589853Y-100390646D01*
X136688456Y-100538216D01*
X136756376Y-100702188D01*
X136791000Y-100876259D01*
X136791000Y-101053741D01*
X136756376Y-101227812D01*
X136688456Y-101391784D01*
X136589853Y-101539354D01*
X136464354Y-101664853D01*
X136316784Y-101763456D01*
X136152812Y-101831376D01*
X136003512Y-101861073D01*
X135978742Y-101866000D01*
X135801258Y-101866000D01*
X135776488Y-101861073D01*
X135627188Y-101831376D01*
X135463216Y-101763456D01*
X135315646Y-101664853D01*
X135190147Y-101539354D01*
X135091544Y-101391784D01*
X135023624Y-101227812D01*
X134989000Y-101053741D01*
X134989000Y-100876259D01*
X135023624Y-100702188D01*
X135091544Y-100538216D01*
X135190147Y-100390646D01*
X135315646Y-100265147D01*
X135463216Y-100166544D01*
X135627188Y-100098624D01*
X135776488Y-100068927D01*
X135801258Y-100064000D01*
X135978742Y-100064000D01*
X136003512Y-100068927D01*
G37*
G36*
X163658674Y-97678465D02*
G01*
X163696367Y-97689899D01*
X163731103Y-97708466D01*
X163761548Y-97733452D01*
X163786534Y-97763897D01*
X163805101Y-97798633D01*
X163816535Y-97836326D01*
X163821000Y-97881661D01*
X163821000Y-98968339D01*
X163816535Y-99013674D01*
X163805101Y-99051367D01*
X163786534Y-99086103D01*
X163761548Y-99116548D01*
X163731103Y-99141534D01*
X163696367Y-99160101D01*
X163658674Y-99171535D01*
X163613339Y-99176000D01*
X162776661Y-99176000D01*
X162731326Y-99171535D01*
X162693633Y-99160101D01*
X162658897Y-99141534D01*
X162628452Y-99116548D01*
X162603466Y-99086103D01*
X162584899Y-99051367D01*
X162573465Y-99013674D01*
X162569000Y-98968339D01*
X162569000Y-97881661D01*
X162573465Y-97836326D01*
X162584899Y-97798633D01*
X162603466Y-97763897D01*
X162628452Y-97733452D01*
X162658897Y-97708466D01*
X162693633Y-97689899D01*
X162731326Y-97678465D01*
X162776661Y-97674000D01*
X163613339Y-97674000D01*
X163658674Y-97678465D01*
G37*
G36*
X161608674Y-97678465D02*
G01*
X161646367Y-97689899D01*
X161681103Y-97708466D01*
X161711548Y-97733452D01*
X161736534Y-97763897D01*
X161755101Y-97798633D01*
X161766535Y-97836326D01*
X161771000Y-97881661D01*
X161771000Y-98968339D01*
X161766535Y-99013674D01*
X161755101Y-99051367D01*
X161736534Y-99086103D01*
X161711548Y-99116548D01*
X161681103Y-99141534D01*
X161646367Y-99160101D01*
X161608674Y-99171535D01*
X161563339Y-99176000D01*
X160726661Y-99176000D01*
X160681326Y-99171535D01*
X160643633Y-99160101D01*
X160608897Y-99141534D01*
X160578452Y-99116548D01*
X160553466Y-99086103D01*
X160534899Y-99051367D01*
X160523465Y-99013674D01*
X160519000Y-98968339D01*
X160519000Y-97881661D01*
X160523465Y-97836326D01*
X160534899Y-97798633D01*
X160553466Y-97763897D01*
X160578452Y-97733452D01*
X160608897Y-97708466D01*
X160643633Y-97689899D01*
X160681326Y-97678465D01*
X160726661Y-97674000D01*
X161563339Y-97674000D01*
X161608674Y-97678465D01*
G37*
G36*
X162141000Y-96736000D02*
G01*
X160439000Y-96736000D01*
X160439000Y-95034000D01*
X162141000Y-95034000D01*
X162141000Y-96736000D01*
G37*
G36*
X164078228Y-95066703D02*
G01*
X164233100Y-95130853D01*
X164372481Y-95223985D01*
X164491015Y-95342519D01*
X164584147Y-95481900D01*
X164648297Y-95636772D01*
X164681000Y-95801184D01*
X164681000Y-95968816D01*
X164648297Y-96133228D01*
X164584147Y-96288100D01*
X164491015Y-96427481D01*
X164372481Y-96546015D01*
X164233100Y-96639147D01*
X164078228Y-96703297D01*
X163913816Y-96736000D01*
X163746184Y-96736000D01*
X163581772Y-96703297D01*
X163426900Y-96639147D01*
X163287519Y-96546015D01*
X163168985Y-96427481D01*
X163075853Y-96288100D01*
X163011703Y-96133228D01*
X162979000Y-95968816D01*
X162979000Y-95801184D01*
X163011703Y-95636772D01*
X163075853Y-95481900D01*
X163168985Y-95342519D01*
X163287519Y-95223985D01*
X163426900Y-95130853D01*
X163581772Y-95066703D01*
X163746184Y-95034000D01*
X163913816Y-95034000D01*
X164078228Y-95066703D01*
G37*
G36*
X166618228Y-95066703D02*
G01*
X166773100Y-95130853D01*
X166912481Y-95223985D01*
X167031015Y-95342519D01*
X167124147Y-95481900D01*
X167188297Y-95636772D01*
X167221000Y-95801184D01*
X167221000Y-95968816D01*
X167188297Y-96133228D01*
X167124147Y-96288100D01*
X167031015Y-96427481D01*
X166912481Y-96546015D01*
X166773100Y-96639147D01*
X166618228Y-96703297D01*
X166453816Y-96736000D01*
X166286184Y-96736000D01*
X166121772Y-96703297D01*
X165966900Y-96639147D01*
X165827519Y-96546015D01*
X165708985Y-96427481D01*
X165615853Y-96288100D01*
X165551703Y-96133228D01*
X165519000Y-95968816D01*
X165519000Y-95801184D01*
X165551703Y-95636772D01*
X165615853Y-95481900D01*
X165708985Y-95342519D01*
X165827519Y-95223985D01*
X165966900Y-95130853D01*
X166121772Y-95066703D01*
X166286184Y-95034000D01*
X166453816Y-95034000D01*
X166618228Y-95066703D01*
G37*
G36*
X169158228Y-95066703D02*
G01*
X169313100Y-95130853D01*
X169452481Y-95223985D01*
X169571015Y-95342519D01*
X169664147Y-95481900D01*
X169728297Y-95636772D01*
X169761000Y-95801184D01*
X169761000Y-95968816D01*
X169728297Y-96133228D01*
X169664147Y-96288100D01*
X169571015Y-96427481D01*
X169452481Y-96546015D01*
X169313100Y-96639147D01*
X169158228Y-96703297D01*
X168993816Y-96736000D01*
X168826184Y-96736000D01*
X168661772Y-96703297D01*
X168506900Y-96639147D01*
X168367519Y-96546015D01*
X168248985Y-96427481D01*
X168155853Y-96288100D01*
X168091703Y-96133228D01*
X168059000Y-95968816D01*
X168059000Y-95801184D01*
X168091703Y-95636772D01*
X168155853Y-95481900D01*
X168248985Y-95342519D01*
X168367519Y-95223985D01*
X168506900Y-95130853D01*
X168661772Y-95066703D01*
X168826184Y-95034000D01*
X168993816Y-95034000D01*
X169158228Y-95066703D01*
G37*
G36*
X165967062Y-92296181D02*
G01*
X166001981Y-92306774D01*
X166034163Y-92323976D01*
X166062373Y-92347127D01*
X166085524Y-92375337D01*
X166102726Y-92407519D01*
X166113319Y-92442438D01*
X166117500Y-92484895D01*
X166117500Y-93951105D01*
X166113319Y-93993562D01*
X166102726Y-94028481D01*
X166085524Y-94060663D01*
X166062373Y-94088873D01*
X166034163Y-94112024D01*
X166001981Y-94129226D01*
X165967062Y-94139819D01*
X165924605Y-94144000D01*
X164783395Y-94144000D01*
X164740938Y-94139819D01*
X164706019Y-94129226D01*
X164673837Y-94112024D01*
X164645627Y-94088873D01*
X164622476Y-94060663D01*
X164605274Y-94028481D01*
X164594681Y-93993562D01*
X164590500Y-93951105D01*
X164590500Y-92484895D01*
X164594681Y-92442438D01*
X164605274Y-92407519D01*
X164622476Y-92375337D01*
X164645627Y-92347127D01*
X164673837Y-92323976D01*
X164706019Y-92306774D01*
X164740938Y-92296181D01*
X164783395Y-92292000D01*
X165924605Y-92292000D01*
X165967062Y-92296181D01*
G37*
G36*
X168942062Y-92296181D02*
G01*
X168976981Y-92306774D01*
X169009163Y-92323976D01*
X169037373Y-92347127D01*
X169060524Y-92375337D01*
X169077726Y-92407519D01*
X169088319Y-92442438D01*
X169092500Y-92484895D01*
X169092500Y-93951105D01*
X169088319Y-93993562D01*
X169077726Y-94028481D01*
X169060524Y-94060663D01*
X169037373Y-94088873D01*
X169009163Y-94112024D01*
X168976981Y-94129226D01*
X168942062Y-94139819D01*
X168899605Y-94144000D01*
X167758395Y-94144000D01*
X167715938Y-94139819D01*
X167681019Y-94129226D01*
X167648837Y-94112024D01*
X167620627Y-94088873D01*
X167597476Y-94060663D01*
X167580274Y-94028481D01*
X167569681Y-93993562D01*
X167565500Y-93951105D01*
X167565500Y-92484895D01*
X167569681Y-92442438D01*
X167580274Y-92407519D01*
X167597476Y-92375337D01*
X167620627Y-92347127D01*
X167648837Y-92323976D01*
X167681019Y-92306774D01*
X167715938Y-92296181D01*
X167758395Y-92292000D01*
X168899605Y-92292000D01*
X168942062Y-92296181D01*
G37*
G36*
X163148674Y-92868465D02*
G01*
X163186367Y-92879899D01*
X163221103Y-92898466D01*
X163251548Y-92923452D01*
X163276534Y-92953897D01*
X163295101Y-92988633D01*
X163306535Y-93026326D01*
X163311000Y-93071661D01*
X163311000Y-93908339D01*
X163306535Y-93953674D01*
X163295101Y-93991367D01*
X163276534Y-94026103D01*
X163251548Y-94056548D01*
X163221103Y-94081534D01*
X163186367Y-94100101D01*
X163148674Y-94111535D01*
X163103339Y-94116000D01*
X162016661Y-94116000D01*
X161971326Y-94111535D01*
X161933633Y-94100101D01*
X161898897Y-94081534D01*
X161868452Y-94056548D01*
X161843466Y-94026103D01*
X161824899Y-93991367D01*
X161813465Y-93953674D01*
X161809000Y-93908339D01*
X161809000Y-93071661D01*
X161813465Y-93026326D01*
X161824899Y-92988633D01*
X161843466Y-92953897D01*
X161868452Y-92923452D01*
X161898897Y-92898466D01*
X161933633Y-92879899D01*
X161971326Y-92868465D01*
X162016661Y-92864000D01*
X163103339Y-92864000D01*
X163148674Y-92868465D01*
G37*
G36*
X163148674Y-90818465D02*
G01*
X163186367Y-90829899D01*
X163221103Y-90848466D01*
X163251548Y-90873452D01*
X163276534Y-90903897D01*
X163295101Y-90938633D01*
X163306535Y-90976326D01*
X163311000Y-91021661D01*
X163311000Y-91858339D01*
X163306535Y-91903674D01*
X163295101Y-91941367D01*
X163276534Y-91976103D01*
X163251548Y-92006548D01*
X163221103Y-92031534D01*
X163186367Y-92050101D01*
X163148674Y-92061535D01*
X163103339Y-92066000D01*
X162016661Y-92066000D01*
X161971326Y-92061535D01*
X161933633Y-92050101D01*
X161898897Y-92031534D01*
X161868452Y-92006548D01*
X161843466Y-91976103D01*
X161824899Y-91941367D01*
X161813465Y-91903674D01*
X161809000Y-91858339D01*
X161809000Y-91021661D01*
X161813465Y-90976326D01*
X161824899Y-90938633D01*
X161843466Y-90903897D01*
X161868452Y-90873452D01*
X161898897Y-90848466D01*
X161933633Y-90829899D01*
X161971326Y-90818465D01*
X162016661Y-90814000D01*
X163103339Y-90814000D01*
X163148674Y-90818465D01*
G37*
G36*
X156476000Y-91706000D02*
G01*
X154674000Y-91706000D01*
X154674000Y-89904000D01*
X156476000Y-89904000D01*
X156476000Y-91706000D01*
G37*
G36*
X165563674Y-89931465D02*
G01*
X165601367Y-89942899D01*
X165636103Y-89961466D01*
X165666548Y-89986452D01*
X165691534Y-90016897D01*
X165710101Y-90051633D01*
X165721535Y-90089326D01*
X165726000Y-90134661D01*
X165726000Y-91221339D01*
X165721535Y-91266674D01*
X165710101Y-91304367D01*
X165691534Y-91339103D01*
X165666548Y-91369548D01*
X165636103Y-91394534D01*
X165601367Y-91413101D01*
X165563674Y-91424535D01*
X165518339Y-91429000D01*
X164681661Y-91429000D01*
X164636326Y-91424535D01*
X164598633Y-91413101D01*
X164563897Y-91394534D01*
X164533452Y-91369548D01*
X164508466Y-91339103D01*
X164489899Y-91304367D01*
X164478465Y-91266674D01*
X164474000Y-91221339D01*
X164474000Y-90134661D01*
X164478465Y-90089326D01*
X164489899Y-90051633D01*
X164508466Y-90016897D01*
X164533452Y-89986452D01*
X164563897Y-89961466D01*
X164598633Y-89942899D01*
X164636326Y-89931465D01*
X164681661Y-89927000D01*
X165518339Y-89927000D01*
X165563674Y-89931465D01*
G37*
G36*
X167613674Y-89931465D02*
G01*
X167651367Y-89942899D01*
X167686103Y-89961466D01*
X167716548Y-89986452D01*
X167741534Y-90016897D01*
X167760101Y-90051633D01*
X167771535Y-90089326D01*
X167776000Y-90134661D01*
X167776000Y-91221339D01*
X167771535Y-91266674D01*
X167760101Y-91304367D01*
X167741534Y-91339103D01*
X167716548Y-91369548D01*
X167686103Y-91394534D01*
X167651367Y-91413101D01*
X167613674Y-91424535D01*
X167568339Y-91429000D01*
X166731661Y-91429000D01*
X166686326Y-91424535D01*
X166648633Y-91413101D01*
X166613897Y-91394534D01*
X166583452Y-91369548D01*
X166558466Y-91339103D01*
X166539899Y-91304367D01*
X166528465Y-91266674D01*
X166524000Y-91221339D01*
X166524000Y-90134661D01*
X166528465Y-90089326D01*
X166539899Y-90051633D01*
X166558466Y-90016897D01*
X166583452Y-89986452D01*
X166613897Y-89961466D01*
X166648633Y-89942899D01*
X166686326Y-89931465D01*
X166731661Y-89927000D01*
X167568339Y-89927000D01*
X167613674Y-89931465D01*
G37*
G36*
X155688512Y-87368927D02*
G01*
X155837812Y-87398624D01*
X156001784Y-87466544D01*
X156149354Y-87565147D01*
X156274853Y-87690646D01*
X156373456Y-87838216D01*
X156441376Y-88002188D01*
X156476000Y-88176259D01*
X156476000Y-88353741D01*
X156441376Y-88527812D01*
X156373456Y-88691784D01*
X156274853Y-88839354D01*
X156149354Y-88964853D01*
X156001784Y-89063456D01*
X155837812Y-89131376D01*
X155688512Y-89161073D01*
X155663742Y-89166000D01*
X155486258Y-89166000D01*
X155461488Y-89161073D01*
X155312188Y-89131376D01*
X155148216Y-89063456D01*
X155000646Y-88964853D01*
X154875147Y-88839354D01*
X154776544Y-88691784D01*
X154708624Y-88527812D01*
X154674000Y-88353741D01*
X154674000Y-88176259D01*
X154708624Y-88002188D01*
X154776544Y-87838216D01*
X154875147Y-87690646D01*
X155000646Y-87565147D01*
X155148216Y-87466544D01*
X155312188Y-87398624D01*
X155461488Y-87368927D01*
X155486258Y-87364000D01*
X155663742Y-87364000D01*
X155688512Y-87368927D01*
G37*
G36*
X161538228Y-87446703D02*
G01*
X161693100Y-87510853D01*
X161832481Y-87603985D01*
X161951015Y-87722519D01*
X162044147Y-87861900D01*
X162108297Y-88016772D01*
X162141000Y-88181184D01*
X162141000Y-88348816D01*
X162108297Y-88513228D01*
X162044147Y-88668100D01*
X161951015Y-88807481D01*
X161832481Y-88926015D01*
X161693100Y-89019147D01*
X161538228Y-89083297D01*
X161373816Y-89116000D01*
X161206184Y-89116000D01*
X161041772Y-89083297D01*
X160886900Y-89019147D01*
X160747519Y-88926015D01*
X160628985Y-88807481D01*
X160535853Y-88668100D01*
X160471703Y-88513228D01*
X160439000Y-88348816D01*
X160439000Y-88181184D01*
X160471703Y-88016772D01*
X160535853Y-87861900D01*
X160628985Y-87722519D01*
X160747519Y-87603985D01*
X160886900Y-87510853D01*
X161041772Y-87446703D01*
X161206184Y-87414000D01*
X161373816Y-87414000D01*
X161538228Y-87446703D01*
G37*
G36*
X164078228Y-87446703D02*
G01*
X164233100Y-87510853D01*
X164372481Y-87603985D01*
X164491015Y-87722519D01*
X164584147Y-87861900D01*
X164648297Y-88016772D01*
X164681000Y-88181184D01*
X164681000Y-88348816D01*
X164648297Y-88513228D01*
X164584147Y-88668100D01*
X164491015Y-88807481D01*
X164372481Y-88926015D01*
X164233100Y-89019147D01*
X164078228Y-89083297D01*
X163913816Y-89116000D01*
X163746184Y-89116000D01*
X163581772Y-89083297D01*
X163426900Y-89019147D01*
X163287519Y-88926015D01*
X163168985Y-88807481D01*
X163075853Y-88668100D01*
X163011703Y-88513228D01*
X162979000Y-88348816D01*
X162979000Y-88181184D01*
X163011703Y-88016772D01*
X163075853Y-87861900D01*
X163168985Y-87722519D01*
X163287519Y-87603985D01*
X163426900Y-87510853D01*
X163581772Y-87446703D01*
X163746184Y-87414000D01*
X163913816Y-87414000D01*
X164078228Y-87446703D01*
G37*
G36*
X166618228Y-87446703D02*
G01*
X166773100Y-87510853D01*
X166912481Y-87603985D01*
X167031015Y-87722519D01*
X167124147Y-87861900D01*
X167188297Y-88016772D01*
X167221000Y-88181184D01*
X167221000Y-88348816D01*
X167188297Y-88513228D01*
X167124147Y-88668100D01*
X167031015Y-88807481D01*
X166912481Y-88926015D01*
X166773100Y-89019147D01*
X166618228Y-89083297D01*
X166453816Y-89116000D01*
X166286184Y-89116000D01*
X166121772Y-89083297D01*
X165966900Y-89019147D01*
X165827519Y-88926015D01*
X165708985Y-88807481D01*
X165615853Y-88668100D01*
X165551703Y-88513228D01*
X165519000Y-88348816D01*
X165519000Y-88181184D01*
X165551703Y-88016772D01*
X165615853Y-87861900D01*
X165708985Y-87722519D01*
X165827519Y-87603985D01*
X165966900Y-87510853D01*
X166121772Y-87446703D01*
X166286184Y-87414000D01*
X166453816Y-87414000D01*
X166618228Y-87446703D01*
G37*
G36*
X169158228Y-87446703D02*
G01*
X169313100Y-87510853D01*
X169452481Y-87603985D01*
X169571015Y-87722519D01*
X169664147Y-87861900D01*
X169728297Y-88016772D01*
X169761000Y-88181184D01*
X169761000Y-88348816D01*
X169728297Y-88513228D01*
X169664147Y-88668100D01*
X169571015Y-88807481D01*
X169452481Y-88926015D01*
X169313100Y-89019147D01*
X169158228Y-89083297D01*
X168993816Y-89116000D01*
X168826184Y-89116000D01*
X168661772Y-89083297D01*
X168506900Y-89019147D01*
X168367519Y-88926015D01*
X168248985Y-88807481D01*
X168155853Y-88668100D01*
X168091703Y-88513228D01*
X168059000Y-88348816D01*
X168059000Y-88181184D01*
X168091703Y-88016772D01*
X168155853Y-87861900D01*
X168248985Y-87722519D01*
X168367519Y-87603985D01*
X168506900Y-87510853D01*
X168661772Y-87446703D01*
X168826184Y-87414000D01*
X168993816Y-87414000D01*
X169158228Y-87446703D01*
G37*
G36*
X166579674Y-85359465D02*
G01*
X166617367Y-85370899D01*
X166652103Y-85389466D01*
X166682548Y-85414452D01*
X166707534Y-85444897D01*
X166726101Y-85479633D01*
X166737535Y-85517326D01*
X166742000Y-85562661D01*
X166742000Y-86649339D01*
X166737535Y-86694674D01*
X166726101Y-86732367D01*
X166707534Y-86767103D01*
X166682548Y-86797548D01*
X166652103Y-86822534D01*
X166617367Y-86841101D01*
X166579674Y-86852535D01*
X166534339Y-86857000D01*
X165697661Y-86857000D01*
X165652326Y-86852535D01*
X165614633Y-86841101D01*
X165579897Y-86822534D01*
X165549452Y-86797548D01*
X165524466Y-86767103D01*
X165505899Y-86732367D01*
X165494465Y-86694674D01*
X165490000Y-86649339D01*
X165490000Y-85562661D01*
X165494465Y-85517326D01*
X165505899Y-85479633D01*
X165524466Y-85444897D01*
X165549452Y-85414452D01*
X165579897Y-85389466D01*
X165614633Y-85370899D01*
X165652326Y-85359465D01*
X165697661Y-85355000D01*
X166534339Y-85355000D01*
X166579674Y-85359465D01*
G37*
G36*
X164529674Y-85359465D02*
G01*
X164567367Y-85370899D01*
X164602103Y-85389466D01*
X164632548Y-85414452D01*
X164657534Y-85444897D01*
X164676101Y-85479633D01*
X164687535Y-85517326D01*
X164692000Y-85562661D01*
X164692000Y-86649339D01*
X164687535Y-86694674D01*
X164676101Y-86732367D01*
X164657534Y-86767103D01*
X164632548Y-86797548D01*
X164602103Y-86822534D01*
X164567367Y-86841101D01*
X164529674Y-86852535D01*
X164484339Y-86857000D01*
X163647661Y-86857000D01*
X163602326Y-86852535D01*
X163564633Y-86841101D01*
X163529897Y-86822534D01*
X163499452Y-86797548D01*
X163474466Y-86767103D01*
X163455899Y-86732367D01*
X163444465Y-86694674D01*
X163440000Y-86649339D01*
X163440000Y-85562661D01*
X163444465Y-85517326D01*
X163455899Y-85479633D01*
X163474466Y-85444897D01*
X163499452Y-85414452D01*
X163529897Y-85389466D01*
X163564633Y-85370899D01*
X163602326Y-85359465D01*
X163647661Y-85355000D01*
X164484339Y-85355000D01*
X164529674Y-85359465D01*
G37*
G36*
X134886000Y-86626000D02*
G01*
X133084000Y-86626000D01*
X133084000Y-84824000D01*
X134886000Y-84824000D01*
X134886000Y-86626000D01*
G37*
G36*
X140448512Y-84828927D02*
G01*
X140597812Y-84858624D01*
X140761784Y-84926544D01*
X140909354Y-85025147D01*
X141034853Y-85150646D01*
X141133456Y-85298216D01*
X141201376Y-85462188D01*
X141236000Y-85636259D01*
X141236000Y-85813741D01*
X141201376Y-85987812D01*
X141133456Y-86151784D01*
X141034853Y-86299354D01*
X140909354Y-86424853D01*
X140761784Y-86523456D01*
X140597812Y-86591376D01*
X140448512Y-86621073D01*
X140423742Y-86626000D01*
X140246258Y-86626000D01*
X140221488Y-86621073D01*
X140072188Y-86591376D01*
X139908216Y-86523456D01*
X139760646Y-86424853D01*
X139635147Y-86299354D01*
X139536544Y-86151784D01*
X139468624Y-85987812D01*
X139434000Y-85813741D01*
X139434000Y-85636259D01*
X139468624Y-85462188D01*
X139536544Y-85298216D01*
X139635147Y-85150646D01*
X139760646Y-85025147D01*
X139908216Y-84926544D01*
X140072188Y-84858624D01*
X140221488Y-84828927D01*
X140246258Y-84824000D01*
X140423742Y-84824000D01*
X140448512Y-84828927D01*
G37*
G36*
X138696000Y-86626000D02*
G01*
X136894000Y-86626000D01*
X136894000Y-84824000D01*
X138696000Y-84824000D01*
X138696000Y-86626000D01*
G37*
G36*
X166343674Y-83073465D02*
G01*
X166381367Y-83084899D01*
X166416103Y-83103466D01*
X166446548Y-83128452D01*
X166471534Y-83158897D01*
X166490101Y-83193633D01*
X166501535Y-83231326D01*
X166506000Y-83276661D01*
X166506000Y-84363339D01*
X166501535Y-84408674D01*
X166490101Y-84446367D01*
X166471534Y-84481103D01*
X166446548Y-84511548D01*
X166416103Y-84536534D01*
X166381367Y-84555101D01*
X166343674Y-84566535D01*
X166298339Y-84571000D01*
X165461661Y-84571000D01*
X165416326Y-84566535D01*
X165378633Y-84555101D01*
X165343897Y-84536534D01*
X165313452Y-84511548D01*
X165288466Y-84481103D01*
X165269899Y-84446367D01*
X165258465Y-84408674D01*
X165254000Y-84363339D01*
X165254000Y-83276661D01*
X165258465Y-83231326D01*
X165269899Y-83193633D01*
X165288466Y-83158897D01*
X165313452Y-83128452D01*
X165343897Y-83103466D01*
X165378633Y-83084899D01*
X165416326Y-83073465D01*
X165461661Y-83069000D01*
X166298339Y-83069000D01*
X166343674Y-83073465D01*
G37*
G36*
X164293674Y-83073465D02*
G01*
X164331367Y-83084899D01*
X164366103Y-83103466D01*
X164396548Y-83128452D01*
X164421534Y-83158897D01*
X164440101Y-83193633D01*
X164451535Y-83231326D01*
X164456000Y-83276661D01*
X164456000Y-84363339D01*
X164451535Y-84408674D01*
X164440101Y-84446367D01*
X164421534Y-84481103D01*
X164396548Y-84511548D01*
X164366103Y-84536534D01*
X164331367Y-84555101D01*
X164293674Y-84566535D01*
X164248339Y-84571000D01*
X163411661Y-84571000D01*
X163366326Y-84566535D01*
X163328633Y-84555101D01*
X163293897Y-84536534D01*
X163263452Y-84511548D01*
X163238466Y-84481103D01*
X163219899Y-84446367D01*
X163208465Y-84408674D01*
X163204000Y-84363339D01*
X163204000Y-83276661D01*
X163208465Y-83231326D01*
X163219899Y-83193633D01*
X163238466Y-83158897D01*
X163263452Y-83128452D01*
X163293897Y-83103466D01*
X163328633Y-83084899D01*
X163366326Y-83073465D01*
X163411661Y-83069000D01*
X164248339Y-83069000D01*
X164293674Y-83073465D01*
G37*
G36*
X134886000Y-81546000D02*
G01*
X133084000Y-81546000D01*
X133084000Y-79744000D01*
X134886000Y-79744000D01*
X134886000Y-81546000D01*
G37*
G36*
X134098512Y-77208927D02*
G01*
X134247812Y-77238624D01*
X134411784Y-77306544D01*
X134559354Y-77405147D01*
X134684853Y-77530646D01*
X134783456Y-77678216D01*
X134851376Y-77842188D01*
X134886000Y-78016259D01*
X134886000Y-78193741D01*
X134851376Y-78367812D01*
X134783456Y-78531784D01*
X134684853Y-78679354D01*
X134559354Y-78804853D01*
X134411784Y-78903456D01*
X134247812Y-78971376D01*
X134098512Y-79001073D01*
X134073742Y-79006000D01*
X133896258Y-79006000D01*
X133871488Y-79001073D01*
X133722188Y-78971376D01*
X133558216Y-78903456D01*
X133410646Y-78804853D01*
X133285147Y-78679354D01*
X133186544Y-78531784D01*
X133118624Y-78367812D01*
X133084000Y-78193741D01*
X133084000Y-78016259D01*
X133118624Y-77842188D01*
X133186544Y-77678216D01*
X133285147Y-77530646D01*
X133410646Y-77405147D01*
X133558216Y-77306544D01*
X133722188Y-77238624D01*
X133871488Y-77208927D01*
X133896258Y-77204000D01*
X134073742Y-77204000D01*
X134098512Y-77208927D01*
G37*
G36*
X164096000Y-79006000D02*
G01*
X162294000Y-79006000D01*
X162294000Y-77204000D01*
X164096000Y-77204000D01*
X164096000Y-79006000D01*
G37*
G36*
X160768512Y-77208927D02*
G01*
X160917812Y-77238624D01*
X161081784Y-77306544D01*
X161229354Y-77405147D01*
X161354853Y-77530646D01*
X161453456Y-77678216D01*
X161521376Y-77842188D01*
X161556000Y-78016259D01*
X161556000Y-78193741D01*
X161521376Y-78367812D01*
X161453456Y-78531784D01*
X161354853Y-78679354D01*
X161229354Y-78804853D01*
X161081784Y-78903456D01*
X160917812Y-78971376D01*
X160768512Y-79001073D01*
X160743742Y-79006000D01*
X160566258Y-79006000D01*
X160541488Y-79001073D01*
X160392188Y-78971376D01*
X160228216Y-78903456D01*
X160080646Y-78804853D01*
X159955147Y-78679354D01*
X159856544Y-78531784D01*
X159788624Y-78367812D01*
X159754000Y-78193741D01*
X159754000Y-78016259D01*
X159788624Y-77842188D01*
X159856544Y-77678216D01*
X159955147Y-77530646D01*
X160080646Y-77405147D01*
X160228216Y-77306544D01*
X160392188Y-77238624D01*
X160541488Y-77208927D01*
X160566258Y-77204000D01*
X160743742Y-77204000D01*
X160768512Y-77208927D01*
G37*
M02*
