M48
; DRILL file {KiCad (5.1.5)-3} date 2020/02/05 13:37:17
; FORMAT={-:-/ absolute / inch / decimal}
; #@! TF.CreationDate,2020-02-05T13:37:17+11:00
; #@! TF.GenerationSoftware,Kicad,Pcbnew,(5.1.5)-3
; #@! TF.FileFunction,Plated,1,2,PTH
FMAT,2
INCH
T1C0.0157
T2C0.0315
T3C0.0394
%
G90
G05
T1
X5.595Y-3.765
X5.732Y-3.7189
X5.81Y-4.04
X5.845Y-3.69
X5.875Y-3.95
X5.88Y-3.64
X5.955Y-3.1
X6.025Y-3.3
X6.025Y-3.925
X6.04Y-3.875
X6.06Y-3.43
X6.28Y-3.39
X6.525Y-2.995
T2
X6.35Y-3.475
X6.35Y-3.775
X6.45Y-3.475
X6.45Y-3.775
X6.55Y-3.475
X6.55Y-3.775
X6.65Y-3.475
X6.65Y-3.775
T3
X6.325Y-3.075
X6.425Y-3.075
X5.275Y-3.075
X5.275Y-3.175
X5.25Y-3.975
X5.35Y-3.975
X5.45Y-3.975
X5.55Y-3.975
X5.275Y-3.375
X6.125Y-3.475
X6.125Y-3.575
X5.425Y-3.375
X5.525Y-3.375
X6.325Y-4.025
X6.425Y-4.025
T0
M30
