G04 #@! TF.GenerationSoftware,KiCad,Pcbnew,(5.1.2)-2*
G04 #@! TF.CreationDate,2019-12-03T15:26:28+11:00*
G04 #@! TF.ProjectId,Heterodyne,48657465-726f-4647-996e-652e6b696361,rev?*
G04 #@! TF.SameCoordinates,Original*
G04 #@! TF.FileFunction,Copper,L1,Top*
G04 #@! TF.FilePolarity,Positive*
%FSLAX46Y46*%
G04 Gerber Fmt 4.6, Leading zero omitted, Abs format (unit mm)*
G04 Created by KiCad (PCBNEW (5.1.2)-2) date 2019-12-03 15:26:28*
%MOMM*%
%LPD*%
G04 APERTURE LIST*
%ADD10C,2.500000*%
%ADD11O,3.000000X2.000000*%
%ADD12C,1.000000*%
G04 APERTURE END LIST*
D10*
X139700000Y-124500000D03*
X134620000Y-124500000D03*
X144780000Y-121920000D03*
X144780000Y-127000000D03*
X179070000Y-132080000D03*
X184150000Y-132080000D03*
X168910000Y-127000000D03*
X163830000Y-127000000D03*
X163830000Y-121880000D03*
X163830000Y-116800000D03*
X140970000Y-116840000D03*
X135890000Y-116840000D03*
X179070000Y-125770000D03*
X125730000Y-111800000D03*
X127000000Y-129580000D03*
X127000000Y-124500000D03*
X133350000Y-106680000D03*
X138430000Y-106680000D03*
X171450000Y-132080000D03*
X163870000Y-132080000D03*
X148630000Y-116840000D03*
X156210000Y-116840000D03*
X140970000Y-111760000D03*
X133390000Y-111760000D03*
D11*
X149860000Y-127000000D03*
X149860000Y-124500000D03*
X149860000Y-129540000D03*
X149860000Y-132080000D03*
X156210000Y-132080000D03*
X156210000Y-129540000D03*
X156210000Y-127000000D03*
X156210000Y-124460000D03*
D10*
X151170000Y-109160000D03*
X156250000Y-109160000D03*
D12*
X149860000Y-124500000D02*
X139700000Y-124500000D01*
X127000000Y-124500000D02*
X134620000Y-124500000D01*
X148690000Y-106680000D02*
X138430000Y-106680000D01*
X151170000Y-109160000D02*
X148690000Y-106680000D01*
X138430000Y-106680000D02*
X138430000Y-110490000D01*
X138430000Y-110490000D02*
X135890000Y-113030000D01*
X135890000Y-113030000D02*
X135890000Y-116840000D01*
X140970000Y-121920000D02*
X144780000Y-121920000D01*
X135890000Y-116840000D02*
X140970000Y-121920000D01*
X167640000Y-128270000D02*
X168910000Y-127000000D01*
X167640000Y-133350000D02*
X167640000Y-128270000D01*
X170180000Y-135890000D02*
X167640000Y-133350000D01*
X184150000Y-132080000D02*
X180340000Y-135890000D01*
X180340000Y-135890000D02*
X170180000Y-135890000D01*
X143510000Y-129540000D02*
X149860000Y-129540000D01*
X142240000Y-130810000D02*
X143510000Y-129540000D01*
X142240000Y-130810000D02*
X137160000Y-125730000D01*
X137160000Y-118110000D02*
X135890000Y-116840000D01*
X137160000Y-125730000D02*
X137160000Y-118110000D01*
X147320000Y-135890000D02*
X142240000Y-130810000D01*
X167640000Y-133350000D02*
X165100000Y-135890000D01*
X165100000Y-135890000D02*
X147320000Y-135890000D01*
X149860000Y-127000000D02*
X144780000Y-127000000D01*
X179070000Y-125770000D02*
X179070000Y-132080000D01*
X179070000Y-132080000D02*
X171450000Y-132080000D01*
X161290000Y-129540000D02*
X163830000Y-127000000D01*
X156210000Y-129540000D02*
X161290000Y-129540000D01*
X163830000Y-127000000D02*
X163830000Y-121880000D01*
X156250000Y-116800000D02*
X156210000Y-116840000D01*
X163830000Y-116800000D02*
X156250000Y-116800000D01*
X148630000Y-116840000D02*
X140970000Y-116840000D01*
X140970000Y-111760000D02*
X140970000Y-116840000D01*
X133350000Y-111720000D02*
X133390000Y-111760000D01*
X133350000Y-106680000D02*
X133350000Y-111720000D01*
X125770000Y-111760000D02*
X125730000Y-111800000D01*
X133390000Y-111760000D02*
X125770000Y-111760000D01*
X156250000Y-109160000D02*
X152400000Y-113010000D01*
X156210000Y-122460000D02*
X156210000Y-124460000D01*
X152400000Y-118650000D02*
X156210000Y-122460000D01*
X152400000Y-113010000D02*
X152400000Y-118650000D01*
X127000000Y-129580000D02*
X121920000Y-124500000D01*
X121920000Y-124500000D02*
X121920000Y-109220000D01*
X121920000Y-109220000D02*
X128270000Y-102870000D01*
X149960000Y-102870000D02*
X156250000Y-109160000D01*
X128270000Y-102870000D02*
X149960000Y-102870000D01*
X163870000Y-132080000D02*
X156210000Y-132080000D01*
M02*
