G04 #@! TF.GenerationSoftware,KiCad,Pcbnew,(5.1.5)-3*
G04 #@! TF.CreationDate,2020-02-05T13:37:13+11:00*
G04 #@! TF.ProjectId,Heterodyne,48657465-726f-4647-996e-652e6b696361,rev?*
G04 #@! TF.SameCoordinates,Original*
G04 #@! TF.FileFunction,Paste,Top*
G04 #@! TF.FilePolarity,Positive*
%FSLAX46Y46*%
G04 Gerber Fmt 4.6, Leading zero omitted, Abs format (unit mm)*
G04 Created by KiCad (PCBNEW (5.1.5)-3) date 2020-02-05 13:37:13*
%MOMM*%
%LPD*%
G04 APERTURE LIST*
%ADD10C,0.100000*%
%ADD11R,1.500000X0.450000*%
G04 APERTURE END LIST*
D10*
G36*
X139414505Y-77406204D02*
G01*
X139438773Y-77409804D01*
X139462572Y-77415765D01*
X139485671Y-77424030D01*
X139507850Y-77434520D01*
X139528893Y-77447132D01*
X139548599Y-77461747D01*
X139566777Y-77478223D01*
X139583253Y-77496401D01*
X139597868Y-77516107D01*
X139610480Y-77537150D01*
X139620970Y-77559329D01*
X139629235Y-77582428D01*
X139635196Y-77606227D01*
X139638796Y-77630495D01*
X139640000Y-77654999D01*
X139640000Y-78555001D01*
X139638796Y-78579505D01*
X139635196Y-78603773D01*
X139629235Y-78627572D01*
X139620970Y-78650671D01*
X139610480Y-78672850D01*
X139597868Y-78693893D01*
X139583253Y-78713599D01*
X139566777Y-78731777D01*
X139548599Y-78748253D01*
X139528893Y-78762868D01*
X139507850Y-78775480D01*
X139485671Y-78785970D01*
X139462572Y-78794235D01*
X139438773Y-78800196D01*
X139414505Y-78803796D01*
X139390001Y-78805000D01*
X138739999Y-78805000D01*
X138715495Y-78803796D01*
X138691227Y-78800196D01*
X138667428Y-78794235D01*
X138644329Y-78785970D01*
X138622150Y-78775480D01*
X138601107Y-78762868D01*
X138581401Y-78748253D01*
X138563223Y-78731777D01*
X138546747Y-78713599D01*
X138532132Y-78693893D01*
X138519520Y-78672850D01*
X138509030Y-78650671D01*
X138500765Y-78627572D01*
X138494804Y-78603773D01*
X138491204Y-78579505D01*
X138490000Y-78555001D01*
X138490000Y-77654999D01*
X138491204Y-77630495D01*
X138494804Y-77606227D01*
X138500765Y-77582428D01*
X138509030Y-77559329D01*
X138519520Y-77537150D01*
X138532132Y-77516107D01*
X138546747Y-77496401D01*
X138563223Y-77478223D01*
X138581401Y-77461747D01*
X138601107Y-77447132D01*
X138622150Y-77434520D01*
X138644329Y-77424030D01*
X138667428Y-77415765D01*
X138691227Y-77409804D01*
X138715495Y-77406204D01*
X138739999Y-77405000D01*
X139390001Y-77405000D01*
X139414505Y-77406204D01*
G37*
G36*
X137364505Y-77406204D02*
G01*
X137388773Y-77409804D01*
X137412572Y-77415765D01*
X137435671Y-77424030D01*
X137457850Y-77434520D01*
X137478893Y-77447132D01*
X137498599Y-77461747D01*
X137516777Y-77478223D01*
X137533253Y-77496401D01*
X137547868Y-77516107D01*
X137560480Y-77537150D01*
X137570970Y-77559329D01*
X137579235Y-77582428D01*
X137585196Y-77606227D01*
X137588796Y-77630495D01*
X137590000Y-77654999D01*
X137590000Y-78555001D01*
X137588796Y-78579505D01*
X137585196Y-78603773D01*
X137579235Y-78627572D01*
X137570970Y-78650671D01*
X137560480Y-78672850D01*
X137547868Y-78693893D01*
X137533253Y-78713599D01*
X137516777Y-78731777D01*
X137498599Y-78748253D01*
X137478893Y-78762868D01*
X137457850Y-78775480D01*
X137435671Y-78785970D01*
X137412572Y-78794235D01*
X137388773Y-78800196D01*
X137364505Y-78803796D01*
X137340001Y-78805000D01*
X136689999Y-78805000D01*
X136665495Y-78803796D01*
X136641227Y-78800196D01*
X136617428Y-78794235D01*
X136594329Y-78785970D01*
X136572150Y-78775480D01*
X136551107Y-78762868D01*
X136531401Y-78748253D01*
X136513223Y-78731777D01*
X136496747Y-78713599D01*
X136482132Y-78693893D01*
X136469520Y-78672850D01*
X136459030Y-78650671D01*
X136450765Y-78627572D01*
X136444804Y-78603773D01*
X136441204Y-78579505D01*
X136440000Y-78555001D01*
X136440000Y-77654999D01*
X136441204Y-77630495D01*
X136444804Y-77606227D01*
X136450765Y-77582428D01*
X136459030Y-77559329D01*
X136469520Y-77537150D01*
X136482132Y-77516107D01*
X136496747Y-77496401D01*
X136513223Y-77478223D01*
X136531401Y-77461747D01*
X136551107Y-77447132D01*
X136572150Y-77434520D01*
X136594329Y-77424030D01*
X136617428Y-77415765D01*
X136641227Y-77409804D01*
X136665495Y-77406204D01*
X136689999Y-77405000D01*
X137340001Y-77405000D01*
X137364505Y-77406204D01*
G37*
G36*
X137364505Y-79946204D02*
G01*
X137388773Y-79949804D01*
X137412572Y-79955765D01*
X137435671Y-79964030D01*
X137457850Y-79974520D01*
X137478893Y-79987132D01*
X137498599Y-80001747D01*
X137516777Y-80018223D01*
X137533253Y-80036401D01*
X137547868Y-80056107D01*
X137560480Y-80077150D01*
X137570970Y-80099329D01*
X137579235Y-80122428D01*
X137585196Y-80146227D01*
X137588796Y-80170495D01*
X137590000Y-80194999D01*
X137590000Y-81095001D01*
X137588796Y-81119505D01*
X137585196Y-81143773D01*
X137579235Y-81167572D01*
X137570970Y-81190671D01*
X137560480Y-81212850D01*
X137547868Y-81233893D01*
X137533253Y-81253599D01*
X137516777Y-81271777D01*
X137498599Y-81288253D01*
X137478893Y-81302868D01*
X137457850Y-81315480D01*
X137435671Y-81325970D01*
X137412572Y-81334235D01*
X137388773Y-81340196D01*
X137364505Y-81343796D01*
X137340001Y-81345000D01*
X136689999Y-81345000D01*
X136665495Y-81343796D01*
X136641227Y-81340196D01*
X136617428Y-81334235D01*
X136594329Y-81325970D01*
X136572150Y-81315480D01*
X136551107Y-81302868D01*
X136531401Y-81288253D01*
X136513223Y-81271777D01*
X136496747Y-81253599D01*
X136482132Y-81233893D01*
X136469520Y-81212850D01*
X136459030Y-81190671D01*
X136450765Y-81167572D01*
X136444804Y-81143773D01*
X136441204Y-81119505D01*
X136440000Y-81095001D01*
X136440000Y-80194999D01*
X136441204Y-80170495D01*
X136444804Y-80146227D01*
X136450765Y-80122428D01*
X136459030Y-80099329D01*
X136469520Y-80077150D01*
X136482132Y-80056107D01*
X136496747Y-80036401D01*
X136513223Y-80018223D01*
X136531401Y-80001747D01*
X136551107Y-79987132D01*
X136572150Y-79974520D01*
X136594329Y-79964030D01*
X136617428Y-79955765D01*
X136641227Y-79949804D01*
X136665495Y-79946204D01*
X136689999Y-79945000D01*
X137340001Y-79945000D01*
X137364505Y-79946204D01*
G37*
G36*
X139414505Y-79946204D02*
G01*
X139438773Y-79949804D01*
X139462572Y-79955765D01*
X139485671Y-79964030D01*
X139507850Y-79974520D01*
X139528893Y-79987132D01*
X139548599Y-80001747D01*
X139566777Y-80018223D01*
X139583253Y-80036401D01*
X139597868Y-80056107D01*
X139610480Y-80077150D01*
X139620970Y-80099329D01*
X139629235Y-80122428D01*
X139635196Y-80146227D01*
X139638796Y-80170495D01*
X139640000Y-80194999D01*
X139640000Y-81095001D01*
X139638796Y-81119505D01*
X139635196Y-81143773D01*
X139629235Y-81167572D01*
X139620970Y-81190671D01*
X139610480Y-81212850D01*
X139597868Y-81233893D01*
X139583253Y-81253599D01*
X139566777Y-81271777D01*
X139548599Y-81288253D01*
X139528893Y-81302868D01*
X139507850Y-81315480D01*
X139485671Y-81325970D01*
X139462572Y-81334235D01*
X139438773Y-81340196D01*
X139414505Y-81343796D01*
X139390001Y-81345000D01*
X138739999Y-81345000D01*
X138715495Y-81343796D01*
X138691227Y-81340196D01*
X138667428Y-81334235D01*
X138644329Y-81325970D01*
X138622150Y-81315480D01*
X138601107Y-81302868D01*
X138581401Y-81288253D01*
X138563223Y-81271777D01*
X138546747Y-81253599D01*
X138532132Y-81233893D01*
X138519520Y-81212850D01*
X138509030Y-81190671D01*
X138500765Y-81167572D01*
X138494804Y-81143773D01*
X138491204Y-81119505D01*
X138490000Y-81095001D01*
X138490000Y-80194999D01*
X138491204Y-80170495D01*
X138494804Y-80146227D01*
X138500765Y-80122428D01*
X138509030Y-80099329D01*
X138519520Y-80077150D01*
X138532132Y-80056107D01*
X138546747Y-80036401D01*
X138563223Y-80018223D01*
X138581401Y-80001747D01*
X138601107Y-79987132D01*
X138622150Y-79974520D01*
X138644329Y-79964030D01*
X138667428Y-79955765D01*
X138691227Y-79949804D01*
X138715495Y-79946204D01*
X138739999Y-79945000D01*
X139390001Y-79945000D01*
X139414505Y-79946204D01*
G37*
G36*
X149699505Y-103076204D02*
G01*
X149723773Y-103079804D01*
X149747572Y-103085765D01*
X149770671Y-103094030D01*
X149792850Y-103104520D01*
X149813893Y-103117132D01*
X149833599Y-103131747D01*
X149851777Y-103148223D01*
X149868253Y-103166401D01*
X149882868Y-103186107D01*
X149895480Y-103207150D01*
X149905970Y-103229329D01*
X149914235Y-103252428D01*
X149920196Y-103276227D01*
X149923796Y-103300495D01*
X149925000Y-103324999D01*
X149925000Y-103975001D01*
X149923796Y-103999505D01*
X149920196Y-104023773D01*
X149914235Y-104047572D01*
X149905970Y-104070671D01*
X149895480Y-104092850D01*
X149882868Y-104113893D01*
X149868253Y-104133599D01*
X149851777Y-104151777D01*
X149833599Y-104168253D01*
X149813893Y-104182868D01*
X149792850Y-104195480D01*
X149770671Y-104205970D01*
X149747572Y-104214235D01*
X149723773Y-104220196D01*
X149699505Y-104223796D01*
X149675001Y-104225000D01*
X148774999Y-104225000D01*
X148750495Y-104223796D01*
X148726227Y-104220196D01*
X148702428Y-104214235D01*
X148679329Y-104205970D01*
X148657150Y-104195480D01*
X148636107Y-104182868D01*
X148616401Y-104168253D01*
X148598223Y-104151777D01*
X148581747Y-104133599D01*
X148567132Y-104113893D01*
X148554520Y-104092850D01*
X148544030Y-104070671D01*
X148535765Y-104047572D01*
X148529804Y-104023773D01*
X148526204Y-103999505D01*
X148525000Y-103975001D01*
X148525000Y-103324999D01*
X148526204Y-103300495D01*
X148529804Y-103276227D01*
X148535765Y-103252428D01*
X148544030Y-103229329D01*
X148554520Y-103207150D01*
X148567132Y-103186107D01*
X148581747Y-103166401D01*
X148598223Y-103148223D01*
X148616401Y-103131747D01*
X148636107Y-103117132D01*
X148657150Y-103104520D01*
X148679329Y-103094030D01*
X148702428Y-103085765D01*
X148726227Y-103079804D01*
X148750495Y-103076204D01*
X148774999Y-103075000D01*
X149675001Y-103075000D01*
X149699505Y-103076204D01*
G37*
G36*
X149699505Y-101026204D02*
G01*
X149723773Y-101029804D01*
X149747572Y-101035765D01*
X149770671Y-101044030D01*
X149792850Y-101054520D01*
X149813893Y-101067132D01*
X149833599Y-101081747D01*
X149851777Y-101098223D01*
X149868253Y-101116401D01*
X149882868Y-101136107D01*
X149895480Y-101157150D01*
X149905970Y-101179329D01*
X149914235Y-101202428D01*
X149920196Y-101226227D01*
X149923796Y-101250495D01*
X149925000Y-101274999D01*
X149925000Y-101925001D01*
X149923796Y-101949505D01*
X149920196Y-101973773D01*
X149914235Y-101997572D01*
X149905970Y-102020671D01*
X149895480Y-102042850D01*
X149882868Y-102063893D01*
X149868253Y-102083599D01*
X149851777Y-102101777D01*
X149833599Y-102118253D01*
X149813893Y-102132868D01*
X149792850Y-102145480D01*
X149770671Y-102155970D01*
X149747572Y-102164235D01*
X149723773Y-102170196D01*
X149699505Y-102173796D01*
X149675001Y-102175000D01*
X148774999Y-102175000D01*
X148750495Y-102173796D01*
X148726227Y-102170196D01*
X148702428Y-102164235D01*
X148679329Y-102155970D01*
X148657150Y-102145480D01*
X148636107Y-102132868D01*
X148616401Y-102118253D01*
X148598223Y-102101777D01*
X148581747Y-102083599D01*
X148567132Y-102063893D01*
X148554520Y-102042850D01*
X148544030Y-102020671D01*
X148535765Y-101997572D01*
X148529804Y-101973773D01*
X148526204Y-101949505D01*
X148525000Y-101925001D01*
X148525000Y-101274999D01*
X148526204Y-101250495D01*
X148529804Y-101226227D01*
X148535765Y-101202428D01*
X148544030Y-101179329D01*
X148554520Y-101157150D01*
X148567132Y-101136107D01*
X148581747Y-101116401D01*
X148598223Y-101098223D01*
X148616401Y-101081747D01*
X148636107Y-101067132D01*
X148657150Y-101054520D01*
X148679329Y-101044030D01*
X148702428Y-101035765D01*
X148726227Y-101029804D01*
X148750495Y-101026204D01*
X148774999Y-101025000D01*
X149675001Y-101025000D01*
X149699505Y-101026204D01*
G37*
G36*
X144993505Y-92011204D02*
G01*
X145017773Y-92014804D01*
X145041572Y-92020765D01*
X145064671Y-92029030D01*
X145086850Y-92039520D01*
X145107893Y-92052132D01*
X145127599Y-92066747D01*
X145145777Y-92083223D01*
X145162253Y-92101401D01*
X145176868Y-92121107D01*
X145189480Y-92142150D01*
X145199970Y-92164329D01*
X145208235Y-92187428D01*
X145214196Y-92211227D01*
X145217796Y-92235495D01*
X145219000Y-92259999D01*
X145219000Y-93160001D01*
X145217796Y-93184505D01*
X145214196Y-93208773D01*
X145208235Y-93232572D01*
X145199970Y-93255671D01*
X145189480Y-93277850D01*
X145176868Y-93298893D01*
X145162253Y-93318599D01*
X145145777Y-93336777D01*
X145127599Y-93353253D01*
X145107893Y-93367868D01*
X145086850Y-93380480D01*
X145064671Y-93390970D01*
X145041572Y-93399235D01*
X145017773Y-93405196D01*
X144993505Y-93408796D01*
X144969001Y-93410000D01*
X144318999Y-93410000D01*
X144294495Y-93408796D01*
X144270227Y-93405196D01*
X144246428Y-93399235D01*
X144223329Y-93390970D01*
X144201150Y-93380480D01*
X144180107Y-93367868D01*
X144160401Y-93353253D01*
X144142223Y-93336777D01*
X144125747Y-93318599D01*
X144111132Y-93298893D01*
X144098520Y-93277850D01*
X144088030Y-93255671D01*
X144079765Y-93232572D01*
X144073804Y-93208773D01*
X144070204Y-93184505D01*
X144069000Y-93160001D01*
X144069000Y-92259999D01*
X144070204Y-92235495D01*
X144073804Y-92211227D01*
X144079765Y-92187428D01*
X144088030Y-92164329D01*
X144098520Y-92142150D01*
X144111132Y-92121107D01*
X144125747Y-92101401D01*
X144142223Y-92083223D01*
X144160401Y-92066747D01*
X144180107Y-92052132D01*
X144201150Y-92039520D01*
X144223329Y-92029030D01*
X144246428Y-92020765D01*
X144270227Y-92014804D01*
X144294495Y-92011204D01*
X144318999Y-92010000D01*
X144969001Y-92010000D01*
X144993505Y-92011204D01*
G37*
G36*
X147043505Y-92011204D02*
G01*
X147067773Y-92014804D01*
X147091572Y-92020765D01*
X147114671Y-92029030D01*
X147136850Y-92039520D01*
X147157893Y-92052132D01*
X147177599Y-92066747D01*
X147195777Y-92083223D01*
X147212253Y-92101401D01*
X147226868Y-92121107D01*
X147239480Y-92142150D01*
X147249970Y-92164329D01*
X147258235Y-92187428D01*
X147264196Y-92211227D01*
X147267796Y-92235495D01*
X147269000Y-92259999D01*
X147269000Y-93160001D01*
X147267796Y-93184505D01*
X147264196Y-93208773D01*
X147258235Y-93232572D01*
X147249970Y-93255671D01*
X147239480Y-93277850D01*
X147226868Y-93298893D01*
X147212253Y-93318599D01*
X147195777Y-93336777D01*
X147177599Y-93353253D01*
X147157893Y-93367868D01*
X147136850Y-93380480D01*
X147114671Y-93390970D01*
X147091572Y-93399235D01*
X147067773Y-93405196D01*
X147043505Y-93408796D01*
X147019001Y-93410000D01*
X146368999Y-93410000D01*
X146344495Y-93408796D01*
X146320227Y-93405196D01*
X146296428Y-93399235D01*
X146273329Y-93390970D01*
X146251150Y-93380480D01*
X146230107Y-93367868D01*
X146210401Y-93353253D01*
X146192223Y-93336777D01*
X146175747Y-93318599D01*
X146161132Y-93298893D01*
X146148520Y-93277850D01*
X146138030Y-93255671D01*
X146129765Y-93232572D01*
X146123804Y-93208773D01*
X146120204Y-93184505D01*
X146119000Y-93160001D01*
X146119000Y-92259999D01*
X146120204Y-92235495D01*
X146123804Y-92211227D01*
X146129765Y-92187428D01*
X146138030Y-92164329D01*
X146148520Y-92142150D01*
X146161132Y-92121107D01*
X146175747Y-92101401D01*
X146192223Y-92083223D01*
X146210401Y-92066747D01*
X146230107Y-92052132D01*
X146251150Y-92039520D01*
X146273329Y-92029030D01*
X146296428Y-92020765D01*
X146320227Y-92014804D01*
X146344495Y-92011204D01*
X146368999Y-92010000D01*
X147019001Y-92010000D01*
X147043505Y-92011204D01*
G37*
G36*
X154779505Y-101026204D02*
G01*
X154803773Y-101029804D01*
X154827572Y-101035765D01*
X154850671Y-101044030D01*
X154872850Y-101054520D01*
X154893893Y-101067132D01*
X154913599Y-101081747D01*
X154931777Y-101098223D01*
X154948253Y-101116401D01*
X154962868Y-101136107D01*
X154975480Y-101157150D01*
X154985970Y-101179329D01*
X154994235Y-101202428D01*
X155000196Y-101226227D01*
X155003796Y-101250495D01*
X155005000Y-101274999D01*
X155005000Y-101925001D01*
X155003796Y-101949505D01*
X155000196Y-101973773D01*
X154994235Y-101997572D01*
X154985970Y-102020671D01*
X154975480Y-102042850D01*
X154962868Y-102063893D01*
X154948253Y-102083599D01*
X154931777Y-102101777D01*
X154913599Y-102118253D01*
X154893893Y-102132868D01*
X154872850Y-102145480D01*
X154850671Y-102155970D01*
X154827572Y-102164235D01*
X154803773Y-102170196D01*
X154779505Y-102173796D01*
X154755001Y-102175000D01*
X153854999Y-102175000D01*
X153830495Y-102173796D01*
X153806227Y-102170196D01*
X153782428Y-102164235D01*
X153759329Y-102155970D01*
X153737150Y-102145480D01*
X153716107Y-102132868D01*
X153696401Y-102118253D01*
X153678223Y-102101777D01*
X153661747Y-102083599D01*
X153647132Y-102063893D01*
X153634520Y-102042850D01*
X153624030Y-102020671D01*
X153615765Y-101997572D01*
X153609804Y-101973773D01*
X153606204Y-101949505D01*
X153605000Y-101925001D01*
X153605000Y-101274999D01*
X153606204Y-101250495D01*
X153609804Y-101226227D01*
X153615765Y-101202428D01*
X153624030Y-101179329D01*
X153634520Y-101157150D01*
X153647132Y-101136107D01*
X153661747Y-101116401D01*
X153678223Y-101098223D01*
X153696401Y-101081747D01*
X153716107Y-101067132D01*
X153737150Y-101054520D01*
X153759329Y-101044030D01*
X153782428Y-101035765D01*
X153806227Y-101029804D01*
X153830495Y-101026204D01*
X153854999Y-101025000D01*
X154755001Y-101025000D01*
X154779505Y-101026204D01*
G37*
G36*
X154779505Y-103076204D02*
G01*
X154803773Y-103079804D01*
X154827572Y-103085765D01*
X154850671Y-103094030D01*
X154872850Y-103104520D01*
X154893893Y-103117132D01*
X154913599Y-103131747D01*
X154931777Y-103148223D01*
X154948253Y-103166401D01*
X154962868Y-103186107D01*
X154975480Y-103207150D01*
X154985970Y-103229329D01*
X154994235Y-103252428D01*
X155000196Y-103276227D01*
X155003796Y-103300495D01*
X155005000Y-103324999D01*
X155005000Y-103975001D01*
X155003796Y-103999505D01*
X155000196Y-104023773D01*
X154994235Y-104047572D01*
X154985970Y-104070671D01*
X154975480Y-104092850D01*
X154962868Y-104113893D01*
X154948253Y-104133599D01*
X154931777Y-104151777D01*
X154913599Y-104168253D01*
X154893893Y-104182868D01*
X154872850Y-104195480D01*
X154850671Y-104205970D01*
X154827572Y-104214235D01*
X154803773Y-104220196D01*
X154779505Y-104223796D01*
X154755001Y-104225000D01*
X153854999Y-104225000D01*
X153830495Y-104223796D01*
X153806227Y-104220196D01*
X153782428Y-104214235D01*
X153759329Y-104205970D01*
X153737150Y-104195480D01*
X153716107Y-104182868D01*
X153696401Y-104168253D01*
X153678223Y-104151777D01*
X153661747Y-104133599D01*
X153647132Y-104113893D01*
X153634520Y-104092850D01*
X153624030Y-104070671D01*
X153615765Y-104047572D01*
X153609804Y-104023773D01*
X153606204Y-103999505D01*
X153605000Y-103975001D01*
X153605000Y-103324999D01*
X153606204Y-103300495D01*
X153609804Y-103276227D01*
X153615765Y-103252428D01*
X153624030Y-103229329D01*
X153634520Y-103207150D01*
X153647132Y-103186107D01*
X153661747Y-103166401D01*
X153678223Y-103148223D01*
X153696401Y-103131747D01*
X153716107Y-103117132D01*
X153737150Y-103104520D01*
X153759329Y-103094030D01*
X153782428Y-103085765D01*
X153806227Y-103079804D01*
X153830495Y-103076204D01*
X153854999Y-103075000D01*
X154755001Y-103075000D01*
X154779505Y-103076204D01*
G37*
G36*
X154164505Y-80581204D02*
G01*
X154188773Y-80584804D01*
X154212572Y-80590765D01*
X154235671Y-80599030D01*
X154257850Y-80609520D01*
X154278893Y-80622132D01*
X154298599Y-80636747D01*
X154316777Y-80653223D01*
X154333253Y-80671401D01*
X154347868Y-80691107D01*
X154360480Y-80712150D01*
X154370970Y-80734329D01*
X154379235Y-80757428D01*
X154385196Y-80781227D01*
X154388796Y-80805495D01*
X154390000Y-80829999D01*
X154390000Y-81730001D01*
X154388796Y-81754505D01*
X154385196Y-81778773D01*
X154379235Y-81802572D01*
X154370970Y-81825671D01*
X154360480Y-81847850D01*
X154347868Y-81868893D01*
X154333253Y-81888599D01*
X154316777Y-81906777D01*
X154298599Y-81923253D01*
X154278893Y-81937868D01*
X154257850Y-81950480D01*
X154235671Y-81960970D01*
X154212572Y-81969235D01*
X154188773Y-81975196D01*
X154164505Y-81978796D01*
X154140001Y-81980000D01*
X153489999Y-81980000D01*
X153465495Y-81978796D01*
X153441227Y-81975196D01*
X153417428Y-81969235D01*
X153394329Y-81960970D01*
X153372150Y-81950480D01*
X153351107Y-81937868D01*
X153331401Y-81923253D01*
X153313223Y-81906777D01*
X153296747Y-81888599D01*
X153282132Y-81868893D01*
X153269520Y-81847850D01*
X153259030Y-81825671D01*
X153250765Y-81802572D01*
X153244804Y-81778773D01*
X153241204Y-81754505D01*
X153240000Y-81730001D01*
X153240000Y-80829999D01*
X153241204Y-80805495D01*
X153244804Y-80781227D01*
X153250765Y-80757428D01*
X153259030Y-80734329D01*
X153269520Y-80712150D01*
X153282132Y-80691107D01*
X153296747Y-80671401D01*
X153313223Y-80653223D01*
X153331401Y-80636747D01*
X153351107Y-80622132D01*
X153372150Y-80609520D01*
X153394329Y-80599030D01*
X153417428Y-80590765D01*
X153441227Y-80584804D01*
X153465495Y-80581204D01*
X153489999Y-80580000D01*
X154140001Y-80580000D01*
X154164505Y-80581204D01*
G37*
G36*
X152114505Y-80581204D02*
G01*
X152138773Y-80584804D01*
X152162572Y-80590765D01*
X152185671Y-80599030D01*
X152207850Y-80609520D01*
X152228893Y-80622132D01*
X152248599Y-80636747D01*
X152266777Y-80653223D01*
X152283253Y-80671401D01*
X152297868Y-80691107D01*
X152310480Y-80712150D01*
X152320970Y-80734329D01*
X152329235Y-80757428D01*
X152335196Y-80781227D01*
X152338796Y-80805495D01*
X152340000Y-80829999D01*
X152340000Y-81730001D01*
X152338796Y-81754505D01*
X152335196Y-81778773D01*
X152329235Y-81802572D01*
X152320970Y-81825671D01*
X152310480Y-81847850D01*
X152297868Y-81868893D01*
X152283253Y-81888599D01*
X152266777Y-81906777D01*
X152248599Y-81923253D01*
X152228893Y-81937868D01*
X152207850Y-81950480D01*
X152185671Y-81960970D01*
X152162572Y-81969235D01*
X152138773Y-81975196D01*
X152114505Y-81978796D01*
X152090001Y-81980000D01*
X151439999Y-81980000D01*
X151415495Y-81978796D01*
X151391227Y-81975196D01*
X151367428Y-81969235D01*
X151344329Y-81960970D01*
X151322150Y-81950480D01*
X151301107Y-81937868D01*
X151281401Y-81923253D01*
X151263223Y-81906777D01*
X151246747Y-81888599D01*
X151232132Y-81868893D01*
X151219520Y-81847850D01*
X151209030Y-81825671D01*
X151200765Y-81802572D01*
X151194804Y-81778773D01*
X151191204Y-81754505D01*
X151190000Y-81730001D01*
X151190000Y-80829999D01*
X151191204Y-80805495D01*
X151194804Y-80781227D01*
X151200765Y-80757428D01*
X151209030Y-80734329D01*
X151219520Y-80712150D01*
X151232132Y-80691107D01*
X151246747Y-80671401D01*
X151263223Y-80653223D01*
X151281401Y-80636747D01*
X151301107Y-80622132D01*
X151322150Y-80609520D01*
X151344329Y-80599030D01*
X151367428Y-80590765D01*
X151391227Y-80584804D01*
X151415495Y-80581204D01*
X151439999Y-80580000D01*
X152090001Y-80580000D01*
X152114505Y-80581204D01*
G37*
G36*
X156049505Y-81205204D02*
G01*
X156073773Y-81208804D01*
X156097572Y-81214765D01*
X156120671Y-81223030D01*
X156142850Y-81233520D01*
X156163893Y-81246132D01*
X156183599Y-81260747D01*
X156201777Y-81277223D01*
X156218253Y-81295401D01*
X156232868Y-81315107D01*
X156245480Y-81336150D01*
X156255970Y-81358329D01*
X156264235Y-81381428D01*
X156270196Y-81405227D01*
X156273796Y-81429495D01*
X156275000Y-81453999D01*
X156275000Y-82104001D01*
X156273796Y-82128505D01*
X156270196Y-82152773D01*
X156264235Y-82176572D01*
X156255970Y-82199671D01*
X156245480Y-82221850D01*
X156232868Y-82242893D01*
X156218253Y-82262599D01*
X156201777Y-82280777D01*
X156183599Y-82297253D01*
X156163893Y-82311868D01*
X156142850Y-82324480D01*
X156120671Y-82334970D01*
X156097572Y-82343235D01*
X156073773Y-82349196D01*
X156049505Y-82352796D01*
X156025001Y-82354000D01*
X155124999Y-82354000D01*
X155100495Y-82352796D01*
X155076227Y-82349196D01*
X155052428Y-82343235D01*
X155029329Y-82334970D01*
X155007150Y-82324480D01*
X154986107Y-82311868D01*
X154966401Y-82297253D01*
X154948223Y-82280777D01*
X154931747Y-82262599D01*
X154917132Y-82242893D01*
X154904520Y-82221850D01*
X154894030Y-82199671D01*
X154885765Y-82176572D01*
X154879804Y-82152773D01*
X154876204Y-82128505D01*
X154875000Y-82104001D01*
X154875000Y-81453999D01*
X154876204Y-81429495D01*
X154879804Y-81405227D01*
X154885765Y-81381428D01*
X154894030Y-81358329D01*
X154904520Y-81336150D01*
X154917132Y-81315107D01*
X154931747Y-81295401D01*
X154948223Y-81277223D01*
X154966401Y-81260747D01*
X154986107Y-81246132D01*
X155007150Y-81233520D01*
X155029329Y-81223030D01*
X155052428Y-81214765D01*
X155076227Y-81208804D01*
X155100495Y-81205204D01*
X155124999Y-81204000D01*
X156025001Y-81204000D01*
X156049505Y-81205204D01*
G37*
G36*
X156049505Y-83255204D02*
G01*
X156073773Y-83258804D01*
X156097572Y-83264765D01*
X156120671Y-83273030D01*
X156142850Y-83283520D01*
X156163893Y-83296132D01*
X156183599Y-83310747D01*
X156201777Y-83327223D01*
X156218253Y-83345401D01*
X156232868Y-83365107D01*
X156245480Y-83386150D01*
X156255970Y-83408329D01*
X156264235Y-83431428D01*
X156270196Y-83455227D01*
X156273796Y-83479495D01*
X156275000Y-83503999D01*
X156275000Y-84154001D01*
X156273796Y-84178505D01*
X156270196Y-84202773D01*
X156264235Y-84226572D01*
X156255970Y-84249671D01*
X156245480Y-84271850D01*
X156232868Y-84292893D01*
X156218253Y-84312599D01*
X156201777Y-84330777D01*
X156183599Y-84347253D01*
X156163893Y-84361868D01*
X156142850Y-84374480D01*
X156120671Y-84384970D01*
X156097572Y-84393235D01*
X156073773Y-84399196D01*
X156049505Y-84402796D01*
X156025001Y-84404000D01*
X155124999Y-84404000D01*
X155100495Y-84402796D01*
X155076227Y-84399196D01*
X155052428Y-84393235D01*
X155029329Y-84384970D01*
X155007150Y-84374480D01*
X154986107Y-84361868D01*
X154966401Y-84347253D01*
X154948223Y-84330777D01*
X154931747Y-84312599D01*
X154917132Y-84292893D01*
X154904520Y-84271850D01*
X154894030Y-84249671D01*
X154885765Y-84226572D01*
X154879804Y-84202773D01*
X154876204Y-84178505D01*
X154875000Y-84154001D01*
X154875000Y-83503999D01*
X154876204Y-83479495D01*
X154879804Y-83455227D01*
X154885765Y-83431428D01*
X154894030Y-83408329D01*
X154904520Y-83386150D01*
X154917132Y-83365107D01*
X154931747Y-83345401D01*
X154948223Y-83327223D01*
X154966401Y-83310747D01*
X154986107Y-83296132D01*
X155007150Y-83283520D01*
X155029329Y-83273030D01*
X155052428Y-83264765D01*
X155076227Y-83258804D01*
X155100495Y-83255204D01*
X155124999Y-83254000D01*
X156025001Y-83254000D01*
X156049505Y-83255204D01*
G37*
G36*
X141859504Y-91461204D02*
G01*
X141883773Y-91464804D01*
X141907571Y-91470765D01*
X141930671Y-91479030D01*
X141952849Y-91489520D01*
X141973893Y-91502133D01*
X141993598Y-91516747D01*
X142011777Y-91533223D01*
X142028253Y-91551402D01*
X142042867Y-91571107D01*
X142055480Y-91592151D01*
X142065970Y-91614329D01*
X142074235Y-91637429D01*
X142080196Y-91661227D01*
X142083796Y-91685496D01*
X142085000Y-91710000D01*
X142085000Y-93710000D01*
X142083796Y-93734504D01*
X142080196Y-93758773D01*
X142074235Y-93782571D01*
X142065970Y-93805671D01*
X142055480Y-93827849D01*
X142042867Y-93848893D01*
X142028253Y-93868598D01*
X142011777Y-93886777D01*
X141993598Y-93903253D01*
X141973893Y-93917867D01*
X141952849Y-93930480D01*
X141930671Y-93940970D01*
X141907571Y-93949235D01*
X141883773Y-93955196D01*
X141859504Y-93958796D01*
X141835000Y-93960000D01*
X138835000Y-93960000D01*
X138810496Y-93958796D01*
X138786227Y-93955196D01*
X138762429Y-93949235D01*
X138739329Y-93940970D01*
X138717151Y-93930480D01*
X138696107Y-93917867D01*
X138676402Y-93903253D01*
X138658223Y-93886777D01*
X138641747Y-93868598D01*
X138627133Y-93848893D01*
X138614520Y-93827849D01*
X138604030Y-93805671D01*
X138595765Y-93782571D01*
X138589804Y-93758773D01*
X138586204Y-93734504D01*
X138585000Y-93710000D01*
X138585000Y-91710000D01*
X138586204Y-91685496D01*
X138589804Y-91661227D01*
X138595765Y-91637429D01*
X138604030Y-91614329D01*
X138614520Y-91592151D01*
X138627133Y-91571107D01*
X138641747Y-91551402D01*
X138658223Y-91533223D01*
X138676402Y-91516747D01*
X138696107Y-91502133D01*
X138717151Y-91489520D01*
X138739329Y-91479030D01*
X138762429Y-91470765D01*
X138786227Y-91464804D01*
X138810496Y-91461204D01*
X138835000Y-91460000D01*
X141835000Y-91460000D01*
X141859504Y-91461204D01*
G37*
G36*
X135359504Y-91461204D02*
G01*
X135383773Y-91464804D01*
X135407571Y-91470765D01*
X135430671Y-91479030D01*
X135452849Y-91489520D01*
X135473893Y-91502133D01*
X135493598Y-91516747D01*
X135511777Y-91533223D01*
X135528253Y-91551402D01*
X135542867Y-91571107D01*
X135555480Y-91592151D01*
X135565970Y-91614329D01*
X135574235Y-91637429D01*
X135580196Y-91661227D01*
X135583796Y-91685496D01*
X135585000Y-91710000D01*
X135585000Y-93710000D01*
X135583796Y-93734504D01*
X135580196Y-93758773D01*
X135574235Y-93782571D01*
X135565970Y-93805671D01*
X135555480Y-93827849D01*
X135542867Y-93848893D01*
X135528253Y-93868598D01*
X135511777Y-93886777D01*
X135493598Y-93903253D01*
X135473893Y-93917867D01*
X135452849Y-93930480D01*
X135430671Y-93940970D01*
X135407571Y-93949235D01*
X135383773Y-93955196D01*
X135359504Y-93958796D01*
X135335000Y-93960000D01*
X132335000Y-93960000D01*
X132310496Y-93958796D01*
X132286227Y-93955196D01*
X132262429Y-93949235D01*
X132239329Y-93940970D01*
X132217151Y-93930480D01*
X132196107Y-93917867D01*
X132176402Y-93903253D01*
X132158223Y-93886777D01*
X132141747Y-93868598D01*
X132127133Y-93848893D01*
X132114520Y-93827849D01*
X132104030Y-93805671D01*
X132095765Y-93782571D01*
X132089804Y-93758773D01*
X132086204Y-93734504D01*
X132085000Y-93710000D01*
X132085000Y-91710000D01*
X132086204Y-91685496D01*
X132089804Y-91661227D01*
X132095765Y-91637429D01*
X132104030Y-91614329D01*
X132114520Y-91592151D01*
X132127133Y-91571107D01*
X132141747Y-91551402D01*
X132158223Y-91533223D01*
X132176402Y-91516747D01*
X132196107Y-91502133D01*
X132217151Y-91489520D01*
X132239329Y-91479030D01*
X132262429Y-91470765D01*
X132286227Y-91464804D01*
X132310496Y-91461204D01*
X132335000Y-91460000D01*
X135335000Y-91460000D01*
X135359504Y-91461204D01*
G37*
G36*
X161637505Y-81205204D02*
G01*
X161661773Y-81208804D01*
X161685572Y-81214765D01*
X161708671Y-81223030D01*
X161730850Y-81233520D01*
X161751893Y-81246132D01*
X161771599Y-81260747D01*
X161789777Y-81277223D01*
X161806253Y-81295401D01*
X161820868Y-81315107D01*
X161833480Y-81336150D01*
X161843970Y-81358329D01*
X161852235Y-81381428D01*
X161858196Y-81405227D01*
X161861796Y-81429495D01*
X161863000Y-81453999D01*
X161863000Y-82104001D01*
X161861796Y-82128505D01*
X161858196Y-82152773D01*
X161852235Y-82176572D01*
X161843970Y-82199671D01*
X161833480Y-82221850D01*
X161820868Y-82242893D01*
X161806253Y-82262599D01*
X161789777Y-82280777D01*
X161771599Y-82297253D01*
X161751893Y-82311868D01*
X161730850Y-82324480D01*
X161708671Y-82334970D01*
X161685572Y-82343235D01*
X161661773Y-82349196D01*
X161637505Y-82352796D01*
X161613001Y-82354000D01*
X160712999Y-82354000D01*
X160688495Y-82352796D01*
X160664227Y-82349196D01*
X160640428Y-82343235D01*
X160617329Y-82334970D01*
X160595150Y-82324480D01*
X160574107Y-82311868D01*
X160554401Y-82297253D01*
X160536223Y-82280777D01*
X160519747Y-82262599D01*
X160505132Y-82242893D01*
X160492520Y-82221850D01*
X160482030Y-82199671D01*
X160473765Y-82176572D01*
X160467804Y-82152773D01*
X160464204Y-82128505D01*
X160463000Y-82104001D01*
X160463000Y-81453999D01*
X160464204Y-81429495D01*
X160467804Y-81405227D01*
X160473765Y-81381428D01*
X160482030Y-81358329D01*
X160492520Y-81336150D01*
X160505132Y-81315107D01*
X160519747Y-81295401D01*
X160536223Y-81277223D01*
X160554401Y-81260747D01*
X160574107Y-81246132D01*
X160595150Y-81233520D01*
X160617329Y-81223030D01*
X160640428Y-81214765D01*
X160664227Y-81208804D01*
X160688495Y-81205204D01*
X160712999Y-81204000D01*
X161613001Y-81204000D01*
X161637505Y-81205204D01*
G37*
G36*
X161637505Y-83255204D02*
G01*
X161661773Y-83258804D01*
X161685572Y-83264765D01*
X161708671Y-83273030D01*
X161730850Y-83283520D01*
X161751893Y-83296132D01*
X161771599Y-83310747D01*
X161789777Y-83327223D01*
X161806253Y-83345401D01*
X161820868Y-83365107D01*
X161833480Y-83386150D01*
X161843970Y-83408329D01*
X161852235Y-83431428D01*
X161858196Y-83455227D01*
X161861796Y-83479495D01*
X161863000Y-83503999D01*
X161863000Y-84154001D01*
X161861796Y-84178505D01*
X161858196Y-84202773D01*
X161852235Y-84226572D01*
X161843970Y-84249671D01*
X161833480Y-84271850D01*
X161820868Y-84292893D01*
X161806253Y-84312599D01*
X161789777Y-84330777D01*
X161771599Y-84347253D01*
X161751893Y-84361868D01*
X161730850Y-84374480D01*
X161708671Y-84384970D01*
X161685572Y-84393235D01*
X161661773Y-84399196D01*
X161637505Y-84402796D01*
X161613001Y-84404000D01*
X160712999Y-84404000D01*
X160688495Y-84402796D01*
X160664227Y-84399196D01*
X160640428Y-84393235D01*
X160617329Y-84384970D01*
X160595150Y-84374480D01*
X160574107Y-84361868D01*
X160554401Y-84347253D01*
X160536223Y-84330777D01*
X160519747Y-84312599D01*
X160505132Y-84292893D01*
X160492520Y-84271850D01*
X160482030Y-84249671D01*
X160473765Y-84226572D01*
X160467804Y-84202773D01*
X160464204Y-84178505D01*
X160463000Y-84154001D01*
X160463000Y-83503999D01*
X160464204Y-83479495D01*
X160467804Y-83455227D01*
X160473765Y-83431428D01*
X160482030Y-83408329D01*
X160492520Y-83386150D01*
X160505132Y-83365107D01*
X160519747Y-83345401D01*
X160536223Y-83327223D01*
X160554401Y-83310747D01*
X160574107Y-83296132D01*
X160595150Y-83283520D01*
X160617329Y-83273030D01*
X160640428Y-83264765D01*
X160664227Y-83258804D01*
X160688495Y-83255204D01*
X160712999Y-83254000D01*
X161613001Y-83254000D01*
X161637505Y-83255204D01*
G37*
G36*
X170467004Y-76596204D02*
G01*
X170491273Y-76599804D01*
X170515071Y-76605765D01*
X170538171Y-76614030D01*
X170560349Y-76624520D01*
X170581393Y-76637133D01*
X170601098Y-76651747D01*
X170619277Y-76668223D01*
X170635753Y-76686402D01*
X170650367Y-76706107D01*
X170662980Y-76727151D01*
X170673470Y-76749329D01*
X170681735Y-76772429D01*
X170687696Y-76796227D01*
X170691296Y-76820496D01*
X170692500Y-76845000D01*
X170692500Y-78095000D01*
X170691296Y-78119504D01*
X170687696Y-78143773D01*
X170681735Y-78167571D01*
X170673470Y-78190671D01*
X170662980Y-78212849D01*
X170650367Y-78233893D01*
X170635753Y-78253598D01*
X170619277Y-78271777D01*
X170601098Y-78288253D01*
X170581393Y-78302867D01*
X170560349Y-78315480D01*
X170538171Y-78325970D01*
X170515071Y-78334235D01*
X170491273Y-78340196D01*
X170467004Y-78343796D01*
X170442500Y-78345000D01*
X169517500Y-78345000D01*
X169492996Y-78343796D01*
X169468727Y-78340196D01*
X169444929Y-78334235D01*
X169421829Y-78325970D01*
X169399651Y-78315480D01*
X169378607Y-78302867D01*
X169358902Y-78288253D01*
X169340723Y-78271777D01*
X169324247Y-78253598D01*
X169309633Y-78233893D01*
X169297020Y-78212849D01*
X169286530Y-78190671D01*
X169278265Y-78167571D01*
X169272304Y-78143773D01*
X169268704Y-78119504D01*
X169267500Y-78095000D01*
X169267500Y-76845000D01*
X169268704Y-76820496D01*
X169272304Y-76796227D01*
X169278265Y-76772429D01*
X169286530Y-76749329D01*
X169297020Y-76727151D01*
X169309633Y-76706107D01*
X169324247Y-76686402D01*
X169340723Y-76668223D01*
X169358902Y-76651747D01*
X169378607Y-76637133D01*
X169399651Y-76624520D01*
X169421829Y-76614030D01*
X169444929Y-76605765D01*
X169468727Y-76599804D01*
X169492996Y-76596204D01*
X169517500Y-76595000D01*
X170442500Y-76595000D01*
X170467004Y-76596204D01*
G37*
G36*
X167492004Y-76596204D02*
G01*
X167516273Y-76599804D01*
X167540071Y-76605765D01*
X167563171Y-76614030D01*
X167585349Y-76624520D01*
X167606393Y-76637133D01*
X167626098Y-76651747D01*
X167644277Y-76668223D01*
X167660753Y-76686402D01*
X167675367Y-76706107D01*
X167687980Y-76727151D01*
X167698470Y-76749329D01*
X167706735Y-76772429D01*
X167712696Y-76796227D01*
X167716296Y-76820496D01*
X167717500Y-76845000D01*
X167717500Y-78095000D01*
X167716296Y-78119504D01*
X167712696Y-78143773D01*
X167706735Y-78167571D01*
X167698470Y-78190671D01*
X167687980Y-78212849D01*
X167675367Y-78233893D01*
X167660753Y-78253598D01*
X167644277Y-78271777D01*
X167626098Y-78288253D01*
X167606393Y-78302867D01*
X167585349Y-78315480D01*
X167563171Y-78325970D01*
X167540071Y-78334235D01*
X167516273Y-78340196D01*
X167492004Y-78343796D01*
X167467500Y-78345000D01*
X166542500Y-78345000D01*
X166517996Y-78343796D01*
X166493727Y-78340196D01*
X166469929Y-78334235D01*
X166446829Y-78325970D01*
X166424651Y-78315480D01*
X166403607Y-78302867D01*
X166383902Y-78288253D01*
X166365723Y-78271777D01*
X166349247Y-78253598D01*
X166334633Y-78233893D01*
X166322020Y-78212849D01*
X166311530Y-78190671D01*
X166303265Y-78167571D01*
X166297304Y-78143773D01*
X166293704Y-78119504D01*
X166292500Y-78095000D01*
X166292500Y-76845000D01*
X166293704Y-76820496D01*
X166297304Y-76796227D01*
X166303265Y-76772429D01*
X166311530Y-76749329D01*
X166322020Y-76727151D01*
X166334633Y-76706107D01*
X166349247Y-76686402D01*
X166365723Y-76668223D01*
X166383902Y-76651747D01*
X166403607Y-76637133D01*
X166424651Y-76624520D01*
X166446829Y-76614030D01*
X166469929Y-76605765D01*
X166493727Y-76599804D01*
X166517996Y-76596204D01*
X166542500Y-76595000D01*
X167467500Y-76595000D01*
X167492004Y-76596204D01*
G37*
G36*
X163281505Y-80581204D02*
G01*
X163305773Y-80584804D01*
X163329572Y-80590765D01*
X163352671Y-80599030D01*
X163374850Y-80609520D01*
X163395893Y-80622132D01*
X163415599Y-80636747D01*
X163433777Y-80653223D01*
X163450253Y-80671401D01*
X163464868Y-80691107D01*
X163477480Y-80712150D01*
X163487970Y-80734329D01*
X163496235Y-80757428D01*
X163502196Y-80781227D01*
X163505796Y-80805495D01*
X163507000Y-80829999D01*
X163507000Y-81730001D01*
X163505796Y-81754505D01*
X163502196Y-81778773D01*
X163496235Y-81802572D01*
X163487970Y-81825671D01*
X163477480Y-81847850D01*
X163464868Y-81868893D01*
X163450253Y-81888599D01*
X163433777Y-81906777D01*
X163415599Y-81923253D01*
X163395893Y-81937868D01*
X163374850Y-81950480D01*
X163352671Y-81960970D01*
X163329572Y-81969235D01*
X163305773Y-81975196D01*
X163281505Y-81978796D01*
X163257001Y-81980000D01*
X162606999Y-81980000D01*
X162582495Y-81978796D01*
X162558227Y-81975196D01*
X162534428Y-81969235D01*
X162511329Y-81960970D01*
X162489150Y-81950480D01*
X162468107Y-81937868D01*
X162448401Y-81923253D01*
X162430223Y-81906777D01*
X162413747Y-81888599D01*
X162399132Y-81868893D01*
X162386520Y-81847850D01*
X162376030Y-81825671D01*
X162367765Y-81802572D01*
X162361804Y-81778773D01*
X162358204Y-81754505D01*
X162357000Y-81730001D01*
X162357000Y-80829999D01*
X162358204Y-80805495D01*
X162361804Y-80781227D01*
X162367765Y-80757428D01*
X162376030Y-80734329D01*
X162386520Y-80712150D01*
X162399132Y-80691107D01*
X162413747Y-80671401D01*
X162430223Y-80653223D01*
X162448401Y-80636747D01*
X162468107Y-80622132D01*
X162489150Y-80609520D01*
X162511329Y-80599030D01*
X162534428Y-80590765D01*
X162558227Y-80584804D01*
X162582495Y-80581204D01*
X162606999Y-80580000D01*
X163257001Y-80580000D01*
X163281505Y-80581204D01*
G37*
G36*
X165331505Y-80581204D02*
G01*
X165355773Y-80584804D01*
X165379572Y-80590765D01*
X165402671Y-80599030D01*
X165424850Y-80609520D01*
X165445893Y-80622132D01*
X165465599Y-80636747D01*
X165483777Y-80653223D01*
X165500253Y-80671401D01*
X165514868Y-80691107D01*
X165527480Y-80712150D01*
X165537970Y-80734329D01*
X165546235Y-80757428D01*
X165552196Y-80781227D01*
X165555796Y-80805495D01*
X165557000Y-80829999D01*
X165557000Y-81730001D01*
X165555796Y-81754505D01*
X165552196Y-81778773D01*
X165546235Y-81802572D01*
X165537970Y-81825671D01*
X165527480Y-81847850D01*
X165514868Y-81868893D01*
X165500253Y-81888599D01*
X165483777Y-81906777D01*
X165465599Y-81923253D01*
X165445893Y-81937868D01*
X165424850Y-81950480D01*
X165402671Y-81960970D01*
X165379572Y-81969235D01*
X165355773Y-81975196D01*
X165331505Y-81978796D01*
X165307001Y-81980000D01*
X164656999Y-81980000D01*
X164632495Y-81978796D01*
X164608227Y-81975196D01*
X164584428Y-81969235D01*
X164561329Y-81960970D01*
X164539150Y-81950480D01*
X164518107Y-81937868D01*
X164498401Y-81923253D01*
X164480223Y-81906777D01*
X164463747Y-81888599D01*
X164449132Y-81868893D01*
X164436520Y-81847850D01*
X164426030Y-81825671D01*
X164417765Y-81802572D01*
X164411804Y-81778773D01*
X164408204Y-81754505D01*
X164407000Y-81730001D01*
X164407000Y-80829999D01*
X164408204Y-80805495D01*
X164411804Y-80781227D01*
X164417765Y-80757428D01*
X164426030Y-80734329D01*
X164436520Y-80712150D01*
X164449132Y-80691107D01*
X164463747Y-80671401D01*
X164480223Y-80653223D01*
X164498401Y-80636747D01*
X164518107Y-80622132D01*
X164539150Y-80609520D01*
X164561329Y-80599030D01*
X164584428Y-80590765D01*
X164608227Y-80584804D01*
X164632495Y-80581204D01*
X164656999Y-80580000D01*
X165307001Y-80580000D01*
X165331505Y-80581204D01*
G37*
G36*
X144619505Y-89741204D02*
G01*
X144643773Y-89744804D01*
X144667572Y-89750765D01*
X144690671Y-89759030D01*
X144712850Y-89769520D01*
X144733893Y-89782132D01*
X144753599Y-89796747D01*
X144771777Y-89813223D01*
X144788253Y-89831401D01*
X144802868Y-89851107D01*
X144815480Y-89872150D01*
X144825970Y-89894329D01*
X144834235Y-89917428D01*
X144840196Y-89941227D01*
X144843796Y-89965495D01*
X144845000Y-89989999D01*
X144845000Y-90640001D01*
X144843796Y-90664505D01*
X144840196Y-90688773D01*
X144834235Y-90712572D01*
X144825970Y-90735671D01*
X144815480Y-90757850D01*
X144802868Y-90778893D01*
X144788253Y-90798599D01*
X144771777Y-90816777D01*
X144753599Y-90833253D01*
X144733893Y-90847868D01*
X144712850Y-90860480D01*
X144690671Y-90870970D01*
X144667572Y-90879235D01*
X144643773Y-90885196D01*
X144619505Y-90888796D01*
X144595001Y-90890000D01*
X143694999Y-90890000D01*
X143670495Y-90888796D01*
X143646227Y-90885196D01*
X143622428Y-90879235D01*
X143599329Y-90870970D01*
X143577150Y-90860480D01*
X143556107Y-90847868D01*
X143536401Y-90833253D01*
X143518223Y-90816777D01*
X143501747Y-90798599D01*
X143487132Y-90778893D01*
X143474520Y-90757850D01*
X143464030Y-90735671D01*
X143455765Y-90712572D01*
X143449804Y-90688773D01*
X143446204Y-90664505D01*
X143445000Y-90640001D01*
X143445000Y-89989999D01*
X143446204Y-89965495D01*
X143449804Y-89941227D01*
X143455765Y-89917428D01*
X143464030Y-89894329D01*
X143474520Y-89872150D01*
X143487132Y-89851107D01*
X143501747Y-89831401D01*
X143518223Y-89813223D01*
X143536401Y-89796747D01*
X143556107Y-89782132D01*
X143577150Y-89769520D01*
X143599329Y-89759030D01*
X143622428Y-89750765D01*
X143646227Y-89744804D01*
X143670495Y-89741204D01*
X143694999Y-89740000D01*
X144595001Y-89740000D01*
X144619505Y-89741204D01*
G37*
G36*
X144619505Y-87691204D02*
G01*
X144643773Y-87694804D01*
X144667572Y-87700765D01*
X144690671Y-87709030D01*
X144712850Y-87719520D01*
X144733893Y-87732132D01*
X144753599Y-87746747D01*
X144771777Y-87763223D01*
X144788253Y-87781401D01*
X144802868Y-87801107D01*
X144815480Y-87822150D01*
X144825970Y-87844329D01*
X144834235Y-87867428D01*
X144840196Y-87891227D01*
X144843796Y-87915495D01*
X144845000Y-87939999D01*
X144845000Y-88590001D01*
X144843796Y-88614505D01*
X144840196Y-88638773D01*
X144834235Y-88662572D01*
X144825970Y-88685671D01*
X144815480Y-88707850D01*
X144802868Y-88728893D01*
X144788253Y-88748599D01*
X144771777Y-88766777D01*
X144753599Y-88783253D01*
X144733893Y-88797868D01*
X144712850Y-88810480D01*
X144690671Y-88820970D01*
X144667572Y-88829235D01*
X144643773Y-88835196D01*
X144619505Y-88838796D01*
X144595001Y-88840000D01*
X143694999Y-88840000D01*
X143670495Y-88838796D01*
X143646227Y-88835196D01*
X143622428Y-88829235D01*
X143599329Y-88820970D01*
X143577150Y-88810480D01*
X143556107Y-88797868D01*
X143536401Y-88783253D01*
X143518223Y-88766777D01*
X143501747Y-88748599D01*
X143487132Y-88728893D01*
X143474520Y-88707850D01*
X143464030Y-88685671D01*
X143455765Y-88662572D01*
X143449804Y-88638773D01*
X143446204Y-88614505D01*
X143445000Y-88590001D01*
X143445000Y-87939999D01*
X143446204Y-87915495D01*
X143449804Y-87891227D01*
X143455765Y-87867428D01*
X143464030Y-87844329D01*
X143474520Y-87822150D01*
X143487132Y-87801107D01*
X143501747Y-87781401D01*
X143518223Y-87763223D01*
X143536401Y-87746747D01*
X143556107Y-87732132D01*
X143577150Y-87719520D01*
X143599329Y-87709030D01*
X143622428Y-87700765D01*
X143646227Y-87694804D01*
X143670495Y-87691204D01*
X143694999Y-87690000D01*
X144595001Y-87690000D01*
X144619505Y-87691204D01*
G37*
G36*
X155289505Y-94551204D02*
G01*
X155313773Y-94554804D01*
X155337572Y-94560765D01*
X155360671Y-94569030D01*
X155382850Y-94579520D01*
X155403893Y-94592132D01*
X155423599Y-94606747D01*
X155441777Y-94623223D01*
X155458253Y-94641401D01*
X155472868Y-94661107D01*
X155485480Y-94682150D01*
X155495970Y-94704329D01*
X155504235Y-94727428D01*
X155510196Y-94751227D01*
X155513796Y-94775495D01*
X155515000Y-94799999D01*
X155515000Y-95700001D01*
X155513796Y-95724505D01*
X155510196Y-95748773D01*
X155504235Y-95772572D01*
X155495970Y-95795671D01*
X155485480Y-95817850D01*
X155472868Y-95838893D01*
X155458253Y-95858599D01*
X155441777Y-95876777D01*
X155423599Y-95893253D01*
X155403893Y-95907868D01*
X155382850Y-95920480D01*
X155360671Y-95930970D01*
X155337572Y-95939235D01*
X155313773Y-95945196D01*
X155289505Y-95948796D01*
X155265001Y-95950000D01*
X154614999Y-95950000D01*
X154590495Y-95948796D01*
X154566227Y-95945196D01*
X154542428Y-95939235D01*
X154519329Y-95930970D01*
X154497150Y-95920480D01*
X154476107Y-95907868D01*
X154456401Y-95893253D01*
X154438223Y-95876777D01*
X154421747Y-95858599D01*
X154407132Y-95838893D01*
X154394520Y-95817850D01*
X154384030Y-95795671D01*
X154375765Y-95772572D01*
X154369804Y-95748773D01*
X154366204Y-95724505D01*
X154365000Y-95700001D01*
X154365000Y-94799999D01*
X154366204Y-94775495D01*
X154369804Y-94751227D01*
X154375765Y-94727428D01*
X154384030Y-94704329D01*
X154394520Y-94682150D01*
X154407132Y-94661107D01*
X154421747Y-94641401D01*
X154438223Y-94623223D01*
X154456401Y-94606747D01*
X154476107Y-94592132D01*
X154497150Y-94579520D01*
X154519329Y-94569030D01*
X154542428Y-94560765D01*
X154566227Y-94554804D01*
X154590495Y-94551204D01*
X154614999Y-94550000D01*
X155265001Y-94550000D01*
X155289505Y-94551204D01*
G37*
G36*
X157339505Y-94551204D02*
G01*
X157363773Y-94554804D01*
X157387572Y-94560765D01*
X157410671Y-94569030D01*
X157432850Y-94579520D01*
X157453893Y-94592132D01*
X157473599Y-94606747D01*
X157491777Y-94623223D01*
X157508253Y-94641401D01*
X157522868Y-94661107D01*
X157535480Y-94682150D01*
X157545970Y-94704329D01*
X157554235Y-94727428D01*
X157560196Y-94751227D01*
X157563796Y-94775495D01*
X157565000Y-94799999D01*
X157565000Y-95700001D01*
X157563796Y-95724505D01*
X157560196Y-95748773D01*
X157554235Y-95772572D01*
X157545970Y-95795671D01*
X157535480Y-95817850D01*
X157522868Y-95838893D01*
X157508253Y-95858599D01*
X157491777Y-95876777D01*
X157473599Y-95893253D01*
X157453893Y-95907868D01*
X157432850Y-95920480D01*
X157410671Y-95930970D01*
X157387572Y-95939235D01*
X157363773Y-95945196D01*
X157339505Y-95948796D01*
X157315001Y-95950000D01*
X156664999Y-95950000D01*
X156640495Y-95948796D01*
X156616227Y-95945196D01*
X156592428Y-95939235D01*
X156569329Y-95930970D01*
X156547150Y-95920480D01*
X156526107Y-95907868D01*
X156506401Y-95893253D01*
X156488223Y-95876777D01*
X156471747Y-95858599D01*
X156457132Y-95838893D01*
X156444520Y-95817850D01*
X156434030Y-95795671D01*
X156425765Y-95772572D01*
X156419804Y-95748773D01*
X156416204Y-95724505D01*
X156415000Y-95700001D01*
X156415000Y-94799999D01*
X156416204Y-94775495D01*
X156419804Y-94751227D01*
X156425765Y-94727428D01*
X156434030Y-94704329D01*
X156444520Y-94682150D01*
X156457132Y-94661107D01*
X156471747Y-94641401D01*
X156488223Y-94623223D01*
X156506401Y-94606747D01*
X156526107Y-94592132D01*
X156547150Y-94579520D01*
X156569329Y-94569030D01*
X156592428Y-94560765D01*
X156616227Y-94554804D01*
X156640495Y-94551204D01*
X156664999Y-94550000D01*
X157315001Y-94550000D01*
X157339505Y-94551204D01*
G37*
G36*
X157339505Y-97091204D02*
G01*
X157363773Y-97094804D01*
X157387572Y-97100765D01*
X157410671Y-97109030D01*
X157432850Y-97119520D01*
X157453893Y-97132132D01*
X157473599Y-97146747D01*
X157491777Y-97163223D01*
X157508253Y-97181401D01*
X157522868Y-97201107D01*
X157535480Y-97222150D01*
X157545970Y-97244329D01*
X157554235Y-97267428D01*
X157560196Y-97291227D01*
X157563796Y-97315495D01*
X157565000Y-97339999D01*
X157565000Y-98240001D01*
X157563796Y-98264505D01*
X157560196Y-98288773D01*
X157554235Y-98312572D01*
X157545970Y-98335671D01*
X157535480Y-98357850D01*
X157522868Y-98378893D01*
X157508253Y-98398599D01*
X157491777Y-98416777D01*
X157473599Y-98433253D01*
X157453893Y-98447868D01*
X157432850Y-98460480D01*
X157410671Y-98470970D01*
X157387572Y-98479235D01*
X157363773Y-98485196D01*
X157339505Y-98488796D01*
X157315001Y-98490000D01*
X156664999Y-98490000D01*
X156640495Y-98488796D01*
X156616227Y-98485196D01*
X156592428Y-98479235D01*
X156569329Y-98470970D01*
X156547150Y-98460480D01*
X156526107Y-98447868D01*
X156506401Y-98433253D01*
X156488223Y-98416777D01*
X156471747Y-98398599D01*
X156457132Y-98378893D01*
X156444520Y-98357850D01*
X156434030Y-98335671D01*
X156425765Y-98312572D01*
X156419804Y-98288773D01*
X156416204Y-98264505D01*
X156415000Y-98240001D01*
X156415000Y-97339999D01*
X156416204Y-97315495D01*
X156419804Y-97291227D01*
X156425765Y-97267428D01*
X156434030Y-97244329D01*
X156444520Y-97222150D01*
X156457132Y-97201107D01*
X156471747Y-97181401D01*
X156488223Y-97163223D01*
X156506401Y-97146747D01*
X156526107Y-97132132D01*
X156547150Y-97119520D01*
X156569329Y-97109030D01*
X156592428Y-97100765D01*
X156616227Y-97094804D01*
X156640495Y-97091204D01*
X156664999Y-97090000D01*
X157315001Y-97090000D01*
X157339505Y-97091204D01*
G37*
G36*
X155289505Y-97091204D02*
G01*
X155313773Y-97094804D01*
X155337572Y-97100765D01*
X155360671Y-97109030D01*
X155382850Y-97119520D01*
X155403893Y-97132132D01*
X155423599Y-97146747D01*
X155441777Y-97163223D01*
X155458253Y-97181401D01*
X155472868Y-97201107D01*
X155485480Y-97222150D01*
X155495970Y-97244329D01*
X155504235Y-97267428D01*
X155510196Y-97291227D01*
X155513796Y-97315495D01*
X155515000Y-97339999D01*
X155515000Y-98240001D01*
X155513796Y-98264505D01*
X155510196Y-98288773D01*
X155504235Y-98312572D01*
X155495970Y-98335671D01*
X155485480Y-98357850D01*
X155472868Y-98378893D01*
X155458253Y-98398599D01*
X155441777Y-98416777D01*
X155423599Y-98433253D01*
X155403893Y-98447868D01*
X155382850Y-98460480D01*
X155360671Y-98470970D01*
X155337572Y-98479235D01*
X155313773Y-98485196D01*
X155289505Y-98488796D01*
X155265001Y-98490000D01*
X154614999Y-98490000D01*
X154590495Y-98488796D01*
X154566227Y-98485196D01*
X154542428Y-98479235D01*
X154519329Y-98470970D01*
X154497150Y-98460480D01*
X154476107Y-98447868D01*
X154456401Y-98433253D01*
X154438223Y-98416777D01*
X154421747Y-98398599D01*
X154407132Y-98378893D01*
X154394520Y-98357850D01*
X154384030Y-98335671D01*
X154375765Y-98312572D01*
X154369804Y-98288773D01*
X154366204Y-98264505D01*
X154365000Y-98240001D01*
X154365000Y-97339999D01*
X154366204Y-97315495D01*
X154369804Y-97291227D01*
X154375765Y-97267428D01*
X154384030Y-97244329D01*
X154394520Y-97222150D01*
X154407132Y-97201107D01*
X154421747Y-97181401D01*
X154438223Y-97163223D01*
X154456401Y-97146747D01*
X154476107Y-97132132D01*
X154497150Y-97119520D01*
X154519329Y-97109030D01*
X154542428Y-97100765D01*
X154566227Y-97094804D01*
X154590495Y-97091204D01*
X154614999Y-97090000D01*
X155265001Y-97090000D01*
X155289505Y-97091204D01*
G37*
G36*
X147794505Y-87691204D02*
G01*
X147818773Y-87694804D01*
X147842572Y-87700765D01*
X147865671Y-87709030D01*
X147887850Y-87719520D01*
X147908893Y-87732132D01*
X147928599Y-87746747D01*
X147946777Y-87763223D01*
X147963253Y-87781401D01*
X147977868Y-87801107D01*
X147990480Y-87822150D01*
X148000970Y-87844329D01*
X148009235Y-87867428D01*
X148015196Y-87891227D01*
X148018796Y-87915495D01*
X148020000Y-87939999D01*
X148020000Y-88590001D01*
X148018796Y-88614505D01*
X148015196Y-88638773D01*
X148009235Y-88662572D01*
X148000970Y-88685671D01*
X147990480Y-88707850D01*
X147977868Y-88728893D01*
X147963253Y-88748599D01*
X147946777Y-88766777D01*
X147928599Y-88783253D01*
X147908893Y-88797868D01*
X147887850Y-88810480D01*
X147865671Y-88820970D01*
X147842572Y-88829235D01*
X147818773Y-88835196D01*
X147794505Y-88838796D01*
X147770001Y-88840000D01*
X146869999Y-88840000D01*
X146845495Y-88838796D01*
X146821227Y-88835196D01*
X146797428Y-88829235D01*
X146774329Y-88820970D01*
X146752150Y-88810480D01*
X146731107Y-88797868D01*
X146711401Y-88783253D01*
X146693223Y-88766777D01*
X146676747Y-88748599D01*
X146662132Y-88728893D01*
X146649520Y-88707850D01*
X146639030Y-88685671D01*
X146630765Y-88662572D01*
X146624804Y-88638773D01*
X146621204Y-88614505D01*
X146620000Y-88590001D01*
X146620000Y-87939999D01*
X146621204Y-87915495D01*
X146624804Y-87891227D01*
X146630765Y-87867428D01*
X146639030Y-87844329D01*
X146649520Y-87822150D01*
X146662132Y-87801107D01*
X146676747Y-87781401D01*
X146693223Y-87763223D01*
X146711401Y-87746747D01*
X146731107Y-87732132D01*
X146752150Y-87719520D01*
X146774329Y-87709030D01*
X146797428Y-87700765D01*
X146821227Y-87694804D01*
X146845495Y-87691204D01*
X146869999Y-87690000D01*
X147770001Y-87690000D01*
X147794505Y-87691204D01*
G37*
G36*
X147794505Y-89741204D02*
G01*
X147818773Y-89744804D01*
X147842572Y-89750765D01*
X147865671Y-89759030D01*
X147887850Y-89769520D01*
X147908893Y-89782132D01*
X147928599Y-89796747D01*
X147946777Y-89813223D01*
X147963253Y-89831401D01*
X147977868Y-89851107D01*
X147990480Y-89872150D01*
X148000970Y-89894329D01*
X148009235Y-89917428D01*
X148015196Y-89941227D01*
X148018796Y-89965495D01*
X148020000Y-89989999D01*
X148020000Y-90640001D01*
X148018796Y-90664505D01*
X148015196Y-90688773D01*
X148009235Y-90712572D01*
X148000970Y-90735671D01*
X147990480Y-90757850D01*
X147977868Y-90778893D01*
X147963253Y-90798599D01*
X147946777Y-90816777D01*
X147928599Y-90833253D01*
X147908893Y-90847868D01*
X147887850Y-90860480D01*
X147865671Y-90870970D01*
X147842572Y-90879235D01*
X147818773Y-90885196D01*
X147794505Y-90888796D01*
X147770001Y-90890000D01*
X146869999Y-90890000D01*
X146845495Y-90888796D01*
X146821227Y-90885196D01*
X146797428Y-90879235D01*
X146774329Y-90870970D01*
X146752150Y-90860480D01*
X146731107Y-90847868D01*
X146711401Y-90833253D01*
X146693223Y-90816777D01*
X146676747Y-90798599D01*
X146662132Y-90778893D01*
X146649520Y-90757850D01*
X146639030Y-90735671D01*
X146630765Y-90712572D01*
X146624804Y-90688773D01*
X146621204Y-90664505D01*
X146620000Y-90640001D01*
X146620000Y-89989999D01*
X146621204Y-89965495D01*
X146624804Y-89941227D01*
X146630765Y-89917428D01*
X146639030Y-89894329D01*
X146649520Y-89872150D01*
X146662132Y-89851107D01*
X146676747Y-89831401D01*
X146693223Y-89813223D01*
X146711401Y-89796747D01*
X146731107Y-89782132D01*
X146752150Y-89769520D01*
X146774329Y-89759030D01*
X146797428Y-89750765D01*
X146821227Y-89744804D01*
X146845495Y-89741204D01*
X146869999Y-89740000D01*
X147770001Y-89740000D01*
X147794505Y-89741204D01*
G37*
G36*
X157693505Y-80581204D02*
G01*
X157717773Y-80584804D01*
X157741572Y-80590765D01*
X157764671Y-80599030D01*
X157786850Y-80609520D01*
X157807893Y-80622132D01*
X157827599Y-80636747D01*
X157845777Y-80653223D01*
X157862253Y-80671401D01*
X157876868Y-80691107D01*
X157889480Y-80712150D01*
X157899970Y-80734329D01*
X157908235Y-80757428D01*
X157914196Y-80781227D01*
X157917796Y-80805495D01*
X157919000Y-80829999D01*
X157919000Y-81730001D01*
X157917796Y-81754505D01*
X157914196Y-81778773D01*
X157908235Y-81802572D01*
X157899970Y-81825671D01*
X157889480Y-81847850D01*
X157876868Y-81868893D01*
X157862253Y-81888599D01*
X157845777Y-81906777D01*
X157827599Y-81923253D01*
X157807893Y-81937868D01*
X157786850Y-81950480D01*
X157764671Y-81960970D01*
X157741572Y-81969235D01*
X157717773Y-81975196D01*
X157693505Y-81978796D01*
X157669001Y-81980000D01*
X157018999Y-81980000D01*
X156994495Y-81978796D01*
X156970227Y-81975196D01*
X156946428Y-81969235D01*
X156923329Y-81960970D01*
X156901150Y-81950480D01*
X156880107Y-81937868D01*
X156860401Y-81923253D01*
X156842223Y-81906777D01*
X156825747Y-81888599D01*
X156811132Y-81868893D01*
X156798520Y-81847850D01*
X156788030Y-81825671D01*
X156779765Y-81802572D01*
X156773804Y-81778773D01*
X156770204Y-81754505D01*
X156769000Y-81730001D01*
X156769000Y-80829999D01*
X156770204Y-80805495D01*
X156773804Y-80781227D01*
X156779765Y-80757428D01*
X156788030Y-80734329D01*
X156798520Y-80712150D01*
X156811132Y-80691107D01*
X156825747Y-80671401D01*
X156842223Y-80653223D01*
X156860401Y-80636747D01*
X156880107Y-80622132D01*
X156901150Y-80609520D01*
X156923329Y-80599030D01*
X156946428Y-80590765D01*
X156970227Y-80584804D01*
X156994495Y-80581204D01*
X157018999Y-80580000D01*
X157669001Y-80580000D01*
X157693505Y-80581204D01*
G37*
G36*
X159743505Y-80581204D02*
G01*
X159767773Y-80584804D01*
X159791572Y-80590765D01*
X159814671Y-80599030D01*
X159836850Y-80609520D01*
X159857893Y-80622132D01*
X159877599Y-80636747D01*
X159895777Y-80653223D01*
X159912253Y-80671401D01*
X159926868Y-80691107D01*
X159939480Y-80712150D01*
X159949970Y-80734329D01*
X159958235Y-80757428D01*
X159964196Y-80781227D01*
X159967796Y-80805495D01*
X159969000Y-80829999D01*
X159969000Y-81730001D01*
X159967796Y-81754505D01*
X159964196Y-81778773D01*
X159958235Y-81802572D01*
X159949970Y-81825671D01*
X159939480Y-81847850D01*
X159926868Y-81868893D01*
X159912253Y-81888599D01*
X159895777Y-81906777D01*
X159877599Y-81923253D01*
X159857893Y-81937868D01*
X159836850Y-81950480D01*
X159814671Y-81960970D01*
X159791572Y-81969235D01*
X159767773Y-81975196D01*
X159743505Y-81978796D01*
X159719001Y-81980000D01*
X159068999Y-81980000D01*
X159044495Y-81978796D01*
X159020227Y-81975196D01*
X158996428Y-81969235D01*
X158973329Y-81960970D01*
X158951150Y-81950480D01*
X158930107Y-81937868D01*
X158910401Y-81923253D01*
X158892223Y-81906777D01*
X158875747Y-81888599D01*
X158861132Y-81868893D01*
X158848520Y-81847850D01*
X158838030Y-81825671D01*
X158829765Y-81802572D01*
X158823804Y-81778773D01*
X158820204Y-81754505D01*
X158819000Y-81730001D01*
X158819000Y-80829999D01*
X158820204Y-80805495D01*
X158823804Y-80781227D01*
X158829765Y-80757428D01*
X158838030Y-80734329D01*
X158848520Y-80712150D01*
X158861132Y-80691107D01*
X158875747Y-80671401D01*
X158892223Y-80653223D01*
X158910401Y-80636747D01*
X158930107Y-80622132D01*
X158951150Y-80609520D01*
X158973329Y-80599030D01*
X158996428Y-80590765D01*
X159020227Y-80584804D01*
X159044495Y-80581204D01*
X159068999Y-80580000D01*
X159719001Y-80580000D01*
X159743505Y-80581204D01*
G37*
G36*
X152239505Y-103076204D02*
G01*
X152263773Y-103079804D01*
X152287572Y-103085765D01*
X152310671Y-103094030D01*
X152332850Y-103104520D01*
X152353893Y-103117132D01*
X152373599Y-103131747D01*
X152391777Y-103148223D01*
X152408253Y-103166401D01*
X152422868Y-103186107D01*
X152435480Y-103207150D01*
X152445970Y-103229329D01*
X152454235Y-103252428D01*
X152460196Y-103276227D01*
X152463796Y-103300495D01*
X152465000Y-103324999D01*
X152465000Y-103975001D01*
X152463796Y-103999505D01*
X152460196Y-104023773D01*
X152454235Y-104047572D01*
X152445970Y-104070671D01*
X152435480Y-104092850D01*
X152422868Y-104113893D01*
X152408253Y-104133599D01*
X152391777Y-104151777D01*
X152373599Y-104168253D01*
X152353893Y-104182868D01*
X152332850Y-104195480D01*
X152310671Y-104205970D01*
X152287572Y-104214235D01*
X152263773Y-104220196D01*
X152239505Y-104223796D01*
X152215001Y-104225000D01*
X151314999Y-104225000D01*
X151290495Y-104223796D01*
X151266227Y-104220196D01*
X151242428Y-104214235D01*
X151219329Y-104205970D01*
X151197150Y-104195480D01*
X151176107Y-104182868D01*
X151156401Y-104168253D01*
X151138223Y-104151777D01*
X151121747Y-104133599D01*
X151107132Y-104113893D01*
X151094520Y-104092850D01*
X151084030Y-104070671D01*
X151075765Y-104047572D01*
X151069804Y-104023773D01*
X151066204Y-103999505D01*
X151065000Y-103975001D01*
X151065000Y-103324999D01*
X151066204Y-103300495D01*
X151069804Y-103276227D01*
X151075765Y-103252428D01*
X151084030Y-103229329D01*
X151094520Y-103207150D01*
X151107132Y-103186107D01*
X151121747Y-103166401D01*
X151138223Y-103148223D01*
X151156401Y-103131747D01*
X151176107Y-103117132D01*
X151197150Y-103104520D01*
X151219329Y-103094030D01*
X151242428Y-103085765D01*
X151266227Y-103079804D01*
X151290495Y-103076204D01*
X151314999Y-103075000D01*
X152215001Y-103075000D01*
X152239505Y-103076204D01*
G37*
G36*
X152239505Y-101026204D02*
G01*
X152263773Y-101029804D01*
X152287572Y-101035765D01*
X152310671Y-101044030D01*
X152332850Y-101054520D01*
X152353893Y-101067132D01*
X152373599Y-101081747D01*
X152391777Y-101098223D01*
X152408253Y-101116401D01*
X152422868Y-101136107D01*
X152435480Y-101157150D01*
X152445970Y-101179329D01*
X152454235Y-101202428D01*
X152460196Y-101226227D01*
X152463796Y-101250495D01*
X152465000Y-101274999D01*
X152465000Y-101925001D01*
X152463796Y-101949505D01*
X152460196Y-101973773D01*
X152454235Y-101997572D01*
X152445970Y-102020671D01*
X152435480Y-102042850D01*
X152422868Y-102063893D01*
X152408253Y-102083599D01*
X152391777Y-102101777D01*
X152373599Y-102118253D01*
X152353893Y-102132868D01*
X152332850Y-102145480D01*
X152310671Y-102155970D01*
X152287572Y-102164235D01*
X152263773Y-102170196D01*
X152239505Y-102173796D01*
X152215001Y-102175000D01*
X151314999Y-102175000D01*
X151290495Y-102173796D01*
X151266227Y-102170196D01*
X151242428Y-102164235D01*
X151219329Y-102155970D01*
X151197150Y-102145480D01*
X151176107Y-102132868D01*
X151156401Y-102118253D01*
X151138223Y-102101777D01*
X151121747Y-102083599D01*
X151107132Y-102063893D01*
X151094520Y-102042850D01*
X151084030Y-102020671D01*
X151075765Y-101997572D01*
X151069804Y-101973773D01*
X151066204Y-101949505D01*
X151065000Y-101925001D01*
X151065000Y-101274999D01*
X151066204Y-101250495D01*
X151069804Y-101226227D01*
X151075765Y-101202428D01*
X151084030Y-101179329D01*
X151094520Y-101157150D01*
X151107132Y-101136107D01*
X151121747Y-101116401D01*
X151138223Y-101098223D01*
X151156401Y-101081747D01*
X151176107Y-101067132D01*
X151197150Y-101054520D01*
X151219329Y-101044030D01*
X151242428Y-101035765D01*
X151266227Y-101029804D01*
X151290495Y-101026204D01*
X151314999Y-101025000D01*
X152215001Y-101025000D01*
X152239505Y-101026204D01*
G37*
G36*
X142479703Y-78440722D02*
G01*
X142494264Y-78442882D01*
X142508543Y-78446459D01*
X142522403Y-78451418D01*
X142535710Y-78457712D01*
X142548336Y-78465280D01*
X142560159Y-78474048D01*
X142571066Y-78483934D01*
X142580952Y-78494841D01*
X142589720Y-78506664D01*
X142597288Y-78519290D01*
X142603582Y-78532597D01*
X142608541Y-78546457D01*
X142612118Y-78560736D01*
X142614278Y-78575297D01*
X142615000Y-78590000D01*
X142615000Y-78890000D01*
X142614278Y-78904703D01*
X142612118Y-78919264D01*
X142608541Y-78933543D01*
X142603582Y-78947403D01*
X142597288Y-78960710D01*
X142589720Y-78973336D01*
X142580952Y-78985159D01*
X142571066Y-78996066D01*
X142560159Y-79005952D01*
X142548336Y-79014720D01*
X142535710Y-79022288D01*
X142522403Y-79028582D01*
X142508543Y-79033541D01*
X142494264Y-79037118D01*
X142479703Y-79039278D01*
X142465000Y-79040000D01*
X141165000Y-79040000D01*
X141150297Y-79039278D01*
X141135736Y-79037118D01*
X141121457Y-79033541D01*
X141107597Y-79028582D01*
X141094290Y-79022288D01*
X141081664Y-79014720D01*
X141069841Y-79005952D01*
X141058934Y-78996066D01*
X141049048Y-78985159D01*
X141040280Y-78973336D01*
X141032712Y-78960710D01*
X141026418Y-78947403D01*
X141021459Y-78933543D01*
X141017882Y-78919264D01*
X141015722Y-78904703D01*
X141015000Y-78890000D01*
X141015000Y-78590000D01*
X141015722Y-78575297D01*
X141017882Y-78560736D01*
X141021459Y-78546457D01*
X141026418Y-78532597D01*
X141032712Y-78519290D01*
X141040280Y-78506664D01*
X141049048Y-78494841D01*
X141058934Y-78483934D01*
X141069841Y-78474048D01*
X141081664Y-78465280D01*
X141094290Y-78457712D01*
X141107597Y-78451418D01*
X141121457Y-78446459D01*
X141135736Y-78442882D01*
X141150297Y-78440722D01*
X141165000Y-78440000D01*
X142465000Y-78440000D01*
X142479703Y-78440722D01*
G37*
G36*
X142479703Y-79710722D02*
G01*
X142494264Y-79712882D01*
X142508543Y-79716459D01*
X142522403Y-79721418D01*
X142535710Y-79727712D01*
X142548336Y-79735280D01*
X142560159Y-79744048D01*
X142571066Y-79753934D01*
X142580952Y-79764841D01*
X142589720Y-79776664D01*
X142597288Y-79789290D01*
X142603582Y-79802597D01*
X142608541Y-79816457D01*
X142612118Y-79830736D01*
X142614278Y-79845297D01*
X142615000Y-79860000D01*
X142615000Y-80160000D01*
X142614278Y-80174703D01*
X142612118Y-80189264D01*
X142608541Y-80203543D01*
X142603582Y-80217403D01*
X142597288Y-80230710D01*
X142589720Y-80243336D01*
X142580952Y-80255159D01*
X142571066Y-80266066D01*
X142560159Y-80275952D01*
X142548336Y-80284720D01*
X142535710Y-80292288D01*
X142522403Y-80298582D01*
X142508543Y-80303541D01*
X142494264Y-80307118D01*
X142479703Y-80309278D01*
X142465000Y-80310000D01*
X141165000Y-80310000D01*
X141150297Y-80309278D01*
X141135736Y-80307118D01*
X141121457Y-80303541D01*
X141107597Y-80298582D01*
X141094290Y-80292288D01*
X141081664Y-80284720D01*
X141069841Y-80275952D01*
X141058934Y-80266066D01*
X141049048Y-80255159D01*
X141040280Y-80243336D01*
X141032712Y-80230710D01*
X141026418Y-80217403D01*
X141021459Y-80203543D01*
X141017882Y-80189264D01*
X141015722Y-80174703D01*
X141015000Y-80160000D01*
X141015000Y-79860000D01*
X141015722Y-79845297D01*
X141017882Y-79830736D01*
X141021459Y-79816457D01*
X141026418Y-79802597D01*
X141032712Y-79789290D01*
X141040280Y-79776664D01*
X141049048Y-79764841D01*
X141058934Y-79753934D01*
X141069841Y-79744048D01*
X141081664Y-79735280D01*
X141094290Y-79727712D01*
X141107597Y-79721418D01*
X141121457Y-79716459D01*
X141135736Y-79712882D01*
X141150297Y-79710722D01*
X141165000Y-79710000D01*
X142465000Y-79710000D01*
X142479703Y-79710722D01*
G37*
G36*
X142479703Y-80980722D02*
G01*
X142494264Y-80982882D01*
X142508543Y-80986459D01*
X142522403Y-80991418D01*
X142535710Y-80997712D01*
X142548336Y-81005280D01*
X142560159Y-81014048D01*
X142571066Y-81023934D01*
X142580952Y-81034841D01*
X142589720Y-81046664D01*
X142597288Y-81059290D01*
X142603582Y-81072597D01*
X142608541Y-81086457D01*
X142612118Y-81100736D01*
X142614278Y-81115297D01*
X142615000Y-81130000D01*
X142615000Y-81430000D01*
X142614278Y-81444703D01*
X142612118Y-81459264D01*
X142608541Y-81473543D01*
X142603582Y-81487403D01*
X142597288Y-81500710D01*
X142589720Y-81513336D01*
X142580952Y-81525159D01*
X142571066Y-81536066D01*
X142560159Y-81545952D01*
X142548336Y-81554720D01*
X142535710Y-81562288D01*
X142522403Y-81568582D01*
X142508543Y-81573541D01*
X142494264Y-81577118D01*
X142479703Y-81579278D01*
X142465000Y-81580000D01*
X141165000Y-81580000D01*
X141150297Y-81579278D01*
X141135736Y-81577118D01*
X141121457Y-81573541D01*
X141107597Y-81568582D01*
X141094290Y-81562288D01*
X141081664Y-81554720D01*
X141069841Y-81545952D01*
X141058934Y-81536066D01*
X141049048Y-81525159D01*
X141040280Y-81513336D01*
X141032712Y-81500710D01*
X141026418Y-81487403D01*
X141021459Y-81473543D01*
X141017882Y-81459264D01*
X141015722Y-81444703D01*
X141015000Y-81430000D01*
X141015000Y-81130000D01*
X141015722Y-81115297D01*
X141017882Y-81100736D01*
X141021459Y-81086457D01*
X141026418Y-81072597D01*
X141032712Y-81059290D01*
X141040280Y-81046664D01*
X141049048Y-81034841D01*
X141058934Y-81023934D01*
X141069841Y-81014048D01*
X141081664Y-81005280D01*
X141094290Y-80997712D01*
X141107597Y-80991418D01*
X141121457Y-80986459D01*
X141135736Y-80982882D01*
X141150297Y-80980722D01*
X141165000Y-80980000D01*
X142465000Y-80980000D01*
X142479703Y-80980722D01*
G37*
G36*
X142479703Y-82250722D02*
G01*
X142494264Y-82252882D01*
X142508543Y-82256459D01*
X142522403Y-82261418D01*
X142535710Y-82267712D01*
X142548336Y-82275280D01*
X142560159Y-82284048D01*
X142571066Y-82293934D01*
X142580952Y-82304841D01*
X142589720Y-82316664D01*
X142597288Y-82329290D01*
X142603582Y-82342597D01*
X142608541Y-82356457D01*
X142612118Y-82370736D01*
X142614278Y-82385297D01*
X142615000Y-82400000D01*
X142615000Y-82700000D01*
X142614278Y-82714703D01*
X142612118Y-82729264D01*
X142608541Y-82743543D01*
X142603582Y-82757403D01*
X142597288Y-82770710D01*
X142589720Y-82783336D01*
X142580952Y-82795159D01*
X142571066Y-82806066D01*
X142560159Y-82815952D01*
X142548336Y-82824720D01*
X142535710Y-82832288D01*
X142522403Y-82838582D01*
X142508543Y-82843541D01*
X142494264Y-82847118D01*
X142479703Y-82849278D01*
X142465000Y-82850000D01*
X141165000Y-82850000D01*
X141150297Y-82849278D01*
X141135736Y-82847118D01*
X141121457Y-82843541D01*
X141107597Y-82838582D01*
X141094290Y-82832288D01*
X141081664Y-82824720D01*
X141069841Y-82815952D01*
X141058934Y-82806066D01*
X141049048Y-82795159D01*
X141040280Y-82783336D01*
X141032712Y-82770710D01*
X141026418Y-82757403D01*
X141021459Y-82743543D01*
X141017882Y-82729264D01*
X141015722Y-82714703D01*
X141015000Y-82700000D01*
X141015000Y-82400000D01*
X141015722Y-82385297D01*
X141017882Y-82370736D01*
X141021459Y-82356457D01*
X141026418Y-82342597D01*
X141032712Y-82329290D01*
X141040280Y-82316664D01*
X141049048Y-82304841D01*
X141058934Y-82293934D01*
X141069841Y-82284048D01*
X141081664Y-82275280D01*
X141094290Y-82267712D01*
X141107597Y-82261418D01*
X141121457Y-82256459D01*
X141135736Y-82252882D01*
X141150297Y-82250722D01*
X141165000Y-82250000D01*
X142465000Y-82250000D01*
X142479703Y-82250722D01*
G37*
G36*
X149679703Y-82250722D02*
G01*
X149694264Y-82252882D01*
X149708543Y-82256459D01*
X149722403Y-82261418D01*
X149735710Y-82267712D01*
X149748336Y-82275280D01*
X149760159Y-82284048D01*
X149771066Y-82293934D01*
X149780952Y-82304841D01*
X149789720Y-82316664D01*
X149797288Y-82329290D01*
X149803582Y-82342597D01*
X149808541Y-82356457D01*
X149812118Y-82370736D01*
X149814278Y-82385297D01*
X149815000Y-82400000D01*
X149815000Y-82700000D01*
X149814278Y-82714703D01*
X149812118Y-82729264D01*
X149808541Y-82743543D01*
X149803582Y-82757403D01*
X149797288Y-82770710D01*
X149789720Y-82783336D01*
X149780952Y-82795159D01*
X149771066Y-82806066D01*
X149760159Y-82815952D01*
X149748336Y-82824720D01*
X149735710Y-82832288D01*
X149722403Y-82838582D01*
X149708543Y-82843541D01*
X149694264Y-82847118D01*
X149679703Y-82849278D01*
X149665000Y-82850000D01*
X148365000Y-82850000D01*
X148350297Y-82849278D01*
X148335736Y-82847118D01*
X148321457Y-82843541D01*
X148307597Y-82838582D01*
X148294290Y-82832288D01*
X148281664Y-82824720D01*
X148269841Y-82815952D01*
X148258934Y-82806066D01*
X148249048Y-82795159D01*
X148240280Y-82783336D01*
X148232712Y-82770710D01*
X148226418Y-82757403D01*
X148221459Y-82743543D01*
X148217882Y-82729264D01*
X148215722Y-82714703D01*
X148215000Y-82700000D01*
X148215000Y-82400000D01*
X148215722Y-82385297D01*
X148217882Y-82370736D01*
X148221459Y-82356457D01*
X148226418Y-82342597D01*
X148232712Y-82329290D01*
X148240280Y-82316664D01*
X148249048Y-82304841D01*
X148258934Y-82293934D01*
X148269841Y-82284048D01*
X148281664Y-82275280D01*
X148294290Y-82267712D01*
X148307597Y-82261418D01*
X148321457Y-82256459D01*
X148335736Y-82252882D01*
X148350297Y-82250722D01*
X148365000Y-82250000D01*
X149665000Y-82250000D01*
X149679703Y-82250722D01*
G37*
G36*
X149679703Y-80980722D02*
G01*
X149694264Y-80982882D01*
X149708543Y-80986459D01*
X149722403Y-80991418D01*
X149735710Y-80997712D01*
X149748336Y-81005280D01*
X149760159Y-81014048D01*
X149771066Y-81023934D01*
X149780952Y-81034841D01*
X149789720Y-81046664D01*
X149797288Y-81059290D01*
X149803582Y-81072597D01*
X149808541Y-81086457D01*
X149812118Y-81100736D01*
X149814278Y-81115297D01*
X149815000Y-81130000D01*
X149815000Y-81430000D01*
X149814278Y-81444703D01*
X149812118Y-81459264D01*
X149808541Y-81473543D01*
X149803582Y-81487403D01*
X149797288Y-81500710D01*
X149789720Y-81513336D01*
X149780952Y-81525159D01*
X149771066Y-81536066D01*
X149760159Y-81545952D01*
X149748336Y-81554720D01*
X149735710Y-81562288D01*
X149722403Y-81568582D01*
X149708543Y-81573541D01*
X149694264Y-81577118D01*
X149679703Y-81579278D01*
X149665000Y-81580000D01*
X148365000Y-81580000D01*
X148350297Y-81579278D01*
X148335736Y-81577118D01*
X148321457Y-81573541D01*
X148307597Y-81568582D01*
X148294290Y-81562288D01*
X148281664Y-81554720D01*
X148269841Y-81545952D01*
X148258934Y-81536066D01*
X148249048Y-81525159D01*
X148240280Y-81513336D01*
X148232712Y-81500710D01*
X148226418Y-81487403D01*
X148221459Y-81473543D01*
X148217882Y-81459264D01*
X148215722Y-81444703D01*
X148215000Y-81430000D01*
X148215000Y-81130000D01*
X148215722Y-81115297D01*
X148217882Y-81100736D01*
X148221459Y-81086457D01*
X148226418Y-81072597D01*
X148232712Y-81059290D01*
X148240280Y-81046664D01*
X148249048Y-81034841D01*
X148258934Y-81023934D01*
X148269841Y-81014048D01*
X148281664Y-81005280D01*
X148294290Y-80997712D01*
X148307597Y-80991418D01*
X148321457Y-80986459D01*
X148335736Y-80982882D01*
X148350297Y-80980722D01*
X148365000Y-80980000D01*
X149665000Y-80980000D01*
X149679703Y-80980722D01*
G37*
G36*
X149679703Y-79710722D02*
G01*
X149694264Y-79712882D01*
X149708543Y-79716459D01*
X149722403Y-79721418D01*
X149735710Y-79727712D01*
X149748336Y-79735280D01*
X149760159Y-79744048D01*
X149771066Y-79753934D01*
X149780952Y-79764841D01*
X149789720Y-79776664D01*
X149797288Y-79789290D01*
X149803582Y-79802597D01*
X149808541Y-79816457D01*
X149812118Y-79830736D01*
X149814278Y-79845297D01*
X149815000Y-79860000D01*
X149815000Y-80160000D01*
X149814278Y-80174703D01*
X149812118Y-80189264D01*
X149808541Y-80203543D01*
X149803582Y-80217403D01*
X149797288Y-80230710D01*
X149789720Y-80243336D01*
X149780952Y-80255159D01*
X149771066Y-80266066D01*
X149760159Y-80275952D01*
X149748336Y-80284720D01*
X149735710Y-80292288D01*
X149722403Y-80298582D01*
X149708543Y-80303541D01*
X149694264Y-80307118D01*
X149679703Y-80309278D01*
X149665000Y-80310000D01*
X148365000Y-80310000D01*
X148350297Y-80309278D01*
X148335736Y-80307118D01*
X148321457Y-80303541D01*
X148307597Y-80298582D01*
X148294290Y-80292288D01*
X148281664Y-80284720D01*
X148269841Y-80275952D01*
X148258934Y-80266066D01*
X148249048Y-80255159D01*
X148240280Y-80243336D01*
X148232712Y-80230710D01*
X148226418Y-80217403D01*
X148221459Y-80203543D01*
X148217882Y-80189264D01*
X148215722Y-80174703D01*
X148215000Y-80160000D01*
X148215000Y-79860000D01*
X148215722Y-79845297D01*
X148217882Y-79830736D01*
X148221459Y-79816457D01*
X148226418Y-79802597D01*
X148232712Y-79789290D01*
X148240280Y-79776664D01*
X148249048Y-79764841D01*
X148258934Y-79753934D01*
X148269841Y-79744048D01*
X148281664Y-79735280D01*
X148294290Y-79727712D01*
X148307597Y-79721418D01*
X148321457Y-79716459D01*
X148335736Y-79712882D01*
X148350297Y-79710722D01*
X148365000Y-79710000D01*
X149665000Y-79710000D01*
X149679703Y-79710722D01*
G37*
G36*
X149679703Y-78440722D02*
G01*
X149694264Y-78442882D01*
X149708543Y-78446459D01*
X149722403Y-78451418D01*
X149735710Y-78457712D01*
X149748336Y-78465280D01*
X149760159Y-78474048D01*
X149771066Y-78483934D01*
X149780952Y-78494841D01*
X149789720Y-78506664D01*
X149797288Y-78519290D01*
X149803582Y-78532597D01*
X149808541Y-78546457D01*
X149812118Y-78560736D01*
X149814278Y-78575297D01*
X149815000Y-78590000D01*
X149815000Y-78890000D01*
X149814278Y-78904703D01*
X149812118Y-78919264D01*
X149808541Y-78933543D01*
X149803582Y-78947403D01*
X149797288Y-78960710D01*
X149789720Y-78973336D01*
X149780952Y-78985159D01*
X149771066Y-78996066D01*
X149760159Y-79005952D01*
X149748336Y-79014720D01*
X149735710Y-79022288D01*
X149722403Y-79028582D01*
X149708543Y-79033541D01*
X149694264Y-79037118D01*
X149679703Y-79039278D01*
X149665000Y-79040000D01*
X148365000Y-79040000D01*
X148350297Y-79039278D01*
X148335736Y-79037118D01*
X148321457Y-79033541D01*
X148307597Y-79028582D01*
X148294290Y-79022288D01*
X148281664Y-79014720D01*
X148269841Y-79005952D01*
X148258934Y-78996066D01*
X148249048Y-78985159D01*
X148240280Y-78973336D01*
X148232712Y-78960710D01*
X148226418Y-78947403D01*
X148221459Y-78933543D01*
X148217882Y-78919264D01*
X148215722Y-78904703D01*
X148215000Y-78890000D01*
X148215000Y-78590000D01*
X148215722Y-78575297D01*
X148217882Y-78560736D01*
X148221459Y-78546457D01*
X148226418Y-78532597D01*
X148232712Y-78519290D01*
X148240280Y-78506664D01*
X148249048Y-78494841D01*
X148258934Y-78483934D01*
X148269841Y-78474048D01*
X148281664Y-78465280D01*
X148294290Y-78457712D01*
X148307597Y-78451418D01*
X148321457Y-78446459D01*
X148335736Y-78442882D01*
X148350297Y-78440722D01*
X148365000Y-78440000D01*
X149665000Y-78440000D01*
X149679703Y-78440722D01*
G37*
D11*
X167199000Y-79614000D03*
X167199000Y-80914000D03*
X169859000Y-80264000D03*
D10*
G36*
X146187252Y-98248102D02*
G01*
X146199386Y-98249902D01*
X146211286Y-98252882D01*
X146222835Y-98257015D01*
X146233925Y-98262260D01*
X146244446Y-98268566D01*
X146254299Y-98275874D01*
X146263388Y-98284112D01*
X146271626Y-98293201D01*
X146278934Y-98303054D01*
X146285240Y-98313575D01*
X146290485Y-98324665D01*
X146294618Y-98336214D01*
X146297598Y-98348114D01*
X146299398Y-98360248D01*
X146300000Y-98372500D01*
X146300000Y-99747500D01*
X146299398Y-99759752D01*
X146297598Y-99771886D01*
X146294618Y-99783786D01*
X146290485Y-99795335D01*
X146285240Y-99806425D01*
X146278934Y-99816946D01*
X146271626Y-99826799D01*
X146263388Y-99835888D01*
X146254299Y-99844126D01*
X146244446Y-99851434D01*
X146233925Y-99857740D01*
X146222835Y-99862985D01*
X146211286Y-99867118D01*
X146199386Y-99870098D01*
X146187252Y-99871898D01*
X146175000Y-99872500D01*
X145925000Y-99872500D01*
X145912748Y-99871898D01*
X145900614Y-99870098D01*
X145888714Y-99867118D01*
X145877165Y-99862985D01*
X145866075Y-99857740D01*
X145855554Y-99851434D01*
X145845701Y-99844126D01*
X145836612Y-99835888D01*
X145828374Y-99826799D01*
X145821066Y-99816946D01*
X145814760Y-99806425D01*
X145809515Y-99795335D01*
X145805382Y-99783786D01*
X145802402Y-99771886D01*
X145800602Y-99759752D01*
X145800000Y-99747500D01*
X145800000Y-98372500D01*
X145800602Y-98360248D01*
X145802402Y-98348114D01*
X145805382Y-98336214D01*
X145809515Y-98324665D01*
X145814760Y-98313575D01*
X145821066Y-98303054D01*
X145828374Y-98293201D01*
X145836612Y-98284112D01*
X145845701Y-98275874D01*
X145855554Y-98268566D01*
X145866075Y-98262260D01*
X145877165Y-98257015D01*
X145888714Y-98252882D01*
X145900614Y-98249902D01*
X145912748Y-98248102D01*
X145925000Y-98247500D01*
X146175000Y-98247500D01*
X146187252Y-98248102D01*
G37*
G36*
X145537252Y-98248102D02*
G01*
X145549386Y-98249902D01*
X145561286Y-98252882D01*
X145572835Y-98257015D01*
X145583925Y-98262260D01*
X145594446Y-98268566D01*
X145604299Y-98275874D01*
X145613388Y-98284112D01*
X145621626Y-98293201D01*
X145628934Y-98303054D01*
X145635240Y-98313575D01*
X145640485Y-98324665D01*
X145644618Y-98336214D01*
X145647598Y-98348114D01*
X145649398Y-98360248D01*
X145650000Y-98372500D01*
X145650000Y-99747500D01*
X145649398Y-99759752D01*
X145647598Y-99771886D01*
X145644618Y-99783786D01*
X145640485Y-99795335D01*
X145635240Y-99806425D01*
X145628934Y-99816946D01*
X145621626Y-99826799D01*
X145613388Y-99835888D01*
X145604299Y-99844126D01*
X145594446Y-99851434D01*
X145583925Y-99857740D01*
X145572835Y-99862985D01*
X145561286Y-99867118D01*
X145549386Y-99870098D01*
X145537252Y-99871898D01*
X145525000Y-99872500D01*
X145275000Y-99872500D01*
X145262748Y-99871898D01*
X145250614Y-99870098D01*
X145238714Y-99867118D01*
X145227165Y-99862985D01*
X145216075Y-99857740D01*
X145205554Y-99851434D01*
X145195701Y-99844126D01*
X145186612Y-99835888D01*
X145178374Y-99826799D01*
X145171066Y-99816946D01*
X145164760Y-99806425D01*
X145159515Y-99795335D01*
X145155382Y-99783786D01*
X145152402Y-99771886D01*
X145150602Y-99759752D01*
X145150000Y-99747500D01*
X145150000Y-98372500D01*
X145150602Y-98360248D01*
X145152402Y-98348114D01*
X145155382Y-98336214D01*
X145159515Y-98324665D01*
X145164760Y-98313575D01*
X145171066Y-98303054D01*
X145178374Y-98293201D01*
X145186612Y-98284112D01*
X145195701Y-98275874D01*
X145205554Y-98268566D01*
X145216075Y-98262260D01*
X145227165Y-98257015D01*
X145238714Y-98252882D01*
X145250614Y-98249902D01*
X145262748Y-98248102D01*
X145275000Y-98247500D01*
X145525000Y-98247500D01*
X145537252Y-98248102D01*
G37*
G36*
X144887252Y-98248102D02*
G01*
X144899386Y-98249902D01*
X144911286Y-98252882D01*
X144922835Y-98257015D01*
X144933925Y-98262260D01*
X144944446Y-98268566D01*
X144954299Y-98275874D01*
X144963388Y-98284112D01*
X144971626Y-98293201D01*
X144978934Y-98303054D01*
X144985240Y-98313575D01*
X144990485Y-98324665D01*
X144994618Y-98336214D01*
X144997598Y-98348114D01*
X144999398Y-98360248D01*
X145000000Y-98372500D01*
X145000000Y-99747500D01*
X144999398Y-99759752D01*
X144997598Y-99771886D01*
X144994618Y-99783786D01*
X144990485Y-99795335D01*
X144985240Y-99806425D01*
X144978934Y-99816946D01*
X144971626Y-99826799D01*
X144963388Y-99835888D01*
X144954299Y-99844126D01*
X144944446Y-99851434D01*
X144933925Y-99857740D01*
X144922835Y-99862985D01*
X144911286Y-99867118D01*
X144899386Y-99870098D01*
X144887252Y-99871898D01*
X144875000Y-99872500D01*
X144625000Y-99872500D01*
X144612748Y-99871898D01*
X144600614Y-99870098D01*
X144588714Y-99867118D01*
X144577165Y-99862985D01*
X144566075Y-99857740D01*
X144555554Y-99851434D01*
X144545701Y-99844126D01*
X144536612Y-99835888D01*
X144528374Y-99826799D01*
X144521066Y-99816946D01*
X144514760Y-99806425D01*
X144509515Y-99795335D01*
X144505382Y-99783786D01*
X144502402Y-99771886D01*
X144500602Y-99759752D01*
X144500000Y-99747500D01*
X144500000Y-98372500D01*
X144500602Y-98360248D01*
X144502402Y-98348114D01*
X144505382Y-98336214D01*
X144509515Y-98324665D01*
X144514760Y-98313575D01*
X144521066Y-98303054D01*
X144528374Y-98293201D01*
X144536612Y-98284112D01*
X144545701Y-98275874D01*
X144555554Y-98268566D01*
X144566075Y-98262260D01*
X144577165Y-98257015D01*
X144588714Y-98252882D01*
X144600614Y-98249902D01*
X144612748Y-98248102D01*
X144625000Y-98247500D01*
X144875000Y-98247500D01*
X144887252Y-98248102D01*
G37*
G36*
X144237252Y-98248102D02*
G01*
X144249386Y-98249902D01*
X144261286Y-98252882D01*
X144272835Y-98257015D01*
X144283925Y-98262260D01*
X144294446Y-98268566D01*
X144304299Y-98275874D01*
X144313388Y-98284112D01*
X144321626Y-98293201D01*
X144328934Y-98303054D01*
X144335240Y-98313575D01*
X144340485Y-98324665D01*
X144344618Y-98336214D01*
X144347598Y-98348114D01*
X144349398Y-98360248D01*
X144350000Y-98372500D01*
X144350000Y-99747500D01*
X144349398Y-99759752D01*
X144347598Y-99771886D01*
X144344618Y-99783786D01*
X144340485Y-99795335D01*
X144335240Y-99806425D01*
X144328934Y-99816946D01*
X144321626Y-99826799D01*
X144313388Y-99835888D01*
X144304299Y-99844126D01*
X144294446Y-99851434D01*
X144283925Y-99857740D01*
X144272835Y-99862985D01*
X144261286Y-99867118D01*
X144249386Y-99870098D01*
X144237252Y-99871898D01*
X144225000Y-99872500D01*
X143975000Y-99872500D01*
X143962748Y-99871898D01*
X143950614Y-99870098D01*
X143938714Y-99867118D01*
X143927165Y-99862985D01*
X143916075Y-99857740D01*
X143905554Y-99851434D01*
X143895701Y-99844126D01*
X143886612Y-99835888D01*
X143878374Y-99826799D01*
X143871066Y-99816946D01*
X143864760Y-99806425D01*
X143859515Y-99795335D01*
X143855382Y-99783786D01*
X143852402Y-99771886D01*
X143850602Y-99759752D01*
X143850000Y-99747500D01*
X143850000Y-98372500D01*
X143850602Y-98360248D01*
X143852402Y-98348114D01*
X143855382Y-98336214D01*
X143859515Y-98324665D01*
X143864760Y-98313575D01*
X143871066Y-98303054D01*
X143878374Y-98293201D01*
X143886612Y-98284112D01*
X143895701Y-98275874D01*
X143905554Y-98268566D01*
X143916075Y-98262260D01*
X143927165Y-98257015D01*
X143938714Y-98252882D01*
X143950614Y-98249902D01*
X143962748Y-98248102D01*
X143975000Y-98247500D01*
X144225000Y-98247500D01*
X144237252Y-98248102D01*
G37*
G36*
X144237252Y-102473102D02*
G01*
X144249386Y-102474902D01*
X144261286Y-102477882D01*
X144272835Y-102482015D01*
X144283925Y-102487260D01*
X144294446Y-102493566D01*
X144304299Y-102500874D01*
X144313388Y-102509112D01*
X144321626Y-102518201D01*
X144328934Y-102528054D01*
X144335240Y-102538575D01*
X144340485Y-102549665D01*
X144344618Y-102561214D01*
X144347598Y-102573114D01*
X144349398Y-102585248D01*
X144350000Y-102597500D01*
X144350000Y-103972500D01*
X144349398Y-103984752D01*
X144347598Y-103996886D01*
X144344618Y-104008786D01*
X144340485Y-104020335D01*
X144335240Y-104031425D01*
X144328934Y-104041946D01*
X144321626Y-104051799D01*
X144313388Y-104060888D01*
X144304299Y-104069126D01*
X144294446Y-104076434D01*
X144283925Y-104082740D01*
X144272835Y-104087985D01*
X144261286Y-104092118D01*
X144249386Y-104095098D01*
X144237252Y-104096898D01*
X144225000Y-104097500D01*
X143975000Y-104097500D01*
X143962748Y-104096898D01*
X143950614Y-104095098D01*
X143938714Y-104092118D01*
X143927165Y-104087985D01*
X143916075Y-104082740D01*
X143905554Y-104076434D01*
X143895701Y-104069126D01*
X143886612Y-104060888D01*
X143878374Y-104051799D01*
X143871066Y-104041946D01*
X143864760Y-104031425D01*
X143859515Y-104020335D01*
X143855382Y-104008786D01*
X143852402Y-103996886D01*
X143850602Y-103984752D01*
X143850000Y-103972500D01*
X143850000Y-102597500D01*
X143850602Y-102585248D01*
X143852402Y-102573114D01*
X143855382Y-102561214D01*
X143859515Y-102549665D01*
X143864760Y-102538575D01*
X143871066Y-102528054D01*
X143878374Y-102518201D01*
X143886612Y-102509112D01*
X143895701Y-102500874D01*
X143905554Y-102493566D01*
X143916075Y-102487260D01*
X143927165Y-102482015D01*
X143938714Y-102477882D01*
X143950614Y-102474902D01*
X143962748Y-102473102D01*
X143975000Y-102472500D01*
X144225000Y-102472500D01*
X144237252Y-102473102D01*
G37*
G36*
X144887252Y-102473102D02*
G01*
X144899386Y-102474902D01*
X144911286Y-102477882D01*
X144922835Y-102482015D01*
X144933925Y-102487260D01*
X144944446Y-102493566D01*
X144954299Y-102500874D01*
X144963388Y-102509112D01*
X144971626Y-102518201D01*
X144978934Y-102528054D01*
X144985240Y-102538575D01*
X144990485Y-102549665D01*
X144994618Y-102561214D01*
X144997598Y-102573114D01*
X144999398Y-102585248D01*
X145000000Y-102597500D01*
X145000000Y-103972500D01*
X144999398Y-103984752D01*
X144997598Y-103996886D01*
X144994618Y-104008786D01*
X144990485Y-104020335D01*
X144985240Y-104031425D01*
X144978934Y-104041946D01*
X144971626Y-104051799D01*
X144963388Y-104060888D01*
X144954299Y-104069126D01*
X144944446Y-104076434D01*
X144933925Y-104082740D01*
X144922835Y-104087985D01*
X144911286Y-104092118D01*
X144899386Y-104095098D01*
X144887252Y-104096898D01*
X144875000Y-104097500D01*
X144625000Y-104097500D01*
X144612748Y-104096898D01*
X144600614Y-104095098D01*
X144588714Y-104092118D01*
X144577165Y-104087985D01*
X144566075Y-104082740D01*
X144555554Y-104076434D01*
X144545701Y-104069126D01*
X144536612Y-104060888D01*
X144528374Y-104051799D01*
X144521066Y-104041946D01*
X144514760Y-104031425D01*
X144509515Y-104020335D01*
X144505382Y-104008786D01*
X144502402Y-103996886D01*
X144500602Y-103984752D01*
X144500000Y-103972500D01*
X144500000Y-102597500D01*
X144500602Y-102585248D01*
X144502402Y-102573114D01*
X144505382Y-102561214D01*
X144509515Y-102549665D01*
X144514760Y-102538575D01*
X144521066Y-102528054D01*
X144528374Y-102518201D01*
X144536612Y-102509112D01*
X144545701Y-102500874D01*
X144555554Y-102493566D01*
X144566075Y-102487260D01*
X144577165Y-102482015D01*
X144588714Y-102477882D01*
X144600614Y-102474902D01*
X144612748Y-102473102D01*
X144625000Y-102472500D01*
X144875000Y-102472500D01*
X144887252Y-102473102D01*
G37*
G36*
X145537252Y-102473102D02*
G01*
X145549386Y-102474902D01*
X145561286Y-102477882D01*
X145572835Y-102482015D01*
X145583925Y-102487260D01*
X145594446Y-102493566D01*
X145604299Y-102500874D01*
X145613388Y-102509112D01*
X145621626Y-102518201D01*
X145628934Y-102528054D01*
X145635240Y-102538575D01*
X145640485Y-102549665D01*
X145644618Y-102561214D01*
X145647598Y-102573114D01*
X145649398Y-102585248D01*
X145650000Y-102597500D01*
X145650000Y-103972500D01*
X145649398Y-103984752D01*
X145647598Y-103996886D01*
X145644618Y-104008786D01*
X145640485Y-104020335D01*
X145635240Y-104031425D01*
X145628934Y-104041946D01*
X145621626Y-104051799D01*
X145613388Y-104060888D01*
X145604299Y-104069126D01*
X145594446Y-104076434D01*
X145583925Y-104082740D01*
X145572835Y-104087985D01*
X145561286Y-104092118D01*
X145549386Y-104095098D01*
X145537252Y-104096898D01*
X145525000Y-104097500D01*
X145275000Y-104097500D01*
X145262748Y-104096898D01*
X145250614Y-104095098D01*
X145238714Y-104092118D01*
X145227165Y-104087985D01*
X145216075Y-104082740D01*
X145205554Y-104076434D01*
X145195701Y-104069126D01*
X145186612Y-104060888D01*
X145178374Y-104051799D01*
X145171066Y-104041946D01*
X145164760Y-104031425D01*
X145159515Y-104020335D01*
X145155382Y-104008786D01*
X145152402Y-103996886D01*
X145150602Y-103984752D01*
X145150000Y-103972500D01*
X145150000Y-102597500D01*
X145150602Y-102585248D01*
X145152402Y-102573114D01*
X145155382Y-102561214D01*
X145159515Y-102549665D01*
X145164760Y-102538575D01*
X145171066Y-102528054D01*
X145178374Y-102518201D01*
X145186612Y-102509112D01*
X145195701Y-102500874D01*
X145205554Y-102493566D01*
X145216075Y-102487260D01*
X145227165Y-102482015D01*
X145238714Y-102477882D01*
X145250614Y-102474902D01*
X145262748Y-102473102D01*
X145275000Y-102472500D01*
X145525000Y-102472500D01*
X145537252Y-102473102D01*
G37*
G36*
X146187252Y-102473102D02*
G01*
X146199386Y-102474902D01*
X146211286Y-102477882D01*
X146222835Y-102482015D01*
X146233925Y-102487260D01*
X146244446Y-102493566D01*
X146254299Y-102500874D01*
X146263388Y-102509112D01*
X146271626Y-102518201D01*
X146278934Y-102528054D01*
X146285240Y-102538575D01*
X146290485Y-102549665D01*
X146294618Y-102561214D01*
X146297598Y-102573114D01*
X146299398Y-102585248D01*
X146300000Y-102597500D01*
X146300000Y-103972500D01*
X146299398Y-103984752D01*
X146297598Y-103996886D01*
X146294618Y-104008786D01*
X146290485Y-104020335D01*
X146285240Y-104031425D01*
X146278934Y-104041946D01*
X146271626Y-104051799D01*
X146263388Y-104060888D01*
X146254299Y-104069126D01*
X146244446Y-104076434D01*
X146233925Y-104082740D01*
X146222835Y-104087985D01*
X146211286Y-104092118D01*
X146199386Y-104095098D01*
X146187252Y-104096898D01*
X146175000Y-104097500D01*
X145925000Y-104097500D01*
X145912748Y-104096898D01*
X145900614Y-104095098D01*
X145888714Y-104092118D01*
X145877165Y-104087985D01*
X145866075Y-104082740D01*
X145855554Y-104076434D01*
X145845701Y-104069126D01*
X145836612Y-104060888D01*
X145828374Y-104051799D01*
X145821066Y-104041946D01*
X145814760Y-104031425D01*
X145809515Y-104020335D01*
X145805382Y-104008786D01*
X145802402Y-103996886D01*
X145800602Y-103984752D01*
X145800000Y-103972500D01*
X145800000Y-102597500D01*
X145800602Y-102585248D01*
X145802402Y-102573114D01*
X145805382Y-102561214D01*
X145809515Y-102549665D01*
X145814760Y-102538575D01*
X145821066Y-102528054D01*
X145828374Y-102518201D01*
X145836612Y-102509112D01*
X145845701Y-102500874D01*
X145855554Y-102493566D01*
X145866075Y-102487260D01*
X145877165Y-102482015D01*
X145888714Y-102477882D01*
X145900614Y-102474902D01*
X145912748Y-102473102D01*
X145925000Y-102472500D01*
X146175000Y-102472500D01*
X146187252Y-102473102D01*
G37*
M02*
