G04 #@! TF.GenerationSoftware,KiCad,Pcbnew,(5.1.2)-2*
G04 #@! TF.CreationDate,2019-12-16T11:57:03+11:00*
G04 #@! TF.ProjectId,Heterodyne,48657465-726f-4647-996e-652e6b696361,rev?*
G04 #@! TF.SameCoordinates,Original*
G04 #@! TF.FileFunction,Copper,L2,Bot*
G04 #@! TF.FilePolarity,Positive*
%FSLAX46Y46*%
G04 Gerber Fmt 4.6, Leading zero omitted, Abs format (unit mm)*
G04 Created by KiCad (PCBNEW (5.1.2)-2) date 2019-12-16 11:57:03*
%MOMM*%
%LPD*%
G04 APERTURE LIST*
%ADD10R,1.700000X1.700000*%
%ADD11O,1.700000X1.700000*%
%ADD12O,2.400000X1.600000*%
%ADD13R,2.400000X1.600000*%
%ADD14C,0.800000*%
%ADD15C,1.000000*%
%ADD16C,1.600000*%
%ADD17C,0.254000*%
G04 APERTURE END LIST*
D10*
X177200000Y-77800000D03*
D11*
X179740000Y-77800000D03*
X171660000Y-63000000D03*
D10*
X174200000Y-63000000D03*
D11*
X162800000Y-45340000D03*
D10*
X162800000Y-42800000D03*
X143550000Y-77750000D03*
D11*
X141010000Y-77750000D03*
X174200000Y-52200000D03*
D10*
X171660000Y-52200000D03*
D11*
X174200000Y-55800000D03*
D10*
X171660000Y-55800000D03*
X162300000Y-77800000D03*
D11*
X159760000Y-77800000D03*
D12*
X152180000Y-72480000D03*
X159800000Y-64860000D03*
X152180000Y-69940000D03*
X159800000Y-67400000D03*
X152180000Y-67400000D03*
X159800000Y-69940000D03*
X152180000Y-64860000D03*
D13*
X159800000Y-72480000D03*
D10*
X129800000Y-42800000D03*
X177800000Y-55800000D03*
D11*
X129800000Y-46450000D03*
D10*
X129800000Y-48990000D03*
D14*
X139000000Y-51000000D03*
X136500000Y-51000000D03*
X134000000Y-51000000D03*
X131500000Y-51000000D03*
X131500000Y-44500000D03*
X134000000Y-44500000D03*
X136500000Y-44500000D03*
X139000000Y-44500000D03*
X168200000Y-69800000D03*
D15*
X159940000Y-69800000D02*
X159800000Y-69940000D01*
X168200000Y-69800000D02*
X159940000Y-69800000D01*
D16*
X159800000Y-48340000D02*
X162800000Y-45340000D01*
X159800000Y-64860000D02*
X159800000Y-48340000D01*
D17*
G36*
X182259659Y-36688625D02*
G01*
X182509429Y-36764035D01*
X182739792Y-36886522D01*
X182941980Y-37051422D01*
X183108286Y-37252450D01*
X183232378Y-37481954D01*
X183309531Y-37731195D01*
X183340000Y-38021089D01*
X183340000Y-57611154D01*
X183256299Y-57585764D01*
X183045482Y-57565000D01*
X165594396Y-57565000D01*
X162979396Y-54950000D01*
X170171928Y-54950000D01*
X170171928Y-56650000D01*
X170184188Y-56774482D01*
X170220498Y-56894180D01*
X170279463Y-57004494D01*
X170358815Y-57101185D01*
X170455506Y-57180537D01*
X170565820Y-57239502D01*
X170685518Y-57275812D01*
X170810000Y-57288072D01*
X172510000Y-57288072D01*
X172634482Y-57275812D01*
X172754180Y-57239502D01*
X172864494Y-57180537D01*
X172961185Y-57101185D01*
X173040537Y-57004494D01*
X173099502Y-56894180D01*
X173123966Y-56813534D01*
X173199731Y-56897588D01*
X173433080Y-57071641D01*
X173695901Y-57196825D01*
X173843110Y-57241476D01*
X174073000Y-57120155D01*
X174073000Y-55927000D01*
X174327000Y-55927000D01*
X174327000Y-57120155D01*
X174556890Y-57241476D01*
X174704099Y-57196825D01*
X174966920Y-57071641D01*
X175200269Y-56897588D01*
X175395178Y-56681355D01*
X175413855Y-56650000D01*
X176311928Y-56650000D01*
X176324188Y-56774482D01*
X176360498Y-56894180D01*
X176419463Y-57004494D01*
X176498815Y-57101185D01*
X176595506Y-57180537D01*
X176705820Y-57239502D01*
X176825518Y-57275812D01*
X176950000Y-57288072D01*
X177514250Y-57285000D01*
X177673000Y-57126250D01*
X177673000Y-55927000D01*
X177927000Y-55927000D01*
X177927000Y-57126250D01*
X178085750Y-57285000D01*
X178650000Y-57288072D01*
X178774482Y-57275812D01*
X178894180Y-57239502D01*
X179004494Y-57180537D01*
X179101185Y-57101185D01*
X179180537Y-57004494D01*
X179239502Y-56894180D01*
X179275812Y-56774482D01*
X179288072Y-56650000D01*
X179285000Y-56085750D01*
X179126250Y-55927000D01*
X177927000Y-55927000D01*
X177673000Y-55927000D01*
X176473750Y-55927000D01*
X176315000Y-56085750D01*
X176311928Y-56650000D01*
X175413855Y-56650000D01*
X175544157Y-56431252D01*
X175641481Y-56156891D01*
X175520814Y-55927000D01*
X174327000Y-55927000D01*
X174073000Y-55927000D01*
X174053000Y-55927000D01*
X174053000Y-55673000D01*
X174073000Y-55673000D01*
X174073000Y-54479845D01*
X174327000Y-54479845D01*
X174327000Y-55673000D01*
X175520814Y-55673000D01*
X175641481Y-55443109D01*
X175544157Y-55168748D01*
X175413856Y-54950000D01*
X176311928Y-54950000D01*
X176315000Y-55514250D01*
X176473750Y-55673000D01*
X177673000Y-55673000D01*
X177673000Y-54473750D01*
X177927000Y-54473750D01*
X177927000Y-55673000D01*
X179126250Y-55673000D01*
X179285000Y-55514250D01*
X179288072Y-54950000D01*
X179275812Y-54825518D01*
X179239502Y-54705820D01*
X179180537Y-54595506D01*
X179101185Y-54498815D01*
X179004494Y-54419463D01*
X178894180Y-54360498D01*
X178774482Y-54324188D01*
X178650000Y-54311928D01*
X178085750Y-54315000D01*
X177927000Y-54473750D01*
X177673000Y-54473750D01*
X177514250Y-54315000D01*
X176950000Y-54311928D01*
X176825518Y-54324188D01*
X176705820Y-54360498D01*
X176595506Y-54419463D01*
X176498815Y-54498815D01*
X176419463Y-54595506D01*
X176360498Y-54705820D01*
X176324188Y-54825518D01*
X176311928Y-54950000D01*
X175413856Y-54950000D01*
X175395178Y-54918645D01*
X175200269Y-54702412D01*
X174966920Y-54528359D01*
X174704099Y-54403175D01*
X174556890Y-54358524D01*
X174327000Y-54479845D01*
X174073000Y-54479845D01*
X173843110Y-54358524D01*
X173695901Y-54403175D01*
X173433080Y-54528359D01*
X173199731Y-54702412D01*
X173123966Y-54786466D01*
X173099502Y-54705820D01*
X173040537Y-54595506D01*
X172961185Y-54498815D01*
X172864494Y-54419463D01*
X172754180Y-54360498D01*
X172634482Y-54324188D01*
X172510000Y-54311928D01*
X170810000Y-54311928D01*
X170685518Y-54324188D01*
X170565820Y-54360498D01*
X170455506Y-54419463D01*
X170358815Y-54498815D01*
X170279463Y-54595506D01*
X170220498Y-54705820D01*
X170184188Y-54825518D01*
X170171928Y-54950000D01*
X162979396Y-54950000D01*
X162564862Y-54535467D01*
X162401110Y-54401079D01*
X162151817Y-54267828D01*
X161881318Y-54185774D01*
X161600010Y-54158067D01*
X161318702Y-54185774D01*
X161235000Y-54211164D01*
X161235000Y-51350000D01*
X170171928Y-51350000D01*
X170171928Y-53050000D01*
X170184188Y-53174482D01*
X170220498Y-53294180D01*
X170279463Y-53404494D01*
X170358815Y-53501185D01*
X170455506Y-53580537D01*
X170565820Y-53639502D01*
X170685518Y-53675812D01*
X170810000Y-53688072D01*
X172510000Y-53688072D01*
X172634482Y-53675812D01*
X172754180Y-53639502D01*
X172864494Y-53580537D01*
X172961185Y-53501185D01*
X173040537Y-53404494D01*
X173099502Y-53294180D01*
X173123966Y-53213534D01*
X173199731Y-53297588D01*
X173433080Y-53471641D01*
X173695901Y-53596825D01*
X173843110Y-53641476D01*
X174073000Y-53520155D01*
X174073000Y-52327000D01*
X174327000Y-52327000D01*
X174327000Y-53520155D01*
X174556890Y-53641476D01*
X174704099Y-53596825D01*
X174966920Y-53471641D01*
X175200269Y-53297588D01*
X175395178Y-53081355D01*
X175544157Y-52831252D01*
X175641481Y-52556891D01*
X175520814Y-52327000D01*
X174327000Y-52327000D01*
X174073000Y-52327000D01*
X174053000Y-52327000D01*
X174053000Y-52073000D01*
X174073000Y-52073000D01*
X174073000Y-50879845D01*
X174327000Y-50879845D01*
X174327000Y-52073000D01*
X175520814Y-52073000D01*
X175641481Y-51843109D01*
X175544157Y-51568748D01*
X175395178Y-51318645D01*
X175200269Y-51102412D01*
X174966920Y-50928359D01*
X174704099Y-50803175D01*
X174556890Y-50758524D01*
X174327000Y-50879845D01*
X174073000Y-50879845D01*
X173843110Y-50758524D01*
X173695901Y-50803175D01*
X173433080Y-50928359D01*
X173199731Y-51102412D01*
X173123966Y-51186466D01*
X173099502Y-51105820D01*
X173040537Y-50995506D01*
X172961185Y-50898815D01*
X172864494Y-50819463D01*
X172754180Y-50760498D01*
X172634482Y-50724188D01*
X172510000Y-50711928D01*
X170810000Y-50711928D01*
X170685518Y-50724188D01*
X170565820Y-50760498D01*
X170455506Y-50819463D01*
X170358815Y-50898815D01*
X170279463Y-50995506D01*
X170220498Y-51105820D01*
X170184188Y-51225518D01*
X170171928Y-51350000D01*
X161235000Y-51350000D01*
X161235000Y-48934395D01*
X163542387Y-46627009D01*
X163629014Y-46580706D01*
X163855134Y-46395134D01*
X164040706Y-46169014D01*
X164178599Y-45911034D01*
X164263513Y-45631111D01*
X164292185Y-45340000D01*
X164263513Y-45048889D01*
X164178599Y-44768966D01*
X164040706Y-44510986D01*
X163855134Y-44284866D01*
X163825313Y-44260393D01*
X163894180Y-44239502D01*
X164004494Y-44180537D01*
X164101185Y-44101185D01*
X164180537Y-44004494D01*
X164239502Y-43894180D01*
X164275812Y-43774482D01*
X164288072Y-43650000D01*
X164285000Y-43085750D01*
X164126250Y-42927000D01*
X162927000Y-42927000D01*
X162927000Y-42947000D01*
X162673000Y-42947000D01*
X162673000Y-42927000D01*
X161473750Y-42927000D01*
X161315000Y-43085750D01*
X161311928Y-43650000D01*
X161324188Y-43774482D01*
X161360498Y-43894180D01*
X161419463Y-44004494D01*
X161498815Y-44101185D01*
X161595506Y-44180537D01*
X161705820Y-44239502D01*
X161774687Y-44260393D01*
X161744866Y-44284866D01*
X161559294Y-44510986D01*
X161512991Y-44597613D01*
X158835155Y-47275450D01*
X158780393Y-47320392D01*
X158601069Y-47538899D01*
X158563352Y-47609463D01*
X158467818Y-47788193D01*
X158385764Y-48058692D01*
X158358057Y-48340000D01*
X158365001Y-48410502D01*
X158365000Y-63859147D01*
X158201068Y-64058899D01*
X158067818Y-64308192D01*
X157985764Y-64578691D01*
X157958057Y-64860000D01*
X157985764Y-65141309D01*
X158067818Y-65411808D01*
X158201068Y-65661101D01*
X158380392Y-65879608D01*
X158598899Y-66058932D01*
X158731858Y-66130000D01*
X158598899Y-66201068D01*
X158380392Y-66380392D01*
X158201068Y-66598899D01*
X158067818Y-66848192D01*
X157985764Y-67118691D01*
X157958057Y-67400000D01*
X157985764Y-67681309D01*
X158067818Y-67951808D01*
X158201068Y-68201101D01*
X158380392Y-68419608D01*
X158598899Y-68598932D01*
X158731858Y-68670000D01*
X158598899Y-68741068D01*
X158380392Y-68920392D01*
X158201068Y-69138899D01*
X158067818Y-69388192D01*
X157985764Y-69658691D01*
X157958057Y-69940000D01*
X157985764Y-70221309D01*
X158067818Y-70491808D01*
X158201068Y-70741101D01*
X158380392Y-70959608D01*
X158493482Y-71052419D01*
X158475518Y-71054188D01*
X158355820Y-71090498D01*
X158245506Y-71149463D01*
X158148815Y-71228815D01*
X158069463Y-71325506D01*
X158010498Y-71435820D01*
X157974188Y-71555518D01*
X157961928Y-71680000D01*
X157961928Y-73280000D01*
X157974188Y-73404482D01*
X158010498Y-73524180D01*
X158069463Y-73634494D01*
X158148815Y-73731185D01*
X158245506Y-73810537D01*
X158355820Y-73869502D01*
X158475518Y-73905812D01*
X158600000Y-73918072D01*
X161000000Y-73918072D01*
X161124482Y-73905812D01*
X161244180Y-73869502D01*
X161354494Y-73810537D01*
X161451185Y-73731185D01*
X161530537Y-73634494D01*
X161589502Y-73524180D01*
X161625812Y-73404482D01*
X161638072Y-73280000D01*
X161638072Y-71680000D01*
X161625812Y-71555518D01*
X161589502Y-71435820D01*
X161530537Y-71325506D01*
X161451185Y-71228815D01*
X161354494Y-71149463D01*
X161244180Y-71090498D01*
X161124482Y-71054188D01*
X161106518Y-71052419D01*
X161219608Y-70959608D01*
X161239803Y-70935000D01*
X168255752Y-70935000D01*
X168422499Y-70918577D01*
X168636447Y-70853676D01*
X168833623Y-70748284D01*
X169006449Y-70606449D01*
X169148284Y-70433623D01*
X169253676Y-70236447D01*
X169318577Y-70022499D01*
X169340491Y-69800000D01*
X169318577Y-69577501D01*
X169253676Y-69363553D01*
X169148284Y-69166377D01*
X169006449Y-68993551D01*
X168833623Y-68851716D01*
X168636447Y-68746324D01*
X168422499Y-68681423D01*
X168255752Y-68665000D01*
X160877497Y-68665000D01*
X161001101Y-68598932D01*
X161219608Y-68419608D01*
X161398932Y-68201101D01*
X161532182Y-67951808D01*
X161614236Y-67681309D01*
X161641943Y-67400000D01*
X161614236Y-67118691D01*
X161532182Y-66848192D01*
X161398932Y-66598899D01*
X161219608Y-66380392D01*
X161001101Y-66201068D01*
X160868142Y-66130000D01*
X161001101Y-66058932D01*
X161219608Y-65879608D01*
X161398932Y-65661101D01*
X161532182Y-65411808D01*
X161614236Y-65141309D01*
X161641943Y-64860000D01*
X161614236Y-64578691D01*
X161532182Y-64308192D01*
X161398932Y-64058899D01*
X161235000Y-63859147D01*
X161235000Y-63000000D01*
X170167815Y-63000000D01*
X170196487Y-63291111D01*
X170281401Y-63571034D01*
X170419294Y-63829014D01*
X170604866Y-64055134D01*
X170830986Y-64240706D01*
X171088966Y-64378599D01*
X171368889Y-64463513D01*
X171587050Y-64485000D01*
X171732950Y-64485000D01*
X171951111Y-64463513D01*
X172231034Y-64378599D01*
X172489014Y-64240706D01*
X172715134Y-64055134D01*
X172739607Y-64025313D01*
X172760498Y-64094180D01*
X172819463Y-64204494D01*
X172898815Y-64301185D01*
X172995506Y-64380537D01*
X173105820Y-64439502D01*
X173225518Y-64475812D01*
X173350000Y-64488072D01*
X173914250Y-64485000D01*
X174073000Y-64326250D01*
X174073000Y-63127000D01*
X174327000Y-63127000D01*
X174327000Y-64326250D01*
X174485750Y-64485000D01*
X175050000Y-64488072D01*
X175174482Y-64475812D01*
X175294180Y-64439502D01*
X175404494Y-64380537D01*
X175501185Y-64301185D01*
X175580537Y-64204494D01*
X175639502Y-64094180D01*
X175675812Y-63974482D01*
X175688072Y-63850000D01*
X175685000Y-63285750D01*
X175526250Y-63127000D01*
X174327000Y-63127000D01*
X174073000Y-63127000D01*
X174053000Y-63127000D01*
X174053000Y-62873000D01*
X174073000Y-62873000D01*
X174073000Y-61673750D01*
X174327000Y-61673750D01*
X174327000Y-62873000D01*
X175526250Y-62873000D01*
X175685000Y-62714250D01*
X175688072Y-62150000D01*
X175675812Y-62025518D01*
X175639502Y-61905820D01*
X175580537Y-61795506D01*
X175501185Y-61698815D01*
X175404494Y-61619463D01*
X175294180Y-61560498D01*
X175174482Y-61524188D01*
X175050000Y-61511928D01*
X174485750Y-61515000D01*
X174327000Y-61673750D01*
X174073000Y-61673750D01*
X173914250Y-61515000D01*
X173350000Y-61511928D01*
X173225518Y-61524188D01*
X173105820Y-61560498D01*
X172995506Y-61619463D01*
X172898815Y-61698815D01*
X172819463Y-61795506D01*
X172760498Y-61905820D01*
X172739607Y-61974687D01*
X172715134Y-61944866D01*
X172489014Y-61759294D01*
X172231034Y-61621401D01*
X171951111Y-61536487D01*
X171732950Y-61515000D01*
X171587050Y-61515000D01*
X171368889Y-61536487D01*
X171088966Y-61621401D01*
X170830986Y-61759294D01*
X170604866Y-61944866D01*
X170419294Y-62170986D01*
X170281401Y-62428966D01*
X170196487Y-62708889D01*
X170167815Y-63000000D01*
X161235000Y-63000000D01*
X161235000Y-57264395D01*
X163935450Y-59964846D01*
X163980392Y-60019608D01*
X164198899Y-60198932D01*
X164448192Y-60332182D01*
X164718691Y-60414236D01*
X165000000Y-60441943D01*
X165070492Y-60435000D01*
X183045482Y-60435000D01*
X183256299Y-60414236D01*
X183340001Y-60388846D01*
X183340001Y-77967711D01*
X183311375Y-78259660D01*
X183235965Y-78509429D01*
X183113477Y-78739794D01*
X182948579Y-78941979D01*
X182747546Y-79108288D01*
X182518046Y-79232378D01*
X182268805Y-79309531D01*
X181978911Y-79340000D01*
X127032279Y-79340000D01*
X126740340Y-79311375D01*
X126490571Y-79235965D01*
X126260206Y-79113477D01*
X126058021Y-78948579D01*
X125891712Y-78747546D01*
X125767622Y-78518046D01*
X125690469Y-78268805D01*
X125660000Y-77978911D01*
X125660000Y-77750000D01*
X139517815Y-77750000D01*
X139546487Y-78041111D01*
X139631401Y-78321034D01*
X139769294Y-78579014D01*
X139954866Y-78805134D01*
X140180986Y-78990706D01*
X140438966Y-79128599D01*
X140718889Y-79213513D01*
X140937050Y-79235000D01*
X141082950Y-79235000D01*
X141301111Y-79213513D01*
X141581034Y-79128599D01*
X141839014Y-78990706D01*
X142065134Y-78805134D01*
X142089607Y-78775313D01*
X142110498Y-78844180D01*
X142169463Y-78954494D01*
X142248815Y-79051185D01*
X142345506Y-79130537D01*
X142455820Y-79189502D01*
X142575518Y-79225812D01*
X142700000Y-79238072D01*
X143264250Y-79235000D01*
X143423000Y-79076250D01*
X143423000Y-77877000D01*
X143677000Y-77877000D01*
X143677000Y-79076250D01*
X143835750Y-79235000D01*
X144400000Y-79238072D01*
X144524482Y-79225812D01*
X144644180Y-79189502D01*
X144754494Y-79130537D01*
X144851185Y-79051185D01*
X144930537Y-78954494D01*
X144989502Y-78844180D01*
X145025812Y-78724482D01*
X145038072Y-78600000D01*
X145035000Y-78035750D01*
X144876250Y-77877000D01*
X143677000Y-77877000D01*
X143423000Y-77877000D01*
X143403000Y-77877000D01*
X143403000Y-77800000D01*
X158267815Y-77800000D01*
X158296487Y-78091111D01*
X158381401Y-78371034D01*
X158519294Y-78629014D01*
X158704866Y-78855134D01*
X158930986Y-79040706D01*
X159188966Y-79178599D01*
X159468889Y-79263513D01*
X159687050Y-79285000D01*
X159832950Y-79285000D01*
X160051111Y-79263513D01*
X160331034Y-79178599D01*
X160589014Y-79040706D01*
X160815134Y-78855134D01*
X160839607Y-78825313D01*
X160860498Y-78894180D01*
X160919463Y-79004494D01*
X160998815Y-79101185D01*
X161095506Y-79180537D01*
X161205820Y-79239502D01*
X161325518Y-79275812D01*
X161450000Y-79288072D01*
X162014250Y-79285000D01*
X162173000Y-79126250D01*
X162173000Y-77927000D01*
X162427000Y-77927000D01*
X162427000Y-79126250D01*
X162585750Y-79285000D01*
X163150000Y-79288072D01*
X163274482Y-79275812D01*
X163394180Y-79239502D01*
X163504494Y-79180537D01*
X163601185Y-79101185D01*
X163680537Y-79004494D01*
X163739502Y-78894180D01*
X163775812Y-78774482D01*
X163788072Y-78650000D01*
X163785000Y-78085750D01*
X163626250Y-77927000D01*
X162427000Y-77927000D01*
X162173000Y-77927000D01*
X162153000Y-77927000D01*
X162153000Y-77673000D01*
X162173000Y-77673000D01*
X162173000Y-76473750D01*
X162427000Y-76473750D01*
X162427000Y-77673000D01*
X163626250Y-77673000D01*
X163785000Y-77514250D01*
X163788072Y-76950000D01*
X175711928Y-76950000D01*
X175711928Y-78650000D01*
X175724188Y-78774482D01*
X175760498Y-78894180D01*
X175819463Y-79004494D01*
X175898815Y-79101185D01*
X175995506Y-79180537D01*
X176105820Y-79239502D01*
X176225518Y-79275812D01*
X176350000Y-79288072D01*
X178050000Y-79288072D01*
X178174482Y-79275812D01*
X178294180Y-79239502D01*
X178404494Y-79180537D01*
X178501185Y-79101185D01*
X178580537Y-79004494D01*
X178639502Y-78894180D01*
X178663966Y-78813534D01*
X178739731Y-78897588D01*
X178973080Y-79071641D01*
X179235901Y-79196825D01*
X179383110Y-79241476D01*
X179613000Y-79120155D01*
X179613000Y-77927000D01*
X179867000Y-77927000D01*
X179867000Y-79120155D01*
X180096890Y-79241476D01*
X180244099Y-79196825D01*
X180506920Y-79071641D01*
X180740269Y-78897588D01*
X180935178Y-78681355D01*
X181084157Y-78431252D01*
X181181481Y-78156891D01*
X181060814Y-77927000D01*
X179867000Y-77927000D01*
X179613000Y-77927000D01*
X179593000Y-77927000D01*
X179593000Y-77673000D01*
X179613000Y-77673000D01*
X179613000Y-76479845D01*
X179867000Y-76479845D01*
X179867000Y-77673000D01*
X181060814Y-77673000D01*
X181181481Y-77443109D01*
X181084157Y-77168748D01*
X180935178Y-76918645D01*
X180740269Y-76702412D01*
X180506920Y-76528359D01*
X180244099Y-76403175D01*
X180096890Y-76358524D01*
X179867000Y-76479845D01*
X179613000Y-76479845D01*
X179383110Y-76358524D01*
X179235901Y-76403175D01*
X178973080Y-76528359D01*
X178739731Y-76702412D01*
X178663966Y-76786466D01*
X178639502Y-76705820D01*
X178580537Y-76595506D01*
X178501185Y-76498815D01*
X178404494Y-76419463D01*
X178294180Y-76360498D01*
X178174482Y-76324188D01*
X178050000Y-76311928D01*
X176350000Y-76311928D01*
X176225518Y-76324188D01*
X176105820Y-76360498D01*
X175995506Y-76419463D01*
X175898815Y-76498815D01*
X175819463Y-76595506D01*
X175760498Y-76705820D01*
X175724188Y-76825518D01*
X175711928Y-76950000D01*
X163788072Y-76950000D01*
X163775812Y-76825518D01*
X163739502Y-76705820D01*
X163680537Y-76595506D01*
X163601185Y-76498815D01*
X163504494Y-76419463D01*
X163394180Y-76360498D01*
X163274482Y-76324188D01*
X163150000Y-76311928D01*
X162585750Y-76315000D01*
X162427000Y-76473750D01*
X162173000Y-76473750D01*
X162014250Y-76315000D01*
X161450000Y-76311928D01*
X161325518Y-76324188D01*
X161205820Y-76360498D01*
X161095506Y-76419463D01*
X160998815Y-76498815D01*
X160919463Y-76595506D01*
X160860498Y-76705820D01*
X160839607Y-76774687D01*
X160815134Y-76744866D01*
X160589014Y-76559294D01*
X160331034Y-76421401D01*
X160051111Y-76336487D01*
X159832950Y-76315000D01*
X159687050Y-76315000D01*
X159468889Y-76336487D01*
X159188966Y-76421401D01*
X158930986Y-76559294D01*
X158704866Y-76744866D01*
X158519294Y-76970986D01*
X158381401Y-77228966D01*
X158296487Y-77508889D01*
X158267815Y-77800000D01*
X143403000Y-77800000D01*
X143403000Y-77623000D01*
X143423000Y-77623000D01*
X143423000Y-76423750D01*
X143677000Y-76423750D01*
X143677000Y-77623000D01*
X144876250Y-77623000D01*
X145035000Y-77464250D01*
X145038072Y-76900000D01*
X145025812Y-76775518D01*
X144989502Y-76655820D01*
X144930537Y-76545506D01*
X144851185Y-76448815D01*
X144754494Y-76369463D01*
X144644180Y-76310498D01*
X144524482Y-76274188D01*
X144400000Y-76261928D01*
X143835750Y-76265000D01*
X143677000Y-76423750D01*
X143423000Y-76423750D01*
X143264250Y-76265000D01*
X142700000Y-76261928D01*
X142575518Y-76274188D01*
X142455820Y-76310498D01*
X142345506Y-76369463D01*
X142248815Y-76448815D01*
X142169463Y-76545506D01*
X142110498Y-76655820D01*
X142089607Y-76724687D01*
X142065134Y-76694866D01*
X141839014Y-76509294D01*
X141581034Y-76371401D01*
X141301111Y-76286487D01*
X141082950Y-76265000D01*
X140937050Y-76265000D01*
X140718889Y-76286487D01*
X140438966Y-76371401D01*
X140180986Y-76509294D01*
X139954866Y-76694866D01*
X139769294Y-76920986D01*
X139631401Y-77178966D01*
X139546487Y-77458889D01*
X139517815Y-77750000D01*
X125660000Y-77750000D01*
X125660000Y-72829039D01*
X150388096Y-72829039D01*
X150405633Y-72911818D01*
X150516285Y-73171646D01*
X150675500Y-73404895D01*
X150877161Y-73602601D01*
X151113517Y-73757166D01*
X151375486Y-73862650D01*
X151653000Y-73915000D01*
X152053000Y-73915000D01*
X152053000Y-72607000D01*
X152307000Y-72607000D01*
X152307000Y-73915000D01*
X152707000Y-73915000D01*
X152984514Y-73862650D01*
X153246483Y-73757166D01*
X153482839Y-73602601D01*
X153684500Y-73404895D01*
X153843715Y-73171646D01*
X153954367Y-72911818D01*
X153971904Y-72829039D01*
X153849915Y-72607000D01*
X152307000Y-72607000D01*
X152053000Y-72607000D01*
X150510085Y-72607000D01*
X150388096Y-72829039D01*
X125660000Y-72829039D01*
X125660000Y-64860000D01*
X150338057Y-64860000D01*
X150365764Y-65141309D01*
X150447818Y-65411808D01*
X150581068Y-65661101D01*
X150760392Y-65879608D01*
X150978899Y-66058932D01*
X151111858Y-66130000D01*
X150978899Y-66201068D01*
X150760392Y-66380392D01*
X150581068Y-66598899D01*
X150447818Y-66848192D01*
X150365764Y-67118691D01*
X150338057Y-67400000D01*
X150365764Y-67681309D01*
X150447818Y-67951808D01*
X150581068Y-68201101D01*
X150760392Y-68419608D01*
X150978899Y-68598932D01*
X151111858Y-68670000D01*
X150978899Y-68741068D01*
X150760392Y-68920392D01*
X150581068Y-69138899D01*
X150447818Y-69388192D01*
X150365764Y-69658691D01*
X150338057Y-69940000D01*
X150365764Y-70221309D01*
X150447818Y-70491808D01*
X150581068Y-70741101D01*
X150760392Y-70959608D01*
X150978899Y-71138932D01*
X151106741Y-71207265D01*
X150877161Y-71357399D01*
X150675500Y-71555105D01*
X150516285Y-71788354D01*
X150405633Y-72048182D01*
X150388096Y-72130961D01*
X150510085Y-72353000D01*
X152053000Y-72353000D01*
X152053000Y-72333000D01*
X152307000Y-72333000D01*
X152307000Y-72353000D01*
X153849915Y-72353000D01*
X153971904Y-72130961D01*
X153954367Y-72048182D01*
X153843715Y-71788354D01*
X153684500Y-71555105D01*
X153482839Y-71357399D01*
X153253259Y-71207265D01*
X153381101Y-71138932D01*
X153599608Y-70959608D01*
X153778932Y-70741101D01*
X153912182Y-70491808D01*
X153994236Y-70221309D01*
X154021943Y-69940000D01*
X153994236Y-69658691D01*
X153912182Y-69388192D01*
X153778932Y-69138899D01*
X153599608Y-68920392D01*
X153381101Y-68741068D01*
X153248142Y-68670000D01*
X153381101Y-68598932D01*
X153599608Y-68419608D01*
X153778932Y-68201101D01*
X153912182Y-67951808D01*
X153994236Y-67681309D01*
X154021943Y-67400000D01*
X153994236Y-67118691D01*
X153912182Y-66848192D01*
X153778932Y-66598899D01*
X153599608Y-66380392D01*
X153381101Y-66201068D01*
X153248142Y-66130000D01*
X153381101Y-66058932D01*
X153599608Y-65879608D01*
X153778932Y-65661101D01*
X153912182Y-65411808D01*
X153994236Y-65141309D01*
X154021943Y-64860000D01*
X153994236Y-64578691D01*
X153912182Y-64308192D01*
X153778932Y-64058899D01*
X153599608Y-63840392D01*
X153381101Y-63661068D01*
X153131808Y-63527818D01*
X152861309Y-63445764D01*
X152650492Y-63425000D01*
X151709508Y-63425000D01*
X151498691Y-63445764D01*
X151228192Y-63527818D01*
X150978899Y-63661068D01*
X150760392Y-63840392D01*
X150581068Y-64058899D01*
X150447818Y-64308192D01*
X150365764Y-64578691D01*
X150338057Y-64860000D01*
X125660000Y-64860000D01*
X125660000Y-46450000D01*
X128307815Y-46450000D01*
X128336487Y-46741111D01*
X128421401Y-47021034D01*
X128559294Y-47279014D01*
X128744866Y-47505134D01*
X128774687Y-47529607D01*
X128705820Y-47550498D01*
X128595506Y-47609463D01*
X128498815Y-47688815D01*
X128419463Y-47785506D01*
X128360498Y-47895820D01*
X128324188Y-48015518D01*
X128311928Y-48140000D01*
X128311928Y-49840000D01*
X128324188Y-49964482D01*
X128360498Y-50084180D01*
X128419463Y-50194494D01*
X128498815Y-50291185D01*
X128595506Y-50370537D01*
X128705820Y-50429502D01*
X128825518Y-50465812D01*
X128950000Y-50478072D01*
X130650000Y-50478072D01*
X130774482Y-50465812D01*
X130894180Y-50429502D01*
X131004494Y-50370537D01*
X131101185Y-50291185D01*
X131180537Y-50194494D01*
X131239502Y-50084180D01*
X131275812Y-49964482D01*
X131288072Y-49840000D01*
X131288072Y-48140000D01*
X131275812Y-48015518D01*
X131239502Y-47895820D01*
X131180537Y-47785506D01*
X131101185Y-47688815D01*
X131004494Y-47609463D01*
X130894180Y-47550498D01*
X130825313Y-47529607D01*
X130855134Y-47505134D01*
X131040706Y-47279014D01*
X131178599Y-47021034D01*
X131263513Y-46741111D01*
X131292185Y-46450000D01*
X131263513Y-46158889D01*
X131178599Y-45878966D01*
X131040706Y-45620986D01*
X130855134Y-45394866D01*
X130629014Y-45209294D01*
X130371034Y-45071401D01*
X130091111Y-44986487D01*
X129872950Y-44965000D01*
X129727050Y-44965000D01*
X129508889Y-44986487D01*
X129228966Y-45071401D01*
X128970986Y-45209294D01*
X128744866Y-45394866D01*
X128559294Y-45620986D01*
X128421401Y-45878966D01*
X128336487Y-46158889D01*
X128307815Y-46450000D01*
X125660000Y-46450000D01*
X125660000Y-43650000D01*
X128311928Y-43650000D01*
X128324188Y-43774482D01*
X128360498Y-43894180D01*
X128419463Y-44004494D01*
X128498815Y-44101185D01*
X128595506Y-44180537D01*
X128705820Y-44239502D01*
X128825518Y-44275812D01*
X128950000Y-44288072D01*
X129514250Y-44285000D01*
X129673000Y-44126250D01*
X129673000Y-42927000D01*
X129927000Y-42927000D01*
X129927000Y-44126250D01*
X130085750Y-44285000D01*
X130650000Y-44288072D01*
X130774482Y-44275812D01*
X130894180Y-44239502D01*
X131004494Y-44180537D01*
X131101185Y-44101185D01*
X131180537Y-44004494D01*
X131239502Y-43894180D01*
X131275812Y-43774482D01*
X131288072Y-43650000D01*
X131285000Y-43085750D01*
X131126250Y-42927000D01*
X129927000Y-42927000D01*
X129673000Y-42927000D01*
X128473750Y-42927000D01*
X128315000Y-43085750D01*
X128311928Y-43650000D01*
X125660000Y-43650000D01*
X125660000Y-41950000D01*
X128311928Y-41950000D01*
X128315000Y-42514250D01*
X128473750Y-42673000D01*
X129673000Y-42673000D01*
X129673000Y-41473750D01*
X129927000Y-41473750D01*
X129927000Y-42673000D01*
X131126250Y-42673000D01*
X131285000Y-42514250D01*
X131288072Y-41950000D01*
X161311928Y-41950000D01*
X161315000Y-42514250D01*
X161473750Y-42673000D01*
X162673000Y-42673000D01*
X162673000Y-41473750D01*
X162927000Y-41473750D01*
X162927000Y-42673000D01*
X164126250Y-42673000D01*
X164285000Y-42514250D01*
X164288072Y-41950000D01*
X164275812Y-41825518D01*
X164239502Y-41705820D01*
X164180537Y-41595506D01*
X164101185Y-41498815D01*
X164004494Y-41419463D01*
X163894180Y-41360498D01*
X163774482Y-41324188D01*
X163650000Y-41311928D01*
X163085750Y-41315000D01*
X162927000Y-41473750D01*
X162673000Y-41473750D01*
X162514250Y-41315000D01*
X161950000Y-41311928D01*
X161825518Y-41324188D01*
X161705820Y-41360498D01*
X161595506Y-41419463D01*
X161498815Y-41498815D01*
X161419463Y-41595506D01*
X161360498Y-41705820D01*
X161324188Y-41825518D01*
X161311928Y-41950000D01*
X131288072Y-41950000D01*
X131275812Y-41825518D01*
X131239502Y-41705820D01*
X131180537Y-41595506D01*
X131101185Y-41498815D01*
X131004494Y-41419463D01*
X130894180Y-41360498D01*
X130774482Y-41324188D01*
X130650000Y-41311928D01*
X130085750Y-41315000D01*
X129927000Y-41473750D01*
X129673000Y-41473750D01*
X129514250Y-41315000D01*
X128950000Y-41311928D01*
X128825518Y-41324188D01*
X128705820Y-41360498D01*
X128595506Y-41419463D01*
X128498815Y-41498815D01*
X128419463Y-41595506D01*
X128360498Y-41705820D01*
X128324188Y-41825518D01*
X128311928Y-41950000D01*
X125660000Y-41950000D01*
X125660000Y-38032279D01*
X125688625Y-37740341D01*
X125764035Y-37490571D01*
X125886522Y-37260208D01*
X126051422Y-37058020D01*
X126252450Y-36891714D01*
X126481954Y-36767622D01*
X126731195Y-36690469D01*
X127021088Y-36660000D01*
X181967721Y-36660000D01*
X182259659Y-36688625D01*
X182259659Y-36688625D01*
G37*
X182259659Y-36688625D02*
X182509429Y-36764035D01*
X182739792Y-36886522D01*
X182941980Y-37051422D01*
X183108286Y-37252450D01*
X183232378Y-37481954D01*
X183309531Y-37731195D01*
X183340000Y-38021089D01*
X183340000Y-57611154D01*
X183256299Y-57585764D01*
X183045482Y-57565000D01*
X165594396Y-57565000D01*
X162979396Y-54950000D01*
X170171928Y-54950000D01*
X170171928Y-56650000D01*
X170184188Y-56774482D01*
X170220498Y-56894180D01*
X170279463Y-57004494D01*
X170358815Y-57101185D01*
X170455506Y-57180537D01*
X170565820Y-57239502D01*
X170685518Y-57275812D01*
X170810000Y-57288072D01*
X172510000Y-57288072D01*
X172634482Y-57275812D01*
X172754180Y-57239502D01*
X172864494Y-57180537D01*
X172961185Y-57101185D01*
X173040537Y-57004494D01*
X173099502Y-56894180D01*
X173123966Y-56813534D01*
X173199731Y-56897588D01*
X173433080Y-57071641D01*
X173695901Y-57196825D01*
X173843110Y-57241476D01*
X174073000Y-57120155D01*
X174073000Y-55927000D01*
X174327000Y-55927000D01*
X174327000Y-57120155D01*
X174556890Y-57241476D01*
X174704099Y-57196825D01*
X174966920Y-57071641D01*
X175200269Y-56897588D01*
X175395178Y-56681355D01*
X175413855Y-56650000D01*
X176311928Y-56650000D01*
X176324188Y-56774482D01*
X176360498Y-56894180D01*
X176419463Y-57004494D01*
X176498815Y-57101185D01*
X176595506Y-57180537D01*
X176705820Y-57239502D01*
X176825518Y-57275812D01*
X176950000Y-57288072D01*
X177514250Y-57285000D01*
X177673000Y-57126250D01*
X177673000Y-55927000D01*
X177927000Y-55927000D01*
X177927000Y-57126250D01*
X178085750Y-57285000D01*
X178650000Y-57288072D01*
X178774482Y-57275812D01*
X178894180Y-57239502D01*
X179004494Y-57180537D01*
X179101185Y-57101185D01*
X179180537Y-57004494D01*
X179239502Y-56894180D01*
X179275812Y-56774482D01*
X179288072Y-56650000D01*
X179285000Y-56085750D01*
X179126250Y-55927000D01*
X177927000Y-55927000D01*
X177673000Y-55927000D01*
X176473750Y-55927000D01*
X176315000Y-56085750D01*
X176311928Y-56650000D01*
X175413855Y-56650000D01*
X175544157Y-56431252D01*
X175641481Y-56156891D01*
X175520814Y-55927000D01*
X174327000Y-55927000D01*
X174073000Y-55927000D01*
X174053000Y-55927000D01*
X174053000Y-55673000D01*
X174073000Y-55673000D01*
X174073000Y-54479845D01*
X174327000Y-54479845D01*
X174327000Y-55673000D01*
X175520814Y-55673000D01*
X175641481Y-55443109D01*
X175544157Y-55168748D01*
X175413856Y-54950000D01*
X176311928Y-54950000D01*
X176315000Y-55514250D01*
X176473750Y-55673000D01*
X177673000Y-55673000D01*
X177673000Y-54473750D01*
X177927000Y-54473750D01*
X177927000Y-55673000D01*
X179126250Y-55673000D01*
X179285000Y-55514250D01*
X179288072Y-54950000D01*
X179275812Y-54825518D01*
X179239502Y-54705820D01*
X179180537Y-54595506D01*
X179101185Y-54498815D01*
X179004494Y-54419463D01*
X178894180Y-54360498D01*
X178774482Y-54324188D01*
X178650000Y-54311928D01*
X178085750Y-54315000D01*
X177927000Y-54473750D01*
X177673000Y-54473750D01*
X177514250Y-54315000D01*
X176950000Y-54311928D01*
X176825518Y-54324188D01*
X176705820Y-54360498D01*
X176595506Y-54419463D01*
X176498815Y-54498815D01*
X176419463Y-54595506D01*
X176360498Y-54705820D01*
X176324188Y-54825518D01*
X176311928Y-54950000D01*
X175413856Y-54950000D01*
X175395178Y-54918645D01*
X175200269Y-54702412D01*
X174966920Y-54528359D01*
X174704099Y-54403175D01*
X174556890Y-54358524D01*
X174327000Y-54479845D01*
X174073000Y-54479845D01*
X173843110Y-54358524D01*
X173695901Y-54403175D01*
X173433080Y-54528359D01*
X173199731Y-54702412D01*
X173123966Y-54786466D01*
X173099502Y-54705820D01*
X173040537Y-54595506D01*
X172961185Y-54498815D01*
X172864494Y-54419463D01*
X172754180Y-54360498D01*
X172634482Y-54324188D01*
X172510000Y-54311928D01*
X170810000Y-54311928D01*
X170685518Y-54324188D01*
X170565820Y-54360498D01*
X170455506Y-54419463D01*
X170358815Y-54498815D01*
X170279463Y-54595506D01*
X170220498Y-54705820D01*
X170184188Y-54825518D01*
X170171928Y-54950000D01*
X162979396Y-54950000D01*
X162564862Y-54535467D01*
X162401110Y-54401079D01*
X162151817Y-54267828D01*
X161881318Y-54185774D01*
X161600010Y-54158067D01*
X161318702Y-54185774D01*
X161235000Y-54211164D01*
X161235000Y-51350000D01*
X170171928Y-51350000D01*
X170171928Y-53050000D01*
X170184188Y-53174482D01*
X170220498Y-53294180D01*
X170279463Y-53404494D01*
X170358815Y-53501185D01*
X170455506Y-53580537D01*
X170565820Y-53639502D01*
X170685518Y-53675812D01*
X170810000Y-53688072D01*
X172510000Y-53688072D01*
X172634482Y-53675812D01*
X172754180Y-53639502D01*
X172864494Y-53580537D01*
X172961185Y-53501185D01*
X173040537Y-53404494D01*
X173099502Y-53294180D01*
X173123966Y-53213534D01*
X173199731Y-53297588D01*
X173433080Y-53471641D01*
X173695901Y-53596825D01*
X173843110Y-53641476D01*
X174073000Y-53520155D01*
X174073000Y-52327000D01*
X174327000Y-52327000D01*
X174327000Y-53520155D01*
X174556890Y-53641476D01*
X174704099Y-53596825D01*
X174966920Y-53471641D01*
X175200269Y-53297588D01*
X175395178Y-53081355D01*
X175544157Y-52831252D01*
X175641481Y-52556891D01*
X175520814Y-52327000D01*
X174327000Y-52327000D01*
X174073000Y-52327000D01*
X174053000Y-52327000D01*
X174053000Y-52073000D01*
X174073000Y-52073000D01*
X174073000Y-50879845D01*
X174327000Y-50879845D01*
X174327000Y-52073000D01*
X175520814Y-52073000D01*
X175641481Y-51843109D01*
X175544157Y-51568748D01*
X175395178Y-51318645D01*
X175200269Y-51102412D01*
X174966920Y-50928359D01*
X174704099Y-50803175D01*
X174556890Y-50758524D01*
X174327000Y-50879845D01*
X174073000Y-50879845D01*
X173843110Y-50758524D01*
X173695901Y-50803175D01*
X173433080Y-50928359D01*
X173199731Y-51102412D01*
X173123966Y-51186466D01*
X173099502Y-51105820D01*
X173040537Y-50995506D01*
X172961185Y-50898815D01*
X172864494Y-50819463D01*
X172754180Y-50760498D01*
X172634482Y-50724188D01*
X172510000Y-50711928D01*
X170810000Y-50711928D01*
X170685518Y-50724188D01*
X170565820Y-50760498D01*
X170455506Y-50819463D01*
X170358815Y-50898815D01*
X170279463Y-50995506D01*
X170220498Y-51105820D01*
X170184188Y-51225518D01*
X170171928Y-51350000D01*
X161235000Y-51350000D01*
X161235000Y-48934395D01*
X163542387Y-46627009D01*
X163629014Y-46580706D01*
X163855134Y-46395134D01*
X164040706Y-46169014D01*
X164178599Y-45911034D01*
X164263513Y-45631111D01*
X164292185Y-45340000D01*
X164263513Y-45048889D01*
X164178599Y-44768966D01*
X164040706Y-44510986D01*
X163855134Y-44284866D01*
X163825313Y-44260393D01*
X163894180Y-44239502D01*
X164004494Y-44180537D01*
X164101185Y-44101185D01*
X164180537Y-44004494D01*
X164239502Y-43894180D01*
X164275812Y-43774482D01*
X164288072Y-43650000D01*
X164285000Y-43085750D01*
X164126250Y-42927000D01*
X162927000Y-42927000D01*
X162927000Y-42947000D01*
X162673000Y-42947000D01*
X162673000Y-42927000D01*
X161473750Y-42927000D01*
X161315000Y-43085750D01*
X161311928Y-43650000D01*
X161324188Y-43774482D01*
X161360498Y-43894180D01*
X161419463Y-44004494D01*
X161498815Y-44101185D01*
X161595506Y-44180537D01*
X161705820Y-44239502D01*
X161774687Y-44260393D01*
X161744866Y-44284866D01*
X161559294Y-44510986D01*
X161512991Y-44597613D01*
X158835155Y-47275450D01*
X158780393Y-47320392D01*
X158601069Y-47538899D01*
X158563352Y-47609463D01*
X158467818Y-47788193D01*
X158385764Y-48058692D01*
X158358057Y-48340000D01*
X158365001Y-48410502D01*
X158365000Y-63859147D01*
X158201068Y-64058899D01*
X158067818Y-64308192D01*
X157985764Y-64578691D01*
X157958057Y-64860000D01*
X157985764Y-65141309D01*
X158067818Y-65411808D01*
X158201068Y-65661101D01*
X158380392Y-65879608D01*
X158598899Y-66058932D01*
X158731858Y-66130000D01*
X158598899Y-66201068D01*
X158380392Y-66380392D01*
X158201068Y-66598899D01*
X158067818Y-66848192D01*
X157985764Y-67118691D01*
X157958057Y-67400000D01*
X157985764Y-67681309D01*
X158067818Y-67951808D01*
X158201068Y-68201101D01*
X158380392Y-68419608D01*
X158598899Y-68598932D01*
X158731858Y-68670000D01*
X158598899Y-68741068D01*
X158380392Y-68920392D01*
X158201068Y-69138899D01*
X158067818Y-69388192D01*
X157985764Y-69658691D01*
X157958057Y-69940000D01*
X157985764Y-70221309D01*
X158067818Y-70491808D01*
X158201068Y-70741101D01*
X158380392Y-70959608D01*
X158493482Y-71052419D01*
X158475518Y-71054188D01*
X158355820Y-71090498D01*
X158245506Y-71149463D01*
X158148815Y-71228815D01*
X158069463Y-71325506D01*
X158010498Y-71435820D01*
X157974188Y-71555518D01*
X157961928Y-71680000D01*
X157961928Y-73280000D01*
X157974188Y-73404482D01*
X158010498Y-73524180D01*
X158069463Y-73634494D01*
X158148815Y-73731185D01*
X158245506Y-73810537D01*
X158355820Y-73869502D01*
X158475518Y-73905812D01*
X158600000Y-73918072D01*
X161000000Y-73918072D01*
X161124482Y-73905812D01*
X161244180Y-73869502D01*
X161354494Y-73810537D01*
X161451185Y-73731185D01*
X161530537Y-73634494D01*
X161589502Y-73524180D01*
X161625812Y-73404482D01*
X161638072Y-73280000D01*
X161638072Y-71680000D01*
X161625812Y-71555518D01*
X161589502Y-71435820D01*
X161530537Y-71325506D01*
X161451185Y-71228815D01*
X161354494Y-71149463D01*
X161244180Y-71090498D01*
X161124482Y-71054188D01*
X161106518Y-71052419D01*
X161219608Y-70959608D01*
X161239803Y-70935000D01*
X168255752Y-70935000D01*
X168422499Y-70918577D01*
X168636447Y-70853676D01*
X168833623Y-70748284D01*
X169006449Y-70606449D01*
X169148284Y-70433623D01*
X169253676Y-70236447D01*
X169318577Y-70022499D01*
X169340491Y-69800000D01*
X169318577Y-69577501D01*
X169253676Y-69363553D01*
X169148284Y-69166377D01*
X169006449Y-68993551D01*
X168833623Y-68851716D01*
X168636447Y-68746324D01*
X168422499Y-68681423D01*
X168255752Y-68665000D01*
X160877497Y-68665000D01*
X161001101Y-68598932D01*
X161219608Y-68419608D01*
X161398932Y-68201101D01*
X161532182Y-67951808D01*
X161614236Y-67681309D01*
X161641943Y-67400000D01*
X161614236Y-67118691D01*
X161532182Y-66848192D01*
X161398932Y-66598899D01*
X161219608Y-66380392D01*
X161001101Y-66201068D01*
X160868142Y-66130000D01*
X161001101Y-66058932D01*
X161219608Y-65879608D01*
X161398932Y-65661101D01*
X161532182Y-65411808D01*
X161614236Y-65141309D01*
X161641943Y-64860000D01*
X161614236Y-64578691D01*
X161532182Y-64308192D01*
X161398932Y-64058899D01*
X161235000Y-63859147D01*
X161235000Y-63000000D01*
X170167815Y-63000000D01*
X170196487Y-63291111D01*
X170281401Y-63571034D01*
X170419294Y-63829014D01*
X170604866Y-64055134D01*
X170830986Y-64240706D01*
X171088966Y-64378599D01*
X171368889Y-64463513D01*
X171587050Y-64485000D01*
X171732950Y-64485000D01*
X171951111Y-64463513D01*
X172231034Y-64378599D01*
X172489014Y-64240706D01*
X172715134Y-64055134D01*
X172739607Y-64025313D01*
X172760498Y-64094180D01*
X172819463Y-64204494D01*
X172898815Y-64301185D01*
X172995506Y-64380537D01*
X173105820Y-64439502D01*
X173225518Y-64475812D01*
X173350000Y-64488072D01*
X173914250Y-64485000D01*
X174073000Y-64326250D01*
X174073000Y-63127000D01*
X174327000Y-63127000D01*
X174327000Y-64326250D01*
X174485750Y-64485000D01*
X175050000Y-64488072D01*
X175174482Y-64475812D01*
X175294180Y-64439502D01*
X175404494Y-64380537D01*
X175501185Y-64301185D01*
X175580537Y-64204494D01*
X175639502Y-64094180D01*
X175675812Y-63974482D01*
X175688072Y-63850000D01*
X175685000Y-63285750D01*
X175526250Y-63127000D01*
X174327000Y-63127000D01*
X174073000Y-63127000D01*
X174053000Y-63127000D01*
X174053000Y-62873000D01*
X174073000Y-62873000D01*
X174073000Y-61673750D01*
X174327000Y-61673750D01*
X174327000Y-62873000D01*
X175526250Y-62873000D01*
X175685000Y-62714250D01*
X175688072Y-62150000D01*
X175675812Y-62025518D01*
X175639502Y-61905820D01*
X175580537Y-61795506D01*
X175501185Y-61698815D01*
X175404494Y-61619463D01*
X175294180Y-61560498D01*
X175174482Y-61524188D01*
X175050000Y-61511928D01*
X174485750Y-61515000D01*
X174327000Y-61673750D01*
X174073000Y-61673750D01*
X173914250Y-61515000D01*
X173350000Y-61511928D01*
X173225518Y-61524188D01*
X173105820Y-61560498D01*
X172995506Y-61619463D01*
X172898815Y-61698815D01*
X172819463Y-61795506D01*
X172760498Y-61905820D01*
X172739607Y-61974687D01*
X172715134Y-61944866D01*
X172489014Y-61759294D01*
X172231034Y-61621401D01*
X171951111Y-61536487D01*
X171732950Y-61515000D01*
X171587050Y-61515000D01*
X171368889Y-61536487D01*
X171088966Y-61621401D01*
X170830986Y-61759294D01*
X170604866Y-61944866D01*
X170419294Y-62170986D01*
X170281401Y-62428966D01*
X170196487Y-62708889D01*
X170167815Y-63000000D01*
X161235000Y-63000000D01*
X161235000Y-57264395D01*
X163935450Y-59964846D01*
X163980392Y-60019608D01*
X164198899Y-60198932D01*
X164448192Y-60332182D01*
X164718691Y-60414236D01*
X165000000Y-60441943D01*
X165070492Y-60435000D01*
X183045482Y-60435000D01*
X183256299Y-60414236D01*
X183340001Y-60388846D01*
X183340001Y-77967711D01*
X183311375Y-78259660D01*
X183235965Y-78509429D01*
X183113477Y-78739794D01*
X182948579Y-78941979D01*
X182747546Y-79108288D01*
X182518046Y-79232378D01*
X182268805Y-79309531D01*
X181978911Y-79340000D01*
X127032279Y-79340000D01*
X126740340Y-79311375D01*
X126490571Y-79235965D01*
X126260206Y-79113477D01*
X126058021Y-78948579D01*
X125891712Y-78747546D01*
X125767622Y-78518046D01*
X125690469Y-78268805D01*
X125660000Y-77978911D01*
X125660000Y-77750000D01*
X139517815Y-77750000D01*
X139546487Y-78041111D01*
X139631401Y-78321034D01*
X139769294Y-78579014D01*
X139954866Y-78805134D01*
X140180986Y-78990706D01*
X140438966Y-79128599D01*
X140718889Y-79213513D01*
X140937050Y-79235000D01*
X141082950Y-79235000D01*
X141301111Y-79213513D01*
X141581034Y-79128599D01*
X141839014Y-78990706D01*
X142065134Y-78805134D01*
X142089607Y-78775313D01*
X142110498Y-78844180D01*
X142169463Y-78954494D01*
X142248815Y-79051185D01*
X142345506Y-79130537D01*
X142455820Y-79189502D01*
X142575518Y-79225812D01*
X142700000Y-79238072D01*
X143264250Y-79235000D01*
X143423000Y-79076250D01*
X143423000Y-77877000D01*
X143677000Y-77877000D01*
X143677000Y-79076250D01*
X143835750Y-79235000D01*
X144400000Y-79238072D01*
X144524482Y-79225812D01*
X144644180Y-79189502D01*
X144754494Y-79130537D01*
X144851185Y-79051185D01*
X144930537Y-78954494D01*
X144989502Y-78844180D01*
X145025812Y-78724482D01*
X145038072Y-78600000D01*
X145035000Y-78035750D01*
X144876250Y-77877000D01*
X143677000Y-77877000D01*
X143423000Y-77877000D01*
X143403000Y-77877000D01*
X143403000Y-77800000D01*
X158267815Y-77800000D01*
X158296487Y-78091111D01*
X158381401Y-78371034D01*
X158519294Y-78629014D01*
X158704866Y-78855134D01*
X158930986Y-79040706D01*
X159188966Y-79178599D01*
X159468889Y-79263513D01*
X159687050Y-79285000D01*
X159832950Y-79285000D01*
X160051111Y-79263513D01*
X160331034Y-79178599D01*
X160589014Y-79040706D01*
X160815134Y-78855134D01*
X160839607Y-78825313D01*
X160860498Y-78894180D01*
X160919463Y-79004494D01*
X160998815Y-79101185D01*
X161095506Y-79180537D01*
X161205820Y-79239502D01*
X161325518Y-79275812D01*
X161450000Y-79288072D01*
X162014250Y-79285000D01*
X162173000Y-79126250D01*
X162173000Y-77927000D01*
X162427000Y-77927000D01*
X162427000Y-79126250D01*
X162585750Y-79285000D01*
X163150000Y-79288072D01*
X163274482Y-79275812D01*
X163394180Y-79239502D01*
X163504494Y-79180537D01*
X163601185Y-79101185D01*
X163680537Y-79004494D01*
X163739502Y-78894180D01*
X163775812Y-78774482D01*
X163788072Y-78650000D01*
X163785000Y-78085750D01*
X163626250Y-77927000D01*
X162427000Y-77927000D01*
X162173000Y-77927000D01*
X162153000Y-77927000D01*
X162153000Y-77673000D01*
X162173000Y-77673000D01*
X162173000Y-76473750D01*
X162427000Y-76473750D01*
X162427000Y-77673000D01*
X163626250Y-77673000D01*
X163785000Y-77514250D01*
X163788072Y-76950000D01*
X175711928Y-76950000D01*
X175711928Y-78650000D01*
X175724188Y-78774482D01*
X175760498Y-78894180D01*
X175819463Y-79004494D01*
X175898815Y-79101185D01*
X175995506Y-79180537D01*
X176105820Y-79239502D01*
X176225518Y-79275812D01*
X176350000Y-79288072D01*
X178050000Y-79288072D01*
X178174482Y-79275812D01*
X178294180Y-79239502D01*
X178404494Y-79180537D01*
X178501185Y-79101185D01*
X178580537Y-79004494D01*
X178639502Y-78894180D01*
X178663966Y-78813534D01*
X178739731Y-78897588D01*
X178973080Y-79071641D01*
X179235901Y-79196825D01*
X179383110Y-79241476D01*
X179613000Y-79120155D01*
X179613000Y-77927000D01*
X179867000Y-77927000D01*
X179867000Y-79120155D01*
X180096890Y-79241476D01*
X180244099Y-79196825D01*
X180506920Y-79071641D01*
X180740269Y-78897588D01*
X180935178Y-78681355D01*
X181084157Y-78431252D01*
X181181481Y-78156891D01*
X181060814Y-77927000D01*
X179867000Y-77927000D01*
X179613000Y-77927000D01*
X179593000Y-77927000D01*
X179593000Y-77673000D01*
X179613000Y-77673000D01*
X179613000Y-76479845D01*
X179867000Y-76479845D01*
X179867000Y-77673000D01*
X181060814Y-77673000D01*
X181181481Y-77443109D01*
X181084157Y-77168748D01*
X180935178Y-76918645D01*
X180740269Y-76702412D01*
X180506920Y-76528359D01*
X180244099Y-76403175D01*
X180096890Y-76358524D01*
X179867000Y-76479845D01*
X179613000Y-76479845D01*
X179383110Y-76358524D01*
X179235901Y-76403175D01*
X178973080Y-76528359D01*
X178739731Y-76702412D01*
X178663966Y-76786466D01*
X178639502Y-76705820D01*
X178580537Y-76595506D01*
X178501185Y-76498815D01*
X178404494Y-76419463D01*
X178294180Y-76360498D01*
X178174482Y-76324188D01*
X178050000Y-76311928D01*
X176350000Y-76311928D01*
X176225518Y-76324188D01*
X176105820Y-76360498D01*
X175995506Y-76419463D01*
X175898815Y-76498815D01*
X175819463Y-76595506D01*
X175760498Y-76705820D01*
X175724188Y-76825518D01*
X175711928Y-76950000D01*
X163788072Y-76950000D01*
X163775812Y-76825518D01*
X163739502Y-76705820D01*
X163680537Y-76595506D01*
X163601185Y-76498815D01*
X163504494Y-76419463D01*
X163394180Y-76360498D01*
X163274482Y-76324188D01*
X163150000Y-76311928D01*
X162585750Y-76315000D01*
X162427000Y-76473750D01*
X162173000Y-76473750D01*
X162014250Y-76315000D01*
X161450000Y-76311928D01*
X161325518Y-76324188D01*
X161205820Y-76360498D01*
X161095506Y-76419463D01*
X160998815Y-76498815D01*
X160919463Y-76595506D01*
X160860498Y-76705820D01*
X160839607Y-76774687D01*
X160815134Y-76744866D01*
X160589014Y-76559294D01*
X160331034Y-76421401D01*
X160051111Y-76336487D01*
X159832950Y-76315000D01*
X159687050Y-76315000D01*
X159468889Y-76336487D01*
X159188966Y-76421401D01*
X158930986Y-76559294D01*
X158704866Y-76744866D01*
X158519294Y-76970986D01*
X158381401Y-77228966D01*
X158296487Y-77508889D01*
X158267815Y-77800000D01*
X143403000Y-77800000D01*
X143403000Y-77623000D01*
X143423000Y-77623000D01*
X143423000Y-76423750D01*
X143677000Y-76423750D01*
X143677000Y-77623000D01*
X144876250Y-77623000D01*
X145035000Y-77464250D01*
X145038072Y-76900000D01*
X145025812Y-76775518D01*
X144989502Y-76655820D01*
X144930537Y-76545506D01*
X144851185Y-76448815D01*
X144754494Y-76369463D01*
X144644180Y-76310498D01*
X144524482Y-76274188D01*
X144400000Y-76261928D01*
X143835750Y-76265000D01*
X143677000Y-76423750D01*
X143423000Y-76423750D01*
X143264250Y-76265000D01*
X142700000Y-76261928D01*
X142575518Y-76274188D01*
X142455820Y-76310498D01*
X142345506Y-76369463D01*
X142248815Y-76448815D01*
X142169463Y-76545506D01*
X142110498Y-76655820D01*
X142089607Y-76724687D01*
X142065134Y-76694866D01*
X141839014Y-76509294D01*
X141581034Y-76371401D01*
X141301111Y-76286487D01*
X141082950Y-76265000D01*
X140937050Y-76265000D01*
X140718889Y-76286487D01*
X140438966Y-76371401D01*
X140180986Y-76509294D01*
X139954866Y-76694866D01*
X139769294Y-76920986D01*
X139631401Y-77178966D01*
X139546487Y-77458889D01*
X139517815Y-77750000D01*
X125660000Y-77750000D01*
X125660000Y-72829039D01*
X150388096Y-72829039D01*
X150405633Y-72911818D01*
X150516285Y-73171646D01*
X150675500Y-73404895D01*
X150877161Y-73602601D01*
X151113517Y-73757166D01*
X151375486Y-73862650D01*
X151653000Y-73915000D01*
X152053000Y-73915000D01*
X152053000Y-72607000D01*
X152307000Y-72607000D01*
X152307000Y-73915000D01*
X152707000Y-73915000D01*
X152984514Y-73862650D01*
X153246483Y-73757166D01*
X153482839Y-73602601D01*
X153684500Y-73404895D01*
X153843715Y-73171646D01*
X153954367Y-72911818D01*
X153971904Y-72829039D01*
X153849915Y-72607000D01*
X152307000Y-72607000D01*
X152053000Y-72607000D01*
X150510085Y-72607000D01*
X150388096Y-72829039D01*
X125660000Y-72829039D01*
X125660000Y-64860000D01*
X150338057Y-64860000D01*
X150365764Y-65141309D01*
X150447818Y-65411808D01*
X150581068Y-65661101D01*
X150760392Y-65879608D01*
X150978899Y-66058932D01*
X151111858Y-66130000D01*
X150978899Y-66201068D01*
X150760392Y-66380392D01*
X150581068Y-66598899D01*
X150447818Y-66848192D01*
X150365764Y-67118691D01*
X150338057Y-67400000D01*
X150365764Y-67681309D01*
X150447818Y-67951808D01*
X150581068Y-68201101D01*
X150760392Y-68419608D01*
X150978899Y-68598932D01*
X151111858Y-68670000D01*
X150978899Y-68741068D01*
X150760392Y-68920392D01*
X150581068Y-69138899D01*
X150447818Y-69388192D01*
X150365764Y-69658691D01*
X150338057Y-69940000D01*
X150365764Y-70221309D01*
X150447818Y-70491808D01*
X150581068Y-70741101D01*
X150760392Y-70959608D01*
X150978899Y-71138932D01*
X151106741Y-71207265D01*
X150877161Y-71357399D01*
X150675500Y-71555105D01*
X150516285Y-71788354D01*
X150405633Y-72048182D01*
X150388096Y-72130961D01*
X150510085Y-72353000D01*
X152053000Y-72353000D01*
X152053000Y-72333000D01*
X152307000Y-72333000D01*
X152307000Y-72353000D01*
X153849915Y-72353000D01*
X153971904Y-72130961D01*
X153954367Y-72048182D01*
X153843715Y-71788354D01*
X153684500Y-71555105D01*
X153482839Y-71357399D01*
X153253259Y-71207265D01*
X153381101Y-71138932D01*
X153599608Y-70959608D01*
X153778932Y-70741101D01*
X153912182Y-70491808D01*
X153994236Y-70221309D01*
X154021943Y-69940000D01*
X153994236Y-69658691D01*
X153912182Y-69388192D01*
X153778932Y-69138899D01*
X153599608Y-68920392D01*
X153381101Y-68741068D01*
X153248142Y-68670000D01*
X153381101Y-68598932D01*
X153599608Y-68419608D01*
X153778932Y-68201101D01*
X153912182Y-67951808D01*
X153994236Y-67681309D01*
X154021943Y-67400000D01*
X153994236Y-67118691D01*
X153912182Y-66848192D01*
X153778932Y-66598899D01*
X153599608Y-66380392D01*
X153381101Y-66201068D01*
X153248142Y-66130000D01*
X153381101Y-66058932D01*
X153599608Y-65879608D01*
X153778932Y-65661101D01*
X153912182Y-65411808D01*
X153994236Y-65141309D01*
X154021943Y-64860000D01*
X153994236Y-64578691D01*
X153912182Y-64308192D01*
X153778932Y-64058899D01*
X153599608Y-63840392D01*
X153381101Y-63661068D01*
X153131808Y-63527818D01*
X152861309Y-63445764D01*
X152650492Y-63425000D01*
X151709508Y-63425000D01*
X151498691Y-63445764D01*
X151228192Y-63527818D01*
X150978899Y-63661068D01*
X150760392Y-63840392D01*
X150581068Y-64058899D01*
X150447818Y-64308192D01*
X150365764Y-64578691D01*
X150338057Y-64860000D01*
X125660000Y-64860000D01*
X125660000Y-46450000D01*
X128307815Y-46450000D01*
X128336487Y-46741111D01*
X128421401Y-47021034D01*
X128559294Y-47279014D01*
X128744866Y-47505134D01*
X128774687Y-47529607D01*
X128705820Y-47550498D01*
X128595506Y-47609463D01*
X128498815Y-47688815D01*
X128419463Y-47785506D01*
X128360498Y-47895820D01*
X128324188Y-48015518D01*
X128311928Y-48140000D01*
X128311928Y-49840000D01*
X128324188Y-49964482D01*
X128360498Y-50084180D01*
X128419463Y-50194494D01*
X128498815Y-50291185D01*
X128595506Y-50370537D01*
X128705820Y-50429502D01*
X128825518Y-50465812D01*
X128950000Y-50478072D01*
X130650000Y-50478072D01*
X130774482Y-50465812D01*
X130894180Y-50429502D01*
X131004494Y-50370537D01*
X131101185Y-50291185D01*
X131180537Y-50194494D01*
X131239502Y-50084180D01*
X131275812Y-49964482D01*
X131288072Y-49840000D01*
X131288072Y-48140000D01*
X131275812Y-48015518D01*
X131239502Y-47895820D01*
X131180537Y-47785506D01*
X131101185Y-47688815D01*
X131004494Y-47609463D01*
X130894180Y-47550498D01*
X130825313Y-47529607D01*
X130855134Y-47505134D01*
X131040706Y-47279014D01*
X131178599Y-47021034D01*
X131263513Y-46741111D01*
X131292185Y-46450000D01*
X131263513Y-46158889D01*
X131178599Y-45878966D01*
X131040706Y-45620986D01*
X130855134Y-45394866D01*
X130629014Y-45209294D01*
X130371034Y-45071401D01*
X130091111Y-44986487D01*
X129872950Y-44965000D01*
X129727050Y-44965000D01*
X129508889Y-44986487D01*
X129228966Y-45071401D01*
X128970986Y-45209294D01*
X128744866Y-45394866D01*
X128559294Y-45620986D01*
X128421401Y-45878966D01*
X128336487Y-46158889D01*
X128307815Y-46450000D01*
X125660000Y-46450000D01*
X125660000Y-43650000D01*
X128311928Y-43650000D01*
X128324188Y-43774482D01*
X128360498Y-43894180D01*
X128419463Y-44004494D01*
X128498815Y-44101185D01*
X128595506Y-44180537D01*
X128705820Y-44239502D01*
X128825518Y-44275812D01*
X128950000Y-44288072D01*
X129514250Y-44285000D01*
X129673000Y-44126250D01*
X129673000Y-42927000D01*
X129927000Y-42927000D01*
X129927000Y-44126250D01*
X130085750Y-44285000D01*
X130650000Y-44288072D01*
X130774482Y-44275812D01*
X130894180Y-44239502D01*
X131004494Y-44180537D01*
X131101185Y-44101185D01*
X131180537Y-44004494D01*
X131239502Y-43894180D01*
X131275812Y-43774482D01*
X131288072Y-43650000D01*
X131285000Y-43085750D01*
X131126250Y-42927000D01*
X129927000Y-42927000D01*
X129673000Y-42927000D01*
X128473750Y-42927000D01*
X128315000Y-43085750D01*
X128311928Y-43650000D01*
X125660000Y-43650000D01*
X125660000Y-41950000D01*
X128311928Y-41950000D01*
X128315000Y-42514250D01*
X128473750Y-42673000D01*
X129673000Y-42673000D01*
X129673000Y-41473750D01*
X129927000Y-41473750D01*
X129927000Y-42673000D01*
X131126250Y-42673000D01*
X131285000Y-42514250D01*
X131288072Y-41950000D01*
X161311928Y-41950000D01*
X161315000Y-42514250D01*
X161473750Y-42673000D01*
X162673000Y-42673000D01*
X162673000Y-41473750D01*
X162927000Y-41473750D01*
X162927000Y-42673000D01*
X164126250Y-42673000D01*
X164285000Y-42514250D01*
X164288072Y-41950000D01*
X164275812Y-41825518D01*
X164239502Y-41705820D01*
X164180537Y-41595506D01*
X164101185Y-41498815D01*
X164004494Y-41419463D01*
X163894180Y-41360498D01*
X163774482Y-41324188D01*
X163650000Y-41311928D01*
X163085750Y-41315000D01*
X162927000Y-41473750D01*
X162673000Y-41473750D01*
X162514250Y-41315000D01*
X161950000Y-41311928D01*
X161825518Y-41324188D01*
X161705820Y-41360498D01*
X161595506Y-41419463D01*
X161498815Y-41498815D01*
X161419463Y-41595506D01*
X161360498Y-41705820D01*
X161324188Y-41825518D01*
X161311928Y-41950000D01*
X131288072Y-41950000D01*
X131275812Y-41825518D01*
X131239502Y-41705820D01*
X131180537Y-41595506D01*
X131101185Y-41498815D01*
X131004494Y-41419463D01*
X130894180Y-41360498D01*
X130774482Y-41324188D01*
X130650000Y-41311928D01*
X130085750Y-41315000D01*
X129927000Y-41473750D01*
X129673000Y-41473750D01*
X129514250Y-41315000D01*
X128950000Y-41311928D01*
X128825518Y-41324188D01*
X128705820Y-41360498D01*
X128595506Y-41419463D01*
X128498815Y-41498815D01*
X128419463Y-41595506D01*
X128360498Y-41705820D01*
X128324188Y-41825518D01*
X128311928Y-41950000D01*
X125660000Y-41950000D01*
X125660000Y-38032279D01*
X125688625Y-37740341D01*
X125764035Y-37490571D01*
X125886522Y-37260208D01*
X126051422Y-37058020D01*
X126252450Y-36891714D01*
X126481954Y-36767622D01*
X126731195Y-36690469D01*
X127021088Y-36660000D01*
X181967721Y-36660000D01*
X182259659Y-36688625D01*
M02*
