G04 #@! TF.GenerationSoftware,KiCad,Pcbnew,(5.1.5)-3*
G04 #@! TF.CreationDate,2020-02-05T13:37:12+11:00*
G04 #@! TF.ProjectId,Heterodyne,48657465-726f-4647-996e-652e6b696361,rev?*
G04 #@! TF.SameCoordinates,Original*
G04 #@! TF.FileFunction,Copper,L2,Bot*
G04 #@! TF.FilePolarity,Positive*
%FSLAX46Y46*%
G04 Gerber Fmt 4.6, Leading zero omitted, Abs format (unit mm)*
G04 Created by KiCad (PCBNEW (5.1.5)-3) date 2020-02-05 13:37:13*
%MOMM*%
%LPD*%
G04 APERTURE LIST*
%ADD10C,0.100000*%
%ADD11R,1.700000X1.700000*%
%ADD12O,1.700000X1.700000*%
%ADD13R,1.600000X1.600000*%
%ADD14O,1.600000X1.600000*%
%ADD15C,0.800000*%
%ADD16C,0.800000*%
%ADD17C,1.000000*%
%ADD18C,0.400000*%
%ADD19C,0.600000*%
%ADD20C,0.254000*%
G04 APERTURE END LIST*
G04 #@! TA.AperFunction,SMDPad,CuDef*
D10*
G36*
X168816004Y-92344204D02*
G01*
X168840273Y-92347804D01*
X168864071Y-92353765D01*
X168887171Y-92362030D01*
X168909349Y-92372520D01*
X168930393Y-92385133D01*
X168950098Y-92399747D01*
X168968277Y-92416223D01*
X168984753Y-92434402D01*
X168999367Y-92454107D01*
X169011980Y-92475151D01*
X169022470Y-92497329D01*
X169030735Y-92520429D01*
X169036696Y-92544227D01*
X169040296Y-92568496D01*
X169041500Y-92593000D01*
X169041500Y-93843000D01*
X169040296Y-93867504D01*
X169036696Y-93891773D01*
X169030735Y-93915571D01*
X169022470Y-93938671D01*
X169011980Y-93960849D01*
X168999367Y-93981893D01*
X168984753Y-94001598D01*
X168968277Y-94019777D01*
X168950098Y-94036253D01*
X168930393Y-94050867D01*
X168909349Y-94063480D01*
X168887171Y-94073970D01*
X168864071Y-94082235D01*
X168840273Y-94088196D01*
X168816004Y-94091796D01*
X168791500Y-94093000D01*
X167866500Y-94093000D01*
X167841996Y-94091796D01*
X167817727Y-94088196D01*
X167793929Y-94082235D01*
X167770829Y-94073970D01*
X167748651Y-94063480D01*
X167727607Y-94050867D01*
X167707902Y-94036253D01*
X167689723Y-94019777D01*
X167673247Y-94001598D01*
X167658633Y-93981893D01*
X167646020Y-93960849D01*
X167635530Y-93938671D01*
X167627265Y-93915571D01*
X167621304Y-93891773D01*
X167617704Y-93867504D01*
X167616500Y-93843000D01*
X167616500Y-92593000D01*
X167617704Y-92568496D01*
X167621304Y-92544227D01*
X167627265Y-92520429D01*
X167635530Y-92497329D01*
X167646020Y-92475151D01*
X167658633Y-92454107D01*
X167673247Y-92434402D01*
X167689723Y-92416223D01*
X167707902Y-92399747D01*
X167727607Y-92385133D01*
X167748651Y-92372520D01*
X167770829Y-92362030D01*
X167793929Y-92353765D01*
X167817727Y-92347804D01*
X167841996Y-92344204D01*
X167866500Y-92343000D01*
X168791500Y-92343000D01*
X168816004Y-92344204D01*
G37*
G04 #@! TD.AperFunction*
G04 #@! TA.AperFunction,SMDPad,CuDef*
G36*
X165841004Y-92344204D02*
G01*
X165865273Y-92347804D01*
X165889071Y-92353765D01*
X165912171Y-92362030D01*
X165934349Y-92372520D01*
X165955393Y-92385133D01*
X165975098Y-92399747D01*
X165993277Y-92416223D01*
X166009753Y-92434402D01*
X166024367Y-92454107D01*
X166036980Y-92475151D01*
X166047470Y-92497329D01*
X166055735Y-92520429D01*
X166061696Y-92544227D01*
X166065296Y-92568496D01*
X166066500Y-92593000D01*
X166066500Y-93843000D01*
X166065296Y-93867504D01*
X166061696Y-93891773D01*
X166055735Y-93915571D01*
X166047470Y-93938671D01*
X166036980Y-93960849D01*
X166024367Y-93981893D01*
X166009753Y-94001598D01*
X165993277Y-94019777D01*
X165975098Y-94036253D01*
X165955393Y-94050867D01*
X165934349Y-94063480D01*
X165912171Y-94073970D01*
X165889071Y-94082235D01*
X165865273Y-94088196D01*
X165841004Y-94091796D01*
X165816500Y-94093000D01*
X164891500Y-94093000D01*
X164866996Y-94091796D01*
X164842727Y-94088196D01*
X164818929Y-94082235D01*
X164795829Y-94073970D01*
X164773651Y-94063480D01*
X164752607Y-94050867D01*
X164732902Y-94036253D01*
X164714723Y-94019777D01*
X164698247Y-94001598D01*
X164683633Y-93981893D01*
X164671020Y-93960849D01*
X164660530Y-93938671D01*
X164652265Y-93915571D01*
X164646304Y-93891773D01*
X164642704Y-93867504D01*
X164641500Y-93843000D01*
X164641500Y-92593000D01*
X164642704Y-92568496D01*
X164646304Y-92544227D01*
X164652265Y-92520429D01*
X164660530Y-92497329D01*
X164671020Y-92475151D01*
X164683633Y-92454107D01*
X164698247Y-92434402D01*
X164714723Y-92416223D01*
X164732902Y-92399747D01*
X164752607Y-92385133D01*
X164773651Y-92372520D01*
X164795829Y-92362030D01*
X164818929Y-92353765D01*
X164842727Y-92347804D01*
X164866996Y-92344204D01*
X164891500Y-92343000D01*
X165816500Y-92343000D01*
X165841004Y-92344204D01*
G37*
G04 #@! TD.AperFunction*
D11*
X140970000Y-100965000D03*
D12*
X138430000Y-100965000D03*
X135890000Y-100965000D03*
X133350000Y-100965000D03*
X140335000Y-85725000D03*
D11*
X137795000Y-85725000D03*
X163195000Y-102235000D03*
D12*
X160655000Y-102235000D03*
X160655000Y-78105000D03*
D11*
X163195000Y-78105000D03*
X133985000Y-80645000D03*
D12*
X133985000Y-78105000D03*
D11*
X155575000Y-90805000D03*
D12*
X155575000Y-88265000D03*
G04 #@! TA.AperFunction,SMDPad,CuDef*
D10*
G36*
X167499505Y-89979204D02*
G01*
X167523773Y-89982804D01*
X167547572Y-89988765D01*
X167570671Y-89997030D01*
X167592850Y-90007520D01*
X167613893Y-90020132D01*
X167633599Y-90034747D01*
X167651777Y-90051223D01*
X167668253Y-90069401D01*
X167682868Y-90089107D01*
X167695480Y-90110150D01*
X167705970Y-90132329D01*
X167714235Y-90155428D01*
X167720196Y-90179227D01*
X167723796Y-90203495D01*
X167725000Y-90227999D01*
X167725000Y-91128001D01*
X167723796Y-91152505D01*
X167720196Y-91176773D01*
X167714235Y-91200572D01*
X167705970Y-91223671D01*
X167695480Y-91245850D01*
X167682868Y-91266893D01*
X167668253Y-91286599D01*
X167651777Y-91304777D01*
X167633599Y-91321253D01*
X167613893Y-91335868D01*
X167592850Y-91348480D01*
X167570671Y-91358970D01*
X167547572Y-91367235D01*
X167523773Y-91373196D01*
X167499505Y-91376796D01*
X167475001Y-91378000D01*
X166824999Y-91378000D01*
X166800495Y-91376796D01*
X166776227Y-91373196D01*
X166752428Y-91367235D01*
X166729329Y-91358970D01*
X166707150Y-91348480D01*
X166686107Y-91335868D01*
X166666401Y-91321253D01*
X166648223Y-91304777D01*
X166631747Y-91286599D01*
X166617132Y-91266893D01*
X166604520Y-91245850D01*
X166594030Y-91223671D01*
X166585765Y-91200572D01*
X166579804Y-91176773D01*
X166576204Y-91152505D01*
X166575000Y-91128001D01*
X166575000Y-90227999D01*
X166576204Y-90203495D01*
X166579804Y-90179227D01*
X166585765Y-90155428D01*
X166594030Y-90132329D01*
X166604520Y-90110150D01*
X166617132Y-90089107D01*
X166631747Y-90069401D01*
X166648223Y-90051223D01*
X166666401Y-90034747D01*
X166686107Y-90020132D01*
X166707150Y-90007520D01*
X166729329Y-89997030D01*
X166752428Y-89988765D01*
X166776227Y-89982804D01*
X166800495Y-89979204D01*
X166824999Y-89978000D01*
X167475001Y-89978000D01*
X167499505Y-89979204D01*
G37*
G04 #@! TD.AperFunction*
G04 #@! TA.AperFunction,SMDPad,CuDef*
G36*
X165449505Y-89979204D02*
G01*
X165473773Y-89982804D01*
X165497572Y-89988765D01*
X165520671Y-89997030D01*
X165542850Y-90007520D01*
X165563893Y-90020132D01*
X165583599Y-90034747D01*
X165601777Y-90051223D01*
X165618253Y-90069401D01*
X165632868Y-90089107D01*
X165645480Y-90110150D01*
X165655970Y-90132329D01*
X165664235Y-90155428D01*
X165670196Y-90179227D01*
X165673796Y-90203495D01*
X165675000Y-90227999D01*
X165675000Y-91128001D01*
X165673796Y-91152505D01*
X165670196Y-91176773D01*
X165664235Y-91200572D01*
X165655970Y-91223671D01*
X165645480Y-91245850D01*
X165632868Y-91266893D01*
X165618253Y-91286599D01*
X165601777Y-91304777D01*
X165583599Y-91321253D01*
X165563893Y-91335868D01*
X165542850Y-91348480D01*
X165520671Y-91358970D01*
X165497572Y-91367235D01*
X165473773Y-91373196D01*
X165449505Y-91376796D01*
X165425001Y-91378000D01*
X164774999Y-91378000D01*
X164750495Y-91376796D01*
X164726227Y-91373196D01*
X164702428Y-91367235D01*
X164679329Y-91358970D01*
X164657150Y-91348480D01*
X164636107Y-91335868D01*
X164616401Y-91321253D01*
X164598223Y-91304777D01*
X164581747Y-91286599D01*
X164567132Y-91266893D01*
X164554520Y-91245850D01*
X164544030Y-91223671D01*
X164535765Y-91200572D01*
X164529804Y-91176773D01*
X164526204Y-91152505D01*
X164525000Y-91128001D01*
X164525000Y-90227999D01*
X164526204Y-90203495D01*
X164529804Y-90179227D01*
X164535765Y-90155428D01*
X164544030Y-90132329D01*
X164554520Y-90110150D01*
X164567132Y-90089107D01*
X164581747Y-90069401D01*
X164598223Y-90051223D01*
X164616401Y-90034747D01*
X164636107Y-90020132D01*
X164657150Y-90007520D01*
X164679329Y-89997030D01*
X164702428Y-89988765D01*
X164726227Y-89982804D01*
X164750495Y-89979204D01*
X164774999Y-89978000D01*
X165425001Y-89978000D01*
X165449505Y-89979204D01*
G37*
G04 #@! TD.AperFunction*
G04 #@! TA.AperFunction,SMDPad,CuDef*
G36*
X164179505Y-83121204D02*
G01*
X164203773Y-83124804D01*
X164227572Y-83130765D01*
X164250671Y-83139030D01*
X164272850Y-83149520D01*
X164293893Y-83162132D01*
X164313599Y-83176747D01*
X164331777Y-83193223D01*
X164348253Y-83211401D01*
X164362868Y-83231107D01*
X164375480Y-83252150D01*
X164385970Y-83274329D01*
X164394235Y-83297428D01*
X164400196Y-83321227D01*
X164403796Y-83345495D01*
X164405000Y-83369999D01*
X164405000Y-84270001D01*
X164403796Y-84294505D01*
X164400196Y-84318773D01*
X164394235Y-84342572D01*
X164385970Y-84365671D01*
X164375480Y-84387850D01*
X164362868Y-84408893D01*
X164348253Y-84428599D01*
X164331777Y-84446777D01*
X164313599Y-84463253D01*
X164293893Y-84477868D01*
X164272850Y-84490480D01*
X164250671Y-84500970D01*
X164227572Y-84509235D01*
X164203773Y-84515196D01*
X164179505Y-84518796D01*
X164155001Y-84520000D01*
X163504999Y-84520000D01*
X163480495Y-84518796D01*
X163456227Y-84515196D01*
X163432428Y-84509235D01*
X163409329Y-84500970D01*
X163387150Y-84490480D01*
X163366107Y-84477868D01*
X163346401Y-84463253D01*
X163328223Y-84446777D01*
X163311747Y-84428599D01*
X163297132Y-84408893D01*
X163284520Y-84387850D01*
X163274030Y-84365671D01*
X163265765Y-84342572D01*
X163259804Y-84318773D01*
X163256204Y-84294505D01*
X163255000Y-84270001D01*
X163255000Y-83369999D01*
X163256204Y-83345495D01*
X163259804Y-83321227D01*
X163265765Y-83297428D01*
X163274030Y-83274329D01*
X163284520Y-83252150D01*
X163297132Y-83231107D01*
X163311747Y-83211401D01*
X163328223Y-83193223D01*
X163346401Y-83176747D01*
X163366107Y-83162132D01*
X163387150Y-83149520D01*
X163409329Y-83139030D01*
X163432428Y-83130765D01*
X163456227Y-83124804D01*
X163480495Y-83121204D01*
X163504999Y-83120000D01*
X164155001Y-83120000D01*
X164179505Y-83121204D01*
G37*
G04 #@! TD.AperFunction*
G04 #@! TA.AperFunction,SMDPad,CuDef*
G36*
X166229505Y-83121204D02*
G01*
X166253773Y-83124804D01*
X166277572Y-83130765D01*
X166300671Y-83139030D01*
X166322850Y-83149520D01*
X166343893Y-83162132D01*
X166363599Y-83176747D01*
X166381777Y-83193223D01*
X166398253Y-83211401D01*
X166412868Y-83231107D01*
X166425480Y-83252150D01*
X166435970Y-83274329D01*
X166444235Y-83297428D01*
X166450196Y-83321227D01*
X166453796Y-83345495D01*
X166455000Y-83369999D01*
X166455000Y-84270001D01*
X166453796Y-84294505D01*
X166450196Y-84318773D01*
X166444235Y-84342572D01*
X166435970Y-84365671D01*
X166425480Y-84387850D01*
X166412868Y-84408893D01*
X166398253Y-84428599D01*
X166381777Y-84446777D01*
X166363599Y-84463253D01*
X166343893Y-84477868D01*
X166322850Y-84490480D01*
X166300671Y-84500970D01*
X166277572Y-84509235D01*
X166253773Y-84515196D01*
X166229505Y-84518796D01*
X166205001Y-84520000D01*
X165554999Y-84520000D01*
X165530495Y-84518796D01*
X165506227Y-84515196D01*
X165482428Y-84509235D01*
X165459329Y-84500970D01*
X165437150Y-84490480D01*
X165416107Y-84477868D01*
X165396401Y-84463253D01*
X165378223Y-84446777D01*
X165361747Y-84428599D01*
X165347132Y-84408893D01*
X165334520Y-84387850D01*
X165324030Y-84365671D01*
X165315765Y-84342572D01*
X165309804Y-84318773D01*
X165306204Y-84294505D01*
X165305000Y-84270001D01*
X165305000Y-83369999D01*
X165306204Y-83345495D01*
X165309804Y-83321227D01*
X165315765Y-83297428D01*
X165324030Y-83274329D01*
X165334520Y-83252150D01*
X165347132Y-83231107D01*
X165361747Y-83211401D01*
X165378223Y-83193223D01*
X165396401Y-83176747D01*
X165416107Y-83162132D01*
X165437150Y-83149520D01*
X165459329Y-83139030D01*
X165482428Y-83130765D01*
X165506227Y-83124804D01*
X165530495Y-83121204D01*
X165554999Y-83120000D01*
X166205001Y-83120000D01*
X166229505Y-83121204D01*
G37*
G04 #@! TD.AperFunction*
G04 #@! TA.AperFunction,SMDPad,CuDef*
G36*
X166465505Y-85407204D02*
G01*
X166489773Y-85410804D01*
X166513572Y-85416765D01*
X166536671Y-85425030D01*
X166558850Y-85435520D01*
X166579893Y-85448132D01*
X166599599Y-85462747D01*
X166617777Y-85479223D01*
X166634253Y-85497401D01*
X166648868Y-85517107D01*
X166661480Y-85538150D01*
X166671970Y-85560329D01*
X166680235Y-85583428D01*
X166686196Y-85607227D01*
X166689796Y-85631495D01*
X166691000Y-85655999D01*
X166691000Y-86556001D01*
X166689796Y-86580505D01*
X166686196Y-86604773D01*
X166680235Y-86628572D01*
X166671970Y-86651671D01*
X166661480Y-86673850D01*
X166648868Y-86694893D01*
X166634253Y-86714599D01*
X166617777Y-86732777D01*
X166599599Y-86749253D01*
X166579893Y-86763868D01*
X166558850Y-86776480D01*
X166536671Y-86786970D01*
X166513572Y-86795235D01*
X166489773Y-86801196D01*
X166465505Y-86804796D01*
X166441001Y-86806000D01*
X165790999Y-86806000D01*
X165766495Y-86804796D01*
X165742227Y-86801196D01*
X165718428Y-86795235D01*
X165695329Y-86786970D01*
X165673150Y-86776480D01*
X165652107Y-86763868D01*
X165632401Y-86749253D01*
X165614223Y-86732777D01*
X165597747Y-86714599D01*
X165583132Y-86694893D01*
X165570520Y-86673850D01*
X165560030Y-86651671D01*
X165551765Y-86628572D01*
X165545804Y-86604773D01*
X165542204Y-86580505D01*
X165541000Y-86556001D01*
X165541000Y-85655999D01*
X165542204Y-85631495D01*
X165545804Y-85607227D01*
X165551765Y-85583428D01*
X165560030Y-85560329D01*
X165570520Y-85538150D01*
X165583132Y-85517107D01*
X165597747Y-85497401D01*
X165614223Y-85479223D01*
X165632401Y-85462747D01*
X165652107Y-85448132D01*
X165673150Y-85435520D01*
X165695329Y-85425030D01*
X165718428Y-85416765D01*
X165742227Y-85410804D01*
X165766495Y-85407204D01*
X165790999Y-85406000D01*
X166441001Y-85406000D01*
X166465505Y-85407204D01*
G37*
G04 #@! TD.AperFunction*
G04 #@! TA.AperFunction,SMDPad,CuDef*
G36*
X164415505Y-85407204D02*
G01*
X164439773Y-85410804D01*
X164463572Y-85416765D01*
X164486671Y-85425030D01*
X164508850Y-85435520D01*
X164529893Y-85448132D01*
X164549599Y-85462747D01*
X164567777Y-85479223D01*
X164584253Y-85497401D01*
X164598868Y-85517107D01*
X164611480Y-85538150D01*
X164621970Y-85560329D01*
X164630235Y-85583428D01*
X164636196Y-85607227D01*
X164639796Y-85631495D01*
X164641000Y-85655999D01*
X164641000Y-86556001D01*
X164639796Y-86580505D01*
X164636196Y-86604773D01*
X164630235Y-86628572D01*
X164621970Y-86651671D01*
X164611480Y-86673850D01*
X164598868Y-86694893D01*
X164584253Y-86714599D01*
X164567777Y-86732777D01*
X164549599Y-86749253D01*
X164529893Y-86763868D01*
X164508850Y-86776480D01*
X164486671Y-86786970D01*
X164463572Y-86795235D01*
X164439773Y-86801196D01*
X164415505Y-86804796D01*
X164391001Y-86806000D01*
X163740999Y-86806000D01*
X163716495Y-86804796D01*
X163692227Y-86801196D01*
X163668428Y-86795235D01*
X163645329Y-86786970D01*
X163623150Y-86776480D01*
X163602107Y-86763868D01*
X163582401Y-86749253D01*
X163564223Y-86732777D01*
X163547747Y-86714599D01*
X163533132Y-86694893D01*
X163520520Y-86673850D01*
X163510030Y-86651671D01*
X163501765Y-86628572D01*
X163495804Y-86604773D01*
X163492204Y-86580505D01*
X163491000Y-86556001D01*
X163491000Y-85655999D01*
X163492204Y-85631495D01*
X163495804Y-85607227D01*
X163501765Y-85583428D01*
X163510030Y-85560329D01*
X163520520Y-85538150D01*
X163533132Y-85517107D01*
X163547747Y-85497401D01*
X163564223Y-85479223D01*
X163582401Y-85462747D01*
X163602107Y-85448132D01*
X163623150Y-85435520D01*
X163645329Y-85425030D01*
X163668428Y-85416765D01*
X163692227Y-85410804D01*
X163716495Y-85407204D01*
X163740999Y-85406000D01*
X164391001Y-85406000D01*
X164415505Y-85407204D01*
G37*
G04 #@! TD.AperFunction*
G04 #@! TA.AperFunction,SMDPad,CuDef*
G36*
X163034505Y-92916204D02*
G01*
X163058773Y-92919804D01*
X163082572Y-92925765D01*
X163105671Y-92934030D01*
X163127850Y-92944520D01*
X163148893Y-92957132D01*
X163168599Y-92971747D01*
X163186777Y-92988223D01*
X163203253Y-93006401D01*
X163217868Y-93026107D01*
X163230480Y-93047150D01*
X163240970Y-93069329D01*
X163249235Y-93092428D01*
X163255196Y-93116227D01*
X163258796Y-93140495D01*
X163260000Y-93164999D01*
X163260000Y-93815001D01*
X163258796Y-93839505D01*
X163255196Y-93863773D01*
X163249235Y-93887572D01*
X163240970Y-93910671D01*
X163230480Y-93932850D01*
X163217868Y-93953893D01*
X163203253Y-93973599D01*
X163186777Y-93991777D01*
X163168599Y-94008253D01*
X163148893Y-94022868D01*
X163127850Y-94035480D01*
X163105671Y-94045970D01*
X163082572Y-94054235D01*
X163058773Y-94060196D01*
X163034505Y-94063796D01*
X163010001Y-94065000D01*
X162109999Y-94065000D01*
X162085495Y-94063796D01*
X162061227Y-94060196D01*
X162037428Y-94054235D01*
X162014329Y-94045970D01*
X161992150Y-94035480D01*
X161971107Y-94022868D01*
X161951401Y-94008253D01*
X161933223Y-93991777D01*
X161916747Y-93973599D01*
X161902132Y-93953893D01*
X161889520Y-93932850D01*
X161879030Y-93910671D01*
X161870765Y-93887572D01*
X161864804Y-93863773D01*
X161861204Y-93839505D01*
X161860000Y-93815001D01*
X161860000Y-93164999D01*
X161861204Y-93140495D01*
X161864804Y-93116227D01*
X161870765Y-93092428D01*
X161879030Y-93069329D01*
X161889520Y-93047150D01*
X161902132Y-93026107D01*
X161916747Y-93006401D01*
X161933223Y-92988223D01*
X161951401Y-92971747D01*
X161971107Y-92957132D01*
X161992150Y-92944520D01*
X162014329Y-92934030D01*
X162037428Y-92925765D01*
X162061227Y-92919804D01*
X162085495Y-92916204D01*
X162109999Y-92915000D01*
X163010001Y-92915000D01*
X163034505Y-92916204D01*
G37*
G04 #@! TD.AperFunction*
G04 #@! TA.AperFunction,SMDPad,CuDef*
G36*
X163034505Y-90866204D02*
G01*
X163058773Y-90869804D01*
X163082572Y-90875765D01*
X163105671Y-90884030D01*
X163127850Y-90894520D01*
X163148893Y-90907132D01*
X163168599Y-90921747D01*
X163186777Y-90938223D01*
X163203253Y-90956401D01*
X163217868Y-90976107D01*
X163230480Y-90997150D01*
X163240970Y-91019329D01*
X163249235Y-91042428D01*
X163255196Y-91066227D01*
X163258796Y-91090495D01*
X163260000Y-91114999D01*
X163260000Y-91765001D01*
X163258796Y-91789505D01*
X163255196Y-91813773D01*
X163249235Y-91837572D01*
X163240970Y-91860671D01*
X163230480Y-91882850D01*
X163217868Y-91903893D01*
X163203253Y-91923599D01*
X163186777Y-91941777D01*
X163168599Y-91958253D01*
X163148893Y-91972868D01*
X163127850Y-91985480D01*
X163105671Y-91995970D01*
X163082572Y-92004235D01*
X163058773Y-92010196D01*
X163034505Y-92013796D01*
X163010001Y-92015000D01*
X162109999Y-92015000D01*
X162085495Y-92013796D01*
X162061227Y-92010196D01*
X162037428Y-92004235D01*
X162014329Y-91995970D01*
X161992150Y-91985480D01*
X161971107Y-91972868D01*
X161951401Y-91958253D01*
X161933223Y-91941777D01*
X161916747Y-91923599D01*
X161902132Y-91903893D01*
X161889520Y-91882850D01*
X161879030Y-91860671D01*
X161870765Y-91837572D01*
X161864804Y-91813773D01*
X161861204Y-91789505D01*
X161860000Y-91765001D01*
X161860000Y-91114999D01*
X161861204Y-91090495D01*
X161864804Y-91066227D01*
X161870765Y-91042428D01*
X161879030Y-91019329D01*
X161889520Y-90997150D01*
X161902132Y-90976107D01*
X161916747Y-90956401D01*
X161933223Y-90938223D01*
X161951401Y-90921747D01*
X161971107Y-90907132D01*
X161992150Y-90894520D01*
X162014329Y-90884030D01*
X162037428Y-90875765D01*
X162061227Y-90869804D01*
X162085495Y-90866204D01*
X162109999Y-90865000D01*
X163010001Y-90865000D01*
X163034505Y-90866204D01*
G37*
G04 #@! TD.AperFunction*
G04 #@! TA.AperFunction,SMDPad,CuDef*
G36*
X161494505Y-97726204D02*
G01*
X161518773Y-97729804D01*
X161542572Y-97735765D01*
X161565671Y-97744030D01*
X161587850Y-97754520D01*
X161608893Y-97767132D01*
X161628599Y-97781747D01*
X161646777Y-97798223D01*
X161663253Y-97816401D01*
X161677868Y-97836107D01*
X161690480Y-97857150D01*
X161700970Y-97879329D01*
X161709235Y-97902428D01*
X161715196Y-97926227D01*
X161718796Y-97950495D01*
X161720000Y-97974999D01*
X161720000Y-98875001D01*
X161718796Y-98899505D01*
X161715196Y-98923773D01*
X161709235Y-98947572D01*
X161700970Y-98970671D01*
X161690480Y-98992850D01*
X161677868Y-99013893D01*
X161663253Y-99033599D01*
X161646777Y-99051777D01*
X161628599Y-99068253D01*
X161608893Y-99082868D01*
X161587850Y-99095480D01*
X161565671Y-99105970D01*
X161542572Y-99114235D01*
X161518773Y-99120196D01*
X161494505Y-99123796D01*
X161470001Y-99125000D01*
X160819999Y-99125000D01*
X160795495Y-99123796D01*
X160771227Y-99120196D01*
X160747428Y-99114235D01*
X160724329Y-99105970D01*
X160702150Y-99095480D01*
X160681107Y-99082868D01*
X160661401Y-99068253D01*
X160643223Y-99051777D01*
X160626747Y-99033599D01*
X160612132Y-99013893D01*
X160599520Y-98992850D01*
X160589030Y-98970671D01*
X160580765Y-98947572D01*
X160574804Y-98923773D01*
X160571204Y-98899505D01*
X160570000Y-98875001D01*
X160570000Y-97974999D01*
X160571204Y-97950495D01*
X160574804Y-97926227D01*
X160580765Y-97902428D01*
X160589030Y-97879329D01*
X160599520Y-97857150D01*
X160612132Y-97836107D01*
X160626747Y-97816401D01*
X160643223Y-97798223D01*
X160661401Y-97781747D01*
X160681107Y-97767132D01*
X160702150Y-97754520D01*
X160724329Y-97744030D01*
X160747428Y-97735765D01*
X160771227Y-97729804D01*
X160795495Y-97726204D01*
X160819999Y-97725000D01*
X161470001Y-97725000D01*
X161494505Y-97726204D01*
G37*
G04 #@! TD.AperFunction*
G04 #@! TA.AperFunction,SMDPad,CuDef*
G36*
X163544505Y-97726204D02*
G01*
X163568773Y-97729804D01*
X163592572Y-97735765D01*
X163615671Y-97744030D01*
X163637850Y-97754520D01*
X163658893Y-97767132D01*
X163678599Y-97781747D01*
X163696777Y-97798223D01*
X163713253Y-97816401D01*
X163727868Y-97836107D01*
X163740480Y-97857150D01*
X163750970Y-97879329D01*
X163759235Y-97902428D01*
X163765196Y-97926227D01*
X163768796Y-97950495D01*
X163770000Y-97974999D01*
X163770000Y-98875001D01*
X163768796Y-98899505D01*
X163765196Y-98923773D01*
X163759235Y-98947572D01*
X163750970Y-98970671D01*
X163740480Y-98992850D01*
X163727868Y-99013893D01*
X163713253Y-99033599D01*
X163696777Y-99051777D01*
X163678599Y-99068253D01*
X163658893Y-99082868D01*
X163637850Y-99095480D01*
X163615671Y-99105970D01*
X163592572Y-99114235D01*
X163568773Y-99120196D01*
X163544505Y-99123796D01*
X163520001Y-99125000D01*
X162869999Y-99125000D01*
X162845495Y-99123796D01*
X162821227Y-99120196D01*
X162797428Y-99114235D01*
X162774329Y-99105970D01*
X162752150Y-99095480D01*
X162731107Y-99082868D01*
X162711401Y-99068253D01*
X162693223Y-99051777D01*
X162676747Y-99033599D01*
X162662132Y-99013893D01*
X162649520Y-98992850D01*
X162639030Y-98970671D01*
X162630765Y-98947572D01*
X162624804Y-98923773D01*
X162621204Y-98899505D01*
X162620000Y-98875001D01*
X162620000Y-97974999D01*
X162621204Y-97950495D01*
X162624804Y-97926227D01*
X162630765Y-97902428D01*
X162639030Y-97879329D01*
X162649520Y-97857150D01*
X162662132Y-97836107D01*
X162676747Y-97816401D01*
X162693223Y-97798223D01*
X162711401Y-97781747D01*
X162731107Y-97767132D01*
X162752150Y-97754520D01*
X162774329Y-97744030D01*
X162797428Y-97735765D01*
X162821227Y-97729804D01*
X162845495Y-97726204D01*
X162869999Y-97725000D01*
X163520001Y-97725000D01*
X163544505Y-97726204D01*
G37*
G04 #@! TD.AperFunction*
D13*
X161290000Y-95885000D03*
D14*
X168910000Y-88265000D03*
X163830000Y-95885000D03*
X166370000Y-88265000D03*
X166370000Y-95885000D03*
X163830000Y-88265000D03*
X168910000Y-95885000D03*
X161290000Y-88265000D03*
D11*
X133985000Y-85725000D03*
D15*
X149225000Y-100330000D03*
X153035000Y-99695000D03*
X153035000Y-83820000D03*
X147574000Y-102616000D03*
X142113000Y-95631000D03*
X151257000Y-78740000D03*
X165735000Y-76073000D03*
X153924000Y-87122000D03*
X159512000Y-86106000D03*
X148463000Y-93726000D03*
X145594000Y-94459286D03*
X153416000Y-98425000D03*
X149352000Y-92456000D03*
D16*
X160655000Y-81982919D02*
X160655000Y-81280000D01*
X160655000Y-78105000D02*
X160655000Y-81280000D01*
X155575000Y-87062919D02*
X160655000Y-81982919D01*
X155575000Y-88265000D02*
X155575000Y-87062919D01*
X160020000Y-83820000D02*
X155575000Y-88265000D01*
X163830000Y-83820000D02*
X160020000Y-83820000D01*
X168329000Y-93218000D02*
X168329000Y-93653000D01*
X168910000Y-93799000D02*
X168329000Y-93218000D01*
X168910000Y-95885000D02*
X168910000Y-93799000D01*
X135890000Y-88900000D02*
X135890000Y-100965000D01*
X135890000Y-87630000D02*
X135890000Y-88900000D01*
X148590000Y-100330000D02*
X136906000Y-88646000D01*
X136906000Y-88646000D02*
X136906000Y-86614000D01*
X149225000Y-100330000D02*
X148590000Y-100330000D01*
X137795000Y-85725000D02*
X136906000Y-86614000D01*
X136906000Y-86614000D02*
X135890000Y-87630000D01*
X137795000Y-88265000D02*
X137795000Y-85725000D01*
X148590000Y-99060000D02*
X137795000Y-88265000D01*
X153035000Y-99695000D02*
X152400000Y-99060000D01*
X152400000Y-99060000D02*
X148590000Y-99060000D01*
X168110001Y-96684999D02*
X168910000Y-95885000D01*
X141224000Y-89154000D02*
X148844000Y-89154000D01*
X159415010Y-99725010D02*
X165069990Y-99725010D01*
X165069990Y-99725010D02*
X168110001Y-96684999D01*
X148844000Y-89154000D02*
X159415010Y-99725010D01*
X137795000Y-85725000D02*
X139446000Y-87376000D01*
X139446000Y-87376000D02*
X141224000Y-89154000D01*
X138685000Y-83820000D02*
X137795000Y-84710000D01*
X153035000Y-83820000D02*
X138685000Y-83820000D01*
X137795000Y-84710000D02*
X137795000Y-85725000D01*
X140335000Y-88265000D02*
X139446000Y-87376000D01*
X155575000Y-88265000D02*
X140335000Y-88265000D01*
X137795000Y-86995000D02*
X137795000Y-85725000D01*
X163195000Y-102235000D02*
X161744999Y-100784999D01*
X148463000Y-90043000D02*
X140843000Y-90043000D01*
X159204999Y-100784999D02*
X148463000Y-90043000D01*
X161744999Y-100784999D02*
X159204999Y-100784999D01*
X140843000Y-90043000D02*
X137795000Y-86995000D01*
X161290000Y-90170000D02*
X161290000Y-88265000D01*
X161290000Y-90170000D02*
X162560000Y-91440000D01*
X165100000Y-92964000D02*
X165354000Y-93218000D01*
X165100000Y-90678000D02*
X165100000Y-92964000D01*
X164338000Y-93218000D02*
X162560000Y-91440000D01*
X165354000Y-93218000D02*
X164338000Y-93218000D01*
X147574000Y-102616000D02*
X142113000Y-97155000D01*
X142113000Y-97155000D02*
X142113000Y-95631000D01*
D17*
X151656999Y-79139999D02*
X151257000Y-78740000D01*
X154135010Y-81618010D02*
X151656999Y-79139999D01*
X153490639Y-84920010D02*
X154135010Y-84275639D01*
X140885990Y-84920010D02*
X153490639Y-84920010D01*
X154135010Y-84275639D02*
X154135010Y-81618010D01*
X140335000Y-85471000D02*
X140885990Y-84920010D01*
X140335000Y-85725000D02*
X140335000Y-85471000D01*
X160392998Y-76073000D02*
X165735000Y-76073000D01*
X155850000Y-80615998D02*
X160392998Y-76073000D01*
X155702000Y-80615998D02*
X155850000Y-80615998D01*
X140462000Y-85725000D02*
X140716000Y-85979000D01*
X140335000Y-85725000D02*
X140462000Y-85725000D01*
X153924000Y-85979000D02*
X155702000Y-84201000D01*
X140716000Y-85979000D02*
X153924000Y-85979000D01*
X155702000Y-84201000D02*
X155702000Y-80615998D01*
X140335000Y-85725000D02*
X141732000Y-87122000D01*
X141732000Y-87122000D02*
X153162000Y-87122000D01*
X153162000Y-87122000D02*
X153924000Y-87122000D01*
X159512000Y-86487000D02*
X161290000Y-88265000D01*
X159512000Y-86106000D02*
X159512000Y-86487000D01*
D18*
X148463000Y-93726000D02*
X146327286Y-93726000D01*
X146327286Y-93726000D02*
X145594000Y-94459286D01*
D16*
X153416000Y-98425000D02*
X153416000Y-96520000D01*
X153416000Y-96520000D02*
X149352000Y-92456000D01*
X164066000Y-88029000D02*
X163830000Y-88265000D01*
X164066000Y-86106000D02*
X164066000Y-88029000D01*
X166116000Y-88011000D02*
X166370000Y-88265000D01*
X166116000Y-86106000D02*
X166116000Y-88011000D01*
X165880000Y-85870000D02*
X166116000Y-86106000D01*
X165880000Y-83820000D02*
X165880000Y-85870000D01*
X167150000Y-89045000D02*
X166370000Y-88265000D01*
X167150000Y-90678000D02*
X167150000Y-89045000D01*
D19*
X163337194Y-93490000D02*
X163260000Y-93490000D01*
X164932195Y-95085001D02*
X163337194Y-93490000D01*
X165570001Y-95085001D02*
X164932195Y-95085001D01*
X163260000Y-93490000D02*
X162560000Y-93490000D01*
X166370000Y-95885000D02*
X165570001Y-95085001D01*
D16*
X163830000Y-97790000D02*
X163195000Y-98425000D01*
X163830000Y-95885000D02*
X163830000Y-97790000D01*
X161290000Y-98280000D02*
X161145000Y-98425000D01*
X161290000Y-95885000D02*
X161290000Y-98280000D01*
D20*
G36*
X152805978Y-75666150D02*
G01*
X152855624Y-75829811D01*
X152873000Y-76006234D01*
X152873000Y-78750869D01*
X152020143Y-77898012D01*
X151890622Y-77791717D01*
X151693446Y-77686324D01*
X151479498Y-77621423D01*
X151257000Y-77599509D01*
X151034502Y-77621423D01*
X150820554Y-77686324D01*
X150623378Y-77791717D01*
X150450552Y-77933552D01*
X150308717Y-78106378D01*
X150203324Y-78303554D01*
X150138423Y-78517502D01*
X150116509Y-78740000D01*
X150138423Y-78962498D01*
X150203324Y-79176446D01*
X150308717Y-79373622D01*
X150415012Y-79503143D01*
X150815011Y-79903142D01*
X152873000Y-81961132D01*
X152873000Y-83785010D01*
X140941742Y-83785010D01*
X140885990Y-83779519D01*
X140830238Y-83785010D01*
X140663491Y-83801433D01*
X140449543Y-83866334D01*
X140252367Y-83971726D01*
X140079541Y-84113561D01*
X140044001Y-84156867D01*
X139904287Y-84296582D01*
X139901842Y-84297068D01*
X139631589Y-84409010D01*
X139388368Y-84571525D01*
X139256513Y-84703380D01*
X139234502Y-84630820D01*
X139175537Y-84520506D01*
X139096185Y-84423815D01*
X138999494Y-84344463D01*
X138889180Y-84285498D01*
X138769482Y-84249188D01*
X138645000Y-84236928D01*
X138080750Y-84240000D01*
X137922000Y-84398750D01*
X137922000Y-85598000D01*
X137942000Y-85598000D01*
X137942000Y-85852000D01*
X137922000Y-85852000D01*
X137922000Y-87051250D01*
X138080750Y-87210000D01*
X138645000Y-87213072D01*
X138769482Y-87200812D01*
X138889180Y-87164502D01*
X138999494Y-87105537D01*
X139096185Y-87026185D01*
X139175537Y-86929494D01*
X139234502Y-86819180D01*
X139256513Y-86746620D01*
X139388368Y-86878475D01*
X139631589Y-87040990D01*
X139901842Y-87152932D01*
X140188740Y-87210000D01*
X140214869Y-87210000D01*
X140635636Y-87630767D01*
X140573823Y-87692580D01*
X140556092Y-87714815D01*
X140466739Y-87857019D01*
X140454400Y-87882642D01*
X140398931Y-88041164D01*
X140392603Y-88068890D01*
X140373799Y-88235781D01*
X140373799Y-88264219D01*
X140392603Y-88431110D01*
X140398931Y-88458836D01*
X140454400Y-88617358D01*
X140466739Y-88642981D01*
X140556092Y-88785185D01*
X140573823Y-88807420D01*
X140692580Y-88926177D01*
X140714815Y-88943908D01*
X140857019Y-89033261D01*
X140882642Y-89045600D01*
X141041164Y-89101069D01*
X141068890Y-89107397D01*
X141235781Y-89126201D01*
X141250000Y-89127000D01*
X151493766Y-89127000D01*
X151670189Y-89144376D01*
X151833850Y-89194022D01*
X151984672Y-89274638D01*
X152116870Y-89383130D01*
X152225362Y-89515328D01*
X152305978Y-89666150D01*
X152355624Y-89829811D01*
X152373000Y-90006234D01*
X152373000Y-91085786D01*
X152373612Y-91098234D01*
X152392827Y-91293325D01*
X152397683Y-91317743D01*
X152454588Y-91505336D01*
X152464116Y-91528337D01*
X152556526Y-91701224D01*
X152570358Y-91721925D01*
X152694721Y-91873461D01*
X152703090Y-91882696D01*
X154117304Y-93296910D01*
X154126539Y-93305279D01*
X154278075Y-93429642D01*
X154298776Y-93443474D01*
X154471663Y-93535884D01*
X154494664Y-93545412D01*
X154682257Y-93602317D01*
X154706675Y-93607173D01*
X154901766Y-93626388D01*
X154914214Y-93627000D01*
X161221928Y-93627000D01*
X161221928Y-93815001D01*
X161238992Y-93988255D01*
X161289528Y-94154851D01*
X161371595Y-94308387D01*
X161482038Y-94442962D01*
X161486871Y-94446928D01*
X160490000Y-94446928D01*
X160365518Y-94459188D01*
X160245820Y-94495498D01*
X160135506Y-94554463D01*
X160038815Y-94633815D01*
X159959463Y-94730506D01*
X159900498Y-94840820D01*
X159864188Y-94960518D01*
X159851928Y-95085000D01*
X159851928Y-96685000D01*
X159864188Y-96809482D01*
X159900498Y-96929180D01*
X159959463Y-97039494D01*
X160038815Y-97136185D01*
X160135506Y-97215537D01*
X160245820Y-97274502D01*
X160255001Y-97277287D01*
X160255001Y-97295366D01*
X160192038Y-97347038D01*
X160081595Y-97481613D01*
X159999528Y-97635149D01*
X159948992Y-97801745D01*
X159931928Y-97974999D01*
X159931928Y-98875001D01*
X159948992Y-99048255D01*
X159999528Y-99214851D01*
X160081595Y-99368387D01*
X160192038Y-99502962D01*
X160326613Y-99613405D01*
X160480149Y-99695472D01*
X160646745Y-99746008D01*
X160819999Y-99763072D01*
X161470001Y-99763072D01*
X161643255Y-99746008D01*
X161809851Y-99695472D01*
X161963387Y-99613405D01*
X162097962Y-99502962D01*
X162170000Y-99415184D01*
X162242038Y-99502962D01*
X162376613Y-99613405D01*
X162530149Y-99695472D01*
X162696745Y-99746008D01*
X162869999Y-99763072D01*
X163520001Y-99763072D01*
X163693255Y-99746008D01*
X163859851Y-99695472D01*
X164013387Y-99613405D01*
X164147962Y-99502962D01*
X164258405Y-99368387D01*
X164340472Y-99214851D01*
X164391008Y-99048255D01*
X164408072Y-98875001D01*
X164408072Y-98675638D01*
X164525903Y-98557807D01*
X164565396Y-98525396D01*
X164647789Y-98425000D01*
X164694734Y-98367798D01*
X164790841Y-98187994D01*
X164812728Y-98115841D01*
X164850024Y-97992895D01*
X164865000Y-97840838D01*
X164865000Y-97840835D01*
X164870007Y-97790000D01*
X164865000Y-97739165D01*
X164865000Y-96879396D01*
X164944637Y-96799759D01*
X165100000Y-96567241D01*
X165255363Y-96799759D01*
X165455241Y-96999637D01*
X165690273Y-97156680D01*
X165951426Y-97264853D01*
X166228665Y-97320000D01*
X166511335Y-97320000D01*
X166788574Y-97264853D01*
X167049727Y-97156680D01*
X167284759Y-96999637D01*
X167484637Y-96799759D01*
X167641680Y-96564727D01*
X167646067Y-96554135D01*
X167757615Y-96740131D01*
X167946586Y-96948519D01*
X168172580Y-97116037D01*
X168426913Y-97236246D01*
X168560961Y-97276904D01*
X168783000Y-97154915D01*
X168783000Y-96012000D01*
X168763000Y-96012000D01*
X168763000Y-95758000D01*
X168783000Y-95758000D01*
X168783000Y-95738000D01*
X169037000Y-95738000D01*
X169037000Y-95758000D01*
X169057000Y-95758000D01*
X169057000Y-96012000D01*
X169037000Y-96012000D01*
X169037000Y-97154915D01*
X169259039Y-97276904D01*
X169393087Y-97236246D01*
X169647420Y-97116037D01*
X169873414Y-96948519D01*
X170062385Y-96740131D01*
X170207070Y-96498881D01*
X170301909Y-96234040D01*
X170180625Y-96012002D01*
X170340001Y-96012002D01*
X170340000Y-102967723D01*
X170320898Y-103162540D01*
X170273692Y-103318895D01*
X170197018Y-103463096D01*
X170093792Y-103589664D01*
X169967951Y-103693768D01*
X169824289Y-103771447D01*
X169668271Y-103819742D01*
X169475527Y-103840000D01*
X148019606Y-103840000D01*
X147806614Y-103627008D01*
X147825766Y-103621198D01*
X147875898Y-103611226D01*
X147923123Y-103591665D01*
X147971993Y-103576840D01*
X148017036Y-103552764D01*
X148064256Y-103533205D01*
X148106748Y-103504813D01*
X148151797Y-103480734D01*
X148191281Y-103448330D01*
X148233774Y-103419937D01*
X148269916Y-103383795D01*
X148309395Y-103351395D01*
X148341795Y-103311916D01*
X148377937Y-103275774D01*
X148406330Y-103233281D01*
X148438734Y-103193797D01*
X148462813Y-103148748D01*
X148491205Y-103106256D01*
X148510764Y-103059036D01*
X148534840Y-103013993D01*
X148549665Y-102965123D01*
X148569226Y-102917898D01*
X148579198Y-102867766D01*
X148594023Y-102818894D01*
X148599029Y-102768068D01*
X148609000Y-102717939D01*
X148609000Y-102666827D01*
X148614006Y-102615999D01*
X148609000Y-102565171D01*
X148609000Y-102514061D01*
X148599029Y-102463934D01*
X148594023Y-102413104D01*
X148579197Y-102364229D01*
X148569226Y-102314102D01*
X148549666Y-102266881D01*
X148534840Y-102218006D01*
X148510762Y-102172959D01*
X148491205Y-102125744D01*
X148466481Y-102088740D01*
X159170000Y-102088740D01*
X159170000Y-102381260D01*
X159227068Y-102668158D01*
X159339010Y-102938411D01*
X159501525Y-103181632D01*
X159708368Y-103388475D01*
X159951589Y-103550990D01*
X160221842Y-103662932D01*
X160508740Y-103720000D01*
X160801260Y-103720000D01*
X161088158Y-103662932D01*
X161358411Y-103550990D01*
X161601632Y-103388475D01*
X161733487Y-103256620D01*
X161755498Y-103329180D01*
X161814463Y-103439494D01*
X161893815Y-103536185D01*
X161990506Y-103615537D01*
X162100820Y-103674502D01*
X162220518Y-103710812D01*
X162345000Y-103723072D01*
X162909250Y-103720000D01*
X163068000Y-103561250D01*
X163068000Y-102362000D01*
X163322000Y-102362000D01*
X163322000Y-103561250D01*
X163480750Y-103720000D01*
X164045000Y-103723072D01*
X164169482Y-103710812D01*
X164289180Y-103674502D01*
X164399494Y-103615537D01*
X164496185Y-103536185D01*
X164575537Y-103439494D01*
X164634502Y-103329180D01*
X164670812Y-103209482D01*
X164683072Y-103085000D01*
X164680000Y-102520750D01*
X164521250Y-102362000D01*
X163322000Y-102362000D01*
X163068000Y-102362000D01*
X163048000Y-102362000D01*
X163048000Y-102108000D01*
X163068000Y-102108000D01*
X163068000Y-100908750D01*
X163322000Y-100908750D01*
X163322000Y-102108000D01*
X164521250Y-102108000D01*
X164680000Y-101949250D01*
X164683072Y-101385000D01*
X164670812Y-101260518D01*
X164634502Y-101140820D01*
X164575537Y-101030506D01*
X164496185Y-100933815D01*
X164399494Y-100854463D01*
X164289180Y-100795498D01*
X164169482Y-100759188D01*
X164045000Y-100746928D01*
X163480750Y-100750000D01*
X163322000Y-100908750D01*
X163068000Y-100908750D01*
X162909250Y-100750000D01*
X162345000Y-100746928D01*
X162220518Y-100759188D01*
X162100820Y-100795498D01*
X161990506Y-100854463D01*
X161893815Y-100933815D01*
X161814463Y-101030506D01*
X161755498Y-101140820D01*
X161733487Y-101213380D01*
X161601632Y-101081525D01*
X161358411Y-100919010D01*
X161088158Y-100807068D01*
X160801260Y-100750000D01*
X160508740Y-100750000D01*
X160221842Y-100807068D01*
X159951589Y-100919010D01*
X159708368Y-101081525D01*
X159501525Y-101288368D01*
X159339010Y-101531589D01*
X159227068Y-101801842D01*
X159170000Y-102088740D01*
X148466481Y-102088740D01*
X148462816Y-102083256D01*
X148438734Y-102038202D01*
X148406325Y-101998712D01*
X148377937Y-101956226D01*
X148233774Y-101812063D01*
X143148000Y-96726290D01*
X143148000Y-95529061D01*
X143138031Y-95478943D01*
X143133024Y-95428105D01*
X143118196Y-95379223D01*
X143108226Y-95329102D01*
X143088669Y-95281887D01*
X143073841Y-95233007D01*
X143049762Y-95187958D01*
X143030205Y-95140744D01*
X143001814Y-95098254D01*
X142977734Y-95053203D01*
X142945328Y-95013716D01*
X142916937Y-94971226D01*
X142880803Y-94935092D01*
X142848396Y-94895604D01*
X142808908Y-94863197D01*
X142772774Y-94827063D01*
X142730284Y-94798672D01*
X142690797Y-94766266D01*
X142645746Y-94742186D01*
X142603256Y-94713795D01*
X142556042Y-94694238D01*
X142510993Y-94670159D01*
X142462113Y-94655331D01*
X142414898Y-94635774D01*
X142364777Y-94625804D01*
X142315895Y-94610976D01*
X142265057Y-94605969D01*
X142214939Y-94596000D01*
X142163838Y-94596000D01*
X142113000Y-94590993D01*
X142062162Y-94596000D01*
X142011061Y-94596000D01*
X141960942Y-94605969D01*
X141910106Y-94610976D01*
X141861226Y-94625804D01*
X141811102Y-94635774D01*
X141763884Y-94655332D01*
X141715008Y-94670159D01*
X141669962Y-94694237D01*
X141622744Y-94713795D01*
X141580250Y-94742188D01*
X141535204Y-94766266D01*
X141495721Y-94798669D01*
X141453226Y-94827063D01*
X141417087Y-94863202D01*
X141377605Y-94895604D01*
X141345203Y-94935086D01*
X141309063Y-94971226D01*
X141280668Y-95013722D01*
X141248267Y-95053203D01*
X141224191Y-95098247D01*
X141195795Y-95140744D01*
X141176235Y-95187966D01*
X141152160Y-95233007D01*
X141137335Y-95281878D01*
X141117774Y-95329102D01*
X141107803Y-95379232D01*
X141092977Y-95428105D01*
X141087971Y-95478933D01*
X141078000Y-95529061D01*
X141078000Y-95732939D01*
X141078001Y-95732944D01*
X141078000Y-96898394D01*
X138536953Y-94357347D01*
X144559000Y-94357347D01*
X144559000Y-94561225D01*
X144598774Y-94761184D01*
X144676795Y-94949542D01*
X144790063Y-95119060D01*
X144934226Y-95263223D01*
X145103744Y-95376491D01*
X145292102Y-95454512D01*
X145492061Y-95494286D01*
X145695939Y-95494286D01*
X145895898Y-95454512D01*
X146084256Y-95376491D01*
X146253774Y-95263223D01*
X146397937Y-95119060D01*
X146511205Y-94949542D01*
X146589226Y-94761184D01*
X146618093Y-94616061D01*
X146673154Y-94561000D01*
X147849715Y-94561000D01*
X147972744Y-94643205D01*
X148161102Y-94721226D01*
X148361061Y-94761000D01*
X148564939Y-94761000D01*
X148764898Y-94721226D01*
X148953256Y-94643205D01*
X149122774Y-94529937D01*
X149266937Y-94385774D01*
X149380205Y-94216256D01*
X149458226Y-94027898D01*
X149458551Y-94026262D01*
X152381001Y-96948712D01*
X152381000Y-98323061D01*
X152381000Y-98526939D01*
X152390969Y-98577058D01*
X152395976Y-98627894D01*
X152410804Y-98676774D01*
X152420774Y-98726898D01*
X152440332Y-98774116D01*
X152455159Y-98822992D01*
X152479237Y-98868039D01*
X152498795Y-98915256D01*
X152527186Y-98957747D01*
X152551266Y-99002797D01*
X152583672Y-99042284D01*
X152612063Y-99084774D01*
X152648197Y-99120908D01*
X152680604Y-99160396D01*
X152720092Y-99192803D01*
X152756226Y-99228937D01*
X152798716Y-99257328D01*
X152838203Y-99289734D01*
X152883254Y-99313814D01*
X152925744Y-99342205D01*
X152972958Y-99361762D01*
X153018007Y-99385841D01*
X153066887Y-99400669D01*
X153114102Y-99420226D01*
X153164223Y-99430196D01*
X153213105Y-99445024D01*
X153263943Y-99450031D01*
X153314061Y-99460000D01*
X153365162Y-99460000D01*
X153416000Y-99465007D01*
X153466838Y-99460000D01*
X153517939Y-99460000D01*
X153568058Y-99450031D01*
X153618894Y-99445024D01*
X153667774Y-99430196D01*
X153717898Y-99420226D01*
X153765116Y-99400668D01*
X153813992Y-99385841D01*
X153859039Y-99361763D01*
X153906256Y-99342205D01*
X153948747Y-99313814D01*
X153993797Y-99289734D01*
X154033284Y-99257328D01*
X154075774Y-99228937D01*
X154111908Y-99192803D01*
X154151396Y-99160396D01*
X154183803Y-99120908D01*
X154219937Y-99084774D01*
X154248328Y-99042284D01*
X154280734Y-99002797D01*
X154304814Y-98957746D01*
X154333205Y-98915256D01*
X154352762Y-98868042D01*
X154376841Y-98822993D01*
X154391669Y-98774113D01*
X154411226Y-98726898D01*
X154421196Y-98676777D01*
X154436024Y-98627895D01*
X154441031Y-98577057D01*
X154451000Y-98526939D01*
X154451000Y-96570835D01*
X154456007Y-96520000D01*
X154446119Y-96419604D01*
X154436024Y-96317105D01*
X154376841Y-96122007D01*
X154318041Y-96012000D01*
X154280734Y-95942202D01*
X154183803Y-95824092D01*
X154151396Y-95784604D01*
X154111908Y-95752197D01*
X150155939Y-91796229D01*
X150155937Y-91796226D01*
X150011774Y-91652063D01*
X149969283Y-91623671D01*
X149929797Y-91591266D01*
X149884748Y-91567187D01*
X149842256Y-91538795D01*
X149795036Y-91519236D01*
X149749993Y-91495160D01*
X149701122Y-91480335D01*
X149653898Y-91460774D01*
X149603768Y-91450803D01*
X149554895Y-91435977D01*
X149504067Y-91430971D01*
X149453939Y-91421000D01*
X149402828Y-91421000D01*
X149352000Y-91415994D01*
X149301172Y-91421000D01*
X149250061Y-91421000D01*
X149199933Y-91430971D01*
X149149105Y-91435977D01*
X149100232Y-91450803D01*
X149050102Y-91460774D01*
X149002878Y-91480335D01*
X148954007Y-91495160D01*
X148908964Y-91519236D01*
X148861744Y-91538795D01*
X148819252Y-91567187D01*
X148774203Y-91591266D01*
X148734716Y-91623672D01*
X148692226Y-91652063D01*
X148656092Y-91688197D01*
X148616604Y-91720604D01*
X148584197Y-91760092D01*
X148548063Y-91796226D01*
X148519672Y-91838716D01*
X148487266Y-91878203D01*
X148463187Y-91923252D01*
X148434795Y-91965744D01*
X148415236Y-92012964D01*
X148391160Y-92058007D01*
X148376335Y-92106878D01*
X148356774Y-92154102D01*
X148346803Y-92204232D01*
X148331977Y-92253105D01*
X148326971Y-92303933D01*
X148317000Y-92354061D01*
X148317000Y-92405172D01*
X148311994Y-92456000D01*
X148317000Y-92506828D01*
X148317000Y-92557939D01*
X148326971Y-92608067D01*
X148331977Y-92658895D01*
X148342817Y-92694629D01*
X148161102Y-92730774D01*
X147972744Y-92808795D01*
X147849715Y-92891000D01*
X146368304Y-92891000D01*
X146327285Y-92886960D01*
X146286267Y-92891000D01*
X146163597Y-92903082D01*
X146006199Y-92950828D01*
X145861140Y-93028364D01*
X145733995Y-93132709D01*
X145707844Y-93164574D01*
X145437225Y-93435193D01*
X145292102Y-93464060D01*
X145103744Y-93542081D01*
X144934226Y-93655349D01*
X144790063Y-93799512D01*
X144676795Y-93969030D01*
X144598774Y-94157388D01*
X144559000Y-94357347D01*
X138536953Y-94357347D01*
X136887102Y-92707496D01*
X136774637Y-92570458D01*
X136694022Y-92419637D01*
X136644376Y-92255976D01*
X136627000Y-92079552D01*
X136627000Y-89000000D01*
X136626388Y-88987552D01*
X136607173Y-88792462D01*
X136602317Y-88768044D01*
X136545412Y-88580451D01*
X136535884Y-88557450D01*
X136443474Y-88384563D01*
X136429642Y-88363862D01*
X136305279Y-88212325D01*
X136287675Y-88194721D01*
X136136138Y-88070358D01*
X136115437Y-88056526D01*
X135942550Y-87964116D01*
X135919549Y-87954588D01*
X135731956Y-87897683D01*
X135707538Y-87892827D01*
X135512448Y-87873612D01*
X135500000Y-87873000D01*
X132506234Y-87873000D01*
X132329811Y-87855624D01*
X132166150Y-87805978D01*
X132160000Y-87802691D01*
X132160000Y-86575000D01*
X132496928Y-86575000D01*
X132509188Y-86699482D01*
X132545498Y-86819180D01*
X132604463Y-86929494D01*
X132683815Y-87026185D01*
X132780506Y-87105537D01*
X132890820Y-87164502D01*
X133010518Y-87200812D01*
X133135000Y-87213072D01*
X133699250Y-87210000D01*
X133858000Y-87051250D01*
X133858000Y-85852000D01*
X134112000Y-85852000D01*
X134112000Y-87051250D01*
X134270750Y-87210000D01*
X134835000Y-87213072D01*
X134959482Y-87200812D01*
X135079180Y-87164502D01*
X135189494Y-87105537D01*
X135286185Y-87026185D01*
X135365537Y-86929494D01*
X135424502Y-86819180D01*
X135460812Y-86699482D01*
X135473072Y-86575000D01*
X136306928Y-86575000D01*
X136319188Y-86699482D01*
X136355498Y-86819180D01*
X136414463Y-86929494D01*
X136493815Y-87026185D01*
X136590506Y-87105537D01*
X136700820Y-87164502D01*
X136820518Y-87200812D01*
X136945000Y-87213072D01*
X137509250Y-87210000D01*
X137668000Y-87051250D01*
X137668000Y-85852000D01*
X136468750Y-85852000D01*
X136310000Y-86010750D01*
X136306928Y-86575000D01*
X135473072Y-86575000D01*
X135470000Y-86010750D01*
X135311250Y-85852000D01*
X134112000Y-85852000D01*
X133858000Y-85852000D01*
X132658750Y-85852000D01*
X132500000Y-86010750D01*
X132496928Y-86575000D01*
X132160000Y-86575000D01*
X132160000Y-84875000D01*
X132496928Y-84875000D01*
X132500000Y-85439250D01*
X132658750Y-85598000D01*
X133858000Y-85598000D01*
X133858000Y-84398750D01*
X134112000Y-84398750D01*
X134112000Y-85598000D01*
X135311250Y-85598000D01*
X135470000Y-85439250D01*
X135473072Y-84875000D01*
X136306928Y-84875000D01*
X136310000Y-85439250D01*
X136468750Y-85598000D01*
X137668000Y-85598000D01*
X137668000Y-84398750D01*
X137509250Y-84240000D01*
X136945000Y-84236928D01*
X136820518Y-84249188D01*
X136700820Y-84285498D01*
X136590506Y-84344463D01*
X136493815Y-84423815D01*
X136414463Y-84520506D01*
X136355498Y-84630820D01*
X136319188Y-84750518D01*
X136306928Y-84875000D01*
X135473072Y-84875000D01*
X135460812Y-84750518D01*
X135424502Y-84630820D01*
X135365537Y-84520506D01*
X135286185Y-84423815D01*
X135189494Y-84344463D01*
X135079180Y-84285498D01*
X134959482Y-84249188D01*
X134835000Y-84236928D01*
X134270750Y-84240000D01*
X134112000Y-84398750D01*
X133858000Y-84398750D01*
X133699250Y-84240000D01*
X133135000Y-84236928D01*
X133010518Y-84249188D01*
X132890820Y-84285498D01*
X132780506Y-84344463D01*
X132683815Y-84423815D01*
X132604463Y-84520506D01*
X132545498Y-84630820D01*
X132509188Y-84750518D01*
X132496928Y-84875000D01*
X132160000Y-84875000D01*
X132160000Y-79795000D01*
X132496928Y-79795000D01*
X132496928Y-81495000D01*
X132509188Y-81619482D01*
X132545498Y-81739180D01*
X132604463Y-81849494D01*
X132683815Y-81946185D01*
X132780506Y-82025537D01*
X132890820Y-82084502D01*
X133010518Y-82120812D01*
X133135000Y-82133072D01*
X134835000Y-82133072D01*
X134959482Y-82120812D01*
X135079180Y-82084502D01*
X135189494Y-82025537D01*
X135286185Y-81946185D01*
X135365537Y-81849494D01*
X135424502Y-81739180D01*
X135460812Y-81619482D01*
X135473072Y-81495000D01*
X135473072Y-79795000D01*
X135460812Y-79670518D01*
X135424502Y-79550820D01*
X135365537Y-79440506D01*
X135286185Y-79343815D01*
X135189494Y-79264463D01*
X135079180Y-79205498D01*
X135006620Y-79183487D01*
X135138475Y-79051632D01*
X135300990Y-78808411D01*
X135412932Y-78538158D01*
X135470000Y-78251260D01*
X135470000Y-77958740D01*
X135412932Y-77671842D01*
X135300990Y-77401589D01*
X135138475Y-77158368D01*
X134931632Y-76951525D01*
X134688411Y-76789010D01*
X134418158Y-76677068D01*
X134131260Y-76620000D01*
X133838740Y-76620000D01*
X133551842Y-76677068D01*
X133281589Y-76789010D01*
X133038368Y-76951525D01*
X132831525Y-77158368D01*
X132669010Y-77401589D01*
X132557068Y-77671842D01*
X132500000Y-77958740D01*
X132500000Y-78251260D01*
X132557068Y-78538158D01*
X132669010Y-78808411D01*
X132831525Y-79051632D01*
X132963380Y-79183487D01*
X132890820Y-79205498D01*
X132780506Y-79264463D01*
X132683815Y-79343815D01*
X132604463Y-79440506D01*
X132545498Y-79550820D01*
X132509188Y-79670518D01*
X132496928Y-79795000D01*
X132160000Y-79795000D01*
X132160000Y-76532277D01*
X132179102Y-76337460D01*
X132226308Y-76181106D01*
X132302982Y-76036904D01*
X132406207Y-75910337D01*
X132532051Y-75806231D01*
X132675711Y-75728553D01*
X132831729Y-75680258D01*
X133024473Y-75660000D01*
X152802691Y-75660000D01*
X152805978Y-75666150D01*
G37*
X152805978Y-75666150D02*
X152855624Y-75829811D01*
X152873000Y-76006234D01*
X152873000Y-78750869D01*
X152020143Y-77898012D01*
X151890622Y-77791717D01*
X151693446Y-77686324D01*
X151479498Y-77621423D01*
X151257000Y-77599509D01*
X151034502Y-77621423D01*
X150820554Y-77686324D01*
X150623378Y-77791717D01*
X150450552Y-77933552D01*
X150308717Y-78106378D01*
X150203324Y-78303554D01*
X150138423Y-78517502D01*
X150116509Y-78740000D01*
X150138423Y-78962498D01*
X150203324Y-79176446D01*
X150308717Y-79373622D01*
X150415012Y-79503143D01*
X150815011Y-79903142D01*
X152873000Y-81961132D01*
X152873000Y-83785010D01*
X140941742Y-83785010D01*
X140885990Y-83779519D01*
X140830238Y-83785010D01*
X140663491Y-83801433D01*
X140449543Y-83866334D01*
X140252367Y-83971726D01*
X140079541Y-84113561D01*
X140044001Y-84156867D01*
X139904287Y-84296582D01*
X139901842Y-84297068D01*
X139631589Y-84409010D01*
X139388368Y-84571525D01*
X139256513Y-84703380D01*
X139234502Y-84630820D01*
X139175537Y-84520506D01*
X139096185Y-84423815D01*
X138999494Y-84344463D01*
X138889180Y-84285498D01*
X138769482Y-84249188D01*
X138645000Y-84236928D01*
X138080750Y-84240000D01*
X137922000Y-84398750D01*
X137922000Y-85598000D01*
X137942000Y-85598000D01*
X137942000Y-85852000D01*
X137922000Y-85852000D01*
X137922000Y-87051250D01*
X138080750Y-87210000D01*
X138645000Y-87213072D01*
X138769482Y-87200812D01*
X138889180Y-87164502D01*
X138999494Y-87105537D01*
X139096185Y-87026185D01*
X139175537Y-86929494D01*
X139234502Y-86819180D01*
X139256513Y-86746620D01*
X139388368Y-86878475D01*
X139631589Y-87040990D01*
X139901842Y-87152932D01*
X140188740Y-87210000D01*
X140214869Y-87210000D01*
X140635636Y-87630767D01*
X140573823Y-87692580D01*
X140556092Y-87714815D01*
X140466739Y-87857019D01*
X140454400Y-87882642D01*
X140398931Y-88041164D01*
X140392603Y-88068890D01*
X140373799Y-88235781D01*
X140373799Y-88264219D01*
X140392603Y-88431110D01*
X140398931Y-88458836D01*
X140454400Y-88617358D01*
X140466739Y-88642981D01*
X140556092Y-88785185D01*
X140573823Y-88807420D01*
X140692580Y-88926177D01*
X140714815Y-88943908D01*
X140857019Y-89033261D01*
X140882642Y-89045600D01*
X141041164Y-89101069D01*
X141068890Y-89107397D01*
X141235781Y-89126201D01*
X141250000Y-89127000D01*
X151493766Y-89127000D01*
X151670189Y-89144376D01*
X151833850Y-89194022D01*
X151984672Y-89274638D01*
X152116870Y-89383130D01*
X152225362Y-89515328D01*
X152305978Y-89666150D01*
X152355624Y-89829811D01*
X152373000Y-90006234D01*
X152373000Y-91085786D01*
X152373612Y-91098234D01*
X152392827Y-91293325D01*
X152397683Y-91317743D01*
X152454588Y-91505336D01*
X152464116Y-91528337D01*
X152556526Y-91701224D01*
X152570358Y-91721925D01*
X152694721Y-91873461D01*
X152703090Y-91882696D01*
X154117304Y-93296910D01*
X154126539Y-93305279D01*
X154278075Y-93429642D01*
X154298776Y-93443474D01*
X154471663Y-93535884D01*
X154494664Y-93545412D01*
X154682257Y-93602317D01*
X154706675Y-93607173D01*
X154901766Y-93626388D01*
X154914214Y-93627000D01*
X161221928Y-93627000D01*
X161221928Y-93815001D01*
X161238992Y-93988255D01*
X161289528Y-94154851D01*
X161371595Y-94308387D01*
X161482038Y-94442962D01*
X161486871Y-94446928D01*
X160490000Y-94446928D01*
X160365518Y-94459188D01*
X160245820Y-94495498D01*
X160135506Y-94554463D01*
X160038815Y-94633815D01*
X159959463Y-94730506D01*
X159900498Y-94840820D01*
X159864188Y-94960518D01*
X159851928Y-95085000D01*
X159851928Y-96685000D01*
X159864188Y-96809482D01*
X159900498Y-96929180D01*
X159959463Y-97039494D01*
X160038815Y-97136185D01*
X160135506Y-97215537D01*
X160245820Y-97274502D01*
X160255001Y-97277287D01*
X160255001Y-97295366D01*
X160192038Y-97347038D01*
X160081595Y-97481613D01*
X159999528Y-97635149D01*
X159948992Y-97801745D01*
X159931928Y-97974999D01*
X159931928Y-98875001D01*
X159948992Y-99048255D01*
X159999528Y-99214851D01*
X160081595Y-99368387D01*
X160192038Y-99502962D01*
X160326613Y-99613405D01*
X160480149Y-99695472D01*
X160646745Y-99746008D01*
X160819999Y-99763072D01*
X161470001Y-99763072D01*
X161643255Y-99746008D01*
X161809851Y-99695472D01*
X161963387Y-99613405D01*
X162097962Y-99502962D01*
X162170000Y-99415184D01*
X162242038Y-99502962D01*
X162376613Y-99613405D01*
X162530149Y-99695472D01*
X162696745Y-99746008D01*
X162869999Y-99763072D01*
X163520001Y-99763072D01*
X163693255Y-99746008D01*
X163859851Y-99695472D01*
X164013387Y-99613405D01*
X164147962Y-99502962D01*
X164258405Y-99368387D01*
X164340472Y-99214851D01*
X164391008Y-99048255D01*
X164408072Y-98875001D01*
X164408072Y-98675638D01*
X164525903Y-98557807D01*
X164565396Y-98525396D01*
X164647789Y-98425000D01*
X164694734Y-98367798D01*
X164790841Y-98187994D01*
X164812728Y-98115841D01*
X164850024Y-97992895D01*
X164865000Y-97840838D01*
X164865000Y-97840835D01*
X164870007Y-97790000D01*
X164865000Y-97739165D01*
X164865000Y-96879396D01*
X164944637Y-96799759D01*
X165100000Y-96567241D01*
X165255363Y-96799759D01*
X165455241Y-96999637D01*
X165690273Y-97156680D01*
X165951426Y-97264853D01*
X166228665Y-97320000D01*
X166511335Y-97320000D01*
X166788574Y-97264853D01*
X167049727Y-97156680D01*
X167284759Y-96999637D01*
X167484637Y-96799759D01*
X167641680Y-96564727D01*
X167646067Y-96554135D01*
X167757615Y-96740131D01*
X167946586Y-96948519D01*
X168172580Y-97116037D01*
X168426913Y-97236246D01*
X168560961Y-97276904D01*
X168783000Y-97154915D01*
X168783000Y-96012000D01*
X168763000Y-96012000D01*
X168763000Y-95758000D01*
X168783000Y-95758000D01*
X168783000Y-95738000D01*
X169037000Y-95738000D01*
X169037000Y-95758000D01*
X169057000Y-95758000D01*
X169057000Y-96012000D01*
X169037000Y-96012000D01*
X169037000Y-97154915D01*
X169259039Y-97276904D01*
X169393087Y-97236246D01*
X169647420Y-97116037D01*
X169873414Y-96948519D01*
X170062385Y-96740131D01*
X170207070Y-96498881D01*
X170301909Y-96234040D01*
X170180625Y-96012002D01*
X170340001Y-96012002D01*
X170340000Y-102967723D01*
X170320898Y-103162540D01*
X170273692Y-103318895D01*
X170197018Y-103463096D01*
X170093792Y-103589664D01*
X169967951Y-103693768D01*
X169824289Y-103771447D01*
X169668271Y-103819742D01*
X169475527Y-103840000D01*
X148019606Y-103840000D01*
X147806614Y-103627008D01*
X147825766Y-103621198D01*
X147875898Y-103611226D01*
X147923123Y-103591665D01*
X147971993Y-103576840D01*
X148017036Y-103552764D01*
X148064256Y-103533205D01*
X148106748Y-103504813D01*
X148151797Y-103480734D01*
X148191281Y-103448330D01*
X148233774Y-103419937D01*
X148269916Y-103383795D01*
X148309395Y-103351395D01*
X148341795Y-103311916D01*
X148377937Y-103275774D01*
X148406330Y-103233281D01*
X148438734Y-103193797D01*
X148462813Y-103148748D01*
X148491205Y-103106256D01*
X148510764Y-103059036D01*
X148534840Y-103013993D01*
X148549665Y-102965123D01*
X148569226Y-102917898D01*
X148579198Y-102867766D01*
X148594023Y-102818894D01*
X148599029Y-102768068D01*
X148609000Y-102717939D01*
X148609000Y-102666827D01*
X148614006Y-102615999D01*
X148609000Y-102565171D01*
X148609000Y-102514061D01*
X148599029Y-102463934D01*
X148594023Y-102413104D01*
X148579197Y-102364229D01*
X148569226Y-102314102D01*
X148549666Y-102266881D01*
X148534840Y-102218006D01*
X148510762Y-102172959D01*
X148491205Y-102125744D01*
X148466481Y-102088740D01*
X159170000Y-102088740D01*
X159170000Y-102381260D01*
X159227068Y-102668158D01*
X159339010Y-102938411D01*
X159501525Y-103181632D01*
X159708368Y-103388475D01*
X159951589Y-103550990D01*
X160221842Y-103662932D01*
X160508740Y-103720000D01*
X160801260Y-103720000D01*
X161088158Y-103662932D01*
X161358411Y-103550990D01*
X161601632Y-103388475D01*
X161733487Y-103256620D01*
X161755498Y-103329180D01*
X161814463Y-103439494D01*
X161893815Y-103536185D01*
X161990506Y-103615537D01*
X162100820Y-103674502D01*
X162220518Y-103710812D01*
X162345000Y-103723072D01*
X162909250Y-103720000D01*
X163068000Y-103561250D01*
X163068000Y-102362000D01*
X163322000Y-102362000D01*
X163322000Y-103561250D01*
X163480750Y-103720000D01*
X164045000Y-103723072D01*
X164169482Y-103710812D01*
X164289180Y-103674502D01*
X164399494Y-103615537D01*
X164496185Y-103536185D01*
X164575537Y-103439494D01*
X164634502Y-103329180D01*
X164670812Y-103209482D01*
X164683072Y-103085000D01*
X164680000Y-102520750D01*
X164521250Y-102362000D01*
X163322000Y-102362000D01*
X163068000Y-102362000D01*
X163048000Y-102362000D01*
X163048000Y-102108000D01*
X163068000Y-102108000D01*
X163068000Y-100908750D01*
X163322000Y-100908750D01*
X163322000Y-102108000D01*
X164521250Y-102108000D01*
X164680000Y-101949250D01*
X164683072Y-101385000D01*
X164670812Y-101260518D01*
X164634502Y-101140820D01*
X164575537Y-101030506D01*
X164496185Y-100933815D01*
X164399494Y-100854463D01*
X164289180Y-100795498D01*
X164169482Y-100759188D01*
X164045000Y-100746928D01*
X163480750Y-100750000D01*
X163322000Y-100908750D01*
X163068000Y-100908750D01*
X162909250Y-100750000D01*
X162345000Y-100746928D01*
X162220518Y-100759188D01*
X162100820Y-100795498D01*
X161990506Y-100854463D01*
X161893815Y-100933815D01*
X161814463Y-101030506D01*
X161755498Y-101140820D01*
X161733487Y-101213380D01*
X161601632Y-101081525D01*
X161358411Y-100919010D01*
X161088158Y-100807068D01*
X160801260Y-100750000D01*
X160508740Y-100750000D01*
X160221842Y-100807068D01*
X159951589Y-100919010D01*
X159708368Y-101081525D01*
X159501525Y-101288368D01*
X159339010Y-101531589D01*
X159227068Y-101801842D01*
X159170000Y-102088740D01*
X148466481Y-102088740D01*
X148462816Y-102083256D01*
X148438734Y-102038202D01*
X148406325Y-101998712D01*
X148377937Y-101956226D01*
X148233774Y-101812063D01*
X143148000Y-96726290D01*
X143148000Y-95529061D01*
X143138031Y-95478943D01*
X143133024Y-95428105D01*
X143118196Y-95379223D01*
X143108226Y-95329102D01*
X143088669Y-95281887D01*
X143073841Y-95233007D01*
X143049762Y-95187958D01*
X143030205Y-95140744D01*
X143001814Y-95098254D01*
X142977734Y-95053203D01*
X142945328Y-95013716D01*
X142916937Y-94971226D01*
X142880803Y-94935092D01*
X142848396Y-94895604D01*
X142808908Y-94863197D01*
X142772774Y-94827063D01*
X142730284Y-94798672D01*
X142690797Y-94766266D01*
X142645746Y-94742186D01*
X142603256Y-94713795D01*
X142556042Y-94694238D01*
X142510993Y-94670159D01*
X142462113Y-94655331D01*
X142414898Y-94635774D01*
X142364777Y-94625804D01*
X142315895Y-94610976D01*
X142265057Y-94605969D01*
X142214939Y-94596000D01*
X142163838Y-94596000D01*
X142113000Y-94590993D01*
X142062162Y-94596000D01*
X142011061Y-94596000D01*
X141960942Y-94605969D01*
X141910106Y-94610976D01*
X141861226Y-94625804D01*
X141811102Y-94635774D01*
X141763884Y-94655332D01*
X141715008Y-94670159D01*
X141669962Y-94694237D01*
X141622744Y-94713795D01*
X141580250Y-94742188D01*
X141535204Y-94766266D01*
X141495721Y-94798669D01*
X141453226Y-94827063D01*
X141417087Y-94863202D01*
X141377605Y-94895604D01*
X141345203Y-94935086D01*
X141309063Y-94971226D01*
X141280668Y-95013722D01*
X141248267Y-95053203D01*
X141224191Y-95098247D01*
X141195795Y-95140744D01*
X141176235Y-95187966D01*
X141152160Y-95233007D01*
X141137335Y-95281878D01*
X141117774Y-95329102D01*
X141107803Y-95379232D01*
X141092977Y-95428105D01*
X141087971Y-95478933D01*
X141078000Y-95529061D01*
X141078000Y-95732939D01*
X141078001Y-95732944D01*
X141078000Y-96898394D01*
X138536953Y-94357347D01*
X144559000Y-94357347D01*
X144559000Y-94561225D01*
X144598774Y-94761184D01*
X144676795Y-94949542D01*
X144790063Y-95119060D01*
X144934226Y-95263223D01*
X145103744Y-95376491D01*
X145292102Y-95454512D01*
X145492061Y-95494286D01*
X145695939Y-95494286D01*
X145895898Y-95454512D01*
X146084256Y-95376491D01*
X146253774Y-95263223D01*
X146397937Y-95119060D01*
X146511205Y-94949542D01*
X146589226Y-94761184D01*
X146618093Y-94616061D01*
X146673154Y-94561000D01*
X147849715Y-94561000D01*
X147972744Y-94643205D01*
X148161102Y-94721226D01*
X148361061Y-94761000D01*
X148564939Y-94761000D01*
X148764898Y-94721226D01*
X148953256Y-94643205D01*
X149122774Y-94529937D01*
X149266937Y-94385774D01*
X149380205Y-94216256D01*
X149458226Y-94027898D01*
X149458551Y-94026262D01*
X152381001Y-96948712D01*
X152381000Y-98323061D01*
X152381000Y-98526939D01*
X152390969Y-98577058D01*
X152395976Y-98627894D01*
X152410804Y-98676774D01*
X152420774Y-98726898D01*
X152440332Y-98774116D01*
X152455159Y-98822992D01*
X152479237Y-98868039D01*
X152498795Y-98915256D01*
X152527186Y-98957747D01*
X152551266Y-99002797D01*
X152583672Y-99042284D01*
X152612063Y-99084774D01*
X152648197Y-99120908D01*
X152680604Y-99160396D01*
X152720092Y-99192803D01*
X152756226Y-99228937D01*
X152798716Y-99257328D01*
X152838203Y-99289734D01*
X152883254Y-99313814D01*
X152925744Y-99342205D01*
X152972958Y-99361762D01*
X153018007Y-99385841D01*
X153066887Y-99400669D01*
X153114102Y-99420226D01*
X153164223Y-99430196D01*
X153213105Y-99445024D01*
X153263943Y-99450031D01*
X153314061Y-99460000D01*
X153365162Y-99460000D01*
X153416000Y-99465007D01*
X153466838Y-99460000D01*
X153517939Y-99460000D01*
X153568058Y-99450031D01*
X153618894Y-99445024D01*
X153667774Y-99430196D01*
X153717898Y-99420226D01*
X153765116Y-99400668D01*
X153813992Y-99385841D01*
X153859039Y-99361763D01*
X153906256Y-99342205D01*
X153948747Y-99313814D01*
X153993797Y-99289734D01*
X154033284Y-99257328D01*
X154075774Y-99228937D01*
X154111908Y-99192803D01*
X154151396Y-99160396D01*
X154183803Y-99120908D01*
X154219937Y-99084774D01*
X154248328Y-99042284D01*
X154280734Y-99002797D01*
X154304814Y-98957746D01*
X154333205Y-98915256D01*
X154352762Y-98868042D01*
X154376841Y-98822993D01*
X154391669Y-98774113D01*
X154411226Y-98726898D01*
X154421196Y-98676777D01*
X154436024Y-98627895D01*
X154441031Y-98577057D01*
X154451000Y-98526939D01*
X154451000Y-96570835D01*
X154456007Y-96520000D01*
X154446119Y-96419604D01*
X154436024Y-96317105D01*
X154376841Y-96122007D01*
X154318041Y-96012000D01*
X154280734Y-95942202D01*
X154183803Y-95824092D01*
X154151396Y-95784604D01*
X154111908Y-95752197D01*
X150155939Y-91796229D01*
X150155937Y-91796226D01*
X150011774Y-91652063D01*
X149969283Y-91623671D01*
X149929797Y-91591266D01*
X149884748Y-91567187D01*
X149842256Y-91538795D01*
X149795036Y-91519236D01*
X149749993Y-91495160D01*
X149701122Y-91480335D01*
X149653898Y-91460774D01*
X149603768Y-91450803D01*
X149554895Y-91435977D01*
X149504067Y-91430971D01*
X149453939Y-91421000D01*
X149402828Y-91421000D01*
X149352000Y-91415994D01*
X149301172Y-91421000D01*
X149250061Y-91421000D01*
X149199933Y-91430971D01*
X149149105Y-91435977D01*
X149100232Y-91450803D01*
X149050102Y-91460774D01*
X149002878Y-91480335D01*
X148954007Y-91495160D01*
X148908964Y-91519236D01*
X148861744Y-91538795D01*
X148819252Y-91567187D01*
X148774203Y-91591266D01*
X148734716Y-91623672D01*
X148692226Y-91652063D01*
X148656092Y-91688197D01*
X148616604Y-91720604D01*
X148584197Y-91760092D01*
X148548063Y-91796226D01*
X148519672Y-91838716D01*
X148487266Y-91878203D01*
X148463187Y-91923252D01*
X148434795Y-91965744D01*
X148415236Y-92012964D01*
X148391160Y-92058007D01*
X148376335Y-92106878D01*
X148356774Y-92154102D01*
X148346803Y-92204232D01*
X148331977Y-92253105D01*
X148326971Y-92303933D01*
X148317000Y-92354061D01*
X148317000Y-92405172D01*
X148311994Y-92456000D01*
X148317000Y-92506828D01*
X148317000Y-92557939D01*
X148326971Y-92608067D01*
X148331977Y-92658895D01*
X148342817Y-92694629D01*
X148161102Y-92730774D01*
X147972744Y-92808795D01*
X147849715Y-92891000D01*
X146368304Y-92891000D01*
X146327285Y-92886960D01*
X146286267Y-92891000D01*
X146163597Y-92903082D01*
X146006199Y-92950828D01*
X145861140Y-93028364D01*
X145733995Y-93132709D01*
X145707844Y-93164574D01*
X145437225Y-93435193D01*
X145292102Y-93464060D01*
X145103744Y-93542081D01*
X144934226Y-93655349D01*
X144790063Y-93799512D01*
X144676795Y-93969030D01*
X144598774Y-94157388D01*
X144559000Y-94357347D01*
X138536953Y-94357347D01*
X136887102Y-92707496D01*
X136774637Y-92570458D01*
X136694022Y-92419637D01*
X136644376Y-92255976D01*
X136627000Y-92079552D01*
X136627000Y-89000000D01*
X136626388Y-88987552D01*
X136607173Y-88792462D01*
X136602317Y-88768044D01*
X136545412Y-88580451D01*
X136535884Y-88557450D01*
X136443474Y-88384563D01*
X136429642Y-88363862D01*
X136305279Y-88212325D01*
X136287675Y-88194721D01*
X136136138Y-88070358D01*
X136115437Y-88056526D01*
X135942550Y-87964116D01*
X135919549Y-87954588D01*
X135731956Y-87897683D01*
X135707538Y-87892827D01*
X135512448Y-87873612D01*
X135500000Y-87873000D01*
X132506234Y-87873000D01*
X132329811Y-87855624D01*
X132166150Y-87805978D01*
X132160000Y-87802691D01*
X132160000Y-86575000D01*
X132496928Y-86575000D01*
X132509188Y-86699482D01*
X132545498Y-86819180D01*
X132604463Y-86929494D01*
X132683815Y-87026185D01*
X132780506Y-87105537D01*
X132890820Y-87164502D01*
X133010518Y-87200812D01*
X133135000Y-87213072D01*
X133699250Y-87210000D01*
X133858000Y-87051250D01*
X133858000Y-85852000D01*
X134112000Y-85852000D01*
X134112000Y-87051250D01*
X134270750Y-87210000D01*
X134835000Y-87213072D01*
X134959482Y-87200812D01*
X135079180Y-87164502D01*
X135189494Y-87105537D01*
X135286185Y-87026185D01*
X135365537Y-86929494D01*
X135424502Y-86819180D01*
X135460812Y-86699482D01*
X135473072Y-86575000D01*
X136306928Y-86575000D01*
X136319188Y-86699482D01*
X136355498Y-86819180D01*
X136414463Y-86929494D01*
X136493815Y-87026185D01*
X136590506Y-87105537D01*
X136700820Y-87164502D01*
X136820518Y-87200812D01*
X136945000Y-87213072D01*
X137509250Y-87210000D01*
X137668000Y-87051250D01*
X137668000Y-85852000D01*
X136468750Y-85852000D01*
X136310000Y-86010750D01*
X136306928Y-86575000D01*
X135473072Y-86575000D01*
X135470000Y-86010750D01*
X135311250Y-85852000D01*
X134112000Y-85852000D01*
X133858000Y-85852000D01*
X132658750Y-85852000D01*
X132500000Y-86010750D01*
X132496928Y-86575000D01*
X132160000Y-86575000D01*
X132160000Y-84875000D01*
X132496928Y-84875000D01*
X132500000Y-85439250D01*
X132658750Y-85598000D01*
X133858000Y-85598000D01*
X133858000Y-84398750D01*
X134112000Y-84398750D01*
X134112000Y-85598000D01*
X135311250Y-85598000D01*
X135470000Y-85439250D01*
X135473072Y-84875000D01*
X136306928Y-84875000D01*
X136310000Y-85439250D01*
X136468750Y-85598000D01*
X137668000Y-85598000D01*
X137668000Y-84398750D01*
X137509250Y-84240000D01*
X136945000Y-84236928D01*
X136820518Y-84249188D01*
X136700820Y-84285498D01*
X136590506Y-84344463D01*
X136493815Y-84423815D01*
X136414463Y-84520506D01*
X136355498Y-84630820D01*
X136319188Y-84750518D01*
X136306928Y-84875000D01*
X135473072Y-84875000D01*
X135460812Y-84750518D01*
X135424502Y-84630820D01*
X135365537Y-84520506D01*
X135286185Y-84423815D01*
X135189494Y-84344463D01*
X135079180Y-84285498D01*
X134959482Y-84249188D01*
X134835000Y-84236928D01*
X134270750Y-84240000D01*
X134112000Y-84398750D01*
X133858000Y-84398750D01*
X133699250Y-84240000D01*
X133135000Y-84236928D01*
X133010518Y-84249188D01*
X132890820Y-84285498D01*
X132780506Y-84344463D01*
X132683815Y-84423815D01*
X132604463Y-84520506D01*
X132545498Y-84630820D01*
X132509188Y-84750518D01*
X132496928Y-84875000D01*
X132160000Y-84875000D01*
X132160000Y-79795000D01*
X132496928Y-79795000D01*
X132496928Y-81495000D01*
X132509188Y-81619482D01*
X132545498Y-81739180D01*
X132604463Y-81849494D01*
X132683815Y-81946185D01*
X132780506Y-82025537D01*
X132890820Y-82084502D01*
X133010518Y-82120812D01*
X133135000Y-82133072D01*
X134835000Y-82133072D01*
X134959482Y-82120812D01*
X135079180Y-82084502D01*
X135189494Y-82025537D01*
X135286185Y-81946185D01*
X135365537Y-81849494D01*
X135424502Y-81739180D01*
X135460812Y-81619482D01*
X135473072Y-81495000D01*
X135473072Y-79795000D01*
X135460812Y-79670518D01*
X135424502Y-79550820D01*
X135365537Y-79440506D01*
X135286185Y-79343815D01*
X135189494Y-79264463D01*
X135079180Y-79205498D01*
X135006620Y-79183487D01*
X135138475Y-79051632D01*
X135300990Y-78808411D01*
X135412932Y-78538158D01*
X135470000Y-78251260D01*
X135470000Y-77958740D01*
X135412932Y-77671842D01*
X135300990Y-77401589D01*
X135138475Y-77158368D01*
X134931632Y-76951525D01*
X134688411Y-76789010D01*
X134418158Y-76677068D01*
X134131260Y-76620000D01*
X133838740Y-76620000D01*
X133551842Y-76677068D01*
X133281589Y-76789010D01*
X133038368Y-76951525D01*
X132831525Y-77158368D01*
X132669010Y-77401589D01*
X132557068Y-77671842D01*
X132500000Y-77958740D01*
X132500000Y-78251260D01*
X132557068Y-78538158D01*
X132669010Y-78808411D01*
X132831525Y-79051632D01*
X132963380Y-79183487D01*
X132890820Y-79205498D01*
X132780506Y-79264463D01*
X132683815Y-79343815D01*
X132604463Y-79440506D01*
X132545498Y-79550820D01*
X132509188Y-79670518D01*
X132496928Y-79795000D01*
X132160000Y-79795000D01*
X132160000Y-76532277D01*
X132179102Y-76337460D01*
X132226308Y-76181106D01*
X132302982Y-76036904D01*
X132406207Y-75910337D01*
X132532051Y-75806231D01*
X132675711Y-75728553D01*
X132831729Y-75680258D01*
X133024473Y-75660000D01*
X152802691Y-75660000D01*
X152805978Y-75666150D01*
G36*
X169662540Y-75679102D02*
G01*
X169818894Y-75726308D01*
X169963096Y-75802982D01*
X170089663Y-75906207D01*
X170193769Y-76032051D01*
X170271447Y-76175711D01*
X170319742Y-76331729D01*
X170340001Y-76524482D01*
X170340001Y-88098531D01*
X170289853Y-87846426D01*
X170181680Y-87585273D01*
X170024637Y-87350241D01*
X169824759Y-87150363D01*
X169589727Y-86993320D01*
X169328574Y-86885147D01*
X169051335Y-86830000D01*
X168768665Y-86830000D01*
X168491426Y-86885147D01*
X168230273Y-86993320D01*
X167995241Y-87150363D01*
X167795363Y-87350241D01*
X167640000Y-87582759D01*
X167484637Y-87350241D01*
X167284759Y-87150363D01*
X167163196Y-87069137D01*
X167179405Y-87049387D01*
X167261472Y-86895851D01*
X167312008Y-86729255D01*
X167329072Y-86556001D01*
X167329072Y-85655999D01*
X167312008Y-85482745D01*
X167261472Y-85316149D01*
X167179405Y-85162613D01*
X167068962Y-85028038D01*
X166934387Y-84917595D01*
X166915000Y-84907232D01*
X166915000Y-84797999D01*
X166943405Y-84763387D01*
X167025472Y-84609851D01*
X167076008Y-84443255D01*
X167093072Y-84270001D01*
X167093072Y-83369999D01*
X167076008Y-83196745D01*
X167025472Y-83030149D01*
X166943405Y-82876613D01*
X166832962Y-82742038D01*
X166698387Y-82631595D01*
X166544851Y-82549528D01*
X166378255Y-82498992D01*
X166205001Y-82481928D01*
X165554999Y-82481928D01*
X165381745Y-82498992D01*
X165215149Y-82549528D01*
X165061613Y-82631595D01*
X164927038Y-82742038D01*
X164921658Y-82748594D01*
X164856185Y-82668815D01*
X164759494Y-82589463D01*
X164649180Y-82530498D01*
X164529482Y-82494188D01*
X164405000Y-82481928D01*
X164115750Y-82485000D01*
X163957000Y-82643750D01*
X163957000Y-83693000D01*
X163977000Y-83693000D01*
X163977000Y-83947000D01*
X163957000Y-83947000D01*
X163957000Y-83967000D01*
X163703000Y-83967000D01*
X163703000Y-83947000D01*
X162778750Y-83947000D01*
X162620000Y-84105750D01*
X162616928Y-84520000D01*
X162629188Y-84644482D01*
X162665498Y-84764180D01*
X162724463Y-84874494D01*
X162803815Y-84971185D01*
X162900506Y-85050537D01*
X163010820Y-85109502D01*
X163039133Y-85118091D01*
X163002595Y-85162613D01*
X162920528Y-85316149D01*
X162869992Y-85482745D01*
X162852928Y-85655999D01*
X162852928Y-86556001D01*
X162869992Y-86729255D01*
X162920528Y-86895851D01*
X163002595Y-87049387D01*
X163025179Y-87076905D01*
X162915241Y-87150363D01*
X162715363Y-87350241D01*
X162560000Y-87582759D01*
X162404637Y-87350241D01*
X162204759Y-87150363D01*
X161969727Y-86993320D01*
X161708574Y-86885147D01*
X161467283Y-86837151D01*
X160643353Y-86013222D01*
X160630577Y-85883501D01*
X160565676Y-85669553D01*
X160460284Y-85472377D01*
X160318449Y-85299551D01*
X160145623Y-85157716D01*
X159948446Y-85052324D01*
X159734498Y-84987423D01*
X159512000Y-84965509D01*
X159289501Y-84987423D01*
X159075553Y-85052324D01*
X158878377Y-85157716D01*
X158705551Y-85299551D01*
X158563716Y-85472377D01*
X158458324Y-85669554D01*
X158393423Y-85883502D01*
X158377000Y-86050249D01*
X158377000Y-86431249D01*
X158371509Y-86487000D01*
X158377000Y-86542751D01*
X158377000Y-86542752D01*
X158393423Y-86709499D01*
X158458324Y-86923447D01*
X158563717Y-87120623D01*
X158705552Y-87293449D01*
X158748860Y-87328991D01*
X159862151Y-88442283D01*
X159910147Y-88683574D01*
X160018320Y-88944727D01*
X160175363Y-89179759D01*
X160255000Y-89259396D01*
X160255000Y-90119172D01*
X160249994Y-90170000D01*
X160255000Y-90220828D01*
X160255000Y-90220837D01*
X160269976Y-90372894D01*
X160329159Y-90567992D01*
X160425266Y-90747797D01*
X160554604Y-90905396D01*
X160594097Y-90937807D01*
X161029289Y-91373000D01*
X157063072Y-91373000D01*
X157063072Y-89955000D01*
X157050812Y-89830518D01*
X157014502Y-89710820D01*
X156955537Y-89600506D01*
X156876185Y-89503815D01*
X156779494Y-89424463D01*
X156669180Y-89365498D01*
X156588534Y-89341034D01*
X156672588Y-89265269D01*
X156846641Y-89031920D01*
X156971825Y-88769099D01*
X157016476Y-88621890D01*
X156895155Y-88392000D01*
X155702000Y-88392000D01*
X155702000Y-88412000D01*
X155448000Y-88412000D01*
X155448000Y-88392000D01*
X155428000Y-88392000D01*
X155428000Y-88138000D01*
X155448000Y-88138000D01*
X155448000Y-86944186D01*
X155702000Y-86944186D01*
X155702000Y-88138000D01*
X156895155Y-88138000D01*
X157016476Y-87908110D01*
X156971825Y-87760901D01*
X156846641Y-87498080D01*
X156672588Y-87264731D01*
X156456355Y-87069822D01*
X156206252Y-86920843D01*
X155931891Y-86823519D01*
X155702000Y-86944186D01*
X155448000Y-86944186D01*
X155218109Y-86823519D01*
X155038821Y-86887118D01*
X154977676Y-86685553D01*
X154923652Y-86584480D01*
X156465146Y-85042987D01*
X156508449Y-85007449D01*
X156575848Y-84925324D01*
X156650284Y-84834623D01*
X156755676Y-84637447D01*
X156820577Y-84423499D01*
X156842491Y-84201000D01*
X156837000Y-84145248D01*
X156837000Y-83120000D01*
X162616928Y-83120000D01*
X162620000Y-83534250D01*
X162778750Y-83693000D01*
X163703000Y-83693000D01*
X163703000Y-82643750D01*
X163544250Y-82485000D01*
X163255000Y-82481928D01*
X163130518Y-82494188D01*
X163010820Y-82530498D01*
X162900506Y-82589463D01*
X162803815Y-82668815D01*
X162724463Y-82765506D01*
X162665498Y-82875820D01*
X162629188Y-82995518D01*
X162616928Y-83120000D01*
X156837000Y-83120000D01*
X156837000Y-81234129D01*
X159319815Y-78751314D01*
X159459822Y-78986355D01*
X159654731Y-79202588D01*
X159888080Y-79376641D01*
X160150901Y-79501825D01*
X160298110Y-79546476D01*
X160528000Y-79425155D01*
X160528000Y-78232000D01*
X160508000Y-78232000D01*
X160508000Y-77978000D01*
X160528000Y-77978000D01*
X160528000Y-77958000D01*
X160782000Y-77958000D01*
X160782000Y-77978000D01*
X160802000Y-77978000D01*
X160802000Y-78232000D01*
X160782000Y-78232000D01*
X160782000Y-79425155D01*
X161011890Y-79546476D01*
X161159099Y-79501825D01*
X161421920Y-79376641D01*
X161655269Y-79202588D01*
X161731034Y-79118534D01*
X161755498Y-79199180D01*
X161814463Y-79309494D01*
X161893815Y-79406185D01*
X161990506Y-79485537D01*
X162100820Y-79544502D01*
X162220518Y-79580812D01*
X162345000Y-79593072D01*
X164045000Y-79593072D01*
X164169482Y-79580812D01*
X164289180Y-79544502D01*
X164399494Y-79485537D01*
X164496185Y-79406185D01*
X164575537Y-79309494D01*
X164634502Y-79199180D01*
X164670812Y-79079482D01*
X164683072Y-78955000D01*
X164683072Y-77255000D01*
X164678443Y-77208000D01*
X165790752Y-77208000D01*
X165957499Y-77191577D01*
X166171447Y-77126676D01*
X166368623Y-77021284D01*
X166541449Y-76879449D01*
X166683284Y-76706623D01*
X166788676Y-76509447D01*
X166853577Y-76295499D01*
X166875491Y-76073000D01*
X166853577Y-75850501D01*
X166795789Y-75660000D01*
X169467723Y-75660000D01*
X169662540Y-75679102D01*
G37*
X169662540Y-75679102D02*
X169818894Y-75726308D01*
X169963096Y-75802982D01*
X170089663Y-75906207D01*
X170193769Y-76032051D01*
X170271447Y-76175711D01*
X170319742Y-76331729D01*
X170340001Y-76524482D01*
X170340001Y-88098531D01*
X170289853Y-87846426D01*
X170181680Y-87585273D01*
X170024637Y-87350241D01*
X169824759Y-87150363D01*
X169589727Y-86993320D01*
X169328574Y-86885147D01*
X169051335Y-86830000D01*
X168768665Y-86830000D01*
X168491426Y-86885147D01*
X168230273Y-86993320D01*
X167995241Y-87150363D01*
X167795363Y-87350241D01*
X167640000Y-87582759D01*
X167484637Y-87350241D01*
X167284759Y-87150363D01*
X167163196Y-87069137D01*
X167179405Y-87049387D01*
X167261472Y-86895851D01*
X167312008Y-86729255D01*
X167329072Y-86556001D01*
X167329072Y-85655999D01*
X167312008Y-85482745D01*
X167261472Y-85316149D01*
X167179405Y-85162613D01*
X167068962Y-85028038D01*
X166934387Y-84917595D01*
X166915000Y-84907232D01*
X166915000Y-84797999D01*
X166943405Y-84763387D01*
X167025472Y-84609851D01*
X167076008Y-84443255D01*
X167093072Y-84270001D01*
X167093072Y-83369999D01*
X167076008Y-83196745D01*
X167025472Y-83030149D01*
X166943405Y-82876613D01*
X166832962Y-82742038D01*
X166698387Y-82631595D01*
X166544851Y-82549528D01*
X166378255Y-82498992D01*
X166205001Y-82481928D01*
X165554999Y-82481928D01*
X165381745Y-82498992D01*
X165215149Y-82549528D01*
X165061613Y-82631595D01*
X164927038Y-82742038D01*
X164921658Y-82748594D01*
X164856185Y-82668815D01*
X164759494Y-82589463D01*
X164649180Y-82530498D01*
X164529482Y-82494188D01*
X164405000Y-82481928D01*
X164115750Y-82485000D01*
X163957000Y-82643750D01*
X163957000Y-83693000D01*
X163977000Y-83693000D01*
X163977000Y-83947000D01*
X163957000Y-83947000D01*
X163957000Y-83967000D01*
X163703000Y-83967000D01*
X163703000Y-83947000D01*
X162778750Y-83947000D01*
X162620000Y-84105750D01*
X162616928Y-84520000D01*
X162629188Y-84644482D01*
X162665498Y-84764180D01*
X162724463Y-84874494D01*
X162803815Y-84971185D01*
X162900506Y-85050537D01*
X163010820Y-85109502D01*
X163039133Y-85118091D01*
X163002595Y-85162613D01*
X162920528Y-85316149D01*
X162869992Y-85482745D01*
X162852928Y-85655999D01*
X162852928Y-86556001D01*
X162869992Y-86729255D01*
X162920528Y-86895851D01*
X163002595Y-87049387D01*
X163025179Y-87076905D01*
X162915241Y-87150363D01*
X162715363Y-87350241D01*
X162560000Y-87582759D01*
X162404637Y-87350241D01*
X162204759Y-87150363D01*
X161969727Y-86993320D01*
X161708574Y-86885147D01*
X161467283Y-86837151D01*
X160643353Y-86013222D01*
X160630577Y-85883501D01*
X160565676Y-85669553D01*
X160460284Y-85472377D01*
X160318449Y-85299551D01*
X160145623Y-85157716D01*
X159948446Y-85052324D01*
X159734498Y-84987423D01*
X159512000Y-84965509D01*
X159289501Y-84987423D01*
X159075553Y-85052324D01*
X158878377Y-85157716D01*
X158705551Y-85299551D01*
X158563716Y-85472377D01*
X158458324Y-85669554D01*
X158393423Y-85883502D01*
X158377000Y-86050249D01*
X158377000Y-86431249D01*
X158371509Y-86487000D01*
X158377000Y-86542751D01*
X158377000Y-86542752D01*
X158393423Y-86709499D01*
X158458324Y-86923447D01*
X158563717Y-87120623D01*
X158705552Y-87293449D01*
X158748860Y-87328991D01*
X159862151Y-88442283D01*
X159910147Y-88683574D01*
X160018320Y-88944727D01*
X160175363Y-89179759D01*
X160255000Y-89259396D01*
X160255000Y-90119172D01*
X160249994Y-90170000D01*
X160255000Y-90220828D01*
X160255000Y-90220837D01*
X160269976Y-90372894D01*
X160329159Y-90567992D01*
X160425266Y-90747797D01*
X160554604Y-90905396D01*
X160594097Y-90937807D01*
X161029289Y-91373000D01*
X157063072Y-91373000D01*
X157063072Y-89955000D01*
X157050812Y-89830518D01*
X157014502Y-89710820D01*
X156955537Y-89600506D01*
X156876185Y-89503815D01*
X156779494Y-89424463D01*
X156669180Y-89365498D01*
X156588534Y-89341034D01*
X156672588Y-89265269D01*
X156846641Y-89031920D01*
X156971825Y-88769099D01*
X157016476Y-88621890D01*
X156895155Y-88392000D01*
X155702000Y-88392000D01*
X155702000Y-88412000D01*
X155448000Y-88412000D01*
X155448000Y-88392000D01*
X155428000Y-88392000D01*
X155428000Y-88138000D01*
X155448000Y-88138000D01*
X155448000Y-86944186D01*
X155702000Y-86944186D01*
X155702000Y-88138000D01*
X156895155Y-88138000D01*
X157016476Y-87908110D01*
X156971825Y-87760901D01*
X156846641Y-87498080D01*
X156672588Y-87264731D01*
X156456355Y-87069822D01*
X156206252Y-86920843D01*
X155931891Y-86823519D01*
X155702000Y-86944186D01*
X155448000Y-86944186D01*
X155218109Y-86823519D01*
X155038821Y-86887118D01*
X154977676Y-86685553D01*
X154923652Y-86584480D01*
X156465146Y-85042987D01*
X156508449Y-85007449D01*
X156575848Y-84925324D01*
X156650284Y-84834623D01*
X156755676Y-84637447D01*
X156820577Y-84423499D01*
X156842491Y-84201000D01*
X156837000Y-84145248D01*
X156837000Y-83120000D01*
X162616928Y-83120000D01*
X162620000Y-83534250D01*
X162778750Y-83693000D01*
X163703000Y-83693000D01*
X163703000Y-82643750D01*
X163544250Y-82485000D01*
X163255000Y-82481928D01*
X163130518Y-82494188D01*
X163010820Y-82530498D01*
X162900506Y-82589463D01*
X162803815Y-82668815D01*
X162724463Y-82765506D01*
X162665498Y-82875820D01*
X162629188Y-82995518D01*
X162616928Y-83120000D01*
X156837000Y-83120000D01*
X156837000Y-81234129D01*
X159319815Y-78751314D01*
X159459822Y-78986355D01*
X159654731Y-79202588D01*
X159888080Y-79376641D01*
X160150901Y-79501825D01*
X160298110Y-79546476D01*
X160528000Y-79425155D01*
X160528000Y-78232000D01*
X160508000Y-78232000D01*
X160508000Y-77978000D01*
X160528000Y-77978000D01*
X160528000Y-77958000D01*
X160782000Y-77958000D01*
X160782000Y-77978000D01*
X160802000Y-77978000D01*
X160802000Y-78232000D01*
X160782000Y-78232000D01*
X160782000Y-79425155D01*
X161011890Y-79546476D01*
X161159099Y-79501825D01*
X161421920Y-79376641D01*
X161655269Y-79202588D01*
X161731034Y-79118534D01*
X161755498Y-79199180D01*
X161814463Y-79309494D01*
X161893815Y-79406185D01*
X161990506Y-79485537D01*
X162100820Y-79544502D01*
X162220518Y-79580812D01*
X162345000Y-79593072D01*
X164045000Y-79593072D01*
X164169482Y-79580812D01*
X164289180Y-79544502D01*
X164399494Y-79485537D01*
X164496185Y-79406185D01*
X164575537Y-79309494D01*
X164634502Y-79199180D01*
X164670812Y-79079482D01*
X164683072Y-78955000D01*
X164683072Y-77255000D01*
X164678443Y-77208000D01*
X165790752Y-77208000D01*
X165957499Y-77191577D01*
X166171447Y-77126676D01*
X166368623Y-77021284D01*
X166541449Y-76879449D01*
X166683284Y-76706623D01*
X166788676Y-76509447D01*
X166853577Y-76295499D01*
X166875491Y-76073000D01*
X166853577Y-75850501D01*
X166795789Y-75660000D01*
X169467723Y-75660000D01*
X169662540Y-75679102D01*
M02*
