G04 #@! TF.GenerationSoftware,KiCad,Pcbnew,(5.1.5)-3*
G04 #@! TF.CreationDate,2020-02-05T13:37:12+11:00*
G04 #@! TF.ProjectId,Heterodyne,48657465-726f-4647-996e-652e6b696361,rev?*
G04 #@! TF.SameCoordinates,Original*
G04 #@! TF.FileFunction,Copper,L1,Top*
G04 #@! TF.FilePolarity,Positive*
%FSLAX46Y46*%
G04 Gerber Fmt 4.6, Leading zero omitted, Abs format (unit mm)*
G04 Created by KiCad (PCBNEW (5.1.5)-3) date 2020-02-05 13:37:12*
%MOMM*%
%LPD*%
G04 APERTURE LIST*
%ADD10C,0.100000*%
%ADD11R,1.700000X1.700000*%
%ADD12O,1.700000X1.700000*%
%ADD13R,1.000000X1.500000*%
%ADD14R,1.500000X1.000000*%
%ADD15R,1.500000X0.450000*%
%ADD16R,1.600000X1.600000*%
%ADD17O,1.600000X1.600000*%
%ADD18C,0.800000*%
%ADD19C,0.800000*%
%ADD20C,1.600000*%
%ADD21C,0.400000*%
%ADD22C,1.000000*%
%ADD23C,1.200000*%
%ADD24C,0.600000*%
%ADD25C,0.254000*%
G04 APERTURE END LIST*
G04 #@! TA.AperFunction,SMDPad,CuDef*
D10*
G36*
X139414505Y-77406204D02*
G01*
X139438773Y-77409804D01*
X139462572Y-77415765D01*
X139485671Y-77424030D01*
X139507850Y-77434520D01*
X139528893Y-77447132D01*
X139548599Y-77461747D01*
X139566777Y-77478223D01*
X139583253Y-77496401D01*
X139597868Y-77516107D01*
X139610480Y-77537150D01*
X139620970Y-77559329D01*
X139629235Y-77582428D01*
X139635196Y-77606227D01*
X139638796Y-77630495D01*
X139640000Y-77654999D01*
X139640000Y-78555001D01*
X139638796Y-78579505D01*
X139635196Y-78603773D01*
X139629235Y-78627572D01*
X139620970Y-78650671D01*
X139610480Y-78672850D01*
X139597868Y-78693893D01*
X139583253Y-78713599D01*
X139566777Y-78731777D01*
X139548599Y-78748253D01*
X139528893Y-78762868D01*
X139507850Y-78775480D01*
X139485671Y-78785970D01*
X139462572Y-78794235D01*
X139438773Y-78800196D01*
X139414505Y-78803796D01*
X139390001Y-78805000D01*
X138739999Y-78805000D01*
X138715495Y-78803796D01*
X138691227Y-78800196D01*
X138667428Y-78794235D01*
X138644329Y-78785970D01*
X138622150Y-78775480D01*
X138601107Y-78762868D01*
X138581401Y-78748253D01*
X138563223Y-78731777D01*
X138546747Y-78713599D01*
X138532132Y-78693893D01*
X138519520Y-78672850D01*
X138509030Y-78650671D01*
X138500765Y-78627572D01*
X138494804Y-78603773D01*
X138491204Y-78579505D01*
X138490000Y-78555001D01*
X138490000Y-77654999D01*
X138491204Y-77630495D01*
X138494804Y-77606227D01*
X138500765Y-77582428D01*
X138509030Y-77559329D01*
X138519520Y-77537150D01*
X138532132Y-77516107D01*
X138546747Y-77496401D01*
X138563223Y-77478223D01*
X138581401Y-77461747D01*
X138601107Y-77447132D01*
X138622150Y-77434520D01*
X138644329Y-77424030D01*
X138667428Y-77415765D01*
X138691227Y-77409804D01*
X138715495Y-77406204D01*
X138739999Y-77405000D01*
X139390001Y-77405000D01*
X139414505Y-77406204D01*
G37*
G04 #@! TD.AperFunction*
G04 #@! TA.AperFunction,SMDPad,CuDef*
G36*
X137364505Y-77406204D02*
G01*
X137388773Y-77409804D01*
X137412572Y-77415765D01*
X137435671Y-77424030D01*
X137457850Y-77434520D01*
X137478893Y-77447132D01*
X137498599Y-77461747D01*
X137516777Y-77478223D01*
X137533253Y-77496401D01*
X137547868Y-77516107D01*
X137560480Y-77537150D01*
X137570970Y-77559329D01*
X137579235Y-77582428D01*
X137585196Y-77606227D01*
X137588796Y-77630495D01*
X137590000Y-77654999D01*
X137590000Y-78555001D01*
X137588796Y-78579505D01*
X137585196Y-78603773D01*
X137579235Y-78627572D01*
X137570970Y-78650671D01*
X137560480Y-78672850D01*
X137547868Y-78693893D01*
X137533253Y-78713599D01*
X137516777Y-78731777D01*
X137498599Y-78748253D01*
X137478893Y-78762868D01*
X137457850Y-78775480D01*
X137435671Y-78785970D01*
X137412572Y-78794235D01*
X137388773Y-78800196D01*
X137364505Y-78803796D01*
X137340001Y-78805000D01*
X136689999Y-78805000D01*
X136665495Y-78803796D01*
X136641227Y-78800196D01*
X136617428Y-78794235D01*
X136594329Y-78785970D01*
X136572150Y-78775480D01*
X136551107Y-78762868D01*
X136531401Y-78748253D01*
X136513223Y-78731777D01*
X136496747Y-78713599D01*
X136482132Y-78693893D01*
X136469520Y-78672850D01*
X136459030Y-78650671D01*
X136450765Y-78627572D01*
X136444804Y-78603773D01*
X136441204Y-78579505D01*
X136440000Y-78555001D01*
X136440000Y-77654999D01*
X136441204Y-77630495D01*
X136444804Y-77606227D01*
X136450765Y-77582428D01*
X136459030Y-77559329D01*
X136469520Y-77537150D01*
X136482132Y-77516107D01*
X136496747Y-77496401D01*
X136513223Y-77478223D01*
X136531401Y-77461747D01*
X136551107Y-77447132D01*
X136572150Y-77434520D01*
X136594329Y-77424030D01*
X136617428Y-77415765D01*
X136641227Y-77409804D01*
X136665495Y-77406204D01*
X136689999Y-77405000D01*
X137340001Y-77405000D01*
X137364505Y-77406204D01*
G37*
G04 #@! TD.AperFunction*
G04 #@! TA.AperFunction,SMDPad,CuDef*
G36*
X137364505Y-79946204D02*
G01*
X137388773Y-79949804D01*
X137412572Y-79955765D01*
X137435671Y-79964030D01*
X137457850Y-79974520D01*
X137478893Y-79987132D01*
X137498599Y-80001747D01*
X137516777Y-80018223D01*
X137533253Y-80036401D01*
X137547868Y-80056107D01*
X137560480Y-80077150D01*
X137570970Y-80099329D01*
X137579235Y-80122428D01*
X137585196Y-80146227D01*
X137588796Y-80170495D01*
X137590000Y-80194999D01*
X137590000Y-81095001D01*
X137588796Y-81119505D01*
X137585196Y-81143773D01*
X137579235Y-81167572D01*
X137570970Y-81190671D01*
X137560480Y-81212850D01*
X137547868Y-81233893D01*
X137533253Y-81253599D01*
X137516777Y-81271777D01*
X137498599Y-81288253D01*
X137478893Y-81302868D01*
X137457850Y-81315480D01*
X137435671Y-81325970D01*
X137412572Y-81334235D01*
X137388773Y-81340196D01*
X137364505Y-81343796D01*
X137340001Y-81345000D01*
X136689999Y-81345000D01*
X136665495Y-81343796D01*
X136641227Y-81340196D01*
X136617428Y-81334235D01*
X136594329Y-81325970D01*
X136572150Y-81315480D01*
X136551107Y-81302868D01*
X136531401Y-81288253D01*
X136513223Y-81271777D01*
X136496747Y-81253599D01*
X136482132Y-81233893D01*
X136469520Y-81212850D01*
X136459030Y-81190671D01*
X136450765Y-81167572D01*
X136444804Y-81143773D01*
X136441204Y-81119505D01*
X136440000Y-81095001D01*
X136440000Y-80194999D01*
X136441204Y-80170495D01*
X136444804Y-80146227D01*
X136450765Y-80122428D01*
X136459030Y-80099329D01*
X136469520Y-80077150D01*
X136482132Y-80056107D01*
X136496747Y-80036401D01*
X136513223Y-80018223D01*
X136531401Y-80001747D01*
X136551107Y-79987132D01*
X136572150Y-79974520D01*
X136594329Y-79964030D01*
X136617428Y-79955765D01*
X136641227Y-79949804D01*
X136665495Y-79946204D01*
X136689999Y-79945000D01*
X137340001Y-79945000D01*
X137364505Y-79946204D01*
G37*
G04 #@! TD.AperFunction*
G04 #@! TA.AperFunction,SMDPad,CuDef*
G36*
X139414505Y-79946204D02*
G01*
X139438773Y-79949804D01*
X139462572Y-79955765D01*
X139485671Y-79964030D01*
X139507850Y-79974520D01*
X139528893Y-79987132D01*
X139548599Y-80001747D01*
X139566777Y-80018223D01*
X139583253Y-80036401D01*
X139597868Y-80056107D01*
X139610480Y-80077150D01*
X139620970Y-80099329D01*
X139629235Y-80122428D01*
X139635196Y-80146227D01*
X139638796Y-80170495D01*
X139640000Y-80194999D01*
X139640000Y-81095001D01*
X139638796Y-81119505D01*
X139635196Y-81143773D01*
X139629235Y-81167572D01*
X139620970Y-81190671D01*
X139610480Y-81212850D01*
X139597868Y-81233893D01*
X139583253Y-81253599D01*
X139566777Y-81271777D01*
X139548599Y-81288253D01*
X139528893Y-81302868D01*
X139507850Y-81315480D01*
X139485671Y-81325970D01*
X139462572Y-81334235D01*
X139438773Y-81340196D01*
X139414505Y-81343796D01*
X139390001Y-81345000D01*
X138739999Y-81345000D01*
X138715495Y-81343796D01*
X138691227Y-81340196D01*
X138667428Y-81334235D01*
X138644329Y-81325970D01*
X138622150Y-81315480D01*
X138601107Y-81302868D01*
X138581401Y-81288253D01*
X138563223Y-81271777D01*
X138546747Y-81253599D01*
X138532132Y-81233893D01*
X138519520Y-81212850D01*
X138509030Y-81190671D01*
X138500765Y-81167572D01*
X138494804Y-81143773D01*
X138491204Y-81119505D01*
X138490000Y-81095001D01*
X138490000Y-80194999D01*
X138491204Y-80170495D01*
X138494804Y-80146227D01*
X138500765Y-80122428D01*
X138509030Y-80099329D01*
X138519520Y-80077150D01*
X138532132Y-80056107D01*
X138546747Y-80036401D01*
X138563223Y-80018223D01*
X138581401Y-80001747D01*
X138601107Y-79987132D01*
X138622150Y-79974520D01*
X138644329Y-79964030D01*
X138667428Y-79955765D01*
X138691227Y-79949804D01*
X138715495Y-79946204D01*
X138739999Y-79945000D01*
X139390001Y-79945000D01*
X139414505Y-79946204D01*
G37*
G04 #@! TD.AperFunction*
G04 #@! TA.AperFunction,SMDPad,CuDef*
G36*
X149699505Y-103076204D02*
G01*
X149723773Y-103079804D01*
X149747572Y-103085765D01*
X149770671Y-103094030D01*
X149792850Y-103104520D01*
X149813893Y-103117132D01*
X149833599Y-103131747D01*
X149851777Y-103148223D01*
X149868253Y-103166401D01*
X149882868Y-103186107D01*
X149895480Y-103207150D01*
X149905970Y-103229329D01*
X149914235Y-103252428D01*
X149920196Y-103276227D01*
X149923796Y-103300495D01*
X149925000Y-103324999D01*
X149925000Y-103975001D01*
X149923796Y-103999505D01*
X149920196Y-104023773D01*
X149914235Y-104047572D01*
X149905970Y-104070671D01*
X149895480Y-104092850D01*
X149882868Y-104113893D01*
X149868253Y-104133599D01*
X149851777Y-104151777D01*
X149833599Y-104168253D01*
X149813893Y-104182868D01*
X149792850Y-104195480D01*
X149770671Y-104205970D01*
X149747572Y-104214235D01*
X149723773Y-104220196D01*
X149699505Y-104223796D01*
X149675001Y-104225000D01*
X148774999Y-104225000D01*
X148750495Y-104223796D01*
X148726227Y-104220196D01*
X148702428Y-104214235D01*
X148679329Y-104205970D01*
X148657150Y-104195480D01*
X148636107Y-104182868D01*
X148616401Y-104168253D01*
X148598223Y-104151777D01*
X148581747Y-104133599D01*
X148567132Y-104113893D01*
X148554520Y-104092850D01*
X148544030Y-104070671D01*
X148535765Y-104047572D01*
X148529804Y-104023773D01*
X148526204Y-103999505D01*
X148525000Y-103975001D01*
X148525000Y-103324999D01*
X148526204Y-103300495D01*
X148529804Y-103276227D01*
X148535765Y-103252428D01*
X148544030Y-103229329D01*
X148554520Y-103207150D01*
X148567132Y-103186107D01*
X148581747Y-103166401D01*
X148598223Y-103148223D01*
X148616401Y-103131747D01*
X148636107Y-103117132D01*
X148657150Y-103104520D01*
X148679329Y-103094030D01*
X148702428Y-103085765D01*
X148726227Y-103079804D01*
X148750495Y-103076204D01*
X148774999Y-103075000D01*
X149675001Y-103075000D01*
X149699505Y-103076204D01*
G37*
G04 #@! TD.AperFunction*
G04 #@! TA.AperFunction,SMDPad,CuDef*
G36*
X149699505Y-101026204D02*
G01*
X149723773Y-101029804D01*
X149747572Y-101035765D01*
X149770671Y-101044030D01*
X149792850Y-101054520D01*
X149813893Y-101067132D01*
X149833599Y-101081747D01*
X149851777Y-101098223D01*
X149868253Y-101116401D01*
X149882868Y-101136107D01*
X149895480Y-101157150D01*
X149905970Y-101179329D01*
X149914235Y-101202428D01*
X149920196Y-101226227D01*
X149923796Y-101250495D01*
X149925000Y-101274999D01*
X149925000Y-101925001D01*
X149923796Y-101949505D01*
X149920196Y-101973773D01*
X149914235Y-101997572D01*
X149905970Y-102020671D01*
X149895480Y-102042850D01*
X149882868Y-102063893D01*
X149868253Y-102083599D01*
X149851777Y-102101777D01*
X149833599Y-102118253D01*
X149813893Y-102132868D01*
X149792850Y-102145480D01*
X149770671Y-102155970D01*
X149747572Y-102164235D01*
X149723773Y-102170196D01*
X149699505Y-102173796D01*
X149675001Y-102175000D01*
X148774999Y-102175000D01*
X148750495Y-102173796D01*
X148726227Y-102170196D01*
X148702428Y-102164235D01*
X148679329Y-102155970D01*
X148657150Y-102145480D01*
X148636107Y-102132868D01*
X148616401Y-102118253D01*
X148598223Y-102101777D01*
X148581747Y-102083599D01*
X148567132Y-102063893D01*
X148554520Y-102042850D01*
X148544030Y-102020671D01*
X148535765Y-101997572D01*
X148529804Y-101973773D01*
X148526204Y-101949505D01*
X148525000Y-101925001D01*
X148525000Y-101274999D01*
X148526204Y-101250495D01*
X148529804Y-101226227D01*
X148535765Y-101202428D01*
X148544030Y-101179329D01*
X148554520Y-101157150D01*
X148567132Y-101136107D01*
X148581747Y-101116401D01*
X148598223Y-101098223D01*
X148616401Y-101081747D01*
X148636107Y-101067132D01*
X148657150Y-101054520D01*
X148679329Y-101044030D01*
X148702428Y-101035765D01*
X148726227Y-101029804D01*
X148750495Y-101026204D01*
X148774999Y-101025000D01*
X149675001Y-101025000D01*
X149699505Y-101026204D01*
G37*
G04 #@! TD.AperFunction*
G04 #@! TA.AperFunction,SMDPad,CuDef*
G36*
X144993505Y-92011204D02*
G01*
X145017773Y-92014804D01*
X145041572Y-92020765D01*
X145064671Y-92029030D01*
X145086850Y-92039520D01*
X145107893Y-92052132D01*
X145127599Y-92066747D01*
X145145777Y-92083223D01*
X145162253Y-92101401D01*
X145176868Y-92121107D01*
X145189480Y-92142150D01*
X145199970Y-92164329D01*
X145208235Y-92187428D01*
X145214196Y-92211227D01*
X145217796Y-92235495D01*
X145219000Y-92259999D01*
X145219000Y-93160001D01*
X145217796Y-93184505D01*
X145214196Y-93208773D01*
X145208235Y-93232572D01*
X145199970Y-93255671D01*
X145189480Y-93277850D01*
X145176868Y-93298893D01*
X145162253Y-93318599D01*
X145145777Y-93336777D01*
X145127599Y-93353253D01*
X145107893Y-93367868D01*
X145086850Y-93380480D01*
X145064671Y-93390970D01*
X145041572Y-93399235D01*
X145017773Y-93405196D01*
X144993505Y-93408796D01*
X144969001Y-93410000D01*
X144318999Y-93410000D01*
X144294495Y-93408796D01*
X144270227Y-93405196D01*
X144246428Y-93399235D01*
X144223329Y-93390970D01*
X144201150Y-93380480D01*
X144180107Y-93367868D01*
X144160401Y-93353253D01*
X144142223Y-93336777D01*
X144125747Y-93318599D01*
X144111132Y-93298893D01*
X144098520Y-93277850D01*
X144088030Y-93255671D01*
X144079765Y-93232572D01*
X144073804Y-93208773D01*
X144070204Y-93184505D01*
X144069000Y-93160001D01*
X144069000Y-92259999D01*
X144070204Y-92235495D01*
X144073804Y-92211227D01*
X144079765Y-92187428D01*
X144088030Y-92164329D01*
X144098520Y-92142150D01*
X144111132Y-92121107D01*
X144125747Y-92101401D01*
X144142223Y-92083223D01*
X144160401Y-92066747D01*
X144180107Y-92052132D01*
X144201150Y-92039520D01*
X144223329Y-92029030D01*
X144246428Y-92020765D01*
X144270227Y-92014804D01*
X144294495Y-92011204D01*
X144318999Y-92010000D01*
X144969001Y-92010000D01*
X144993505Y-92011204D01*
G37*
G04 #@! TD.AperFunction*
G04 #@! TA.AperFunction,SMDPad,CuDef*
G36*
X147043505Y-92011204D02*
G01*
X147067773Y-92014804D01*
X147091572Y-92020765D01*
X147114671Y-92029030D01*
X147136850Y-92039520D01*
X147157893Y-92052132D01*
X147177599Y-92066747D01*
X147195777Y-92083223D01*
X147212253Y-92101401D01*
X147226868Y-92121107D01*
X147239480Y-92142150D01*
X147249970Y-92164329D01*
X147258235Y-92187428D01*
X147264196Y-92211227D01*
X147267796Y-92235495D01*
X147269000Y-92259999D01*
X147269000Y-93160001D01*
X147267796Y-93184505D01*
X147264196Y-93208773D01*
X147258235Y-93232572D01*
X147249970Y-93255671D01*
X147239480Y-93277850D01*
X147226868Y-93298893D01*
X147212253Y-93318599D01*
X147195777Y-93336777D01*
X147177599Y-93353253D01*
X147157893Y-93367868D01*
X147136850Y-93380480D01*
X147114671Y-93390970D01*
X147091572Y-93399235D01*
X147067773Y-93405196D01*
X147043505Y-93408796D01*
X147019001Y-93410000D01*
X146368999Y-93410000D01*
X146344495Y-93408796D01*
X146320227Y-93405196D01*
X146296428Y-93399235D01*
X146273329Y-93390970D01*
X146251150Y-93380480D01*
X146230107Y-93367868D01*
X146210401Y-93353253D01*
X146192223Y-93336777D01*
X146175747Y-93318599D01*
X146161132Y-93298893D01*
X146148520Y-93277850D01*
X146138030Y-93255671D01*
X146129765Y-93232572D01*
X146123804Y-93208773D01*
X146120204Y-93184505D01*
X146119000Y-93160001D01*
X146119000Y-92259999D01*
X146120204Y-92235495D01*
X146123804Y-92211227D01*
X146129765Y-92187428D01*
X146138030Y-92164329D01*
X146148520Y-92142150D01*
X146161132Y-92121107D01*
X146175747Y-92101401D01*
X146192223Y-92083223D01*
X146210401Y-92066747D01*
X146230107Y-92052132D01*
X146251150Y-92039520D01*
X146273329Y-92029030D01*
X146296428Y-92020765D01*
X146320227Y-92014804D01*
X146344495Y-92011204D01*
X146368999Y-92010000D01*
X147019001Y-92010000D01*
X147043505Y-92011204D01*
G37*
G04 #@! TD.AperFunction*
G04 #@! TA.AperFunction,SMDPad,CuDef*
G36*
X154779505Y-101026204D02*
G01*
X154803773Y-101029804D01*
X154827572Y-101035765D01*
X154850671Y-101044030D01*
X154872850Y-101054520D01*
X154893893Y-101067132D01*
X154913599Y-101081747D01*
X154931777Y-101098223D01*
X154948253Y-101116401D01*
X154962868Y-101136107D01*
X154975480Y-101157150D01*
X154985970Y-101179329D01*
X154994235Y-101202428D01*
X155000196Y-101226227D01*
X155003796Y-101250495D01*
X155005000Y-101274999D01*
X155005000Y-101925001D01*
X155003796Y-101949505D01*
X155000196Y-101973773D01*
X154994235Y-101997572D01*
X154985970Y-102020671D01*
X154975480Y-102042850D01*
X154962868Y-102063893D01*
X154948253Y-102083599D01*
X154931777Y-102101777D01*
X154913599Y-102118253D01*
X154893893Y-102132868D01*
X154872850Y-102145480D01*
X154850671Y-102155970D01*
X154827572Y-102164235D01*
X154803773Y-102170196D01*
X154779505Y-102173796D01*
X154755001Y-102175000D01*
X153854999Y-102175000D01*
X153830495Y-102173796D01*
X153806227Y-102170196D01*
X153782428Y-102164235D01*
X153759329Y-102155970D01*
X153737150Y-102145480D01*
X153716107Y-102132868D01*
X153696401Y-102118253D01*
X153678223Y-102101777D01*
X153661747Y-102083599D01*
X153647132Y-102063893D01*
X153634520Y-102042850D01*
X153624030Y-102020671D01*
X153615765Y-101997572D01*
X153609804Y-101973773D01*
X153606204Y-101949505D01*
X153605000Y-101925001D01*
X153605000Y-101274999D01*
X153606204Y-101250495D01*
X153609804Y-101226227D01*
X153615765Y-101202428D01*
X153624030Y-101179329D01*
X153634520Y-101157150D01*
X153647132Y-101136107D01*
X153661747Y-101116401D01*
X153678223Y-101098223D01*
X153696401Y-101081747D01*
X153716107Y-101067132D01*
X153737150Y-101054520D01*
X153759329Y-101044030D01*
X153782428Y-101035765D01*
X153806227Y-101029804D01*
X153830495Y-101026204D01*
X153854999Y-101025000D01*
X154755001Y-101025000D01*
X154779505Y-101026204D01*
G37*
G04 #@! TD.AperFunction*
G04 #@! TA.AperFunction,SMDPad,CuDef*
G36*
X154779505Y-103076204D02*
G01*
X154803773Y-103079804D01*
X154827572Y-103085765D01*
X154850671Y-103094030D01*
X154872850Y-103104520D01*
X154893893Y-103117132D01*
X154913599Y-103131747D01*
X154931777Y-103148223D01*
X154948253Y-103166401D01*
X154962868Y-103186107D01*
X154975480Y-103207150D01*
X154985970Y-103229329D01*
X154994235Y-103252428D01*
X155000196Y-103276227D01*
X155003796Y-103300495D01*
X155005000Y-103324999D01*
X155005000Y-103975001D01*
X155003796Y-103999505D01*
X155000196Y-104023773D01*
X154994235Y-104047572D01*
X154985970Y-104070671D01*
X154975480Y-104092850D01*
X154962868Y-104113893D01*
X154948253Y-104133599D01*
X154931777Y-104151777D01*
X154913599Y-104168253D01*
X154893893Y-104182868D01*
X154872850Y-104195480D01*
X154850671Y-104205970D01*
X154827572Y-104214235D01*
X154803773Y-104220196D01*
X154779505Y-104223796D01*
X154755001Y-104225000D01*
X153854999Y-104225000D01*
X153830495Y-104223796D01*
X153806227Y-104220196D01*
X153782428Y-104214235D01*
X153759329Y-104205970D01*
X153737150Y-104195480D01*
X153716107Y-104182868D01*
X153696401Y-104168253D01*
X153678223Y-104151777D01*
X153661747Y-104133599D01*
X153647132Y-104113893D01*
X153634520Y-104092850D01*
X153624030Y-104070671D01*
X153615765Y-104047572D01*
X153609804Y-104023773D01*
X153606204Y-103999505D01*
X153605000Y-103975001D01*
X153605000Y-103324999D01*
X153606204Y-103300495D01*
X153609804Y-103276227D01*
X153615765Y-103252428D01*
X153624030Y-103229329D01*
X153634520Y-103207150D01*
X153647132Y-103186107D01*
X153661747Y-103166401D01*
X153678223Y-103148223D01*
X153696401Y-103131747D01*
X153716107Y-103117132D01*
X153737150Y-103104520D01*
X153759329Y-103094030D01*
X153782428Y-103085765D01*
X153806227Y-103079804D01*
X153830495Y-103076204D01*
X153854999Y-103075000D01*
X154755001Y-103075000D01*
X154779505Y-103076204D01*
G37*
G04 #@! TD.AperFunction*
G04 #@! TA.AperFunction,SMDPad,CuDef*
G36*
X154164505Y-80581204D02*
G01*
X154188773Y-80584804D01*
X154212572Y-80590765D01*
X154235671Y-80599030D01*
X154257850Y-80609520D01*
X154278893Y-80622132D01*
X154298599Y-80636747D01*
X154316777Y-80653223D01*
X154333253Y-80671401D01*
X154347868Y-80691107D01*
X154360480Y-80712150D01*
X154370970Y-80734329D01*
X154379235Y-80757428D01*
X154385196Y-80781227D01*
X154388796Y-80805495D01*
X154390000Y-80829999D01*
X154390000Y-81730001D01*
X154388796Y-81754505D01*
X154385196Y-81778773D01*
X154379235Y-81802572D01*
X154370970Y-81825671D01*
X154360480Y-81847850D01*
X154347868Y-81868893D01*
X154333253Y-81888599D01*
X154316777Y-81906777D01*
X154298599Y-81923253D01*
X154278893Y-81937868D01*
X154257850Y-81950480D01*
X154235671Y-81960970D01*
X154212572Y-81969235D01*
X154188773Y-81975196D01*
X154164505Y-81978796D01*
X154140001Y-81980000D01*
X153489999Y-81980000D01*
X153465495Y-81978796D01*
X153441227Y-81975196D01*
X153417428Y-81969235D01*
X153394329Y-81960970D01*
X153372150Y-81950480D01*
X153351107Y-81937868D01*
X153331401Y-81923253D01*
X153313223Y-81906777D01*
X153296747Y-81888599D01*
X153282132Y-81868893D01*
X153269520Y-81847850D01*
X153259030Y-81825671D01*
X153250765Y-81802572D01*
X153244804Y-81778773D01*
X153241204Y-81754505D01*
X153240000Y-81730001D01*
X153240000Y-80829999D01*
X153241204Y-80805495D01*
X153244804Y-80781227D01*
X153250765Y-80757428D01*
X153259030Y-80734329D01*
X153269520Y-80712150D01*
X153282132Y-80691107D01*
X153296747Y-80671401D01*
X153313223Y-80653223D01*
X153331401Y-80636747D01*
X153351107Y-80622132D01*
X153372150Y-80609520D01*
X153394329Y-80599030D01*
X153417428Y-80590765D01*
X153441227Y-80584804D01*
X153465495Y-80581204D01*
X153489999Y-80580000D01*
X154140001Y-80580000D01*
X154164505Y-80581204D01*
G37*
G04 #@! TD.AperFunction*
G04 #@! TA.AperFunction,SMDPad,CuDef*
G36*
X152114505Y-80581204D02*
G01*
X152138773Y-80584804D01*
X152162572Y-80590765D01*
X152185671Y-80599030D01*
X152207850Y-80609520D01*
X152228893Y-80622132D01*
X152248599Y-80636747D01*
X152266777Y-80653223D01*
X152283253Y-80671401D01*
X152297868Y-80691107D01*
X152310480Y-80712150D01*
X152320970Y-80734329D01*
X152329235Y-80757428D01*
X152335196Y-80781227D01*
X152338796Y-80805495D01*
X152340000Y-80829999D01*
X152340000Y-81730001D01*
X152338796Y-81754505D01*
X152335196Y-81778773D01*
X152329235Y-81802572D01*
X152320970Y-81825671D01*
X152310480Y-81847850D01*
X152297868Y-81868893D01*
X152283253Y-81888599D01*
X152266777Y-81906777D01*
X152248599Y-81923253D01*
X152228893Y-81937868D01*
X152207850Y-81950480D01*
X152185671Y-81960970D01*
X152162572Y-81969235D01*
X152138773Y-81975196D01*
X152114505Y-81978796D01*
X152090001Y-81980000D01*
X151439999Y-81980000D01*
X151415495Y-81978796D01*
X151391227Y-81975196D01*
X151367428Y-81969235D01*
X151344329Y-81960970D01*
X151322150Y-81950480D01*
X151301107Y-81937868D01*
X151281401Y-81923253D01*
X151263223Y-81906777D01*
X151246747Y-81888599D01*
X151232132Y-81868893D01*
X151219520Y-81847850D01*
X151209030Y-81825671D01*
X151200765Y-81802572D01*
X151194804Y-81778773D01*
X151191204Y-81754505D01*
X151190000Y-81730001D01*
X151190000Y-80829999D01*
X151191204Y-80805495D01*
X151194804Y-80781227D01*
X151200765Y-80757428D01*
X151209030Y-80734329D01*
X151219520Y-80712150D01*
X151232132Y-80691107D01*
X151246747Y-80671401D01*
X151263223Y-80653223D01*
X151281401Y-80636747D01*
X151301107Y-80622132D01*
X151322150Y-80609520D01*
X151344329Y-80599030D01*
X151367428Y-80590765D01*
X151391227Y-80584804D01*
X151415495Y-80581204D01*
X151439999Y-80580000D01*
X152090001Y-80580000D01*
X152114505Y-80581204D01*
G37*
G04 #@! TD.AperFunction*
G04 #@! TA.AperFunction,SMDPad,CuDef*
G36*
X156049505Y-81205204D02*
G01*
X156073773Y-81208804D01*
X156097572Y-81214765D01*
X156120671Y-81223030D01*
X156142850Y-81233520D01*
X156163893Y-81246132D01*
X156183599Y-81260747D01*
X156201777Y-81277223D01*
X156218253Y-81295401D01*
X156232868Y-81315107D01*
X156245480Y-81336150D01*
X156255970Y-81358329D01*
X156264235Y-81381428D01*
X156270196Y-81405227D01*
X156273796Y-81429495D01*
X156275000Y-81453999D01*
X156275000Y-82104001D01*
X156273796Y-82128505D01*
X156270196Y-82152773D01*
X156264235Y-82176572D01*
X156255970Y-82199671D01*
X156245480Y-82221850D01*
X156232868Y-82242893D01*
X156218253Y-82262599D01*
X156201777Y-82280777D01*
X156183599Y-82297253D01*
X156163893Y-82311868D01*
X156142850Y-82324480D01*
X156120671Y-82334970D01*
X156097572Y-82343235D01*
X156073773Y-82349196D01*
X156049505Y-82352796D01*
X156025001Y-82354000D01*
X155124999Y-82354000D01*
X155100495Y-82352796D01*
X155076227Y-82349196D01*
X155052428Y-82343235D01*
X155029329Y-82334970D01*
X155007150Y-82324480D01*
X154986107Y-82311868D01*
X154966401Y-82297253D01*
X154948223Y-82280777D01*
X154931747Y-82262599D01*
X154917132Y-82242893D01*
X154904520Y-82221850D01*
X154894030Y-82199671D01*
X154885765Y-82176572D01*
X154879804Y-82152773D01*
X154876204Y-82128505D01*
X154875000Y-82104001D01*
X154875000Y-81453999D01*
X154876204Y-81429495D01*
X154879804Y-81405227D01*
X154885765Y-81381428D01*
X154894030Y-81358329D01*
X154904520Y-81336150D01*
X154917132Y-81315107D01*
X154931747Y-81295401D01*
X154948223Y-81277223D01*
X154966401Y-81260747D01*
X154986107Y-81246132D01*
X155007150Y-81233520D01*
X155029329Y-81223030D01*
X155052428Y-81214765D01*
X155076227Y-81208804D01*
X155100495Y-81205204D01*
X155124999Y-81204000D01*
X156025001Y-81204000D01*
X156049505Y-81205204D01*
G37*
G04 #@! TD.AperFunction*
G04 #@! TA.AperFunction,SMDPad,CuDef*
G36*
X156049505Y-83255204D02*
G01*
X156073773Y-83258804D01*
X156097572Y-83264765D01*
X156120671Y-83273030D01*
X156142850Y-83283520D01*
X156163893Y-83296132D01*
X156183599Y-83310747D01*
X156201777Y-83327223D01*
X156218253Y-83345401D01*
X156232868Y-83365107D01*
X156245480Y-83386150D01*
X156255970Y-83408329D01*
X156264235Y-83431428D01*
X156270196Y-83455227D01*
X156273796Y-83479495D01*
X156275000Y-83503999D01*
X156275000Y-84154001D01*
X156273796Y-84178505D01*
X156270196Y-84202773D01*
X156264235Y-84226572D01*
X156255970Y-84249671D01*
X156245480Y-84271850D01*
X156232868Y-84292893D01*
X156218253Y-84312599D01*
X156201777Y-84330777D01*
X156183599Y-84347253D01*
X156163893Y-84361868D01*
X156142850Y-84374480D01*
X156120671Y-84384970D01*
X156097572Y-84393235D01*
X156073773Y-84399196D01*
X156049505Y-84402796D01*
X156025001Y-84404000D01*
X155124999Y-84404000D01*
X155100495Y-84402796D01*
X155076227Y-84399196D01*
X155052428Y-84393235D01*
X155029329Y-84384970D01*
X155007150Y-84374480D01*
X154986107Y-84361868D01*
X154966401Y-84347253D01*
X154948223Y-84330777D01*
X154931747Y-84312599D01*
X154917132Y-84292893D01*
X154904520Y-84271850D01*
X154894030Y-84249671D01*
X154885765Y-84226572D01*
X154879804Y-84202773D01*
X154876204Y-84178505D01*
X154875000Y-84154001D01*
X154875000Y-83503999D01*
X154876204Y-83479495D01*
X154879804Y-83455227D01*
X154885765Y-83431428D01*
X154894030Y-83408329D01*
X154904520Y-83386150D01*
X154917132Y-83365107D01*
X154931747Y-83345401D01*
X154948223Y-83327223D01*
X154966401Y-83310747D01*
X154986107Y-83296132D01*
X155007150Y-83283520D01*
X155029329Y-83273030D01*
X155052428Y-83264765D01*
X155076227Y-83258804D01*
X155100495Y-83255204D01*
X155124999Y-83254000D01*
X156025001Y-83254000D01*
X156049505Y-83255204D01*
G37*
G04 #@! TD.AperFunction*
G04 #@! TA.AperFunction,SMDPad,CuDef*
G36*
X141859504Y-91461204D02*
G01*
X141883773Y-91464804D01*
X141907571Y-91470765D01*
X141930671Y-91479030D01*
X141952849Y-91489520D01*
X141973893Y-91502133D01*
X141993598Y-91516747D01*
X142011777Y-91533223D01*
X142028253Y-91551402D01*
X142042867Y-91571107D01*
X142055480Y-91592151D01*
X142065970Y-91614329D01*
X142074235Y-91637429D01*
X142080196Y-91661227D01*
X142083796Y-91685496D01*
X142085000Y-91710000D01*
X142085000Y-93710000D01*
X142083796Y-93734504D01*
X142080196Y-93758773D01*
X142074235Y-93782571D01*
X142065970Y-93805671D01*
X142055480Y-93827849D01*
X142042867Y-93848893D01*
X142028253Y-93868598D01*
X142011777Y-93886777D01*
X141993598Y-93903253D01*
X141973893Y-93917867D01*
X141952849Y-93930480D01*
X141930671Y-93940970D01*
X141907571Y-93949235D01*
X141883773Y-93955196D01*
X141859504Y-93958796D01*
X141835000Y-93960000D01*
X138835000Y-93960000D01*
X138810496Y-93958796D01*
X138786227Y-93955196D01*
X138762429Y-93949235D01*
X138739329Y-93940970D01*
X138717151Y-93930480D01*
X138696107Y-93917867D01*
X138676402Y-93903253D01*
X138658223Y-93886777D01*
X138641747Y-93868598D01*
X138627133Y-93848893D01*
X138614520Y-93827849D01*
X138604030Y-93805671D01*
X138595765Y-93782571D01*
X138589804Y-93758773D01*
X138586204Y-93734504D01*
X138585000Y-93710000D01*
X138585000Y-91710000D01*
X138586204Y-91685496D01*
X138589804Y-91661227D01*
X138595765Y-91637429D01*
X138604030Y-91614329D01*
X138614520Y-91592151D01*
X138627133Y-91571107D01*
X138641747Y-91551402D01*
X138658223Y-91533223D01*
X138676402Y-91516747D01*
X138696107Y-91502133D01*
X138717151Y-91489520D01*
X138739329Y-91479030D01*
X138762429Y-91470765D01*
X138786227Y-91464804D01*
X138810496Y-91461204D01*
X138835000Y-91460000D01*
X141835000Y-91460000D01*
X141859504Y-91461204D01*
G37*
G04 #@! TD.AperFunction*
G04 #@! TA.AperFunction,SMDPad,CuDef*
G36*
X135359504Y-91461204D02*
G01*
X135383773Y-91464804D01*
X135407571Y-91470765D01*
X135430671Y-91479030D01*
X135452849Y-91489520D01*
X135473893Y-91502133D01*
X135493598Y-91516747D01*
X135511777Y-91533223D01*
X135528253Y-91551402D01*
X135542867Y-91571107D01*
X135555480Y-91592151D01*
X135565970Y-91614329D01*
X135574235Y-91637429D01*
X135580196Y-91661227D01*
X135583796Y-91685496D01*
X135585000Y-91710000D01*
X135585000Y-93710000D01*
X135583796Y-93734504D01*
X135580196Y-93758773D01*
X135574235Y-93782571D01*
X135565970Y-93805671D01*
X135555480Y-93827849D01*
X135542867Y-93848893D01*
X135528253Y-93868598D01*
X135511777Y-93886777D01*
X135493598Y-93903253D01*
X135473893Y-93917867D01*
X135452849Y-93930480D01*
X135430671Y-93940970D01*
X135407571Y-93949235D01*
X135383773Y-93955196D01*
X135359504Y-93958796D01*
X135335000Y-93960000D01*
X132335000Y-93960000D01*
X132310496Y-93958796D01*
X132286227Y-93955196D01*
X132262429Y-93949235D01*
X132239329Y-93940970D01*
X132217151Y-93930480D01*
X132196107Y-93917867D01*
X132176402Y-93903253D01*
X132158223Y-93886777D01*
X132141747Y-93868598D01*
X132127133Y-93848893D01*
X132114520Y-93827849D01*
X132104030Y-93805671D01*
X132095765Y-93782571D01*
X132089804Y-93758773D01*
X132086204Y-93734504D01*
X132085000Y-93710000D01*
X132085000Y-91710000D01*
X132086204Y-91685496D01*
X132089804Y-91661227D01*
X132095765Y-91637429D01*
X132104030Y-91614329D01*
X132114520Y-91592151D01*
X132127133Y-91571107D01*
X132141747Y-91551402D01*
X132158223Y-91533223D01*
X132176402Y-91516747D01*
X132196107Y-91502133D01*
X132217151Y-91489520D01*
X132239329Y-91479030D01*
X132262429Y-91470765D01*
X132286227Y-91464804D01*
X132310496Y-91461204D01*
X132335000Y-91460000D01*
X135335000Y-91460000D01*
X135359504Y-91461204D01*
G37*
G04 #@! TD.AperFunction*
G04 #@! TA.AperFunction,SMDPad,CuDef*
G36*
X161637505Y-81205204D02*
G01*
X161661773Y-81208804D01*
X161685572Y-81214765D01*
X161708671Y-81223030D01*
X161730850Y-81233520D01*
X161751893Y-81246132D01*
X161771599Y-81260747D01*
X161789777Y-81277223D01*
X161806253Y-81295401D01*
X161820868Y-81315107D01*
X161833480Y-81336150D01*
X161843970Y-81358329D01*
X161852235Y-81381428D01*
X161858196Y-81405227D01*
X161861796Y-81429495D01*
X161863000Y-81453999D01*
X161863000Y-82104001D01*
X161861796Y-82128505D01*
X161858196Y-82152773D01*
X161852235Y-82176572D01*
X161843970Y-82199671D01*
X161833480Y-82221850D01*
X161820868Y-82242893D01*
X161806253Y-82262599D01*
X161789777Y-82280777D01*
X161771599Y-82297253D01*
X161751893Y-82311868D01*
X161730850Y-82324480D01*
X161708671Y-82334970D01*
X161685572Y-82343235D01*
X161661773Y-82349196D01*
X161637505Y-82352796D01*
X161613001Y-82354000D01*
X160712999Y-82354000D01*
X160688495Y-82352796D01*
X160664227Y-82349196D01*
X160640428Y-82343235D01*
X160617329Y-82334970D01*
X160595150Y-82324480D01*
X160574107Y-82311868D01*
X160554401Y-82297253D01*
X160536223Y-82280777D01*
X160519747Y-82262599D01*
X160505132Y-82242893D01*
X160492520Y-82221850D01*
X160482030Y-82199671D01*
X160473765Y-82176572D01*
X160467804Y-82152773D01*
X160464204Y-82128505D01*
X160463000Y-82104001D01*
X160463000Y-81453999D01*
X160464204Y-81429495D01*
X160467804Y-81405227D01*
X160473765Y-81381428D01*
X160482030Y-81358329D01*
X160492520Y-81336150D01*
X160505132Y-81315107D01*
X160519747Y-81295401D01*
X160536223Y-81277223D01*
X160554401Y-81260747D01*
X160574107Y-81246132D01*
X160595150Y-81233520D01*
X160617329Y-81223030D01*
X160640428Y-81214765D01*
X160664227Y-81208804D01*
X160688495Y-81205204D01*
X160712999Y-81204000D01*
X161613001Y-81204000D01*
X161637505Y-81205204D01*
G37*
G04 #@! TD.AperFunction*
G04 #@! TA.AperFunction,SMDPad,CuDef*
G36*
X161637505Y-83255204D02*
G01*
X161661773Y-83258804D01*
X161685572Y-83264765D01*
X161708671Y-83273030D01*
X161730850Y-83283520D01*
X161751893Y-83296132D01*
X161771599Y-83310747D01*
X161789777Y-83327223D01*
X161806253Y-83345401D01*
X161820868Y-83365107D01*
X161833480Y-83386150D01*
X161843970Y-83408329D01*
X161852235Y-83431428D01*
X161858196Y-83455227D01*
X161861796Y-83479495D01*
X161863000Y-83503999D01*
X161863000Y-84154001D01*
X161861796Y-84178505D01*
X161858196Y-84202773D01*
X161852235Y-84226572D01*
X161843970Y-84249671D01*
X161833480Y-84271850D01*
X161820868Y-84292893D01*
X161806253Y-84312599D01*
X161789777Y-84330777D01*
X161771599Y-84347253D01*
X161751893Y-84361868D01*
X161730850Y-84374480D01*
X161708671Y-84384970D01*
X161685572Y-84393235D01*
X161661773Y-84399196D01*
X161637505Y-84402796D01*
X161613001Y-84404000D01*
X160712999Y-84404000D01*
X160688495Y-84402796D01*
X160664227Y-84399196D01*
X160640428Y-84393235D01*
X160617329Y-84384970D01*
X160595150Y-84374480D01*
X160574107Y-84361868D01*
X160554401Y-84347253D01*
X160536223Y-84330777D01*
X160519747Y-84312599D01*
X160505132Y-84292893D01*
X160492520Y-84271850D01*
X160482030Y-84249671D01*
X160473765Y-84226572D01*
X160467804Y-84202773D01*
X160464204Y-84178505D01*
X160463000Y-84154001D01*
X160463000Y-83503999D01*
X160464204Y-83479495D01*
X160467804Y-83455227D01*
X160473765Y-83431428D01*
X160482030Y-83408329D01*
X160492520Y-83386150D01*
X160505132Y-83365107D01*
X160519747Y-83345401D01*
X160536223Y-83327223D01*
X160554401Y-83310747D01*
X160574107Y-83296132D01*
X160595150Y-83283520D01*
X160617329Y-83273030D01*
X160640428Y-83264765D01*
X160664227Y-83258804D01*
X160688495Y-83255204D01*
X160712999Y-83254000D01*
X161613001Y-83254000D01*
X161637505Y-83255204D01*
G37*
G04 #@! TD.AperFunction*
G04 #@! TA.AperFunction,SMDPad,CuDef*
G36*
X170467004Y-76596204D02*
G01*
X170491273Y-76599804D01*
X170515071Y-76605765D01*
X170538171Y-76614030D01*
X170560349Y-76624520D01*
X170581393Y-76637133D01*
X170601098Y-76651747D01*
X170619277Y-76668223D01*
X170635753Y-76686402D01*
X170650367Y-76706107D01*
X170662980Y-76727151D01*
X170673470Y-76749329D01*
X170681735Y-76772429D01*
X170687696Y-76796227D01*
X170691296Y-76820496D01*
X170692500Y-76845000D01*
X170692500Y-78095000D01*
X170691296Y-78119504D01*
X170687696Y-78143773D01*
X170681735Y-78167571D01*
X170673470Y-78190671D01*
X170662980Y-78212849D01*
X170650367Y-78233893D01*
X170635753Y-78253598D01*
X170619277Y-78271777D01*
X170601098Y-78288253D01*
X170581393Y-78302867D01*
X170560349Y-78315480D01*
X170538171Y-78325970D01*
X170515071Y-78334235D01*
X170491273Y-78340196D01*
X170467004Y-78343796D01*
X170442500Y-78345000D01*
X169517500Y-78345000D01*
X169492996Y-78343796D01*
X169468727Y-78340196D01*
X169444929Y-78334235D01*
X169421829Y-78325970D01*
X169399651Y-78315480D01*
X169378607Y-78302867D01*
X169358902Y-78288253D01*
X169340723Y-78271777D01*
X169324247Y-78253598D01*
X169309633Y-78233893D01*
X169297020Y-78212849D01*
X169286530Y-78190671D01*
X169278265Y-78167571D01*
X169272304Y-78143773D01*
X169268704Y-78119504D01*
X169267500Y-78095000D01*
X169267500Y-76845000D01*
X169268704Y-76820496D01*
X169272304Y-76796227D01*
X169278265Y-76772429D01*
X169286530Y-76749329D01*
X169297020Y-76727151D01*
X169309633Y-76706107D01*
X169324247Y-76686402D01*
X169340723Y-76668223D01*
X169358902Y-76651747D01*
X169378607Y-76637133D01*
X169399651Y-76624520D01*
X169421829Y-76614030D01*
X169444929Y-76605765D01*
X169468727Y-76599804D01*
X169492996Y-76596204D01*
X169517500Y-76595000D01*
X170442500Y-76595000D01*
X170467004Y-76596204D01*
G37*
G04 #@! TD.AperFunction*
G04 #@! TA.AperFunction,SMDPad,CuDef*
G36*
X167492004Y-76596204D02*
G01*
X167516273Y-76599804D01*
X167540071Y-76605765D01*
X167563171Y-76614030D01*
X167585349Y-76624520D01*
X167606393Y-76637133D01*
X167626098Y-76651747D01*
X167644277Y-76668223D01*
X167660753Y-76686402D01*
X167675367Y-76706107D01*
X167687980Y-76727151D01*
X167698470Y-76749329D01*
X167706735Y-76772429D01*
X167712696Y-76796227D01*
X167716296Y-76820496D01*
X167717500Y-76845000D01*
X167717500Y-78095000D01*
X167716296Y-78119504D01*
X167712696Y-78143773D01*
X167706735Y-78167571D01*
X167698470Y-78190671D01*
X167687980Y-78212849D01*
X167675367Y-78233893D01*
X167660753Y-78253598D01*
X167644277Y-78271777D01*
X167626098Y-78288253D01*
X167606393Y-78302867D01*
X167585349Y-78315480D01*
X167563171Y-78325970D01*
X167540071Y-78334235D01*
X167516273Y-78340196D01*
X167492004Y-78343796D01*
X167467500Y-78345000D01*
X166542500Y-78345000D01*
X166517996Y-78343796D01*
X166493727Y-78340196D01*
X166469929Y-78334235D01*
X166446829Y-78325970D01*
X166424651Y-78315480D01*
X166403607Y-78302867D01*
X166383902Y-78288253D01*
X166365723Y-78271777D01*
X166349247Y-78253598D01*
X166334633Y-78233893D01*
X166322020Y-78212849D01*
X166311530Y-78190671D01*
X166303265Y-78167571D01*
X166297304Y-78143773D01*
X166293704Y-78119504D01*
X166292500Y-78095000D01*
X166292500Y-76845000D01*
X166293704Y-76820496D01*
X166297304Y-76796227D01*
X166303265Y-76772429D01*
X166311530Y-76749329D01*
X166322020Y-76727151D01*
X166334633Y-76706107D01*
X166349247Y-76686402D01*
X166365723Y-76668223D01*
X166383902Y-76651747D01*
X166403607Y-76637133D01*
X166424651Y-76624520D01*
X166446829Y-76614030D01*
X166469929Y-76605765D01*
X166493727Y-76599804D01*
X166517996Y-76596204D01*
X166542500Y-76595000D01*
X167467500Y-76595000D01*
X167492004Y-76596204D01*
G37*
G04 #@! TD.AperFunction*
D11*
X140970000Y-100965000D03*
D12*
X138430000Y-100965000D03*
X135890000Y-100965000D03*
X133350000Y-100965000D03*
X140335000Y-85725000D03*
D11*
X137795000Y-85725000D03*
X163195000Y-102235000D03*
D12*
X160655000Y-102235000D03*
X160655000Y-78105000D03*
D11*
X163195000Y-78105000D03*
D13*
X147925000Y-85725000D03*
X149225000Y-85725000D03*
X150525000Y-85725000D03*
D14*
X156845000Y-100965000D03*
X156845000Y-102265000D03*
X156845000Y-103565000D03*
X147320000Y-95250000D03*
X147320000Y-96550000D03*
X144018000Y-96550000D03*
X144018000Y-95250000D03*
D13*
X150495000Y-94615000D03*
X151795000Y-94615000D03*
X151795000Y-97155000D03*
X150495000Y-97155000D03*
D11*
X133985000Y-80645000D03*
D12*
X133985000Y-78105000D03*
D11*
X155575000Y-90805000D03*
D12*
X155575000Y-88265000D03*
G04 #@! TA.AperFunction,SMDPad,CuDef*
D10*
G36*
X163281505Y-80581204D02*
G01*
X163305773Y-80584804D01*
X163329572Y-80590765D01*
X163352671Y-80599030D01*
X163374850Y-80609520D01*
X163395893Y-80622132D01*
X163415599Y-80636747D01*
X163433777Y-80653223D01*
X163450253Y-80671401D01*
X163464868Y-80691107D01*
X163477480Y-80712150D01*
X163487970Y-80734329D01*
X163496235Y-80757428D01*
X163502196Y-80781227D01*
X163505796Y-80805495D01*
X163507000Y-80829999D01*
X163507000Y-81730001D01*
X163505796Y-81754505D01*
X163502196Y-81778773D01*
X163496235Y-81802572D01*
X163487970Y-81825671D01*
X163477480Y-81847850D01*
X163464868Y-81868893D01*
X163450253Y-81888599D01*
X163433777Y-81906777D01*
X163415599Y-81923253D01*
X163395893Y-81937868D01*
X163374850Y-81950480D01*
X163352671Y-81960970D01*
X163329572Y-81969235D01*
X163305773Y-81975196D01*
X163281505Y-81978796D01*
X163257001Y-81980000D01*
X162606999Y-81980000D01*
X162582495Y-81978796D01*
X162558227Y-81975196D01*
X162534428Y-81969235D01*
X162511329Y-81960970D01*
X162489150Y-81950480D01*
X162468107Y-81937868D01*
X162448401Y-81923253D01*
X162430223Y-81906777D01*
X162413747Y-81888599D01*
X162399132Y-81868893D01*
X162386520Y-81847850D01*
X162376030Y-81825671D01*
X162367765Y-81802572D01*
X162361804Y-81778773D01*
X162358204Y-81754505D01*
X162357000Y-81730001D01*
X162357000Y-80829999D01*
X162358204Y-80805495D01*
X162361804Y-80781227D01*
X162367765Y-80757428D01*
X162376030Y-80734329D01*
X162386520Y-80712150D01*
X162399132Y-80691107D01*
X162413747Y-80671401D01*
X162430223Y-80653223D01*
X162448401Y-80636747D01*
X162468107Y-80622132D01*
X162489150Y-80609520D01*
X162511329Y-80599030D01*
X162534428Y-80590765D01*
X162558227Y-80584804D01*
X162582495Y-80581204D01*
X162606999Y-80580000D01*
X163257001Y-80580000D01*
X163281505Y-80581204D01*
G37*
G04 #@! TD.AperFunction*
G04 #@! TA.AperFunction,SMDPad,CuDef*
G36*
X165331505Y-80581204D02*
G01*
X165355773Y-80584804D01*
X165379572Y-80590765D01*
X165402671Y-80599030D01*
X165424850Y-80609520D01*
X165445893Y-80622132D01*
X165465599Y-80636747D01*
X165483777Y-80653223D01*
X165500253Y-80671401D01*
X165514868Y-80691107D01*
X165527480Y-80712150D01*
X165537970Y-80734329D01*
X165546235Y-80757428D01*
X165552196Y-80781227D01*
X165555796Y-80805495D01*
X165557000Y-80829999D01*
X165557000Y-81730001D01*
X165555796Y-81754505D01*
X165552196Y-81778773D01*
X165546235Y-81802572D01*
X165537970Y-81825671D01*
X165527480Y-81847850D01*
X165514868Y-81868893D01*
X165500253Y-81888599D01*
X165483777Y-81906777D01*
X165465599Y-81923253D01*
X165445893Y-81937868D01*
X165424850Y-81950480D01*
X165402671Y-81960970D01*
X165379572Y-81969235D01*
X165355773Y-81975196D01*
X165331505Y-81978796D01*
X165307001Y-81980000D01*
X164656999Y-81980000D01*
X164632495Y-81978796D01*
X164608227Y-81975196D01*
X164584428Y-81969235D01*
X164561329Y-81960970D01*
X164539150Y-81950480D01*
X164518107Y-81937868D01*
X164498401Y-81923253D01*
X164480223Y-81906777D01*
X164463747Y-81888599D01*
X164449132Y-81868893D01*
X164436520Y-81847850D01*
X164426030Y-81825671D01*
X164417765Y-81802572D01*
X164411804Y-81778773D01*
X164408204Y-81754505D01*
X164407000Y-81730001D01*
X164407000Y-80829999D01*
X164408204Y-80805495D01*
X164411804Y-80781227D01*
X164417765Y-80757428D01*
X164426030Y-80734329D01*
X164436520Y-80712150D01*
X164449132Y-80691107D01*
X164463747Y-80671401D01*
X164480223Y-80653223D01*
X164498401Y-80636747D01*
X164518107Y-80622132D01*
X164539150Y-80609520D01*
X164561329Y-80599030D01*
X164584428Y-80590765D01*
X164608227Y-80584804D01*
X164632495Y-80581204D01*
X164656999Y-80580000D01*
X165307001Y-80580000D01*
X165331505Y-80581204D01*
G37*
G04 #@! TD.AperFunction*
G04 #@! TA.AperFunction,SMDPad,CuDef*
G36*
X144619505Y-89741204D02*
G01*
X144643773Y-89744804D01*
X144667572Y-89750765D01*
X144690671Y-89759030D01*
X144712850Y-89769520D01*
X144733893Y-89782132D01*
X144753599Y-89796747D01*
X144771777Y-89813223D01*
X144788253Y-89831401D01*
X144802868Y-89851107D01*
X144815480Y-89872150D01*
X144825970Y-89894329D01*
X144834235Y-89917428D01*
X144840196Y-89941227D01*
X144843796Y-89965495D01*
X144845000Y-89989999D01*
X144845000Y-90640001D01*
X144843796Y-90664505D01*
X144840196Y-90688773D01*
X144834235Y-90712572D01*
X144825970Y-90735671D01*
X144815480Y-90757850D01*
X144802868Y-90778893D01*
X144788253Y-90798599D01*
X144771777Y-90816777D01*
X144753599Y-90833253D01*
X144733893Y-90847868D01*
X144712850Y-90860480D01*
X144690671Y-90870970D01*
X144667572Y-90879235D01*
X144643773Y-90885196D01*
X144619505Y-90888796D01*
X144595001Y-90890000D01*
X143694999Y-90890000D01*
X143670495Y-90888796D01*
X143646227Y-90885196D01*
X143622428Y-90879235D01*
X143599329Y-90870970D01*
X143577150Y-90860480D01*
X143556107Y-90847868D01*
X143536401Y-90833253D01*
X143518223Y-90816777D01*
X143501747Y-90798599D01*
X143487132Y-90778893D01*
X143474520Y-90757850D01*
X143464030Y-90735671D01*
X143455765Y-90712572D01*
X143449804Y-90688773D01*
X143446204Y-90664505D01*
X143445000Y-90640001D01*
X143445000Y-89989999D01*
X143446204Y-89965495D01*
X143449804Y-89941227D01*
X143455765Y-89917428D01*
X143464030Y-89894329D01*
X143474520Y-89872150D01*
X143487132Y-89851107D01*
X143501747Y-89831401D01*
X143518223Y-89813223D01*
X143536401Y-89796747D01*
X143556107Y-89782132D01*
X143577150Y-89769520D01*
X143599329Y-89759030D01*
X143622428Y-89750765D01*
X143646227Y-89744804D01*
X143670495Y-89741204D01*
X143694999Y-89740000D01*
X144595001Y-89740000D01*
X144619505Y-89741204D01*
G37*
G04 #@! TD.AperFunction*
G04 #@! TA.AperFunction,SMDPad,CuDef*
G36*
X144619505Y-87691204D02*
G01*
X144643773Y-87694804D01*
X144667572Y-87700765D01*
X144690671Y-87709030D01*
X144712850Y-87719520D01*
X144733893Y-87732132D01*
X144753599Y-87746747D01*
X144771777Y-87763223D01*
X144788253Y-87781401D01*
X144802868Y-87801107D01*
X144815480Y-87822150D01*
X144825970Y-87844329D01*
X144834235Y-87867428D01*
X144840196Y-87891227D01*
X144843796Y-87915495D01*
X144845000Y-87939999D01*
X144845000Y-88590001D01*
X144843796Y-88614505D01*
X144840196Y-88638773D01*
X144834235Y-88662572D01*
X144825970Y-88685671D01*
X144815480Y-88707850D01*
X144802868Y-88728893D01*
X144788253Y-88748599D01*
X144771777Y-88766777D01*
X144753599Y-88783253D01*
X144733893Y-88797868D01*
X144712850Y-88810480D01*
X144690671Y-88820970D01*
X144667572Y-88829235D01*
X144643773Y-88835196D01*
X144619505Y-88838796D01*
X144595001Y-88840000D01*
X143694999Y-88840000D01*
X143670495Y-88838796D01*
X143646227Y-88835196D01*
X143622428Y-88829235D01*
X143599329Y-88820970D01*
X143577150Y-88810480D01*
X143556107Y-88797868D01*
X143536401Y-88783253D01*
X143518223Y-88766777D01*
X143501747Y-88748599D01*
X143487132Y-88728893D01*
X143474520Y-88707850D01*
X143464030Y-88685671D01*
X143455765Y-88662572D01*
X143449804Y-88638773D01*
X143446204Y-88614505D01*
X143445000Y-88590001D01*
X143445000Y-87939999D01*
X143446204Y-87915495D01*
X143449804Y-87891227D01*
X143455765Y-87867428D01*
X143464030Y-87844329D01*
X143474520Y-87822150D01*
X143487132Y-87801107D01*
X143501747Y-87781401D01*
X143518223Y-87763223D01*
X143536401Y-87746747D01*
X143556107Y-87732132D01*
X143577150Y-87719520D01*
X143599329Y-87709030D01*
X143622428Y-87700765D01*
X143646227Y-87694804D01*
X143670495Y-87691204D01*
X143694999Y-87690000D01*
X144595001Y-87690000D01*
X144619505Y-87691204D01*
G37*
G04 #@! TD.AperFunction*
G04 #@! TA.AperFunction,SMDPad,CuDef*
G36*
X155289505Y-94551204D02*
G01*
X155313773Y-94554804D01*
X155337572Y-94560765D01*
X155360671Y-94569030D01*
X155382850Y-94579520D01*
X155403893Y-94592132D01*
X155423599Y-94606747D01*
X155441777Y-94623223D01*
X155458253Y-94641401D01*
X155472868Y-94661107D01*
X155485480Y-94682150D01*
X155495970Y-94704329D01*
X155504235Y-94727428D01*
X155510196Y-94751227D01*
X155513796Y-94775495D01*
X155515000Y-94799999D01*
X155515000Y-95700001D01*
X155513796Y-95724505D01*
X155510196Y-95748773D01*
X155504235Y-95772572D01*
X155495970Y-95795671D01*
X155485480Y-95817850D01*
X155472868Y-95838893D01*
X155458253Y-95858599D01*
X155441777Y-95876777D01*
X155423599Y-95893253D01*
X155403893Y-95907868D01*
X155382850Y-95920480D01*
X155360671Y-95930970D01*
X155337572Y-95939235D01*
X155313773Y-95945196D01*
X155289505Y-95948796D01*
X155265001Y-95950000D01*
X154614999Y-95950000D01*
X154590495Y-95948796D01*
X154566227Y-95945196D01*
X154542428Y-95939235D01*
X154519329Y-95930970D01*
X154497150Y-95920480D01*
X154476107Y-95907868D01*
X154456401Y-95893253D01*
X154438223Y-95876777D01*
X154421747Y-95858599D01*
X154407132Y-95838893D01*
X154394520Y-95817850D01*
X154384030Y-95795671D01*
X154375765Y-95772572D01*
X154369804Y-95748773D01*
X154366204Y-95724505D01*
X154365000Y-95700001D01*
X154365000Y-94799999D01*
X154366204Y-94775495D01*
X154369804Y-94751227D01*
X154375765Y-94727428D01*
X154384030Y-94704329D01*
X154394520Y-94682150D01*
X154407132Y-94661107D01*
X154421747Y-94641401D01*
X154438223Y-94623223D01*
X154456401Y-94606747D01*
X154476107Y-94592132D01*
X154497150Y-94579520D01*
X154519329Y-94569030D01*
X154542428Y-94560765D01*
X154566227Y-94554804D01*
X154590495Y-94551204D01*
X154614999Y-94550000D01*
X155265001Y-94550000D01*
X155289505Y-94551204D01*
G37*
G04 #@! TD.AperFunction*
G04 #@! TA.AperFunction,SMDPad,CuDef*
G36*
X157339505Y-94551204D02*
G01*
X157363773Y-94554804D01*
X157387572Y-94560765D01*
X157410671Y-94569030D01*
X157432850Y-94579520D01*
X157453893Y-94592132D01*
X157473599Y-94606747D01*
X157491777Y-94623223D01*
X157508253Y-94641401D01*
X157522868Y-94661107D01*
X157535480Y-94682150D01*
X157545970Y-94704329D01*
X157554235Y-94727428D01*
X157560196Y-94751227D01*
X157563796Y-94775495D01*
X157565000Y-94799999D01*
X157565000Y-95700001D01*
X157563796Y-95724505D01*
X157560196Y-95748773D01*
X157554235Y-95772572D01*
X157545970Y-95795671D01*
X157535480Y-95817850D01*
X157522868Y-95838893D01*
X157508253Y-95858599D01*
X157491777Y-95876777D01*
X157473599Y-95893253D01*
X157453893Y-95907868D01*
X157432850Y-95920480D01*
X157410671Y-95930970D01*
X157387572Y-95939235D01*
X157363773Y-95945196D01*
X157339505Y-95948796D01*
X157315001Y-95950000D01*
X156664999Y-95950000D01*
X156640495Y-95948796D01*
X156616227Y-95945196D01*
X156592428Y-95939235D01*
X156569329Y-95930970D01*
X156547150Y-95920480D01*
X156526107Y-95907868D01*
X156506401Y-95893253D01*
X156488223Y-95876777D01*
X156471747Y-95858599D01*
X156457132Y-95838893D01*
X156444520Y-95817850D01*
X156434030Y-95795671D01*
X156425765Y-95772572D01*
X156419804Y-95748773D01*
X156416204Y-95724505D01*
X156415000Y-95700001D01*
X156415000Y-94799999D01*
X156416204Y-94775495D01*
X156419804Y-94751227D01*
X156425765Y-94727428D01*
X156434030Y-94704329D01*
X156444520Y-94682150D01*
X156457132Y-94661107D01*
X156471747Y-94641401D01*
X156488223Y-94623223D01*
X156506401Y-94606747D01*
X156526107Y-94592132D01*
X156547150Y-94579520D01*
X156569329Y-94569030D01*
X156592428Y-94560765D01*
X156616227Y-94554804D01*
X156640495Y-94551204D01*
X156664999Y-94550000D01*
X157315001Y-94550000D01*
X157339505Y-94551204D01*
G37*
G04 #@! TD.AperFunction*
G04 #@! TA.AperFunction,SMDPad,CuDef*
G36*
X157339505Y-97091204D02*
G01*
X157363773Y-97094804D01*
X157387572Y-97100765D01*
X157410671Y-97109030D01*
X157432850Y-97119520D01*
X157453893Y-97132132D01*
X157473599Y-97146747D01*
X157491777Y-97163223D01*
X157508253Y-97181401D01*
X157522868Y-97201107D01*
X157535480Y-97222150D01*
X157545970Y-97244329D01*
X157554235Y-97267428D01*
X157560196Y-97291227D01*
X157563796Y-97315495D01*
X157565000Y-97339999D01*
X157565000Y-98240001D01*
X157563796Y-98264505D01*
X157560196Y-98288773D01*
X157554235Y-98312572D01*
X157545970Y-98335671D01*
X157535480Y-98357850D01*
X157522868Y-98378893D01*
X157508253Y-98398599D01*
X157491777Y-98416777D01*
X157473599Y-98433253D01*
X157453893Y-98447868D01*
X157432850Y-98460480D01*
X157410671Y-98470970D01*
X157387572Y-98479235D01*
X157363773Y-98485196D01*
X157339505Y-98488796D01*
X157315001Y-98490000D01*
X156664999Y-98490000D01*
X156640495Y-98488796D01*
X156616227Y-98485196D01*
X156592428Y-98479235D01*
X156569329Y-98470970D01*
X156547150Y-98460480D01*
X156526107Y-98447868D01*
X156506401Y-98433253D01*
X156488223Y-98416777D01*
X156471747Y-98398599D01*
X156457132Y-98378893D01*
X156444520Y-98357850D01*
X156434030Y-98335671D01*
X156425765Y-98312572D01*
X156419804Y-98288773D01*
X156416204Y-98264505D01*
X156415000Y-98240001D01*
X156415000Y-97339999D01*
X156416204Y-97315495D01*
X156419804Y-97291227D01*
X156425765Y-97267428D01*
X156434030Y-97244329D01*
X156444520Y-97222150D01*
X156457132Y-97201107D01*
X156471747Y-97181401D01*
X156488223Y-97163223D01*
X156506401Y-97146747D01*
X156526107Y-97132132D01*
X156547150Y-97119520D01*
X156569329Y-97109030D01*
X156592428Y-97100765D01*
X156616227Y-97094804D01*
X156640495Y-97091204D01*
X156664999Y-97090000D01*
X157315001Y-97090000D01*
X157339505Y-97091204D01*
G37*
G04 #@! TD.AperFunction*
G04 #@! TA.AperFunction,SMDPad,CuDef*
G36*
X155289505Y-97091204D02*
G01*
X155313773Y-97094804D01*
X155337572Y-97100765D01*
X155360671Y-97109030D01*
X155382850Y-97119520D01*
X155403893Y-97132132D01*
X155423599Y-97146747D01*
X155441777Y-97163223D01*
X155458253Y-97181401D01*
X155472868Y-97201107D01*
X155485480Y-97222150D01*
X155495970Y-97244329D01*
X155504235Y-97267428D01*
X155510196Y-97291227D01*
X155513796Y-97315495D01*
X155515000Y-97339999D01*
X155515000Y-98240001D01*
X155513796Y-98264505D01*
X155510196Y-98288773D01*
X155504235Y-98312572D01*
X155495970Y-98335671D01*
X155485480Y-98357850D01*
X155472868Y-98378893D01*
X155458253Y-98398599D01*
X155441777Y-98416777D01*
X155423599Y-98433253D01*
X155403893Y-98447868D01*
X155382850Y-98460480D01*
X155360671Y-98470970D01*
X155337572Y-98479235D01*
X155313773Y-98485196D01*
X155289505Y-98488796D01*
X155265001Y-98490000D01*
X154614999Y-98490000D01*
X154590495Y-98488796D01*
X154566227Y-98485196D01*
X154542428Y-98479235D01*
X154519329Y-98470970D01*
X154497150Y-98460480D01*
X154476107Y-98447868D01*
X154456401Y-98433253D01*
X154438223Y-98416777D01*
X154421747Y-98398599D01*
X154407132Y-98378893D01*
X154394520Y-98357850D01*
X154384030Y-98335671D01*
X154375765Y-98312572D01*
X154369804Y-98288773D01*
X154366204Y-98264505D01*
X154365000Y-98240001D01*
X154365000Y-97339999D01*
X154366204Y-97315495D01*
X154369804Y-97291227D01*
X154375765Y-97267428D01*
X154384030Y-97244329D01*
X154394520Y-97222150D01*
X154407132Y-97201107D01*
X154421747Y-97181401D01*
X154438223Y-97163223D01*
X154456401Y-97146747D01*
X154476107Y-97132132D01*
X154497150Y-97119520D01*
X154519329Y-97109030D01*
X154542428Y-97100765D01*
X154566227Y-97094804D01*
X154590495Y-97091204D01*
X154614999Y-97090000D01*
X155265001Y-97090000D01*
X155289505Y-97091204D01*
G37*
G04 #@! TD.AperFunction*
G04 #@! TA.AperFunction,SMDPad,CuDef*
G36*
X147794505Y-87691204D02*
G01*
X147818773Y-87694804D01*
X147842572Y-87700765D01*
X147865671Y-87709030D01*
X147887850Y-87719520D01*
X147908893Y-87732132D01*
X147928599Y-87746747D01*
X147946777Y-87763223D01*
X147963253Y-87781401D01*
X147977868Y-87801107D01*
X147990480Y-87822150D01*
X148000970Y-87844329D01*
X148009235Y-87867428D01*
X148015196Y-87891227D01*
X148018796Y-87915495D01*
X148020000Y-87939999D01*
X148020000Y-88590001D01*
X148018796Y-88614505D01*
X148015196Y-88638773D01*
X148009235Y-88662572D01*
X148000970Y-88685671D01*
X147990480Y-88707850D01*
X147977868Y-88728893D01*
X147963253Y-88748599D01*
X147946777Y-88766777D01*
X147928599Y-88783253D01*
X147908893Y-88797868D01*
X147887850Y-88810480D01*
X147865671Y-88820970D01*
X147842572Y-88829235D01*
X147818773Y-88835196D01*
X147794505Y-88838796D01*
X147770001Y-88840000D01*
X146869999Y-88840000D01*
X146845495Y-88838796D01*
X146821227Y-88835196D01*
X146797428Y-88829235D01*
X146774329Y-88820970D01*
X146752150Y-88810480D01*
X146731107Y-88797868D01*
X146711401Y-88783253D01*
X146693223Y-88766777D01*
X146676747Y-88748599D01*
X146662132Y-88728893D01*
X146649520Y-88707850D01*
X146639030Y-88685671D01*
X146630765Y-88662572D01*
X146624804Y-88638773D01*
X146621204Y-88614505D01*
X146620000Y-88590001D01*
X146620000Y-87939999D01*
X146621204Y-87915495D01*
X146624804Y-87891227D01*
X146630765Y-87867428D01*
X146639030Y-87844329D01*
X146649520Y-87822150D01*
X146662132Y-87801107D01*
X146676747Y-87781401D01*
X146693223Y-87763223D01*
X146711401Y-87746747D01*
X146731107Y-87732132D01*
X146752150Y-87719520D01*
X146774329Y-87709030D01*
X146797428Y-87700765D01*
X146821227Y-87694804D01*
X146845495Y-87691204D01*
X146869999Y-87690000D01*
X147770001Y-87690000D01*
X147794505Y-87691204D01*
G37*
G04 #@! TD.AperFunction*
G04 #@! TA.AperFunction,SMDPad,CuDef*
G36*
X147794505Y-89741204D02*
G01*
X147818773Y-89744804D01*
X147842572Y-89750765D01*
X147865671Y-89759030D01*
X147887850Y-89769520D01*
X147908893Y-89782132D01*
X147928599Y-89796747D01*
X147946777Y-89813223D01*
X147963253Y-89831401D01*
X147977868Y-89851107D01*
X147990480Y-89872150D01*
X148000970Y-89894329D01*
X148009235Y-89917428D01*
X148015196Y-89941227D01*
X148018796Y-89965495D01*
X148020000Y-89989999D01*
X148020000Y-90640001D01*
X148018796Y-90664505D01*
X148015196Y-90688773D01*
X148009235Y-90712572D01*
X148000970Y-90735671D01*
X147990480Y-90757850D01*
X147977868Y-90778893D01*
X147963253Y-90798599D01*
X147946777Y-90816777D01*
X147928599Y-90833253D01*
X147908893Y-90847868D01*
X147887850Y-90860480D01*
X147865671Y-90870970D01*
X147842572Y-90879235D01*
X147818773Y-90885196D01*
X147794505Y-90888796D01*
X147770001Y-90890000D01*
X146869999Y-90890000D01*
X146845495Y-90888796D01*
X146821227Y-90885196D01*
X146797428Y-90879235D01*
X146774329Y-90870970D01*
X146752150Y-90860480D01*
X146731107Y-90847868D01*
X146711401Y-90833253D01*
X146693223Y-90816777D01*
X146676747Y-90798599D01*
X146662132Y-90778893D01*
X146649520Y-90757850D01*
X146639030Y-90735671D01*
X146630765Y-90712572D01*
X146624804Y-90688773D01*
X146621204Y-90664505D01*
X146620000Y-90640001D01*
X146620000Y-89989999D01*
X146621204Y-89965495D01*
X146624804Y-89941227D01*
X146630765Y-89917428D01*
X146639030Y-89894329D01*
X146649520Y-89872150D01*
X146662132Y-89851107D01*
X146676747Y-89831401D01*
X146693223Y-89813223D01*
X146711401Y-89796747D01*
X146731107Y-89782132D01*
X146752150Y-89769520D01*
X146774329Y-89759030D01*
X146797428Y-89750765D01*
X146821227Y-89744804D01*
X146845495Y-89741204D01*
X146869999Y-89740000D01*
X147770001Y-89740000D01*
X147794505Y-89741204D01*
G37*
G04 #@! TD.AperFunction*
G04 #@! TA.AperFunction,SMDPad,CuDef*
G36*
X157693505Y-80581204D02*
G01*
X157717773Y-80584804D01*
X157741572Y-80590765D01*
X157764671Y-80599030D01*
X157786850Y-80609520D01*
X157807893Y-80622132D01*
X157827599Y-80636747D01*
X157845777Y-80653223D01*
X157862253Y-80671401D01*
X157876868Y-80691107D01*
X157889480Y-80712150D01*
X157899970Y-80734329D01*
X157908235Y-80757428D01*
X157914196Y-80781227D01*
X157917796Y-80805495D01*
X157919000Y-80829999D01*
X157919000Y-81730001D01*
X157917796Y-81754505D01*
X157914196Y-81778773D01*
X157908235Y-81802572D01*
X157899970Y-81825671D01*
X157889480Y-81847850D01*
X157876868Y-81868893D01*
X157862253Y-81888599D01*
X157845777Y-81906777D01*
X157827599Y-81923253D01*
X157807893Y-81937868D01*
X157786850Y-81950480D01*
X157764671Y-81960970D01*
X157741572Y-81969235D01*
X157717773Y-81975196D01*
X157693505Y-81978796D01*
X157669001Y-81980000D01*
X157018999Y-81980000D01*
X156994495Y-81978796D01*
X156970227Y-81975196D01*
X156946428Y-81969235D01*
X156923329Y-81960970D01*
X156901150Y-81950480D01*
X156880107Y-81937868D01*
X156860401Y-81923253D01*
X156842223Y-81906777D01*
X156825747Y-81888599D01*
X156811132Y-81868893D01*
X156798520Y-81847850D01*
X156788030Y-81825671D01*
X156779765Y-81802572D01*
X156773804Y-81778773D01*
X156770204Y-81754505D01*
X156769000Y-81730001D01*
X156769000Y-80829999D01*
X156770204Y-80805495D01*
X156773804Y-80781227D01*
X156779765Y-80757428D01*
X156788030Y-80734329D01*
X156798520Y-80712150D01*
X156811132Y-80691107D01*
X156825747Y-80671401D01*
X156842223Y-80653223D01*
X156860401Y-80636747D01*
X156880107Y-80622132D01*
X156901150Y-80609520D01*
X156923329Y-80599030D01*
X156946428Y-80590765D01*
X156970227Y-80584804D01*
X156994495Y-80581204D01*
X157018999Y-80580000D01*
X157669001Y-80580000D01*
X157693505Y-80581204D01*
G37*
G04 #@! TD.AperFunction*
G04 #@! TA.AperFunction,SMDPad,CuDef*
G36*
X159743505Y-80581204D02*
G01*
X159767773Y-80584804D01*
X159791572Y-80590765D01*
X159814671Y-80599030D01*
X159836850Y-80609520D01*
X159857893Y-80622132D01*
X159877599Y-80636747D01*
X159895777Y-80653223D01*
X159912253Y-80671401D01*
X159926868Y-80691107D01*
X159939480Y-80712150D01*
X159949970Y-80734329D01*
X159958235Y-80757428D01*
X159964196Y-80781227D01*
X159967796Y-80805495D01*
X159969000Y-80829999D01*
X159969000Y-81730001D01*
X159967796Y-81754505D01*
X159964196Y-81778773D01*
X159958235Y-81802572D01*
X159949970Y-81825671D01*
X159939480Y-81847850D01*
X159926868Y-81868893D01*
X159912253Y-81888599D01*
X159895777Y-81906777D01*
X159877599Y-81923253D01*
X159857893Y-81937868D01*
X159836850Y-81950480D01*
X159814671Y-81960970D01*
X159791572Y-81969235D01*
X159767773Y-81975196D01*
X159743505Y-81978796D01*
X159719001Y-81980000D01*
X159068999Y-81980000D01*
X159044495Y-81978796D01*
X159020227Y-81975196D01*
X158996428Y-81969235D01*
X158973329Y-81960970D01*
X158951150Y-81950480D01*
X158930107Y-81937868D01*
X158910401Y-81923253D01*
X158892223Y-81906777D01*
X158875747Y-81888599D01*
X158861132Y-81868893D01*
X158848520Y-81847850D01*
X158838030Y-81825671D01*
X158829765Y-81802572D01*
X158823804Y-81778773D01*
X158820204Y-81754505D01*
X158819000Y-81730001D01*
X158819000Y-80829999D01*
X158820204Y-80805495D01*
X158823804Y-80781227D01*
X158829765Y-80757428D01*
X158838030Y-80734329D01*
X158848520Y-80712150D01*
X158861132Y-80691107D01*
X158875747Y-80671401D01*
X158892223Y-80653223D01*
X158910401Y-80636747D01*
X158930107Y-80622132D01*
X158951150Y-80609520D01*
X158973329Y-80599030D01*
X158996428Y-80590765D01*
X159020227Y-80584804D01*
X159044495Y-80581204D01*
X159068999Y-80580000D01*
X159719001Y-80580000D01*
X159743505Y-80581204D01*
G37*
G04 #@! TD.AperFunction*
G04 #@! TA.AperFunction,SMDPad,CuDef*
G36*
X152239505Y-103076204D02*
G01*
X152263773Y-103079804D01*
X152287572Y-103085765D01*
X152310671Y-103094030D01*
X152332850Y-103104520D01*
X152353893Y-103117132D01*
X152373599Y-103131747D01*
X152391777Y-103148223D01*
X152408253Y-103166401D01*
X152422868Y-103186107D01*
X152435480Y-103207150D01*
X152445970Y-103229329D01*
X152454235Y-103252428D01*
X152460196Y-103276227D01*
X152463796Y-103300495D01*
X152465000Y-103324999D01*
X152465000Y-103975001D01*
X152463796Y-103999505D01*
X152460196Y-104023773D01*
X152454235Y-104047572D01*
X152445970Y-104070671D01*
X152435480Y-104092850D01*
X152422868Y-104113893D01*
X152408253Y-104133599D01*
X152391777Y-104151777D01*
X152373599Y-104168253D01*
X152353893Y-104182868D01*
X152332850Y-104195480D01*
X152310671Y-104205970D01*
X152287572Y-104214235D01*
X152263773Y-104220196D01*
X152239505Y-104223796D01*
X152215001Y-104225000D01*
X151314999Y-104225000D01*
X151290495Y-104223796D01*
X151266227Y-104220196D01*
X151242428Y-104214235D01*
X151219329Y-104205970D01*
X151197150Y-104195480D01*
X151176107Y-104182868D01*
X151156401Y-104168253D01*
X151138223Y-104151777D01*
X151121747Y-104133599D01*
X151107132Y-104113893D01*
X151094520Y-104092850D01*
X151084030Y-104070671D01*
X151075765Y-104047572D01*
X151069804Y-104023773D01*
X151066204Y-103999505D01*
X151065000Y-103975001D01*
X151065000Y-103324999D01*
X151066204Y-103300495D01*
X151069804Y-103276227D01*
X151075765Y-103252428D01*
X151084030Y-103229329D01*
X151094520Y-103207150D01*
X151107132Y-103186107D01*
X151121747Y-103166401D01*
X151138223Y-103148223D01*
X151156401Y-103131747D01*
X151176107Y-103117132D01*
X151197150Y-103104520D01*
X151219329Y-103094030D01*
X151242428Y-103085765D01*
X151266227Y-103079804D01*
X151290495Y-103076204D01*
X151314999Y-103075000D01*
X152215001Y-103075000D01*
X152239505Y-103076204D01*
G37*
G04 #@! TD.AperFunction*
G04 #@! TA.AperFunction,SMDPad,CuDef*
G36*
X152239505Y-101026204D02*
G01*
X152263773Y-101029804D01*
X152287572Y-101035765D01*
X152310671Y-101044030D01*
X152332850Y-101054520D01*
X152353893Y-101067132D01*
X152373599Y-101081747D01*
X152391777Y-101098223D01*
X152408253Y-101116401D01*
X152422868Y-101136107D01*
X152435480Y-101157150D01*
X152445970Y-101179329D01*
X152454235Y-101202428D01*
X152460196Y-101226227D01*
X152463796Y-101250495D01*
X152465000Y-101274999D01*
X152465000Y-101925001D01*
X152463796Y-101949505D01*
X152460196Y-101973773D01*
X152454235Y-101997572D01*
X152445970Y-102020671D01*
X152435480Y-102042850D01*
X152422868Y-102063893D01*
X152408253Y-102083599D01*
X152391777Y-102101777D01*
X152373599Y-102118253D01*
X152353893Y-102132868D01*
X152332850Y-102145480D01*
X152310671Y-102155970D01*
X152287572Y-102164235D01*
X152263773Y-102170196D01*
X152239505Y-102173796D01*
X152215001Y-102175000D01*
X151314999Y-102175000D01*
X151290495Y-102173796D01*
X151266227Y-102170196D01*
X151242428Y-102164235D01*
X151219329Y-102155970D01*
X151197150Y-102145480D01*
X151176107Y-102132868D01*
X151156401Y-102118253D01*
X151138223Y-102101777D01*
X151121747Y-102083599D01*
X151107132Y-102063893D01*
X151094520Y-102042850D01*
X151084030Y-102020671D01*
X151075765Y-101997572D01*
X151069804Y-101973773D01*
X151066204Y-101949505D01*
X151065000Y-101925001D01*
X151065000Y-101274999D01*
X151066204Y-101250495D01*
X151069804Y-101226227D01*
X151075765Y-101202428D01*
X151084030Y-101179329D01*
X151094520Y-101157150D01*
X151107132Y-101136107D01*
X151121747Y-101116401D01*
X151138223Y-101098223D01*
X151156401Y-101081747D01*
X151176107Y-101067132D01*
X151197150Y-101054520D01*
X151219329Y-101044030D01*
X151242428Y-101035765D01*
X151266227Y-101029804D01*
X151290495Y-101026204D01*
X151314999Y-101025000D01*
X152215001Y-101025000D01*
X152239505Y-101026204D01*
G37*
G04 #@! TD.AperFunction*
G04 #@! TA.AperFunction,SMDPad,CuDef*
G36*
X142479703Y-78440722D02*
G01*
X142494264Y-78442882D01*
X142508543Y-78446459D01*
X142522403Y-78451418D01*
X142535710Y-78457712D01*
X142548336Y-78465280D01*
X142560159Y-78474048D01*
X142571066Y-78483934D01*
X142580952Y-78494841D01*
X142589720Y-78506664D01*
X142597288Y-78519290D01*
X142603582Y-78532597D01*
X142608541Y-78546457D01*
X142612118Y-78560736D01*
X142614278Y-78575297D01*
X142615000Y-78590000D01*
X142615000Y-78890000D01*
X142614278Y-78904703D01*
X142612118Y-78919264D01*
X142608541Y-78933543D01*
X142603582Y-78947403D01*
X142597288Y-78960710D01*
X142589720Y-78973336D01*
X142580952Y-78985159D01*
X142571066Y-78996066D01*
X142560159Y-79005952D01*
X142548336Y-79014720D01*
X142535710Y-79022288D01*
X142522403Y-79028582D01*
X142508543Y-79033541D01*
X142494264Y-79037118D01*
X142479703Y-79039278D01*
X142465000Y-79040000D01*
X141165000Y-79040000D01*
X141150297Y-79039278D01*
X141135736Y-79037118D01*
X141121457Y-79033541D01*
X141107597Y-79028582D01*
X141094290Y-79022288D01*
X141081664Y-79014720D01*
X141069841Y-79005952D01*
X141058934Y-78996066D01*
X141049048Y-78985159D01*
X141040280Y-78973336D01*
X141032712Y-78960710D01*
X141026418Y-78947403D01*
X141021459Y-78933543D01*
X141017882Y-78919264D01*
X141015722Y-78904703D01*
X141015000Y-78890000D01*
X141015000Y-78590000D01*
X141015722Y-78575297D01*
X141017882Y-78560736D01*
X141021459Y-78546457D01*
X141026418Y-78532597D01*
X141032712Y-78519290D01*
X141040280Y-78506664D01*
X141049048Y-78494841D01*
X141058934Y-78483934D01*
X141069841Y-78474048D01*
X141081664Y-78465280D01*
X141094290Y-78457712D01*
X141107597Y-78451418D01*
X141121457Y-78446459D01*
X141135736Y-78442882D01*
X141150297Y-78440722D01*
X141165000Y-78440000D01*
X142465000Y-78440000D01*
X142479703Y-78440722D01*
G37*
G04 #@! TD.AperFunction*
G04 #@! TA.AperFunction,SMDPad,CuDef*
G36*
X142479703Y-79710722D02*
G01*
X142494264Y-79712882D01*
X142508543Y-79716459D01*
X142522403Y-79721418D01*
X142535710Y-79727712D01*
X142548336Y-79735280D01*
X142560159Y-79744048D01*
X142571066Y-79753934D01*
X142580952Y-79764841D01*
X142589720Y-79776664D01*
X142597288Y-79789290D01*
X142603582Y-79802597D01*
X142608541Y-79816457D01*
X142612118Y-79830736D01*
X142614278Y-79845297D01*
X142615000Y-79860000D01*
X142615000Y-80160000D01*
X142614278Y-80174703D01*
X142612118Y-80189264D01*
X142608541Y-80203543D01*
X142603582Y-80217403D01*
X142597288Y-80230710D01*
X142589720Y-80243336D01*
X142580952Y-80255159D01*
X142571066Y-80266066D01*
X142560159Y-80275952D01*
X142548336Y-80284720D01*
X142535710Y-80292288D01*
X142522403Y-80298582D01*
X142508543Y-80303541D01*
X142494264Y-80307118D01*
X142479703Y-80309278D01*
X142465000Y-80310000D01*
X141165000Y-80310000D01*
X141150297Y-80309278D01*
X141135736Y-80307118D01*
X141121457Y-80303541D01*
X141107597Y-80298582D01*
X141094290Y-80292288D01*
X141081664Y-80284720D01*
X141069841Y-80275952D01*
X141058934Y-80266066D01*
X141049048Y-80255159D01*
X141040280Y-80243336D01*
X141032712Y-80230710D01*
X141026418Y-80217403D01*
X141021459Y-80203543D01*
X141017882Y-80189264D01*
X141015722Y-80174703D01*
X141015000Y-80160000D01*
X141015000Y-79860000D01*
X141015722Y-79845297D01*
X141017882Y-79830736D01*
X141021459Y-79816457D01*
X141026418Y-79802597D01*
X141032712Y-79789290D01*
X141040280Y-79776664D01*
X141049048Y-79764841D01*
X141058934Y-79753934D01*
X141069841Y-79744048D01*
X141081664Y-79735280D01*
X141094290Y-79727712D01*
X141107597Y-79721418D01*
X141121457Y-79716459D01*
X141135736Y-79712882D01*
X141150297Y-79710722D01*
X141165000Y-79710000D01*
X142465000Y-79710000D01*
X142479703Y-79710722D01*
G37*
G04 #@! TD.AperFunction*
G04 #@! TA.AperFunction,SMDPad,CuDef*
G36*
X142479703Y-80980722D02*
G01*
X142494264Y-80982882D01*
X142508543Y-80986459D01*
X142522403Y-80991418D01*
X142535710Y-80997712D01*
X142548336Y-81005280D01*
X142560159Y-81014048D01*
X142571066Y-81023934D01*
X142580952Y-81034841D01*
X142589720Y-81046664D01*
X142597288Y-81059290D01*
X142603582Y-81072597D01*
X142608541Y-81086457D01*
X142612118Y-81100736D01*
X142614278Y-81115297D01*
X142615000Y-81130000D01*
X142615000Y-81430000D01*
X142614278Y-81444703D01*
X142612118Y-81459264D01*
X142608541Y-81473543D01*
X142603582Y-81487403D01*
X142597288Y-81500710D01*
X142589720Y-81513336D01*
X142580952Y-81525159D01*
X142571066Y-81536066D01*
X142560159Y-81545952D01*
X142548336Y-81554720D01*
X142535710Y-81562288D01*
X142522403Y-81568582D01*
X142508543Y-81573541D01*
X142494264Y-81577118D01*
X142479703Y-81579278D01*
X142465000Y-81580000D01*
X141165000Y-81580000D01*
X141150297Y-81579278D01*
X141135736Y-81577118D01*
X141121457Y-81573541D01*
X141107597Y-81568582D01*
X141094290Y-81562288D01*
X141081664Y-81554720D01*
X141069841Y-81545952D01*
X141058934Y-81536066D01*
X141049048Y-81525159D01*
X141040280Y-81513336D01*
X141032712Y-81500710D01*
X141026418Y-81487403D01*
X141021459Y-81473543D01*
X141017882Y-81459264D01*
X141015722Y-81444703D01*
X141015000Y-81430000D01*
X141015000Y-81130000D01*
X141015722Y-81115297D01*
X141017882Y-81100736D01*
X141021459Y-81086457D01*
X141026418Y-81072597D01*
X141032712Y-81059290D01*
X141040280Y-81046664D01*
X141049048Y-81034841D01*
X141058934Y-81023934D01*
X141069841Y-81014048D01*
X141081664Y-81005280D01*
X141094290Y-80997712D01*
X141107597Y-80991418D01*
X141121457Y-80986459D01*
X141135736Y-80982882D01*
X141150297Y-80980722D01*
X141165000Y-80980000D01*
X142465000Y-80980000D01*
X142479703Y-80980722D01*
G37*
G04 #@! TD.AperFunction*
G04 #@! TA.AperFunction,SMDPad,CuDef*
G36*
X142479703Y-82250722D02*
G01*
X142494264Y-82252882D01*
X142508543Y-82256459D01*
X142522403Y-82261418D01*
X142535710Y-82267712D01*
X142548336Y-82275280D01*
X142560159Y-82284048D01*
X142571066Y-82293934D01*
X142580952Y-82304841D01*
X142589720Y-82316664D01*
X142597288Y-82329290D01*
X142603582Y-82342597D01*
X142608541Y-82356457D01*
X142612118Y-82370736D01*
X142614278Y-82385297D01*
X142615000Y-82400000D01*
X142615000Y-82700000D01*
X142614278Y-82714703D01*
X142612118Y-82729264D01*
X142608541Y-82743543D01*
X142603582Y-82757403D01*
X142597288Y-82770710D01*
X142589720Y-82783336D01*
X142580952Y-82795159D01*
X142571066Y-82806066D01*
X142560159Y-82815952D01*
X142548336Y-82824720D01*
X142535710Y-82832288D01*
X142522403Y-82838582D01*
X142508543Y-82843541D01*
X142494264Y-82847118D01*
X142479703Y-82849278D01*
X142465000Y-82850000D01*
X141165000Y-82850000D01*
X141150297Y-82849278D01*
X141135736Y-82847118D01*
X141121457Y-82843541D01*
X141107597Y-82838582D01*
X141094290Y-82832288D01*
X141081664Y-82824720D01*
X141069841Y-82815952D01*
X141058934Y-82806066D01*
X141049048Y-82795159D01*
X141040280Y-82783336D01*
X141032712Y-82770710D01*
X141026418Y-82757403D01*
X141021459Y-82743543D01*
X141017882Y-82729264D01*
X141015722Y-82714703D01*
X141015000Y-82700000D01*
X141015000Y-82400000D01*
X141015722Y-82385297D01*
X141017882Y-82370736D01*
X141021459Y-82356457D01*
X141026418Y-82342597D01*
X141032712Y-82329290D01*
X141040280Y-82316664D01*
X141049048Y-82304841D01*
X141058934Y-82293934D01*
X141069841Y-82284048D01*
X141081664Y-82275280D01*
X141094290Y-82267712D01*
X141107597Y-82261418D01*
X141121457Y-82256459D01*
X141135736Y-82252882D01*
X141150297Y-82250722D01*
X141165000Y-82250000D01*
X142465000Y-82250000D01*
X142479703Y-82250722D01*
G37*
G04 #@! TD.AperFunction*
G04 #@! TA.AperFunction,SMDPad,CuDef*
G36*
X149679703Y-82250722D02*
G01*
X149694264Y-82252882D01*
X149708543Y-82256459D01*
X149722403Y-82261418D01*
X149735710Y-82267712D01*
X149748336Y-82275280D01*
X149760159Y-82284048D01*
X149771066Y-82293934D01*
X149780952Y-82304841D01*
X149789720Y-82316664D01*
X149797288Y-82329290D01*
X149803582Y-82342597D01*
X149808541Y-82356457D01*
X149812118Y-82370736D01*
X149814278Y-82385297D01*
X149815000Y-82400000D01*
X149815000Y-82700000D01*
X149814278Y-82714703D01*
X149812118Y-82729264D01*
X149808541Y-82743543D01*
X149803582Y-82757403D01*
X149797288Y-82770710D01*
X149789720Y-82783336D01*
X149780952Y-82795159D01*
X149771066Y-82806066D01*
X149760159Y-82815952D01*
X149748336Y-82824720D01*
X149735710Y-82832288D01*
X149722403Y-82838582D01*
X149708543Y-82843541D01*
X149694264Y-82847118D01*
X149679703Y-82849278D01*
X149665000Y-82850000D01*
X148365000Y-82850000D01*
X148350297Y-82849278D01*
X148335736Y-82847118D01*
X148321457Y-82843541D01*
X148307597Y-82838582D01*
X148294290Y-82832288D01*
X148281664Y-82824720D01*
X148269841Y-82815952D01*
X148258934Y-82806066D01*
X148249048Y-82795159D01*
X148240280Y-82783336D01*
X148232712Y-82770710D01*
X148226418Y-82757403D01*
X148221459Y-82743543D01*
X148217882Y-82729264D01*
X148215722Y-82714703D01*
X148215000Y-82700000D01*
X148215000Y-82400000D01*
X148215722Y-82385297D01*
X148217882Y-82370736D01*
X148221459Y-82356457D01*
X148226418Y-82342597D01*
X148232712Y-82329290D01*
X148240280Y-82316664D01*
X148249048Y-82304841D01*
X148258934Y-82293934D01*
X148269841Y-82284048D01*
X148281664Y-82275280D01*
X148294290Y-82267712D01*
X148307597Y-82261418D01*
X148321457Y-82256459D01*
X148335736Y-82252882D01*
X148350297Y-82250722D01*
X148365000Y-82250000D01*
X149665000Y-82250000D01*
X149679703Y-82250722D01*
G37*
G04 #@! TD.AperFunction*
G04 #@! TA.AperFunction,SMDPad,CuDef*
G36*
X149679703Y-80980722D02*
G01*
X149694264Y-80982882D01*
X149708543Y-80986459D01*
X149722403Y-80991418D01*
X149735710Y-80997712D01*
X149748336Y-81005280D01*
X149760159Y-81014048D01*
X149771066Y-81023934D01*
X149780952Y-81034841D01*
X149789720Y-81046664D01*
X149797288Y-81059290D01*
X149803582Y-81072597D01*
X149808541Y-81086457D01*
X149812118Y-81100736D01*
X149814278Y-81115297D01*
X149815000Y-81130000D01*
X149815000Y-81430000D01*
X149814278Y-81444703D01*
X149812118Y-81459264D01*
X149808541Y-81473543D01*
X149803582Y-81487403D01*
X149797288Y-81500710D01*
X149789720Y-81513336D01*
X149780952Y-81525159D01*
X149771066Y-81536066D01*
X149760159Y-81545952D01*
X149748336Y-81554720D01*
X149735710Y-81562288D01*
X149722403Y-81568582D01*
X149708543Y-81573541D01*
X149694264Y-81577118D01*
X149679703Y-81579278D01*
X149665000Y-81580000D01*
X148365000Y-81580000D01*
X148350297Y-81579278D01*
X148335736Y-81577118D01*
X148321457Y-81573541D01*
X148307597Y-81568582D01*
X148294290Y-81562288D01*
X148281664Y-81554720D01*
X148269841Y-81545952D01*
X148258934Y-81536066D01*
X148249048Y-81525159D01*
X148240280Y-81513336D01*
X148232712Y-81500710D01*
X148226418Y-81487403D01*
X148221459Y-81473543D01*
X148217882Y-81459264D01*
X148215722Y-81444703D01*
X148215000Y-81430000D01*
X148215000Y-81130000D01*
X148215722Y-81115297D01*
X148217882Y-81100736D01*
X148221459Y-81086457D01*
X148226418Y-81072597D01*
X148232712Y-81059290D01*
X148240280Y-81046664D01*
X148249048Y-81034841D01*
X148258934Y-81023934D01*
X148269841Y-81014048D01*
X148281664Y-81005280D01*
X148294290Y-80997712D01*
X148307597Y-80991418D01*
X148321457Y-80986459D01*
X148335736Y-80982882D01*
X148350297Y-80980722D01*
X148365000Y-80980000D01*
X149665000Y-80980000D01*
X149679703Y-80980722D01*
G37*
G04 #@! TD.AperFunction*
G04 #@! TA.AperFunction,SMDPad,CuDef*
G36*
X149679703Y-79710722D02*
G01*
X149694264Y-79712882D01*
X149708543Y-79716459D01*
X149722403Y-79721418D01*
X149735710Y-79727712D01*
X149748336Y-79735280D01*
X149760159Y-79744048D01*
X149771066Y-79753934D01*
X149780952Y-79764841D01*
X149789720Y-79776664D01*
X149797288Y-79789290D01*
X149803582Y-79802597D01*
X149808541Y-79816457D01*
X149812118Y-79830736D01*
X149814278Y-79845297D01*
X149815000Y-79860000D01*
X149815000Y-80160000D01*
X149814278Y-80174703D01*
X149812118Y-80189264D01*
X149808541Y-80203543D01*
X149803582Y-80217403D01*
X149797288Y-80230710D01*
X149789720Y-80243336D01*
X149780952Y-80255159D01*
X149771066Y-80266066D01*
X149760159Y-80275952D01*
X149748336Y-80284720D01*
X149735710Y-80292288D01*
X149722403Y-80298582D01*
X149708543Y-80303541D01*
X149694264Y-80307118D01*
X149679703Y-80309278D01*
X149665000Y-80310000D01*
X148365000Y-80310000D01*
X148350297Y-80309278D01*
X148335736Y-80307118D01*
X148321457Y-80303541D01*
X148307597Y-80298582D01*
X148294290Y-80292288D01*
X148281664Y-80284720D01*
X148269841Y-80275952D01*
X148258934Y-80266066D01*
X148249048Y-80255159D01*
X148240280Y-80243336D01*
X148232712Y-80230710D01*
X148226418Y-80217403D01*
X148221459Y-80203543D01*
X148217882Y-80189264D01*
X148215722Y-80174703D01*
X148215000Y-80160000D01*
X148215000Y-79860000D01*
X148215722Y-79845297D01*
X148217882Y-79830736D01*
X148221459Y-79816457D01*
X148226418Y-79802597D01*
X148232712Y-79789290D01*
X148240280Y-79776664D01*
X148249048Y-79764841D01*
X148258934Y-79753934D01*
X148269841Y-79744048D01*
X148281664Y-79735280D01*
X148294290Y-79727712D01*
X148307597Y-79721418D01*
X148321457Y-79716459D01*
X148335736Y-79712882D01*
X148350297Y-79710722D01*
X148365000Y-79710000D01*
X149665000Y-79710000D01*
X149679703Y-79710722D01*
G37*
G04 #@! TD.AperFunction*
G04 #@! TA.AperFunction,SMDPad,CuDef*
G36*
X149679703Y-78440722D02*
G01*
X149694264Y-78442882D01*
X149708543Y-78446459D01*
X149722403Y-78451418D01*
X149735710Y-78457712D01*
X149748336Y-78465280D01*
X149760159Y-78474048D01*
X149771066Y-78483934D01*
X149780952Y-78494841D01*
X149789720Y-78506664D01*
X149797288Y-78519290D01*
X149803582Y-78532597D01*
X149808541Y-78546457D01*
X149812118Y-78560736D01*
X149814278Y-78575297D01*
X149815000Y-78590000D01*
X149815000Y-78890000D01*
X149814278Y-78904703D01*
X149812118Y-78919264D01*
X149808541Y-78933543D01*
X149803582Y-78947403D01*
X149797288Y-78960710D01*
X149789720Y-78973336D01*
X149780952Y-78985159D01*
X149771066Y-78996066D01*
X149760159Y-79005952D01*
X149748336Y-79014720D01*
X149735710Y-79022288D01*
X149722403Y-79028582D01*
X149708543Y-79033541D01*
X149694264Y-79037118D01*
X149679703Y-79039278D01*
X149665000Y-79040000D01*
X148365000Y-79040000D01*
X148350297Y-79039278D01*
X148335736Y-79037118D01*
X148321457Y-79033541D01*
X148307597Y-79028582D01*
X148294290Y-79022288D01*
X148281664Y-79014720D01*
X148269841Y-79005952D01*
X148258934Y-78996066D01*
X148249048Y-78985159D01*
X148240280Y-78973336D01*
X148232712Y-78960710D01*
X148226418Y-78947403D01*
X148221459Y-78933543D01*
X148217882Y-78919264D01*
X148215722Y-78904703D01*
X148215000Y-78890000D01*
X148215000Y-78590000D01*
X148215722Y-78575297D01*
X148217882Y-78560736D01*
X148221459Y-78546457D01*
X148226418Y-78532597D01*
X148232712Y-78519290D01*
X148240280Y-78506664D01*
X148249048Y-78494841D01*
X148258934Y-78483934D01*
X148269841Y-78474048D01*
X148281664Y-78465280D01*
X148294290Y-78457712D01*
X148307597Y-78451418D01*
X148321457Y-78446459D01*
X148335736Y-78442882D01*
X148350297Y-78440722D01*
X148365000Y-78440000D01*
X149665000Y-78440000D01*
X149679703Y-78440722D01*
G37*
G04 #@! TD.AperFunction*
D15*
X167199000Y-79614000D03*
X167199000Y-80914000D03*
X169859000Y-80264000D03*
G04 #@! TA.AperFunction,SMDPad,CuDef*
D10*
G36*
X146187252Y-98248102D02*
G01*
X146199386Y-98249902D01*
X146211286Y-98252882D01*
X146222835Y-98257015D01*
X146233925Y-98262260D01*
X146244446Y-98268566D01*
X146254299Y-98275874D01*
X146263388Y-98284112D01*
X146271626Y-98293201D01*
X146278934Y-98303054D01*
X146285240Y-98313575D01*
X146290485Y-98324665D01*
X146294618Y-98336214D01*
X146297598Y-98348114D01*
X146299398Y-98360248D01*
X146300000Y-98372500D01*
X146300000Y-99747500D01*
X146299398Y-99759752D01*
X146297598Y-99771886D01*
X146294618Y-99783786D01*
X146290485Y-99795335D01*
X146285240Y-99806425D01*
X146278934Y-99816946D01*
X146271626Y-99826799D01*
X146263388Y-99835888D01*
X146254299Y-99844126D01*
X146244446Y-99851434D01*
X146233925Y-99857740D01*
X146222835Y-99862985D01*
X146211286Y-99867118D01*
X146199386Y-99870098D01*
X146187252Y-99871898D01*
X146175000Y-99872500D01*
X145925000Y-99872500D01*
X145912748Y-99871898D01*
X145900614Y-99870098D01*
X145888714Y-99867118D01*
X145877165Y-99862985D01*
X145866075Y-99857740D01*
X145855554Y-99851434D01*
X145845701Y-99844126D01*
X145836612Y-99835888D01*
X145828374Y-99826799D01*
X145821066Y-99816946D01*
X145814760Y-99806425D01*
X145809515Y-99795335D01*
X145805382Y-99783786D01*
X145802402Y-99771886D01*
X145800602Y-99759752D01*
X145800000Y-99747500D01*
X145800000Y-98372500D01*
X145800602Y-98360248D01*
X145802402Y-98348114D01*
X145805382Y-98336214D01*
X145809515Y-98324665D01*
X145814760Y-98313575D01*
X145821066Y-98303054D01*
X145828374Y-98293201D01*
X145836612Y-98284112D01*
X145845701Y-98275874D01*
X145855554Y-98268566D01*
X145866075Y-98262260D01*
X145877165Y-98257015D01*
X145888714Y-98252882D01*
X145900614Y-98249902D01*
X145912748Y-98248102D01*
X145925000Y-98247500D01*
X146175000Y-98247500D01*
X146187252Y-98248102D01*
G37*
G04 #@! TD.AperFunction*
G04 #@! TA.AperFunction,SMDPad,CuDef*
G36*
X145537252Y-98248102D02*
G01*
X145549386Y-98249902D01*
X145561286Y-98252882D01*
X145572835Y-98257015D01*
X145583925Y-98262260D01*
X145594446Y-98268566D01*
X145604299Y-98275874D01*
X145613388Y-98284112D01*
X145621626Y-98293201D01*
X145628934Y-98303054D01*
X145635240Y-98313575D01*
X145640485Y-98324665D01*
X145644618Y-98336214D01*
X145647598Y-98348114D01*
X145649398Y-98360248D01*
X145650000Y-98372500D01*
X145650000Y-99747500D01*
X145649398Y-99759752D01*
X145647598Y-99771886D01*
X145644618Y-99783786D01*
X145640485Y-99795335D01*
X145635240Y-99806425D01*
X145628934Y-99816946D01*
X145621626Y-99826799D01*
X145613388Y-99835888D01*
X145604299Y-99844126D01*
X145594446Y-99851434D01*
X145583925Y-99857740D01*
X145572835Y-99862985D01*
X145561286Y-99867118D01*
X145549386Y-99870098D01*
X145537252Y-99871898D01*
X145525000Y-99872500D01*
X145275000Y-99872500D01*
X145262748Y-99871898D01*
X145250614Y-99870098D01*
X145238714Y-99867118D01*
X145227165Y-99862985D01*
X145216075Y-99857740D01*
X145205554Y-99851434D01*
X145195701Y-99844126D01*
X145186612Y-99835888D01*
X145178374Y-99826799D01*
X145171066Y-99816946D01*
X145164760Y-99806425D01*
X145159515Y-99795335D01*
X145155382Y-99783786D01*
X145152402Y-99771886D01*
X145150602Y-99759752D01*
X145150000Y-99747500D01*
X145150000Y-98372500D01*
X145150602Y-98360248D01*
X145152402Y-98348114D01*
X145155382Y-98336214D01*
X145159515Y-98324665D01*
X145164760Y-98313575D01*
X145171066Y-98303054D01*
X145178374Y-98293201D01*
X145186612Y-98284112D01*
X145195701Y-98275874D01*
X145205554Y-98268566D01*
X145216075Y-98262260D01*
X145227165Y-98257015D01*
X145238714Y-98252882D01*
X145250614Y-98249902D01*
X145262748Y-98248102D01*
X145275000Y-98247500D01*
X145525000Y-98247500D01*
X145537252Y-98248102D01*
G37*
G04 #@! TD.AperFunction*
G04 #@! TA.AperFunction,SMDPad,CuDef*
G36*
X144887252Y-98248102D02*
G01*
X144899386Y-98249902D01*
X144911286Y-98252882D01*
X144922835Y-98257015D01*
X144933925Y-98262260D01*
X144944446Y-98268566D01*
X144954299Y-98275874D01*
X144963388Y-98284112D01*
X144971626Y-98293201D01*
X144978934Y-98303054D01*
X144985240Y-98313575D01*
X144990485Y-98324665D01*
X144994618Y-98336214D01*
X144997598Y-98348114D01*
X144999398Y-98360248D01*
X145000000Y-98372500D01*
X145000000Y-99747500D01*
X144999398Y-99759752D01*
X144997598Y-99771886D01*
X144994618Y-99783786D01*
X144990485Y-99795335D01*
X144985240Y-99806425D01*
X144978934Y-99816946D01*
X144971626Y-99826799D01*
X144963388Y-99835888D01*
X144954299Y-99844126D01*
X144944446Y-99851434D01*
X144933925Y-99857740D01*
X144922835Y-99862985D01*
X144911286Y-99867118D01*
X144899386Y-99870098D01*
X144887252Y-99871898D01*
X144875000Y-99872500D01*
X144625000Y-99872500D01*
X144612748Y-99871898D01*
X144600614Y-99870098D01*
X144588714Y-99867118D01*
X144577165Y-99862985D01*
X144566075Y-99857740D01*
X144555554Y-99851434D01*
X144545701Y-99844126D01*
X144536612Y-99835888D01*
X144528374Y-99826799D01*
X144521066Y-99816946D01*
X144514760Y-99806425D01*
X144509515Y-99795335D01*
X144505382Y-99783786D01*
X144502402Y-99771886D01*
X144500602Y-99759752D01*
X144500000Y-99747500D01*
X144500000Y-98372500D01*
X144500602Y-98360248D01*
X144502402Y-98348114D01*
X144505382Y-98336214D01*
X144509515Y-98324665D01*
X144514760Y-98313575D01*
X144521066Y-98303054D01*
X144528374Y-98293201D01*
X144536612Y-98284112D01*
X144545701Y-98275874D01*
X144555554Y-98268566D01*
X144566075Y-98262260D01*
X144577165Y-98257015D01*
X144588714Y-98252882D01*
X144600614Y-98249902D01*
X144612748Y-98248102D01*
X144625000Y-98247500D01*
X144875000Y-98247500D01*
X144887252Y-98248102D01*
G37*
G04 #@! TD.AperFunction*
G04 #@! TA.AperFunction,SMDPad,CuDef*
G36*
X144237252Y-98248102D02*
G01*
X144249386Y-98249902D01*
X144261286Y-98252882D01*
X144272835Y-98257015D01*
X144283925Y-98262260D01*
X144294446Y-98268566D01*
X144304299Y-98275874D01*
X144313388Y-98284112D01*
X144321626Y-98293201D01*
X144328934Y-98303054D01*
X144335240Y-98313575D01*
X144340485Y-98324665D01*
X144344618Y-98336214D01*
X144347598Y-98348114D01*
X144349398Y-98360248D01*
X144350000Y-98372500D01*
X144350000Y-99747500D01*
X144349398Y-99759752D01*
X144347598Y-99771886D01*
X144344618Y-99783786D01*
X144340485Y-99795335D01*
X144335240Y-99806425D01*
X144328934Y-99816946D01*
X144321626Y-99826799D01*
X144313388Y-99835888D01*
X144304299Y-99844126D01*
X144294446Y-99851434D01*
X144283925Y-99857740D01*
X144272835Y-99862985D01*
X144261286Y-99867118D01*
X144249386Y-99870098D01*
X144237252Y-99871898D01*
X144225000Y-99872500D01*
X143975000Y-99872500D01*
X143962748Y-99871898D01*
X143950614Y-99870098D01*
X143938714Y-99867118D01*
X143927165Y-99862985D01*
X143916075Y-99857740D01*
X143905554Y-99851434D01*
X143895701Y-99844126D01*
X143886612Y-99835888D01*
X143878374Y-99826799D01*
X143871066Y-99816946D01*
X143864760Y-99806425D01*
X143859515Y-99795335D01*
X143855382Y-99783786D01*
X143852402Y-99771886D01*
X143850602Y-99759752D01*
X143850000Y-99747500D01*
X143850000Y-98372500D01*
X143850602Y-98360248D01*
X143852402Y-98348114D01*
X143855382Y-98336214D01*
X143859515Y-98324665D01*
X143864760Y-98313575D01*
X143871066Y-98303054D01*
X143878374Y-98293201D01*
X143886612Y-98284112D01*
X143895701Y-98275874D01*
X143905554Y-98268566D01*
X143916075Y-98262260D01*
X143927165Y-98257015D01*
X143938714Y-98252882D01*
X143950614Y-98249902D01*
X143962748Y-98248102D01*
X143975000Y-98247500D01*
X144225000Y-98247500D01*
X144237252Y-98248102D01*
G37*
G04 #@! TD.AperFunction*
G04 #@! TA.AperFunction,SMDPad,CuDef*
G36*
X144237252Y-102473102D02*
G01*
X144249386Y-102474902D01*
X144261286Y-102477882D01*
X144272835Y-102482015D01*
X144283925Y-102487260D01*
X144294446Y-102493566D01*
X144304299Y-102500874D01*
X144313388Y-102509112D01*
X144321626Y-102518201D01*
X144328934Y-102528054D01*
X144335240Y-102538575D01*
X144340485Y-102549665D01*
X144344618Y-102561214D01*
X144347598Y-102573114D01*
X144349398Y-102585248D01*
X144350000Y-102597500D01*
X144350000Y-103972500D01*
X144349398Y-103984752D01*
X144347598Y-103996886D01*
X144344618Y-104008786D01*
X144340485Y-104020335D01*
X144335240Y-104031425D01*
X144328934Y-104041946D01*
X144321626Y-104051799D01*
X144313388Y-104060888D01*
X144304299Y-104069126D01*
X144294446Y-104076434D01*
X144283925Y-104082740D01*
X144272835Y-104087985D01*
X144261286Y-104092118D01*
X144249386Y-104095098D01*
X144237252Y-104096898D01*
X144225000Y-104097500D01*
X143975000Y-104097500D01*
X143962748Y-104096898D01*
X143950614Y-104095098D01*
X143938714Y-104092118D01*
X143927165Y-104087985D01*
X143916075Y-104082740D01*
X143905554Y-104076434D01*
X143895701Y-104069126D01*
X143886612Y-104060888D01*
X143878374Y-104051799D01*
X143871066Y-104041946D01*
X143864760Y-104031425D01*
X143859515Y-104020335D01*
X143855382Y-104008786D01*
X143852402Y-103996886D01*
X143850602Y-103984752D01*
X143850000Y-103972500D01*
X143850000Y-102597500D01*
X143850602Y-102585248D01*
X143852402Y-102573114D01*
X143855382Y-102561214D01*
X143859515Y-102549665D01*
X143864760Y-102538575D01*
X143871066Y-102528054D01*
X143878374Y-102518201D01*
X143886612Y-102509112D01*
X143895701Y-102500874D01*
X143905554Y-102493566D01*
X143916075Y-102487260D01*
X143927165Y-102482015D01*
X143938714Y-102477882D01*
X143950614Y-102474902D01*
X143962748Y-102473102D01*
X143975000Y-102472500D01*
X144225000Y-102472500D01*
X144237252Y-102473102D01*
G37*
G04 #@! TD.AperFunction*
G04 #@! TA.AperFunction,SMDPad,CuDef*
G36*
X144887252Y-102473102D02*
G01*
X144899386Y-102474902D01*
X144911286Y-102477882D01*
X144922835Y-102482015D01*
X144933925Y-102487260D01*
X144944446Y-102493566D01*
X144954299Y-102500874D01*
X144963388Y-102509112D01*
X144971626Y-102518201D01*
X144978934Y-102528054D01*
X144985240Y-102538575D01*
X144990485Y-102549665D01*
X144994618Y-102561214D01*
X144997598Y-102573114D01*
X144999398Y-102585248D01*
X145000000Y-102597500D01*
X145000000Y-103972500D01*
X144999398Y-103984752D01*
X144997598Y-103996886D01*
X144994618Y-104008786D01*
X144990485Y-104020335D01*
X144985240Y-104031425D01*
X144978934Y-104041946D01*
X144971626Y-104051799D01*
X144963388Y-104060888D01*
X144954299Y-104069126D01*
X144944446Y-104076434D01*
X144933925Y-104082740D01*
X144922835Y-104087985D01*
X144911286Y-104092118D01*
X144899386Y-104095098D01*
X144887252Y-104096898D01*
X144875000Y-104097500D01*
X144625000Y-104097500D01*
X144612748Y-104096898D01*
X144600614Y-104095098D01*
X144588714Y-104092118D01*
X144577165Y-104087985D01*
X144566075Y-104082740D01*
X144555554Y-104076434D01*
X144545701Y-104069126D01*
X144536612Y-104060888D01*
X144528374Y-104051799D01*
X144521066Y-104041946D01*
X144514760Y-104031425D01*
X144509515Y-104020335D01*
X144505382Y-104008786D01*
X144502402Y-103996886D01*
X144500602Y-103984752D01*
X144500000Y-103972500D01*
X144500000Y-102597500D01*
X144500602Y-102585248D01*
X144502402Y-102573114D01*
X144505382Y-102561214D01*
X144509515Y-102549665D01*
X144514760Y-102538575D01*
X144521066Y-102528054D01*
X144528374Y-102518201D01*
X144536612Y-102509112D01*
X144545701Y-102500874D01*
X144555554Y-102493566D01*
X144566075Y-102487260D01*
X144577165Y-102482015D01*
X144588714Y-102477882D01*
X144600614Y-102474902D01*
X144612748Y-102473102D01*
X144625000Y-102472500D01*
X144875000Y-102472500D01*
X144887252Y-102473102D01*
G37*
G04 #@! TD.AperFunction*
G04 #@! TA.AperFunction,SMDPad,CuDef*
G36*
X145537252Y-102473102D02*
G01*
X145549386Y-102474902D01*
X145561286Y-102477882D01*
X145572835Y-102482015D01*
X145583925Y-102487260D01*
X145594446Y-102493566D01*
X145604299Y-102500874D01*
X145613388Y-102509112D01*
X145621626Y-102518201D01*
X145628934Y-102528054D01*
X145635240Y-102538575D01*
X145640485Y-102549665D01*
X145644618Y-102561214D01*
X145647598Y-102573114D01*
X145649398Y-102585248D01*
X145650000Y-102597500D01*
X145650000Y-103972500D01*
X145649398Y-103984752D01*
X145647598Y-103996886D01*
X145644618Y-104008786D01*
X145640485Y-104020335D01*
X145635240Y-104031425D01*
X145628934Y-104041946D01*
X145621626Y-104051799D01*
X145613388Y-104060888D01*
X145604299Y-104069126D01*
X145594446Y-104076434D01*
X145583925Y-104082740D01*
X145572835Y-104087985D01*
X145561286Y-104092118D01*
X145549386Y-104095098D01*
X145537252Y-104096898D01*
X145525000Y-104097500D01*
X145275000Y-104097500D01*
X145262748Y-104096898D01*
X145250614Y-104095098D01*
X145238714Y-104092118D01*
X145227165Y-104087985D01*
X145216075Y-104082740D01*
X145205554Y-104076434D01*
X145195701Y-104069126D01*
X145186612Y-104060888D01*
X145178374Y-104051799D01*
X145171066Y-104041946D01*
X145164760Y-104031425D01*
X145159515Y-104020335D01*
X145155382Y-104008786D01*
X145152402Y-103996886D01*
X145150602Y-103984752D01*
X145150000Y-103972500D01*
X145150000Y-102597500D01*
X145150602Y-102585248D01*
X145152402Y-102573114D01*
X145155382Y-102561214D01*
X145159515Y-102549665D01*
X145164760Y-102538575D01*
X145171066Y-102528054D01*
X145178374Y-102518201D01*
X145186612Y-102509112D01*
X145195701Y-102500874D01*
X145205554Y-102493566D01*
X145216075Y-102487260D01*
X145227165Y-102482015D01*
X145238714Y-102477882D01*
X145250614Y-102474902D01*
X145262748Y-102473102D01*
X145275000Y-102472500D01*
X145525000Y-102472500D01*
X145537252Y-102473102D01*
G37*
G04 #@! TD.AperFunction*
G04 #@! TA.AperFunction,SMDPad,CuDef*
G36*
X146187252Y-102473102D02*
G01*
X146199386Y-102474902D01*
X146211286Y-102477882D01*
X146222835Y-102482015D01*
X146233925Y-102487260D01*
X146244446Y-102493566D01*
X146254299Y-102500874D01*
X146263388Y-102509112D01*
X146271626Y-102518201D01*
X146278934Y-102528054D01*
X146285240Y-102538575D01*
X146290485Y-102549665D01*
X146294618Y-102561214D01*
X146297598Y-102573114D01*
X146299398Y-102585248D01*
X146300000Y-102597500D01*
X146300000Y-103972500D01*
X146299398Y-103984752D01*
X146297598Y-103996886D01*
X146294618Y-104008786D01*
X146290485Y-104020335D01*
X146285240Y-104031425D01*
X146278934Y-104041946D01*
X146271626Y-104051799D01*
X146263388Y-104060888D01*
X146254299Y-104069126D01*
X146244446Y-104076434D01*
X146233925Y-104082740D01*
X146222835Y-104087985D01*
X146211286Y-104092118D01*
X146199386Y-104095098D01*
X146187252Y-104096898D01*
X146175000Y-104097500D01*
X145925000Y-104097500D01*
X145912748Y-104096898D01*
X145900614Y-104095098D01*
X145888714Y-104092118D01*
X145877165Y-104087985D01*
X145866075Y-104082740D01*
X145855554Y-104076434D01*
X145845701Y-104069126D01*
X145836612Y-104060888D01*
X145828374Y-104051799D01*
X145821066Y-104041946D01*
X145814760Y-104031425D01*
X145809515Y-104020335D01*
X145805382Y-104008786D01*
X145802402Y-103996886D01*
X145800602Y-103984752D01*
X145800000Y-103972500D01*
X145800000Y-102597500D01*
X145800602Y-102585248D01*
X145802402Y-102573114D01*
X145805382Y-102561214D01*
X145809515Y-102549665D01*
X145814760Y-102538575D01*
X145821066Y-102528054D01*
X145828374Y-102518201D01*
X145836612Y-102509112D01*
X145845701Y-102500874D01*
X145855554Y-102493566D01*
X145866075Y-102487260D01*
X145877165Y-102482015D01*
X145888714Y-102477882D01*
X145900614Y-102474902D01*
X145912748Y-102473102D01*
X145925000Y-102472500D01*
X146175000Y-102472500D01*
X146187252Y-102473102D01*
G37*
G04 #@! TD.AperFunction*
D16*
X161290000Y-95885000D03*
D17*
X168910000Y-88265000D03*
X163830000Y-95885000D03*
X166370000Y-88265000D03*
X166370000Y-95885000D03*
X163830000Y-88265000D03*
X168910000Y-95885000D03*
X161290000Y-88265000D03*
D11*
X133985000Y-85725000D03*
D18*
X149225000Y-100330000D03*
X153035000Y-99695000D03*
X153035000Y-83820000D03*
X147574000Y-102616000D03*
X142113000Y-95631000D03*
X151257000Y-78740000D03*
X165735000Y-76073000D03*
X153924000Y-87122000D03*
X159512000Y-86106000D03*
X148463000Y-93726000D03*
X145594000Y-94459286D03*
X153416000Y-98425000D03*
X149352000Y-92456000D03*
D19*
X169980000Y-80143000D02*
X169859000Y-80264000D01*
X169980000Y-77470000D02*
X169980000Y-80143000D01*
D20*
X137795000Y-88750000D02*
X133835000Y-92710000D01*
X137795000Y-85725000D02*
X137795000Y-88750000D01*
D21*
X145400000Y-103285000D02*
X145400000Y-102250000D01*
X146050000Y-101600000D02*
X149225000Y-101600000D01*
X145400000Y-102250000D02*
X146050000Y-101600000D01*
D19*
X149225000Y-101600000D02*
X149225000Y-100330000D01*
X154305000Y-101600000D02*
X154305000Y-100965000D01*
X154305000Y-100965000D02*
X153035000Y-99695000D01*
X155575000Y-83829000D02*
X153044000Y-83829000D01*
X153044000Y-83829000D02*
X153035000Y-83820000D01*
X137795000Y-84709000D02*
X137795000Y-85725000D01*
X141815000Y-81280000D02*
X141224000Y-81280000D01*
X141224000Y-81280000D02*
X137795000Y-84709000D01*
X159131000Y-88265000D02*
X155575000Y-88265000D01*
X160531001Y-86864999D02*
X159131000Y-88265000D01*
X169859000Y-80264000D02*
X169859000Y-81289000D01*
X164283001Y-86864999D02*
X160531001Y-86864999D01*
X169859000Y-81289000D02*
X164283001Y-86864999D01*
X161163000Y-86233000D02*
X159131000Y-88265000D01*
X161163000Y-83829000D02*
X161163000Y-86233000D01*
D20*
X133985000Y-85725000D02*
X137795000Y-85725000D01*
D21*
X144099990Y-103284990D02*
X144100000Y-103285000D01*
X144099990Y-102443990D02*
X144099990Y-103284990D01*
X140970000Y-100965000D02*
X142621000Y-100965000D01*
X142621000Y-100965000D02*
X144099990Y-102443990D01*
X138430000Y-99762919D02*
X139132919Y-99060000D01*
X138430000Y-100965000D02*
X138430000Y-99762919D01*
X144750000Y-102245458D02*
X144750000Y-102472500D01*
X144750000Y-102472500D02*
X144750000Y-103285000D01*
X141564542Y-99060000D02*
X144750000Y-102245458D01*
X139132919Y-99060000D02*
X141564542Y-99060000D01*
X146415000Y-103650000D02*
X146050000Y-103285000D01*
X149225000Y-103650000D02*
X146415000Y-103650000D01*
D20*
X140335000Y-92710000D02*
X140335000Y-85725000D01*
X133350000Y-99695000D02*
X133350000Y-100965000D01*
X140335000Y-92710000D02*
X133350000Y-99695000D01*
D19*
X149225000Y-103650000D02*
X148608000Y-103650000D01*
X148608000Y-103650000D02*
X147574000Y-102616000D01*
X142113000Y-94824998D02*
X142875000Y-94062998D01*
X142113000Y-95631000D02*
X142113000Y-94824998D01*
X142844990Y-94032988D02*
X142844990Y-91028990D01*
X142875000Y-94062998D02*
X142844990Y-94032988D01*
X142844990Y-91028990D02*
X141732000Y-89916000D01*
X141732000Y-87122000D02*
X140335000Y-85725000D01*
X141732000Y-89916000D02*
X141732000Y-87122000D01*
X149015000Y-78740000D02*
X151257000Y-78740000D01*
D22*
X167005000Y-77343000D02*
X165735000Y-76073000D01*
X167005000Y-77470000D02*
X167005000Y-77343000D01*
X167199000Y-77664000D02*
X167005000Y-77470000D01*
X167199000Y-79614000D02*
X167199000Y-77664000D01*
X158903001Y-86714999D02*
X159512000Y-86106000D01*
X153924000Y-87122000D02*
X154331001Y-86714999D01*
X154331001Y-86714999D02*
X158903001Y-86714999D01*
D21*
X146050000Y-97820000D02*
X147320000Y-96550000D01*
X146050000Y-99060000D02*
X146050000Y-97820000D01*
D22*
X146694000Y-90941000D02*
X147320000Y-90315000D01*
X146694000Y-92710000D02*
X146694000Y-90941000D01*
X146694000Y-94624000D02*
X147320000Y-95250000D01*
X146694000Y-92710000D02*
X146694000Y-94624000D01*
D21*
X149595000Y-97155000D02*
X148971000Y-96531000D01*
X150495000Y-97155000D02*
X149595000Y-97155000D01*
X148470000Y-95250000D02*
X147320000Y-95250000D01*
X148971000Y-95751000D02*
X148470000Y-95250000D01*
X148971000Y-96531000D02*
X148971000Y-95751000D01*
D22*
X144644000Y-90814000D02*
X144145000Y-90315000D01*
X144644000Y-92710000D02*
X144644000Y-90814000D01*
X144644000Y-94624000D02*
X144018000Y-95250000D01*
X144644000Y-92710000D02*
X144644000Y-94624000D01*
D21*
X150495000Y-94615000D02*
X149352000Y-94615000D01*
X149352000Y-94615000D02*
X148463000Y-93726000D01*
X144808714Y-94459286D02*
X144644000Y-94624000D01*
X145594000Y-94459286D02*
X144808714Y-94459286D01*
X145400000Y-97932000D02*
X144018000Y-96550000D01*
X145400000Y-99060000D02*
X145400000Y-97932000D01*
D19*
X154305000Y-94615000D02*
X154940000Y-95250000D01*
X151795000Y-94615000D02*
X154305000Y-94615000D01*
X154305000Y-97155000D02*
X154940000Y-97790000D01*
X151795000Y-97155000D02*
X154305000Y-97155000D01*
X139700000Y-78740000D02*
X139065000Y-78105000D01*
X141815000Y-78740000D02*
X139700000Y-78740000D01*
D20*
X133985000Y-78105000D02*
X137015000Y-78105000D01*
X137015000Y-80645000D02*
X133985000Y-80645000D01*
D19*
X139700000Y-80010000D02*
X141815000Y-80010000D01*
X139065000Y-80645000D02*
X139700000Y-80010000D01*
X154390000Y-103565000D02*
X154305000Y-103650000D01*
X156845000Y-103565000D02*
X154390000Y-103565000D01*
X151765000Y-103650000D02*
X154305000Y-103650000D01*
D20*
X156074000Y-81280000D02*
X155575000Y-81779000D01*
X157344000Y-81280000D02*
X156074000Y-81280000D01*
X155076000Y-81280000D02*
X155575000Y-81779000D01*
X153815000Y-81280000D02*
X155076000Y-81280000D01*
D23*
X168910000Y-89281000D02*
X168910000Y-88265000D01*
X165906021Y-92284979D02*
X168910000Y-89281000D01*
X157911703Y-93472000D02*
X159098722Y-92284979D01*
X155101998Y-93472000D02*
X157911703Y-93472000D01*
X151725010Y-90095012D02*
X155101998Y-93472000D01*
X153606500Y-85217000D02*
X151725010Y-87098490D01*
X156446942Y-85217000D02*
X153606500Y-85217000D01*
X159098722Y-92284979D02*
X165906021Y-92284979D01*
X157344000Y-84319942D02*
X156446942Y-85217000D01*
X157344000Y-81280000D02*
X157344000Y-84319942D01*
X151725010Y-87098490D02*
X151725010Y-90095012D01*
D19*
X151765000Y-81280000D02*
X149015000Y-81280000D01*
D20*
X161662000Y-81280000D02*
X161163000Y-81779000D01*
X162932000Y-81280000D02*
X161662000Y-81280000D01*
X160664000Y-81280000D02*
X161163000Y-81779000D01*
X159394000Y-81280000D02*
X160664000Y-81280000D01*
D19*
X160625000Y-102265000D02*
X160655000Y-102235000D01*
X156845000Y-102265000D02*
X160625000Y-102265000D01*
X165348000Y-80914000D02*
X164982000Y-81280000D01*
X167199000Y-80914000D02*
X165348000Y-80914000D01*
X164982000Y-79892000D02*
X163195000Y-78105000D01*
X164982000Y-81280000D02*
X164982000Y-79892000D01*
D24*
X147320000Y-86330000D02*
X147925000Y-85725000D01*
X147320000Y-88265000D02*
X147320000Y-86330000D01*
X149225000Y-82760000D02*
X149015000Y-82550000D01*
X149225000Y-85725000D02*
X149225000Y-82760000D01*
D19*
X151765000Y-101600000D02*
X151765000Y-99550774D01*
X152890774Y-98425000D02*
X153416000Y-98425000D01*
X151765000Y-99550774D02*
X152890774Y-98425000D01*
X150525000Y-91283000D02*
X150525000Y-85725000D01*
X149352000Y-92456000D02*
X150525000Y-91283000D01*
D20*
X163830000Y-89396370D02*
X163830000Y-88265000D01*
X162929370Y-90297000D02*
X163830000Y-89396370D01*
X155575000Y-90805000D02*
X156083000Y-90297000D01*
X156083000Y-90297000D02*
X162929370Y-90297000D01*
D24*
X144145000Y-84880000D02*
X144145000Y-88265000D01*
X141815000Y-82550000D02*
X144145000Y-84880000D01*
D19*
X165570001Y-95085001D02*
X166370000Y-95885000D01*
X163969989Y-93484989D02*
X165570001Y-95085001D01*
X157830774Y-95250000D02*
X159595782Y-93484989D01*
X159595782Y-93484989D02*
X163969989Y-93484989D01*
X156990000Y-95250000D02*
X157830774Y-95250000D01*
X162429999Y-94484999D02*
X163030001Y-95085001D01*
X160009999Y-94484999D02*
X162429999Y-94484999D01*
X163030001Y-95085001D02*
X163830000Y-95885000D01*
X156990000Y-97504998D02*
X160009999Y-94484999D01*
X156990000Y-97790000D02*
X156990000Y-97504998D01*
X156845000Y-100330000D02*
X161290000Y-95885000D01*
X156845000Y-100965000D02*
X156845000Y-100330000D01*
D25*
G36*
X170170189Y-93644376D02*
G01*
X170333850Y-93694022D01*
X170340001Y-93697310D01*
X170340001Y-95757998D01*
X170180625Y-95757998D01*
X170301909Y-95535960D01*
X170207070Y-95271119D01*
X170062385Y-95029869D01*
X169873414Y-94821481D01*
X169647420Y-94653963D01*
X169393087Y-94533754D01*
X169259039Y-94493096D01*
X169037000Y-94615085D01*
X169037000Y-95758000D01*
X169057000Y-95758000D01*
X169057000Y-96012000D01*
X169037000Y-96012000D01*
X169037000Y-97154915D01*
X169259039Y-97276904D01*
X169393087Y-97236246D01*
X169647420Y-97116037D01*
X169873414Y-96948519D01*
X170062385Y-96740131D01*
X170207070Y-96498881D01*
X170301909Y-96234040D01*
X170180625Y-96012002D01*
X170340001Y-96012002D01*
X170340000Y-102967723D01*
X170320898Y-103162540D01*
X170273692Y-103318895D01*
X170197018Y-103463096D01*
X170093792Y-103589664D01*
X169967951Y-103693768D01*
X169824289Y-103771447D01*
X169668271Y-103819742D01*
X169475527Y-103840000D01*
X158233072Y-103840000D01*
X158233072Y-103300000D01*
X159619893Y-103300000D01*
X159708368Y-103388475D01*
X159951589Y-103550990D01*
X160221842Y-103662932D01*
X160508740Y-103720000D01*
X160801260Y-103720000D01*
X161088158Y-103662932D01*
X161358411Y-103550990D01*
X161601632Y-103388475D01*
X161733487Y-103256620D01*
X161755498Y-103329180D01*
X161814463Y-103439494D01*
X161893815Y-103536185D01*
X161990506Y-103615537D01*
X162100820Y-103674502D01*
X162220518Y-103710812D01*
X162345000Y-103723072D01*
X162909250Y-103720000D01*
X163068000Y-103561250D01*
X163068000Y-102362000D01*
X163322000Y-102362000D01*
X163322000Y-103561250D01*
X163480750Y-103720000D01*
X164045000Y-103723072D01*
X164169482Y-103710812D01*
X164289180Y-103674502D01*
X164399494Y-103615537D01*
X164496185Y-103536185D01*
X164575537Y-103439494D01*
X164634502Y-103329180D01*
X164670812Y-103209482D01*
X164683072Y-103085000D01*
X164680000Y-102520750D01*
X164521250Y-102362000D01*
X163322000Y-102362000D01*
X163068000Y-102362000D01*
X163048000Y-102362000D01*
X163048000Y-102108000D01*
X163068000Y-102108000D01*
X163068000Y-100908750D01*
X163322000Y-100908750D01*
X163322000Y-102108000D01*
X164521250Y-102108000D01*
X164680000Y-101949250D01*
X164683072Y-101385000D01*
X164670812Y-101260518D01*
X164634502Y-101140820D01*
X164575537Y-101030506D01*
X164496185Y-100933815D01*
X164399494Y-100854463D01*
X164289180Y-100795498D01*
X164169482Y-100759188D01*
X164045000Y-100746928D01*
X163480750Y-100750000D01*
X163322000Y-100908750D01*
X163068000Y-100908750D01*
X162909250Y-100750000D01*
X162345000Y-100746928D01*
X162220518Y-100759188D01*
X162100820Y-100795498D01*
X161990506Y-100854463D01*
X161893815Y-100933815D01*
X161814463Y-101030506D01*
X161755498Y-101140820D01*
X161733487Y-101213380D01*
X161601632Y-101081525D01*
X161358411Y-100919010D01*
X161088158Y-100807068D01*
X160801260Y-100750000D01*
X160508740Y-100750000D01*
X160221842Y-100807068D01*
X159951589Y-100919010D01*
X159708368Y-101081525D01*
X159559893Y-101230000D01*
X158233072Y-101230000D01*
X158233072Y-100465000D01*
X158227750Y-100410960D01*
X161315639Y-97323072D01*
X162090000Y-97323072D01*
X162214482Y-97310812D01*
X162334180Y-97274502D01*
X162444494Y-97215537D01*
X162541185Y-97136185D01*
X162620537Y-97039494D01*
X162679502Y-96929180D01*
X162715812Y-96809482D01*
X162716643Y-96801039D01*
X162915241Y-96999637D01*
X163150273Y-97156680D01*
X163411426Y-97264853D01*
X163688665Y-97320000D01*
X163971335Y-97320000D01*
X164248574Y-97264853D01*
X164509727Y-97156680D01*
X164744759Y-96999637D01*
X164944637Y-96799759D01*
X165100000Y-96567241D01*
X165255363Y-96799759D01*
X165455241Y-96999637D01*
X165690273Y-97156680D01*
X165951426Y-97264853D01*
X166228665Y-97320000D01*
X166511335Y-97320000D01*
X166788574Y-97264853D01*
X167049727Y-97156680D01*
X167284759Y-96999637D01*
X167484637Y-96799759D01*
X167641680Y-96564727D01*
X167646067Y-96554135D01*
X167757615Y-96740131D01*
X167946586Y-96948519D01*
X168172580Y-97116037D01*
X168426913Y-97236246D01*
X168560961Y-97276904D01*
X168783000Y-97154915D01*
X168783000Y-96012000D01*
X168763000Y-96012000D01*
X168763000Y-95758000D01*
X168783000Y-95758000D01*
X168783000Y-94615085D01*
X168560961Y-94493096D01*
X168426913Y-94533754D01*
X168172580Y-94653963D01*
X167946586Y-94821481D01*
X167757615Y-95029869D01*
X167646067Y-95215865D01*
X167641680Y-95205273D01*
X167484637Y-94970241D01*
X167284759Y-94770363D01*
X167049727Y-94613320D01*
X166788574Y-94505147D01*
X166511335Y-94450000D01*
X166398710Y-94450000D01*
X166337808Y-94389098D01*
X166337804Y-94389093D01*
X165575710Y-93627000D01*
X169993766Y-93627000D01*
X170170189Y-93644376D01*
G37*
X170170189Y-93644376D02*
X170333850Y-93694022D01*
X170340001Y-93697310D01*
X170340001Y-95757998D01*
X170180625Y-95757998D01*
X170301909Y-95535960D01*
X170207070Y-95271119D01*
X170062385Y-95029869D01*
X169873414Y-94821481D01*
X169647420Y-94653963D01*
X169393087Y-94533754D01*
X169259039Y-94493096D01*
X169037000Y-94615085D01*
X169037000Y-95758000D01*
X169057000Y-95758000D01*
X169057000Y-96012000D01*
X169037000Y-96012000D01*
X169037000Y-97154915D01*
X169259039Y-97276904D01*
X169393087Y-97236246D01*
X169647420Y-97116037D01*
X169873414Y-96948519D01*
X170062385Y-96740131D01*
X170207070Y-96498881D01*
X170301909Y-96234040D01*
X170180625Y-96012002D01*
X170340001Y-96012002D01*
X170340000Y-102967723D01*
X170320898Y-103162540D01*
X170273692Y-103318895D01*
X170197018Y-103463096D01*
X170093792Y-103589664D01*
X169967951Y-103693768D01*
X169824289Y-103771447D01*
X169668271Y-103819742D01*
X169475527Y-103840000D01*
X158233072Y-103840000D01*
X158233072Y-103300000D01*
X159619893Y-103300000D01*
X159708368Y-103388475D01*
X159951589Y-103550990D01*
X160221842Y-103662932D01*
X160508740Y-103720000D01*
X160801260Y-103720000D01*
X161088158Y-103662932D01*
X161358411Y-103550990D01*
X161601632Y-103388475D01*
X161733487Y-103256620D01*
X161755498Y-103329180D01*
X161814463Y-103439494D01*
X161893815Y-103536185D01*
X161990506Y-103615537D01*
X162100820Y-103674502D01*
X162220518Y-103710812D01*
X162345000Y-103723072D01*
X162909250Y-103720000D01*
X163068000Y-103561250D01*
X163068000Y-102362000D01*
X163322000Y-102362000D01*
X163322000Y-103561250D01*
X163480750Y-103720000D01*
X164045000Y-103723072D01*
X164169482Y-103710812D01*
X164289180Y-103674502D01*
X164399494Y-103615537D01*
X164496185Y-103536185D01*
X164575537Y-103439494D01*
X164634502Y-103329180D01*
X164670812Y-103209482D01*
X164683072Y-103085000D01*
X164680000Y-102520750D01*
X164521250Y-102362000D01*
X163322000Y-102362000D01*
X163068000Y-102362000D01*
X163048000Y-102362000D01*
X163048000Y-102108000D01*
X163068000Y-102108000D01*
X163068000Y-100908750D01*
X163322000Y-100908750D01*
X163322000Y-102108000D01*
X164521250Y-102108000D01*
X164680000Y-101949250D01*
X164683072Y-101385000D01*
X164670812Y-101260518D01*
X164634502Y-101140820D01*
X164575537Y-101030506D01*
X164496185Y-100933815D01*
X164399494Y-100854463D01*
X164289180Y-100795498D01*
X164169482Y-100759188D01*
X164045000Y-100746928D01*
X163480750Y-100750000D01*
X163322000Y-100908750D01*
X163068000Y-100908750D01*
X162909250Y-100750000D01*
X162345000Y-100746928D01*
X162220518Y-100759188D01*
X162100820Y-100795498D01*
X161990506Y-100854463D01*
X161893815Y-100933815D01*
X161814463Y-101030506D01*
X161755498Y-101140820D01*
X161733487Y-101213380D01*
X161601632Y-101081525D01*
X161358411Y-100919010D01*
X161088158Y-100807068D01*
X160801260Y-100750000D01*
X160508740Y-100750000D01*
X160221842Y-100807068D01*
X159951589Y-100919010D01*
X159708368Y-101081525D01*
X159559893Y-101230000D01*
X158233072Y-101230000D01*
X158233072Y-100465000D01*
X158227750Y-100410960D01*
X161315639Y-97323072D01*
X162090000Y-97323072D01*
X162214482Y-97310812D01*
X162334180Y-97274502D01*
X162444494Y-97215537D01*
X162541185Y-97136185D01*
X162620537Y-97039494D01*
X162679502Y-96929180D01*
X162715812Y-96809482D01*
X162716643Y-96801039D01*
X162915241Y-96999637D01*
X163150273Y-97156680D01*
X163411426Y-97264853D01*
X163688665Y-97320000D01*
X163971335Y-97320000D01*
X164248574Y-97264853D01*
X164509727Y-97156680D01*
X164744759Y-96999637D01*
X164944637Y-96799759D01*
X165100000Y-96567241D01*
X165255363Y-96799759D01*
X165455241Y-96999637D01*
X165690273Y-97156680D01*
X165951426Y-97264853D01*
X166228665Y-97320000D01*
X166511335Y-97320000D01*
X166788574Y-97264853D01*
X167049727Y-97156680D01*
X167284759Y-96999637D01*
X167484637Y-96799759D01*
X167641680Y-96564727D01*
X167646067Y-96554135D01*
X167757615Y-96740131D01*
X167946586Y-96948519D01*
X168172580Y-97116037D01*
X168426913Y-97236246D01*
X168560961Y-97276904D01*
X168783000Y-97154915D01*
X168783000Y-96012000D01*
X168763000Y-96012000D01*
X168763000Y-95758000D01*
X168783000Y-95758000D01*
X168783000Y-94615085D01*
X168560961Y-94493096D01*
X168426913Y-94533754D01*
X168172580Y-94653963D01*
X167946586Y-94821481D01*
X167757615Y-95029869D01*
X167646067Y-95215865D01*
X167641680Y-95205273D01*
X167484637Y-94970241D01*
X167284759Y-94770363D01*
X167049727Y-94613320D01*
X166788574Y-94505147D01*
X166511335Y-94450000D01*
X166398710Y-94450000D01*
X166337808Y-94389098D01*
X166337804Y-94389093D01*
X165575710Y-93627000D01*
X169993766Y-93627000D01*
X170170189Y-93644376D01*
G36*
X148975558Y-97716426D02*
G01*
X149001709Y-97748291D01*
X149128854Y-97852636D01*
X149273913Y-97930172D01*
X149362040Y-97956905D01*
X149369188Y-98029482D01*
X149405498Y-98149180D01*
X149464463Y-98259494D01*
X149543815Y-98356185D01*
X149640506Y-98435537D01*
X149750820Y-98494502D01*
X149870518Y-98530812D01*
X149995000Y-98543072D01*
X150995000Y-98543072D01*
X151119482Y-98530812D01*
X151145000Y-98523071D01*
X151170518Y-98530812D01*
X151295000Y-98543072D01*
X151308992Y-98543072D01*
X151069092Y-98782972D01*
X151029605Y-98815378D01*
X150997198Y-98854866D01*
X150997197Y-98854867D01*
X150900266Y-98972977D01*
X150804160Y-99152781D01*
X150744977Y-99347879D01*
X150724994Y-99550774D01*
X150730001Y-99601611D01*
X150730000Y-100611780D01*
X150687038Y-100647038D01*
X150576595Y-100781613D01*
X150537136Y-100855435D01*
X150514502Y-100780820D01*
X150455537Y-100670506D01*
X150376185Y-100573815D01*
X150279494Y-100494463D01*
X150169180Y-100435498D01*
X150049482Y-100399188D01*
X149925000Y-100386928D01*
X149510750Y-100390000D01*
X149352000Y-100548750D01*
X149352000Y-101473000D01*
X149372000Y-101473000D01*
X149372000Y-101727000D01*
X149352000Y-101727000D01*
X149352000Y-101747000D01*
X149098000Y-101747000D01*
X149098000Y-101727000D01*
X148106468Y-101727000D01*
X148064256Y-101698795D01*
X148017036Y-101679236D01*
X147971993Y-101655160D01*
X147923122Y-101640335D01*
X147875898Y-101620774D01*
X147825768Y-101610803D01*
X147776895Y-101595977D01*
X147726067Y-101590971D01*
X147675939Y-101581000D01*
X147624828Y-101581000D01*
X147574000Y-101575994D01*
X147523172Y-101581000D01*
X147472061Y-101581000D01*
X147421933Y-101590971D01*
X147371105Y-101595977D01*
X147322232Y-101610803D01*
X147272102Y-101620774D01*
X147224878Y-101640335D01*
X147176007Y-101655160D01*
X147130964Y-101679236D01*
X147083744Y-101698795D01*
X147041252Y-101727187D01*
X146996203Y-101751266D01*
X146956716Y-101783672D01*
X146914226Y-101812063D01*
X146878092Y-101848197D01*
X146838604Y-101880604D01*
X146806197Y-101920092D01*
X146770063Y-101956226D01*
X146741672Y-101998716D01*
X146709266Y-102038203D01*
X146703556Y-102048886D01*
X146598940Y-101963029D01*
X146467015Y-101892513D01*
X146323868Y-101849090D01*
X146175000Y-101834428D01*
X145925000Y-101834428D01*
X145782723Y-101848441D01*
X145681750Y-101837500D01*
X145619562Y-101899688D01*
X145531898Y-101946545D01*
X145527002Y-101930404D01*
X145527002Y-101837500D01*
X145478738Y-101837500D01*
X145447636Y-101779312D01*
X145369439Y-101684028D01*
X145369437Y-101684026D01*
X145343291Y-101652167D01*
X145311433Y-101626022D01*
X144710411Y-101025000D01*
X147886928Y-101025000D01*
X147890000Y-101314250D01*
X148048750Y-101473000D01*
X149098000Y-101473000D01*
X149098000Y-100548750D01*
X148939250Y-100390000D01*
X148525000Y-100386928D01*
X148400518Y-100399188D01*
X148280820Y-100435498D01*
X148170506Y-100494463D01*
X148073815Y-100573815D01*
X147994463Y-100670506D01*
X147935498Y-100780820D01*
X147899188Y-100900518D01*
X147886928Y-101025000D01*
X144710411Y-101025000D01*
X144195982Y-100510572D01*
X144225000Y-100510572D01*
X144373868Y-100495910D01*
X144425000Y-100480399D01*
X144476132Y-100495910D01*
X144625000Y-100510572D01*
X144875000Y-100510572D01*
X145023868Y-100495910D01*
X145075000Y-100480399D01*
X145126132Y-100495910D01*
X145275000Y-100510572D01*
X145525000Y-100510572D01*
X145673868Y-100495910D01*
X145725000Y-100480399D01*
X145776132Y-100495910D01*
X145925000Y-100510572D01*
X146175000Y-100510572D01*
X146323868Y-100495910D01*
X146467015Y-100452487D01*
X146598940Y-100381971D01*
X146714573Y-100287073D01*
X146809471Y-100171440D01*
X146879987Y-100039515D01*
X146923410Y-99896368D01*
X146938072Y-99747500D01*
X146938072Y-98372500D01*
X146923410Y-98223632D01*
X146901026Y-98149841D01*
X147362796Y-97688072D01*
X148070000Y-97688072D01*
X148194482Y-97675812D01*
X148314180Y-97639502D01*
X148424494Y-97580537D01*
X148521185Y-97501185D01*
X148600537Y-97404494D01*
X148622513Y-97363380D01*
X148975558Y-97716426D01*
G37*
X148975558Y-97716426D02*
X149001709Y-97748291D01*
X149128854Y-97852636D01*
X149273913Y-97930172D01*
X149362040Y-97956905D01*
X149369188Y-98029482D01*
X149405498Y-98149180D01*
X149464463Y-98259494D01*
X149543815Y-98356185D01*
X149640506Y-98435537D01*
X149750820Y-98494502D01*
X149870518Y-98530812D01*
X149995000Y-98543072D01*
X150995000Y-98543072D01*
X151119482Y-98530812D01*
X151145000Y-98523071D01*
X151170518Y-98530812D01*
X151295000Y-98543072D01*
X151308992Y-98543072D01*
X151069092Y-98782972D01*
X151029605Y-98815378D01*
X150997198Y-98854866D01*
X150997197Y-98854867D01*
X150900266Y-98972977D01*
X150804160Y-99152781D01*
X150744977Y-99347879D01*
X150724994Y-99550774D01*
X150730001Y-99601611D01*
X150730000Y-100611780D01*
X150687038Y-100647038D01*
X150576595Y-100781613D01*
X150537136Y-100855435D01*
X150514502Y-100780820D01*
X150455537Y-100670506D01*
X150376185Y-100573815D01*
X150279494Y-100494463D01*
X150169180Y-100435498D01*
X150049482Y-100399188D01*
X149925000Y-100386928D01*
X149510750Y-100390000D01*
X149352000Y-100548750D01*
X149352000Y-101473000D01*
X149372000Y-101473000D01*
X149372000Y-101727000D01*
X149352000Y-101727000D01*
X149352000Y-101747000D01*
X149098000Y-101747000D01*
X149098000Y-101727000D01*
X148106468Y-101727000D01*
X148064256Y-101698795D01*
X148017036Y-101679236D01*
X147971993Y-101655160D01*
X147923122Y-101640335D01*
X147875898Y-101620774D01*
X147825768Y-101610803D01*
X147776895Y-101595977D01*
X147726067Y-101590971D01*
X147675939Y-101581000D01*
X147624828Y-101581000D01*
X147574000Y-101575994D01*
X147523172Y-101581000D01*
X147472061Y-101581000D01*
X147421933Y-101590971D01*
X147371105Y-101595977D01*
X147322232Y-101610803D01*
X147272102Y-101620774D01*
X147224878Y-101640335D01*
X147176007Y-101655160D01*
X147130964Y-101679236D01*
X147083744Y-101698795D01*
X147041252Y-101727187D01*
X146996203Y-101751266D01*
X146956716Y-101783672D01*
X146914226Y-101812063D01*
X146878092Y-101848197D01*
X146838604Y-101880604D01*
X146806197Y-101920092D01*
X146770063Y-101956226D01*
X146741672Y-101998716D01*
X146709266Y-102038203D01*
X146703556Y-102048886D01*
X146598940Y-101963029D01*
X146467015Y-101892513D01*
X146323868Y-101849090D01*
X146175000Y-101834428D01*
X145925000Y-101834428D01*
X145782723Y-101848441D01*
X145681750Y-101837500D01*
X145619562Y-101899688D01*
X145531898Y-101946545D01*
X145527002Y-101930404D01*
X145527002Y-101837500D01*
X145478738Y-101837500D01*
X145447636Y-101779312D01*
X145369439Y-101684028D01*
X145369437Y-101684026D01*
X145343291Y-101652167D01*
X145311433Y-101626022D01*
X144710411Y-101025000D01*
X147886928Y-101025000D01*
X147890000Y-101314250D01*
X148048750Y-101473000D01*
X149098000Y-101473000D01*
X149098000Y-100548750D01*
X148939250Y-100390000D01*
X148525000Y-100386928D01*
X148400518Y-100399188D01*
X148280820Y-100435498D01*
X148170506Y-100494463D01*
X148073815Y-100573815D01*
X147994463Y-100670506D01*
X147935498Y-100780820D01*
X147899188Y-100900518D01*
X147886928Y-101025000D01*
X144710411Y-101025000D01*
X144195982Y-100510572D01*
X144225000Y-100510572D01*
X144373868Y-100495910D01*
X144425000Y-100480399D01*
X144476132Y-100495910D01*
X144625000Y-100510572D01*
X144875000Y-100510572D01*
X145023868Y-100495910D01*
X145075000Y-100480399D01*
X145126132Y-100495910D01*
X145275000Y-100510572D01*
X145525000Y-100510572D01*
X145673868Y-100495910D01*
X145725000Y-100480399D01*
X145776132Y-100495910D01*
X145925000Y-100510572D01*
X146175000Y-100510572D01*
X146323868Y-100495910D01*
X146467015Y-100452487D01*
X146598940Y-100381971D01*
X146714573Y-100287073D01*
X146809471Y-100171440D01*
X146879987Y-100039515D01*
X146923410Y-99896368D01*
X146938072Y-99747500D01*
X146938072Y-98372500D01*
X146923410Y-98223632D01*
X146901026Y-98149841D01*
X147362796Y-97688072D01*
X148070000Y-97688072D01*
X148194482Y-97675812D01*
X148314180Y-97639502D01*
X148424494Y-97580537D01*
X148521185Y-97501185D01*
X148600537Y-97404494D01*
X148622513Y-97363380D01*
X148975558Y-97716426D01*
G36*
X156037038Y-98867962D02*
G01*
X156171613Y-98978405D01*
X156325149Y-99060472D01*
X156491745Y-99111008D01*
X156590550Y-99120739D01*
X156149092Y-99562197D01*
X156109605Y-99594604D01*
X156077198Y-99634092D01*
X156077197Y-99634093D01*
X155980266Y-99752203D01*
X155926661Y-99852492D01*
X155850820Y-99875498D01*
X155740506Y-99934463D01*
X155643815Y-100013815D01*
X155564463Y-100110506D01*
X155505498Y-100220820D01*
X155469188Y-100340518D01*
X155456928Y-100465000D01*
X155456928Y-100574720D01*
X155456185Y-100573815D01*
X155359494Y-100494463D01*
X155249180Y-100435498D01*
X155129482Y-100399188D01*
X155005000Y-100386928D01*
X154590750Y-100390000D01*
X154432000Y-100548750D01*
X154432000Y-101473000D01*
X154452000Y-101473000D01*
X154452000Y-101727000D01*
X154432000Y-101727000D01*
X154432000Y-101747000D01*
X154178000Y-101747000D01*
X154178000Y-101727000D01*
X154158000Y-101727000D01*
X154158000Y-101473000D01*
X154178000Y-101473000D01*
X154178000Y-100548750D01*
X154019250Y-100390000D01*
X153605000Y-100386928D01*
X153480518Y-100399188D01*
X153360820Y-100435498D01*
X153250506Y-100494463D01*
X153153815Y-100573815D01*
X153074463Y-100670506D01*
X153015498Y-100780820D01*
X152992864Y-100855435D01*
X152953405Y-100781613D01*
X152842962Y-100647038D01*
X152800000Y-100611780D01*
X152800000Y-99979484D01*
X153319485Y-99460000D01*
X153517939Y-99460000D01*
X153568057Y-99450031D01*
X153618895Y-99445024D01*
X153667777Y-99430196D01*
X153717898Y-99420226D01*
X153765113Y-99400669D01*
X153813993Y-99385841D01*
X153859042Y-99361762D01*
X153906256Y-99342205D01*
X153948746Y-99313814D01*
X153993797Y-99289734D01*
X154033284Y-99257328D01*
X154075774Y-99228937D01*
X154111908Y-99192803D01*
X154151396Y-99160396D01*
X154183803Y-99120908D01*
X154219937Y-99084774D01*
X154246431Y-99045122D01*
X154275149Y-99060472D01*
X154441745Y-99111008D01*
X154614999Y-99128072D01*
X155265001Y-99128072D01*
X155438255Y-99111008D01*
X155604851Y-99060472D01*
X155758387Y-98978405D01*
X155892962Y-98867962D01*
X155965000Y-98780184D01*
X156037038Y-98867962D01*
G37*
X156037038Y-98867962D02*
X156171613Y-98978405D01*
X156325149Y-99060472D01*
X156491745Y-99111008D01*
X156590550Y-99120739D01*
X156149092Y-99562197D01*
X156109605Y-99594604D01*
X156077198Y-99634092D01*
X156077197Y-99634093D01*
X155980266Y-99752203D01*
X155926661Y-99852492D01*
X155850820Y-99875498D01*
X155740506Y-99934463D01*
X155643815Y-100013815D01*
X155564463Y-100110506D01*
X155505498Y-100220820D01*
X155469188Y-100340518D01*
X155456928Y-100465000D01*
X155456928Y-100574720D01*
X155456185Y-100573815D01*
X155359494Y-100494463D01*
X155249180Y-100435498D01*
X155129482Y-100399188D01*
X155005000Y-100386928D01*
X154590750Y-100390000D01*
X154432000Y-100548750D01*
X154432000Y-101473000D01*
X154452000Y-101473000D01*
X154452000Y-101727000D01*
X154432000Y-101727000D01*
X154432000Y-101747000D01*
X154178000Y-101747000D01*
X154178000Y-101727000D01*
X154158000Y-101727000D01*
X154158000Y-101473000D01*
X154178000Y-101473000D01*
X154178000Y-100548750D01*
X154019250Y-100390000D01*
X153605000Y-100386928D01*
X153480518Y-100399188D01*
X153360820Y-100435498D01*
X153250506Y-100494463D01*
X153153815Y-100573815D01*
X153074463Y-100670506D01*
X153015498Y-100780820D01*
X152992864Y-100855435D01*
X152953405Y-100781613D01*
X152842962Y-100647038D01*
X152800000Y-100611780D01*
X152800000Y-99979484D01*
X153319485Y-99460000D01*
X153517939Y-99460000D01*
X153568057Y-99450031D01*
X153618895Y-99445024D01*
X153667777Y-99430196D01*
X153717898Y-99420226D01*
X153765113Y-99400669D01*
X153813993Y-99385841D01*
X153859042Y-99361762D01*
X153906256Y-99342205D01*
X153948746Y-99313814D01*
X153993797Y-99289734D01*
X154033284Y-99257328D01*
X154075774Y-99228937D01*
X154111908Y-99192803D01*
X154151396Y-99160396D01*
X154183803Y-99120908D01*
X154219937Y-99084774D01*
X154246431Y-99045122D01*
X154275149Y-99060472D01*
X154441745Y-99111008D01*
X154614999Y-99128072D01*
X155265001Y-99128072D01*
X155438255Y-99111008D01*
X155604851Y-99060472D01*
X155758387Y-98978405D01*
X155892962Y-98867962D01*
X155965000Y-98780184D01*
X156037038Y-98867962D01*
G36*
X149805978Y-75666150D02*
G01*
X149855624Y-75829811D01*
X149873000Y-76006234D01*
X149873000Y-77705000D01*
X148964162Y-77705000D01*
X148812105Y-77719976D01*
X148617007Y-77779159D01*
X148574409Y-77801928D01*
X148365000Y-77801928D01*
X148211255Y-77817071D01*
X148063418Y-77861916D01*
X147927171Y-77934742D01*
X147807749Y-78032749D01*
X147709742Y-78152171D01*
X147636916Y-78288418D01*
X147592071Y-78436255D01*
X147576928Y-78590000D01*
X147576928Y-78890000D01*
X147592071Y-79043745D01*
X147636916Y-79191582D01*
X147709742Y-79327829D01*
X147748454Y-79375000D01*
X147709742Y-79422171D01*
X147636916Y-79558418D01*
X147592071Y-79706255D01*
X147576928Y-79860000D01*
X147576928Y-80160000D01*
X147592071Y-80313745D01*
X147636916Y-80461582D01*
X147709742Y-80597829D01*
X147748454Y-80645000D01*
X147709742Y-80692171D01*
X147636916Y-80828418D01*
X147592071Y-80976255D01*
X147576928Y-81130000D01*
X147576928Y-81430000D01*
X147592071Y-81583745D01*
X147636916Y-81731582D01*
X147709742Y-81867829D01*
X147748454Y-81915000D01*
X147709742Y-81962171D01*
X147636916Y-82098418D01*
X147592071Y-82246255D01*
X147576928Y-82400000D01*
X147576928Y-82700000D01*
X147592071Y-82853745D01*
X147636916Y-83001582D01*
X147709742Y-83137829D01*
X147807749Y-83257251D01*
X147927171Y-83355258D01*
X148063418Y-83428084D01*
X148211255Y-83472929D01*
X148290001Y-83480685D01*
X148290000Y-84336928D01*
X147425000Y-84336928D01*
X147300518Y-84349188D01*
X147180820Y-84385498D01*
X147070506Y-84444463D01*
X146973815Y-84523815D01*
X146894463Y-84620506D01*
X146835498Y-84730820D01*
X146799188Y-84850518D01*
X146786928Y-84975000D01*
X146786928Y-85540783D01*
X146691336Y-85636375D01*
X146655657Y-85665656D01*
X146538815Y-85808028D01*
X146485085Y-85908551D01*
X146451994Y-85970460D01*
X146398529Y-86146709D01*
X146380476Y-86330000D01*
X146385001Y-86375942D01*
X146385001Y-87197112D01*
X146376613Y-87201595D01*
X146242038Y-87312038D01*
X146192008Y-87373000D01*
X145272992Y-87373000D01*
X145222962Y-87312038D01*
X145088387Y-87201595D01*
X145080000Y-87197112D01*
X145080000Y-84925935D01*
X145084524Y-84880000D01*
X145066472Y-84696708D01*
X145013007Y-84520459D01*
X144972386Y-84444463D01*
X144926186Y-84358028D01*
X144809344Y-84215656D01*
X144773660Y-84186371D01*
X143253072Y-82665783D01*
X143253072Y-82400000D01*
X143237929Y-82246255D01*
X143193084Y-82098418D01*
X143121270Y-81964064D01*
X143145537Y-81934494D01*
X143204502Y-81824180D01*
X143240812Y-81704482D01*
X143253072Y-81580000D01*
X143250000Y-81565750D01*
X143091250Y-81407000D01*
X141942000Y-81407000D01*
X141942000Y-81427000D01*
X141688000Y-81427000D01*
X141688000Y-81407000D01*
X140538750Y-81407000D01*
X140380000Y-81565750D01*
X140376928Y-81580000D01*
X140389188Y-81704482D01*
X140425498Y-81824180D01*
X140484463Y-81934494D01*
X140508730Y-81964064D01*
X140436916Y-82098418D01*
X140392071Y-82246255D01*
X140376928Y-82400000D01*
X140376928Y-82700000D01*
X140392071Y-82853745D01*
X140436916Y-83001582D01*
X140509742Y-83137829D01*
X140607749Y-83257251D01*
X140727171Y-83355258D01*
X140863418Y-83428084D01*
X141011255Y-83472929D01*
X141165000Y-83488072D01*
X141430783Y-83488072D01*
X143210000Y-85267289D01*
X143210001Y-87197112D01*
X143201613Y-87201595D01*
X143067038Y-87312038D01*
X143017008Y-87373000D01*
X142767000Y-87373000D01*
X142767000Y-87172827D01*
X142772006Y-87121999D01*
X142767000Y-87071171D01*
X142767000Y-87071162D01*
X142752024Y-86919105D01*
X142692841Y-86724007D01*
X142622820Y-86593007D01*
X142596734Y-86544202D01*
X142499803Y-86426092D01*
X142467396Y-86386604D01*
X142427908Y-86354197D01*
X141820000Y-85746289D01*
X141820000Y-85578740D01*
X141762932Y-85291842D01*
X141650990Y-85021589D01*
X141488475Y-84778368D01*
X141281632Y-84571525D01*
X141038411Y-84409010D01*
X140768158Y-84297068D01*
X140481260Y-84240000D01*
X140188740Y-84240000D01*
X139901842Y-84297068D01*
X139631589Y-84409010D01*
X139388368Y-84571525D01*
X139256513Y-84703380D01*
X139234502Y-84630820D01*
X139175537Y-84520506D01*
X139096185Y-84423815D01*
X138999494Y-84344463D01*
X138889180Y-84285498D01*
X138769482Y-84249188D01*
X138645000Y-84236928D01*
X138080750Y-84240000D01*
X137922000Y-84398750D01*
X137922000Y-85598000D01*
X137942000Y-85598000D01*
X137942000Y-85852000D01*
X137922000Y-85852000D01*
X137922000Y-87051250D01*
X138080750Y-87210000D01*
X138645000Y-87213072D01*
X138769482Y-87200812D01*
X138889180Y-87164502D01*
X138900001Y-87158718D01*
X138900000Y-90821928D01*
X138835000Y-90821928D01*
X138661746Y-90838992D01*
X138495150Y-90889528D01*
X138341614Y-90971595D01*
X138207038Y-91082038D01*
X138096595Y-91216614D01*
X138014528Y-91370150D01*
X137963992Y-91536746D01*
X137946928Y-91710000D01*
X137946928Y-93068676D01*
X136642604Y-94373000D01*
X136067523Y-94373000D01*
X136115537Y-94314494D01*
X136174502Y-94204180D01*
X136210812Y-94084482D01*
X136223072Y-93960000D01*
X136220000Y-92995750D01*
X136061250Y-92837000D01*
X133962000Y-92837000D01*
X133962000Y-92857000D01*
X133708000Y-92857000D01*
X133708000Y-92837000D01*
X133688000Y-92837000D01*
X133688000Y-92583000D01*
X133708000Y-92583000D01*
X133708000Y-90983750D01*
X133962000Y-90983750D01*
X133962000Y-92583000D01*
X136061250Y-92583000D01*
X136220000Y-92424250D01*
X136223072Y-91460000D01*
X136210812Y-91335518D01*
X136174502Y-91215820D01*
X136115537Y-91105506D01*
X136036185Y-91008815D01*
X135939494Y-90929463D01*
X135829180Y-90870498D01*
X135709482Y-90834188D01*
X135585000Y-90821928D01*
X134120750Y-90825000D01*
X133962000Y-90983750D01*
X133708000Y-90983750D01*
X133549250Y-90825000D01*
X132160000Y-90822085D01*
X132160000Y-86575000D01*
X132496928Y-86575000D01*
X132509188Y-86699482D01*
X132545498Y-86819180D01*
X132604463Y-86929494D01*
X132683815Y-87026185D01*
X132780506Y-87105537D01*
X132890820Y-87164502D01*
X133010518Y-87200812D01*
X133135000Y-87213072D01*
X133699250Y-87210000D01*
X133858000Y-87051250D01*
X133858000Y-85852000D01*
X134112000Y-85852000D01*
X134112000Y-87051250D01*
X134270750Y-87210000D01*
X134835000Y-87213072D01*
X134959482Y-87200812D01*
X135079180Y-87164502D01*
X135189494Y-87105537D01*
X135286185Y-87026185D01*
X135365537Y-86929494D01*
X135424502Y-86819180D01*
X135460812Y-86699482D01*
X135473072Y-86575000D01*
X136306928Y-86575000D01*
X136319188Y-86699482D01*
X136355498Y-86819180D01*
X136414463Y-86929494D01*
X136493815Y-87026185D01*
X136590506Y-87105537D01*
X136700820Y-87164502D01*
X136820518Y-87200812D01*
X136945000Y-87213072D01*
X137509250Y-87210000D01*
X137668000Y-87051250D01*
X137668000Y-85852000D01*
X136468750Y-85852000D01*
X136310000Y-86010750D01*
X136306928Y-86575000D01*
X135473072Y-86575000D01*
X135470000Y-86010750D01*
X135311250Y-85852000D01*
X134112000Y-85852000D01*
X133858000Y-85852000D01*
X132658750Y-85852000D01*
X132500000Y-86010750D01*
X132496928Y-86575000D01*
X132160000Y-86575000D01*
X132160000Y-84875000D01*
X132496928Y-84875000D01*
X132500000Y-85439250D01*
X132658750Y-85598000D01*
X133858000Y-85598000D01*
X133858000Y-84398750D01*
X134112000Y-84398750D01*
X134112000Y-85598000D01*
X135311250Y-85598000D01*
X135470000Y-85439250D01*
X135473072Y-84875000D01*
X136306928Y-84875000D01*
X136310000Y-85439250D01*
X136468750Y-85598000D01*
X137668000Y-85598000D01*
X137668000Y-84398750D01*
X137509250Y-84240000D01*
X136945000Y-84236928D01*
X136820518Y-84249188D01*
X136700820Y-84285498D01*
X136590506Y-84344463D01*
X136493815Y-84423815D01*
X136414463Y-84520506D01*
X136355498Y-84630820D01*
X136319188Y-84750518D01*
X136306928Y-84875000D01*
X135473072Y-84875000D01*
X135460812Y-84750518D01*
X135424502Y-84630820D01*
X135365537Y-84520506D01*
X135286185Y-84423815D01*
X135189494Y-84344463D01*
X135079180Y-84285498D01*
X134959482Y-84249188D01*
X134835000Y-84236928D01*
X134270750Y-84240000D01*
X134112000Y-84398750D01*
X133858000Y-84398750D01*
X133699250Y-84240000D01*
X133135000Y-84236928D01*
X133010518Y-84249188D01*
X132890820Y-84285498D01*
X132780506Y-84344463D01*
X132683815Y-84423815D01*
X132604463Y-84520506D01*
X132545498Y-84630820D01*
X132509188Y-84750518D01*
X132496928Y-84875000D01*
X132160000Y-84875000D01*
X132160000Y-79795000D01*
X132496928Y-79795000D01*
X132496928Y-81495000D01*
X132509188Y-81619482D01*
X132545498Y-81739180D01*
X132604463Y-81849494D01*
X132683815Y-81946185D01*
X132780506Y-82025537D01*
X132890820Y-82084502D01*
X133010518Y-82120812D01*
X133135000Y-82133072D01*
X134835000Y-82133072D01*
X134959482Y-82120812D01*
X135079180Y-82084502D01*
X135087603Y-82080000D01*
X137085492Y-82080000D01*
X137296309Y-82059236D01*
X137566808Y-81977182D01*
X137816101Y-81843932D01*
X137820600Y-81840240D01*
X137833387Y-81833405D01*
X137967962Y-81722962D01*
X137977160Y-81711755D01*
X138034608Y-81664608D01*
X138049378Y-81646611D01*
X138112038Y-81722962D01*
X138246613Y-81833405D01*
X138400149Y-81915472D01*
X138566745Y-81966008D01*
X138739999Y-81983072D01*
X139390001Y-81983072D01*
X139563255Y-81966008D01*
X139729851Y-81915472D01*
X139883387Y-81833405D01*
X140017962Y-81722962D01*
X140128405Y-81588387D01*
X140210472Y-81434851D01*
X140261008Y-81268255D01*
X140278072Y-81095001D01*
X140278072Y-81045000D01*
X140430750Y-81045000D01*
X140538750Y-81153000D01*
X141688000Y-81153000D01*
X141688000Y-81133000D01*
X141942000Y-81133000D01*
X141942000Y-81153000D01*
X143091250Y-81153000D01*
X143250000Y-80994250D01*
X143253072Y-80980000D01*
X143240812Y-80855518D01*
X143204502Y-80735820D01*
X143145537Y-80625506D01*
X143121270Y-80595936D01*
X143193084Y-80461582D01*
X143237929Y-80313745D01*
X143253072Y-80160000D01*
X143253072Y-79860000D01*
X143237929Y-79706255D01*
X143193084Y-79558418D01*
X143120258Y-79422171D01*
X143081546Y-79375000D01*
X143120258Y-79327829D01*
X143193084Y-79191582D01*
X143237929Y-79043745D01*
X143253072Y-78890000D01*
X143253072Y-78590000D01*
X143237929Y-78436255D01*
X143193084Y-78288418D01*
X143120258Y-78152171D01*
X143022251Y-78032749D01*
X142902829Y-77934742D01*
X142766582Y-77861916D01*
X142618745Y-77817071D01*
X142465000Y-77801928D01*
X142255591Y-77801928D01*
X142212993Y-77779159D01*
X142017895Y-77719976D01*
X141865838Y-77705000D01*
X140278072Y-77705000D01*
X140278072Y-77654999D01*
X140261008Y-77481745D01*
X140210472Y-77315149D01*
X140128405Y-77161613D01*
X140017962Y-77027038D01*
X139883387Y-76916595D01*
X139729851Y-76834528D01*
X139563255Y-76783992D01*
X139390001Y-76766928D01*
X138739999Y-76766928D01*
X138566745Y-76783992D01*
X138400149Y-76834528D01*
X138246613Y-76916595D01*
X138112038Y-77027038D01*
X138049378Y-77103389D01*
X138034608Y-77085392D01*
X137977160Y-77038245D01*
X137967962Y-77027038D01*
X137833387Y-76916595D01*
X137820600Y-76909760D01*
X137816101Y-76906068D01*
X137566808Y-76772818D01*
X137296309Y-76690764D01*
X137085492Y-76670000D01*
X134382625Y-76670000D01*
X134131260Y-76620000D01*
X133838740Y-76620000D01*
X133551842Y-76677068D01*
X133281589Y-76789010D01*
X133038368Y-76951525D01*
X132831525Y-77158368D01*
X132669010Y-77401589D01*
X132557068Y-77671842D01*
X132500000Y-77958740D01*
X132500000Y-78251260D01*
X132557068Y-78538158D01*
X132669010Y-78808411D01*
X132831525Y-79051632D01*
X132963380Y-79183487D01*
X132890820Y-79205498D01*
X132780506Y-79264463D01*
X132683815Y-79343815D01*
X132604463Y-79440506D01*
X132545498Y-79550820D01*
X132509188Y-79670518D01*
X132496928Y-79795000D01*
X132160000Y-79795000D01*
X132160000Y-76532277D01*
X132179102Y-76337460D01*
X132226308Y-76181106D01*
X132302982Y-76036904D01*
X132406207Y-75910337D01*
X132532051Y-75806231D01*
X132675711Y-75728553D01*
X132831729Y-75680258D01*
X133024473Y-75660000D01*
X149802691Y-75660000D01*
X149805978Y-75666150D01*
G37*
X149805978Y-75666150D02*
X149855624Y-75829811D01*
X149873000Y-76006234D01*
X149873000Y-77705000D01*
X148964162Y-77705000D01*
X148812105Y-77719976D01*
X148617007Y-77779159D01*
X148574409Y-77801928D01*
X148365000Y-77801928D01*
X148211255Y-77817071D01*
X148063418Y-77861916D01*
X147927171Y-77934742D01*
X147807749Y-78032749D01*
X147709742Y-78152171D01*
X147636916Y-78288418D01*
X147592071Y-78436255D01*
X147576928Y-78590000D01*
X147576928Y-78890000D01*
X147592071Y-79043745D01*
X147636916Y-79191582D01*
X147709742Y-79327829D01*
X147748454Y-79375000D01*
X147709742Y-79422171D01*
X147636916Y-79558418D01*
X147592071Y-79706255D01*
X147576928Y-79860000D01*
X147576928Y-80160000D01*
X147592071Y-80313745D01*
X147636916Y-80461582D01*
X147709742Y-80597829D01*
X147748454Y-80645000D01*
X147709742Y-80692171D01*
X147636916Y-80828418D01*
X147592071Y-80976255D01*
X147576928Y-81130000D01*
X147576928Y-81430000D01*
X147592071Y-81583745D01*
X147636916Y-81731582D01*
X147709742Y-81867829D01*
X147748454Y-81915000D01*
X147709742Y-81962171D01*
X147636916Y-82098418D01*
X147592071Y-82246255D01*
X147576928Y-82400000D01*
X147576928Y-82700000D01*
X147592071Y-82853745D01*
X147636916Y-83001582D01*
X147709742Y-83137829D01*
X147807749Y-83257251D01*
X147927171Y-83355258D01*
X148063418Y-83428084D01*
X148211255Y-83472929D01*
X148290001Y-83480685D01*
X148290000Y-84336928D01*
X147425000Y-84336928D01*
X147300518Y-84349188D01*
X147180820Y-84385498D01*
X147070506Y-84444463D01*
X146973815Y-84523815D01*
X146894463Y-84620506D01*
X146835498Y-84730820D01*
X146799188Y-84850518D01*
X146786928Y-84975000D01*
X146786928Y-85540783D01*
X146691336Y-85636375D01*
X146655657Y-85665656D01*
X146538815Y-85808028D01*
X146485085Y-85908551D01*
X146451994Y-85970460D01*
X146398529Y-86146709D01*
X146380476Y-86330000D01*
X146385001Y-86375942D01*
X146385001Y-87197112D01*
X146376613Y-87201595D01*
X146242038Y-87312038D01*
X146192008Y-87373000D01*
X145272992Y-87373000D01*
X145222962Y-87312038D01*
X145088387Y-87201595D01*
X145080000Y-87197112D01*
X145080000Y-84925935D01*
X145084524Y-84880000D01*
X145066472Y-84696708D01*
X145013007Y-84520459D01*
X144972386Y-84444463D01*
X144926186Y-84358028D01*
X144809344Y-84215656D01*
X144773660Y-84186371D01*
X143253072Y-82665783D01*
X143253072Y-82400000D01*
X143237929Y-82246255D01*
X143193084Y-82098418D01*
X143121270Y-81964064D01*
X143145537Y-81934494D01*
X143204502Y-81824180D01*
X143240812Y-81704482D01*
X143253072Y-81580000D01*
X143250000Y-81565750D01*
X143091250Y-81407000D01*
X141942000Y-81407000D01*
X141942000Y-81427000D01*
X141688000Y-81427000D01*
X141688000Y-81407000D01*
X140538750Y-81407000D01*
X140380000Y-81565750D01*
X140376928Y-81580000D01*
X140389188Y-81704482D01*
X140425498Y-81824180D01*
X140484463Y-81934494D01*
X140508730Y-81964064D01*
X140436916Y-82098418D01*
X140392071Y-82246255D01*
X140376928Y-82400000D01*
X140376928Y-82700000D01*
X140392071Y-82853745D01*
X140436916Y-83001582D01*
X140509742Y-83137829D01*
X140607749Y-83257251D01*
X140727171Y-83355258D01*
X140863418Y-83428084D01*
X141011255Y-83472929D01*
X141165000Y-83488072D01*
X141430783Y-83488072D01*
X143210000Y-85267289D01*
X143210001Y-87197112D01*
X143201613Y-87201595D01*
X143067038Y-87312038D01*
X143017008Y-87373000D01*
X142767000Y-87373000D01*
X142767000Y-87172827D01*
X142772006Y-87121999D01*
X142767000Y-87071171D01*
X142767000Y-87071162D01*
X142752024Y-86919105D01*
X142692841Y-86724007D01*
X142622820Y-86593007D01*
X142596734Y-86544202D01*
X142499803Y-86426092D01*
X142467396Y-86386604D01*
X142427908Y-86354197D01*
X141820000Y-85746289D01*
X141820000Y-85578740D01*
X141762932Y-85291842D01*
X141650990Y-85021589D01*
X141488475Y-84778368D01*
X141281632Y-84571525D01*
X141038411Y-84409010D01*
X140768158Y-84297068D01*
X140481260Y-84240000D01*
X140188740Y-84240000D01*
X139901842Y-84297068D01*
X139631589Y-84409010D01*
X139388368Y-84571525D01*
X139256513Y-84703380D01*
X139234502Y-84630820D01*
X139175537Y-84520506D01*
X139096185Y-84423815D01*
X138999494Y-84344463D01*
X138889180Y-84285498D01*
X138769482Y-84249188D01*
X138645000Y-84236928D01*
X138080750Y-84240000D01*
X137922000Y-84398750D01*
X137922000Y-85598000D01*
X137942000Y-85598000D01*
X137942000Y-85852000D01*
X137922000Y-85852000D01*
X137922000Y-87051250D01*
X138080750Y-87210000D01*
X138645000Y-87213072D01*
X138769482Y-87200812D01*
X138889180Y-87164502D01*
X138900001Y-87158718D01*
X138900000Y-90821928D01*
X138835000Y-90821928D01*
X138661746Y-90838992D01*
X138495150Y-90889528D01*
X138341614Y-90971595D01*
X138207038Y-91082038D01*
X138096595Y-91216614D01*
X138014528Y-91370150D01*
X137963992Y-91536746D01*
X137946928Y-91710000D01*
X137946928Y-93068676D01*
X136642604Y-94373000D01*
X136067523Y-94373000D01*
X136115537Y-94314494D01*
X136174502Y-94204180D01*
X136210812Y-94084482D01*
X136223072Y-93960000D01*
X136220000Y-92995750D01*
X136061250Y-92837000D01*
X133962000Y-92837000D01*
X133962000Y-92857000D01*
X133708000Y-92857000D01*
X133708000Y-92837000D01*
X133688000Y-92837000D01*
X133688000Y-92583000D01*
X133708000Y-92583000D01*
X133708000Y-90983750D01*
X133962000Y-90983750D01*
X133962000Y-92583000D01*
X136061250Y-92583000D01*
X136220000Y-92424250D01*
X136223072Y-91460000D01*
X136210812Y-91335518D01*
X136174502Y-91215820D01*
X136115537Y-91105506D01*
X136036185Y-91008815D01*
X135939494Y-90929463D01*
X135829180Y-90870498D01*
X135709482Y-90834188D01*
X135585000Y-90821928D01*
X134120750Y-90825000D01*
X133962000Y-90983750D01*
X133708000Y-90983750D01*
X133549250Y-90825000D01*
X132160000Y-90822085D01*
X132160000Y-86575000D01*
X132496928Y-86575000D01*
X132509188Y-86699482D01*
X132545498Y-86819180D01*
X132604463Y-86929494D01*
X132683815Y-87026185D01*
X132780506Y-87105537D01*
X132890820Y-87164502D01*
X133010518Y-87200812D01*
X133135000Y-87213072D01*
X133699250Y-87210000D01*
X133858000Y-87051250D01*
X133858000Y-85852000D01*
X134112000Y-85852000D01*
X134112000Y-87051250D01*
X134270750Y-87210000D01*
X134835000Y-87213072D01*
X134959482Y-87200812D01*
X135079180Y-87164502D01*
X135189494Y-87105537D01*
X135286185Y-87026185D01*
X135365537Y-86929494D01*
X135424502Y-86819180D01*
X135460812Y-86699482D01*
X135473072Y-86575000D01*
X136306928Y-86575000D01*
X136319188Y-86699482D01*
X136355498Y-86819180D01*
X136414463Y-86929494D01*
X136493815Y-87026185D01*
X136590506Y-87105537D01*
X136700820Y-87164502D01*
X136820518Y-87200812D01*
X136945000Y-87213072D01*
X137509250Y-87210000D01*
X137668000Y-87051250D01*
X137668000Y-85852000D01*
X136468750Y-85852000D01*
X136310000Y-86010750D01*
X136306928Y-86575000D01*
X135473072Y-86575000D01*
X135470000Y-86010750D01*
X135311250Y-85852000D01*
X134112000Y-85852000D01*
X133858000Y-85852000D01*
X132658750Y-85852000D01*
X132500000Y-86010750D01*
X132496928Y-86575000D01*
X132160000Y-86575000D01*
X132160000Y-84875000D01*
X132496928Y-84875000D01*
X132500000Y-85439250D01*
X132658750Y-85598000D01*
X133858000Y-85598000D01*
X133858000Y-84398750D01*
X134112000Y-84398750D01*
X134112000Y-85598000D01*
X135311250Y-85598000D01*
X135470000Y-85439250D01*
X135473072Y-84875000D01*
X136306928Y-84875000D01*
X136310000Y-85439250D01*
X136468750Y-85598000D01*
X137668000Y-85598000D01*
X137668000Y-84398750D01*
X137509250Y-84240000D01*
X136945000Y-84236928D01*
X136820518Y-84249188D01*
X136700820Y-84285498D01*
X136590506Y-84344463D01*
X136493815Y-84423815D01*
X136414463Y-84520506D01*
X136355498Y-84630820D01*
X136319188Y-84750518D01*
X136306928Y-84875000D01*
X135473072Y-84875000D01*
X135460812Y-84750518D01*
X135424502Y-84630820D01*
X135365537Y-84520506D01*
X135286185Y-84423815D01*
X135189494Y-84344463D01*
X135079180Y-84285498D01*
X134959482Y-84249188D01*
X134835000Y-84236928D01*
X134270750Y-84240000D01*
X134112000Y-84398750D01*
X133858000Y-84398750D01*
X133699250Y-84240000D01*
X133135000Y-84236928D01*
X133010518Y-84249188D01*
X132890820Y-84285498D01*
X132780506Y-84344463D01*
X132683815Y-84423815D01*
X132604463Y-84520506D01*
X132545498Y-84630820D01*
X132509188Y-84750518D01*
X132496928Y-84875000D01*
X132160000Y-84875000D01*
X132160000Y-79795000D01*
X132496928Y-79795000D01*
X132496928Y-81495000D01*
X132509188Y-81619482D01*
X132545498Y-81739180D01*
X132604463Y-81849494D01*
X132683815Y-81946185D01*
X132780506Y-82025537D01*
X132890820Y-82084502D01*
X133010518Y-82120812D01*
X133135000Y-82133072D01*
X134835000Y-82133072D01*
X134959482Y-82120812D01*
X135079180Y-82084502D01*
X135087603Y-82080000D01*
X137085492Y-82080000D01*
X137296309Y-82059236D01*
X137566808Y-81977182D01*
X137816101Y-81843932D01*
X137820600Y-81840240D01*
X137833387Y-81833405D01*
X137967962Y-81722962D01*
X137977160Y-81711755D01*
X138034608Y-81664608D01*
X138049378Y-81646611D01*
X138112038Y-81722962D01*
X138246613Y-81833405D01*
X138400149Y-81915472D01*
X138566745Y-81966008D01*
X138739999Y-81983072D01*
X139390001Y-81983072D01*
X139563255Y-81966008D01*
X139729851Y-81915472D01*
X139883387Y-81833405D01*
X140017962Y-81722962D01*
X140128405Y-81588387D01*
X140210472Y-81434851D01*
X140261008Y-81268255D01*
X140278072Y-81095001D01*
X140278072Y-81045000D01*
X140430750Y-81045000D01*
X140538750Y-81153000D01*
X141688000Y-81153000D01*
X141688000Y-81133000D01*
X141942000Y-81133000D01*
X141942000Y-81153000D01*
X143091250Y-81153000D01*
X143250000Y-80994250D01*
X143253072Y-80980000D01*
X143240812Y-80855518D01*
X143204502Y-80735820D01*
X143145537Y-80625506D01*
X143121270Y-80595936D01*
X143193084Y-80461582D01*
X143237929Y-80313745D01*
X143253072Y-80160000D01*
X143253072Y-79860000D01*
X143237929Y-79706255D01*
X143193084Y-79558418D01*
X143120258Y-79422171D01*
X143081546Y-79375000D01*
X143120258Y-79327829D01*
X143193084Y-79191582D01*
X143237929Y-79043745D01*
X143253072Y-78890000D01*
X143253072Y-78590000D01*
X143237929Y-78436255D01*
X143193084Y-78288418D01*
X143120258Y-78152171D01*
X143022251Y-78032749D01*
X142902829Y-77934742D01*
X142766582Y-77861916D01*
X142618745Y-77817071D01*
X142465000Y-77801928D01*
X142255591Y-77801928D01*
X142212993Y-77779159D01*
X142017895Y-77719976D01*
X141865838Y-77705000D01*
X140278072Y-77705000D01*
X140278072Y-77654999D01*
X140261008Y-77481745D01*
X140210472Y-77315149D01*
X140128405Y-77161613D01*
X140017962Y-77027038D01*
X139883387Y-76916595D01*
X139729851Y-76834528D01*
X139563255Y-76783992D01*
X139390001Y-76766928D01*
X138739999Y-76766928D01*
X138566745Y-76783992D01*
X138400149Y-76834528D01*
X138246613Y-76916595D01*
X138112038Y-77027038D01*
X138049378Y-77103389D01*
X138034608Y-77085392D01*
X137977160Y-77038245D01*
X137967962Y-77027038D01*
X137833387Y-76916595D01*
X137820600Y-76909760D01*
X137816101Y-76906068D01*
X137566808Y-76772818D01*
X137296309Y-76690764D01*
X137085492Y-76670000D01*
X134382625Y-76670000D01*
X134131260Y-76620000D01*
X133838740Y-76620000D01*
X133551842Y-76677068D01*
X133281589Y-76789010D01*
X133038368Y-76951525D01*
X132831525Y-77158368D01*
X132669010Y-77401589D01*
X132557068Y-77671842D01*
X132500000Y-77958740D01*
X132500000Y-78251260D01*
X132557068Y-78538158D01*
X132669010Y-78808411D01*
X132831525Y-79051632D01*
X132963380Y-79183487D01*
X132890820Y-79205498D01*
X132780506Y-79264463D01*
X132683815Y-79343815D01*
X132604463Y-79440506D01*
X132545498Y-79550820D01*
X132509188Y-79670518D01*
X132496928Y-79795000D01*
X132160000Y-79795000D01*
X132160000Y-76532277D01*
X132179102Y-76337460D01*
X132226308Y-76181106D01*
X132302982Y-76036904D01*
X132406207Y-75910337D01*
X132532051Y-75806231D01*
X132675711Y-75728553D01*
X132831729Y-75680258D01*
X133024473Y-75660000D01*
X149802691Y-75660000D01*
X149805978Y-75666150D01*
G36*
X169662540Y-75679102D02*
G01*
X169818894Y-75726308D01*
X169963096Y-75802982D01*
X170089663Y-75906207D01*
X170193738Y-76032012D01*
X170107000Y-76118750D01*
X170107000Y-77343000D01*
X170127000Y-77343000D01*
X170127000Y-77597000D01*
X170107000Y-77597000D01*
X170107000Y-78821250D01*
X170265750Y-78980000D01*
X170340001Y-78980535D01*
X170340001Y-79402712D01*
X170144750Y-79404000D01*
X169986000Y-79562750D01*
X169986000Y-80166000D01*
X170006000Y-80166000D01*
X170006000Y-80362000D01*
X169986000Y-80362000D01*
X169986000Y-80965250D01*
X170144750Y-81124000D01*
X170340001Y-81125288D01*
X170340001Y-88098531D01*
X170289853Y-87846426D01*
X170181680Y-87585273D01*
X170024637Y-87350241D01*
X169824759Y-87150363D01*
X169589727Y-86993320D01*
X169328574Y-86885147D01*
X169051335Y-86830000D01*
X168768665Y-86830000D01*
X168491426Y-86885147D01*
X168230273Y-86993320D01*
X167995241Y-87150363D01*
X167795363Y-87350241D01*
X167640000Y-87582759D01*
X167484637Y-87350241D01*
X167284759Y-87150363D01*
X167049727Y-86993320D01*
X166788574Y-86885147D01*
X166511335Y-86830000D01*
X166228665Y-86830000D01*
X165951426Y-86885147D01*
X165690273Y-86993320D01*
X165455241Y-87150363D01*
X165255363Y-87350241D01*
X165100000Y-87582759D01*
X165062328Y-87526378D01*
X165028932Y-87463899D01*
X164983990Y-87409137D01*
X164944637Y-87350241D01*
X164894550Y-87300154D01*
X164849608Y-87245392D01*
X164794846Y-87200450D01*
X164744759Y-87150363D01*
X164685863Y-87111010D01*
X164631101Y-87066068D01*
X164568622Y-87032672D01*
X164509727Y-86993320D01*
X164444288Y-86966214D01*
X164381808Y-86932818D01*
X164314014Y-86912253D01*
X164248574Y-86885147D01*
X164179097Y-86871327D01*
X164111309Y-86850764D01*
X164040817Y-86843821D01*
X163971335Y-86830000D01*
X163900492Y-86830000D01*
X163830000Y-86823057D01*
X163759508Y-86830000D01*
X163688665Y-86830000D01*
X163619182Y-86843821D01*
X163548692Y-86850764D01*
X163480906Y-86871326D01*
X163411426Y-86885147D01*
X163345983Y-86912254D01*
X163278193Y-86932818D01*
X163215716Y-86966213D01*
X163150273Y-86993320D01*
X163091374Y-87032675D01*
X163028900Y-87066068D01*
X162974142Y-87111007D01*
X162915241Y-87150363D01*
X162865149Y-87200455D01*
X162810393Y-87245392D01*
X162765456Y-87300148D01*
X162715363Y-87350241D01*
X162676006Y-87409143D01*
X162631069Y-87463899D01*
X162597676Y-87526373D01*
X162560000Y-87582759D01*
X162404637Y-87350241D01*
X162204759Y-87150363D01*
X161969727Y-86993320D01*
X161708574Y-86885147D01*
X161431335Y-86830000D01*
X161148665Y-86830000D01*
X160871426Y-86885147D01*
X160610273Y-86993320D01*
X160375241Y-87150363D01*
X160175363Y-87350241D01*
X160018320Y-87585273D01*
X159910147Y-87846426D01*
X159855000Y-88123665D01*
X159855000Y-88406335D01*
X159910147Y-88683574D01*
X159984053Y-88862000D01*
X156927575Y-88862000D01*
X156971825Y-88769099D01*
X157016476Y-88621890D01*
X156895155Y-88392000D01*
X155702000Y-88392000D01*
X155702000Y-88412000D01*
X155448000Y-88412000D01*
X155448000Y-88392000D01*
X155428000Y-88392000D01*
X155428000Y-88138000D01*
X155448000Y-88138000D01*
X155448000Y-88118000D01*
X155702000Y-88118000D01*
X155702000Y-88138000D01*
X156895155Y-88138000D01*
X157016476Y-87908110D01*
X156998850Y-87849999D01*
X158847250Y-87849999D01*
X158903001Y-87855490D01*
X158958752Y-87849999D01*
X158958753Y-87849999D01*
X159125500Y-87833576D01*
X159339448Y-87768675D01*
X159536624Y-87663283D01*
X159709450Y-87521448D01*
X159744996Y-87478135D01*
X160353989Y-86869143D01*
X160460284Y-86739622D01*
X160565676Y-86542447D01*
X160630577Y-86328499D01*
X160652491Y-86106000D01*
X160630577Y-85883501D01*
X160565676Y-85669553D01*
X160460284Y-85472377D01*
X160318449Y-85299551D01*
X160145623Y-85157716D01*
X159948447Y-85052324D01*
X159734499Y-84987423D01*
X159512000Y-84965509D01*
X159289501Y-84987423D01*
X159075553Y-85052324D01*
X158878378Y-85157716D01*
X158748857Y-85264011D01*
X158432869Y-85579999D01*
X157830496Y-85579999D01*
X158174374Y-85236121D01*
X158221502Y-85197444D01*
X158375833Y-85009391D01*
X158490511Y-84794843D01*
X158561130Y-84562044D01*
X158576695Y-84404000D01*
X159824928Y-84404000D01*
X159837188Y-84528482D01*
X159873498Y-84648180D01*
X159932463Y-84758494D01*
X160011815Y-84855185D01*
X160108506Y-84934537D01*
X160218820Y-84993502D01*
X160338518Y-85029812D01*
X160463000Y-85042072D01*
X160877250Y-85039000D01*
X161036000Y-84880250D01*
X161036000Y-83956000D01*
X161290000Y-83956000D01*
X161290000Y-84880250D01*
X161448750Y-85039000D01*
X161863000Y-85042072D01*
X161987482Y-85029812D01*
X162107180Y-84993502D01*
X162217494Y-84934537D01*
X162314185Y-84855185D01*
X162393537Y-84758494D01*
X162452502Y-84648180D01*
X162488812Y-84528482D01*
X162501072Y-84404000D01*
X162498000Y-84114750D01*
X162339250Y-83956000D01*
X161290000Y-83956000D01*
X161036000Y-83956000D01*
X159986750Y-83956000D01*
X159828000Y-84114750D01*
X159824928Y-84404000D01*
X158576695Y-84404000D01*
X158579000Y-84380607D01*
X158584975Y-84319942D01*
X158579000Y-84259277D01*
X158579000Y-82470215D01*
X158588400Y-82475240D01*
X158592899Y-82478932D01*
X158842192Y-82612182D01*
X159112691Y-82694236D01*
X159323508Y-82715000D01*
X160069605Y-82715000D01*
X160078040Y-82723435D01*
X160085038Y-82731962D01*
X160091594Y-82737342D01*
X160011815Y-82802815D01*
X159932463Y-82899506D01*
X159873498Y-83009820D01*
X159837188Y-83129518D01*
X159824928Y-83254000D01*
X159828000Y-83543250D01*
X159986750Y-83702000D01*
X161036000Y-83702000D01*
X161036000Y-83682000D01*
X161290000Y-83682000D01*
X161290000Y-83702000D01*
X162339250Y-83702000D01*
X162498000Y-83543250D01*
X162501072Y-83254000D01*
X162488812Y-83129518D01*
X162452502Y-83009820D01*
X162393537Y-82899506D01*
X162314185Y-82802815D01*
X162234406Y-82737342D01*
X162240962Y-82731962D01*
X162247960Y-82723435D01*
X162256395Y-82715000D01*
X163002492Y-82715000D01*
X163213309Y-82694236D01*
X163483808Y-82612182D01*
X163733101Y-82478932D01*
X163737600Y-82475240D01*
X163750387Y-82468405D01*
X163884962Y-82357962D01*
X163894160Y-82346755D01*
X163951608Y-82299608D01*
X163966378Y-82281611D01*
X164029038Y-82357962D01*
X164163613Y-82468405D01*
X164317149Y-82550472D01*
X164483745Y-82601008D01*
X164656999Y-82618072D01*
X165307001Y-82618072D01*
X165480255Y-82601008D01*
X165646851Y-82550472D01*
X165800387Y-82468405D01*
X165934962Y-82357962D01*
X166045405Y-82223387D01*
X166127472Y-82069851D01*
X166164132Y-81949000D01*
X167249838Y-81949000D01*
X167401895Y-81934024D01*
X167596993Y-81874841D01*
X167776797Y-81778734D01*
X167778822Y-81777072D01*
X167949000Y-81777072D01*
X168073482Y-81764812D01*
X168193180Y-81728502D01*
X168303494Y-81669537D01*
X168400185Y-81590185D01*
X168479537Y-81493494D01*
X168538502Y-81383180D01*
X168574812Y-81263482D01*
X168587072Y-81139000D01*
X168587072Y-80855221D01*
X168664574Y-80946844D01*
X168762434Y-81024750D01*
X168873613Y-81082067D01*
X168993838Y-81116593D01*
X169118488Y-81127001D01*
X169573250Y-81124000D01*
X169732000Y-80965250D01*
X169732000Y-80362000D01*
X168632750Y-80362000D01*
X168541162Y-80453588D01*
X168538502Y-80444820D01*
X168479537Y-80334506D01*
X168421674Y-80264000D01*
X168479537Y-80193494D01*
X168538502Y-80083180D01*
X168541162Y-80074412D01*
X168632750Y-80166000D01*
X169732000Y-80166000D01*
X169732000Y-79562750D01*
X169573250Y-79404000D01*
X169118488Y-79400999D01*
X168993838Y-79411407D01*
X168873613Y-79445933D01*
X168762434Y-79503250D01*
X168664574Y-79581156D01*
X168587072Y-79672779D01*
X168587072Y-79389000D01*
X168574812Y-79264518D01*
X168538502Y-79144820D01*
X168479537Y-79034506D01*
X168400185Y-78937815D01*
X168334000Y-78883499D01*
X168334000Y-78345000D01*
X168629428Y-78345000D01*
X168641688Y-78469482D01*
X168677998Y-78589180D01*
X168736963Y-78699494D01*
X168816315Y-78796185D01*
X168913006Y-78875537D01*
X169023320Y-78934502D01*
X169143018Y-78970812D01*
X169267500Y-78983072D01*
X169694250Y-78980000D01*
X169853000Y-78821250D01*
X169853000Y-77597000D01*
X168791250Y-77597000D01*
X168632500Y-77755750D01*
X168629428Y-78345000D01*
X168334000Y-78345000D01*
X168334000Y-78283115D01*
X168338508Y-78268254D01*
X168355572Y-78095000D01*
X168355572Y-76845000D01*
X168338508Y-76671746D01*
X168315228Y-76595000D01*
X168629428Y-76595000D01*
X168632500Y-77184250D01*
X168791250Y-77343000D01*
X169853000Y-77343000D01*
X169853000Y-76118750D01*
X169694250Y-75960000D01*
X169267500Y-75956928D01*
X169143018Y-75969188D01*
X169023320Y-76005498D01*
X168913006Y-76064463D01*
X168816315Y-76143815D01*
X168736963Y-76240506D01*
X168677998Y-76350820D01*
X168641688Y-76470518D01*
X168629428Y-76595000D01*
X168315228Y-76595000D01*
X168287972Y-76505150D01*
X168205905Y-76351614D01*
X168095462Y-76217038D01*
X167960886Y-76106595D01*
X167807350Y-76024528D01*
X167640754Y-75973992D01*
X167467500Y-75956928D01*
X167224060Y-75956928D01*
X166927131Y-75660000D01*
X169467723Y-75660000D01*
X169662540Y-75679102D01*
G37*
X169662540Y-75679102D02*
X169818894Y-75726308D01*
X169963096Y-75802982D01*
X170089663Y-75906207D01*
X170193738Y-76032012D01*
X170107000Y-76118750D01*
X170107000Y-77343000D01*
X170127000Y-77343000D01*
X170127000Y-77597000D01*
X170107000Y-77597000D01*
X170107000Y-78821250D01*
X170265750Y-78980000D01*
X170340001Y-78980535D01*
X170340001Y-79402712D01*
X170144750Y-79404000D01*
X169986000Y-79562750D01*
X169986000Y-80166000D01*
X170006000Y-80166000D01*
X170006000Y-80362000D01*
X169986000Y-80362000D01*
X169986000Y-80965250D01*
X170144750Y-81124000D01*
X170340001Y-81125288D01*
X170340001Y-88098531D01*
X170289853Y-87846426D01*
X170181680Y-87585273D01*
X170024637Y-87350241D01*
X169824759Y-87150363D01*
X169589727Y-86993320D01*
X169328574Y-86885147D01*
X169051335Y-86830000D01*
X168768665Y-86830000D01*
X168491426Y-86885147D01*
X168230273Y-86993320D01*
X167995241Y-87150363D01*
X167795363Y-87350241D01*
X167640000Y-87582759D01*
X167484637Y-87350241D01*
X167284759Y-87150363D01*
X167049727Y-86993320D01*
X166788574Y-86885147D01*
X166511335Y-86830000D01*
X166228665Y-86830000D01*
X165951426Y-86885147D01*
X165690273Y-86993320D01*
X165455241Y-87150363D01*
X165255363Y-87350241D01*
X165100000Y-87582759D01*
X165062328Y-87526378D01*
X165028932Y-87463899D01*
X164983990Y-87409137D01*
X164944637Y-87350241D01*
X164894550Y-87300154D01*
X164849608Y-87245392D01*
X164794846Y-87200450D01*
X164744759Y-87150363D01*
X164685863Y-87111010D01*
X164631101Y-87066068D01*
X164568622Y-87032672D01*
X164509727Y-86993320D01*
X164444288Y-86966214D01*
X164381808Y-86932818D01*
X164314014Y-86912253D01*
X164248574Y-86885147D01*
X164179097Y-86871327D01*
X164111309Y-86850764D01*
X164040817Y-86843821D01*
X163971335Y-86830000D01*
X163900492Y-86830000D01*
X163830000Y-86823057D01*
X163759508Y-86830000D01*
X163688665Y-86830000D01*
X163619182Y-86843821D01*
X163548692Y-86850764D01*
X163480906Y-86871326D01*
X163411426Y-86885147D01*
X163345983Y-86912254D01*
X163278193Y-86932818D01*
X163215716Y-86966213D01*
X163150273Y-86993320D01*
X163091374Y-87032675D01*
X163028900Y-87066068D01*
X162974142Y-87111007D01*
X162915241Y-87150363D01*
X162865149Y-87200455D01*
X162810393Y-87245392D01*
X162765456Y-87300148D01*
X162715363Y-87350241D01*
X162676006Y-87409143D01*
X162631069Y-87463899D01*
X162597676Y-87526373D01*
X162560000Y-87582759D01*
X162404637Y-87350241D01*
X162204759Y-87150363D01*
X161969727Y-86993320D01*
X161708574Y-86885147D01*
X161431335Y-86830000D01*
X161148665Y-86830000D01*
X160871426Y-86885147D01*
X160610273Y-86993320D01*
X160375241Y-87150363D01*
X160175363Y-87350241D01*
X160018320Y-87585273D01*
X159910147Y-87846426D01*
X159855000Y-88123665D01*
X159855000Y-88406335D01*
X159910147Y-88683574D01*
X159984053Y-88862000D01*
X156927575Y-88862000D01*
X156971825Y-88769099D01*
X157016476Y-88621890D01*
X156895155Y-88392000D01*
X155702000Y-88392000D01*
X155702000Y-88412000D01*
X155448000Y-88412000D01*
X155448000Y-88392000D01*
X155428000Y-88392000D01*
X155428000Y-88138000D01*
X155448000Y-88138000D01*
X155448000Y-88118000D01*
X155702000Y-88118000D01*
X155702000Y-88138000D01*
X156895155Y-88138000D01*
X157016476Y-87908110D01*
X156998850Y-87849999D01*
X158847250Y-87849999D01*
X158903001Y-87855490D01*
X158958752Y-87849999D01*
X158958753Y-87849999D01*
X159125500Y-87833576D01*
X159339448Y-87768675D01*
X159536624Y-87663283D01*
X159709450Y-87521448D01*
X159744996Y-87478135D01*
X160353989Y-86869143D01*
X160460284Y-86739622D01*
X160565676Y-86542447D01*
X160630577Y-86328499D01*
X160652491Y-86106000D01*
X160630577Y-85883501D01*
X160565676Y-85669553D01*
X160460284Y-85472377D01*
X160318449Y-85299551D01*
X160145623Y-85157716D01*
X159948447Y-85052324D01*
X159734499Y-84987423D01*
X159512000Y-84965509D01*
X159289501Y-84987423D01*
X159075553Y-85052324D01*
X158878378Y-85157716D01*
X158748857Y-85264011D01*
X158432869Y-85579999D01*
X157830496Y-85579999D01*
X158174374Y-85236121D01*
X158221502Y-85197444D01*
X158375833Y-85009391D01*
X158490511Y-84794843D01*
X158561130Y-84562044D01*
X158576695Y-84404000D01*
X159824928Y-84404000D01*
X159837188Y-84528482D01*
X159873498Y-84648180D01*
X159932463Y-84758494D01*
X160011815Y-84855185D01*
X160108506Y-84934537D01*
X160218820Y-84993502D01*
X160338518Y-85029812D01*
X160463000Y-85042072D01*
X160877250Y-85039000D01*
X161036000Y-84880250D01*
X161036000Y-83956000D01*
X161290000Y-83956000D01*
X161290000Y-84880250D01*
X161448750Y-85039000D01*
X161863000Y-85042072D01*
X161987482Y-85029812D01*
X162107180Y-84993502D01*
X162217494Y-84934537D01*
X162314185Y-84855185D01*
X162393537Y-84758494D01*
X162452502Y-84648180D01*
X162488812Y-84528482D01*
X162501072Y-84404000D01*
X162498000Y-84114750D01*
X162339250Y-83956000D01*
X161290000Y-83956000D01*
X161036000Y-83956000D01*
X159986750Y-83956000D01*
X159828000Y-84114750D01*
X159824928Y-84404000D01*
X158576695Y-84404000D01*
X158579000Y-84380607D01*
X158584975Y-84319942D01*
X158579000Y-84259277D01*
X158579000Y-82470215D01*
X158588400Y-82475240D01*
X158592899Y-82478932D01*
X158842192Y-82612182D01*
X159112691Y-82694236D01*
X159323508Y-82715000D01*
X160069605Y-82715000D01*
X160078040Y-82723435D01*
X160085038Y-82731962D01*
X160091594Y-82737342D01*
X160011815Y-82802815D01*
X159932463Y-82899506D01*
X159873498Y-83009820D01*
X159837188Y-83129518D01*
X159824928Y-83254000D01*
X159828000Y-83543250D01*
X159986750Y-83702000D01*
X161036000Y-83702000D01*
X161036000Y-83682000D01*
X161290000Y-83682000D01*
X161290000Y-83702000D01*
X162339250Y-83702000D01*
X162498000Y-83543250D01*
X162501072Y-83254000D01*
X162488812Y-83129518D01*
X162452502Y-83009820D01*
X162393537Y-82899506D01*
X162314185Y-82802815D01*
X162234406Y-82737342D01*
X162240962Y-82731962D01*
X162247960Y-82723435D01*
X162256395Y-82715000D01*
X163002492Y-82715000D01*
X163213309Y-82694236D01*
X163483808Y-82612182D01*
X163733101Y-82478932D01*
X163737600Y-82475240D01*
X163750387Y-82468405D01*
X163884962Y-82357962D01*
X163894160Y-82346755D01*
X163951608Y-82299608D01*
X163966378Y-82281611D01*
X164029038Y-82357962D01*
X164163613Y-82468405D01*
X164317149Y-82550472D01*
X164483745Y-82601008D01*
X164656999Y-82618072D01*
X165307001Y-82618072D01*
X165480255Y-82601008D01*
X165646851Y-82550472D01*
X165800387Y-82468405D01*
X165934962Y-82357962D01*
X166045405Y-82223387D01*
X166127472Y-82069851D01*
X166164132Y-81949000D01*
X167249838Y-81949000D01*
X167401895Y-81934024D01*
X167596993Y-81874841D01*
X167776797Y-81778734D01*
X167778822Y-81777072D01*
X167949000Y-81777072D01*
X168073482Y-81764812D01*
X168193180Y-81728502D01*
X168303494Y-81669537D01*
X168400185Y-81590185D01*
X168479537Y-81493494D01*
X168538502Y-81383180D01*
X168574812Y-81263482D01*
X168587072Y-81139000D01*
X168587072Y-80855221D01*
X168664574Y-80946844D01*
X168762434Y-81024750D01*
X168873613Y-81082067D01*
X168993838Y-81116593D01*
X169118488Y-81127001D01*
X169573250Y-81124000D01*
X169732000Y-80965250D01*
X169732000Y-80362000D01*
X168632750Y-80362000D01*
X168541162Y-80453588D01*
X168538502Y-80444820D01*
X168479537Y-80334506D01*
X168421674Y-80264000D01*
X168479537Y-80193494D01*
X168538502Y-80083180D01*
X168541162Y-80074412D01*
X168632750Y-80166000D01*
X169732000Y-80166000D01*
X169732000Y-79562750D01*
X169573250Y-79404000D01*
X169118488Y-79400999D01*
X168993838Y-79411407D01*
X168873613Y-79445933D01*
X168762434Y-79503250D01*
X168664574Y-79581156D01*
X168587072Y-79672779D01*
X168587072Y-79389000D01*
X168574812Y-79264518D01*
X168538502Y-79144820D01*
X168479537Y-79034506D01*
X168400185Y-78937815D01*
X168334000Y-78883499D01*
X168334000Y-78345000D01*
X168629428Y-78345000D01*
X168641688Y-78469482D01*
X168677998Y-78589180D01*
X168736963Y-78699494D01*
X168816315Y-78796185D01*
X168913006Y-78875537D01*
X169023320Y-78934502D01*
X169143018Y-78970812D01*
X169267500Y-78983072D01*
X169694250Y-78980000D01*
X169853000Y-78821250D01*
X169853000Y-77597000D01*
X168791250Y-77597000D01*
X168632500Y-77755750D01*
X168629428Y-78345000D01*
X168334000Y-78345000D01*
X168334000Y-78283115D01*
X168338508Y-78268254D01*
X168355572Y-78095000D01*
X168355572Y-76845000D01*
X168338508Y-76671746D01*
X168315228Y-76595000D01*
X168629428Y-76595000D01*
X168632500Y-77184250D01*
X168791250Y-77343000D01*
X169853000Y-77343000D01*
X169853000Y-76118750D01*
X169694250Y-75960000D01*
X169267500Y-75956928D01*
X169143018Y-75969188D01*
X169023320Y-76005498D01*
X168913006Y-76064463D01*
X168816315Y-76143815D01*
X168736963Y-76240506D01*
X168677998Y-76350820D01*
X168641688Y-76470518D01*
X168629428Y-76595000D01*
X168315228Y-76595000D01*
X168287972Y-76505150D01*
X168205905Y-76351614D01*
X168095462Y-76217038D01*
X167960886Y-76106595D01*
X167807350Y-76024528D01*
X167640754Y-75973992D01*
X167467500Y-75956928D01*
X167224060Y-75956928D01*
X166927131Y-75660000D01*
X169467723Y-75660000D01*
X169662540Y-75679102D01*
G36*
X155702000Y-83702000D02*
G01*
X155722000Y-83702000D01*
X155722000Y-83956000D01*
X155702000Y-83956000D01*
X155702000Y-83976000D01*
X155448000Y-83976000D01*
X155448000Y-83956000D01*
X155428000Y-83956000D01*
X155428000Y-83702000D01*
X155448000Y-83702000D01*
X155448000Y-83682000D01*
X155702000Y-83682000D01*
X155702000Y-83702000D01*
G37*
X155702000Y-83702000D02*
X155722000Y-83702000D01*
X155722000Y-83956000D01*
X155702000Y-83956000D01*
X155702000Y-83976000D01*
X155448000Y-83976000D01*
X155448000Y-83956000D01*
X155428000Y-83956000D01*
X155428000Y-83702000D01*
X155448000Y-83702000D01*
X155448000Y-83682000D01*
X155702000Y-83682000D01*
X155702000Y-83702000D01*
M02*
