M48
; DRILL file {KiCad (5.1.2)-2} date 2019/12/16   11:57:06
; FORMAT={-:-/ absolute / inch / decimal}
; #@! TF.CreationDate,2019-12-16T11:57:06+11:00
; #@! TF.GenerationSoftware,Kicad,Pcbnew,(5.1.2)-2
FMAT,2
INCH
T1C0.0157
T2C0.0315
T3C0.0394
%
G90
G05
T1
X5.1772Y-1.752
X5.1772Y-2.0079
X5.2756Y-1.752
X5.2756Y-2.0079
X5.374Y-1.752
X5.374Y-2.0079
X5.4724Y-1.752
X5.4724Y-2.0079
X6.622Y-2.748
T2
X5.9913Y-2.5535
X5.9913Y-2.6535
X5.9913Y-2.7535
X5.9913Y-2.8535
X6.2913Y-2.5535
X6.2913Y-2.6535
X6.2913Y-2.7535
X6.2913Y-2.8535
T3
X6.4094Y-1.685
X6.4094Y-1.785
X5.1102Y-1.685
X5.5516Y-3.061
X5.6516Y-3.061
X6.7583Y-2.4803
X6.8583Y-2.4803
X6.2898Y-3.063
X6.3898Y-3.063
X6.7583Y-2.1969
X6.8583Y-2.1969
X5.1102Y-1.8287
X5.1102Y-1.9287
X6.9764Y-3.063
X7.0764Y-3.063
X7.0Y-2.1969
X6.7583Y-2.0551
X6.8583Y-2.0551
T0
M30
