M48
; DRILL file {KiCad (5.1.2)-2} date 2019/12/3   15:26:30
; FORMAT={-:-/ absolute / inch / decimal}
; #@! TF.CreationDate,2019-12-03T15:26:30+11:00
; #@! TF.GenerationSoftware,Kicad,Pcbnew,(5.1.2)-2
FMAT,2
INCH
T1C0.0551
%
G90
G05
T1
X5.5Y-4.9016
X5.35Y-4.6
X5.55Y-4.6
X4.95Y-4.4016
X5.25Y-4.2
X5.45Y-4.2
X5.2516Y-4.4
X5.55Y-4.4
X5.7Y-4.8
X5.7Y-5.0
X7.05Y-4.9516
X5.0Y-4.9016
X5.0Y-5.1016
X5.8516Y-4.6
X6.15Y-4.6
X5.3Y-4.9016
X6.45Y-5.0
X6.65Y-5.0
X6.4516Y-5.2
X6.75Y-5.2
X5.9Y-4.9016
X5.9Y-5.0
X5.9Y-5.1
X5.9Y-5.2
X6.15Y-4.9
X6.15Y-5.0
X6.15Y-5.1
X6.15Y-5.2
X5.9516Y-4.2976
X6.1516Y-4.2976
X7.05Y-5.2
X7.25Y-5.2
X6.45Y-4.5984
X6.45Y-4.7984
T0
M30
