G04 #@! TF.GenerationSoftware,KiCad,Pcbnew,(5.1.2)-2*
G04 #@! TF.CreationDate,2019-12-16T11:57:03+11:00*
G04 #@! TF.ProjectId,Heterodyne,48657465-726f-4647-996e-652e6b696361,rev?*
G04 #@! TF.SameCoordinates,Original*
G04 #@! TF.FileFunction,Copper,L1,Top*
G04 #@! TF.FilePolarity,Positive*
%FSLAX46Y46*%
G04 Gerber Fmt 4.6, Leading zero omitted, Abs format (unit mm)*
G04 Created by KiCad (PCBNEW (5.1.2)-2) date 2019-12-16 11:57:03*
%MOMM*%
%LPD*%
G04 APERTURE LIST*
%ADD10R,1.500000X1.250000*%
%ADD11R,1.700000X1.700000*%
%ADD12O,1.700000X1.700000*%
%ADD13R,0.970000X1.270000*%
%ADD14R,1.500000X1.300000*%
%ADD15R,1.300000X1.500000*%
%ADD16R,1.750000X0.550000*%
%ADD17R,1.250000X1.500000*%
%ADD18R,2.000000X1.600000*%
%ADD19O,2.400000X1.600000*%
%ADD20R,2.400000X1.600000*%
%ADD21R,1.500000X0.450000*%
%ADD22R,2.500000X4.000000*%
%ADD23C,0.800000*%
%ADD24C,1.000000*%
%ADD25C,1.600000*%
%ADD26C,1.200000*%
%ADD27C,0.254000*%
G04 APERTURE END LIST*
D10*
X134300000Y-46746000D03*
X136800000Y-46746000D03*
X134300000Y-48746000D03*
X136800000Y-48746000D03*
X139800000Y-67500000D03*
X137300000Y-67500000D03*
D11*
X177200000Y-77800000D03*
D12*
X179740000Y-77800000D03*
X171660000Y-63000000D03*
D11*
X174200000Y-63000000D03*
D12*
X162800000Y-45340000D03*
D11*
X162800000Y-42800000D03*
X143550000Y-77750000D03*
D12*
X141010000Y-77750000D03*
X174200000Y-52200000D03*
D11*
X171660000Y-52200000D03*
D13*
X142340000Y-56500000D03*
X141070000Y-56500000D03*
X139800000Y-56500000D03*
X142320000Y-73000000D03*
X141050000Y-73000000D03*
X139780000Y-73000000D03*
D12*
X174200000Y-55800000D03*
D11*
X171660000Y-55800000D03*
D14*
X166200000Y-49400000D03*
X168900000Y-49400000D03*
D15*
X139800000Y-60000000D03*
X139800000Y-62700000D03*
D16*
X148500000Y-47095000D03*
X148500000Y-48365000D03*
X148500000Y-49635000D03*
X148500000Y-50905000D03*
X141100000Y-50905000D03*
X141100000Y-49635000D03*
X141100000Y-48365000D03*
X141100000Y-47095000D03*
D10*
X163300000Y-64900000D03*
X165800000Y-64900000D03*
D17*
X175300000Y-69900000D03*
X175300000Y-67400000D03*
D10*
X163400000Y-72400000D03*
X165900000Y-72400000D03*
X151800000Y-59400000D03*
X149300000Y-59400000D03*
X147100000Y-64600000D03*
X144600000Y-64600000D03*
X151300000Y-49500000D03*
X153800000Y-49500000D03*
D17*
X156200000Y-52100000D03*
X156200000Y-49600000D03*
X163800000Y-52050000D03*
X163800000Y-49550000D03*
D18*
X171600000Y-45000000D03*
X175600000Y-45000000D03*
D11*
X162300000Y-77800000D03*
D12*
X159760000Y-77800000D03*
D14*
X165800000Y-67400000D03*
X163100000Y-67400000D03*
X168950000Y-67400000D03*
X171650000Y-67400000D03*
X171700000Y-72400000D03*
X169000000Y-72400000D03*
X163300000Y-69900000D03*
X166000000Y-69900000D03*
D15*
X149300000Y-56900000D03*
X149300000Y-54200000D03*
X149300000Y-61700000D03*
X149300000Y-64400000D03*
X142300000Y-64700000D03*
X142300000Y-67400000D03*
X146800000Y-69900000D03*
X146800000Y-67200000D03*
D14*
X158600000Y-49500000D03*
X161300000Y-49500000D03*
D19*
X152180000Y-72480000D03*
X159800000Y-64860000D03*
X152180000Y-69940000D03*
X159800000Y-67400000D03*
X152180000Y-67400000D03*
X159800000Y-69940000D03*
X152180000Y-64860000D03*
D20*
X159800000Y-72480000D03*
D21*
X174330000Y-48600000D03*
X171670000Y-49250000D03*
X171670000Y-47950000D03*
D22*
X155200000Y-45450000D03*
X155200000Y-39350000D03*
D11*
X129800000Y-42800000D03*
X177800000Y-55800000D03*
D12*
X129800000Y-46450000D03*
D11*
X129800000Y-48990000D03*
D18*
X155800000Y-61000000D03*
X159800000Y-61000000D03*
D23*
X139000000Y-51000000D03*
X136500000Y-51000000D03*
X134000000Y-51000000D03*
X131500000Y-51000000D03*
X131500000Y-44500000D03*
X134000000Y-44500000D03*
X136500000Y-44500000D03*
X139000000Y-44500000D03*
X168200000Y-69800000D03*
D24*
X136800000Y-46746000D02*
X138746000Y-46746000D01*
X139095000Y-47095000D02*
X141100000Y-47095000D01*
X138746000Y-46746000D02*
X139095000Y-47095000D01*
D25*
X130096000Y-46746000D02*
X129800000Y-46450000D01*
X134300000Y-46746000D02*
X130096000Y-46746000D01*
D24*
X136800000Y-48746000D02*
X138754000Y-48746000D01*
X139135000Y-48365000D02*
X141100000Y-48365000D01*
X138754000Y-48746000D02*
X139135000Y-48365000D01*
D25*
X165800000Y-64900000D02*
X165800000Y-67400000D01*
X165800000Y-69700000D02*
X166000000Y-69900000D01*
X165800000Y-67400000D02*
X165800000Y-69700000D01*
X163320000Y-72480000D02*
X163400000Y-72400000D01*
X159800000Y-72480000D02*
X163320000Y-72480000D01*
D24*
X165900000Y-69900000D02*
X163400000Y-72400000D01*
X166000000Y-69900000D02*
X165900000Y-69900000D01*
D25*
X159800000Y-77760000D02*
X159760000Y-77800000D01*
X159800000Y-72480000D02*
X159800000Y-77760000D01*
X163260000Y-69940000D02*
X163300000Y-69900000D01*
X159800000Y-69940000D02*
X163260000Y-69940000D01*
D24*
X175200000Y-70000000D02*
X175300000Y-69900000D01*
X174371336Y-70000000D02*
X175200000Y-70000000D01*
X173671316Y-70700020D02*
X174371336Y-70000000D01*
X170739978Y-70700020D02*
X173671316Y-70700020D01*
X169000000Y-72400000D02*
X169039998Y-72400000D01*
X169039998Y-72400000D02*
X170739978Y-70700020D01*
X167600000Y-70400000D02*
X168200000Y-69800000D01*
X167600000Y-72400000D02*
X167600000Y-70400000D01*
D25*
X167600000Y-72400000D02*
X165900000Y-72400000D01*
X169000000Y-72400000D02*
X167600000Y-72400000D01*
X152140000Y-69900000D02*
X152180000Y-69940000D01*
X146800000Y-69900000D02*
X152140000Y-69900000D01*
D24*
X142320000Y-71680000D02*
X142320000Y-73000000D01*
X146800000Y-69900000D02*
X144100000Y-69900000D01*
X144100000Y-69900000D02*
X142320000Y-71680000D01*
D25*
X152585598Y-69940000D02*
X152645598Y-70000000D01*
X152180000Y-69940000D02*
X152585598Y-69940000D01*
X152645598Y-70000000D02*
X153800000Y-70000000D01*
X153800000Y-70000000D02*
X155200000Y-68600000D01*
X151800000Y-60600002D02*
X151800000Y-59400000D01*
X155200000Y-64000002D02*
X151800000Y-60600002D01*
X155200000Y-68600000D02*
X155200000Y-64000002D01*
X162690000Y-45450000D02*
X162800000Y-45340000D01*
X155200000Y-45450000D02*
X162690000Y-45450000D01*
X171260000Y-45340000D02*
X171600000Y-45000000D01*
X162800000Y-45340000D02*
X171260000Y-45340000D01*
D24*
X148500000Y-47095000D02*
X148500000Y-47000000D01*
X148500000Y-47000000D02*
X150050000Y-45450000D01*
D25*
X155200000Y-45450000D02*
X150050000Y-45450000D01*
D24*
X171600000Y-47880000D02*
X171670000Y-47950000D01*
X171600000Y-45000000D02*
X171600000Y-47880000D01*
D25*
X159800000Y-61000000D02*
X159800000Y-64860000D01*
X130044000Y-48746000D02*
X129800000Y-48990000D01*
X134300000Y-48746000D02*
X130044000Y-48746000D01*
X159800000Y-67400000D02*
X163100000Y-67400000D01*
X163300000Y-67200000D02*
X163100000Y-67400000D01*
X163300000Y-64900000D02*
X163300000Y-67200000D01*
X168950000Y-67900002D02*
X168950000Y-67400000D01*
X170250008Y-69200010D02*
X168950000Y-67900002D01*
X173049992Y-69200010D02*
X170250008Y-69200010D01*
X174850002Y-67400000D02*
X173049992Y-69200010D01*
X175300000Y-67400000D02*
X174850002Y-67400000D01*
X163300000Y-64224998D02*
X163300000Y-64900000D01*
X164425008Y-63099990D02*
X163300000Y-64224998D01*
X167174992Y-63099990D02*
X164425008Y-63099990D01*
X168950000Y-64874998D02*
X167174992Y-63099990D01*
X168950000Y-67400000D02*
X168950000Y-64874998D01*
X149100000Y-64600000D02*
X149300000Y-64400000D01*
X147100000Y-64600000D02*
X149100000Y-64600000D01*
X149760000Y-64860000D02*
X149300000Y-64400000D01*
X152180000Y-64860000D02*
X149760000Y-64860000D01*
X144500000Y-64700000D02*
X144600000Y-64600000D01*
X142300000Y-64700000D02*
X144500000Y-64700000D01*
X142300000Y-64700000D02*
X142300000Y-58380000D01*
D24*
X142340000Y-56500000D02*
X142340000Y-58340000D01*
D25*
X139800000Y-62700000D02*
X139800000Y-67500000D01*
D24*
X139800000Y-72980000D02*
X139780000Y-73000000D01*
X139800000Y-67500000D02*
X139800000Y-72980000D01*
D25*
X171800000Y-72400000D02*
X177200000Y-77800000D01*
X171700000Y-72400000D02*
X171800000Y-72400000D01*
D24*
X141050000Y-77710000D02*
X141010000Y-77750000D01*
X141050000Y-73000000D02*
X141050000Y-77710000D01*
D26*
X171660000Y-52200000D02*
X171660000Y-50150000D01*
D24*
X171670000Y-50140000D02*
X171660000Y-50150000D01*
X171670000Y-49250000D02*
X171670000Y-50140000D01*
X169050000Y-49250000D02*
X168900000Y-49400000D01*
X171670000Y-49250000D02*
X169050000Y-49250000D01*
D25*
X171660000Y-52200000D02*
X171660000Y-55800000D01*
D24*
X141100000Y-56470000D02*
X141070000Y-56500000D01*
X141100000Y-50905000D02*
X141100000Y-56470000D01*
X139800000Y-56500000D02*
X139800000Y-60000000D01*
D25*
X149300000Y-56900000D02*
X149300000Y-59400000D01*
X149300000Y-59400000D02*
X149300000Y-61700000D01*
D24*
X151165000Y-49635000D02*
X151300000Y-49500000D01*
X148500000Y-49635000D02*
X151165000Y-49635000D01*
D25*
X158600000Y-49500000D02*
X155500000Y-49500000D01*
X155500000Y-49500000D02*
X153800000Y-49500000D01*
X163950000Y-49400000D02*
X163800000Y-49550000D01*
X166200000Y-49400000D02*
X163950000Y-49400000D01*
X163750000Y-49500000D02*
X163800000Y-49550000D01*
X161300000Y-49500000D02*
X163750000Y-49500000D01*
X171650000Y-63010000D02*
X171660000Y-63000000D01*
X171650000Y-67400000D02*
X171650000Y-63010000D01*
D24*
X148500000Y-53400000D02*
X149300000Y-54200000D01*
X148500000Y-50905000D02*
X148500000Y-53400000D01*
D25*
X147000000Y-67400000D02*
X146800000Y-67200000D01*
X152180000Y-67400000D02*
X147000000Y-67400000D01*
X142500000Y-67200000D02*
X142300000Y-67400000D01*
X146800000Y-67200000D02*
X142500000Y-67200000D01*
D27*
G36*
X182259659Y-36688625D02*
G01*
X182509429Y-36764035D01*
X182739792Y-36886522D01*
X182941980Y-37051422D01*
X183108286Y-37252450D01*
X183232378Y-37481954D01*
X183309531Y-37731195D01*
X183340000Y-38021089D01*
X183340000Y-57611154D01*
X183256299Y-57585764D01*
X183045482Y-57565000D01*
X165594396Y-57565000D01*
X161435000Y-53405605D01*
X161435000Y-52800000D01*
X162536928Y-52800000D01*
X162549188Y-52924482D01*
X162585498Y-53044180D01*
X162644463Y-53154494D01*
X162723815Y-53251185D01*
X162820506Y-53330537D01*
X162930820Y-53389502D01*
X163050518Y-53425812D01*
X163175000Y-53438072D01*
X163514250Y-53435000D01*
X163673000Y-53276250D01*
X163673000Y-52177000D01*
X163927000Y-52177000D01*
X163927000Y-53276250D01*
X164085750Y-53435000D01*
X164425000Y-53438072D01*
X164549482Y-53425812D01*
X164669180Y-53389502D01*
X164779494Y-53330537D01*
X164876185Y-53251185D01*
X164955537Y-53154494D01*
X165014502Y-53044180D01*
X165050812Y-52924482D01*
X165063072Y-52800000D01*
X165060000Y-52335750D01*
X164901250Y-52177000D01*
X163927000Y-52177000D01*
X163673000Y-52177000D01*
X162698750Y-52177000D01*
X162540000Y-52335750D01*
X162536928Y-52800000D01*
X161435000Y-52800000D01*
X161435000Y-50935000D01*
X162653085Y-50935000D01*
X162644463Y-50945506D01*
X162585498Y-51055820D01*
X162549188Y-51175518D01*
X162536928Y-51300000D01*
X162540000Y-51764250D01*
X162698750Y-51923000D01*
X163673000Y-51923000D01*
X163673000Y-51903000D01*
X163927000Y-51903000D01*
X163927000Y-51923000D01*
X164901250Y-51923000D01*
X165060000Y-51764250D01*
X165063072Y-51300000D01*
X165050812Y-51175518D01*
X165014502Y-51055820D01*
X164955537Y-50945506D01*
X164876185Y-50848815D01*
X164859351Y-50835000D01*
X166270492Y-50835000D01*
X166481309Y-50814236D01*
X166751808Y-50732182D01*
X166834332Y-50688072D01*
X166950000Y-50688072D01*
X167074482Y-50675812D01*
X167194180Y-50639502D01*
X167304494Y-50580537D01*
X167401185Y-50501185D01*
X167480537Y-50404494D01*
X167539502Y-50294180D01*
X167550000Y-50259573D01*
X167560498Y-50294180D01*
X167619463Y-50404494D01*
X167698815Y-50501185D01*
X167795506Y-50580537D01*
X167905820Y-50639502D01*
X168025518Y-50675812D01*
X168150000Y-50688072D01*
X169650000Y-50688072D01*
X169774482Y-50675812D01*
X169894180Y-50639502D01*
X170004494Y-50580537D01*
X170101185Y-50501185D01*
X170180537Y-50404494D01*
X170190957Y-50385000D01*
X170425001Y-50385000D01*
X170425001Y-50844498D01*
X170358815Y-50898815D01*
X170279463Y-50995506D01*
X170220498Y-51105820D01*
X170184188Y-51225518D01*
X170171928Y-51350000D01*
X170171928Y-53050000D01*
X170184188Y-53174482D01*
X170220498Y-53294180D01*
X170225000Y-53302603D01*
X170225001Y-54697396D01*
X170220498Y-54705820D01*
X170184188Y-54825518D01*
X170171928Y-54950000D01*
X170171928Y-56650000D01*
X170184188Y-56774482D01*
X170220498Y-56894180D01*
X170279463Y-57004494D01*
X170358815Y-57101185D01*
X170455506Y-57180537D01*
X170565820Y-57239502D01*
X170685518Y-57275812D01*
X170810000Y-57288072D01*
X172510000Y-57288072D01*
X172634482Y-57275812D01*
X172754180Y-57239502D01*
X172864494Y-57180537D01*
X172961185Y-57101185D01*
X173040537Y-57004494D01*
X173099502Y-56894180D01*
X173123966Y-56813534D01*
X173199731Y-56897588D01*
X173433080Y-57071641D01*
X173695901Y-57196825D01*
X173843110Y-57241476D01*
X174073000Y-57120155D01*
X174073000Y-55927000D01*
X174327000Y-55927000D01*
X174327000Y-57120155D01*
X174556890Y-57241476D01*
X174704099Y-57196825D01*
X174966920Y-57071641D01*
X175200269Y-56897588D01*
X175395178Y-56681355D01*
X175413855Y-56650000D01*
X176311928Y-56650000D01*
X176324188Y-56774482D01*
X176360498Y-56894180D01*
X176419463Y-57004494D01*
X176498815Y-57101185D01*
X176595506Y-57180537D01*
X176705820Y-57239502D01*
X176825518Y-57275812D01*
X176950000Y-57288072D01*
X177514250Y-57285000D01*
X177673000Y-57126250D01*
X177673000Y-55927000D01*
X177927000Y-55927000D01*
X177927000Y-57126250D01*
X178085750Y-57285000D01*
X178650000Y-57288072D01*
X178774482Y-57275812D01*
X178894180Y-57239502D01*
X179004494Y-57180537D01*
X179101185Y-57101185D01*
X179180537Y-57004494D01*
X179239502Y-56894180D01*
X179275812Y-56774482D01*
X179288072Y-56650000D01*
X179285000Y-56085750D01*
X179126250Y-55927000D01*
X177927000Y-55927000D01*
X177673000Y-55927000D01*
X176473750Y-55927000D01*
X176315000Y-56085750D01*
X176311928Y-56650000D01*
X175413855Y-56650000D01*
X175544157Y-56431252D01*
X175641481Y-56156891D01*
X175520814Y-55927000D01*
X174327000Y-55927000D01*
X174073000Y-55927000D01*
X174053000Y-55927000D01*
X174053000Y-55673000D01*
X174073000Y-55673000D01*
X174073000Y-54479845D01*
X174327000Y-54479845D01*
X174327000Y-55673000D01*
X175520814Y-55673000D01*
X175641481Y-55443109D01*
X175544157Y-55168748D01*
X175413856Y-54950000D01*
X176311928Y-54950000D01*
X176315000Y-55514250D01*
X176473750Y-55673000D01*
X177673000Y-55673000D01*
X177673000Y-54473750D01*
X177927000Y-54473750D01*
X177927000Y-55673000D01*
X179126250Y-55673000D01*
X179285000Y-55514250D01*
X179288072Y-54950000D01*
X179275812Y-54825518D01*
X179239502Y-54705820D01*
X179180537Y-54595506D01*
X179101185Y-54498815D01*
X179004494Y-54419463D01*
X178894180Y-54360498D01*
X178774482Y-54324188D01*
X178650000Y-54311928D01*
X178085750Y-54315000D01*
X177927000Y-54473750D01*
X177673000Y-54473750D01*
X177514250Y-54315000D01*
X176950000Y-54311928D01*
X176825518Y-54324188D01*
X176705820Y-54360498D01*
X176595506Y-54419463D01*
X176498815Y-54498815D01*
X176419463Y-54595506D01*
X176360498Y-54705820D01*
X176324188Y-54825518D01*
X176311928Y-54950000D01*
X175413856Y-54950000D01*
X175395178Y-54918645D01*
X175200269Y-54702412D01*
X174966920Y-54528359D01*
X174704099Y-54403175D01*
X174556890Y-54358524D01*
X174327000Y-54479845D01*
X174073000Y-54479845D01*
X173843110Y-54358524D01*
X173695901Y-54403175D01*
X173433080Y-54528359D01*
X173199731Y-54702412D01*
X173123966Y-54786466D01*
X173099502Y-54705820D01*
X173095000Y-54697397D01*
X173095000Y-53302603D01*
X173099502Y-53294180D01*
X173123966Y-53213534D01*
X173199731Y-53297588D01*
X173433080Y-53471641D01*
X173695901Y-53596825D01*
X173843110Y-53641476D01*
X174073000Y-53520155D01*
X174073000Y-52327000D01*
X174327000Y-52327000D01*
X174327000Y-53520155D01*
X174556890Y-53641476D01*
X174704099Y-53596825D01*
X174966920Y-53471641D01*
X175200269Y-53297588D01*
X175395178Y-53081355D01*
X175544157Y-52831252D01*
X175641481Y-52556891D01*
X175520814Y-52327000D01*
X174327000Y-52327000D01*
X174073000Y-52327000D01*
X174053000Y-52327000D01*
X174053000Y-52073000D01*
X174073000Y-52073000D01*
X174073000Y-50879845D01*
X174327000Y-50879845D01*
X174327000Y-52073000D01*
X175520814Y-52073000D01*
X175641481Y-51843109D01*
X175544157Y-51568748D01*
X175395178Y-51318645D01*
X175200269Y-51102412D01*
X174966920Y-50928359D01*
X174704099Y-50803175D01*
X174556890Y-50758524D01*
X174327000Y-50879845D01*
X174073000Y-50879845D01*
X173843110Y-50758524D01*
X173695901Y-50803175D01*
X173433080Y-50928359D01*
X173199731Y-51102412D01*
X173123966Y-51186466D01*
X173099502Y-51105820D01*
X173040537Y-50995506D01*
X172961185Y-50898815D01*
X172895000Y-50844499D01*
X172895000Y-50089335D01*
X172878101Y-49917758D01*
X172950537Y-49829494D01*
X173009502Y-49719180D01*
X173045812Y-49599482D01*
X173058072Y-49475000D01*
X173058072Y-49191221D01*
X173135574Y-49282844D01*
X173233434Y-49360750D01*
X173344613Y-49418067D01*
X173464838Y-49452593D01*
X173589488Y-49463001D01*
X174044250Y-49460000D01*
X174203000Y-49301250D01*
X174203000Y-48698000D01*
X174457000Y-48698000D01*
X174457000Y-49301250D01*
X174615750Y-49460000D01*
X175070512Y-49463001D01*
X175195162Y-49452593D01*
X175315387Y-49418067D01*
X175426566Y-49360750D01*
X175524426Y-49282844D01*
X175605208Y-49187343D01*
X175665806Y-49077918D01*
X175703891Y-48958773D01*
X175715000Y-48856750D01*
X175556250Y-48698000D01*
X174457000Y-48698000D01*
X174203000Y-48698000D01*
X173103750Y-48698000D01*
X173012162Y-48789588D01*
X173009502Y-48780820D01*
X172950537Y-48670506D01*
X172892674Y-48600000D01*
X172950537Y-48529494D01*
X173009502Y-48419180D01*
X173012162Y-48410412D01*
X173103750Y-48502000D01*
X174203000Y-48502000D01*
X174203000Y-47898750D01*
X174457000Y-47898750D01*
X174457000Y-48502000D01*
X175556250Y-48502000D01*
X175715000Y-48343250D01*
X175703891Y-48241227D01*
X175665806Y-48122082D01*
X175605208Y-48012657D01*
X175524426Y-47917156D01*
X175426566Y-47839250D01*
X175315387Y-47781933D01*
X175195162Y-47747407D01*
X175070512Y-47736999D01*
X174615750Y-47740000D01*
X174457000Y-47898750D01*
X174203000Y-47898750D01*
X174044250Y-47740000D01*
X173589488Y-47736999D01*
X173464838Y-47747407D01*
X173344613Y-47781933D01*
X173233434Y-47839250D01*
X173135574Y-47917156D01*
X173058072Y-48008779D01*
X173058072Y-47725000D01*
X173045812Y-47600518D01*
X173009502Y-47480820D01*
X172950537Y-47370506D01*
X172871185Y-47273815D01*
X172774494Y-47194463D01*
X172735000Y-47173353D01*
X172735000Y-46422621D01*
X172844180Y-46389502D01*
X172954494Y-46330537D01*
X173051185Y-46251185D01*
X173130537Y-46154494D01*
X173189502Y-46044180D01*
X173225812Y-45924482D01*
X173238072Y-45800000D01*
X173961928Y-45800000D01*
X173974188Y-45924482D01*
X174010498Y-46044180D01*
X174069463Y-46154494D01*
X174148815Y-46251185D01*
X174245506Y-46330537D01*
X174355820Y-46389502D01*
X174475518Y-46425812D01*
X174600000Y-46438072D01*
X175314250Y-46435000D01*
X175473000Y-46276250D01*
X175473000Y-45127000D01*
X175727000Y-45127000D01*
X175727000Y-46276250D01*
X175885750Y-46435000D01*
X176600000Y-46438072D01*
X176724482Y-46425812D01*
X176844180Y-46389502D01*
X176954494Y-46330537D01*
X177051185Y-46251185D01*
X177130537Y-46154494D01*
X177189502Y-46044180D01*
X177225812Y-45924482D01*
X177238072Y-45800000D01*
X177235000Y-45285750D01*
X177076250Y-45127000D01*
X175727000Y-45127000D01*
X175473000Y-45127000D01*
X174123750Y-45127000D01*
X173965000Y-45285750D01*
X173961928Y-45800000D01*
X173238072Y-45800000D01*
X173238072Y-44200000D01*
X173961928Y-44200000D01*
X173965000Y-44714250D01*
X174123750Y-44873000D01*
X175473000Y-44873000D01*
X175473000Y-43723750D01*
X175727000Y-43723750D01*
X175727000Y-44873000D01*
X177076250Y-44873000D01*
X177235000Y-44714250D01*
X177238072Y-44200000D01*
X177225812Y-44075518D01*
X177189502Y-43955820D01*
X177130537Y-43845506D01*
X177051185Y-43748815D01*
X176954494Y-43669463D01*
X176844180Y-43610498D01*
X176724482Y-43574188D01*
X176600000Y-43561928D01*
X175885750Y-43565000D01*
X175727000Y-43723750D01*
X175473000Y-43723750D01*
X175314250Y-43565000D01*
X174600000Y-43561928D01*
X174475518Y-43574188D01*
X174355820Y-43610498D01*
X174245506Y-43669463D01*
X174148815Y-43748815D01*
X174069463Y-43845506D01*
X174010498Y-43955820D01*
X173974188Y-44075518D01*
X173961928Y-44200000D01*
X173238072Y-44200000D01*
X173225812Y-44075518D01*
X173189502Y-43955820D01*
X173130537Y-43845506D01*
X173051185Y-43748815D01*
X172954494Y-43669463D01*
X172844180Y-43610498D01*
X172724482Y-43574188D01*
X172600000Y-43561928D01*
X171639304Y-43561928D01*
X171600000Y-43558057D01*
X171560696Y-43561928D01*
X170600000Y-43561928D01*
X170475518Y-43574188D01*
X170355820Y-43610498D01*
X170245506Y-43669463D01*
X170148815Y-43748815D01*
X170069463Y-43845506D01*
X170037662Y-43905000D01*
X164233718Y-43905000D01*
X164239502Y-43894180D01*
X164275812Y-43774482D01*
X164288072Y-43650000D01*
X164285000Y-43085750D01*
X164126250Y-42927000D01*
X162927000Y-42927000D01*
X162927000Y-42947000D01*
X162673000Y-42947000D01*
X162673000Y-42927000D01*
X161473750Y-42927000D01*
X161315000Y-43085750D01*
X161311928Y-43650000D01*
X161324188Y-43774482D01*
X161360498Y-43894180D01*
X161419463Y-44004494D01*
X161428085Y-44015000D01*
X157088072Y-44015000D01*
X157088072Y-43450000D01*
X157075812Y-43325518D01*
X157039502Y-43205820D01*
X156980537Y-43095506D01*
X156901185Y-42998815D01*
X156804494Y-42919463D01*
X156694180Y-42860498D01*
X156574482Y-42824188D01*
X156450000Y-42811928D01*
X153950000Y-42811928D01*
X153825518Y-42824188D01*
X153705820Y-42860498D01*
X153595506Y-42919463D01*
X153498815Y-42998815D01*
X153419463Y-43095506D01*
X153360498Y-43205820D01*
X153324188Y-43325518D01*
X153311928Y-43450000D01*
X153311928Y-44015000D01*
X149979508Y-44015000D01*
X149768691Y-44035764D01*
X149498192Y-44117818D01*
X149248899Y-44251068D01*
X149030392Y-44430392D01*
X148851068Y-44648899D01*
X148717818Y-44898192D01*
X148635764Y-45168691D01*
X148625886Y-45268982D01*
X147736863Y-46158006D01*
X147707714Y-46181928D01*
X147625000Y-46181928D01*
X147500518Y-46194188D01*
X147380820Y-46230498D01*
X147270506Y-46289463D01*
X147173815Y-46368815D01*
X147094463Y-46465506D01*
X147035498Y-46575820D01*
X146999188Y-46695518D01*
X146986928Y-46820000D01*
X146986928Y-47370000D01*
X146999188Y-47494482D01*
X147035498Y-47614180D01*
X147094463Y-47724494D01*
X147098982Y-47730000D01*
X147094463Y-47735506D01*
X147035498Y-47845820D01*
X146999188Y-47965518D01*
X146986928Y-48090000D01*
X146986928Y-48640000D01*
X146999188Y-48764482D01*
X147035498Y-48884180D01*
X147094463Y-48994494D01*
X147098982Y-49000000D01*
X147094463Y-49005506D01*
X147035498Y-49115820D01*
X146999188Y-49235518D01*
X146986928Y-49360000D01*
X146986928Y-49910000D01*
X146999188Y-50034482D01*
X147035498Y-50154180D01*
X147094463Y-50264494D01*
X147098982Y-50270000D01*
X147094463Y-50275506D01*
X147035498Y-50385820D01*
X146999188Y-50505518D01*
X146986928Y-50630000D01*
X146986928Y-51180000D01*
X146999188Y-51304482D01*
X147035498Y-51424180D01*
X147094463Y-51534494D01*
X147173815Y-51631185D01*
X147270506Y-51710537D01*
X147365000Y-51761046D01*
X147365001Y-53344239D01*
X147359509Y-53400000D01*
X147381423Y-53622498D01*
X147446324Y-53836446D01*
X147446325Y-53836447D01*
X147551717Y-54033623D01*
X147693552Y-54206449D01*
X147736860Y-54241991D01*
X148011928Y-54517059D01*
X148011928Y-54950000D01*
X148024188Y-55074482D01*
X148060498Y-55194180D01*
X148119463Y-55304494D01*
X148198815Y-55401185D01*
X148295506Y-55480537D01*
X148405820Y-55539502D01*
X148440427Y-55550000D01*
X148405820Y-55560498D01*
X148295506Y-55619463D01*
X148198815Y-55698815D01*
X148119463Y-55795506D01*
X148060498Y-55905820D01*
X148024188Y-56025518D01*
X148011928Y-56150000D01*
X148011928Y-56265669D01*
X147967818Y-56348193D01*
X147885764Y-56618692D01*
X147865000Y-56829509D01*
X147865001Y-59329499D01*
X147865000Y-59329509D01*
X147865001Y-61770492D01*
X147885765Y-61981309D01*
X147967819Y-62251808D01*
X148011928Y-62334330D01*
X148011928Y-62450000D01*
X148024188Y-62574482D01*
X148060498Y-62694180D01*
X148119463Y-62804494D01*
X148198815Y-62901185D01*
X148295506Y-62980537D01*
X148405820Y-63039502D01*
X148440427Y-63050000D01*
X148405820Y-63060498D01*
X148295506Y-63119463D01*
X148240019Y-63165000D01*
X147029508Y-63165000D01*
X146818691Y-63185764D01*
X146548192Y-63267818D01*
X146418896Y-63336928D01*
X146350000Y-63336928D01*
X146225518Y-63349188D01*
X146105820Y-63385498D01*
X145995506Y-63444463D01*
X145898815Y-63523815D01*
X145850000Y-63583296D01*
X145801185Y-63523815D01*
X145704494Y-63444463D01*
X145594180Y-63385498D01*
X145474482Y-63349188D01*
X145350000Y-63336928D01*
X145281101Y-63336928D01*
X145151807Y-63267819D01*
X144881308Y-63185764D01*
X144599999Y-63158057D01*
X144318691Y-63185764D01*
X144057486Y-63265000D01*
X143735000Y-63265000D01*
X143735000Y-58309508D01*
X143714236Y-58098691D01*
X143632182Y-57828192D01*
X143498932Y-57578899D01*
X143475000Y-57549738D01*
X143475000Y-56444248D01*
X143463072Y-56323140D01*
X143463072Y-55865000D01*
X143450812Y-55740518D01*
X143414502Y-55620820D01*
X143355537Y-55510506D01*
X143276185Y-55413815D01*
X143179494Y-55334463D01*
X143069180Y-55275498D01*
X142949482Y-55239188D01*
X142825000Y-55226928D01*
X142235000Y-55226928D01*
X142235000Y-51761046D01*
X142329494Y-51710537D01*
X142426185Y-51631185D01*
X142505537Y-51534494D01*
X142564502Y-51424180D01*
X142600812Y-51304482D01*
X142613072Y-51180000D01*
X142613072Y-50630000D01*
X142600812Y-50505518D01*
X142564502Y-50385820D01*
X142505537Y-50275506D01*
X142501184Y-50270202D01*
X142503934Y-50266881D01*
X142563395Y-50156834D01*
X142600244Y-50037301D01*
X142610000Y-49920750D01*
X142451250Y-49762000D01*
X141227000Y-49762000D01*
X141227000Y-49777017D01*
X141100000Y-49764509D01*
X140973000Y-49777017D01*
X140973000Y-49762000D01*
X139748750Y-49762000D01*
X139590000Y-49920750D01*
X139599756Y-50037301D01*
X139636605Y-50156834D01*
X139696066Y-50266881D01*
X139698816Y-50270202D01*
X139694463Y-50275506D01*
X139635498Y-50385820D01*
X139599188Y-50505518D01*
X139586928Y-50630000D01*
X139586928Y-51180000D01*
X139599188Y-51304482D01*
X139635498Y-51424180D01*
X139694463Y-51534494D01*
X139773815Y-51631185D01*
X139870506Y-51710537D01*
X139965000Y-51761046D01*
X139965001Y-55226928D01*
X139315000Y-55226928D01*
X139190518Y-55239188D01*
X139070820Y-55275498D01*
X138960506Y-55334463D01*
X138863815Y-55413815D01*
X138784463Y-55510506D01*
X138725498Y-55620820D01*
X138689188Y-55740518D01*
X138676928Y-55865000D01*
X138676928Y-56323141D01*
X138665000Y-56444249D01*
X138665001Y-58840018D01*
X138619463Y-58895506D01*
X138560498Y-59005820D01*
X138524188Y-59125518D01*
X138511928Y-59250000D01*
X138511928Y-60750000D01*
X138524188Y-60874482D01*
X138560498Y-60994180D01*
X138619463Y-61104494D01*
X138698815Y-61201185D01*
X138795506Y-61280537D01*
X138905820Y-61339502D01*
X138940427Y-61350000D01*
X138905820Y-61360498D01*
X138795506Y-61419463D01*
X138698815Y-61498815D01*
X138619463Y-61595506D01*
X138560498Y-61705820D01*
X138524188Y-61825518D01*
X138511928Y-61950000D01*
X138511928Y-62065669D01*
X138467818Y-62148193D01*
X138385764Y-62418692D01*
X138365000Y-62629509D01*
X138365001Y-66323353D01*
X138294180Y-66285498D01*
X138174482Y-66249188D01*
X138050000Y-66236928D01*
X137585750Y-66240000D01*
X137427000Y-66398750D01*
X137427000Y-67373000D01*
X137447000Y-67373000D01*
X137447000Y-67627000D01*
X137427000Y-67627000D01*
X137427000Y-68601250D01*
X137585750Y-68760000D01*
X138050000Y-68763072D01*
X138174482Y-68750812D01*
X138294180Y-68714502D01*
X138404494Y-68655537D01*
X138501185Y-68576185D01*
X138550000Y-68516704D01*
X138598815Y-68576185D01*
X138665000Y-68630502D01*
X138665001Y-72283032D01*
X138656928Y-72365000D01*
X138656928Y-72823141D01*
X138639509Y-73000000D01*
X138656928Y-73176859D01*
X138656928Y-73635000D01*
X138669188Y-73759482D01*
X138705498Y-73879180D01*
X138764463Y-73989494D01*
X138843815Y-74086185D01*
X138940506Y-74165537D01*
X139050820Y-74224502D01*
X139170518Y-74260812D01*
X139295000Y-74273072D01*
X139915000Y-74273072D01*
X139915001Y-76743442D01*
X139769294Y-76920986D01*
X139631401Y-77178966D01*
X139546487Y-77458889D01*
X139517815Y-77750000D01*
X139546487Y-78041111D01*
X139631401Y-78321034D01*
X139769294Y-78579014D01*
X139954866Y-78805134D01*
X140180986Y-78990706D01*
X140438966Y-79128599D01*
X140718889Y-79213513D01*
X140937050Y-79235000D01*
X141082950Y-79235000D01*
X141301111Y-79213513D01*
X141581034Y-79128599D01*
X141839014Y-78990706D01*
X142065134Y-78805134D01*
X142089607Y-78775313D01*
X142110498Y-78844180D01*
X142169463Y-78954494D01*
X142248815Y-79051185D01*
X142345506Y-79130537D01*
X142455820Y-79189502D01*
X142575518Y-79225812D01*
X142700000Y-79238072D01*
X143264250Y-79235000D01*
X143423000Y-79076250D01*
X143423000Y-77877000D01*
X143677000Y-77877000D01*
X143677000Y-79076250D01*
X143835750Y-79235000D01*
X144400000Y-79238072D01*
X144524482Y-79225812D01*
X144644180Y-79189502D01*
X144754494Y-79130537D01*
X144851185Y-79051185D01*
X144930537Y-78954494D01*
X144989502Y-78844180D01*
X145025812Y-78724482D01*
X145038072Y-78600000D01*
X145035000Y-78035750D01*
X144876250Y-77877000D01*
X143677000Y-77877000D01*
X143423000Y-77877000D01*
X143403000Y-77877000D01*
X143403000Y-77623000D01*
X143423000Y-77623000D01*
X143423000Y-76423750D01*
X143677000Y-76423750D01*
X143677000Y-77623000D01*
X144876250Y-77623000D01*
X145035000Y-77464250D01*
X145038072Y-76900000D01*
X145025812Y-76775518D01*
X144989502Y-76655820D01*
X144930537Y-76545506D01*
X144851185Y-76448815D01*
X144754494Y-76369463D01*
X144644180Y-76310498D01*
X144524482Y-76274188D01*
X144400000Y-76261928D01*
X143835750Y-76265000D01*
X143677000Y-76423750D01*
X143423000Y-76423750D01*
X143264250Y-76265000D01*
X142700000Y-76261928D01*
X142575518Y-76274188D01*
X142455820Y-76310498D01*
X142345506Y-76369463D01*
X142248815Y-76448815D01*
X142185000Y-76526574D01*
X142185000Y-74273072D01*
X142805000Y-74273072D01*
X142929482Y-74260812D01*
X143049180Y-74224502D01*
X143159494Y-74165537D01*
X143256185Y-74086185D01*
X143335537Y-73989494D01*
X143394502Y-73879180D01*
X143430812Y-73759482D01*
X143443072Y-73635000D01*
X143443072Y-73176860D01*
X143455000Y-73055752D01*
X143455000Y-72829039D01*
X150388096Y-72829039D01*
X150405633Y-72911818D01*
X150516285Y-73171646D01*
X150675500Y-73404895D01*
X150877161Y-73602601D01*
X151113517Y-73757166D01*
X151375486Y-73862650D01*
X151653000Y-73915000D01*
X152053000Y-73915000D01*
X152053000Y-72607000D01*
X152307000Y-72607000D01*
X152307000Y-73915000D01*
X152707000Y-73915000D01*
X152984514Y-73862650D01*
X153246483Y-73757166D01*
X153482839Y-73602601D01*
X153684500Y-73404895D01*
X153843715Y-73171646D01*
X153954367Y-72911818D01*
X153971904Y-72829039D01*
X153849915Y-72607000D01*
X152307000Y-72607000D01*
X152053000Y-72607000D01*
X150510085Y-72607000D01*
X150388096Y-72829039D01*
X143455000Y-72829039D01*
X143455000Y-72150131D01*
X144570132Y-71035000D01*
X145644499Y-71035000D01*
X145698815Y-71101185D01*
X145795506Y-71180537D01*
X145905820Y-71239502D01*
X146025518Y-71275812D01*
X146150000Y-71288072D01*
X146432439Y-71288072D01*
X146518691Y-71314236D01*
X146729508Y-71335000D01*
X150911413Y-71335000D01*
X150877161Y-71357399D01*
X150675500Y-71555105D01*
X150516285Y-71788354D01*
X150405633Y-72048182D01*
X150388096Y-72130961D01*
X150510085Y-72353000D01*
X152053000Y-72353000D01*
X152053000Y-72333000D01*
X152307000Y-72333000D01*
X152307000Y-72353000D01*
X153849915Y-72353000D01*
X153971904Y-72130961D01*
X153954367Y-72048182D01*
X153843715Y-71788354D01*
X153684500Y-71555105D01*
X153561992Y-71435000D01*
X153729508Y-71435000D01*
X153800000Y-71441943D01*
X153870492Y-71435000D01*
X154081309Y-71414236D01*
X154351808Y-71332182D01*
X154601101Y-71198932D01*
X154819608Y-71019608D01*
X154864554Y-70964841D01*
X156164850Y-69664546D01*
X156219607Y-69619608D01*
X156398932Y-69401101D01*
X156532182Y-69151808D01*
X156614236Y-68881309D01*
X156632210Y-68698815D01*
X156641943Y-68600000D01*
X156635000Y-68529508D01*
X156635000Y-64860000D01*
X157958057Y-64860000D01*
X157985764Y-65141309D01*
X158067818Y-65411808D01*
X158201068Y-65661101D01*
X158380392Y-65879608D01*
X158598899Y-66058932D01*
X158731858Y-66130000D01*
X158598899Y-66201068D01*
X158380392Y-66380392D01*
X158201068Y-66598899D01*
X158067818Y-66848192D01*
X157985764Y-67118691D01*
X157958057Y-67400000D01*
X157985764Y-67681309D01*
X158067818Y-67951808D01*
X158201068Y-68201101D01*
X158380392Y-68419608D01*
X158598899Y-68598932D01*
X158731858Y-68670000D01*
X158598899Y-68741068D01*
X158380392Y-68920392D01*
X158201068Y-69138899D01*
X158067818Y-69388192D01*
X157985764Y-69658691D01*
X157958057Y-69940000D01*
X157985764Y-70221309D01*
X158067818Y-70491808D01*
X158201068Y-70741101D01*
X158380392Y-70959608D01*
X158493482Y-71052419D01*
X158475518Y-71054188D01*
X158355820Y-71090498D01*
X158245506Y-71149463D01*
X158148815Y-71228815D01*
X158069463Y-71325506D01*
X158010498Y-71435820D01*
X157974188Y-71555518D01*
X157961928Y-71680000D01*
X157961928Y-73280000D01*
X157974188Y-73404482D01*
X158010498Y-73524180D01*
X158069463Y-73634494D01*
X158148815Y-73731185D01*
X158245506Y-73810537D01*
X158355820Y-73869502D01*
X158365000Y-73872287D01*
X158365001Y-77283030D01*
X158296487Y-77508889D01*
X158267815Y-77800000D01*
X158296487Y-78091111D01*
X158381401Y-78371034D01*
X158519294Y-78629014D01*
X158704866Y-78855134D01*
X158930986Y-79040706D01*
X159188966Y-79178599D01*
X159468889Y-79263513D01*
X159687050Y-79285000D01*
X159832950Y-79285000D01*
X160051111Y-79263513D01*
X160331034Y-79178599D01*
X160589014Y-79040706D01*
X160815134Y-78855134D01*
X160839607Y-78825313D01*
X160860498Y-78894180D01*
X160919463Y-79004494D01*
X160998815Y-79101185D01*
X161095506Y-79180537D01*
X161205820Y-79239502D01*
X161325518Y-79275812D01*
X161450000Y-79288072D01*
X162014250Y-79285000D01*
X162173000Y-79126250D01*
X162173000Y-77927000D01*
X162427000Y-77927000D01*
X162427000Y-79126250D01*
X162585750Y-79285000D01*
X163150000Y-79288072D01*
X163274482Y-79275812D01*
X163394180Y-79239502D01*
X163504494Y-79180537D01*
X163601185Y-79101185D01*
X163680537Y-79004494D01*
X163739502Y-78894180D01*
X163775812Y-78774482D01*
X163788072Y-78650000D01*
X163785000Y-78085750D01*
X163626250Y-77927000D01*
X162427000Y-77927000D01*
X162173000Y-77927000D01*
X162153000Y-77927000D01*
X162153000Y-77673000D01*
X162173000Y-77673000D01*
X162173000Y-76473750D01*
X162427000Y-76473750D01*
X162427000Y-77673000D01*
X163626250Y-77673000D01*
X163785000Y-77514250D01*
X163788072Y-76950000D01*
X163775812Y-76825518D01*
X163739502Y-76705820D01*
X163680537Y-76595506D01*
X163601185Y-76498815D01*
X163504494Y-76419463D01*
X163394180Y-76360498D01*
X163274482Y-76324188D01*
X163150000Y-76311928D01*
X162585750Y-76315000D01*
X162427000Y-76473750D01*
X162173000Y-76473750D01*
X162014250Y-76315000D01*
X161450000Y-76311928D01*
X161325518Y-76324188D01*
X161235000Y-76351646D01*
X161235000Y-73915000D01*
X163249508Y-73915000D01*
X163320000Y-73921943D01*
X163390492Y-73915000D01*
X163601309Y-73894236D01*
X163871808Y-73812182D01*
X164121101Y-73678932D01*
X164140426Y-73663072D01*
X164150000Y-73663072D01*
X164274482Y-73650812D01*
X164394180Y-73614502D01*
X164504494Y-73555537D01*
X164601185Y-73476185D01*
X164650000Y-73416704D01*
X164698815Y-73476185D01*
X164795506Y-73555537D01*
X164905820Y-73614502D01*
X165025518Y-73650812D01*
X165150000Y-73663072D01*
X165218896Y-73663072D01*
X165348192Y-73732182D01*
X165618691Y-73814236D01*
X165829508Y-73835000D01*
X169070492Y-73835000D01*
X169281309Y-73814236D01*
X169551808Y-73732182D01*
X169634332Y-73688072D01*
X169750000Y-73688072D01*
X169874482Y-73675812D01*
X169994180Y-73639502D01*
X170104494Y-73580537D01*
X170201185Y-73501185D01*
X170280537Y-73404494D01*
X170339502Y-73294180D01*
X170350000Y-73259573D01*
X170360498Y-73294180D01*
X170419463Y-73404494D01*
X170498815Y-73501185D01*
X170595506Y-73580537D01*
X170705820Y-73639502D01*
X170825518Y-73675812D01*
X170950000Y-73688072D01*
X171058677Y-73688072D01*
X175711928Y-78341325D01*
X175711928Y-78650000D01*
X175724188Y-78774482D01*
X175760498Y-78894180D01*
X175819463Y-79004494D01*
X175898815Y-79101185D01*
X175995506Y-79180537D01*
X176105820Y-79239502D01*
X176225518Y-79275812D01*
X176350000Y-79288072D01*
X178050000Y-79288072D01*
X178174482Y-79275812D01*
X178294180Y-79239502D01*
X178404494Y-79180537D01*
X178501185Y-79101185D01*
X178580537Y-79004494D01*
X178639502Y-78894180D01*
X178663966Y-78813534D01*
X178739731Y-78897588D01*
X178973080Y-79071641D01*
X179235901Y-79196825D01*
X179383110Y-79241476D01*
X179613000Y-79120155D01*
X179613000Y-77927000D01*
X179867000Y-77927000D01*
X179867000Y-79120155D01*
X180096890Y-79241476D01*
X180244099Y-79196825D01*
X180506920Y-79071641D01*
X180740269Y-78897588D01*
X180935178Y-78681355D01*
X181084157Y-78431252D01*
X181181481Y-78156891D01*
X181060814Y-77927000D01*
X179867000Y-77927000D01*
X179613000Y-77927000D01*
X179593000Y-77927000D01*
X179593000Y-77673000D01*
X179613000Y-77673000D01*
X179613000Y-76479845D01*
X179867000Y-76479845D01*
X179867000Y-77673000D01*
X181060814Y-77673000D01*
X181181481Y-77443109D01*
X181084157Y-77168748D01*
X180935178Y-76918645D01*
X180740269Y-76702412D01*
X180506920Y-76528359D01*
X180244099Y-76403175D01*
X180096890Y-76358524D01*
X179867000Y-76479845D01*
X179613000Y-76479845D01*
X179383110Y-76358524D01*
X179235901Y-76403175D01*
X178973080Y-76528359D01*
X178739731Y-76702412D01*
X178663966Y-76786466D01*
X178639502Y-76705820D01*
X178580537Y-76595506D01*
X178501185Y-76498815D01*
X178404494Y-76419463D01*
X178294180Y-76360498D01*
X178174482Y-76324188D01*
X178050000Y-76311928D01*
X177741325Y-76311928D01*
X173264415Y-71835020D01*
X173615565Y-71835020D01*
X173671316Y-71840511D01*
X173727067Y-71835020D01*
X173727068Y-71835020D01*
X173893815Y-71818597D01*
X174107763Y-71753696D01*
X174304939Y-71648304D01*
X174477765Y-71506469D01*
X174513312Y-71463155D01*
X174688395Y-71288072D01*
X175925000Y-71288072D01*
X176049482Y-71275812D01*
X176169180Y-71239502D01*
X176279494Y-71180537D01*
X176376185Y-71101185D01*
X176455537Y-71004494D01*
X176514502Y-70894180D01*
X176550812Y-70774482D01*
X176563072Y-70650000D01*
X176563072Y-69150000D01*
X176550812Y-69025518D01*
X176514502Y-68905820D01*
X176455537Y-68795506D01*
X176376185Y-68698815D01*
X176316704Y-68650000D01*
X176376185Y-68601185D01*
X176455537Y-68504494D01*
X176514502Y-68394180D01*
X176550812Y-68274482D01*
X176563072Y-68150000D01*
X176563072Y-68081104D01*
X176632182Y-67951808D01*
X176714236Y-67681309D01*
X176741943Y-67400000D01*
X176714236Y-67118691D01*
X176632182Y-66848192D01*
X176563072Y-66718896D01*
X176563072Y-66650000D01*
X176550812Y-66525518D01*
X176514502Y-66405820D01*
X176455537Y-66295506D01*
X176376185Y-66198815D01*
X176279494Y-66119463D01*
X176169180Y-66060498D01*
X176049482Y-66024188D01*
X175925000Y-66011928D01*
X175667561Y-66011928D01*
X175581309Y-65985764D01*
X175370492Y-65965000D01*
X174920497Y-65965000D01*
X174850002Y-65958057D01*
X174568693Y-65985763D01*
X174322325Y-66060498D01*
X174298194Y-66067818D01*
X174048901Y-66201068D01*
X173830394Y-66380392D01*
X173785452Y-66435154D01*
X173085000Y-67135606D01*
X173085000Y-64428373D01*
X173105820Y-64439502D01*
X173225518Y-64475812D01*
X173350000Y-64488072D01*
X173914250Y-64485000D01*
X174073000Y-64326250D01*
X174073000Y-63127000D01*
X174327000Y-63127000D01*
X174327000Y-64326250D01*
X174485750Y-64485000D01*
X175050000Y-64488072D01*
X175174482Y-64475812D01*
X175294180Y-64439502D01*
X175404494Y-64380537D01*
X175501185Y-64301185D01*
X175580537Y-64204494D01*
X175639502Y-64094180D01*
X175675812Y-63974482D01*
X175688072Y-63850000D01*
X175685000Y-63285750D01*
X175526250Y-63127000D01*
X174327000Y-63127000D01*
X174073000Y-63127000D01*
X174053000Y-63127000D01*
X174053000Y-62873000D01*
X174073000Y-62873000D01*
X174073000Y-61673750D01*
X174327000Y-61673750D01*
X174327000Y-62873000D01*
X175526250Y-62873000D01*
X175685000Y-62714250D01*
X175688072Y-62150000D01*
X175675812Y-62025518D01*
X175639502Y-61905820D01*
X175580537Y-61795506D01*
X175501185Y-61698815D01*
X175404494Y-61619463D01*
X175294180Y-61560498D01*
X175174482Y-61524188D01*
X175050000Y-61511928D01*
X174485750Y-61515000D01*
X174327000Y-61673750D01*
X174073000Y-61673750D01*
X173914250Y-61515000D01*
X173350000Y-61511928D01*
X173225518Y-61524188D01*
X173105820Y-61560498D01*
X172995506Y-61619463D01*
X172898815Y-61698815D01*
X172819463Y-61795506D01*
X172760498Y-61905820D01*
X172739607Y-61974687D01*
X172715134Y-61944866D01*
X172489014Y-61759294D01*
X172231034Y-61621401D01*
X171951111Y-61536487D01*
X171732950Y-61515000D01*
X171587050Y-61515000D01*
X171368889Y-61536487D01*
X171088966Y-61621401D01*
X170830986Y-61759294D01*
X170604866Y-61944866D01*
X170419294Y-62170986D01*
X170281401Y-62428966D01*
X170196487Y-62708889D01*
X170167815Y-63000000D01*
X170196487Y-63291111D01*
X170215001Y-63352143D01*
X170215001Y-64197503D01*
X170148932Y-64073897D01*
X169969608Y-63855390D01*
X169914851Y-63810452D01*
X168239546Y-62135149D01*
X168194600Y-62080382D01*
X167976093Y-61901058D01*
X167726800Y-61767808D01*
X167456301Y-61685754D01*
X167245484Y-61664990D01*
X167174992Y-61658047D01*
X167104500Y-61664990D01*
X164495503Y-61664990D01*
X164425008Y-61658047D01*
X164143699Y-61685753D01*
X163901267Y-61759294D01*
X163873200Y-61767808D01*
X163623907Y-61901058D01*
X163405400Y-62080382D01*
X163360458Y-62135144D01*
X162335155Y-63160448D01*
X162280392Y-63205391D01*
X162101068Y-63423898D01*
X161987201Y-63636928D01*
X161967818Y-63673191D01*
X161885764Y-63943690D01*
X161858057Y-64224998D01*
X161865000Y-64295490D01*
X161865000Y-65965000D01*
X161115558Y-65965000D01*
X161219608Y-65879608D01*
X161398932Y-65661101D01*
X161532182Y-65411808D01*
X161614236Y-65141309D01*
X161641943Y-64860000D01*
X161614236Y-64578691D01*
X161532182Y-64308192D01*
X161398932Y-64058899D01*
X161235000Y-63859147D01*
X161235000Y-62264468D01*
X161251185Y-62251185D01*
X161330537Y-62154494D01*
X161389502Y-62044180D01*
X161425812Y-61924482D01*
X161438072Y-61800000D01*
X161438072Y-60200000D01*
X161425812Y-60075518D01*
X161389502Y-59955820D01*
X161330537Y-59845506D01*
X161251185Y-59748815D01*
X161154494Y-59669463D01*
X161044180Y-59610498D01*
X160924482Y-59574188D01*
X160800000Y-59561928D01*
X159839302Y-59561928D01*
X159800000Y-59558057D01*
X159760698Y-59561928D01*
X158800000Y-59561928D01*
X158675518Y-59574188D01*
X158555820Y-59610498D01*
X158445506Y-59669463D01*
X158348815Y-59748815D01*
X158269463Y-59845506D01*
X158210498Y-59955820D01*
X158174188Y-60075518D01*
X158161928Y-60200000D01*
X158161928Y-61800000D01*
X158174188Y-61924482D01*
X158210498Y-62044180D01*
X158269463Y-62154494D01*
X158348815Y-62251185D01*
X158365000Y-62264468D01*
X158365001Y-63859146D01*
X158201068Y-64058899D01*
X158067818Y-64308192D01*
X157985764Y-64578691D01*
X157958057Y-64860000D01*
X156635000Y-64860000D01*
X156635000Y-64070493D01*
X156641943Y-64000001D01*
X156614236Y-63718692D01*
X156532182Y-63448194D01*
X156524090Y-63433055D01*
X156398932Y-63198901D01*
X156219608Y-62980394D01*
X156164846Y-62935452D01*
X155589322Y-62359928D01*
X155673000Y-62276250D01*
X155673000Y-61127000D01*
X155927000Y-61127000D01*
X155927000Y-62276250D01*
X156085750Y-62435000D01*
X156800000Y-62438072D01*
X156924482Y-62425812D01*
X157044180Y-62389502D01*
X157154494Y-62330537D01*
X157251185Y-62251185D01*
X157330537Y-62154494D01*
X157389502Y-62044180D01*
X157425812Y-61924482D01*
X157438072Y-61800000D01*
X157435000Y-61285750D01*
X157276250Y-61127000D01*
X155927000Y-61127000D01*
X155673000Y-61127000D01*
X155653000Y-61127000D01*
X155653000Y-60873000D01*
X155673000Y-60873000D01*
X155673000Y-59723750D01*
X155927000Y-59723750D01*
X155927000Y-60873000D01*
X157276250Y-60873000D01*
X157435000Y-60714250D01*
X157438072Y-60200000D01*
X157425812Y-60075518D01*
X157389502Y-59955820D01*
X157330537Y-59845506D01*
X157251185Y-59748815D01*
X157154494Y-59669463D01*
X157044180Y-59610498D01*
X156924482Y-59574188D01*
X156800000Y-59561928D01*
X156085750Y-59565000D01*
X155927000Y-59723750D01*
X155673000Y-59723750D01*
X155514250Y-59565000D01*
X154800000Y-59561928D01*
X154675518Y-59574188D01*
X154555820Y-59610498D01*
X154445506Y-59669463D01*
X154348815Y-59748815D01*
X154269463Y-59845506D01*
X154210498Y-59955820D01*
X154174188Y-60075518D01*
X154161928Y-60200000D01*
X154165000Y-60714250D01*
X154323748Y-60872998D01*
X154165000Y-60872998D01*
X154165000Y-60935607D01*
X153235000Y-60005607D01*
X153235000Y-59329508D01*
X153214236Y-59118691D01*
X153188072Y-59032439D01*
X153188072Y-58775000D01*
X153175812Y-58650518D01*
X153139502Y-58530820D01*
X153080537Y-58420506D01*
X153001185Y-58323815D01*
X152904494Y-58244463D01*
X152794180Y-58185498D01*
X152674482Y-58149188D01*
X152550000Y-58136928D01*
X152481104Y-58136928D01*
X152351808Y-58067818D01*
X152081309Y-57985764D01*
X151800000Y-57958057D01*
X151518692Y-57985764D01*
X151248193Y-58067818D01*
X151118897Y-58136928D01*
X151050000Y-58136928D01*
X150925518Y-58149188D01*
X150805820Y-58185498D01*
X150735000Y-58223353D01*
X150735000Y-56829508D01*
X150714236Y-56618691D01*
X150632182Y-56348192D01*
X150588072Y-56265668D01*
X150588072Y-56150000D01*
X150575812Y-56025518D01*
X150539502Y-55905820D01*
X150480537Y-55795506D01*
X150401185Y-55698815D01*
X150304494Y-55619463D01*
X150194180Y-55560498D01*
X150159573Y-55550000D01*
X150194180Y-55539502D01*
X150304494Y-55480537D01*
X150401185Y-55401185D01*
X150480537Y-55304494D01*
X150539502Y-55194180D01*
X150575812Y-55074482D01*
X150588072Y-54950000D01*
X150588072Y-53450000D01*
X150575812Y-53325518D01*
X150539502Y-53205820D01*
X150480537Y-53095506D01*
X150401185Y-52998815D01*
X150304494Y-52919463D01*
X150194180Y-52860498D01*
X150159573Y-52850000D01*
X154936928Y-52850000D01*
X154949188Y-52974482D01*
X154985498Y-53094180D01*
X155044463Y-53204494D01*
X155123815Y-53301185D01*
X155220506Y-53380537D01*
X155330820Y-53439502D01*
X155450518Y-53475812D01*
X155575000Y-53488072D01*
X155914250Y-53485000D01*
X156073000Y-53326250D01*
X156073000Y-52227000D01*
X156327000Y-52227000D01*
X156327000Y-53326250D01*
X156485750Y-53485000D01*
X156825000Y-53488072D01*
X156949482Y-53475812D01*
X157069180Y-53439502D01*
X157179494Y-53380537D01*
X157276185Y-53301185D01*
X157355537Y-53204494D01*
X157414502Y-53094180D01*
X157450812Y-52974482D01*
X157463072Y-52850000D01*
X157460000Y-52385750D01*
X157301250Y-52227000D01*
X156327000Y-52227000D01*
X156073000Y-52227000D01*
X155098750Y-52227000D01*
X154940000Y-52385750D01*
X154936928Y-52850000D01*
X150159573Y-52850000D01*
X150074482Y-52824188D01*
X149950000Y-52811928D01*
X149635000Y-52811928D01*
X149635000Y-51761046D01*
X149729494Y-51710537D01*
X149826185Y-51631185D01*
X149905537Y-51534494D01*
X149964502Y-51424180D01*
X150000812Y-51304482D01*
X150013072Y-51180000D01*
X150013072Y-50770000D01*
X151109249Y-50770000D01*
X151165000Y-50775491D01*
X151220751Y-50770000D01*
X151220752Y-50770000D01*
X151291094Y-50763072D01*
X152050000Y-50763072D01*
X152174482Y-50750812D01*
X152294180Y-50714502D01*
X152404494Y-50655537D01*
X152501185Y-50576185D01*
X152550000Y-50516704D01*
X152598815Y-50576185D01*
X152695506Y-50655537D01*
X152805820Y-50714502D01*
X152925518Y-50750812D01*
X153050000Y-50763072D01*
X153118896Y-50763072D01*
X153248192Y-50832182D01*
X153518691Y-50914236D01*
X153729508Y-50935000D01*
X155094119Y-50935000D01*
X155044463Y-50995506D01*
X154985498Y-51105820D01*
X154949188Y-51225518D01*
X154936928Y-51350000D01*
X154940000Y-51814250D01*
X155098750Y-51973000D01*
X156073000Y-51973000D01*
X156073000Y-51953000D01*
X156327000Y-51953000D01*
X156327000Y-51973000D01*
X157301250Y-51973000D01*
X157460000Y-51814250D01*
X157463072Y-51350000D01*
X157450812Y-51225518D01*
X157414502Y-51105820D01*
X157355537Y-50995506D01*
X157305881Y-50935000D01*
X158565001Y-50935000D01*
X158565000Y-53929508D01*
X158558057Y-54000000D01*
X158565000Y-54070491D01*
X158585764Y-54281308D01*
X158667818Y-54551807D01*
X158801068Y-54801100D01*
X158980392Y-55019607D01*
X159035155Y-55064550D01*
X163935450Y-59964846D01*
X163980392Y-60019608D01*
X164198899Y-60198932D01*
X164422958Y-60318694D01*
X164448192Y-60332182D01*
X164718691Y-60414237D01*
X165000000Y-60441943D01*
X165070495Y-60435000D01*
X183045482Y-60435000D01*
X183256299Y-60414236D01*
X183340001Y-60388846D01*
X183340001Y-77967711D01*
X183311375Y-78259660D01*
X183235965Y-78509429D01*
X183113477Y-78739794D01*
X182948579Y-78941979D01*
X182747546Y-79108288D01*
X182518046Y-79232378D01*
X182268805Y-79309531D01*
X181978911Y-79340000D01*
X127032279Y-79340000D01*
X126740340Y-79311375D01*
X126490571Y-79235965D01*
X126260206Y-79113477D01*
X126058021Y-78948579D01*
X125891712Y-78747546D01*
X125767622Y-78518046D01*
X125690469Y-78268805D01*
X125660000Y-77978911D01*
X125660000Y-68125000D01*
X135911928Y-68125000D01*
X135924188Y-68249482D01*
X135960498Y-68369180D01*
X136019463Y-68479494D01*
X136098815Y-68576185D01*
X136195506Y-68655537D01*
X136305820Y-68714502D01*
X136425518Y-68750812D01*
X136550000Y-68763072D01*
X137014250Y-68760000D01*
X137173000Y-68601250D01*
X137173000Y-67627000D01*
X136073750Y-67627000D01*
X135915000Y-67785750D01*
X135911928Y-68125000D01*
X125660000Y-68125000D01*
X125660000Y-66875000D01*
X135911928Y-66875000D01*
X135915000Y-67214250D01*
X136073750Y-67373000D01*
X137173000Y-67373000D01*
X137173000Y-66398750D01*
X137014250Y-66240000D01*
X136550000Y-66236928D01*
X136425518Y-66249188D01*
X136305820Y-66285498D01*
X136195506Y-66344463D01*
X136098815Y-66423815D01*
X136019463Y-66520506D01*
X135960498Y-66630820D01*
X135924188Y-66750518D01*
X135911928Y-66875000D01*
X125660000Y-66875000D01*
X125660000Y-46450000D01*
X128307815Y-46450000D01*
X128336487Y-46741111D01*
X128421401Y-47021034D01*
X128559294Y-47279014D01*
X128744866Y-47505134D01*
X128774687Y-47529607D01*
X128705820Y-47550498D01*
X128595506Y-47609463D01*
X128498815Y-47688815D01*
X128419463Y-47785506D01*
X128360498Y-47895820D01*
X128324188Y-48015518D01*
X128311928Y-48140000D01*
X128311928Y-49840000D01*
X128324188Y-49964482D01*
X128360498Y-50084180D01*
X128419463Y-50194494D01*
X128498815Y-50291185D01*
X128595506Y-50370537D01*
X128705820Y-50429502D01*
X128825518Y-50465812D01*
X128950000Y-50478072D01*
X130650000Y-50478072D01*
X130774482Y-50465812D01*
X130894180Y-50429502D01*
X131004494Y-50370537D01*
X131101185Y-50291185D01*
X131180537Y-50194494D01*
X131187750Y-50181000D01*
X134370492Y-50181000D01*
X134581309Y-50160236D01*
X134851808Y-50078182D01*
X134981104Y-50009072D01*
X135050000Y-50009072D01*
X135174482Y-49996812D01*
X135294180Y-49960502D01*
X135404494Y-49901537D01*
X135501185Y-49822185D01*
X135550000Y-49762704D01*
X135598815Y-49822185D01*
X135695506Y-49901537D01*
X135805820Y-49960502D01*
X135925518Y-49996812D01*
X136050000Y-50009072D01*
X137550000Y-50009072D01*
X137674482Y-49996812D01*
X137794180Y-49960502D01*
X137904494Y-49901537D01*
X137929518Y-49881000D01*
X138698249Y-49881000D01*
X138754000Y-49886491D01*
X138809751Y-49881000D01*
X138809752Y-49881000D01*
X138976499Y-49864577D01*
X139190447Y-49799676D01*
X139387623Y-49694284D01*
X139560449Y-49552449D01*
X139595996Y-49509135D01*
X139605131Y-49500000D01*
X139740750Y-49500000D01*
X139748750Y-49508000D01*
X140973000Y-49508000D01*
X140973000Y-49500000D01*
X141155752Y-49500000D01*
X141227000Y-49492983D01*
X141227000Y-49508000D01*
X142451250Y-49508000D01*
X142610000Y-49349250D01*
X142600244Y-49232699D01*
X142563395Y-49113166D01*
X142503934Y-49003119D01*
X142501184Y-48999798D01*
X142505537Y-48994494D01*
X142564502Y-48884180D01*
X142600812Y-48764482D01*
X142613072Y-48640000D01*
X142613072Y-48090000D01*
X142600812Y-47965518D01*
X142564502Y-47845820D01*
X142505537Y-47735506D01*
X142501018Y-47730000D01*
X142505537Y-47724494D01*
X142564502Y-47614180D01*
X142600812Y-47494482D01*
X142613072Y-47370000D01*
X142613072Y-46820000D01*
X142600812Y-46695518D01*
X142564502Y-46575820D01*
X142505537Y-46465506D01*
X142426185Y-46368815D01*
X142329494Y-46289463D01*
X142219180Y-46230498D01*
X142099482Y-46194188D01*
X141975000Y-46181928D01*
X141776529Y-46181928D01*
X141733623Y-46146716D01*
X141536447Y-46041324D01*
X141322499Y-45976423D01*
X141155752Y-45960000D01*
X139569231Y-45960000D01*
X139552449Y-45939551D01*
X139379623Y-45797716D01*
X139182447Y-45692324D01*
X138968499Y-45627423D01*
X138801752Y-45611000D01*
X138801751Y-45611000D01*
X138746000Y-45605509D01*
X138690249Y-45611000D01*
X137929518Y-45611000D01*
X137904494Y-45590463D01*
X137794180Y-45531498D01*
X137674482Y-45495188D01*
X137550000Y-45482928D01*
X136050000Y-45482928D01*
X135925518Y-45495188D01*
X135805820Y-45531498D01*
X135695506Y-45590463D01*
X135598815Y-45669815D01*
X135550000Y-45729296D01*
X135501185Y-45669815D01*
X135404494Y-45590463D01*
X135294180Y-45531498D01*
X135174482Y-45495188D01*
X135050000Y-45482928D01*
X134981104Y-45482928D01*
X134851808Y-45413818D01*
X134581309Y-45331764D01*
X134370492Y-45311000D01*
X130752943Y-45311000D01*
X130629014Y-45209294D01*
X130371034Y-45071401D01*
X130091111Y-44986487D01*
X129872950Y-44965000D01*
X129727050Y-44965000D01*
X129508889Y-44986487D01*
X129228966Y-45071401D01*
X128970986Y-45209294D01*
X128744866Y-45394866D01*
X128559294Y-45620986D01*
X128421401Y-45878966D01*
X128336487Y-46158889D01*
X128307815Y-46450000D01*
X125660000Y-46450000D01*
X125660000Y-43650000D01*
X128311928Y-43650000D01*
X128324188Y-43774482D01*
X128360498Y-43894180D01*
X128419463Y-44004494D01*
X128498815Y-44101185D01*
X128595506Y-44180537D01*
X128705820Y-44239502D01*
X128825518Y-44275812D01*
X128950000Y-44288072D01*
X129514250Y-44285000D01*
X129673000Y-44126250D01*
X129673000Y-42927000D01*
X129927000Y-42927000D01*
X129927000Y-44126250D01*
X130085750Y-44285000D01*
X130650000Y-44288072D01*
X130774482Y-44275812D01*
X130894180Y-44239502D01*
X131004494Y-44180537D01*
X131101185Y-44101185D01*
X131180537Y-44004494D01*
X131239502Y-43894180D01*
X131275812Y-43774482D01*
X131288072Y-43650000D01*
X131285000Y-43085750D01*
X131126250Y-42927000D01*
X129927000Y-42927000D01*
X129673000Y-42927000D01*
X128473750Y-42927000D01*
X128315000Y-43085750D01*
X128311928Y-43650000D01*
X125660000Y-43650000D01*
X125660000Y-41950000D01*
X128311928Y-41950000D01*
X128315000Y-42514250D01*
X128473750Y-42673000D01*
X129673000Y-42673000D01*
X129673000Y-41473750D01*
X129927000Y-41473750D01*
X129927000Y-42673000D01*
X131126250Y-42673000D01*
X131285000Y-42514250D01*
X131288072Y-41950000D01*
X131275812Y-41825518D01*
X131239502Y-41705820D01*
X131180537Y-41595506D01*
X131101185Y-41498815D01*
X131004494Y-41419463D01*
X130894180Y-41360498D01*
X130859573Y-41350000D01*
X153311928Y-41350000D01*
X153324188Y-41474482D01*
X153360498Y-41594180D01*
X153419463Y-41704494D01*
X153498815Y-41801185D01*
X153595506Y-41880537D01*
X153705820Y-41939502D01*
X153825518Y-41975812D01*
X153950000Y-41988072D01*
X154914250Y-41985000D01*
X155073000Y-41826250D01*
X155073000Y-39477000D01*
X155327000Y-39477000D01*
X155327000Y-41826250D01*
X155485750Y-41985000D01*
X156450000Y-41988072D01*
X156574482Y-41975812D01*
X156659572Y-41950000D01*
X161311928Y-41950000D01*
X161315000Y-42514250D01*
X161473750Y-42673000D01*
X162673000Y-42673000D01*
X162673000Y-41473750D01*
X162927000Y-41473750D01*
X162927000Y-42673000D01*
X164126250Y-42673000D01*
X164285000Y-42514250D01*
X164288072Y-41950000D01*
X164275812Y-41825518D01*
X164239502Y-41705820D01*
X164180537Y-41595506D01*
X164101185Y-41498815D01*
X164004494Y-41419463D01*
X163894180Y-41360498D01*
X163774482Y-41324188D01*
X163650000Y-41311928D01*
X163085750Y-41315000D01*
X162927000Y-41473750D01*
X162673000Y-41473750D01*
X162514250Y-41315000D01*
X161950000Y-41311928D01*
X161825518Y-41324188D01*
X161705820Y-41360498D01*
X161595506Y-41419463D01*
X161498815Y-41498815D01*
X161419463Y-41595506D01*
X161360498Y-41705820D01*
X161324188Y-41825518D01*
X161311928Y-41950000D01*
X156659572Y-41950000D01*
X156694180Y-41939502D01*
X156804494Y-41880537D01*
X156901185Y-41801185D01*
X156980537Y-41704494D01*
X157039502Y-41594180D01*
X157075812Y-41474482D01*
X157088072Y-41350000D01*
X157085000Y-39635750D01*
X156926250Y-39477000D01*
X155327000Y-39477000D01*
X155073000Y-39477000D01*
X153473750Y-39477000D01*
X153315000Y-39635750D01*
X153311928Y-41350000D01*
X130859573Y-41350000D01*
X130774482Y-41324188D01*
X130650000Y-41311928D01*
X130085750Y-41315000D01*
X129927000Y-41473750D01*
X129673000Y-41473750D01*
X129514250Y-41315000D01*
X128950000Y-41311928D01*
X128825518Y-41324188D01*
X128705820Y-41360498D01*
X128595506Y-41419463D01*
X128498815Y-41498815D01*
X128419463Y-41595506D01*
X128360498Y-41705820D01*
X128324188Y-41825518D01*
X128311928Y-41950000D01*
X125660000Y-41950000D01*
X125660000Y-38032279D01*
X125688625Y-37740341D01*
X125764035Y-37490571D01*
X125838778Y-37350000D01*
X153311928Y-37350000D01*
X153315000Y-39064250D01*
X153473750Y-39223000D01*
X155073000Y-39223000D01*
X155073000Y-36873750D01*
X155327000Y-36873750D01*
X155327000Y-39223000D01*
X156926250Y-39223000D01*
X157085000Y-39064250D01*
X157088072Y-37350000D01*
X157075812Y-37225518D01*
X157039502Y-37105820D01*
X156980537Y-36995506D01*
X156901185Y-36898815D01*
X156804494Y-36819463D01*
X156694180Y-36760498D01*
X156574482Y-36724188D01*
X156450000Y-36711928D01*
X155485750Y-36715000D01*
X155327000Y-36873750D01*
X155073000Y-36873750D01*
X154914250Y-36715000D01*
X153950000Y-36711928D01*
X153825518Y-36724188D01*
X153705820Y-36760498D01*
X153595506Y-36819463D01*
X153498815Y-36898815D01*
X153419463Y-36995506D01*
X153360498Y-37105820D01*
X153324188Y-37225518D01*
X153311928Y-37350000D01*
X125838778Y-37350000D01*
X125886522Y-37260208D01*
X126051422Y-37058020D01*
X126252450Y-36891714D01*
X126481954Y-36767622D01*
X126731195Y-36690469D01*
X127021088Y-36660000D01*
X181967721Y-36660000D01*
X182259659Y-36688625D01*
X182259659Y-36688625D01*
G37*
X182259659Y-36688625D02*
X182509429Y-36764035D01*
X182739792Y-36886522D01*
X182941980Y-37051422D01*
X183108286Y-37252450D01*
X183232378Y-37481954D01*
X183309531Y-37731195D01*
X183340000Y-38021089D01*
X183340000Y-57611154D01*
X183256299Y-57585764D01*
X183045482Y-57565000D01*
X165594396Y-57565000D01*
X161435000Y-53405605D01*
X161435000Y-52800000D01*
X162536928Y-52800000D01*
X162549188Y-52924482D01*
X162585498Y-53044180D01*
X162644463Y-53154494D01*
X162723815Y-53251185D01*
X162820506Y-53330537D01*
X162930820Y-53389502D01*
X163050518Y-53425812D01*
X163175000Y-53438072D01*
X163514250Y-53435000D01*
X163673000Y-53276250D01*
X163673000Y-52177000D01*
X163927000Y-52177000D01*
X163927000Y-53276250D01*
X164085750Y-53435000D01*
X164425000Y-53438072D01*
X164549482Y-53425812D01*
X164669180Y-53389502D01*
X164779494Y-53330537D01*
X164876185Y-53251185D01*
X164955537Y-53154494D01*
X165014502Y-53044180D01*
X165050812Y-52924482D01*
X165063072Y-52800000D01*
X165060000Y-52335750D01*
X164901250Y-52177000D01*
X163927000Y-52177000D01*
X163673000Y-52177000D01*
X162698750Y-52177000D01*
X162540000Y-52335750D01*
X162536928Y-52800000D01*
X161435000Y-52800000D01*
X161435000Y-50935000D01*
X162653085Y-50935000D01*
X162644463Y-50945506D01*
X162585498Y-51055820D01*
X162549188Y-51175518D01*
X162536928Y-51300000D01*
X162540000Y-51764250D01*
X162698750Y-51923000D01*
X163673000Y-51923000D01*
X163673000Y-51903000D01*
X163927000Y-51903000D01*
X163927000Y-51923000D01*
X164901250Y-51923000D01*
X165060000Y-51764250D01*
X165063072Y-51300000D01*
X165050812Y-51175518D01*
X165014502Y-51055820D01*
X164955537Y-50945506D01*
X164876185Y-50848815D01*
X164859351Y-50835000D01*
X166270492Y-50835000D01*
X166481309Y-50814236D01*
X166751808Y-50732182D01*
X166834332Y-50688072D01*
X166950000Y-50688072D01*
X167074482Y-50675812D01*
X167194180Y-50639502D01*
X167304494Y-50580537D01*
X167401185Y-50501185D01*
X167480537Y-50404494D01*
X167539502Y-50294180D01*
X167550000Y-50259573D01*
X167560498Y-50294180D01*
X167619463Y-50404494D01*
X167698815Y-50501185D01*
X167795506Y-50580537D01*
X167905820Y-50639502D01*
X168025518Y-50675812D01*
X168150000Y-50688072D01*
X169650000Y-50688072D01*
X169774482Y-50675812D01*
X169894180Y-50639502D01*
X170004494Y-50580537D01*
X170101185Y-50501185D01*
X170180537Y-50404494D01*
X170190957Y-50385000D01*
X170425001Y-50385000D01*
X170425001Y-50844498D01*
X170358815Y-50898815D01*
X170279463Y-50995506D01*
X170220498Y-51105820D01*
X170184188Y-51225518D01*
X170171928Y-51350000D01*
X170171928Y-53050000D01*
X170184188Y-53174482D01*
X170220498Y-53294180D01*
X170225000Y-53302603D01*
X170225001Y-54697396D01*
X170220498Y-54705820D01*
X170184188Y-54825518D01*
X170171928Y-54950000D01*
X170171928Y-56650000D01*
X170184188Y-56774482D01*
X170220498Y-56894180D01*
X170279463Y-57004494D01*
X170358815Y-57101185D01*
X170455506Y-57180537D01*
X170565820Y-57239502D01*
X170685518Y-57275812D01*
X170810000Y-57288072D01*
X172510000Y-57288072D01*
X172634482Y-57275812D01*
X172754180Y-57239502D01*
X172864494Y-57180537D01*
X172961185Y-57101185D01*
X173040537Y-57004494D01*
X173099502Y-56894180D01*
X173123966Y-56813534D01*
X173199731Y-56897588D01*
X173433080Y-57071641D01*
X173695901Y-57196825D01*
X173843110Y-57241476D01*
X174073000Y-57120155D01*
X174073000Y-55927000D01*
X174327000Y-55927000D01*
X174327000Y-57120155D01*
X174556890Y-57241476D01*
X174704099Y-57196825D01*
X174966920Y-57071641D01*
X175200269Y-56897588D01*
X175395178Y-56681355D01*
X175413855Y-56650000D01*
X176311928Y-56650000D01*
X176324188Y-56774482D01*
X176360498Y-56894180D01*
X176419463Y-57004494D01*
X176498815Y-57101185D01*
X176595506Y-57180537D01*
X176705820Y-57239502D01*
X176825518Y-57275812D01*
X176950000Y-57288072D01*
X177514250Y-57285000D01*
X177673000Y-57126250D01*
X177673000Y-55927000D01*
X177927000Y-55927000D01*
X177927000Y-57126250D01*
X178085750Y-57285000D01*
X178650000Y-57288072D01*
X178774482Y-57275812D01*
X178894180Y-57239502D01*
X179004494Y-57180537D01*
X179101185Y-57101185D01*
X179180537Y-57004494D01*
X179239502Y-56894180D01*
X179275812Y-56774482D01*
X179288072Y-56650000D01*
X179285000Y-56085750D01*
X179126250Y-55927000D01*
X177927000Y-55927000D01*
X177673000Y-55927000D01*
X176473750Y-55927000D01*
X176315000Y-56085750D01*
X176311928Y-56650000D01*
X175413855Y-56650000D01*
X175544157Y-56431252D01*
X175641481Y-56156891D01*
X175520814Y-55927000D01*
X174327000Y-55927000D01*
X174073000Y-55927000D01*
X174053000Y-55927000D01*
X174053000Y-55673000D01*
X174073000Y-55673000D01*
X174073000Y-54479845D01*
X174327000Y-54479845D01*
X174327000Y-55673000D01*
X175520814Y-55673000D01*
X175641481Y-55443109D01*
X175544157Y-55168748D01*
X175413856Y-54950000D01*
X176311928Y-54950000D01*
X176315000Y-55514250D01*
X176473750Y-55673000D01*
X177673000Y-55673000D01*
X177673000Y-54473750D01*
X177927000Y-54473750D01*
X177927000Y-55673000D01*
X179126250Y-55673000D01*
X179285000Y-55514250D01*
X179288072Y-54950000D01*
X179275812Y-54825518D01*
X179239502Y-54705820D01*
X179180537Y-54595506D01*
X179101185Y-54498815D01*
X179004494Y-54419463D01*
X178894180Y-54360498D01*
X178774482Y-54324188D01*
X178650000Y-54311928D01*
X178085750Y-54315000D01*
X177927000Y-54473750D01*
X177673000Y-54473750D01*
X177514250Y-54315000D01*
X176950000Y-54311928D01*
X176825518Y-54324188D01*
X176705820Y-54360498D01*
X176595506Y-54419463D01*
X176498815Y-54498815D01*
X176419463Y-54595506D01*
X176360498Y-54705820D01*
X176324188Y-54825518D01*
X176311928Y-54950000D01*
X175413856Y-54950000D01*
X175395178Y-54918645D01*
X175200269Y-54702412D01*
X174966920Y-54528359D01*
X174704099Y-54403175D01*
X174556890Y-54358524D01*
X174327000Y-54479845D01*
X174073000Y-54479845D01*
X173843110Y-54358524D01*
X173695901Y-54403175D01*
X173433080Y-54528359D01*
X173199731Y-54702412D01*
X173123966Y-54786466D01*
X173099502Y-54705820D01*
X173095000Y-54697397D01*
X173095000Y-53302603D01*
X173099502Y-53294180D01*
X173123966Y-53213534D01*
X173199731Y-53297588D01*
X173433080Y-53471641D01*
X173695901Y-53596825D01*
X173843110Y-53641476D01*
X174073000Y-53520155D01*
X174073000Y-52327000D01*
X174327000Y-52327000D01*
X174327000Y-53520155D01*
X174556890Y-53641476D01*
X174704099Y-53596825D01*
X174966920Y-53471641D01*
X175200269Y-53297588D01*
X175395178Y-53081355D01*
X175544157Y-52831252D01*
X175641481Y-52556891D01*
X175520814Y-52327000D01*
X174327000Y-52327000D01*
X174073000Y-52327000D01*
X174053000Y-52327000D01*
X174053000Y-52073000D01*
X174073000Y-52073000D01*
X174073000Y-50879845D01*
X174327000Y-50879845D01*
X174327000Y-52073000D01*
X175520814Y-52073000D01*
X175641481Y-51843109D01*
X175544157Y-51568748D01*
X175395178Y-51318645D01*
X175200269Y-51102412D01*
X174966920Y-50928359D01*
X174704099Y-50803175D01*
X174556890Y-50758524D01*
X174327000Y-50879845D01*
X174073000Y-50879845D01*
X173843110Y-50758524D01*
X173695901Y-50803175D01*
X173433080Y-50928359D01*
X173199731Y-51102412D01*
X173123966Y-51186466D01*
X173099502Y-51105820D01*
X173040537Y-50995506D01*
X172961185Y-50898815D01*
X172895000Y-50844499D01*
X172895000Y-50089335D01*
X172878101Y-49917758D01*
X172950537Y-49829494D01*
X173009502Y-49719180D01*
X173045812Y-49599482D01*
X173058072Y-49475000D01*
X173058072Y-49191221D01*
X173135574Y-49282844D01*
X173233434Y-49360750D01*
X173344613Y-49418067D01*
X173464838Y-49452593D01*
X173589488Y-49463001D01*
X174044250Y-49460000D01*
X174203000Y-49301250D01*
X174203000Y-48698000D01*
X174457000Y-48698000D01*
X174457000Y-49301250D01*
X174615750Y-49460000D01*
X175070512Y-49463001D01*
X175195162Y-49452593D01*
X175315387Y-49418067D01*
X175426566Y-49360750D01*
X175524426Y-49282844D01*
X175605208Y-49187343D01*
X175665806Y-49077918D01*
X175703891Y-48958773D01*
X175715000Y-48856750D01*
X175556250Y-48698000D01*
X174457000Y-48698000D01*
X174203000Y-48698000D01*
X173103750Y-48698000D01*
X173012162Y-48789588D01*
X173009502Y-48780820D01*
X172950537Y-48670506D01*
X172892674Y-48600000D01*
X172950537Y-48529494D01*
X173009502Y-48419180D01*
X173012162Y-48410412D01*
X173103750Y-48502000D01*
X174203000Y-48502000D01*
X174203000Y-47898750D01*
X174457000Y-47898750D01*
X174457000Y-48502000D01*
X175556250Y-48502000D01*
X175715000Y-48343250D01*
X175703891Y-48241227D01*
X175665806Y-48122082D01*
X175605208Y-48012657D01*
X175524426Y-47917156D01*
X175426566Y-47839250D01*
X175315387Y-47781933D01*
X175195162Y-47747407D01*
X175070512Y-47736999D01*
X174615750Y-47740000D01*
X174457000Y-47898750D01*
X174203000Y-47898750D01*
X174044250Y-47740000D01*
X173589488Y-47736999D01*
X173464838Y-47747407D01*
X173344613Y-47781933D01*
X173233434Y-47839250D01*
X173135574Y-47917156D01*
X173058072Y-48008779D01*
X173058072Y-47725000D01*
X173045812Y-47600518D01*
X173009502Y-47480820D01*
X172950537Y-47370506D01*
X172871185Y-47273815D01*
X172774494Y-47194463D01*
X172735000Y-47173353D01*
X172735000Y-46422621D01*
X172844180Y-46389502D01*
X172954494Y-46330537D01*
X173051185Y-46251185D01*
X173130537Y-46154494D01*
X173189502Y-46044180D01*
X173225812Y-45924482D01*
X173238072Y-45800000D01*
X173961928Y-45800000D01*
X173974188Y-45924482D01*
X174010498Y-46044180D01*
X174069463Y-46154494D01*
X174148815Y-46251185D01*
X174245506Y-46330537D01*
X174355820Y-46389502D01*
X174475518Y-46425812D01*
X174600000Y-46438072D01*
X175314250Y-46435000D01*
X175473000Y-46276250D01*
X175473000Y-45127000D01*
X175727000Y-45127000D01*
X175727000Y-46276250D01*
X175885750Y-46435000D01*
X176600000Y-46438072D01*
X176724482Y-46425812D01*
X176844180Y-46389502D01*
X176954494Y-46330537D01*
X177051185Y-46251185D01*
X177130537Y-46154494D01*
X177189502Y-46044180D01*
X177225812Y-45924482D01*
X177238072Y-45800000D01*
X177235000Y-45285750D01*
X177076250Y-45127000D01*
X175727000Y-45127000D01*
X175473000Y-45127000D01*
X174123750Y-45127000D01*
X173965000Y-45285750D01*
X173961928Y-45800000D01*
X173238072Y-45800000D01*
X173238072Y-44200000D01*
X173961928Y-44200000D01*
X173965000Y-44714250D01*
X174123750Y-44873000D01*
X175473000Y-44873000D01*
X175473000Y-43723750D01*
X175727000Y-43723750D01*
X175727000Y-44873000D01*
X177076250Y-44873000D01*
X177235000Y-44714250D01*
X177238072Y-44200000D01*
X177225812Y-44075518D01*
X177189502Y-43955820D01*
X177130537Y-43845506D01*
X177051185Y-43748815D01*
X176954494Y-43669463D01*
X176844180Y-43610498D01*
X176724482Y-43574188D01*
X176600000Y-43561928D01*
X175885750Y-43565000D01*
X175727000Y-43723750D01*
X175473000Y-43723750D01*
X175314250Y-43565000D01*
X174600000Y-43561928D01*
X174475518Y-43574188D01*
X174355820Y-43610498D01*
X174245506Y-43669463D01*
X174148815Y-43748815D01*
X174069463Y-43845506D01*
X174010498Y-43955820D01*
X173974188Y-44075518D01*
X173961928Y-44200000D01*
X173238072Y-44200000D01*
X173225812Y-44075518D01*
X173189502Y-43955820D01*
X173130537Y-43845506D01*
X173051185Y-43748815D01*
X172954494Y-43669463D01*
X172844180Y-43610498D01*
X172724482Y-43574188D01*
X172600000Y-43561928D01*
X171639304Y-43561928D01*
X171600000Y-43558057D01*
X171560696Y-43561928D01*
X170600000Y-43561928D01*
X170475518Y-43574188D01*
X170355820Y-43610498D01*
X170245506Y-43669463D01*
X170148815Y-43748815D01*
X170069463Y-43845506D01*
X170037662Y-43905000D01*
X164233718Y-43905000D01*
X164239502Y-43894180D01*
X164275812Y-43774482D01*
X164288072Y-43650000D01*
X164285000Y-43085750D01*
X164126250Y-42927000D01*
X162927000Y-42927000D01*
X162927000Y-42947000D01*
X162673000Y-42947000D01*
X162673000Y-42927000D01*
X161473750Y-42927000D01*
X161315000Y-43085750D01*
X161311928Y-43650000D01*
X161324188Y-43774482D01*
X161360498Y-43894180D01*
X161419463Y-44004494D01*
X161428085Y-44015000D01*
X157088072Y-44015000D01*
X157088072Y-43450000D01*
X157075812Y-43325518D01*
X157039502Y-43205820D01*
X156980537Y-43095506D01*
X156901185Y-42998815D01*
X156804494Y-42919463D01*
X156694180Y-42860498D01*
X156574482Y-42824188D01*
X156450000Y-42811928D01*
X153950000Y-42811928D01*
X153825518Y-42824188D01*
X153705820Y-42860498D01*
X153595506Y-42919463D01*
X153498815Y-42998815D01*
X153419463Y-43095506D01*
X153360498Y-43205820D01*
X153324188Y-43325518D01*
X153311928Y-43450000D01*
X153311928Y-44015000D01*
X149979508Y-44015000D01*
X149768691Y-44035764D01*
X149498192Y-44117818D01*
X149248899Y-44251068D01*
X149030392Y-44430392D01*
X148851068Y-44648899D01*
X148717818Y-44898192D01*
X148635764Y-45168691D01*
X148625886Y-45268982D01*
X147736863Y-46158006D01*
X147707714Y-46181928D01*
X147625000Y-46181928D01*
X147500518Y-46194188D01*
X147380820Y-46230498D01*
X147270506Y-46289463D01*
X147173815Y-46368815D01*
X147094463Y-46465506D01*
X147035498Y-46575820D01*
X146999188Y-46695518D01*
X146986928Y-46820000D01*
X146986928Y-47370000D01*
X146999188Y-47494482D01*
X147035498Y-47614180D01*
X147094463Y-47724494D01*
X147098982Y-47730000D01*
X147094463Y-47735506D01*
X147035498Y-47845820D01*
X146999188Y-47965518D01*
X146986928Y-48090000D01*
X146986928Y-48640000D01*
X146999188Y-48764482D01*
X147035498Y-48884180D01*
X147094463Y-48994494D01*
X147098982Y-49000000D01*
X147094463Y-49005506D01*
X147035498Y-49115820D01*
X146999188Y-49235518D01*
X146986928Y-49360000D01*
X146986928Y-49910000D01*
X146999188Y-50034482D01*
X147035498Y-50154180D01*
X147094463Y-50264494D01*
X147098982Y-50270000D01*
X147094463Y-50275506D01*
X147035498Y-50385820D01*
X146999188Y-50505518D01*
X146986928Y-50630000D01*
X146986928Y-51180000D01*
X146999188Y-51304482D01*
X147035498Y-51424180D01*
X147094463Y-51534494D01*
X147173815Y-51631185D01*
X147270506Y-51710537D01*
X147365000Y-51761046D01*
X147365001Y-53344239D01*
X147359509Y-53400000D01*
X147381423Y-53622498D01*
X147446324Y-53836446D01*
X147446325Y-53836447D01*
X147551717Y-54033623D01*
X147693552Y-54206449D01*
X147736860Y-54241991D01*
X148011928Y-54517059D01*
X148011928Y-54950000D01*
X148024188Y-55074482D01*
X148060498Y-55194180D01*
X148119463Y-55304494D01*
X148198815Y-55401185D01*
X148295506Y-55480537D01*
X148405820Y-55539502D01*
X148440427Y-55550000D01*
X148405820Y-55560498D01*
X148295506Y-55619463D01*
X148198815Y-55698815D01*
X148119463Y-55795506D01*
X148060498Y-55905820D01*
X148024188Y-56025518D01*
X148011928Y-56150000D01*
X148011928Y-56265669D01*
X147967818Y-56348193D01*
X147885764Y-56618692D01*
X147865000Y-56829509D01*
X147865001Y-59329499D01*
X147865000Y-59329509D01*
X147865001Y-61770492D01*
X147885765Y-61981309D01*
X147967819Y-62251808D01*
X148011928Y-62334330D01*
X148011928Y-62450000D01*
X148024188Y-62574482D01*
X148060498Y-62694180D01*
X148119463Y-62804494D01*
X148198815Y-62901185D01*
X148295506Y-62980537D01*
X148405820Y-63039502D01*
X148440427Y-63050000D01*
X148405820Y-63060498D01*
X148295506Y-63119463D01*
X148240019Y-63165000D01*
X147029508Y-63165000D01*
X146818691Y-63185764D01*
X146548192Y-63267818D01*
X146418896Y-63336928D01*
X146350000Y-63336928D01*
X146225518Y-63349188D01*
X146105820Y-63385498D01*
X145995506Y-63444463D01*
X145898815Y-63523815D01*
X145850000Y-63583296D01*
X145801185Y-63523815D01*
X145704494Y-63444463D01*
X145594180Y-63385498D01*
X145474482Y-63349188D01*
X145350000Y-63336928D01*
X145281101Y-63336928D01*
X145151807Y-63267819D01*
X144881308Y-63185764D01*
X144599999Y-63158057D01*
X144318691Y-63185764D01*
X144057486Y-63265000D01*
X143735000Y-63265000D01*
X143735000Y-58309508D01*
X143714236Y-58098691D01*
X143632182Y-57828192D01*
X143498932Y-57578899D01*
X143475000Y-57549738D01*
X143475000Y-56444248D01*
X143463072Y-56323140D01*
X143463072Y-55865000D01*
X143450812Y-55740518D01*
X143414502Y-55620820D01*
X143355537Y-55510506D01*
X143276185Y-55413815D01*
X143179494Y-55334463D01*
X143069180Y-55275498D01*
X142949482Y-55239188D01*
X142825000Y-55226928D01*
X142235000Y-55226928D01*
X142235000Y-51761046D01*
X142329494Y-51710537D01*
X142426185Y-51631185D01*
X142505537Y-51534494D01*
X142564502Y-51424180D01*
X142600812Y-51304482D01*
X142613072Y-51180000D01*
X142613072Y-50630000D01*
X142600812Y-50505518D01*
X142564502Y-50385820D01*
X142505537Y-50275506D01*
X142501184Y-50270202D01*
X142503934Y-50266881D01*
X142563395Y-50156834D01*
X142600244Y-50037301D01*
X142610000Y-49920750D01*
X142451250Y-49762000D01*
X141227000Y-49762000D01*
X141227000Y-49777017D01*
X141100000Y-49764509D01*
X140973000Y-49777017D01*
X140973000Y-49762000D01*
X139748750Y-49762000D01*
X139590000Y-49920750D01*
X139599756Y-50037301D01*
X139636605Y-50156834D01*
X139696066Y-50266881D01*
X139698816Y-50270202D01*
X139694463Y-50275506D01*
X139635498Y-50385820D01*
X139599188Y-50505518D01*
X139586928Y-50630000D01*
X139586928Y-51180000D01*
X139599188Y-51304482D01*
X139635498Y-51424180D01*
X139694463Y-51534494D01*
X139773815Y-51631185D01*
X139870506Y-51710537D01*
X139965000Y-51761046D01*
X139965001Y-55226928D01*
X139315000Y-55226928D01*
X139190518Y-55239188D01*
X139070820Y-55275498D01*
X138960506Y-55334463D01*
X138863815Y-55413815D01*
X138784463Y-55510506D01*
X138725498Y-55620820D01*
X138689188Y-55740518D01*
X138676928Y-55865000D01*
X138676928Y-56323141D01*
X138665000Y-56444249D01*
X138665001Y-58840018D01*
X138619463Y-58895506D01*
X138560498Y-59005820D01*
X138524188Y-59125518D01*
X138511928Y-59250000D01*
X138511928Y-60750000D01*
X138524188Y-60874482D01*
X138560498Y-60994180D01*
X138619463Y-61104494D01*
X138698815Y-61201185D01*
X138795506Y-61280537D01*
X138905820Y-61339502D01*
X138940427Y-61350000D01*
X138905820Y-61360498D01*
X138795506Y-61419463D01*
X138698815Y-61498815D01*
X138619463Y-61595506D01*
X138560498Y-61705820D01*
X138524188Y-61825518D01*
X138511928Y-61950000D01*
X138511928Y-62065669D01*
X138467818Y-62148193D01*
X138385764Y-62418692D01*
X138365000Y-62629509D01*
X138365001Y-66323353D01*
X138294180Y-66285498D01*
X138174482Y-66249188D01*
X138050000Y-66236928D01*
X137585750Y-66240000D01*
X137427000Y-66398750D01*
X137427000Y-67373000D01*
X137447000Y-67373000D01*
X137447000Y-67627000D01*
X137427000Y-67627000D01*
X137427000Y-68601250D01*
X137585750Y-68760000D01*
X138050000Y-68763072D01*
X138174482Y-68750812D01*
X138294180Y-68714502D01*
X138404494Y-68655537D01*
X138501185Y-68576185D01*
X138550000Y-68516704D01*
X138598815Y-68576185D01*
X138665000Y-68630502D01*
X138665001Y-72283032D01*
X138656928Y-72365000D01*
X138656928Y-72823141D01*
X138639509Y-73000000D01*
X138656928Y-73176859D01*
X138656928Y-73635000D01*
X138669188Y-73759482D01*
X138705498Y-73879180D01*
X138764463Y-73989494D01*
X138843815Y-74086185D01*
X138940506Y-74165537D01*
X139050820Y-74224502D01*
X139170518Y-74260812D01*
X139295000Y-74273072D01*
X139915000Y-74273072D01*
X139915001Y-76743442D01*
X139769294Y-76920986D01*
X139631401Y-77178966D01*
X139546487Y-77458889D01*
X139517815Y-77750000D01*
X139546487Y-78041111D01*
X139631401Y-78321034D01*
X139769294Y-78579014D01*
X139954866Y-78805134D01*
X140180986Y-78990706D01*
X140438966Y-79128599D01*
X140718889Y-79213513D01*
X140937050Y-79235000D01*
X141082950Y-79235000D01*
X141301111Y-79213513D01*
X141581034Y-79128599D01*
X141839014Y-78990706D01*
X142065134Y-78805134D01*
X142089607Y-78775313D01*
X142110498Y-78844180D01*
X142169463Y-78954494D01*
X142248815Y-79051185D01*
X142345506Y-79130537D01*
X142455820Y-79189502D01*
X142575518Y-79225812D01*
X142700000Y-79238072D01*
X143264250Y-79235000D01*
X143423000Y-79076250D01*
X143423000Y-77877000D01*
X143677000Y-77877000D01*
X143677000Y-79076250D01*
X143835750Y-79235000D01*
X144400000Y-79238072D01*
X144524482Y-79225812D01*
X144644180Y-79189502D01*
X144754494Y-79130537D01*
X144851185Y-79051185D01*
X144930537Y-78954494D01*
X144989502Y-78844180D01*
X145025812Y-78724482D01*
X145038072Y-78600000D01*
X145035000Y-78035750D01*
X144876250Y-77877000D01*
X143677000Y-77877000D01*
X143423000Y-77877000D01*
X143403000Y-77877000D01*
X143403000Y-77623000D01*
X143423000Y-77623000D01*
X143423000Y-76423750D01*
X143677000Y-76423750D01*
X143677000Y-77623000D01*
X144876250Y-77623000D01*
X145035000Y-77464250D01*
X145038072Y-76900000D01*
X145025812Y-76775518D01*
X144989502Y-76655820D01*
X144930537Y-76545506D01*
X144851185Y-76448815D01*
X144754494Y-76369463D01*
X144644180Y-76310498D01*
X144524482Y-76274188D01*
X144400000Y-76261928D01*
X143835750Y-76265000D01*
X143677000Y-76423750D01*
X143423000Y-76423750D01*
X143264250Y-76265000D01*
X142700000Y-76261928D01*
X142575518Y-76274188D01*
X142455820Y-76310498D01*
X142345506Y-76369463D01*
X142248815Y-76448815D01*
X142185000Y-76526574D01*
X142185000Y-74273072D01*
X142805000Y-74273072D01*
X142929482Y-74260812D01*
X143049180Y-74224502D01*
X143159494Y-74165537D01*
X143256185Y-74086185D01*
X143335537Y-73989494D01*
X143394502Y-73879180D01*
X143430812Y-73759482D01*
X143443072Y-73635000D01*
X143443072Y-73176860D01*
X143455000Y-73055752D01*
X143455000Y-72829039D01*
X150388096Y-72829039D01*
X150405633Y-72911818D01*
X150516285Y-73171646D01*
X150675500Y-73404895D01*
X150877161Y-73602601D01*
X151113517Y-73757166D01*
X151375486Y-73862650D01*
X151653000Y-73915000D01*
X152053000Y-73915000D01*
X152053000Y-72607000D01*
X152307000Y-72607000D01*
X152307000Y-73915000D01*
X152707000Y-73915000D01*
X152984514Y-73862650D01*
X153246483Y-73757166D01*
X153482839Y-73602601D01*
X153684500Y-73404895D01*
X153843715Y-73171646D01*
X153954367Y-72911818D01*
X153971904Y-72829039D01*
X153849915Y-72607000D01*
X152307000Y-72607000D01*
X152053000Y-72607000D01*
X150510085Y-72607000D01*
X150388096Y-72829039D01*
X143455000Y-72829039D01*
X143455000Y-72150131D01*
X144570132Y-71035000D01*
X145644499Y-71035000D01*
X145698815Y-71101185D01*
X145795506Y-71180537D01*
X145905820Y-71239502D01*
X146025518Y-71275812D01*
X146150000Y-71288072D01*
X146432439Y-71288072D01*
X146518691Y-71314236D01*
X146729508Y-71335000D01*
X150911413Y-71335000D01*
X150877161Y-71357399D01*
X150675500Y-71555105D01*
X150516285Y-71788354D01*
X150405633Y-72048182D01*
X150388096Y-72130961D01*
X150510085Y-72353000D01*
X152053000Y-72353000D01*
X152053000Y-72333000D01*
X152307000Y-72333000D01*
X152307000Y-72353000D01*
X153849915Y-72353000D01*
X153971904Y-72130961D01*
X153954367Y-72048182D01*
X153843715Y-71788354D01*
X153684500Y-71555105D01*
X153561992Y-71435000D01*
X153729508Y-71435000D01*
X153800000Y-71441943D01*
X153870492Y-71435000D01*
X154081309Y-71414236D01*
X154351808Y-71332182D01*
X154601101Y-71198932D01*
X154819608Y-71019608D01*
X154864554Y-70964841D01*
X156164850Y-69664546D01*
X156219607Y-69619608D01*
X156398932Y-69401101D01*
X156532182Y-69151808D01*
X156614236Y-68881309D01*
X156632210Y-68698815D01*
X156641943Y-68600000D01*
X156635000Y-68529508D01*
X156635000Y-64860000D01*
X157958057Y-64860000D01*
X157985764Y-65141309D01*
X158067818Y-65411808D01*
X158201068Y-65661101D01*
X158380392Y-65879608D01*
X158598899Y-66058932D01*
X158731858Y-66130000D01*
X158598899Y-66201068D01*
X158380392Y-66380392D01*
X158201068Y-66598899D01*
X158067818Y-66848192D01*
X157985764Y-67118691D01*
X157958057Y-67400000D01*
X157985764Y-67681309D01*
X158067818Y-67951808D01*
X158201068Y-68201101D01*
X158380392Y-68419608D01*
X158598899Y-68598932D01*
X158731858Y-68670000D01*
X158598899Y-68741068D01*
X158380392Y-68920392D01*
X158201068Y-69138899D01*
X158067818Y-69388192D01*
X157985764Y-69658691D01*
X157958057Y-69940000D01*
X157985764Y-70221309D01*
X158067818Y-70491808D01*
X158201068Y-70741101D01*
X158380392Y-70959608D01*
X158493482Y-71052419D01*
X158475518Y-71054188D01*
X158355820Y-71090498D01*
X158245506Y-71149463D01*
X158148815Y-71228815D01*
X158069463Y-71325506D01*
X158010498Y-71435820D01*
X157974188Y-71555518D01*
X157961928Y-71680000D01*
X157961928Y-73280000D01*
X157974188Y-73404482D01*
X158010498Y-73524180D01*
X158069463Y-73634494D01*
X158148815Y-73731185D01*
X158245506Y-73810537D01*
X158355820Y-73869502D01*
X158365000Y-73872287D01*
X158365001Y-77283030D01*
X158296487Y-77508889D01*
X158267815Y-77800000D01*
X158296487Y-78091111D01*
X158381401Y-78371034D01*
X158519294Y-78629014D01*
X158704866Y-78855134D01*
X158930986Y-79040706D01*
X159188966Y-79178599D01*
X159468889Y-79263513D01*
X159687050Y-79285000D01*
X159832950Y-79285000D01*
X160051111Y-79263513D01*
X160331034Y-79178599D01*
X160589014Y-79040706D01*
X160815134Y-78855134D01*
X160839607Y-78825313D01*
X160860498Y-78894180D01*
X160919463Y-79004494D01*
X160998815Y-79101185D01*
X161095506Y-79180537D01*
X161205820Y-79239502D01*
X161325518Y-79275812D01*
X161450000Y-79288072D01*
X162014250Y-79285000D01*
X162173000Y-79126250D01*
X162173000Y-77927000D01*
X162427000Y-77927000D01*
X162427000Y-79126250D01*
X162585750Y-79285000D01*
X163150000Y-79288072D01*
X163274482Y-79275812D01*
X163394180Y-79239502D01*
X163504494Y-79180537D01*
X163601185Y-79101185D01*
X163680537Y-79004494D01*
X163739502Y-78894180D01*
X163775812Y-78774482D01*
X163788072Y-78650000D01*
X163785000Y-78085750D01*
X163626250Y-77927000D01*
X162427000Y-77927000D01*
X162173000Y-77927000D01*
X162153000Y-77927000D01*
X162153000Y-77673000D01*
X162173000Y-77673000D01*
X162173000Y-76473750D01*
X162427000Y-76473750D01*
X162427000Y-77673000D01*
X163626250Y-77673000D01*
X163785000Y-77514250D01*
X163788072Y-76950000D01*
X163775812Y-76825518D01*
X163739502Y-76705820D01*
X163680537Y-76595506D01*
X163601185Y-76498815D01*
X163504494Y-76419463D01*
X163394180Y-76360498D01*
X163274482Y-76324188D01*
X163150000Y-76311928D01*
X162585750Y-76315000D01*
X162427000Y-76473750D01*
X162173000Y-76473750D01*
X162014250Y-76315000D01*
X161450000Y-76311928D01*
X161325518Y-76324188D01*
X161235000Y-76351646D01*
X161235000Y-73915000D01*
X163249508Y-73915000D01*
X163320000Y-73921943D01*
X163390492Y-73915000D01*
X163601309Y-73894236D01*
X163871808Y-73812182D01*
X164121101Y-73678932D01*
X164140426Y-73663072D01*
X164150000Y-73663072D01*
X164274482Y-73650812D01*
X164394180Y-73614502D01*
X164504494Y-73555537D01*
X164601185Y-73476185D01*
X164650000Y-73416704D01*
X164698815Y-73476185D01*
X164795506Y-73555537D01*
X164905820Y-73614502D01*
X165025518Y-73650812D01*
X165150000Y-73663072D01*
X165218896Y-73663072D01*
X165348192Y-73732182D01*
X165618691Y-73814236D01*
X165829508Y-73835000D01*
X169070492Y-73835000D01*
X169281309Y-73814236D01*
X169551808Y-73732182D01*
X169634332Y-73688072D01*
X169750000Y-73688072D01*
X169874482Y-73675812D01*
X169994180Y-73639502D01*
X170104494Y-73580537D01*
X170201185Y-73501185D01*
X170280537Y-73404494D01*
X170339502Y-73294180D01*
X170350000Y-73259573D01*
X170360498Y-73294180D01*
X170419463Y-73404494D01*
X170498815Y-73501185D01*
X170595506Y-73580537D01*
X170705820Y-73639502D01*
X170825518Y-73675812D01*
X170950000Y-73688072D01*
X171058677Y-73688072D01*
X175711928Y-78341325D01*
X175711928Y-78650000D01*
X175724188Y-78774482D01*
X175760498Y-78894180D01*
X175819463Y-79004494D01*
X175898815Y-79101185D01*
X175995506Y-79180537D01*
X176105820Y-79239502D01*
X176225518Y-79275812D01*
X176350000Y-79288072D01*
X178050000Y-79288072D01*
X178174482Y-79275812D01*
X178294180Y-79239502D01*
X178404494Y-79180537D01*
X178501185Y-79101185D01*
X178580537Y-79004494D01*
X178639502Y-78894180D01*
X178663966Y-78813534D01*
X178739731Y-78897588D01*
X178973080Y-79071641D01*
X179235901Y-79196825D01*
X179383110Y-79241476D01*
X179613000Y-79120155D01*
X179613000Y-77927000D01*
X179867000Y-77927000D01*
X179867000Y-79120155D01*
X180096890Y-79241476D01*
X180244099Y-79196825D01*
X180506920Y-79071641D01*
X180740269Y-78897588D01*
X180935178Y-78681355D01*
X181084157Y-78431252D01*
X181181481Y-78156891D01*
X181060814Y-77927000D01*
X179867000Y-77927000D01*
X179613000Y-77927000D01*
X179593000Y-77927000D01*
X179593000Y-77673000D01*
X179613000Y-77673000D01*
X179613000Y-76479845D01*
X179867000Y-76479845D01*
X179867000Y-77673000D01*
X181060814Y-77673000D01*
X181181481Y-77443109D01*
X181084157Y-77168748D01*
X180935178Y-76918645D01*
X180740269Y-76702412D01*
X180506920Y-76528359D01*
X180244099Y-76403175D01*
X180096890Y-76358524D01*
X179867000Y-76479845D01*
X179613000Y-76479845D01*
X179383110Y-76358524D01*
X179235901Y-76403175D01*
X178973080Y-76528359D01*
X178739731Y-76702412D01*
X178663966Y-76786466D01*
X178639502Y-76705820D01*
X178580537Y-76595506D01*
X178501185Y-76498815D01*
X178404494Y-76419463D01*
X178294180Y-76360498D01*
X178174482Y-76324188D01*
X178050000Y-76311928D01*
X177741325Y-76311928D01*
X173264415Y-71835020D01*
X173615565Y-71835020D01*
X173671316Y-71840511D01*
X173727067Y-71835020D01*
X173727068Y-71835020D01*
X173893815Y-71818597D01*
X174107763Y-71753696D01*
X174304939Y-71648304D01*
X174477765Y-71506469D01*
X174513312Y-71463155D01*
X174688395Y-71288072D01*
X175925000Y-71288072D01*
X176049482Y-71275812D01*
X176169180Y-71239502D01*
X176279494Y-71180537D01*
X176376185Y-71101185D01*
X176455537Y-71004494D01*
X176514502Y-70894180D01*
X176550812Y-70774482D01*
X176563072Y-70650000D01*
X176563072Y-69150000D01*
X176550812Y-69025518D01*
X176514502Y-68905820D01*
X176455537Y-68795506D01*
X176376185Y-68698815D01*
X176316704Y-68650000D01*
X176376185Y-68601185D01*
X176455537Y-68504494D01*
X176514502Y-68394180D01*
X176550812Y-68274482D01*
X176563072Y-68150000D01*
X176563072Y-68081104D01*
X176632182Y-67951808D01*
X176714236Y-67681309D01*
X176741943Y-67400000D01*
X176714236Y-67118691D01*
X176632182Y-66848192D01*
X176563072Y-66718896D01*
X176563072Y-66650000D01*
X176550812Y-66525518D01*
X176514502Y-66405820D01*
X176455537Y-66295506D01*
X176376185Y-66198815D01*
X176279494Y-66119463D01*
X176169180Y-66060498D01*
X176049482Y-66024188D01*
X175925000Y-66011928D01*
X175667561Y-66011928D01*
X175581309Y-65985764D01*
X175370492Y-65965000D01*
X174920497Y-65965000D01*
X174850002Y-65958057D01*
X174568693Y-65985763D01*
X174322325Y-66060498D01*
X174298194Y-66067818D01*
X174048901Y-66201068D01*
X173830394Y-66380392D01*
X173785452Y-66435154D01*
X173085000Y-67135606D01*
X173085000Y-64428373D01*
X173105820Y-64439502D01*
X173225518Y-64475812D01*
X173350000Y-64488072D01*
X173914250Y-64485000D01*
X174073000Y-64326250D01*
X174073000Y-63127000D01*
X174327000Y-63127000D01*
X174327000Y-64326250D01*
X174485750Y-64485000D01*
X175050000Y-64488072D01*
X175174482Y-64475812D01*
X175294180Y-64439502D01*
X175404494Y-64380537D01*
X175501185Y-64301185D01*
X175580537Y-64204494D01*
X175639502Y-64094180D01*
X175675812Y-63974482D01*
X175688072Y-63850000D01*
X175685000Y-63285750D01*
X175526250Y-63127000D01*
X174327000Y-63127000D01*
X174073000Y-63127000D01*
X174053000Y-63127000D01*
X174053000Y-62873000D01*
X174073000Y-62873000D01*
X174073000Y-61673750D01*
X174327000Y-61673750D01*
X174327000Y-62873000D01*
X175526250Y-62873000D01*
X175685000Y-62714250D01*
X175688072Y-62150000D01*
X175675812Y-62025518D01*
X175639502Y-61905820D01*
X175580537Y-61795506D01*
X175501185Y-61698815D01*
X175404494Y-61619463D01*
X175294180Y-61560498D01*
X175174482Y-61524188D01*
X175050000Y-61511928D01*
X174485750Y-61515000D01*
X174327000Y-61673750D01*
X174073000Y-61673750D01*
X173914250Y-61515000D01*
X173350000Y-61511928D01*
X173225518Y-61524188D01*
X173105820Y-61560498D01*
X172995506Y-61619463D01*
X172898815Y-61698815D01*
X172819463Y-61795506D01*
X172760498Y-61905820D01*
X172739607Y-61974687D01*
X172715134Y-61944866D01*
X172489014Y-61759294D01*
X172231034Y-61621401D01*
X171951111Y-61536487D01*
X171732950Y-61515000D01*
X171587050Y-61515000D01*
X171368889Y-61536487D01*
X171088966Y-61621401D01*
X170830986Y-61759294D01*
X170604866Y-61944866D01*
X170419294Y-62170986D01*
X170281401Y-62428966D01*
X170196487Y-62708889D01*
X170167815Y-63000000D01*
X170196487Y-63291111D01*
X170215001Y-63352143D01*
X170215001Y-64197503D01*
X170148932Y-64073897D01*
X169969608Y-63855390D01*
X169914851Y-63810452D01*
X168239546Y-62135149D01*
X168194600Y-62080382D01*
X167976093Y-61901058D01*
X167726800Y-61767808D01*
X167456301Y-61685754D01*
X167245484Y-61664990D01*
X167174992Y-61658047D01*
X167104500Y-61664990D01*
X164495503Y-61664990D01*
X164425008Y-61658047D01*
X164143699Y-61685753D01*
X163901267Y-61759294D01*
X163873200Y-61767808D01*
X163623907Y-61901058D01*
X163405400Y-62080382D01*
X163360458Y-62135144D01*
X162335155Y-63160448D01*
X162280392Y-63205391D01*
X162101068Y-63423898D01*
X161987201Y-63636928D01*
X161967818Y-63673191D01*
X161885764Y-63943690D01*
X161858057Y-64224998D01*
X161865000Y-64295490D01*
X161865000Y-65965000D01*
X161115558Y-65965000D01*
X161219608Y-65879608D01*
X161398932Y-65661101D01*
X161532182Y-65411808D01*
X161614236Y-65141309D01*
X161641943Y-64860000D01*
X161614236Y-64578691D01*
X161532182Y-64308192D01*
X161398932Y-64058899D01*
X161235000Y-63859147D01*
X161235000Y-62264468D01*
X161251185Y-62251185D01*
X161330537Y-62154494D01*
X161389502Y-62044180D01*
X161425812Y-61924482D01*
X161438072Y-61800000D01*
X161438072Y-60200000D01*
X161425812Y-60075518D01*
X161389502Y-59955820D01*
X161330537Y-59845506D01*
X161251185Y-59748815D01*
X161154494Y-59669463D01*
X161044180Y-59610498D01*
X160924482Y-59574188D01*
X160800000Y-59561928D01*
X159839302Y-59561928D01*
X159800000Y-59558057D01*
X159760698Y-59561928D01*
X158800000Y-59561928D01*
X158675518Y-59574188D01*
X158555820Y-59610498D01*
X158445506Y-59669463D01*
X158348815Y-59748815D01*
X158269463Y-59845506D01*
X158210498Y-59955820D01*
X158174188Y-60075518D01*
X158161928Y-60200000D01*
X158161928Y-61800000D01*
X158174188Y-61924482D01*
X158210498Y-62044180D01*
X158269463Y-62154494D01*
X158348815Y-62251185D01*
X158365000Y-62264468D01*
X158365001Y-63859146D01*
X158201068Y-64058899D01*
X158067818Y-64308192D01*
X157985764Y-64578691D01*
X157958057Y-64860000D01*
X156635000Y-64860000D01*
X156635000Y-64070493D01*
X156641943Y-64000001D01*
X156614236Y-63718692D01*
X156532182Y-63448194D01*
X156524090Y-63433055D01*
X156398932Y-63198901D01*
X156219608Y-62980394D01*
X156164846Y-62935452D01*
X155589322Y-62359928D01*
X155673000Y-62276250D01*
X155673000Y-61127000D01*
X155927000Y-61127000D01*
X155927000Y-62276250D01*
X156085750Y-62435000D01*
X156800000Y-62438072D01*
X156924482Y-62425812D01*
X157044180Y-62389502D01*
X157154494Y-62330537D01*
X157251185Y-62251185D01*
X157330537Y-62154494D01*
X157389502Y-62044180D01*
X157425812Y-61924482D01*
X157438072Y-61800000D01*
X157435000Y-61285750D01*
X157276250Y-61127000D01*
X155927000Y-61127000D01*
X155673000Y-61127000D01*
X155653000Y-61127000D01*
X155653000Y-60873000D01*
X155673000Y-60873000D01*
X155673000Y-59723750D01*
X155927000Y-59723750D01*
X155927000Y-60873000D01*
X157276250Y-60873000D01*
X157435000Y-60714250D01*
X157438072Y-60200000D01*
X157425812Y-60075518D01*
X157389502Y-59955820D01*
X157330537Y-59845506D01*
X157251185Y-59748815D01*
X157154494Y-59669463D01*
X157044180Y-59610498D01*
X156924482Y-59574188D01*
X156800000Y-59561928D01*
X156085750Y-59565000D01*
X155927000Y-59723750D01*
X155673000Y-59723750D01*
X155514250Y-59565000D01*
X154800000Y-59561928D01*
X154675518Y-59574188D01*
X154555820Y-59610498D01*
X154445506Y-59669463D01*
X154348815Y-59748815D01*
X154269463Y-59845506D01*
X154210498Y-59955820D01*
X154174188Y-60075518D01*
X154161928Y-60200000D01*
X154165000Y-60714250D01*
X154323748Y-60872998D01*
X154165000Y-60872998D01*
X154165000Y-60935607D01*
X153235000Y-60005607D01*
X153235000Y-59329508D01*
X153214236Y-59118691D01*
X153188072Y-59032439D01*
X153188072Y-58775000D01*
X153175812Y-58650518D01*
X153139502Y-58530820D01*
X153080537Y-58420506D01*
X153001185Y-58323815D01*
X152904494Y-58244463D01*
X152794180Y-58185498D01*
X152674482Y-58149188D01*
X152550000Y-58136928D01*
X152481104Y-58136928D01*
X152351808Y-58067818D01*
X152081309Y-57985764D01*
X151800000Y-57958057D01*
X151518692Y-57985764D01*
X151248193Y-58067818D01*
X151118897Y-58136928D01*
X151050000Y-58136928D01*
X150925518Y-58149188D01*
X150805820Y-58185498D01*
X150735000Y-58223353D01*
X150735000Y-56829508D01*
X150714236Y-56618691D01*
X150632182Y-56348192D01*
X150588072Y-56265668D01*
X150588072Y-56150000D01*
X150575812Y-56025518D01*
X150539502Y-55905820D01*
X150480537Y-55795506D01*
X150401185Y-55698815D01*
X150304494Y-55619463D01*
X150194180Y-55560498D01*
X150159573Y-55550000D01*
X150194180Y-55539502D01*
X150304494Y-55480537D01*
X150401185Y-55401185D01*
X150480537Y-55304494D01*
X150539502Y-55194180D01*
X150575812Y-55074482D01*
X150588072Y-54950000D01*
X150588072Y-53450000D01*
X150575812Y-53325518D01*
X150539502Y-53205820D01*
X150480537Y-53095506D01*
X150401185Y-52998815D01*
X150304494Y-52919463D01*
X150194180Y-52860498D01*
X150159573Y-52850000D01*
X154936928Y-52850000D01*
X154949188Y-52974482D01*
X154985498Y-53094180D01*
X155044463Y-53204494D01*
X155123815Y-53301185D01*
X155220506Y-53380537D01*
X155330820Y-53439502D01*
X155450518Y-53475812D01*
X155575000Y-53488072D01*
X155914250Y-53485000D01*
X156073000Y-53326250D01*
X156073000Y-52227000D01*
X156327000Y-52227000D01*
X156327000Y-53326250D01*
X156485750Y-53485000D01*
X156825000Y-53488072D01*
X156949482Y-53475812D01*
X157069180Y-53439502D01*
X157179494Y-53380537D01*
X157276185Y-53301185D01*
X157355537Y-53204494D01*
X157414502Y-53094180D01*
X157450812Y-52974482D01*
X157463072Y-52850000D01*
X157460000Y-52385750D01*
X157301250Y-52227000D01*
X156327000Y-52227000D01*
X156073000Y-52227000D01*
X155098750Y-52227000D01*
X154940000Y-52385750D01*
X154936928Y-52850000D01*
X150159573Y-52850000D01*
X150074482Y-52824188D01*
X149950000Y-52811928D01*
X149635000Y-52811928D01*
X149635000Y-51761046D01*
X149729494Y-51710537D01*
X149826185Y-51631185D01*
X149905537Y-51534494D01*
X149964502Y-51424180D01*
X150000812Y-51304482D01*
X150013072Y-51180000D01*
X150013072Y-50770000D01*
X151109249Y-50770000D01*
X151165000Y-50775491D01*
X151220751Y-50770000D01*
X151220752Y-50770000D01*
X151291094Y-50763072D01*
X152050000Y-50763072D01*
X152174482Y-50750812D01*
X152294180Y-50714502D01*
X152404494Y-50655537D01*
X152501185Y-50576185D01*
X152550000Y-50516704D01*
X152598815Y-50576185D01*
X152695506Y-50655537D01*
X152805820Y-50714502D01*
X152925518Y-50750812D01*
X153050000Y-50763072D01*
X153118896Y-50763072D01*
X153248192Y-50832182D01*
X153518691Y-50914236D01*
X153729508Y-50935000D01*
X155094119Y-50935000D01*
X155044463Y-50995506D01*
X154985498Y-51105820D01*
X154949188Y-51225518D01*
X154936928Y-51350000D01*
X154940000Y-51814250D01*
X155098750Y-51973000D01*
X156073000Y-51973000D01*
X156073000Y-51953000D01*
X156327000Y-51953000D01*
X156327000Y-51973000D01*
X157301250Y-51973000D01*
X157460000Y-51814250D01*
X157463072Y-51350000D01*
X157450812Y-51225518D01*
X157414502Y-51105820D01*
X157355537Y-50995506D01*
X157305881Y-50935000D01*
X158565001Y-50935000D01*
X158565000Y-53929508D01*
X158558057Y-54000000D01*
X158565000Y-54070491D01*
X158585764Y-54281308D01*
X158667818Y-54551807D01*
X158801068Y-54801100D01*
X158980392Y-55019607D01*
X159035155Y-55064550D01*
X163935450Y-59964846D01*
X163980392Y-60019608D01*
X164198899Y-60198932D01*
X164422958Y-60318694D01*
X164448192Y-60332182D01*
X164718691Y-60414237D01*
X165000000Y-60441943D01*
X165070495Y-60435000D01*
X183045482Y-60435000D01*
X183256299Y-60414236D01*
X183340001Y-60388846D01*
X183340001Y-77967711D01*
X183311375Y-78259660D01*
X183235965Y-78509429D01*
X183113477Y-78739794D01*
X182948579Y-78941979D01*
X182747546Y-79108288D01*
X182518046Y-79232378D01*
X182268805Y-79309531D01*
X181978911Y-79340000D01*
X127032279Y-79340000D01*
X126740340Y-79311375D01*
X126490571Y-79235965D01*
X126260206Y-79113477D01*
X126058021Y-78948579D01*
X125891712Y-78747546D01*
X125767622Y-78518046D01*
X125690469Y-78268805D01*
X125660000Y-77978911D01*
X125660000Y-68125000D01*
X135911928Y-68125000D01*
X135924188Y-68249482D01*
X135960498Y-68369180D01*
X136019463Y-68479494D01*
X136098815Y-68576185D01*
X136195506Y-68655537D01*
X136305820Y-68714502D01*
X136425518Y-68750812D01*
X136550000Y-68763072D01*
X137014250Y-68760000D01*
X137173000Y-68601250D01*
X137173000Y-67627000D01*
X136073750Y-67627000D01*
X135915000Y-67785750D01*
X135911928Y-68125000D01*
X125660000Y-68125000D01*
X125660000Y-66875000D01*
X135911928Y-66875000D01*
X135915000Y-67214250D01*
X136073750Y-67373000D01*
X137173000Y-67373000D01*
X137173000Y-66398750D01*
X137014250Y-66240000D01*
X136550000Y-66236928D01*
X136425518Y-66249188D01*
X136305820Y-66285498D01*
X136195506Y-66344463D01*
X136098815Y-66423815D01*
X136019463Y-66520506D01*
X135960498Y-66630820D01*
X135924188Y-66750518D01*
X135911928Y-66875000D01*
X125660000Y-66875000D01*
X125660000Y-46450000D01*
X128307815Y-46450000D01*
X128336487Y-46741111D01*
X128421401Y-47021034D01*
X128559294Y-47279014D01*
X128744866Y-47505134D01*
X128774687Y-47529607D01*
X128705820Y-47550498D01*
X128595506Y-47609463D01*
X128498815Y-47688815D01*
X128419463Y-47785506D01*
X128360498Y-47895820D01*
X128324188Y-48015518D01*
X128311928Y-48140000D01*
X128311928Y-49840000D01*
X128324188Y-49964482D01*
X128360498Y-50084180D01*
X128419463Y-50194494D01*
X128498815Y-50291185D01*
X128595506Y-50370537D01*
X128705820Y-50429502D01*
X128825518Y-50465812D01*
X128950000Y-50478072D01*
X130650000Y-50478072D01*
X130774482Y-50465812D01*
X130894180Y-50429502D01*
X131004494Y-50370537D01*
X131101185Y-50291185D01*
X131180537Y-50194494D01*
X131187750Y-50181000D01*
X134370492Y-50181000D01*
X134581309Y-50160236D01*
X134851808Y-50078182D01*
X134981104Y-50009072D01*
X135050000Y-50009072D01*
X135174482Y-49996812D01*
X135294180Y-49960502D01*
X135404494Y-49901537D01*
X135501185Y-49822185D01*
X135550000Y-49762704D01*
X135598815Y-49822185D01*
X135695506Y-49901537D01*
X135805820Y-49960502D01*
X135925518Y-49996812D01*
X136050000Y-50009072D01*
X137550000Y-50009072D01*
X137674482Y-49996812D01*
X137794180Y-49960502D01*
X137904494Y-49901537D01*
X137929518Y-49881000D01*
X138698249Y-49881000D01*
X138754000Y-49886491D01*
X138809751Y-49881000D01*
X138809752Y-49881000D01*
X138976499Y-49864577D01*
X139190447Y-49799676D01*
X139387623Y-49694284D01*
X139560449Y-49552449D01*
X139595996Y-49509135D01*
X139605131Y-49500000D01*
X139740750Y-49500000D01*
X139748750Y-49508000D01*
X140973000Y-49508000D01*
X140973000Y-49500000D01*
X141155752Y-49500000D01*
X141227000Y-49492983D01*
X141227000Y-49508000D01*
X142451250Y-49508000D01*
X142610000Y-49349250D01*
X142600244Y-49232699D01*
X142563395Y-49113166D01*
X142503934Y-49003119D01*
X142501184Y-48999798D01*
X142505537Y-48994494D01*
X142564502Y-48884180D01*
X142600812Y-48764482D01*
X142613072Y-48640000D01*
X142613072Y-48090000D01*
X142600812Y-47965518D01*
X142564502Y-47845820D01*
X142505537Y-47735506D01*
X142501018Y-47730000D01*
X142505537Y-47724494D01*
X142564502Y-47614180D01*
X142600812Y-47494482D01*
X142613072Y-47370000D01*
X142613072Y-46820000D01*
X142600812Y-46695518D01*
X142564502Y-46575820D01*
X142505537Y-46465506D01*
X142426185Y-46368815D01*
X142329494Y-46289463D01*
X142219180Y-46230498D01*
X142099482Y-46194188D01*
X141975000Y-46181928D01*
X141776529Y-46181928D01*
X141733623Y-46146716D01*
X141536447Y-46041324D01*
X141322499Y-45976423D01*
X141155752Y-45960000D01*
X139569231Y-45960000D01*
X139552449Y-45939551D01*
X139379623Y-45797716D01*
X139182447Y-45692324D01*
X138968499Y-45627423D01*
X138801752Y-45611000D01*
X138801751Y-45611000D01*
X138746000Y-45605509D01*
X138690249Y-45611000D01*
X137929518Y-45611000D01*
X137904494Y-45590463D01*
X137794180Y-45531498D01*
X137674482Y-45495188D01*
X137550000Y-45482928D01*
X136050000Y-45482928D01*
X135925518Y-45495188D01*
X135805820Y-45531498D01*
X135695506Y-45590463D01*
X135598815Y-45669815D01*
X135550000Y-45729296D01*
X135501185Y-45669815D01*
X135404494Y-45590463D01*
X135294180Y-45531498D01*
X135174482Y-45495188D01*
X135050000Y-45482928D01*
X134981104Y-45482928D01*
X134851808Y-45413818D01*
X134581309Y-45331764D01*
X134370492Y-45311000D01*
X130752943Y-45311000D01*
X130629014Y-45209294D01*
X130371034Y-45071401D01*
X130091111Y-44986487D01*
X129872950Y-44965000D01*
X129727050Y-44965000D01*
X129508889Y-44986487D01*
X129228966Y-45071401D01*
X128970986Y-45209294D01*
X128744866Y-45394866D01*
X128559294Y-45620986D01*
X128421401Y-45878966D01*
X128336487Y-46158889D01*
X128307815Y-46450000D01*
X125660000Y-46450000D01*
X125660000Y-43650000D01*
X128311928Y-43650000D01*
X128324188Y-43774482D01*
X128360498Y-43894180D01*
X128419463Y-44004494D01*
X128498815Y-44101185D01*
X128595506Y-44180537D01*
X128705820Y-44239502D01*
X128825518Y-44275812D01*
X128950000Y-44288072D01*
X129514250Y-44285000D01*
X129673000Y-44126250D01*
X129673000Y-42927000D01*
X129927000Y-42927000D01*
X129927000Y-44126250D01*
X130085750Y-44285000D01*
X130650000Y-44288072D01*
X130774482Y-44275812D01*
X130894180Y-44239502D01*
X131004494Y-44180537D01*
X131101185Y-44101185D01*
X131180537Y-44004494D01*
X131239502Y-43894180D01*
X131275812Y-43774482D01*
X131288072Y-43650000D01*
X131285000Y-43085750D01*
X131126250Y-42927000D01*
X129927000Y-42927000D01*
X129673000Y-42927000D01*
X128473750Y-42927000D01*
X128315000Y-43085750D01*
X128311928Y-43650000D01*
X125660000Y-43650000D01*
X125660000Y-41950000D01*
X128311928Y-41950000D01*
X128315000Y-42514250D01*
X128473750Y-42673000D01*
X129673000Y-42673000D01*
X129673000Y-41473750D01*
X129927000Y-41473750D01*
X129927000Y-42673000D01*
X131126250Y-42673000D01*
X131285000Y-42514250D01*
X131288072Y-41950000D01*
X131275812Y-41825518D01*
X131239502Y-41705820D01*
X131180537Y-41595506D01*
X131101185Y-41498815D01*
X131004494Y-41419463D01*
X130894180Y-41360498D01*
X130859573Y-41350000D01*
X153311928Y-41350000D01*
X153324188Y-41474482D01*
X153360498Y-41594180D01*
X153419463Y-41704494D01*
X153498815Y-41801185D01*
X153595506Y-41880537D01*
X153705820Y-41939502D01*
X153825518Y-41975812D01*
X153950000Y-41988072D01*
X154914250Y-41985000D01*
X155073000Y-41826250D01*
X155073000Y-39477000D01*
X155327000Y-39477000D01*
X155327000Y-41826250D01*
X155485750Y-41985000D01*
X156450000Y-41988072D01*
X156574482Y-41975812D01*
X156659572Y-41950000D01*
X161311928Y-41950000D01*
X161315000Y-42514250D01*
X161473750Y-42673000D01*
X162673000Y-42673000D01*
X162673000Y-41473750D01*
X162927000Y-41473750D01*
X162927000Y-42673000D01*
X164126250Y-42673000D01*
X164285000Y-42514250D01*
X164288072Y-41950000D01*
X164275812Y-41825518D01*
X164239502Y-41705820D01*
X164180537Y-41595506D01*
X164101185Y-41498815D01*
X164004494Y-41419463D01*
X163894180Y-41360498D01*
X163774482Y-41324188D01*
X163650000Y-41311928D01*
X163085750Y-41315000D01*
X162927000Y-41473750D01*
X162673000Y-41473750D01*
X162514250Y-41315000D01*
X161950000Y-41311928D01*
X161825518Y-41324188D01*
X161705820Y-41360498D01*
X161595506Y-41419463D01*
X161498815Y-41498815D01*
X161419463Y-41595506D01*
X161360498Y-41705820D01*
X161324188Y-41825518D01*
X161311928Y-41950000D01*
X156659572Y-41950000D01*
X156694180Y-41939502D01*
X156804494Y-41880537D01*
X156901185Y-41801185D01*
X156980537Y-41704494D01*
X157039502Y-41594180D01*
X157075812Y-41474482D01*
X157088072Y-41350000D01*
X157085000Y-39635750D01*
X156926250Y-39477000D01*
X155327000Y-39477000D01*
X155073000Y-39477000D01*
X153473750Y-39477000D01*
X153315000Y-39635750D01*
X153311928Y-41350000D01*
X130859573Y-41350000D01*
X130774482Y-41324188D01*
X130650000Y-41311928D01*
X130085750Y-41315000D01*
X129927000Y-41473750D01*
X129673000Y-41473750D01*
X129514250Y-41315000D01*
X128950000Y-41311928D01*
X128825518Y-41324188D01*
X128705820Y-41360498D01*
X128595506Y-41419463D01*
X128498815Y-41498815D01*
X128419463Y-41595506D01*
X128360498Y-41705820D01*
X128324188Y-41825518D01*
X128311928Y-41950000D01*
X125660000Y-41950000D01*
X125660000Y-38032279D01*
X125688625Y-37740341D01*
X125764035Y-37490571D01*
X125838778Y-37350000D01*
X153311928Y-37350000D01*
X153315000Y-39064250D01*
X153473750Y-39223000D01*
X155073000Y-39223000D01*
X155073000Y-36873750D01*
X155327000Y-36873750D01*
X155327000Y-39223000D01*
X156926250Y-39223000D01*
X157085000Y-39064250D01*
X157088072Y-37350000D01*
X157075812Y-37225518D01*
X157039502Y-37105820D01*
X156980537Y-36995506D01*
X156901185Y-36898815D01*
X156804494Y-36819463D01*
X156694180Y-36760498D01*
X156574482Y-36724188D01*
X156450000Y-36711928D01*
X155485750Y-36715000D01*
X155327000Y-36873750D01*
X155073000Y-36873750D01*
X154914250Y-36715000D01*
X153950000Y-36711928D01*
X153825518Y-36724188D01*
X153705820Y-36760498D01*
X153595506Y-36819463D01*
X153498815Y-36898815D01*
X153419463Y-36995506D01*
X153360498Y-37105820D01*
X153324188Y-37225518D01*
X153311928Y-37350000D01*
X125838778Y-37350000D01*
X125886522Y-37260208D01*
X126051422Y-37058020D01*
X126252450Y-36891714D01*
X126481954Y-36767622D01*
X126731195Y-36690469D01*
X127021088Y-36660000D01*
X181967721Y-36660000D01*
X182259659Y-36688625D01*
M02*
