G04 #@! TF.GenerationSoftware,KiCad,Pcbnew,(5.1.2)-2*
G04 #@! TF.CreationDate,2019-12-03T15:26:29+11:00*
G04 #@! TF.ProjectId,Heterodyne,48657465-726f-4647-996e-652e6b696361,rev?*
G04 #@! TF.SameCoordinates,Original*
G04 #@! TF.FileFunction,Soldermask,Top*
G04 #@! TF.FilePolarity,Negative*
%FSLAX46Y46*%
G04 Gerber Fmt 4.6, Leading zero omitted, Abs format (unit mm)*
G04 Created by KiCad (PCBNEW (5.1.2)-2) date 2019-12-03 15:26:29*
%MOMM*%
%LPD*%
G04 APERTURE LIST*
%ADD10C,0.100000*%
G04 APERTURE END LIST*
D10*
G36*
X184529487Y-130828996D02*
G01*
X184766253Y-130927068D01*
X184766255Y-130927069D01*
X184918806Y-131029000D01*
X184979339Y-131069447D01*
X185160553Y-131250661D01*
X185302932Y-131463747D01*
X185401004Y-131700513D01*
X185451000Y-131951861D01*
X185451000Y-132208139D01*
X185401004Y-132459487D01*
X185315161Y-132666729D01*
X185302931Y-132696255D01*
X185160553Y-132909339D01*
X184979339Y-133090553D01*
X184766255Y-133232931D01*
X184766254Y-133232932D01*
X184766253Y-133232932D01*
X184529487Y-133331004D01*
X184278139Y-133381000D01*
X184021861Y-133381000D01*
X183770513Y-133331004D01*
X183533747Y-133232932D01*
X183533746Y-133232932D01*
X183533745Y-133232931D01*
X183320661Y-133090553D01*
X183139447Y-132909339D01*
X182997069Y-132696255D01*
X182984839Y-132666729D01*
X182898996Y-132459487D01*
X182849000Y-132208139D01*
X182849000Y-131951861D01*
X182898996Y-131700513D01*
X182997068Y-131463747D01*
X183139447Y-131250661D01*
X183320661Y-131069447D01*
X183381194Y-131029000D01*
X183533745Y-130927069D01*
X183533747Y-130927068D01*
X183770513Y-130828996D01*
X184021861Y-130779000D01*
X184278139Y-130779000D01*
X184529487Y-130828996D01*
X184529487Y-130828996D01*
G37*
G36*
X171829487Y-130828996D02*
G01*
X172066253Y-130927068D01*
X172066255Y-130927069D01*
X172218806Y-131029000D01*
X172279339Y-131069447D01*
X172460553Y-131250661D01*
X172602932Y-131463747D01*
X172701004Y-131700513D01*
X172751000Y-131951861D01*
X172751000Y-132208139D01*
X172701004Y-132459487D01*
X172615161Y-132666729D01*
X172602931Y-132696255D01*
X172460553Y-132909339D01*
X172279339Y-133090553D01*
X172066255Y-133232931D01*
X172066254Y-133232932D01*
X172066253Y-133232932D01*
X171829487Y-133331004D01*
X171578139Y-133381000D01*
X171321861Y-133381000D01*
X171070513Y-133331004D01*
X170833747Y-133232932D01*
X170833746Y-133232932D01*
X170833745Y-133232931D01*
X170620661Y-133090553D01*
X170439447Y-132909339D01*
X170297069Y-132696255D01*
X170284839Y-132666729D01*
X170198996Y-132459487D01*
X170149000Y-132208139D01*
X170149000Y-131951861D01*
X170198996Y-131700513D01*
X170297068Y-131463747D01*
X170439447Y-131250661D01*
X170620661Y-131069447D01*
X170681194Y-131029000D01*
X170833745Y-130927069D01*
X170833747Y-130927068D01*
X171070513Y-130828996D01*
X171321861Y-130779000D01*
X171578139Y-130779000D01*
X171829487Y-130828996D01*
X171829487Y-130828996D01*
G37*
G36*
X164249487Y-130828996D02*
G01*
X164486253Y-130927068D01*
X164486255Y-130927069D01*
X164638806Y-131029000D01*
X164699339Y-131069447D01*
X164880553Y-131250661D01*
X165022932Y-131463747D01*
X165121004Y-131700513D01*
X165171000Y-131951861D01*
X165171000Y-132208139D01*
X165121004Y-132459487D01*
X165035161Y-132666729D01*
X165022931Y-132696255D01*
X164880553Y-132909339D01*
X164699339Y-133090553D01*
X164486255Y-133232931D01*
X164486254Y-133232932D01*
X164486253Y-133232932D01*
X164249487Y-133331004D01*
X163998139Y-133381000D01*
X163741861Y-133381000D01*
X163490513Y-133331004D01*
X163253747Y-133232932D01*
X163253746Y-133232932D01*
X163253745Y-133232931D01*
X163040661Y-133090553D01*
X162859447Y-132909339D01*
X162717069Y-132696255D01*
X162704839Y-132666729D01*
X162618996Y-132459487D01*
X162569000Y-132208139D01*
X162569000Y-131951861D01*
X162618996Y-131700513D01*
X162717068Y-131463747D01*
X162859447Y-131250661D01*
X163040661Y-131069447D01*
X163101194Y-131029000D01*
X163253745Y-130927069D01*
X163253747Y-130927068D01*
X163490513Y-130828996D01*
X163741861Y-130779000D01*
X163998139Y-130779000D01*
X164249487Y-130828996D01*
X164249487Y-130828996D01*
G37*
G36*
X179449487Y-130828996D02*
G01*
X179686253Y-130927068D01*
X179686255Y-130927069D01*
X179838806Y-131029000D01*
X179899339Y-131069447D01*
X180080553Y-131250661D01*
X180222932Y-131463747D01*
X180321004Y-131700513D01*
X180371000Y-131951861D01*
X180371000Y-132208139D01*
X180321004Y-132459487D01*
X180235161Y-132666729D01*
X180222931Y-132696255D01*
X180080553Y-132909339D01*
X179899339Y-133090553D01*
X179686255Y-133232931D01*
X179686254Y-133232932D01*
X179686253Y-133232932D01*
X179449487Y-133331004D01*
X179198139Y-133381000D01*
X178941861Y-133381000D01*
X178690513Y-133331004D01*
X178453747Y-133232932D01*
X178453746Y-133232932D01*
X178453745Y-133232931D01*
X178240661Y-133090553D01*
X178059447Y-132909339D01*
X177917069Y-132696255D01*
X177904839Y-132666729D01*
X177818996Y-132459487D01*
X177769000Y-132208139D01*
X177769000Y-131951861D01*
X177818996Y-131700513D01*
X177917068Y-131463747D01*
X178059447Y-131250661D01*
X178240661Y-131069447D01*
X178301194Y-131029000D01*
X178453745Y-130927069D01*
X178453747Y-130927068D01*
X178690513Y-130828996D01*
X178941861Y-130779000D01*
X179198139Y-130779000D01*
X179449487Y-130828996D01*
X179449487Y-130828996D01*
G37*
G36*
X156813097Y-131034069D02*
G01*
X156916032Y-131044207D01*
X157114146Y-131104305D01*
X157114149Y-131104306D01*
X157210975Y-131156061D01*
X157296729Y-131201897D01*
X157456765Y-131333235D01*
X157588103Y-131493271D01*
X157633939Y-131579025D01*
X157685694Y-131675851D01*
X157685695Y-131675854D01*
X157745793Y-131873968D01*
X157766085Y-132080000D01*
X157745793Y-132286032D01*
X157693175Y-132459487D01*
X157685694Y-132484149D01*
X157633939Y-132580975D01*
X157588103Y-132666729D01*
X157456765Y-132826765D01*
X157296729Y-132958103D01*
X157210975Y-133003939D01*
X157114149Y-133055694D01*
X157114146Y-133055695D01*
X156916032Y-133115793D01*
X156813097Y-133125931D01*
X156761631Y-133131000D01*
X155658369Y-133131000D01*
X155606903Y-133125931D01*
X155503968Y-133115793D01*
X155305854Y-133055695D01*
X155305851Y-133055694D01*
X155209025Y-133003939D01*
X155123271Y-132958103D01*
X154963235Y-132826765D01*
X154831897Y-132666729D01*
X154786061Y-132580975D01*
X154734306Y-132484149D01*
X154726825Y-132459487D01*
X154674207Y-132286032D01*
X154653915Y-132080000D01*
X154674207Y-131873968D01*
X154734305Y-131675854D01*
X154734306Y-131675851D01*
X154786061Y-131579025D01*
X154831897Y-131493271D01*
X154963235Y-131333235D01*
X155123271Y-131201897D01*
X155209025Y-131156061D01*
X155305851Y-131104306D01*
X155305854Y-131104305D01*
X155503968Y-131044207D01*
X155606903Y-131034069D01*
X155658369Y-131029000D01*
X156761631Y-131029000D01*
X156813097Y-131034069D01*
X156813097Y-131034069D01*
G37*
G36*
X150463097Y-131034069D02*
G01*
X150566032Y-131044207D01*
X150764146Y-131104305D01*
X150764149Y-131104306D01*
X150860975Y-131156061D01*
X150946729Y-131201897D01*
X151106765Y-131333235D01*
X151238103Y-131493271D01*
X151283939Y-131579025D01*
X151335694Y-131675851D01*
X151335695Y-131675854D01*
X151395793Y-131873968D01*
X151416085Y-132080000D01*
X151395793Y-132286032D01*
X151343175Y-132459487D01*
X151335694Y-132484149D01*
X151283939Y-132580975D01*
X151238103Y-132666729D01*
X151106765Y-132826765D01*
X150946729Y-132958103D01*
X150860975Y-133003939D01*
X150764149Y-133055694D01*
X150764146Y-133055695D01*
X150566032Y-133115793D01*
X150463097Y-133125931D01*
X150411631Y-133131000D01*
X149308369Y-133131000D01*
X149256903Y-133125931D01*
X149153968Y-133115793D01*
X148955854Y-133055695D01*
X148955851Y-133055694D01*
X148859025Y-133003939D01*
X148773271Y-132958103D01*
X148613235Y-132826765D01*
X148481897Y-132666729D01*
X148436061Y-132580975D01*
X148384306Y-132484149D01*
X148376825Y-132459487D01*
X148324207Y-132286032D01*
X148303915Y-132080000D01*
X148324207Y-131873968D01*
X148384305Y-131675854D01*
X148384306Y-131675851D01*
X148436061Y-131579025D01*
X148481897Y-131493271D01*
X148613235Y-131333235D01*
X148773271Y-131201897D01*
X148859025Y-131156061D01*
X148955851Y-131104306D01*
X148955854Y-131104305D01*
X149153968Y-131044207D01*
X149256903Y-131034069D01*
X149308369Y-131029000D01*
X150411631Y-131029000D01*
X150463097Y-131034069D01*
X150463097Y-131034069D01*
G37*
G36*
X127379487Y-128328996D02*
G01*
X127616253Y-128427068D01*
X127616255Y-128427069D01*
X127829339Y-128569447D01*
X128010553Y-128750661D01*
X128145933Y-128953271D01*
X128152932Y-128963747D01*
X128251004Y-129200513D01*
X128301000Y-129451861D01*
X128301000Y-129708139D01*
X128251004Y-129959487D01*
X128181730Y-130126728D01*
X128152931Y-130196255D01*
X128010553Y-130409339D01*
X127829339Y-130590553D01*
X127616255Y-130732931D01*
X127616254Y-130732932D01*
X127616253Y-130732932D01*
X127379487Y-130831004D01*
X127128139Y-130881000D01*
X126871861Y-130881000D01*
X126620513Y-130831004D01*
X126383747Y-130732932D01*
X126383746Y-130732932D01*
X126383745Y-130732931D01*
X126170661Y-130590553D01*
X125989447Y-130409339D01*
X125847069Y-130196255D01*
X125818270Y-130126728D01*
X125748996Y-129959487D01*
X125699000Y-129708139D01*
X125699000Y-129451861D01*
X125748996Y-129200513D01*
X125847068Y-128963747D01*
X125854068Y-128953271D01*
X125989447Y-128750661D01*
X126170661Y-128569447D01*
X126383745Y-128427069D01*
X126383747Y-128427068D01*
X126620513Y-128328996D01*
X126871861Y-128279000D01*
X127128139Y-128279000D01*
X127379487Y-128328996D01*
X127379487Y-128328996D01*
G37*
G36*
X156813097Y-128494069D02*
G01*
X156916032Y-128504207D01*
X157114146Y-128564305D01*
X157114149Y-128564306D01*
X157210975Y-128616061D01*
X157296729Y-128661897D01*
X157456765Y-128793235D01*
X157588103Y-128953271D01*
X157633939Y-129039025D01*
X157685694Y-129135851D01*
X157685695Y-129135854D01*
X157745793Y-129333968D01*
X157766085Y-129540000D01*
X157745793Y-129746032D01*
X157685695Y-129944146D01*
X157685694Y-129944149D01*
X157677495Y-129959488D01*
X157588103Y-130126729D01*
X157456765Y-130286765D01*
X157296729Y-130418103D01*
X157210975Y-130463939D01*
X157114149Y-130515694D01*
X157114146Y-130515695D01*
X156916032Y-130575793D01*
X156813097Y-130585931D01*
X156761631Y-130591000D01*
X155658369Y-130591000D01*
X155606903Y-130585931D01*
X155503968Y-130575793D01*
X155305854Y-130515695D01*
X155305851Y-130515694D01*
X155209025Y-130463939D01*
X155123271Y-130418103D01*
X154963235Y-130286765D01*
X154831897Y-130126729D01*
X154742505Y-129959488D01*
X154734306Y-129944149D01*
X154734305Y-129944146D01*
X154674207Y-129746032D01*
X154653915Y-129540000D01*
X154674207Y-129333968D01*
X154734305Y-129135854D01*
X154734306Y-129135851D01*
X154786061Y-129039025D01*
X154831897Y-128953271D01*
X154963235Y-128793235D01*
X155123271Y-128661897D01*
X155209025Y-128616061D01*
X155305851Y-128564306D01*
X155305854Y-128564305D01*
X155503968Y-128504207D01*
X155606903Y-128494069D01*
X155658369Y-128489000D01*
X156761631Y-128489000D01*
X156813097Y-128494069D01*
X156813097Y-128494069D01*
G37*
G36*
X150463097Y-128494069D02*
G01*
X150566032Y-128504207D01*
X150764146Y-128564305D01*
X150764149Y-128564306D01*
X150860975Y-128616061D01*
X150946729Y-128661897D01*
X151106765Y-128793235D01*
X151238103Y-128953271D01*
X151283939Y-129039025D01*
X151335694Y-129135851D01*
X151335695Y-129135854D01*
X151395793Y-129333968D01*
X151416085Y-129540000D01*
X151395793Y-129746032D01*
X151335695Y-129944146D01*
X151335694Y-129944149D01*
X151327495Y-129959488D01*
X151238103Y-130126729D01*
X151106765Y-130286765D01*
X150946729Y-130418103D01*
X150860975Y-130463939D01*
X150764149Y-130515694D01*
X150764146Y-130515695D01*
X150566032Y-130575793D01*
X150463097Y-130585931D01*
X150411631Y-130591000D01*
X149308369Y-130591000D01*
X149256903Y-130585931D01*
X149153968Y-130575793D01*
X148955854Y-130515695D01*
X148955851Y-130515694D01*
X148859025Y-130463939D01*
X148773271Y-130418103D01*
X148613235Y-130286765D01*
X148481897Y-130126729D01*
X148392505Y-129959488D01*
X148384306Y-129944149D01*
X148384305Y-129944146D01*
X148324207Y-129746032D01*
X148303915Y-129540000D01*
X148324207Y-129333968D01*
X148384305Y-129135854D01*
X148384306Y-129135851D01*
X148436061Y-129039025D01*
X148481897Y-128953271D01*
X148613235Y-128793235D01*
X148773271Y-128661897D01*
X148859025Y-128616061D01*
X148955851Y-128564306D01*
X148955854Y-128564305D01*
X149153968Y-128504207D01*
X149256903Y-128494069D01*
X149308369Y-128489000D01*
X150411631Y-128489000D01*
X150463097Y-128494069D01*
X150463097Y-128494069D01*
G37*
G36*
X145159487Y-125748996D02*
G01*
X145396253Y-125847068D01*
X145396255Y-125847069D01*
X145548806Y-125949000D01*
X145609339Y-125989447D01*
X145790553Y-126170661D01*
X145932932Y-126383747D01*
X146031004Y-126620513D01*
X146081000Y-126871861D01*
X146081000Y-127128139D01*
X146031004Y-127379487D01*
X145945161Y-127586729D01*
X145932931Y-127616255D01*
X145790553Y-127829339D01*
X145609339Y-128010553D01*
X145396255Y-128152931D01*
X145396254Y-128152932D01*
X145396253Y-128152932D01*
X145159487Y-128251004D01*
X144908139Y-128301000D01*
X144651861Y-128301000D01*
X144400513Y-128251004D01*
X144163747Y-128152932D01*
X144163746Y-128152932D01*
X144163745Y-128152931D01*
X143950661Y-128010553D01*
X143769447Y-127829339D01*
X143627069Y-127616255D01*
X143614839Y-127586729D01*
X143528996Y-127379487D01*
X143479000Y-127128139D01*
X143479000Y-126871861D01*
X143528996Y-126620513D01*
X143627068Y-126383747D01*
X143769447Y-126170661D01*
X143950661Y-125989447D01*
X144011194Y-125949000D01*
X144163745Y-125847069D01*
X144163747Y-125847068D01*
X144400513Y-125748996D01*
X144651861Y-125699000D01*
X144908139Y-125699000D01*
X145159487Y-125748996D01*
X145159487Y-125748996D01*
G37*
G36*
X169289487Y-125748996D02*
G01*
X169526253Y-125847068D01*
X169526255Y-125847069D01*
X169678806Y-125949000D01*
X169739339Y-125989447D01*
X169920553Y-126170661D01*
X170062932Y-126383747D01*
X170161004Y-126620513D01*
X170211000Y-126871861D01*
X170211000Y-127128139D01*
X170161004Y-127379487D01*
X170075161Y-127586729D01*
X170062931Y-127616255D01*
X169920553Y-127829339D01*
X169739339Y-128010553D01*
X169526255Y-128152931D01*
X169526254Y-128152932D01*
X169526253Y-128152932D01*
X169289487Y-128251004D01*
X169038139Y-128301000D01*
X168781861Y-128301000D01*
X168530513Y-128251004D01*
X168293747Y-128152932D01*
X168293746Y-128152932D01*
X168293745Y-128152931D01*
X168080661Y-128010553D01*
X167899447Y-127829339D01*
X167757069Y-127616255D01*
X167744839Y-127586729D01*
X167658996Y-127379487D01*
X167609000Y-127128139D01*
X167609000Y-126871861D01*
X167658996Y-126620513D01*
X167757068Y-126383747D01*
X167899447Y-126170661D01*
X168080661Y-125989447D01*
X168141194Y-125949000D01*
X168293745Y-125847069D01*
X168293747Y-125847068D01*
X168530513Y-125748996D01*
X168781861Y-125699000D01*
X169038139Y-125699000D01*
X169289487Y-125748996D01*
X169289487Y-125748996D01*
G37*
G36*
X164209487Y-125748996D02*
G01*
X164446253Y-125847068D01*
X164446255Y-125847069D01*
X164598806Y-125949000D01*
X164659339Y-125989447D01*
X164840553Y-126170661D01*
X164982932Y-126383747D01*
X165081004Y-126620513D01*
X165131000Y-126871861D01*
X165131000Y-127128139D01*
X165081004Y-127379487D01*
X164995161Y-127586729D01*
X164982931Y-127616255D01*
X164840553Y-127829339D01*
X164659339Y-128010553D01*
X164446255Y-128152931D01*
X164446254Y-128152932D01*
X164446253Y-128152932D01*
X164209487Y-128251004D01*
X163958139Y-128301000D01*
X163701861Y-128301000D01*
X163450513Y-128251004D01*
X163213747Y-128152932D01*
X163213746Y-128152932D01*
X163213745Y-128152931D01*
X163000661Y-128010553D01*
X162819447Y-127829339D01*
X162677069Y-127616255D01*
X162664839Y-127586729D01*
X162578996Y-127379487D01*
X162529000Y-127128139D01*
X162529000Y-126871861D01*
X162578996Y-126620513D01*
X162677068Y-126383747D01*
X162819447Y-126170661D01*
X163000661Y-125989447D01*
X163061194Y-125949000D01*
X163213745Y-125847069D01*
X163213747Y-125847068D01*
X163450513Y-125748996D01*
X163701861Y-125699000D01*
X163958139Y-125699000D01*
X164209487Y-125748996D01*
X164209487Y-125748996D01*
G37*
G36*
X156813097Y-125954069D02*
G01*
X156916032Y-125964207D01*
X157114146Y-126024305D01*
X157114149Y-126024306D01*
X157210975Y-126076061D01*
X157296729Y-126121897D01*
X157456765Y-126253235D01*
X157588103Y-126413271D01*
X157633939Y-126499025D01*
X157685694Y-126595851D01*
X157685695Y-126595854D01*
X157745793Y-126793968D01*
X157766085Y-127000000D01*
X157745793Y-127206032D01*
X157693175Y-127379487D01*
X157685694Y-127404149D01*
X157633939Y-127500975D01*
X157588103Y-127586729D01*
X157456765Y-127746765D01*
X157296729Y-127878103D01*
X157210975Y-127923939D01*
X157114149Y-127975694D01*
X157114146Y-127975695D01*
X156916032Y-128035793D01*
X156813097Y-128045931D01*
X156761631Y-128051000D01*
X155658369Y-128051000D01*
X155606903Y-128045931D01*
X155503968Y-128035793D01*
X155305854Y-127975695D01*
X155305851Y-127975694D01*
X155209025Y-127923939D01*
X155123271Y-127878103D01*
X154963235Y-127746765D01*
X154831897Y-127586729D01*
X154786061Y-127500975D01*
X154734306Y-127404149D01*
X154726825Y-127379487D01*
X154674207Y-127206032D01*
X154653915Y-127000000D01*
X154674207Y-126793968D01*
X154734305Y-126595854D01*
X154734306Y-126595851D01*
X154786061Y-126499025D01*
X154831897Y-126413271D01*
X154963235Y-126253235D01*
X155123271Y-126121897D01*
X155209025Y-126076061D01*
X155305851Y-126024306D01*
X155305854Y-126024305D01*
X155503968Y-125964207D01*
X155606903Y-125954069D01*
X155658369Y-125949000D01*
X156761631Y-125949000D01*
X156813097Y-125954069D01*
X156813097Y-125954069D01*
G37*
G36*
X150463097Y-125954069D02*
G01*
X150566032Y-125964207D01*
X150764146Y-126024305D01*
X150764149Y-126024306D01*
X150860975Y-126076061D01*
X150946729Y-126121897D01*
X151106765Y-126253235D01*
X151238103Y-126413271D01*
X151283939Y-126499025D01*
X151335694Y-126595851D01*
X151335695Y-126595854D01*
X151395793Y-126793968D01*
X151416085Y-127000000D01*
X151395793Y-127206032D01*
X151343175Y-127379487D01*
X151335694Y-127404149D01*
X151283939Y-127500975D01*
X151238103Y-127586729D01*
X151106765Y-127746765D01*
X150946729Y-127878103D01*
X150860975Y-127923939D01*
X150764149Y-127975694D01*
X150764146Y-127975695D01*
X150566032Y-128035793D01*
X150463097Y-128045931D01*
X150411631Y-128051000D01*
X149308369Y-128051000D01*
X149256903Y-128045931D01*
X149153968Y-128035793D01*
X148955854Y-127975695D01*
X148955851Y-127975694D01*
X148859025Y-127923939D01*
X148773271Y-127878103D01*
X148613235Y-127746765D01*
X148481897Y-127586729D01*
X148436061Y-127500975D01*
X148384306Y-127404149D01*
X148376825Y-127379487D01*
X148324207Y-127206032D01*
X148303915Y-127000000D01*
X148324207Y-126793968D01*
X148384305Y-126595854D01*
X148384306Y-126595851D01*
X148436061Y-126499025D01*
X148481897Y-126413271D01*
X148613235Y-126253235D01*
X148773271Y-126121897D01*
X148859025Y-126076061D01*
X148955851Y-126024306D01*
X148955854Y-126024305D01*
X149153968Y-125964207D01*
X149256903Y-125954069D01*
X149308369Y-125949000D01*
X150411631Y-125949000D01*
X150463097Y-125954069D01*
X150463097Y-125954069D01*
G37*
G36*
X179449487Y-124518996D02*
G01*
X179686253Y-124617068D01*
X179686255Y-124617069D01*
X179899339Y-124759447D01*
X180080553Y-124940661D01*
X180197880Y-125116253D01*
X180222932Y-125153747D01*
X180321004Y-125390513D01*
X180371000Y-125641861D01*
X180371000Y-125898139D01*
X180321004Y-126149487D01*
X180312233Y-126170661D01*
X180222931Y-126386255D01*
X180080553Y-126599339D01*
X179899339Y-126780553D01*
X179686255Y-126922931D01*
X179686254Y-126922932D01*
X179686253Y-126922932D01*
X179449487Y-127021004D01*
X179198139Y-127071000D01*
X178941861Y-127071000D01*
X178690513Y-127021004D01*
X178453747Y-126922932D01*
X178453746Y-126922932D01*
X178453745Y-126922931D01*
X178240661Y-126780553D01*
X178059447Y-126599339D01*
X177917069Y-126386255D01*
X177827767Y-126170661D01*
X177818996Y-126149487D01*
X177769000Y-125898139D01*
X177769000Y-125641861D01*
X177818996Y-125390513D01*
X177917068Y-125153747D01*
X177942121Y-125116253D01*
X178059447Y-124940661D01*
X178240661Y-124759447D01*
X178453745Y-124617069D01*
X178453747Y-124617068D01*
X178690513Y-124518996D01*
X178941861Y-124469000D01*
X179198139Y-124469000D01*
X179449487Y-124518996D01*
X179449487Y-124518996D01*
G37*
G36*
X140079487Y-123248996D02*
G01*
X140316253Y-123347068D01*
X140316255Y-123347069D01*
X140529339Y-123489447D01*
X140710553Y-123670661D01*
X140845933Y-123873271D01*
X140852932Y-123883747D01*
X140951004Y-124120513D01*
X141001000Y-124371861D01*
X141001000Y-124628139D01*
X140951004Y-124879487D01*
X140865161Y-125086729D01*
X140852931Y-125116255D01*
X140710553Y-125329339D01*
X140529339Y-125510553D01*
X140316255Y-125652931D01*
X140316254Y-125652932D01*
X140316253Y-125652932D01*
X140079487Y-125751004D01*
X139828139Y-125801000D01*
X139571861Y-125801000D01*
X139320513Y-125751004D01*
X139083747Y-125652932D01*
X139083746Y-125652932D01*
X139083745Y-125652931D01*
X138870661Y-125510553D01*
X138689447Y-125329339D01*
X138547069Y-125116255D01*
X138534839Y-125086729D01*
X138448996Y-124879487D01*
X138399000Y-124628139D01*
X138399000Y-124371861D01*
X138448996Y-124120513D01*
X138547068Y-123883747D01*
X138554068Y-123873271D01*
X138689447Y-123670661D01*
X138870661Y-123489447D01*
X139083745Y-123347069D01*
X139083747Y-123347068D01*
X139320513Y-123248996D01*
X139571861Y-123199000D01*
X139828139Y-123199000D01*
X140079487Y-123248996D01*
X140079487Y-123248996D01*
G37*
G36*
X127379487Y-123248996D02*
G01*
X127616253Y-123347068D01*
X127616255Y-123347069D01*
X127829339Y-123489447D01*
X128010553Y-123670661D01*
X128145933Y-123873271D01*
X128152932Y-123883747D01*
X128251004Y-124120513D01*
X128301000Y-124371861D01*
X128301000Y-124628139D01*
X128251004Y-124879487D01*
X128165161Y-125086729D01*
X128152931Y-125116255D01*
X128010553Y-125329339D01*
X127829339Y-125510553D01*
X127616255Y-125652931D01*
X127616254Y-125652932D01*
X127616253Y-125652932D01*
X127379487Y-125751004D01*
X127128139Y-125801000D01*
X126871861Y-125801000D01*
X126620513Y-125751004D01*
X126383747Y-125652932D01*
X126383746Y-125652932D01*
X126383745Y-125652931D01*
X126170661Y-125510553D01*
X125989447Y-125329339D01*
X125847069Y-125116255D01*
X125834839Y-125086729D01*
X125748996Y-124879487D01*
X125699000Y-124628139D01*
X125699000Y-124371861D01*
X125748996Y-124120513D01*
X125847068Y-123883747D01*
X125854068Y-123873271D01*
X125989447Y-123670661D01*
X126170661Y-123489447D01*
X126383745Y-123347069D01*
X126383747Y-123347068D01*
X126620513Y-123248996D01*
X126871861Y-123199000D01*
X127128139Y-123199000D01*
X127379487Y-123248996D01*
X127379487Y-123248996D01*
G37*
G36*
X134999487Y-123248996D02*
G01*
X135236253Y-123347068D01*
X135236255Y-123347069D01*
X135449339Y-123489447D01*
X135630553Y-123670661D01*
X135765933Y-123873271D01*
X135772932Y-123883747D01*
X135871004Y-124120513D01*
X135921000Y-124371861D01*
X135921000Y-124628139D01*
X135871004Y-124879487D01*
X135785161Y-125086729D01*
X135772931Y-125116255D01*
X135630553Y-125329339D01*
X135449339Y-125510553D01*
X135236255Y-125652931D01*
X135236254Y-125652932D01*
X135236253Y-125652932D01*
X134999487Y-125751004D01*
X134748139Y-125801000D01*
X134491861Y-125801000D01*
X134240513Y-125751004D01*
X134003747Y-125652932D01*
X134003746Y-125652932D01*
X134003745Y-125652931D01*
X133790661Y-125510553D01*
X133609447Y-125329339D01*
X133467069Y-125116255D01*
X133454839Y-125086729D01*
X133368996Y-124879487D01*
X133319000Y-124628139D01*
X133319000Y-124371861D01*
X133368996Y-124120513D01*
X133467068Y-123883747D01*
X133474068Y-123873271D01*
X133609447Y-123670661D01*
X133790661Y-123489447D01*
X134003745Y-123347069D01*
X134003747Y-123347068D01*
X134240513Y-123248996D01*
X134491861Y-123199000D01*
X134748139Y-123199000D01*
X134999487Y-123248996D01*
X134999487Y-123248996D01*
G37*
G36*
X150463097Y-123454069D02*
G01*
X150566032Y-123464207D01*
X150764146Y-123524305D01*
X150764149Y-123524306D01*
X150860975Y-123576061D01*
X150946729Y-123621897D01*
X151106765Y-123753235D01*
X151238103Y-123913271D01*
X151283939Y-123999025D01*
X151335694Y-124095851D01*
X151335695Y-124095854D01*
X151395793Y-124293968D01*
X151416085Y-124500000D01*
X151395793Y-124706032D01*
X151347829Y-124864146D01*
X151335694Y-124904149D01*
X151283939Y-125000975D01*
X151238103Y-125086729D01*
X151106765Y-125246765D01*
X150946729Y-125378103D01*
X150923513Y-125390512D01*
X150764149Y-125475694D01*
X150764146Y-125475695D01*
X150566032Y-125535793D01*
X150463097Y-125545931D01*
X150411631Y-125551000D01*
X149308369Y-125551000D01*
X149256903Y-125545931D01*
X149153968Y-125535793D01*
X148955854Y-125475695D01*
X148955851Y-125475694D01*
X148796487Y-125390512D01*
X148773271Y-125378103D01*
X148613235Y-125246765D01*
X148481897Y-125086729D01*
X148436061Y-125000975D01*
X148384306Y-124904149D01*
X148372171Y-124864146D01*
X148324207Y-124706032D01*
X148303915Y-124500000D01*
X148324207Y-124293968D01*
X148384305Y-124095854D01*
X148384306Y-124095851D01*
X148436061Y-123999025D01*
X148481897Y-123913271D01*
X148613235Y-123753235D01*
X148773271Y-123621897D01*
X148859025Y-123576061D01*
X148955851Y-123524306D01*
X148955854Y-123524305D01*
X149153968Y-123464207D01*
X149256903Y-123454069D01*
X149308369Y-123449000D01*
X150411631Y-123449000D01*
X150463097Y-123454069D01*
X150463097Y-123454069D01*
G37*
G36*
X156813097Y-123414069D02*
G01*
X156916032Y-123424207D01*
X157114146Y-123484305D01*
X157114149Y-123484306D01*
X157188981Y-123524305D01*
X157296729Y-123581897D01*
X157456765Y-123713235D01*
X157588103Y-123873271D01*
X157609483Y-123913271D01*
X157685694Y-124055851D01*
X157685695Y-124055854D01*
X157745793Y-124253968D01*
X157766085Y-124460000D01*
X157745793Y-124666032D01*
X157685695Y-124864146D01*
X157685694Y-124864149D01*
X157677495Y-124879488D01*
X157588103Y-125046729D01*
X157456765Y-125206765D01*
X157296729Y-125338103D01*
X157221894Y-125378103D01*
X157114149Y-125435694D01*
X157114146Y-125435695D01*
X156916032Y-125495793D01*
X156813097Y-125505931D01*
X156761631Y-125511000D01*
X155658369Y-125511000D01*
X155606903Y-125505931D01*
X155503968Y-125495793D01*
X155305854Y-125435695D01*
X155305851Y-125435694D01*
X155198106Y-125378103D01*
X155123271Y-125338103D01*
X154963235Y-125206765D01*
X154831897Y-125046729D01*
X154742505Y-124879488D01*
X154734306Y-124864149D01*
X154734305Y-124864146D01*
X154674207Y-124666032D01*
X154653915Y-124460000D01*
X154674207Y-124253968D01*
X154734305Y-124055854D01*
X154734306Y-124055851D01*
X154810517Y-123913271D01*
X154831897Y-123873271D01*
X154963235Y-123713235D01*
X155123271Y-123581897D01*
X155231019Y-123524305D01*
X155305851Y-123484306D01*
X155305854Y-123484305D01*
X155503968Y-123424207D01*
X155606903Y-123414069D01*
X155658369Y-123409000D01*
X156761631Y-123409000D01*
X156813097Y-123414069D01*
X156813097Y-123414069D01*
G37*
G36*
X145159487Y-120668996D02*
G01*
X145396253Y-120767068D01*
X145396255Y-120767069D01*
X145549475Y-120869447D01*
X145609339Y-120909447D01*
X145790553Y-121090661D01*
X145932932Y-121303747D01*
X146031004Y-121540513D01*
X146081000Y-121791861D01*
X146081000Y-122048139D01*
X146031004Y-122299487D01*
X145949500Y-122496255D01*
X145932931Y-122536255D01*
X145790553Y-122749339D01*
X145609339Y-122930553D01*
X145396255Y-123072931D01*
X145396254Y-123072932D01*
X145396253Y-123072932D01*
X145159487Y-123171004D01*
X144908139Y-123221000D01*
X144651861Y-123221000D01*
X144400513Y-123171004D01*
X144163747Y-123072932D01*
X144163746Y-123072932D01*
X144163745Y-123072931D01*
X143950661Y-122930553D01*
X143769447Y-122749339D01*
X143627069Y-122536255D01*
X143610500Y-122496255D01*
X143528996Y-122299487D01*
X143479000Y-122048139D01*
X143479000Y-121791861D01*
X143528996Y-121540513D01*
X143627068Y-121303747D01*
X143769447Y-121090661D01*
X143950661Y-120909447D01*
X144010525Y-120869447D01*
X144163745Y-120767069D01*
X144163747Y-120767068D01*
X144400513Y-120668996D01*
X144651861Y-120619000D01*
X144908139Y-120619000D01*
X145159487Y-120668996D01*
X145159487Y-120668996D01*
G37*
G36*
X164209487Y-120628996D02*
G01*
X164446253Y-120727068D01*
X164446255Y-120727069D01*
X164506119Y-120767069D01*
X164659339Y-120869447D01*
X164840553Y-121050661D01*
X164982932Y-121263747D01*
X165081004Y-121500513D01*
X165131000Y-121751861D01*
X165131000Y-122008139D01*
X165081004Y-122259487D01*
X164982932Y-122496253D01*
X164982931Y-122496255D01*
X164840553Y-122709339D01*
X164659339Y-122890553D01*
X164446255Y-123032931D01*
X164446254Y-123032932D01*
X164446253Y-123032932D01*
X164209487Y-123131004D01*
X163958139Y-123181000D01*
X163701861Y-123181000D01*
X163450513Y-123131004D01*
X163213747Y-123032932D01*
X163213746Y-123032932D01*
X163213745Y-123032931D01*
X163000661Y-122890553D01*
X162819447Y-122709339D01*
X162677069Y-122496255D01*
X162677068Y-122496253D01*
X162578996Y-122259487D01*
X162529000Y-122008139D01*
X162529000Y-121751861D01*
X162578996Y-121500513D01*
X162677068Y-121263747D01*
X162819447Y-121050661D01*
X163000661Y-120869447D01*
X163153881Y-120767069D01*
X163213745Y-120727069D01*
X163213747Y-120727068D01*
X163450513Y-120628996D01*
X163701861Y-120579000D01*
X163958139Y-120579000D01*
X164209487Y-120628996D01*
X164209487Y-120628996D01*
G37*
G36*
X136269487Y-115588996D02*
G01*
X136506253Y-115687068D01*
X136506255Y-115687069D01*
X136659475Y-115789447D01*
X136719339Y-115829447D01*
X136900553Y-116010661D01*
X137042932Y-116223747D01*
X137141004Y-116460513D01*
X137191000Y-116711861D01*
X137191000Y-116968139D01*
X137141004Y-117219487D01*
X137059500Y-117416255D01*
X137042931Y-117456255D01*
X136900553Y-117669339D01*
X136719339Y-117850553D01*
X136506255Y-117992931D01*
X136506254Y-117992932D01*
X136506253Y-117992932D01*
X136269487Y-118091004D01*
X136018139Y-118141000D01*
X135761861Y-118141000D01*
X135510513Y-118091004D01*
X135273747Y-117992932D01*
X135273746Y-117992932D01*
X135273745Y-117992931D01*
X135060661Y-117850553D01*
X134879447Y-117669339D01*
X134737069Y-117456255D01*
X134720500Y-117416255D01*
X134638996Y-117219487D01*
X134589000Y-116968139D01*
X134589000Y-116711861D01*
X134638996Y-116460513D01*
X134737068Y-116223747D01*
X134879447Y-116010661D01*
X135060661Y-115829447D01*
X135120525Y-115789447D01*
X135273745Y-115687069D01*
X135273747Y-115687068D01*
X135510513Y-115588996D01*
X135761861Y-115539000D01*
X136018139Y-115539000D01*
X136269487Y-115588996D01*
X136269487Y-115588996D01*
G37*
G36*
X141349487Y-115588996D02*
G01*
X141586253Y-115687068D01*
X141586255Y-115687069D01*
X141739475Y-115789447D01*
X141799339Y-115829447D01*
X141980553Y-116010661D01*
X142122932Y-116223747D01*
X142221004Y-116460513D01*
X142271000Y-116711861D01*
X142271000Y-116968139D01*
X142221004Y-117219487D01*
X142139500Y-117416255D01*
X142122931Y-117456255D01*
X141980553Y-117669339D01*
X141799339Y-117850553D01*
X141586255Y-117992931D01*
X141586254Y-117992932D01*
X141586253Y-117992932D01*
X141349487Y-118091004D01*
X141098139Y-118141000D01*
X140841861Y-118141000D01*
X140590513Y-118091004D01*
X140353747Y-117992932D01*
X140353746Y-117992932D01*
X140353745Y-117992931D01*
X140140661Y-117850553D01*
X139959447Y-117669339D01*
X139817069Y-117456255D01*
X139800500Y-117416255D01*
X139718996Y-117219487D01*
X139669000Y-116968139D01*
X139669000Y-116711861D01*
X139718996Y-116460513D01*
X139817068Y-116223747D01*
X139959447Y-116010661D01*
X140140661Y-115829447D01*
X140200525Y-115789447D01*
X140353745Y-115687069D01*
X140353747Y-115687068D01*
X140590513Y-115588996D01*
X140841861Y-115539000D01*
X141098139Y-115539000D01*
X141349487Y-115588996D01*
X141349487Y-115588996D01*
G37*
G36*
X156589487Y-115588996D02*
G01*
X156826253Y-115687068D01*
X156826255Y-115687069D01*
X156979475Y-115789447D01*
X157039339Y-115829447D01*
X157220553Y-116010661D01*
X157362932Y-116223747D01*
X157461004Y-116460513D01*
X157511000Y-116711861D01*
X157511000Y-116968139D01*
X157461004Y-117219487D01*
X157379500Y-117416255D01*
X157362931Y-117456255D01*
X157220553Y-117669339D01*
X157039339Y-117850553D01*
X156826255Y-117992931D01*
X156826254Y-117992932D01*
X156826253Y-117992932D01*
X156589487Y-118091004D01*
X156338139Y-118141000D01*
X156081861Y-118141000D01*
X155830513Y-118091004D01*
X155593747Y-117992932D01*
X155593746Y-117992932D01*
X155593745Y-117992931D01*
X155380661Y-117850553D01*
X155199447Y-117669339D01*
X155057069Y-117456255D01*
X155040500Y-117416255D01*
X154958996Y-117219487D01*
X154909000Y-116968139D01*
X154909000Y-116711861D01*
X154958996Y-116460513D01*
X155057068Y-116223747D01*
X155199447Y-116010661D01*
X155380661Y-115829447D01*
X155440525Y-115789447D01*
X155593745Y-115687069D01*
X155593747Y-115687068D01*
X155830513Y-115588996D01*
X156081861Y-115539000D01*
X156338139Y-115539000D01*
X156589487Y-115588996D01*
X156589487Y-115588996D01*
G37*
G36*
X149009487Y-115588996D02*
G01*
X149246253Y-115687068D01*
X149246255Y-115687069D01*
X149399475Y-115789447D01*
X149459339Y-115829447D01*
X149640553Y-116010661D01*
X149782932Y-116223747D01*
X149881004Y-116460513D01*
X149931000Y-116711861D01*
X149931000Y-116968139D01*
X149881004Y-117219487D01*
X149799500Y-117416255D01*
X149782931Y-117456255D01*
X149640553Y-117669339D01*
X149459339Y-117850553D01*
X149246255Y-117992931D01*
X149246254Y-117992932D01*
X149246253Y-117992932D01*
X149009487Y-118091004D01*
X148758139Y-118141000D01*
X148501861Y-118141000D01*
X148250513Y-118091004D01*
X148013747Y-117992932D01*
X148013746Y-117992932D01*
X148013745Y-117992931D01*
X147800661Y-117850553D01*
X147619447Y-117669339D01*
X147477069Y-117456255D01*
X147460500Y-117416255D01*
X147378996Y-117219487D01*
X147329000Y-116968139D01*
X147329000Y-116711861D01*
X147378996Y-116460513D01*
X147477068Y-116223747D01*
X147619447Y-116010661D01*
X147800661Y-115829447D01*
X147860525Y-115789447D01*
X148013745Y-115687069D01*
X148013747Y-115687068D01*
X148250513Y-115588996D01*
X148501861Y-115539000D01*
X148758139Y-115539000D01*
X149009487Y-115588996D01*
X149009487Y-115588996D01*
G37*
G36*
X164209487Y-115548996D02*
G01*
X164446253Y-115647068D01*
X164446255Y-115647069D01*
X164506119Y-115687069D01*
X164659339Y-115789447D01*
X164840553Y-115970661D01*
X164982932Y-116183747D01*
X165081004Y-116420513D01*
X165131000Y-116671861D01*
X165131000Y-116928139D01*
X165081004Y-117179487D01*
X164982932Y-117416253D01*
X164982931Y-117416255D01*
X164840553Y-117629339D01*
X164659339Y-117810553D01*
X164446255Y-117952931D01*
X164446254Y-117952932D01*
X164446253Y-117952932D01*
X164209487Y-118051004D01*
X163958139Y-118101000D01*
X163701861Y-118101000D01*
X163450513Y-118051004D01*
X163213747Y-117952932D01*
X163213746Y-117952932D01*
X163213745Y-117952931D01*
X163000661Y-117810553D01*
X162819447Y-117629339D01*
X162677069Y-117416255D01*
X162677068Y-117416253D01*
X162578996Y-117179487D01*
X162529000Y-116928139D01*
X162529000Y-116671861D01*
X162578996Y-116420513D01*
X162677068Y-116183747D01*
X162819447Y-115970661D01*
X163000661Y-115789447D01*
X163153881Y-115687069D01*
X163213745Y-115647069D01*
X163213747Y-115647068D01*
X163450513Y-115548996D01*
X163701861Y-115499000D01*
X163958139Y-115499000D01*
X164209487Y-115548996D01*
X164209487Y-115548996D01*
G37*
G36*
X126109487Y-110548996D02*
G01*
X126346253Y-110647068D01*
X126346255Y-110647069D01*
X126499475Y-110749447D01*
X126559339Y-110789447D01*
X126740553Y-110970661D01*
X126882932Y-111183747D01*
X126981004Y-111420513D01*
X127031000Y-111671861D01*
X127031000Y-111928139D01*
X126981004Y-112179487D01*
X126899500Y-112376255D01*
X126882931Y-112416255D01*
X126740553Y-112629339D01*
X126559339Y-112810553D01*
X126346255Y-112952931D01*
X126346254Y-112952932D01*
X126346253Y-112952932D01*
X126109487Y-113051004D01*
X125858139Y-113101000D01*
X125601861Y-113101000D01*
X125350513Y-113051004D01*
X125113747Y-112952932D01*
X125113746Y-112952932D01*
X125113745Y-112952931D01*
X124900661Y-112810553D01*
X124719447Y-112629339D01*
X124577069Y-112416255D01*
X124560500Y-112376255D01*
X124478996Y-112179487D01*
X124429000Y-111928139D01*
X124429000Y-111671861D01*
X124478996Y-111420513D01*
X124577068Y-111183747D01*
X124719447Y-110970661D01*
X124900661Y-110789447D01*
X124960525Y-110749447D01*
X125113745Y-110647069D01*
X125113747Y-110647068D01*
X125350513Y-110548996D01*
X125601861Y-110499000D01*
X125858139Y-110499000D01*
X126109487Y-110548996D01*
X126109487Y-110548996D01*
G37*
G36*
X141349487Y-110508996D02*
G01*
X141586253Y-110607068D01*
X141586255Y-110607069D01*
X141646119Y-110647069D01*
X141799339Y-110749447D01*
X141980553Y-110930661D01*
X142122932Y-111143747D01*
X142221004Y-111380513D01*
X142271000Y-111631861D01*
X142271000Y-111888139D01*
X142221004Y-112139487D01*
X142122932Y-112376253D01*
X142122931Y-112376255D01*
X141980553Y-112589339D01*
X141799339Y-112770553D01*
X141586255Y-112912931D01*
X141586254Y-112912932D01*
X141586253Y-112912932D01*
X141349487Y-113011004D01*
X141098139Y-113061000D01*
X140841861Y-113061000D01*
X140590513Y-113011004D01*
X140353747Y-112912932D01*
X140353746Y-112912932D01*
X140353745Y-112912931D01*
X140140661Y-112770553D01*
X139959447Y-112589339D01*
X139817069Y-112376255D01*
X139817068Y-112376253D01*
X139718996Y-112139487D01*
X139669000Y-111888139D01*
X139669000Y-111631861D01*
X139718996Y-111380513D01*
X139817068Y-111143747D01*
X139959447Y-110930661D01*
X140140661Y-110749447D01*
X140293881Y-110647069D01*
X140353745Y-110607069D01*
X140353747Y-110607068D01*
X140590513Y-110508996D01*
X140841861Y-110459000D01*
X141098139Y-110459000D01*
X141349487Y-110508996D01*
X141349487Y-110508996D01*
G37*
G36*
X133769487Y-110508996D02*
G01*
X134006253Y-110607068D01*
X134006255Y-110607069D01*
X134066119Y-110647069D01*
X134219339Y-110749447D01*
X134400553Y-110930661D01*
X134542932Y-111143747D01*
X134641004Y-111380513D01*
X134691000Y-111631861D01*
X134691000Y-111888139D01*
X134641004Y-112139487D01*
X134542932Y-112376253D01*
X134542931Y-112376255D01*
X134400553Y-112589339D01*
X134219339Y-112770553D01*
X134006255Y-112912931D01*
X134006254Y-112912932D01*
X134006253Y-112912932D01*
X133769487Y-113011004D01*
X133518139Y-113061000D01*
X133261861Y-113061000D01*
X133010513Y-113011004D01*
X132773747Y-112912932D01*
X132773746Y-112912932D01*
X132773745Y-112912931D01*
X132560661Y-112770553D01*
X132379447Y-112589339D01*
X132237069Y-112376255D01*
X132237068Y-112376253D01*
X132138996Y-112139487D01*
X132089000Y-111888139D01*
X132089000Y-111631861D01*
X132138996Y-111380513D01*
X132237068Y-111143747D01*
X132379447Y-110930661D01*
X132560661Y-110749447D01*
X132713881Y-110647069D01*
X132773745Y-110607069D01*
X132773747Y-110607068D01*
X133010513Y-110508996D01*
X133261861Y-110459000D01*
X133518139Y-110459000D01*
X133769487Y-110508996D01*
X133769487Y-110508996D01*
G37*
G36*
X156629487Y-107908996D02*
G01*
X156803319Y-107981000D01*
X156866255Y-108007069D01*
X157079339Y-108149447D01*
X157260553Y-108330661D01*
X157402932Y-108543747D01*
X157501004Y-108780513D01*
X157551000Y-109031861D01*
X157551000Y-109288139D01*
X157501004Y-109539487D01*
X157402932Y-109776253D01*
X157402931Y-109776255D01*
X157260553Y-109989339D01*
X157079339Y-110170553D01*
X156866255Y-110312931D01*
X156866254Y-110312932D01*
X156866253Y-110312932D01*
X156629487Y-110411004D01*
X156378139Y-110461000D01*
X156121861Y-110461000D01*
X155870513Y-110411004D01*
X155633747Y-110312932D01*
X155633746Y-110312932D01*
X155633745Y-110312931D01*
X155420661Y-110170553D01*
X155239447Y-109989339D01*
X155097069Y-109776255D01*
X155097068Y-109776253D01*
X154998996Y-109539487D01*
X154949000Y-109288139D01*
X154949000Y-109031861D01*
X154998996Y-108780513D01*
X155097068Y-108543747D01*
X155239447Y-108330661D01*
X155420661Y-108149447D01*
X155633745Y-108007069D01*
X155696681Y-107981000D01*
X155870513Y-107908996D01*
X156121861Y-107859000D01*
X156378139Y-107859000D01*
X156629487Y-107908996D01*
X156629487Y-107908996D01*
G37*
G36*
X151549487Y-107908996D02*
G01*
X151723319Y-107981000D01*
X151786255Y-108007069D01*
X151999339Y-108149447D01*
X152180553Y-108330661D01*
X152322932Y-108543747D01*
X152421004Y-108780513D01*
X152471000Y-109031861D01*
X152471000Y-109288139D01*
X152421004Y-109539487D01*
X152322932Y-109776253D01*
X152322931Y-109776255D01*
X152180553Y-109989339D01*
X151999339Y-110170553D01*
X151786255Y-110312931D01*
X151786254Y-110312932D01*
X151786253Y-110312932D01*
X151549487Y-110411004D01*
X151298139Y-110461000D01*
X151041861Y-110461000D01*
X150790513Y-110411004D01*
X150553747Y-110312932D01*
X150553746Y-110312932D01*
X150553745Y-110312931D01*
X150340661Y-110170553D01*
X150159447Y-109989339D01*
X150017069Y-109776255D01*
X150017068Y-109776253D01*
X149918996Y-109539487D01*
X149869000Y-109288139D01*
X149869000Y-109031861D01*
X149918996Y-108780513D01*
X150017068Y-108543747D01*
X150159447Y-108330661D01*
X150340661Y-108149447D01*
X150553745Y-108007069D01*
X150616681Y-107981000D01*
X150790513Y-107908996D01*
X151041861Y-107859000D01*
X151298139Y-107859000D01*
X151549487Y-107908996D01*
X151549487Y-107908996D01*
G37*
G36*
X133729487Y-105428996D02*
G01*
X133966253Y-105527068D01*
X133966255Y-105527069D01*
X134179339Y-105669447D01*
X134360553Y-105850661D01*
X134502932Y-106063747D01*
X134601004Y-106300513D01*
X134651000Y-106551861D01*
X134651000Y-106808139D01*
X134601004Y-107059487D01*
X134502932Y-107296253D01*
X134502931Y-107296255D01*
X134360553Y-107509339D01*
X134179339Y-107690553D01*
X133966255Y-107832931D01*
X133966254Y-107832932D01*
X133966253Y-107832932D01*
X133729487Y-107931004D01*
X133478139Y-107981000D01*
X133221861Y-107981000D01*
X132970513Y-107931004D01*
X132733747Y-107832932D01*
X132733746Y-107832932D01*
X132733745Y-107832931D01*
X132520661Y-107690553D01*
X132339447Y-107509339D01*
X132197069Y-107296255D01*
X132197068Y-107296253D01*
X132098996Y-107059487D01*
X132049000Y-106808139D01*
X132049000Y-106551861D01*
X132098996Y-106300513D01*
X132197068Y-106063747D01*
X132339447Y-105850661D01*
X132520661Y-105669447D01*
X132733745Y-105527069D01*
X132733747Y-105527068D01*
X132970513Y-105428996D01*
X133221861Y-105379000D01*
X133478139Y-105379000D01*
X133729487Y-105428996D01*
X133729487Y-105428996D01*
G37*
G36*
X138809487Y-105428996D02*
G01*
X139046253Y-105527068D01*
X139046255Y-105527069D01*
X139259339Y-105669447D01*
X139440553Y-105850661D01*
X139582932Y-106063747D01*
X139681004Y-106300513D01*
X139731000Y-106551861D01*
X139731000Y-106808139D01*
X139681004Y-107059487D01*
X139582932Y-107296253D01*
X139582931Y-107296255D01*
X139440553Y-107509339D01*
X139259339Y-107690553D01*
X139046255Y-107832931D01*
X139046254Y-107832932D01*
X139046253Y-107832932D01*
X138809487Y-107931004D01*
X138558139Y-107981000D01*
X138301861Y-107981000D01*
X138050513Y-107931004D01*
X137813747Y-107832932D01*
X137813746Y-107832932D01*
X137813745Y-107832931D01*
X137600661Y-107690553D01*
X137419447Y-107509339D01*
X137277069Y-107296255D01*
X137277068Y-107296253D01*
X137178996Y-107059487D01*
X137129000Y-106808139D01*
X137129000Y-106551861D01*
X137178996Y-106300513D01*
X137277068Y-106063747D01*
X137419447Y-105850661D01*
X137600661Y-105669447D01*
X137813745Y-105527069D01*
X137813747Y-105527068D01*
X138050513Y-105428996D01*
X138301861Y-105379000D01*
X138558139Y-105379000D01*
X138809487Y-105428996D01*
X138809487Y-105428996D01*
G37*
M02*
