G04 #@! TF.GenerationSoftware,KiCad,Pcbnew,(5.1.2)-2*
G04 #@! TF.CreationDate,2019-11-01T20:16:41+11:00*
G04 #@! TF.ProjectId,BoSL_GSP,426f534c-5f47-4535-902e-6b696361645f,0.3*
G04 #@! TF.SameCoordinates,Original*
G04 #@! TF.FileFunction,Legend,Bot*
G04 #@! TF.FilePolarity,Positive*
%FSLAX46Y46*%
G04 Gerber Fmt 4.6, Leading zero omitted, Abs format (unit mm)*
G04 Created by KiCad (PCBNEW (5.1.2)-2) date 2019-11-01 20:16:41*
%MOMM*%
%LPD*%
G04 APERTURE LIST*
%ADD10C,0.150000*%
%ADD11C,0.300000*%
%ADD12C,0.450000*%
G04 APERTURE END LIST*
D10*
X113216666Y-117352380D02*
X113550000Y-116876190D01*
X113788095Y-117352380D02*
X113788095Y-116352380D01*
X113407142Y-116352380D01*
X113311904Y-116400000D01*
X113264285Y-116447619D01*
X113216666Y-116542857D01*
X113216666Y-116685714D01*
X113264285Y-116780952D01*
X113311904Y-116828571D01*
X113407142Y-116876190D01*
X113788095Y-116876190D01*
X112883333Y-116352380D02*
X112216666Y-117352380D01*
X112216666Y-116352380D02*
X112883333Y-117352380D01*
X116361904Y-116352380D02*
X115790476Y-116352380D01*
X116076190Y-117352380D02*
X116076190Y-116352380D01*
X115552380Y-116352380D02*
X114885714Y-117352380D01*
X114885714Y-116352380D02*
X115552380Y-117352380D01*
X134600000Y-72400000D02*
X145700000Y-72400000D01*
X134600000Y-72400000D02*
X123500000Y-72400000D01*
X134600000Y-77200000D02*
X134600000Y-72400000D01*
D11*
X122378571Y-69235714D02*
X120878571Y-69235714D01*
X121021428Y-69878571D02*
X120950000Y-69950000D01*
X120878571Y-70092857D01*
X120878571Y-70450000D01*
X120950000Y-70592857D01*
X121021428Y-70664285D01*
X121164285Y-70735714D01*
X121307142Y-70735714D01*
X121521428Y-70664285D01*
X122378571Y-69807142D01*
X122378571Y-70735714D01*
X122235714Y-72235714D02*
X122307142Y-72164285D01*
X122378571Y-71950000D01*
X122378571Y-71807142D01*
X122307142Y-71592857D01*
X122164285Y-71450000D01*
X122021428Y-71378571D01*
X121735714Y-71307142D01*
X121521428Y-71307142D01*
X121235714Y-71378571D01*
X121092857Y-71450000D01*
X120950000Y-71592857D01*
X120878571Y-71807142D01*
X120878571Y-71950000D01*
X120950000Y-72164285D01*
X121021428Y-72235714D01*
D10*
X122800000Y-78800000D02*
X123600000Y-78800000D01*
X122800000Y-63300000D02*
X122800000Y-78800000D01*
X123700000Y-63300000D02*
X122800000Y-63300000D01*
X191000000Y-115700000D02*
X191000000Y-116100000D01*
X170500000Y-115700000D02*
X170500000Y-116100000D01*
X170500000Y-115700000D02*
X191000000Y-115700000D01*
X127904761Y-68809523D02*
X127952380Y-68952380D01*
X127952380Y-69190476D01*
X127904761Y-69285714D01*
X127857142Y-69333333D01*
X127761904Y-69380952D01*
X127666666Y-69380952D01*
X127571428Y-69333333D01*
X127523809Y-69285714D01*
X127476190Y-69190476D01*
X127428571Y-69000000D01*
X127380952Y-68904761D01*
X127333333Y-68857142D01*
X127238095Y-68809523D01*
X127142857Y-68809523D01*
X127047619Y-68857142D01*
X127000000Y-68904761D01*
X126952380Y-69000000D01*
X126952380Y-69238095D01*
X127000000Y-69380952D01*
X127857142Y-70380952D02*
X127904761Y-70333333D01*
X127952380Y-70190476D01*
X127952380Y-70095238D01*
X127904761Y-69952380D01*
X127809523Y-69857142D01*
X127714285Y-69809523D01*
X127523809Y-69761904D01*
X127380952Y-69761904D01*
X127190476Y-69809523D01*
X127095238Y-69857142D01*
X127000000Y-69952380D01*
X126952380Y-70095238D01*
X126952380Y-70190476D01*
X127000000Y-70333333D01*
X127047619Y-70380952D01*
X127952380Y-71285714D02*
X127952380Y-70809523D01*
X126952380Y-70809523D01*
X133004761Y-68885714D02*
X133052380Y-69028571D01*
X133052380Y-69266666D01*
X133004761Y-69361904D01*
X132957142Y-69409523D01*
X132861904Y-69457142D01*
X132766666Y-69457142D01*
X132671428Y-69409523D01*
X132623809Y-69361904D01*
X132576190Y-69266666D01*
X132528571Y-69076190D01*
X132480952Y-68980952D01*
X132433333Y-68933333D01*
X132338095Y-68885714D01*
X132242857Y-68885714D01*
X132147619Y-68933333D01*
X132100000Y-68980952D01*
X132052380Y-69076190D01*
X132052380Y-69314285D01*
X132100000Y-69457142D01*
X133052380Y-69885714D02*
X132052380Y-69885714D01*
X132052380Y-70123809D01*
X132100000Y-70266666D01*
X132195238Y-70361904D01*
X132290476Y-70409523D01*
X132480952Y-70457142D01*
X132623809Y-70457142D01*
X132814285Y-70409523D01*
X132909523Y-70361904D01*
X133004761Y-70266666D01*
X133052380Y-70123809D01*
X133052380Y-69885714D01*
X132766666Y-70838095D02*
X132766666Y-71314285D01*
X133052380Y-70742857D02*
X132052380Y-71076190D01*
X133052380Y-71409523D01*
X137000000Y-69338095D02*
X136952380Y-69242857D01*
X136952380Y-69100000D01*
X137000000Y-68957142D01*
X137095238Y-68861904D01*
X137190476Y-68814285D01*
X137380952Y-68766666D01*
X137523809Y-68766666D01*
X137714285Y-68814285D01*
X137809523Y-68861904D01*
X137904761Y-68957142D01*
X137952380Y-69100000D01*
X137952380Y-69195238D01*
X137904761Y-69338095D01*
X137857142Y-69385714D01*
X137523809Y-69385714D01*
X137523809Y-69195238D01*
X137952380Y-69814285D02*
X136952380Y-69814285D01*
X137952380Y-70385714D01*
X136952380Y-70385714D01*
X137952380Y-70861904D02*
X136952380Y-70861904D01*
X136952380Y-71100000D01*
X137000000Y-71242857D01*
X137095238Y-71338095D01*
X137190476Y-71385714D01*
X137380952Y-71433333D01*
X137523809Y-71433333D01*
X137714285Y-71385714D01*
X137809523Y-71338095D01*
X137904761Y-71242857D01*
X137952380Y-71100000D01*
X137952380Y-70861904D01*
X141952380Y-68723809D02*
X141952380Y-69342857D01*
X142333333Y-69009523D01*
X142333333Y-69152380D01*
X142380952Y-69247619D01*
X142428571Y-69295238D01*
X142523809Y-69342857D01*
X142761904Y-69342857D01*
X142857142Y-69295238D01*
X142904761Y-69247619D01*
X142952380Y-69152380D01*
X142952380Y-68866666D01*
X142904761Y-68771428D01*
X142857142Y-68723809D01*
X142857142Y-69771428D02*
X142904761Y-69819047D01*
X142952380Y-69771428D01*
X142904761Y-69723809D01*
X142857142Y-69771428D01*
X142952380Y-69771428D01*
X141952380Y-70152380D02*
X141952380Y-70771428D01*
X142333333Y-70438095D01*
X142333333Y-70580952D01*
X142380952Y-70676190D01*
X142428571Y-70723809D01*
X142523809Y-70771428D01*
X142761904Y-70771428D01*
X142857142Y-70723809D01*
X142904761Y-70676190D01*
X142952380Y-70580952D01*
X142952380Y-70295238D01*
X142904761Y-70200000D01*
X142857142Y-70152380D01*
X141952380Y-71057142D02*
X142952380Y-71390476D01*
X141952380Y-71723809D01*
X166800000Y-63400000D02*
X166800000Y-77200000D01*
X161700000Y-63400000D02*
X161700000Y-77200000D01*
X156700000Y-63400000D02*
X156700000Y-77200000D01*
X146400000Y-63400000D02*
X146400000Y-77200000D01*
D11*
X181878571Y-115007142D02*
X181664285Y-115078571D01*
X181307142Y-115078571D01*
X181164285Y-115007142D01*
X181092857Y-114935714D01*
X181021428Y-114792857D01*
X181021428Y-114650000D01*
X181092857Y-114507142D01*
X181164285Y-114435714D01*
X181307142Y-114364285D01*
X181592857Y-114292857D01*
X181735714Y-114221428D01*
X181807142Y-114150000D01*
X181878571Y-114007142D01*
X181878571Y-113864285D01*
X181807142Y-113721428D01*
X181735714Y-113650000D01*
X181592857Y-113578571D01*
X181235714Y-113578571D01*
X181021428Y-113650000D01*
X180378571Y-115078571D02*
X180378571Y-113578571D01*
X180021428Y-113578571D01*
X179807142Y-113650000D01*
X179664285Y-113792857D01*
X179592857Y-113935714D01*
X179521428Y-114221428D01*
X179521428Y-114435714D01*
X179592857Y-114721428D01*
X179664285Y-114864285D01*
X179807142Y-115007142D01*
X180021428Y-115078571D01*
X180378571Y-115078571D01*
D10*
X191000000Y-118600000D02*
X191000000Y-132400000D01*
X185800000Y-118600000D02*
X185800000Y-132400000D01*
X180700000Y-118600000D02*
X180700000Y-132400000D01*
X175600000Y-118600000D02*
X175600000Y-132400000D01*
X170500000Y-118600000D02*
X170500000Y-132400000D01*
X165400000Y-118600000D02*
X165400000Y-132400000D01*
X160400000Y-118600000D02*
X160400000Y-132400000D01*
X155300000Y-118600000D02*
X155300000Y-132400000D01*
X150000000Y-118600000D02*
X150000000Y-132400000D01*
X149000000Y-118600000D02*
X149000000Y-132400000D01*
X143800000Y-118600000D02*
X143800000Y-132400000D01*
X138700000Y-118600000D02*
X138700000Y-132400000D01*
X133600000Y-118600000D02*
X133600000Y-132400000D01*
X128500000Y-118500000D02*
X128500000Y-132400000D01*
X123500000Y-118500000D02*
X123500000Y-132400000D01*
X118300000Y-118500000D02*
X118300000Y-132400000D01*
X116900000Y-119400000D02*
X116900000Y-118500000D01*
X116900000Y-119400000D02*
X116900000Y-132400000D01*
X107200000Y-126200000D02*
X107200000Y-127500000D01*
X108000000Y-125400000D02*
X107200000Y-126200000D01*
X109300000Y-125400000D02*
X108000000Y-125400000D01*
X111800000Y-122900000D02*
X109300000Y-125400000D01*
X107200000Y-127500000D02*
X107200000Y-132400000D01*
X111800000Y-118500000D02*
X111800000Y-122900000D01*
X114300000Y-122900000D02*
X114300000Y-118500000D01*
X111800000Y-125400000D02*
X111800000Y-125700000D01*
X114300000Y-122900000D02*
X111800000Y-125400000D01*
X111800000Y-132400000D02*
X111800000Y-125700000D01*
D12*
X186377761Y-78455047D02*
X185425380Y-77788380D01*
X186377761Y-77312190D02*
X184377761Y-77312190D01*
X184377761Y-78074095D01*
X184473000Y-78264571D01*
X184568238Y-78359809D01*
X184758714Y-78455047D01*
X185044428Y-78455047D01*
X185234904Y-78359809D01*
X185330142Y-78264571D01*
X185425380Y-78074095D01*
X185425380Y-77312190D01*
X186282523Y-80074095D02*
X186377761Y-79883619D01*
X186377761Y-79502666D01*
X186282523Y-79312190D01*
X186092047Y-79216952D01*
X185330142Y-79216952D01*
X185139666Y-79312190D01*
X185044428Y-79502666D01*
X185044428Y-79883619D01*
X185139666Y-80074095D01*
X185330142Y-80169333D01*
X185520619Y-80169333D01*
X185711095Y-79216952D01*
X185044428Y-80836000D02*
X186377761Y-81312190D01*
X185044428Y-81788380D01*
X186187285Y-82550285D02*
X186282523Y-82645523D01*
X186377761Y-82550285D01*
X186282523Y-82455047D01*
X186187285Y-82550285D01*
X186377761Y-82550285D01*
X185139666Y-82550285D02*
X185234904Y-82645523D01*
X185330142Y-82550285D01*
X185234904Y-82455047D01*
X185139666Y-82550285D01*
X185330142Y-82550285D01*
X184377761Y-85407428D02*
X184377761Y-85597904D01*
X184473000Y-85788380D01*
X184568238Y-85883619D01*
X184758714Y-85978857D01*
X185139666Y-86074095D01*
X185615857Y-86074095D01*
X185996809Y-85978857D01*
X186187285Y-85883619D01*
X186282523Y-85788380D01*
X186377761Y-85597904D01*
X186377761Y-85407428D01*
X186282523Y-85216952D01*
X186187285Y-85121714D01*
X185996809Y-85026476D01*
X185615857Y-84931238D01*
X185139666Y-84931238D01*
X184758714Y-85026476D01*
X184568238Y-85121714D01*
X184473000Y-85216952D01*
X184377761Y-85407428D01*
X186187285Y-86931238D02*
X186282523Y-87026476D01*
X186377761Y-86931238D01*
X186282523Y-86836000D01*
X186187285Y-86931238D01*
X186377761Y-86931238D01*
X184377761Y-87693142D02*
X184377761Y-88931238D01*
X185139666Y-88264571D01*
X185139666Y-88550285D01*
X185234904Y-88740761D01*
X185330142Y-88836000D01*
X185520619Y-88931238D01*
X185996809Y-88931238D01*
X186187285Y-88836000D01*
X186282523Y-88740761D01*
X186377761Y-88550285D01*
X186377761Y-87978857D01*
X186282523Y-87788380D01*
X186187285Y-87693142D01*
X184473000Y-92359809D02*
X184377761Y-92169333D01*
X184377761Y-91883619D01*
X184473000Y-91597904D01*
X184663476Y-91407428D01*
X184853952Y-91312190D01*
X185234904Y-91216952D01*
X185520619Y-91216952D01*
X185901571Y-91312190D01*
X186092047Y-91407428D01*
X186282523Y-91597904D01*
X186377761Y-91883619D01*
X186377761Y-92074095D01*
X186282523Y-92359809D01*
X186187285Y-92455047D01*
X185520619Y-92455047D01*
X185520619Y-92074095D01*
X189827761Y-66502666D02*
X187827761Y-66502666D01*
X189256333Y-67169333D01*
X187827761Y-67836000D01*
X189827761Y-67836000D01*
X189827761Y-69074095D02*
X189732523Y-68883619D01*
X189637285Y-68788380D01*
X189446809Y-68693142D01*
X188875380Y-68693142D01*
X188684904Y-68788380D01*
X188589666Y-68883619D01*
X188494428Y-69074095D01*
X188494428Y-69359809D01*
X188589666Y-69550285D01*
X188684904Y-69645523D01*
X188875380Y-69740761D01*
X189446809Y-69740761D01*
X189637285Y-69645523D01*
X189732523Y-69550285D01*
X189827761Y-69359809D01*
X189827761Y-69074095D01*
X188494428Y-70597904D02*
X189827761Y-70597904D01*
X188684904Y-70597904D02*
X188589666Y-70693142D01*
X188494428Y-70883619D01*
X188494428Y-71169333D01*
X188589666Y-71359809D01*
X188780142Y-71455047D01*
X189827761Y-71455047D01*
X189827761Y-73264571D02*
X188780142Y-73264571D01*
X188589666Y-73169333D01*
X188494428Y-72978857D01*
X188494428Y-72597904D01*
X188589666Y-72407428D01*
X189732523Y-73264571D02*
X189827761Y-73074095D01*
X189827761Y-72597904D01*
X189732523Y-72407428D01*
X189542047Y-72312190D01*
X189351571Y-72312190D01*
X189161095Y-72407428D01*
X189065857Y-72597904D01*
X189065857Y-73074095D01*
X188970619Y-73264571D01*
X189732523Y-74121714D02*
X189827761Y-74312190D01*
X189827761Y-74693142D01*
X189732523Y-74883619D01*
X189542047Y-74978857D01*
X189446809Y-74978857D01*
X189256333Y-74883619D01*
X189161095Y-74693142D01*
X189161095Y-74407428D01*
X189065857Y-74216952D01*
X188875380Y-74121714D01*
X188780142Y-74121714D01*
X188589666Y-74216952D01*
X188494428Y-74407428D01*
X188494428Y-74693142D01*
X188589666Y-74883619D01*
X189827761Y-75836000D02*
X187827761Y-75836000D01*
X189827761Y-76693142D02*
X188780142Y-76693142D01*
X188589666Y-76597904D01*
X188494428Y-76407428D01*
X188494428Y-76121714D01*
X188589666Y-75931238D01*
X188684904Y-75836000D01*
X188780142Y-79836000D02*
X188875380Y-80121714D01*
X188970619Y-80216952D01*
X189161095Y-80312190D01*
X189446809Y-80312190D01*
X189637285Y-80216952D01*
X189732523Y-80121714D01*
X189827761Y-79931238D01*
X189827761Y-79169333D01*
X187827761Y-79169333D01*
X187827761Y-79836000D01*
X187923000Y-80026476D01*
X188018238Y-80121714D01*
X188208714Y-80216952D01*
X188399190Y-80216952D01*
X188589666Y-80121714D01*
X188684904Y-80026476D01*
X188780142Y-79836000D01*
X188780142Y-79169333D01*
X189827761Y-81455047D02*
X189732523Y-81264571D01*
X189637285Y-81169333D01*
X189446809Y-81074095D01*
X188875380Y-81074095D01*
X188684904Y-81169333D01*
X188589666Y-81264571D01*
X188494428Y-81455047D01*
X188494428Y-81740761D01*
X188589666Y-81931238D01*
X188684904Y-82026476D01*
X188875380Y-82121714D01*
X189446809Y-82121714D01*
X189637285Y-82026476D01*
X189732523Y-81931238D01*
X189827761Y-81740761D01*
X189827761Y-81455047D01*
X189732523Y-82883619D02*
X189827761Y-83169333D01*
X189827761Y-83645523D01*
X189732523Y-83836000D01*
X189637285Y-83931238D01*
X189446809Y-84026476D01*
X189256333Y-84026476D01*
X189065857Y-83931238D01*
X188970619Y-83836000D01*
X188875380Y-83645523D01*
X188780142Y-83264571D01*
X188684904Y-83074095D01*
X188589666Y-82978857D01*
X188399190Y-82883619D01*
X188208714Y-82883619D01*
X188018238Y-82978857D01*
X187923000Y-83074095D01*
X187827761Y-83264571D01*
X187827761Y-83740761D01*
X187923000Y-84026476D01*
X189827761Y-85836000D02*
X189827761Y-84883619D01*
X187827761Y-84883619D01*
X187923000Y-89074095D02*
X187827761Y-88883619D01*
X187827761Y-88597904D01*
X187923000Y-88312190D01*
X188113476Y-88121714D01*
X188303952Y-88026476D01*
X188684904Y-87931238D01*
X188970619Y-87931238D01*
X189351571Y-88026476D01*
X189542047Y-88121714D01*
X189732523Y-88312190D01*
X189827761Y-88597904D01*
X189827761Y-88788380D01*
X189732523Y-89074095D01*
X189637285Y-89169333D01*
X188970619Y-89169333D01*
X188970619Y-88788380D01*
X189732523Y-89931238D02*
X189827761Y-90216952D01*
X189827761Y-90693142D01*
X189732523Y-90883619D01*
X189637285Y-90978857D01*
X189446809Y-91074095D01*
X189256333Y-91074095D01*
X189065857Y-90978857D01*
X188970619Y-90883619D01*
X188875380Y-90693142D01*
X188780142Y-90312190D01*
X188684904Y-90121714D01*
X188589666Y-90026476D01*
X188399190Y-89931238D01*
X188208714Y-89931238D01*
X188018238Y-90026476D01*
X187923000Y-90121714D01*
X187827761Y-90312190D01*
X187827761Y-90788380D01*
X187923000Y-91074095D01*
X189827761Y-91931238D02*
X187827761Y-91931238D01*
X187827761Y-92693142D01*
X187923000Y-92883619D01*
X188018238Y-92978857D01*
X188208714Y-93074095D01*
X188494428Y-93074095D01*
X188684904Y-92978857D01*
X188780142Y-92883619D01*
X188875380Y-92693142D01*
X188875380Y-91931238D01*
X188780142Y-96121714D02*
X188875380Y-96407428D01*
X188970619Y-96502666D01*
X189161095Y-96597904D01*
X189446809Y-96597904D01*
X189637285Y-96502666D01*
X189732523Y-96407428D01*
X189827761Y-96216952D01*
X189827761Y-95455047D01*
X187827761Y-95455047D01*
X187827761Y-96121714D01*
X187923000Y-96312190D01*
X188018238Y-96407428D01*
X188208714Y-96502666D01*
X188399190Y-96502666D01*
X188589666Y-96407428D01*
X188684904Y-96312190D01*
X188780142Y-96121714D01*
X188780142Y-95455047D01*
X189827761Y-97740761D02*
X189732523Y-97550285D01*
X189637285Y-97455047D01*
X189446809Y-97359809D01*
X188875380Y-97359809D01*
X188684904Y-97455047D01*
X188589666Y-97550285D01*
X188494428Y-97740761D01*
X188494428Y-98026476D01*
X188589666Y-98216952D01*
X188684904Y-98312190D01*
X188875380Y-98407428D01*
X189446809Y-98407428D01*
X189637285Y-98312190D01*
X189732523Y-98216952D01*
X189827761Y-98026476D01*
X189827761Y-97740761D01*
X189827761Y-100121714D02*
X188780142Y-100121714D01*
X188589666Y-100026476D01*
X188494428Y-99836000D01*
X188494428Y-99455047D01*
X188589666Y-99264571D01*
X189732523Y-100121714D02*
X189827761Y-99931238D01*
X189827761Y-99455047D01*
X189732523Y-99264571D01*
X189542047Y-99169333D01*
X189351571Y-99169333D01*
X189161095Y-99264571D01*
X189065857Y-99455047D01*
X189065857Y-99931238D01*
X188970619Y-100121714D01*
X189827761Y-101074095D02*
X188494428Y-101074095D01*
X188875380Y-101074095D02*
X188684904Y-101169333D01*
X188589666Y-101264571D01*
X188494428Y-101455047D01*
X188494428Y-101645523D01*
X189827761Y-103169333D02*
X187827761Y-103169333D01*
X189732523Y-103169333D02*
X189827761Y-102978857D01*
X189827761Y-102597904D01*
X189732523Y-102407428D01*
X189637285Y-102312190D01*
X189446809Y-102216952D01*
X188875380Y-102216952D01*
X188684904Y-102312190D01*
X188589666Y-102407428D01*
X188494428Y-102597904D01*
X188494428Y-102978857D01*
X188589666Y-103169333D01*
D10*
X177554000Y-108966095D02*
X177506380Y-108870857D01*
X177506380Y-108728000D01*
X177554000Y-108585142D01*
X177649238Y-108489904D01*
X177744476Y-108442285D01*
X177934952Y-108394666D01*
X178077809Y-108394666D01*
X178268285Y-108442285D01*
X178363523Y-108489904D01*
X178458761Y-108585142D01*
X178506380Y-108728000D01*
X178506380Y-108823238D01*
X178458761Y-108966095D01*
X178411142Y-109013714D01*
X178077809Y-109013714D01*
X178077809Y-108823238D01*
X178506380Y-109442285D02*
X177506380Y-109442285D01*
X178506380Y-110013714D01*
X177506380Y-110013714D01*
X178506380Y-110489904D02*
X177506380Y-110489904D01*
X177506380Y-110728000D01*
X177554000Y-110870857D01*
X177649238Y-110966095D01*
X177744476Y-111013714D01*
X177934952Y-111061333D01*
X178077809Y-111061333D01*
X178268285Y-111013714D01*
X178363523Y-110966095D01*
X178458761Y-110870857D01*
X178506380Y-110728000D01*
X178506380Y-110489904D01*
X175966380Y-108712095D02*
X174966380Y-108712095D01*
X174966380Y-108950190D01*
X175014000Y-109093047D01*
X175109238Y-109188285D01*
X175204476Y-109235904D01*
X175394952Y-109283523D01*
X175537809Y-109283523D01*
X175728285Y-109235904D01*
X175823523Y-109188285D01*
X175918761Y-109093047D01*
X175966380Y-108950190D01*
X175966380Y-108712095D01*
X175966380Y-109712095D02*
X174966380Y-109712095D01*
X174966380Y-110093047D01*
X175014000Y-110188285D01*
X175061619Y-110235904D01*
X175156857Y-110283523D01*
X175299714Y-110283523D01*
X175394952Y-110235904D01*
X175442571Y-110188285D01*
X175490190Y-110093047D01*
X175490190Y-109712095D01*
X173426380Y-108640666D02*
X172426380Y-108640666D01*
X172426380Y-108878761D01*
X172474000Y-109021619D01*
X172569238Y-109116857D01*
X172664476Y-109164476D01*
X172854952Y-109212095D01*
X172997809Y-109212095D01*
X173188285Y-109164476D01*
X173283523Y-109116857D01*
X173378761Y-109021619D01*
X173426380Y-108878761D01*
X173426380Y-108640666D01*
X173426380Y-109640666D02*
X172426380Y-109640666D01*
X173140666Y-109974000D01*
X172426380Y-110307333D01*
X173426380Y-110307333D01*
X169886380Y-108521619D02*
X170886380Y-108854952D01*
X169886380Y-109188285D01*
X170505428Y-109521619D02*
X170505428Y-110283523D01*
X170886380Y-109902571D02*
X170124476Y-109902571D01*
D11*
X179914571Y-102810571D02*
X179914571Y-104024857D01*
X179843142Y-104167714D01*
X179771714Y-104239142D01*
X179628857Y-104310571D01*
X179343142Y-104310571D01*
X179200285Y-104239142D01*
X179128857Y-104167714D01*
X179057428Y-104024857D01*
X179057428Y-102810571D01*
X178414571Y-104239142D02*
X178200285Y-104310571D01*
X177843142Y-104310571D01*
X177700285Y-104239142D01*
X177628857Y-104167714D01*
X177557428Y-104024857D01*
X177557428Y-103882000D01*
X177628857Y-103739142D01*
X177700285Y-103667714D01*
X177843142Y-103596285D01*
X178128857Y-103524857D01*
X178271714Y-103453428D01*
X178343142Y-103382000D01*
X178414571Y-103239142D01*
X178414571Y-103096285D01*
X178343142Y-102953428D01*
X178271714Y-102882000D01*
X178128857Y-102810571D01*
X177771714Y-102810571D01*
X177557428Y-102882000D01*
X176414571Y-103524857D02*
X176200285Y-103596285D01*
X176128857Y-103667714D01*
X176057428Y-103810571D01*
X176057428Y-104024857D01*
X176128857Y-104167714D01*
X176200285Y-104239142D01*
X176343142Y-104310571D01*
X176914571Y-104310571D01*
X176914571Y-102810571D01*
X176414571Y-102810571D01*
X176271714Y-102882000D01*
X176200285Y-102953428D01*
X176128857Y-103096285D01*
X176128857Y-103239142D01*
X176200285Y-103382000D01*
X176271714Y-103453428D01*
X176414571Y-103524857D01*
X176914571Y-103524857D01*
X175771714Y-104453428D02*
X174628857Y-104453428D01*
X174271714Y-104310571D02*
X174271714Y-102810571D01*
X173914571Y-102810571D01*
X173700285Y-102882000D01*
X173557428Y-103024857D01*
X173486000Y-103167714D01*
X173414571Y-103453428D01*
X173414571Y-103667714D01*
X173486000Y-103953428D01*
X173557428Y-104096285D01*
X173700285Y-104239142D01*
X173914571Y-104310571D01*
X174271714Y-104310571D01*
X172771714Y-103524857D02*
X172271714Y-103524857D01*
X172057428Y-104310571D02*
X172771714Y-104310571D01*
X172771714Y-102810571D01*
X172057428Y-102810571D01*
X170914571Y-103524857D02*
X170700285Y-103596285D01*
X170628857Y-103667714D01*
X170557428Y-103810571D01*
X170557428Y-104024857D01*
X170628857Y-104167714D01*
X170700285Y-104239142D01*
X170843142Y-104310571D01*
X171414571Y-104310571D01*
X171414571Y-102810571D01*
X170914571Y-102810571D01*
X170771714Y-102882000D01*
X170700285Y-102953428D01*
X170628857Y-103096285D01*
X170628857Y-103239142D01*
X170700285Y-103382000D01*
X170771714Y-103453428D01*
X170914571Y-103524857D01*
X171414571Y-103524857D01*
X169914571Y-102810571D02*
X169914571Y-104024857D01*
X169843142Y-104167714D01*
X169771714Y-104239142D01*
X169628857Y-104310571D01*
X169343142Y-104310571D01*
X169200285Y-104239142D01*
X169128857Y-104167714D01*
X169057428Y-104024857D01*
X169057428Y-102810571D01*
X167557428Y-102882000D02*
X167700285Y-102810571D01*
X167914571Y-102810571D01*
X168128857Y-102882000D01*
X168271714Y-103024857D01*
X168343142Y-103167714D01*
X168414571Y-103453428D01*
X168414571Y-103667714D01*
X168343142Y-103953428D01*
X168271714Y-104096285D01*
X168128857Y-104239142D01*
X167914571Y-104310571D01*
X167771714Y-104310571D01*
X167557428Y-104239142D01*
X167486000Y-104167714D01*
X167486000Y-103667714D01*
X167771714Y-103667714D01*
D10*
X168238666Y-76358952D02*
X168238666Y-76835142D01*
X168524380Y-76263714D02*
X167524380Y-76597047D01*
X168524380Y-76930380D01*
X168524380Y-77835142D02*
X168048190Y-77501809D01*
X168524380Y-77263714D02*
X167524380Y-77263714D01*
X167524380Y-77644666D01*
X167572000Y-77739904D01*
X167619619Y-77787523D01*
X167714857Y-77835142D01*
X167857714Y-77835142D01*
X167952952Y-77787523D01*
X168000571Y-77739904D01*
X168048190Y-77644666D01*
X168048190Y-77263714D01*
X168000571Y-78263714D02*
X168000571Y-78597047D01*
X168524380Y-78739904D02*
X168524380Y-78263714D01*
X167524380Y-78263714D01*
X167524380Y-78739904D01*
X168000571Y-79501809D02*
X168000571Y-79168476D01*
X168524380Y-79168476D02*
X167524380Y-79168476D01*
X167524380Y-79644666D01*
X164984380Y-76644666D02*
X165984380Y-76978000D01*
X164984380Y-77311333D01*
X165984380Y-77644666D02*
X164984380Y-77644666D01*
X164984380Y-78025619D01*
X165032000Y-78120857D01*
X165079619Y-78168476D01*
X165174857Y-78216095D01*
X165317714Y-78216095D01*
X165412952Y-78168476D01*
X165460571Y-78120857D01*
X165508190Y-78025619D01*
X165508190Y-77644666D01*
X165984380Y-78644666D02*
X164984380Y-78644666D01*
X164984380Y-79025619D01*
X165032000Y-79120857D01*
X165079619Y-79168476D01*
X165174857Y-79216095D01*
X165317714Y-79216095D01*
X165412952Y-79168476D01*
X165460571Y-79120857D01*
X165508190Y-79025619D01*
X165508190Y-78644666D01*
X162444380Y-76644666D02*
X163444380Y-76978000D01*
X162444380Y-77311333D01*
X163444380Y-77644666D02*
X162444380Y-77644666D01*
X162444380Y-78025619D01*
X162492000Y-78120857D01*
X162539619Y-78168476D01*
X162634857Y-78216095D01*
X162777714Y-78216095D01*
X162872952Y-78168476D01*
X162920571Y-78120857D01*
X162968190Y-78025619D01*
X162968190Y-77644666D01*
X163444380Y-78644666D02*
X162444380Y-78644666D01*
X162444380Y-79025619D01*
X162492000Y-79120857D01*
X162539619Y-79168476D01*
X162634857Y-79216095D01*
X162777714Y-79216095D01*
X162872952Y-79168476D01*
X162920571Y-79120857D01*
X162968190Y-79025619D01*
X162968190Y-78644666D01*
X159904380Y-76501809D02*
X159904380Y-77120857D01*
X160285333Y-76787523D01*
X160285333Y-76930380D01*
X160332952Y-77025619D01*
X160380571Y-77073238D01*
X160475809Y-77120857D01*
X160713904Y-77120857D01*
X160809142Y-77073238D01*
X160856761Y-77025619D01*
X160904380Y-76930380D01*
X160904380Y-76644666D01*
X160856761Y-76549428D01*
X160809142Y-76501809D01*
X160809142Y-77549428D02*
X160856761Y-77597047D01*
X160904380Y-77549428D01*
X160856761Y-77501809D01*
X160809142Y-77549428D01*
X160904380Y-77549428D01*
X159904380Y-77930380D02*
X159904380Y-78549428D01*
X160285333Y-78216095D01*
X160285333Y-78358952D01*
X160332952Y-78454190D01*
X160380571Y-78501809D01*
X160475809Y-78549428D01*
X160713904Y-78549428D01*
X160809142Y-78501809D01*
X160856761Y-78454190D01*
X160904380Y-78358952D01*
X160904380Y-78073238D01*
X160856761Y-77978000D01*
X160809142Y-77930380D01*
X159904380Y-78835142D02*
X160904380Y-79168476D01*
X159904380Y-79501809D01*
X157364380Y-76501809D02*
X157364380Y-77120857D01*
X157745333Y-76787523D01*
X157745333Y-76930380D01*
X157792952Y-77025619D01*
X157840571Y-77073238D01*
X157935809Y-77120857D01*
X158173904Y-77120857D01*
X158269142Y-77073238D01*
X158316761Y-77025619D01*
X158364380Y-76930380D01*
X158364380Y-76644666D01*
X158316761Y-76549428D01*
X158269142Y-76501809D01*
X158269142Y-77549428D02*
X158316761Y-77597047D01*
X158364380Y-77549428D01*
X158316761Y-77501809D01*
X158269142Y-77549428D01*
X158364380Y-77549428D01*
X157364380Y-77930380D02*
X157364380Y-78549428D01*
X157745333Y-78216095D01*
X157745333Y-78358952D01*
X157792952Y-78454190D01*
X157840571Y-78501809D01*
X157935809Y-78549428D01*
X158173904Y-78549428D01*
X158269142Y-78501809D01*
X158316761Y-78454190D01*
X158364380Y-78358952D01*
X158364380Y-78073238D01*
X158316761Y-77978000D01*
X158269142Y-77930380D01*
X157364380Y-78835142D02*
X158364380Y-79168476D01*
X157364380Y-79501809D01*
X154872000Y-77216095D02*
X154824380Y-77120857D01*
X154824380Y-76978000D01*
X154872000Y-76835142D01*
X154967238Y-76739904D01*
X155062476Y-76692285D01*
X155252952Y-76644666D01*
X155395809Y-76644666D01*
X155586285Y-76692285D01*
X155681523Y-76739904D01*
X155776761Y-76835142D01*
X155824380Y-76978000D01*
X155824380Y-77073238D01*
X155776761Y-77216095D01*
X155729142Y-77263714D01*
X155395809Y-77263714D01*
X155395809Y-77073238D01*
X155824380Y-77692285D02*
X154824380Y-77692285D01*
X155824380Y-78263714D01*
X154824380Y-78263714D01*
X155824380Y-78739904D02*
X154824380Y-78739904D01*
X154824380Y-78978000D01*
X154872000Y-79120857D01*
X154967238Y-79216095D01*
X155062476Y-79263714D01*
X155252952Y-79311333D01*
X155395809Y-79311333D01*
X155586285Y-79263714D01*
X155681523Y-79216095D01*
X155776761Y-79120857D01*
X155824380Y-78978000D01*
X155824380Y-78739904D01*
X152332000Y-77216095D02*
X152284380Y-77120857D01*
X152284380Y-76978000D01*
X152332000Y-76835142D01*
X152427238Y-76739904D01*
X152522476Y-76692285D01*
X152712952Y-76644666D01*
X152855809Y-76644666D01*
X153046285Y-76692285D01*
X153141523Y-76739904D01*
X153236761Y-76835142D01*
X153284380Y-76978000D01*
X153284380Y-77073238D01*
X153236761Y-77216095D01*
X153189142Y-77263714D01*
X152855809Y-77263714D01*
X152855809Y-77073238D01*
X153284380Y-77692285D02*
X152284380Y-77692285D01*
X153284380Y-78263714D01*
X152284380Y-78263714D01*
X153284380Y-78739904D02*
X152284380Y-78739904D01*
X152284380Y-78978000D01*
X152332000Y-79120857D01*
X152427238Y-79216095D01*
X152522476Y-79263714D01*
X152712952Y-79311333D01*
X152855809Y-79311333D01*
X153046285Y-79263714D01*
X153141523Y-79216095D01*
X153236761Y-79120857D01*
X153284380Y-78978000D01*
X153284380Y-78739904D01*
X149900000Y-77238095D02*
X149852380Y-77142857D01*
X149852380Y-77000000D01*
X149900000Y-76857142D01*
X149995238Y-76761904D01*
X150090476Y-76714285D01*
X150280952Y-76666666D01*
X150423809Y-76666666D01*
X150614285Y-76714285D01*
X150709523Y-76761904D01*
X150804761Y-76857142D01*
X150852380Y-77000000D01*
X150852380Y-77095238D01*
X150804761Y-77238095D01*
X150757142Y-77285714D01*
X150423809Y-77285714D01*
X150423809Y-77095238D01*
X150852380Y-77714285D02*
X149852380Y-77714285D01*
X150852380Y-78285714D01*
X149852380Y-78285714D01*
X150852380Y-78761904D02*
X149852380Y-78761904D01*
X149852380Y-79000000D01*
X149900000Y-79142857D01*
X149995238Y-79238095D01*
X150090476Y-79285714D01*
X150280952Y-79333333D01*
X150423809Y-79333333D01*
X150614285Y-79285714D01*
X150709523Y-79238095D01*
X150804761Y-79142857D01*
X150852380Y-79000000D01*
X150852380Y-78761904D01*
X147400000Y-77238095D02*
X147352380Y-77142857D01*
X147352380Y-77000000D01*
X147400000Y-76857142D01*
X147495238Y-76761904D01*
X147590476Y-76714285D01*
X147780952Y-76666666D01*
X147923809Y-76666666D01*
X148114285Y-76714285D01*
X148209523Y-76761904D01*
X148304761Y-76857142D01*
X148352380Y-77000000D01*
X148352380Y-77095238D01*
X148304761Y-77238095D01*
X148257142Y-77285714D01*
X147923809Y-77285714D01*
X147923809Y-77095238D01*
X148352380Y-77714285D02*
X147352380Y-77714285D01*
X148352380Y-78285714D01*
X147352380Y-78285714D01*
X148352380Y-78761904D02*
X147352380Y-78761904D01*
X147352380Y-79000000D01*
X147400000Y-79142857D01*
X147495238Y-79238095D01*
X147590476Y-79285714D01*
X147780952Y-79333333D01*
X147923809Y-79333333D01*
X148114285Y-79285714D01*
X148209523Y-79238095D01*
X148304761Y-79142857D01*
X148352380Y-79000000D01*
X148352380Y-78761904D01*
X142886380Y-76247809D02*
X142886380Y-76866857D01*
X143267333Y-76533523D01*
X143267333Y-76676380D01*
X143314952Y-76771619D01*
X143362571Y-76819238D01*
X143457809Y-76866857D01*
X143695904Y-76866857D01*
X143791142Y-76819238D01*
X143838761Y-76771619D01*
X143886380Y-76676380D01*
X143886380Y-76390666D01*
X143838761Y-76295428D01*
X143791142Y-76247809D01*
X143791142Y-77295428D02*
X143838761Y-77343047D01*
X143886380Y-77295428D01*
X143838761Y-77247809D01*
X143791142Y-77295428D01*
X143886380Y-77295428D01*
X142886380Y-77676380D02*
X142886380Y-78295428D01*
X143267333Y-77962095D01*
X143267333Y-78104952D01*
X143314952Y-78200190D01*
X143362571Y-78247809D01*
X143457809Y-78295428D01*
X143695904Y-78295428D01*
X143791142Y-78247809D01*
X143838761Y-78200190D01*
X143886380Y-78104952D01*
X143886380Y-77819238D01*
X143838761Y-77724000D01*
X143791142Y-77676380D01*
X142886380Y-78581142D02*
X143886380Y-78914476D01*
X142886380Y-79247809D01*
X140394000Y-76962095D02*
X140346380Y-76866857D01*
X140346380Y-76724000D01*
X140394000Y-76581142D01*
X140489238Y-76485904D01*
X140584476Y-76438285D01*
X140774952Y-76390666D01*
X140917809Y-76390666D01*
X141108285Y-76438285D01*
X141203523Y-76485904D01*
X141298761Y-76581142D01*
X141346380Y-76724000D01*
X141346380Y-76819238D01*
X141298761Y-76962095D01*
X141251142Y-77009714D01*
X140917809Y-77009714D01*
X140917809Y-76819238D01*
X141346380Y-77438285D02*
X140346380Y-77438285D01*
X141346380Y-78009714D01*
X140346380Y-78009714D01*
X141346380Y-78485904D02*
X140346380Y-78485904D01*
X140346380Y-78724000D01*
X140394000Y-78866857D01*
X140489238Y-78962095D01*
X140584476Y-79009714D01*
X140774952Y-79057333D01*
X140917809Y-79057333D01*
X141108285Y-79009714D01*
X141203523Y-78962095D01*
X141298761Y-78866857D01*
X141346380Y-78724000D01*
X141346380Y-78485904D01*
X138758761Y-76509714D02*
X138806380Y-76652571D01*
X138806380Y-76890666D01*
X138758761Y-76985904D01*
X138711142Y-77033523D01*
X138615904Y-77081142D01*
X138520666Y-77081142D01*
X138425428Y-77033523D01*
X138377809Y-76985904D01*
X138330190Y-76890666D01*
X138282571Y-76700190D01*
X138234952Y-76604952D01*
X138187333Y-76557333D01*
X138092095Y-76509714D01*
X137996857Y-76509714D01*
X137901619Y-76557333D01*
X137854000Y-76604952D01*
X137806380Y-76700190D01*
X137806380Y-76938285D01*
X137854000Y-77081142D01*
X138806380Y-77509714D02*
X137806380Y-77509714D01*
X137806380Y-77747809D01*
X137854000Y-77890666D01*
X137949238Y-77985904D01*
X138044476Y-78033523D01*
X138234952Y-78081142D01*
X138377809Y-78081142D01*
X138568285Y-78033523D01*
X138663523Y-77985904D01*
X138758761Y-77890666D01*
X138806380Y-77747809D01*
X138806380Y-77509714D01*
X138520666Y-78462095D02*
X138520666Y-78938285D01*
X138806380Y-78366857D02*
X137806380Y-78700190D01*
X138806380Y-79033523D01*
X136218761Y-76533523D02*
X136266380Y-76676380D01*
X136266380Y-76914476D01*
X136218761Y-77009714D01*
X136171142Y-77057333D01*
X136075904Y-77104952D01*
X135980666Y-77104952D01*
X135885428Y-77057333D01*
X135837809Y-77009714D01*
X135790190Y-76914476D01*
X135742571Y-76724000D01*
X135694952Y-76628761D01*
X135647333Y-76581142D01*
X135552095Y-76533523D01*
X135456857Y-76533523D01*
X135361619Y-76581142D01*
X135314000Y-76628761D01*
X135266380Y-76724000D01*
X135266380Y-76962095D01*
X135314000Y-77104952D01*
X136171142Y-78104952D02*
X136218761Y-78057333D01*
X136266380Y-77914476D01*
X136266380Y-77819238D01*
X136218761Y-77676380D01*
X136123523Y-77581142D01*
X136028285Y-77533523D01*
X135837809Y-77485904D01*
X135694952Y-77485904D01*
X135504476Y-77533523D01*
X135409238Y-77581142D01*
X135314000Y-77676380D01*
X135266380Y-77819238D01*
X135266380Y-77914476D01*
X135314000Y-78057333D01*
X135361619Y-78104952D01*
X136266380Y-79009714D02*
X136266380Y-78533523D01*
X135266380Y-78533523D01*
X129980000Y-76962095D02*
X129932380Y-76866857D01*
X129932380Y-76724000D01*
X129980000Y-76581142D01*
X130075238Y-76485904D01*
X130170476Y-76438285D01*
X130360952Y-76390666D01*
X130503809Y-76390666D01*
X130694285Y-76438285D01*
X130789523Y-76485904D01*
X130884761Y-76581142D01*
X130932380Y-76724000D01*
X130932380Y-76819238D01*
X130884761Y-76962095D01*
X130837142Y-77009714D01*
X130503809Y-77009714D01*
X130503809Y-76819238D01*
X130932380Y-77438285D02*
X129932380Y-77438285D01*
X130932380Y-78009714D01*
X129932380Y-78009714D01*
X130932380Y-78485904D02*
X129932380Y-78485904D01*
X129932380Y-78724000D01*
X129980000Y-78866857D01*
X130075238Y-78962095D01*
X130170476Y-79009714D01*
X130360952Y-79057333D01*
X130503809Y-79057333D01*
X130694285Y-79009714D01*
X130789523Y-78962095D01*
X130884761Y-78866857D01*
X130932380Y-78724000D01*
X130932380Y-78485904D01*
X132472380Y-76247809D02*
X132472380Y-76866857D01*
X132853333Y-76533523D01*
X132853333Y-76676380D01*
X132900952Y-76771619D01*
X132948571Y-76819238D01*
X133043809Y-76866857D01*
X133281904Y-76866857D01*
X133377142Y-76819238D01*
X133424761Y-76771619D01*
X133472380Y-76676380D01*
X133472380Y-76390666D01*
X133424761Y-76295428D01*
X133377142Y-76247809D01*
X133377142Y-77295428D02*
X133424761Y-77343047D01*
X133472380Y-77295428D01*
X133424761Y-77247809D01*
X133377142Y-77295428D01*
X133472380Y-77295428D01*
X132472380Y-77676380D02*
X132472380Y-78295428D01*
X132853333Y-77962095D01*
X132853333Y-78104952D01*
X132900952Y-78200190D01*
X132948571Y-78247809D01*
X133043809Y-78295428D01*
X133281904Y-78295428D01*
X133377142Y-78247809D01*
X133424761Y-78200190D01*
X133472380Y-78104952D01*
X133472380Y-77819238D01*
X133424761Y-77724000D01*
X133377142Y-77676380D01*
X132472380Y-78581142D02*
X133472380Y-78914476D01*
X132472380Y-79247809D01*
X128344761Y-76509714D02*
X128392380Y-76652571D01*
X128392380Y-76890666D01*
X128344761Y-76985904D01*
X128297142Y-77033523D01*
X128201904Y-77081142D01*
X128106666Y-77081142D01*
X128011428Y-77033523D01*
X127963809Y-76985904D01*
X127916190Y-76890666D01*
X127868571Y-76700190D01*
X127820952Y-76604952D01*
X127773333Y-76557333D01*
X127678095Y-76509714D01*
X127582857Y-76509714D01*
X127487619Y-76557333D01*
X127440000Y-76604952D01*
X127392380Y-76700190D01*
X127392380Y-76938285D01*
X127440000Y-77081142D01*
X128392380Y-77509714D02*
X127392380Y-77509714D01*
X127392380Y-77747809D01*
X127440000Y-77890666D01*
X127535238Y-77985904D01*
X127630476Y-78033523D01*
X127820952Y-78081142D01*
X127963809Y-78081142D01*
X128154285Y-78033523D01*
X128249523Y-77985904D01*
X128344761Y-77890666D01*
X128392380Y-77747809D01*
X128392380Y-77509714D01*
X128106666Y-78462095D02*
X128106666Y-78938285D01*
X128392380Y-78366857D02*
X127392380Y-78700190D01*
X128392380Y-79033523D01*
X125804761Y-76533523D02*
X125852380Y-76676380D01*
X125852380Y-76914476D01*
X125804761Y-77009714D01*
X125757142Y-77057333D01*
X125661904Y-77104952D01*
X125566666Y-77104952D01*
X125471428Y-77057333D01*
X125423809Y-77009714D01*
X125376190Y-76914476D01*
X125328571Y-76724000D01*
X125280952Y-76628761D01*
X125233333Y-76581142D01*
X125138095Y-76533523D01*
X125042857Y-76533523D01*
X124947619Y-76581142D01*
X124900000Y-76628761D01*
X124852380Y-76724000D01*
X124852380Y-76962095D01*
X124900000Y-77104952D01*
X125757142Y-78104952D02*
X125804761Y-78057333D01*
X125852380Y-77914476D01*
X125852380Y-77819238D01*
X125804761Y-77676380D01*
X125709523Y-77581142D01*
X125614285Y-77533523D01*
X125423809Y-77485904D01*
X125280952Y-77485904D01*
X125090476Y-77533523D01*
X124995238Y-77581142D01*
X124900000Y-77676380D01*
X124852380Y-77819238D01*
X124852380Y-77914476D01*
X124900000Y-78057333D01*
X124947619Y-78104952D01*
X125852380Y-79009714D02*
X125852380Y-78533523D01*
X124852380Y-78533523D01*
X190190380Y-116585714D02*
X189190380Y-116585714D01*
X189190380Y-116823809D01*
X189238000Y-116966666D01*
X189333238Y-117061904D01*
X189428476Y-117109523D01*
X189618952Y-117157142D01*
X189761809Y-117157142D01*
X189952285Y-117109523D01*
X190047523Y-117061904D01*
X190142761Y-116966666D01*
X190190380Y-116823809D01*
X190190380Y-116585714D01*
X190190380Y-118109523D02*
X190190380Y-117538095D01*
X190190380Y-117823809D02*
X189190380Y-117823809D01*
X189333238Y-117728571D01*
X189428476Y-117633333D01*
X189476095Y-117538095D01*
X189190380Y-118442857D02*
X189190380Y-119061904D01*
X189571333Y-118728571D01*
X189571333Y-118871428D01*
X189618952Y-118966666D01*
X189666571Y-119014285D01*
X189761809Y-119061904D01*
X189999904Y-119061904D01*
X190095142Y-119014285D01*
X190142761Y-118966666D01*
X190190380Y-118871428D01*
X190190380Y-118585714D01*
X190142761Y-118490476D01*
X190095142Y-118442857D01*
X187452380Y-116585714D02*
X186452380Y-116585714D01*
X186452380Y-116823809D01*
X186500000Y-116966666D01*
X186595238Y-117061904D01*
X186690476Y-117109523D01*
X186880952Y-117157142D01*
X187023809Y-117157142D01*
X187214285Y-117109523D01*
X187309523Y-117061904D01*
X187404761Y-116966666D01*
X187452380Y-116823809D01*
X187452380Y-116585714D01*
X187452380Y-118109523D02*
X187452380Y-117538095D01*
X187452380Y-117823809D02*
X186452380Y-117823809D01*
X186595238Y-117728571D01*
X186690476Y-117633333D01*
X186738095Y-117538095D01*
X186452380Y-118442857D02*
X186452380Y-119061904D01*
X186833333Y-118728571D01*
X186833333Y-118871428D01*
X186880952Y-118966666D01*
X186928571Y-119014285D01*
X187023809Y-119061904D01*
X187261904Y-119061904D01*
X187357142Y-119014285D01*
X187404761Y-118966666D01*
X187452380Y-118871428D01*
X187452380Y-118585714D01*
X187404761Y-118490476D01*
X187357142Y-118442857D01*
X184852380Y-116585714D02*
X183852380Y-116585714D01*
X183852380Y-116823809D01*
X183900000Y-116966666D01*
X183995238Y-117061904D01*
X184090476Y-117109523D01*
X184280952Y-117157142D01*
X184423809Y-117157142D01*
X184614285Y-117109523D01*
X184709523Y-117061904D01*
X184804761Y-116966666D01*
X184852380Y-116823809D01*
X184852380Y-116585714D01*
X184852380Y-118109523D02*
X184852380Y-117538095D01*
X184852380Y-117823809D02*
X183852380Y-117823809D01*
X183995238Y-117728571D01*
X184090476Y-117633333D01*
X184138095Y-117538095D01*
X183947619Y-118490476D02*
X183900000Y-118538095D01*
X183852380Y-118633333D01*
X183852380Y-118871428D01*
X183900000Y-118966666D01*
X183947619Y-119014285D01*
X184042857Y-119061904D01*
X184138095Y-119061904D01*
X184280952Y-119014285D01*
X184852380Y-118442857D01*
X184852380Y-119061904D01*
X182316380Y-116585714D02*
X181316380Y-116585714D01*
X181316380Y-116823809D01*
X181364000Y-116966666D01*
X181459238Y-117061904D01*
X181554476Y-117109523D01*
X181744952Y-117157142D01*
X181887809Y-117157142D01*
X182078285Y-117109523D01*
X182173523Y-117061904D01*
X182268761Y-116966666D01*
X182316380Y-116823809D01*
X182316380Y-116585714D01*
X182316380Y-118109523D02*
X182316380Y-117538095D01*
X182316380Y-117823809D02*
X181316380Y-117823809D01*
X181459238Y-117728571D01*
X181554476Y-117633333D01*
X181602095Y-117538095D01*
X181411619Y-118490476D02*
X181364000Y-118538095D01*
X181316380Y-118633333D01*
X181316380Y-118871428D01*
X181364000Y-118966666D01*
X181411619Y-119014285D01*
X181506857Y-119061904D01*
X181602095Y-119061904D01*
X181744952Y-119014285D01*
X182316380Y-118442857D01*
X182316380Y-119061904D01*
X179852380Y-116585714D02*
X178852380Y-116585714D01*
X178852380Y-116823809D01*
X178900000Y-116966666D01*
X178995238Y-117061904D01*
X179090476Y-117109523D01*
X179280952Y-117157142D01*
X179423809Y-117157142D01*
X179614285Y-117109523D01*
X179709523Y-117061904D01*
X179804761Y-116966666D01*
X179852380Y-116823809D01*
X179852380Y-116585714D01*
X179852380Y-118109523D02*
X179852380Y-117538095D01*
X179852380Y-117823809D02*
X178852380Y-117823809D01*
X178995238Y-117728571D01*
X179090476Y-117633333D01*
X179138095Y-117538095D01*
X179852380Y-119061904D02*
X179852380Y-118490476D01*
X179852380Y-118776190D02*
X178852380Y-118776190D01*
X178995238Y-118680952D01*
X179090476Y-118585714D01*
X179138095Y-118490476D01*
X177490380Y-116585714D02*
X176490380Y-116585714D01*
X176490380Y-116823809D01*
X176538000Y-116966666D01*
X176633238Y-117061904D01*
X176728476Y-117109523D01*
X176918952Y-117157142D01*
X177061809Y-117157142D01*
X177252285Y-117109523D01*
X177347523Y-117061904D01*
X177442761Y-116966666D01*
X177490380Y-116823809D01*
X177490380Y-116585714D01*
X177490380Y-118109523D02*
X177490380Y-117538095D01*
X177490380Y-117823809D02*
X176490380Y-117823809D01*
X176633238Y-117728571D01*
X176728476Y-117633333D01*
X176776095Y-117538095D01*
X177490380Y-119061904D02*
X177490380Y-118490476D01*
X177490380Y-118776190D02*
X176490380Y-118776190D01*
X176633238Y-118680952D01*
X176728476Y-118585714D01*
X176776095Y-118490476D01*
X174752380Y-116485714D02*
X173752380Y-116485714D01*
X173752380Y-116723809D01*
X173800000Y-116866666D01*
X173895238Y-116961904D01*
X173990476Y-117009523D01*
X174180952Y-117057142D01*
X174323809Y-117057142D01*
X174514285Y-117009523D01*
X174609523Y-116961904D01*
X174704761Y-116866666D01*
X174752380Y-116723809D01*
X174752380Y-116485714D01*
X174752380Y-118009523D02*
X174752380Y-117438095D01*
X174752380Y-117723809D02*
X173752380Y-117723809D01*
X173895238Y-117628571D01*
X173990476Y-117533333D01*
X174038095Y-117438095D01*
X173752380Y-118628571D02*
X173752380Y-118723809D01*
X173800000Y-118819047D01*
X173847619Y-118866666D01*
X173942857Y-118914285D01*
X174133333Y-118961904D01*
X174371428Y-118961904D01*
X174561904Y-118914285D01*
X174657142Y-118866666D01*
X174704761Y-118819047D01*
X174752380Y-118723809D01*
X174752380Y-118628571D01*
X174704761Y-118533333D01*
X174657142Y-118485714D01*
X174561904Y-118438095D01*
X174371428Y-118390476D01*
X174133333Y-118390476D01*
X173942857Y-118438095D01*
X173847619Y-118485714D01*
X173800000Y-118533333D01*
X173752380Y-118628571D01*
X172252380Y-116485714D02*
X171252380Y-116485714D01*
X171252380Y-116723809D01*
X171300000Y-116866666D01*
X171395238Y-116961904D01*
X171490476Y-117009523D01*
X171680952Y-117057142D01*
X171823809Y-117057142D01*
X172014285Y-117009523D01*
X172109523Y-116961904D01*
X172204761Y-116866666D01*
X172252380Y-116723809D01*
X172252380Y-116485714D01*
X172252380Y-118009523D02*
X172252380Y-117438095D01*
X172252380Y-117723809D02*
X171252380Y-117723809D01*
X171395238Y-117628571D01*
X171490476Y-117533333D01*
X171538095Y-117438095D01*
X171252380Y-118628571D02*
X171252380Y-118723809D01*
X171300000Y-118819047D01*
X171347619Y-118866666D01*
X171442857Y-118914285D01*
X171633333Y-118961904D01*
X171871428Y-118961904D01*
X172061904Y-118914285D01*
X172157142Y-118866666D01*
X172204761Y-118819047D01*
X172252380Y-118723809D01*
X172252380Y-118628571D01*
X172204761Y-118533333D01*
X172157142Y-118485714D01*
X172061904Y-118438095D01*
X171871428Y-118390476D01*
X171633333Y-118390476D01*
X171442857Y-118438095D01*
X171347619Y-118485714D01*
X171300000Y-118533333D01*
X171252380Y-118628571D01*
X169902095Y-119070380D02*
X169902095Y-118070380D01*
X169664000Y-118070380D01*
X169521142Y-118118000D01*
X169425904Y-118213238D01*
X169378285Y-118308476D01*
X169330666Y-118498952D01*
X169330666Y-118641809D01*
X169378285Y-118832285D01*
X169425904Y-118927523D01*
X169521142Y-119022761D01*
X169664000Y-119070380D01*
X169902095Y-119070380D01*
X168854476Y-119070380D02*
X168664000Y-119070380D01*
X168568761Y-119022761D01*
X168521142Y-118975142D01*
X168425904Y-118832285D01*
X168378285Y-118641809D01*
X168378285Y-118260857D01*
X168425904Y-118165619D01*
X168473523Y-118118000D01*
X168568761Y-118070380D01*
X168759238Y-118070380D01*
X168854476Y-118118000D01*
X168902095Y-118165619D01*
X168949714Y-118260857D01*
X168949714Y-118498952D01*
X168902095Y-118594190D01*
X168854476Y-118641809D01*
X168759238Y-118689428D01*
X168568761Y-118689428D01*
X168473523Y-118641809D01*
X168425904Y-118594190D01*
X168378285Y-118498952D01*
X167362095Y-119070380D02*
X167362095Y-118070380D01*
X167124000Y-118070380D01*
X166981142Y-118118000D01*
X166885904Y-118213238D01*
X166838285Y-118308476D01*
X166790666Y-118498952D01*
X166790666Y-118641809D01*
X166838285Y-118832285D01*
X166885904Y-118927523D01*
X166981142Y-119022761D01*
X167124000Y-119070380D01*
X167362095Y-119070380D01*
X166314476Y-119070380D02*
X166124000Y-119070380D01*
X166028761Y-119022761D01*
X165981142Y-118975142D01*
X165885904Y-118832285D01*
X165838285Y-118641809D01*
X165838285Y-118260857D01*
X165885904Y-118165619D01*
X165933523Y-118118000D01*
X166028761Y-118070380D01*
X166219238Y-118070380D01*
X166314476Y-118118000D01*
X166362095Y-118165619D01*
X166409714Y-118260857D01*
X166409714Y-118498952D01*
X166362095Y-118594190D01*
X166314476Y-118641809D01*
X166219238Y-118689428D01*
X166028761Y-118689428D01*
X165933523Y-118641809D01*
X165885904Y-118594190D01*
X165838285Y-118498952D01*
X164822095Y-119070380D02*
X164822095Y-118070380D01*
X164584000Y-118070380D01*
X164441142Y-118118000D01*
X164345904Y-118213238D01*
X164298285Y-118308476D01*
X164250666Y-118498952D01*
X164250666Y-118641809D01*
X164298285Y-118832285D01*
X164345904Y-118927523D01*
X164441142Y-119022761D01*
X164584000Y-119070380D01*
X164822095Y-119070380D01*
X163679238Y-118498952D02*
X163774476Y-118451333D01*
X163822095Y-118403714D01*
X163869714Y-118308476D01*
X163869714Y-118260857D01*
X163822095Y-118165619D01*
X163774476Y-118118000D01*
X163679238Y-118070380D01*
X163488761Y-118070380D01*
X163393523Y-118118000D01*
X163345904Y-118165619D01*
X163298285Y-118260857D01*
X163298285Y-118308476D01*
X163345904Y-118403714D01*
X163393523Y-118451333D01*
X163488761Y-118498952D01*
X163679238Y-118498952D01*
X163774476Y-118546571D01*
X163822095Y-118594190D01*
X163869714Y-118689428D01*
X163869714Y-118879904D01*
X163822095Y-118975142D01*
X163774476Y-119022761D01*
X163679238Y-119070380D01*
X163488761Y-119070380D01*
X163393523Y-119022761D01*
X163345904Y-118975142D01*
X163298285Y-118879904D01*
X163298285Y-118689428D01*
X163345904Y-118594190D01*
X163393523Y-118546571D01*
X163488761Y-118498952D01*
X162282095Y-119070380D02*
X162282095Y-118070380D01*
X162044000Y-118070380D01*
X161901142Y-118118000D01*
X161805904Y-118213238D01*
X161758285Y-118308476D01*
X161710666Y-118498952D01*
X161710666Y-118641809D01*
X161758285Y-118832285D01*
X161805904Y-118927523D01*
X161901142Y-119022761D01*
X162044000Y-119070380D01*
X162282095Y-119070380D01*
X161139238Y-118498952D02*
X161234476Y-118451333D01*
X161282095Y-118403714D01*
X161329714Y-118308476D01*
X161329714Y-118260857D01*
X161282095Y-118165619D01*
X161234476Y-118118000D01*
X161139238Y-118070380D01*
X160948761Y-118070380D01*
X160853523Y-118118000D01*
X160805904Y-118165619D01*
X160758285Y-118260857D01*
X160758285Y-118308476D01*
X160805904Y-118403714D01*
X160853523Y-118451333D01*
X160948761Y-118498952D01*
X161139238Y-118498952D01*
X161234476Y-118546571D01*
X161282095Y-118594190D01*
X161329714Y-118689428D01*
X161329714Y-118879904D01*
X161282095Y-118975142D01*
X161234476Y-119022761D01*
X161139238Y-119070380D01*
X160948761Y-119070380D01*
X160853523Y-119022761D01*
X160805904Y-118975142D01*
X160758285Y-118879904D01*
X160758285Y-118689428D01*
X160805904Y-118594190D01*
X160853523Y-118546571D01*
X160948761Y-118498952D01*
X159742095Y-119070380D02*
X159742095Y-118070380D01*
X159504000Y-118070380D01*
X159361142Y-118118000D01*
X159265904Y-118213238D01*
X159218285Y-118308476D01*
X159170666Y-118498952D01*
X159170666Y-118641809D01*
X159218285Y-118832285D01*
X159265904Y-118927523D01*
X159361142Y-119022761D01*
X159504000Y-119070380D01*
X159742095Y-119070380D01*
X158837333Y-118070380D02*
X158170666Y-118070380D01*
X158599238Y-119070380D01*
X157202095Y-119070380D02*
X157202095Y-118070380D01*
X156964000Y-118070380D01*
X156821142Y-118118000D01*
X156725904Y-118213238D01*
X156678285Y-118308476D01*
X156630666Y-118498952D01*
X156630666Y-118641809D01*
X156678285Y-118832285D01*
X156725904Y-118927523D01*
X156821142Y-119022761D01*
X156964000Y-119070380D01*
X157202095Y-119070380D01*
X156297333Y-118070380D02*
X155630666Y-118070380D01*
X156059238Y-119070380D01*
X154662095Y-119070380D02*
X154662095Y-118070380D01*
X154424000Y-118070380D01*
X154281142Y-118118000D01*
X154185904Y-118213238D01*
X154138285Y-118308476D01*
X154090666Y-118498952D01*
X154090666Y-118641809D01*
X154138285Y-118832285D01*
X154185904Y-118927523D01*
X154281142Y-119022761D01*
X154424000Y-119070380D01*
X154662095Y-119070380D01*
X153233523Y-118070380D02*
X153424000Y-118070380D01*
X153519238Y-118118000D01*
X153566857Y-118165619D01*
X153662095Y-118308476D01*
X153709714Y-118498952D01*
X153709714Y-118879904D01*
X153662095Y-118975142D01*
X153614476Y-119022761D01*
X153519238Y-119070380D01*
X153328761Y-119070380D01*
X153233523Y-119022761D01*
X153185904Y-118975142D01*
X153138285Y-118879904D01*
X153138285Y-118641809D01*
X153185904Y-118546571D01*
X153233523Y-118498952D01*
X153328761Y-118451333D01*
X153519238Y-118451333D01*
X153614476Y-118498952D01*
X153662095Y-118546571D01*
X153709714Y-118641809D01*
X152122095Y-119070380D02*
X152122095Y-118070380D01*
X151884000Y-118070380D01*
X151741142Y-118118000D01*
X151645904Y-118213238D01*
X151598285Y-118308476D01*
X151550666Y-118498952D01*
X151550666Y-118641809D01*
X151598285Y-118832285D01*
X151645904Y-118927523D01*
X151741142Y-119022761D01*
X151884000Y-119070380D01*
X152122095Y-119070380D01*
X150693523Y-118070380D02*
X150884000Y-118070380D01*
X150979238Y-118118000D01*
X151026857Y-118165619D01*
X151122095Y-118308476D01*
X151169714Y-118498952D01*
X151169714Y-118879904D01*
X151122095Y-118975142D01*
X151074476Y-119022761D01*
X150979238Y-119070380D01*
X150788761Y-119070380D01*
X150693523Y-119022761D01*
X150645904Y-118975142D01*
X150598285Y-118879904D01*
X150598285Y-118641809D01*
X150645904Y-118546571D01*
X150693523Y-118498952D01*
X150788761Y-118451333D01*
X150979238Y-118451333D01*
X151074476Y-118498952D01*
X151122095Y-118546571D01*
X151169714Y-118641809D01*
X147748476Y-117304761D02*
X147605619Y-117352380D01*
X147367523Y-117352380D01*
X147272285Y-117304761D01*
X147224666Y-117257142D01*
X147177047Y-117161904D01*
X147177047Y-117066666D01*
X147224666Y-116971428D01*
X147272285Y-116923809D01*
X147367523Y-116876190D01*
X147558000Y-116828571D01*
X147653238Y-116780952D01*
X147700857Y-116733333D01*
X147748476Y-116638095D01*
X147748476Y-116542857D01*
X147700857Y-116447619D01*
X147653238Y-116400000D01*
X147558000Y-116352380D01*
X147319904Y-116352380D01*
X147177047Y-116400000D01*
X146177047Y-117257142D02*
X146224666Y-117304761D01*
X146367523Y-117352380D01*
X146462761Y-117352380D01*
X146605619Y-117304761D01*
X146700857Y-117209523D01*
X146748476Y-117114285D01*
X146796095Y-116923809D01*
X146796095Y-116780952D01*
X146748476Y-116590476D01*
X146700857Y-116495238D01*
X146605619Y-116400000D01*
X146462761Y-116352380D01*
X146367523Y-116352380D01*
X146224666Y-116400000D01*
X146177047Y-116447619D01*
X145272285Y-117352380D02*
X145748476Y-117352380D01*
X145748476Y-116352380D01*
X142414285Y-117404761D02*
X142271428Y-117452380D01*
X142033333Y-117452380D01*
X141938095Y-117404761D01*
X141890476Y-117357142D01*
X141842857Y-117261904D01*
X141842857Y-117166666D01*
X141890476Y-117071428D01*
X141938095Y-117023809D01*
X142033333Y-116976190D01*
X142223809Y-116928571D01*
X142319047Y-116880952D01*
X142366666Y-116833333D01*
X142414285Y-116738095D01*
X142414285Y-116642857D01*
X142366666Y-116547619D01*
X142319047Y-116500000D01*
X142223809Y-116452380D01*
X141985714Y-116452380D01*
X141842857Y-116500000D01*
X141414285Y-117452380D02*
X141414285Y-116452380D01*
X141176190Y-116452380D01*
X141033333Y-116500000D01*
X140938095Y-116595238D01*
X140890476Y-116690476D01*
X140842857Y-116880952D01*
X140842857Y-117023809D01*
X140890476Y-117214285D01*
X140938095Y-117309523D01*
X141033333Y-117404761D01*
X141176190Y-117452380D01*
X141414285Y-117452380D01*
X140461904Y-117166666D02*
X139985714Y-117166666D01*
X140557142Y-117452380D02*
X140223809Y-116452380D01*
X139890476Y-117452380D01*
X116338095Y-119052380D02*
X116338095Y-118052380D01*
X116100000Y-118052380D01*
X115957142Y-118100000D01*
X115861904Y-118195238D01*
X115814285Y-118290476D01*
X115766666Y-118480952D01*
X115766666Y-118623809D01*
X115814285Y-118814285D01*
X115861904Y-118909523D01*
X115957142Y-119004761D01*
X116100000Y-119052380D01*
X116338095Y-119052380D01*
X114814285Y-119052380D02*
X115385714Y-119052380D01*
X115100000Y-119052380D02*
X115100000Y-118052380D01*
X115195238Y-118195238D01*
X115290476Y-118290476D01*
X115385714Y-118338095D01*
X113788095Y-119052380D02*
X113788095Y-118052380D01*
X113550000Y-118052380D01*
X113407142Y-118100000D01*
X113311904Y-118195238D01*
X113264285Y-118290476D01*
X113216666Y-118480952D01*
X113216666Y-118623809D01*
X113264285Y-118814285D01*
X113311904Y-118909523D01*
X113407142Y-119004761D01*
X113550000Y-119052380D01*
X113788095Y-119052380D01*
X112597619Y-118052380D02*
X112502380Y-118052380D01*
X112407142Y-118100000D01*
X112359523Y-118147619D01*
X112311904Y-118242857D01*
X112264285Y-118433333D01*
X112264285Y-118671428D01*
X112311904Y-118861904D01*
X112359523Y-118957142D01*
X112407142Y-119004761D01*
X112502380Y-119052380D01*
X112597619Y-119052380D01*
X112692857Y-119004761D01*
X112740476Y-118957142D01*
X112788095Y-118861904D01*
X112835714Y-118671428D01*
X112835714Y-118433333D01*
X112788095Y-118242857D01*
X112740476Y-118147619D01*
X112692857Y-118100000D01*
X112597619Y-118052380D01*
X122888285Y-118784666D02*
X122412095Y-118784666D01*
X122983523Y-119070380D02*
X122650190Y-118070380D01*
X122316857Y-119070380D01*
X121793047Y-118070380D02*
X121697809Y-118070380D01*
X121602571Y-118118000D01*
X121554952Y-118165619D01*
X121507333Y-118260857D01*
X121459714Y-118451333D01*
X121459714Y-118689428D01*
X121507333Y-118879904D01*
X121554952Y-118975142D01*
X121602571Y-119022761D01*
X121697809Y-119070380D01*
X121793047Y-119070380D01*
X121888285Y-119022761D01*
X121935904Y-118975142D01*
X121983523Y-118879904D01*
X122031142Y-118689428D01*
X122031142Y-118451333D01*
X121983523Y-118260857D01*
X121935904Y-118165619D01*
X121888285Y-118118000D01*
X121793047Y-118070380D01*
X107450000Y-117094095D02*
X107402380Y-116998857D01*
X107402380Y-116856000D01*
X107450000Y-116713142D01*
X107545238Y-116617904D01*
X107640476Y-116570285D01*
X107830952Y-116522666D01*
X107973809Y-116522666D01*
X108164285Y-116570285D01*
X108259523Y-116617904D01*
X108354761Y-116713142D01*
X108402380Y-116856000D01*
X108402380Y-116951238D01*
X108354761Y-117094095D01*
X108307142Y-117141714D01*
X107973809Y-117141714D01*
X107973809Y-116951238D01*
X108402380Y-117570285D02*
X107402380Y-117570285D01*
X108402380Y-118141714D01*
X107402380Y-118141714D01*
X108402380Y-118617904D02*
X107402380Y-118617904D01*
X107402380Y-118856000D01*
X107450000Y-118998857D01*
X107545238Y-119094095D01*
X107640476Y-119141714D01*
X107830952Y-119189333D01*
X107973809Y-119189333D01*
X108164285Y-119141714D01*
X108259523Y-119094095D01*
X108354761Y-118998857D01*
X108402380Y-118856000D01*
X108402380Y-118617904D01*
X110942380Y-115641619D02*
X110466190Y-115308285D01*
X110942380Y-115070190D02*
X109942380Y-115070190D01*
X109942380Y-115451142D01*
X109990000Y-115546380D01*
X110037619Y-115594000D01*
X110132857Y-115641619D01*
X110275714Y-115641619D01*
X110370952Y-115594000D01*
X110418571Y-115546380D01*
X110466190Y-115451142D01*
X110466190Y-115070190D01*
X110418571Y-116070190D02*
X110418571Y-116403523D01*
X110942380Y-116546380D02*
X110942380Y-116070190D01*
X109942380Y-116070190D01*
X109942380Y-116546380D01*
X110894761Y-116927333D02*
X110942380Y-117070190D01*
X110942380Y-117308285D01*
X110894761Y-117403523D01*
X110847142Y-117451142D01*
X110751904Y-117498761D01*
X110656666Y-117498761D01*
X110561428Y-117451142D01*
X110513809Y-117403523D01*
X110466190Y-117308285D01*
X110418571Y-117117809D01*
X110370952Y-117022571D01*
X110323333Y-116974952D01*
X110228095Y-116927333D01*
X110132857Y-116927333D01*
X110037619Y-116974952D01*
X109990000Y-117022571D01*
X109942380Y-117117809D01*
X109942380Y-117355904D01*
X109990000Y-117498761D01*
X110418571Y-117927333D02*
X110418571Y-118260666D01*
X110942380Y-118403523D02*
X110942380Y-117927333D01*
X109942380Y-117927333D01*
X109942380Y-118403523D01*
X109942380Y-118689238D02*
X109942380Y-119260666D01*
X110942380Y-118974952D02*
X109942380Y-118974952D01*
X148542285Y-118784666D02*
X148066095Y-118784666D01*
X148637523Y-119070380D02*
X148304190Y-118070380D01*
X147970857Y-119070380D01*
X147161333Y-118070380D02*
X147637523Y-118070380D01*
X147685142Y-118546571D01*
X147637523Y-118498952D01*
X147542285Y-118451333D01*
X147304190Y-118451333D01*
X147208952Y-118498952D01*
X147161333Y-118546571D01*
X147113714Y-118641809D01*
X147113714Y-118879904D01*
X147161333Y-118975142D01*
X147208952Y-119022761D01*
X147304190Y-119070380D01*
X147542285Y-119070380D01*
X147637523Y-119022761D01*
X147685142Y-118975142D01*
X143114285Y-118784666D02*
X142638095Y-118784666D01*
X143209523Y-119070380D02*
X142876190Y-118070380D01*
X142542857Y-119070380D01*
X141780952Y-118403714D02*
X141780952Y-119070380D01*
X142019047Y-118022761D02*
X142257142Y-118737047D01*
X141638095Y-118737047D01*
X146002285Y-118784666D02*
X145526095Y-118784666D01*
X146097523Y-119070380D02*
X145764190Y-118070380D01*
X145430857Y-119070380D01*
X144621333Y-118070380D02*
X145097523Y-118070380D01*
X145145142Y-118546571D01*
X145097523Y-118498952D01*
X145002285Y-118451333D01*
X144764190Y-118451333D01*
X144668952Y-118498952D01*
X144621333Y-118546571D01*
X144573714Y-118641809D01*
X144573714Y-118879904D01*
X144621333Y-118975142D01*
X144668952Y-119022761D01*
X144764190Y-119070380D01*
X145002285Y-119070380D01*
X145097523Y-119022761D01*
X145145142Y-118975142D01*
X135588285Y-118784666D02*
X135112095Y-118784666D01*
X135683523Y-119070380D02*
X135350190Y-118070380D01*
X135016857Y-119070380D01*
X134778761Y-118070380D02*
X134159714Y-118070380D01*
X134493047Y-118451333D01*
X134350190Y-118451333D01*
X134254952Y-118498952D01*
X134207333Y-118546571D01*
X134159714Y-118641809D01*
X134159714Y-118879904D01*
X134207333Y-118975142D01*
X134254952Y-119022761D01*
X134350190Y-119070380D01*
X134635904Y-119070380D01*
X134731142Y-119022761D01*
X134778761Y-118975142D01*
X140668285Y-118784666D02*
X140192095Y-118784666D01*
X140763523Y-119070380D02*
X140430190Y-118070380D01*
X140096857Y-119070380D01*
X139334952Y-118403714D02*
X139334952Y-119070380D01*
X139573047Y-118022761D02*
X139811142Y-118737047D01*
X139192095Y-118737047D01*
X138128285Y-118784666D02*
X137652095Y-118784666D01*
X138223523Y-119070380D02*
X137890190Y-118070380D01*
X137556857Y-119070380D01*
X137318761Y-118070380D02*
X136699714Y-118070380D01*
X137033047Y-118451333D01*
X136890190Y-118451333D01*
X136794952Y-118498952D01*
X136747333Y-118546571D01*
X136699714Y-118641809D01*
X136699714Y-118879904D01*
X136747333Y-118975142D01*
X136794952Y-119022761D01*
X136890190Y-119070380D01*
X137175904Y-119070380D01*
X137271142Y-119022761D01*
X137318761Y-118975142D01*
X127968285Y-118784666D02*
X127492095Y-118784666D01*
X128063523Y-119070380D02*
X127730190Y-118070380D01*
X127396857Y-119070380D01*
X126539714Y-119070380D02*
X127111142Y-119070380D01*
X126825428Y-119070380D02*
X126825428Y-118070380D01*
X126920666Y-118213238D01*
X127015904Y-118308476D01*
X127111142Y-118356095D01*
X133048285Y-118784666D02*
X132572095Y-118784666D01*
X133143523Y-119070380D02*
X132810190Y-118070380D01*
X132476857Y-119070380D01*
X132191142Y-118165619D02*
X132143523Y-118118000D01*
X132048285Y-118070380D01*
X131810190Y-118070380D01*
X131714952Y-118118000D01*
X131667333Y-118165619D01*
X131619714Y-118260857D01*
X131619714Y-118356095D01*
X131667333Y-118498952D01*
X132238761Y-119070380D01*
X131619714Y-119070380D01*
X130508285Y-118784666D02*
X130032095Y-118784666D01*
X130603523Y-119070380D02*
X130270190Y-118070380D01*
X129936857Y-119070380D01*
X129651142Y-118165619D02*
X129603523Y-118118000D01*
X129508285Y-118070380D01*
X129270190Y-118070380D01*
X129174952Y-118118000D01*
X129127333Y-118165619D01*
X129079714Y-118260857D01*
X129079714Y-118356095D01*
X129127333Y-118498952D01*
X129698761Y-119070380D01*
X129079714Y-119070380D01*
X125428285Y-118784666D02*
X124952095Y-118784666D01*
X125523523Y-119070380D02*
X125190190Y-118070380D01*
X124856857Y-119070380D01*
X123999714Y-119070380D02*
X124571142Y-119070380D01*
X124285428Y-119070380D02*
X124285428Y-118070380D01*
X124380666Y-118213238D01*
X124475904Y-118308476D01*
X124571142Y-118356095D01*
X120348285Y-118784666D02*
X119872095Y-118784666D01*
X120443523Y-119070380D02*
X120110190Y-118070380D01*
X119776857Y-119070380D01*
X119253047Y-118070380D02*
X119157809Y-118070380D01*
X119062571Y-118118000D01*
X119014952Y-118165619D01*
X118967333Y-118260857D01*
X118919714Y-118451333D01*
X118919714Y-118689428D01*
X118967333Y-118879904D01*
X119014952Y-118975142D01*
X119062571Y-119022761D01*
X119157809Y-119070380D01*
X119253047Y-119070380D01*
X119348285Y-119022761D01*
X119395904Y-118975142D01*
X119443523Y-118879904D01*
X119491142Y-118689428D01*
X119491142Y-118451333D01*
X119443523Y-118260857D01*
X119395904Y-118165619D01*
X119348285Y-118118000D01*
X119253047Y-118070380D01*
M02*
