G04 #@! TF.GenerationSoftware,KiCad,Pcbnew,(5.1.2)-2*
G04 #@! TF.CreationDate,2019-11-01T20:16:41+11:00*
G04 #@! TF.ProjectId,BoSL_GSP,426f534c-5f47-4535-902e-6b696361645f,0.3*
G04 #@! TF.SameCoordinates,Original*
G04 #@! TF.FileFunction,Soldermask,Bot*
G04 #@! TF.FilePolarity,Negative*
%FSLAX46Y46*%
G04 Gerber Fmt 4.6, Leading zero omitted, Abs format (unit mm)*
G04 Created by KiCad (PCBNEW (5.1.2)-2) date 2019-11-01 20:16:41*
%MOMM*%
%LPD*%
G04 APERTURE LIST*
%ADD10C,2.600000*%
%ADD11C,1.850000*%
%ADD12C,4.000000*%
%ADD13R,2.100000X2.100000*%
%ADD14O,2.100000X2.100000*%
%ADD15C,2.100000*%
%ADD16C,2.400000*%
%ADD17R,3.900000X3.900000*%
%ADD18R,2.800000X2.000000*%
%ADD19O,2.800000X2.000000*%
%ADD20C,1.900000*%
%ADD21O,1.350000X1.650000*%
%ADD22O,1.950000X1.400000*%
G04 APERTURE END LIST*
D10*
X126500000Y-90900000D03*
X168900000Y-112900000D03*
D11*
X113318000Y-98040000D03*
X113318000Y-96000000D03*
X113318000Y-93960000D03*
X113318000Y-91920000D03*
X111540000Y-99020000D03*
X111540000Y-92900000D03*
X111540000Y-96980000D03*
X111540000Y-94940000D03*
D12*
X109000000Y-89130000D03*
X109000000Y-101830000D03*
D13*
X168080000Y-74750000D03*
D14*
X165540000Y-74750000D03*
X163000000Y-74750000D03*
X160460000Y-74750000D03*
X157920000Y-74750000D03*
X155380000Y-74750000D03*
X152840000Y-74750000D03*
X150300000Y-74750000D03*
X147760000Y-74750000D03*
D13*
X151470000Y-121020000D03*
D14*
X154010000Y-121020000D03*
X156550000Y-121020000D03*
X159090000Y-121020000D03*
X161630000Y-121020000D03*
X164170000Y-121020000D03*
X166710000Y-121020000D03*
X169250000Y-121020000D03*
X171790000Y-121020000D03*
X174330000Y-121020000D03*
X176870000Y-121020000D03*
X179410000Y-121020000D03*
X181950000Y-121020000D03*
X184490000Y-121020000D03*
X187030000Y-121020000D03*
X189570000Y-121020000D03*
D15*
X146000000Y-128600000D03*
X141000000Y-128600000D03*
X136000000Y-128600000D03*
X131000000Y-128600000D03*
X126000000Y-128600000D03*
X121000000Y-128600000D03*
X127600000Y-67200000D03*
X132600000Y-67200000D03*
X137600000Y-67200000D03*
X142600000Y-67200000D03*
X114400000Y-128600000D03*
X109400000Y-128600000D03*
X149200000Y-67200000D03*
X154200000Y-67200000D03*
X159200000Y-67200000D03*
X164200000Y-67200000D03*
X188000000Y-128600000D03*
X183000000Y-128600000D03*
X178000000Y-128600000D03*
X173000000Y-128600000D03*
X168000000Y-128600000D03*
X163000000Y-128600000D03*
X158000000Y-128600000D03*
X153000000Y-128600000D03*
D10*
X174150000Y-67060000D03*
X179230000Y-67060000D03*
X179230000Y-72140000D03*
X174150000Y-72140000D03*
D16*
X176690000Y-69600000D03*
D17*
X119000000Y-68300000D03*
X113000000Y-68300000D03*
X116000000Y-73000000D03*
D18*
X143670000Y-114050000D03*
D19*
X136050000Y-81030000D03*
X143670000Y-111510000D03*
X136050000Y-83570000D03*
X143670000Y-108970000D03*
X136050000Y-86110000D03*
X143670000Y-106430000D03*
X136050000Y-88650000D03*
X143670000Y-103890000D03*
X136050000Y-91190000D03*
X143670000Y-101350000D03*
X136050000Y-93730000D03*
X143670000Y-98810000D03*
X136050000Y-96270000D03*
X143670000Y-96270000D03*
X136050000Y-98810000D03*
X143670000Y-93730000D03*
X136050000Y-101350000D03*
X143670000Y-91190000D03*
X136050000Y-103890000D03*
X143670000Y-88650000D03*
X136050000Y-106430000D03*
X143670000Y-86110000D03*
X136050000Y-108970000D03*
X143670000Y-83570000D03*
X136050000Y-111510000D03*
X143670000Y-81030000D03*
X136050000Y-114050000D03*
D13*
X136322000Y-74750000D03*
D14*
X138862000Y-74750000D03*
X141402000Y-74750000D03*
X143942000Y-74750000D03*
D13*
X125360000Y-74750000D03*
D14*
X127900000Y-74750000D03*
X130440000Y-74750000D03*
X132980000Y-74750000D03*
D13*
X107950000Y-121158000D03*
D14*
X110490000Y-121158000D03*
X113030000Y-121158000D03*
X115570000Y-121158000D03*
D13*
X177960000Y-106430000D03*
D14*
X175420000Y-106430000D03*
X172880000Y-106430000D03*
X170340000Y-106430000D03*
D20*
X148750000Y-89920000D03*
X148750000Y-94800000D03*
D13*
X147586000Y-121112000D03*
D14*
X145046000Y-121112000D03*
X142506000Y-121112000D03*
X139966000Y-121112000D03*
X137426000Y-121112000D03*
X134886000Y-121112000D03*
X132346000Y-121112000D03*
X129806000Y-121112000D03*
X127266000Y-121112000D03*
X124726000Y-121112000D03*
X122186000Y-121112000D03*
X119646000Y-121112000D03*
D21*
X108750000Y-78900000D03*
X108750000Y-83900000D03*
D22*
X106050000Y-77900000D03*
X106050000Y-84900000D03*
M02*
